<?xml version="1.0" encoding="UTF-8"?>
<svg xmlns="http://www.w3.org/2000/svg" xmlns:xlink="http://www.w3.org/1999/xlink" width="32" height="32" viewBox="0 0 32 32">
<path fill-rule="nonzero" fill="rgb(0%, 0%, 100%)" fill-opacity="1" d="M 1.351562 15.449219 C 1.378906 14.953125 1.378906 14.457031 1.40625 13.984375 C 1.488281 13.515625 1.542969 13.046875 1.628906 12.578125 C 1.738281 12.109375 1.875 11.640625 1.984375 11.199219 C 2.152344 10.757812 2.289062 10.316406 2.457031 9.875 C 2.648438 9.433594 2.867188 9.019531 3.0625 8.605469 C 3.308594 8.191406 3.558594 7.78125 3.808594 7.394531 C 4.082031 7.007812 4.332031 6.648438 4.605469 6.289062 C 4.910156 5.929688 5.242188 5.601562 5.542969 5.269531 C 5.875 4.964844 6.207031 4.632812 6.566406 4.332031 C 6.925781 4.054688 7.28125 3.78125 7.667969 3.503906 C 8.054688 3.253906 8.441406 3.007812 8.855469 2.757812 C 9.269531 2.566406 9.710938 2.34375 10.152344 2.152344 C 10.59375 1.984375 11.035156 1.847656 11.476562 1.683594 C 11.917969 1.574219 12.386719 1.433594 12.855469 1.324219 C 13.324219 1.242188 13.792969 1.1875 14.261719 1.101562 C 14.757812 1.074219 15.253906 1.019531 15.75 0.992188 C 16.21875 1.019531 16.71875 1.046875 17.1875 1.074219 C 17.683594 1.160156 18.179688 1.214844 18.648438 1.296875 C 19.117188 1.40625 19.585938 1.515625 20.027344 1.628906 C 20.46875 1.792969 20.910156 1.957031 21.351562 2.125 C 21.792969 2.316406 22.207031 2.511719 22.621094 2.703125 C 23.035156 2.953125 23.421875 3.199219 23.808594 3.449219 C 24.191406 3.722656 24.578125 4 24.9375 4.277344 C 25.296875 4.578125 25.628906 4.910156 25.957031 5.214844 C 26.289062 5.542969 26.59375 5.875 26.898438 6.234375 C 27.171875 6.59375 27.449219 6.953125 27.722656 7.308594 C 27.972656 7.695312 28.191406 8.109375 28.441406 8.523438 C 28.632812 8.9375 28.855469 9.351562 29.046875 9.765625 C 29.214844 10.207031 29.40625 10.648438 29.574219 11.089844 C 29.683594 11.53125 29.820312 12 29.929688 12.46875 C 30.015625 12.9375 30.070312 13.40625 30.152344 13.902344 C 30.179688 14.371094 30.207031 14.867188 30.234375 15.367188 C 30.207031 15.863281 30.179688 16.332031 30.152344 16.828125 C 30.070312 17.324219 30.015625 17.792969 29.929688 18.261719 C 29.820312 18.730469 29.710938 19.199219 29.601562 19.640625 C 29.433594 20.082031 29.269531 20.523438 29.101562 20.964844 C 28.910156 21.40625 28.691406 21.820312 28.496094 22.234375 C 28.25 22.648438 28.027344 23.035156 27.78125 23.421875 C 27.503906 23.808594 27.253906 24.191406 26.980469 24.550781 C 26.648438 24.910156 26.34375 25.242188 26.015625 25.574219 C 25.683594 25.875 25.351562 26.179688 24.992188 26.484375 C 24.632812 26.757812 24.277344 27.0625 23.917969 27.339844 C 23.53125 27.585938 23.117188 27.808594 22.703125 28.054688 C 22.289062 28.25 21.875 28.46875 21.433594 28.660156 C 20.992188 28.828125 20.550781 28.992188 20.109375 29.160156 C 19.667969 29.269531 19.199219 29.40625 18.730469 29.515625 C 18.261719 29.601562 17.792969 29.65625 17.296875 29.738281 C 16.828125 29.765625 16.332031 29.792969 15.863281 29.820312 C 15.367188 29.792969 14.867188 29.792969 14.371094 29.765625 C 13.875 29.683594 13.40625 29.628906 12.9375 29.542969 C 12.46875 29.433594 12 29.296875 11.558594 29.1875 C 11.117188 29.019531 10.675781 28.882812 10.234375 28.71875 C 9.792969 28.496094 9.378906 28.304688 8.964844 28.082031 C 8.550781 27.863281 8.164062 27.613281 7.78125 27.394531 C 7.394531 27.117188 7.007812 26.839844 6.648438 26.566406 C 6.289062 26.261719 5.957031 25.957031 5.628906 25.628906 C 5.324219 25.296875 4.992188 24.964844 4.691406 24.605469 C 4.414062 24.25 4.109375 23.890625 3.835938 23.503906 C 3.585938 23.117188 3.367188 22.730469 3.117188 22.316406 C 2.925781 21.902344 2.703125 21.488281 2.511719 21.046875 C 2.34375 20.632812 2.179688 20.191406 2.015625 19.75 C 1.902344 19.28125 1.765625 18.8125 1.65625 18.34375 C 1.574219 17.875 1.515625 17.40625 1.433594 16.910156 C 1.40625 16.414062 1.378906 15.945312 1.351562 15.449219 Z M 3.367188 16.632812 C 3.449219 17.046875 3.503906 17.460938 3.585938 17.847656 C 3.667969 18.261719 3.78125 18.675781 3.863281 19.0625 C 4 19.449219 4.136719 19.835938 4.277344 20.191406 C 4.441406 20.578125 4.632812 20.9375 4.800781 21.296875 C 4.992188 21.65625 5.214844 21.984375 5.40625 22.316406 C 5.628906 22.648438 5.875 22.980469 6.125 23.28125 C 6.398438 23.585938 6.675781 23.890625 6.953125 24.164062 C 7.226562 24.441406 7.53125 24.71875 7.835938 24.992188 C 8.136719 25.242188 8.46875 25.460938 8.800781 25.683594 C 9.132812 25.902344 9.460938 26.125 9.820312 26.316406 C 10.179688 26.511719 10.539062 26.675781 10.898438 26.839844 C 11.253906 26.980469 11.640625 27.144531 12.027344 27.28125 C 12.414062 27.394531 12.828125 27.476562 13.242188 27.585938 C 13.65625 27.640625 14.070312 27.722656 14.484375 27.78125 C 14.898438 27.808594 15.308594 27.808594 15.75 27.835938 C 16.164062 27.808594 16.578125 27.808594 16.992188 27.78125 C 17.40625 27.722656 17.820312 27.667969 18.234375 27.613281 C 18.648438 27.503906 19.0625 27.394531 19.449219 27.28125 C 19.835938 27.144531 20.21875 27.035156 20.605469 26.898438 C 20.964844 26.730469 21.324219 26.566406 21.683594 26.371094 C 22.042969 26.179688 22.371094 25.984375 22.703125 25.765625 C 23.035156 25.515625 23.367188 25.269531 23.667969 25.019531 C 23.972656 24.773438 24.277344 24.496094 24.578125 24.21875 C 24.855469 23.945312 25.132812 23.640625 25.378906 23.339844 C 25.628906 23.035156 25.875 22.703125 26.097656 22.371094 C 26.316406 22.042969 26.539062 21.710938 26.730469 21.378906 C 26.898438 21.019531 27.089844 20.660156 27.253906 20.277344 C 27.394531 19.917969 27.53125 19.53125 27.667969 19.144531 C 27.78125 18.757812 27.890625 18.371094 28 17.957031 C 28.054688 17.542969 28.136719 17.132812 28.191406 16.71875 C 28.21875 16.304688 28.21875 15.863281 28.25 15.449219 C 28.21875 15.035156 28.21875 14.621094 28.191406 14.207031 C 28.136719 13.792969 28.054688 13.378906 28 12.964844 C 27.917969 12.550781 27.808594 12.164062 27.722656 11.78125 C 27.585938 11.394531 27.449219 11.007812 27.308594 10.621094 C 27.117188 10.261719 26.953125 9.902344 26.757812 9.542969 C 26.566406 9.1875 26.371094 8.855469 26.152344 8.523438 C 25.929688 8.191406 25.683594 7.863281 25.433594 7.53125 C 25.1875 7.226562 24.910156 6.953125 24.632812 6.675781 C 24.359375 6.398438 24.054688 6.125 23.75 5.847656 C 23.449219 5.601562 23.117188 5.351562 22.785156 5.132812 C 22.457031 4.910156 22.125 4.71875 21.765625 4.496094 C 21.40625 4.332031 21.046875 4.136719 20.691406 3.972656 C 20.304688 3.835938 19.917969 3.695312 19.53125 3.558594 C 19.144531 3.449219 18.757812 3.367188 18.34375 3.253906 C 17.929688 3.171875 17.515625 3.117188 17.101562 3.035156 C 16.691406 3.007812 16.277344 3.007812 15.863281 2.980469 C 15.421875 3.007812 14.980469 3.007812 14.566406 3.035156 C 14.152344 3.089844 13.738281 3.171875 13.351562 3.226562 C 12.9375 3.308594 12.523438 3.421875 12.109375 3.503906 C 11.722656 3.640625 11.339844 3.808594 10.980469 3.945312 C 10.621094 4.109375 10.261719 4.304688 9.902344 4.46875 C 9.542969 4.691406 9.1875 4.882812 8.855469 5.101562 C 8.523438 5.324219 8.191406 5.542969 7.890625 5.792969 C 7.585938 6.042969 7.28125 6.316406 7.007812 6.59375 C 6.730469 6.867188 6.457031 7.171875 6.179688 7.476562 C 5.929688 7.78125 5.710938 8.082031 5.488281 8.414062 C 5.269531 8.746094 5.074219 9.101562 4.855469 9.460938 C 4.691406 9.820312 4.496094 10.179688 4.332031 10.539062 C 4.191406 10.925781 4.054688 11.308594 3.917969 11.695312 C 3.808594 12.082031 3.695312 12.46875 3.585938 12.855469 C 3.53125 13.269531 3.449219 13.683594 3.394531 14.097656 C 3.367188 14.511719 3.339844 14.925781 3.308594 15.367188 C 3.339844 15.78125 3.339844 16.21875 3.367188 16.632812 Z M 3.367188 16.632812 "/>
<path fill="none" stroke-width="1" stroke-linecap="butt" stroke-linejoin="miter" stroke="rgb(0%, 0%, 100%)" stroke-opacity="1" stroke-miterlimit="4" d="M 48.994141 560.03418 C 49.985352 542.050781 49.985352 524.067383 50.976562 506.933594 C 53.950195 489.941406 55.932617 472.949219 59.047852 455.957031 C 63.012695 438.964844 67.96875 421.972656 71.933594 405.97168 C 78.022461 389.970703 82.978516 373.969727 89.067383 357.96875 C 96.005859 341.967773 103.935547 326.958008 111.015625 311.948242 C 119.936523 296.938477 128.999023 282.070312 138.061523 268.051758 C 147.973633 254.033203 157.036133 241.005859 166.948242 227.978516 C 177.993164 214.951172 190.029297 203.056641 200.932617 191.020508 C 212.96875 179.975586 225.004883 167.939453 238.032227 157.036133 C 251.05957 146.982422 263.945312 137.070312 277.963867 127.016602 C 291.982422 117.954102 306.000977 109.033203 321.010742 99.970703 C 336.020508 93.032227 352.021484 84.960937 368.022461 78.022461 C 384.023437 71.933594 400.024414 66.977539 416.025391 61.030273 C 432.026367 57.06543 449.018555 51.967773 466.010742 48.00293 C 483.00293 45.029297 499.995117 43.046875 516.987305 39.931641 C 534.970703 38.94043 552.954102 36.958008 570.9375 35.966797 C 587.929687 36.958008 606.054687 37.949219 623.046875 38.94043 C 641.030273 42.055664 659.013672 44.038086 676.005859 47.011719 C 692.998047 50.976562 709.990234 54.941406 725.991211 59.047852 C 741.992187 64.995117 757.993164 70.942383 773.994141 77.03125 C 789.995117 83.969727 805.004883 91.049805 820.014648 97.988281 C 835.024414 107.050781 849.042969 115.97168 863.061523 125.03418 C 876.938477 134.946289 890.957031 145 903.984375 155.053711 C 917.011719 165.957031 929.047852 177.993164 940.942383 189.038086 C 952.978516 200.932617 964.023437 212.96875 975.068359 225.996094 C 984.980469 239.023437 995.03418 252.050781 1004.946289 264.936523 C 1014.008789 278.955078 1021.938477 293.964844 1031.000977 308.974609 C 1037.939453 323.984375 1046.010742 338.994141 1052.949219 354.003906 C 1059.038086 370.004883 1065.976562 386.005859 1072.06543 402.006836 C 1076.030273 418.007812 1080.986328 435 1084.951172 451.992187 C 1088.066406 468.984375 1090.048828 485.976562 1093.022461 503.959961 C 1094.013672 520.952148 1095.004883 538.935547 1095.996094 557.060547 C 1095.004883 575.043945 1094.013672 592.036133 1093.022461 610.019531 C 1090.048828 628.00293 1088.066406 644.995117 1084.951172 661.987305 C 1080.986328 678.979492 1077.021484 695.97168 1073.056641 711.972656 C 1066.967773 727.973633 1061.020508 743.974609 1054.931641 759.975586 C 1047.993164 775.976562 1040.063477 790.986328 1032.983398 805.996094 C 1024.0625 821.005859 1015.991211 835.024414 1007.070312 849.042969 C 997.016602 863.061523 987.954102 876.938477 978.041992 889.96582 C 966.005859 902.993164 954.960937 915.029297 943.066406 927.06543 C 931.030273 937.96875 918.994141 949.013672 905.966797 960.058594 C 892.939453 969.970703 880.053711 981.015625 867.026367 991.069336 C 853.007812 999.990234 837.998047 1008.061523 822.988281 1016.982422 C 807.978516 1024.0625 792.96875 1031.992187 776.967773 1038.930664 C 760.966797 1045.019531 744.96582 1050.966797 728.964844 1057.055664 C 712.963867 1061.020508 695.97168 1065.976562 678.979492 1069.941406 C 661.987305 1073.056641 644.995117 1075.039062 627.011719 1078.012695 C 610.019531 1079.003906 592.036133 1079.995117 575.043945 1080.986328 C 557.060547 1079.995117 538.935547 1079.995117 520.952148 1079.003906 C 502.96875 1076.030273 485.976562 1074.047852 468.984375 1070.932617 C 451.992187 1066.967773 435 1062.011719 418.999023 1058.046875 C 402.998047 1051.958008 386.99707 1047.001953 370.996094 1041.054687 C 354.995117 1032.983398 339.985352 1026.044922 324.975586 1017.973633 C 309.96582 1010.043945 295.947266 1000.981445 282.070312 993.051758 C 268.051758 982.998047 254.033203 972.944336 241.005859 963.032227 C 227.978516 951.987305 215.942383 940.942383 204.047852 929.047852 C 193.00293 917.011719 180.966797 904.975586 170.063477 891.948242 C 160.009766 879.0625 148.964844 866.035156 139.052734 852.016602 C 129.990234 837.998047 122.060547 823.979492 112.998047 808.969727 C 106.05957 793.959961 97.988281 778.950195 91.049805 762.949219 C 84.960937 747.939453 79.013672 731.938477 73.066406 715.9375 C 68.959961 698.945312 64.003906 681.953125 60.039062 664.960937 C 57.06543 647.96875 54.941406 630.976562 51.967773 612.993164 C 50.976562 595.009766 49.985352 578.017578 48.994141 560.03418 Z M 48.994141 560.03418 " transform="matrix(0.0275862, 0, 0, 0.0275862, 0, 0)"/>
<path fill="none" stroke-width="1" stroke-linecap="butt" stroke-linejoin="miter" stroke="rgb(0%, 0%, 100%)" stroke-opacity="1" stroke-miterlimit="4" d="M 122.060547 602.939453 C 125.03418 617.949219 127.016602 632.958984 129.990234 646.977539 C 132.963867 661.987305 137.070312 676.99707 140.043945 691.015625 C 145 705.03418 149.956055 719.052734 155.053711 731.938477 C 161.000977 745.957031 167.939453 758.984375 174.02832 772.011719 C 180.966797 785.039062 189.038086 796.933594 195.976562 808.969727 C 204.047852 821.005859 212.96875 833.041992 222.03125 843.945312 C 231.943359 854.990234 241.99707 866.035156 252.050781 875.947266 C 261.962891 886.000977 273.007812 896.054687 284.052734 905.966797 C 294.956055 915.029297 306.992187 922.958984 319.02832 931.030273 C 331.064453 938.959961 342.958984 947.03125 355.986328 953.969727 C 369.013672 961.049805 382.041016 966.99707 395.068359 972.944336 C 407.954102 978.041992 421.972656 983.989258 435.991211 988.945312 C 450.009766 993.051758 465.019531 996.025391 480.029297 999.990234 C 495.039062 1001.972656 510.048828 1004.946289 525.058594 1007.070312 C 540.068359 1008.061523 554.936523 1008.061523 570.9375 1009.052734 C 585.947266 1008.061523 600.957031 1008.061523 615.966797 1007.070312 C 630.976562 1004.946289 645.986328 1002.963867 660.996094 1000.981445 C 676.005859 997.016602 691.015625 993.051758 705.03418 988.945312 C 719.052734 983.989258 732.929687 980.024414 746.948242 975.068359 C 759.975586 968.979492 773.00293 963.032227 786.030273 955.952148 C 799.057617 949.013672 810.952148 941.933594 822.988281 934.003906 C 835.024414 924.941406 847.060547 916.020508 857.963867 906.958008 C 869.008789 898.037109 880.053711 887.983398 890.957031 877.929687 C 901.010742 868.017578 911.064453 856.972656 919.985352 846.069336 C 929.047852 835.024414 937.96875 822.988281 946.040039 810.952148 C 953.969727 799.057617 962.041016 787.021484 968.979492 774.985352 C 975.068359 761.958008 982.006836 748.930664 987.954102 735.053711 C 993.051758 722.026367 998.007812 708.007812 1002.963867 693.989258 C 1007.070312 679.970703 1011.035156 665.952148 1015 650.942383 C 1016.982422 635.932617 1019.956055 621.064453 1021.938477 606.054687 C 1022.929687 591.044922 1022.929687 575.043945 1024.0625 560.03418 C 1022.929687 545.024414 1022.929687 530.014648 1021.938477 515.004883 C 1019.956055 499.995117 1016.982422 484.985352 1015 469.975586 C 1012.026367 454.96582 1008.061523 440.947266 1004.946289 427.070312 C 999.990234 413.051758 995.03418 399.033203 989.936523 385.014648 C 982.998047 371.987305 977.050781 358.959961 969.970703 345.932617 C 963.032227 333.046875 955.952148 321.010742 948.022461 308.974609 C 939.951172 296.938477 931.030273 285.043945 921.967773 273.007812 C 913.046875 261.962891 902.993164 252.050781 892.939453 241.99707 C 883.027344 231.943359 871.982422 222.03125 860.9375 211.977539 C 850.03418 203.056641 837.998047 193.994141 825.961914 186.064453 C 814.067383 177.993164 802.03125 171.054687 789.003906 162.983398 C 775.976562 157.036133 762.949219 149.956055 750.063477 144.008789 C 736.044922 139.052734 722.026367 133.955078 708.007812 128.999023 C 693.989258 125.03418 679.970703 122.060547 664.960937 117.954102 C 649.951172 114.980469 634.941406 112.998047 619.931641 110.024414 C 605.063477 109.033203 590.053711 109.033203 575.043945 108.041992 C 559.042969 109.033203 543.041992 109.033203 528.032227 110.024414 C 513.022461 112.006836 498.012695 114.980469 483.994141 116.962891 C 468.984375 119.936523 453.974609 124.042969 438.964844 127.016602 C 424.946289 131.972656 411.069336 138.061523 398.041992 143.017578 C 385.014648 148.964844 371.987305 156.044922 358.959961 161.992187 C 345.932617 170.063477 333.046875 177.001953 321.010742 184.931641 C 308.974609 193.00293 296.938477 200.932617 286.035156 209.995117 C 274.990234 219.057617 263.945312 228.969727 254.033203 239.023437 C 243.979492 248.935547 234.067383 259.980469 224.013672 271.025391 C 214.951172 282.070312 207.021484 292.973633 198.950195 305.009766 C 191.020508 317.045898 183.94043 329.931641 176.010742 342.958984 C 170.063477 355.986328 162.983398 369.013672 157.036133 382.041016 C 151.938477 396.05957 146.982422 409.936523 142.026367 423.955078 C 138.061523 437.973633 133.955078 451.992187 129.990234 466.010742 C 128.007812 481.020508 125.03418 496.030273 123.051758 511.040039 C 122.060547 526.049805 121.069336 541.05957 119.936523 557.060547 C 121.069336 572.070312 121.069336 587.929687 122.060547 602.939453 Z M 122.060547 602.939453 " transform="matrix(0.0275862, 0, 0, 0.0275862, 0, 0)"/>
<path fill-rule="nonzero" fill="rgb(0%, 0%, 100%)" fill-opacity="1" d="M 8.773438 21.847656 L 9.792969 21.847656 C 10.070312 21.847656 10.261719 21.875 10.398438 21.929688 C 10.511719 21.984375 10.648438 22.097656 10.757812 22.234375 C 10.867188 22.371094 10.953125 22.539062 11.007812 22.757812 C 11.089844 22.980469 11.117188 23.253906 11.117188 23.585938 C 11.117188 23.863281 11.089844 24.136719 11.007812 24.332031 C 10.953125 24.550781 10.867188 24.746094 10.757812 24.855469 C 10.648438 24.992188 10.539062 25.074219 10.398438 25.160156 C 10.234375 25.214844 10.070312 25.242188 9.820312 25.242188 L 8.773438 25.242188 Z M 9.324219 22.425781 L 9.324219 24.660156 L 9.765625 24.660156 C 9.929688 24.660156 10.070312 24.660156 10.152344 24.605469 C 10.234375 24.578125 10.289062 24.523438 10.34375 24.46875 C 10.398438 24.386719 10.457031 24.277344 10.484375 24.136719 C 10.511719 24 10.539062 23.808594 10.539062 23.558594 C 10.539062 23.308594 10.511719 23.089844 10.484375 22.953125 C 10.457031 22.8125 10.398438 22.703125 10.316406 22.621094 C 10.234375 22.539062 10.152344 22.484375 10.042969 22.457031 C 9.957031 22.425781 9.820312 22.425781 9.601562 22.425781 Z M 9.324219 22.425781 "/>
<path fill-rule="nonzero" fill="rgb(0%, 0%, 100%)" fill-opacity="1" d="M 11.613281 25.242188 C 11.613281 24.109375 11.613281 22.980469 11.613281 21.847656 C 12.304688 21.847656 12.992188 21.847656 13.683594 21.847656 C 13.683594 22.042969 13.683594 22.234375 13.683594 22.425781 C 13.1875 22.425781 12.691406 22.425781 12.191406 22.425781 C 12.191406 22.675781 12.191406 22.925781 12.191406 23.171875 C 12.660156 23.171875 13.101562 23.171875 13.574219 23.171875 C 13.574219 23.367188 13.574219 23.558594 13.574219 23.75 C 13.101562 23.75 12.660156 23.75 12.191406 23.75 C 12.191406 24.054688 12.191406 24.359375 12.191406 24.660156 C 12.691406 24.660156 13.214844 24.660156 13.738281 24.660156 C 13.738281 24.855469 13.738281 25.046875 13.738281 25.242188 Z M 11.613281 25.242188 "/>
<path fill-rule="nonzero" fill="rgb(0%, 0%, 100%)" fill-opacity="1" d="M 16.054688 24 L 16.605469 24.191406 C 16.523438 24.578125 16.359375 24.855469 16.164062 25.046875 C 15.972656 25.214844 15.722656 25.296875 15.449219 25.296875 C 15.089844 25.296875 14.785156 25.160156 14.566406 24.882812 C 14.289062 24.550781 14.179688 24.109375 14.179688 23.585938 C 14.179688 23.007812 14.289062 22.539062 14.566406 22.207031 C 14.785156 21.929688 15.089844 21.792969 15.476562 21.792969 C 15.78125 21.792969 16.054688 21.902344 16.25 22.097656 C 16.414062 22.261719 16.523438 22.484375 16.578125 22.785156 L 16.027344 22.953125 C 16 22.757812 15.917969 22.621094 15.835938 22.511719 C 15.722656 22.425781 15.585938 22.371094 15.449219 22.371094 C 15.253906 22.371094 15.0625 22.457031 14.953125 22.648438 C 14.8125 22.8125 14.757812 23.117188 14.757812 23.53125 C 14.757812 23.945312 14.8125 24.25 14.953125 24.441406 C 15.0625 24.632812 15.226562 24.71875 15.421875 24.71875 C 15.585938 24.71875 15.722656 24.660156 15.808594 24.550781 C 15.917969 24.414062 16 24.25 16.054688 24 Z M 16.054688 24 "/>
<path fill-rule="nonzero" fill="rgb(0%, 0%, 100%)" fill-opacity="1" d="M 16.992188 23.558594 C 16.992188 23.171875 17.046875 22.8125 17.1875 22.566406 C 17.296875 22.289062 17.460938 22.097656 17.65625 21.984375 C 17.847656 21.847656 18.070312 21.792969 18.34375 21.792969 C 18.757812 21.792969 19.0625 21.929688 19.308594 22.234375 C 19.585938 22.539062 19.695312 22.980469 19.695312 23.53125 C 19.695312 24.109375 19.558594 24.550781 19.308594 24.882812 C 19.0625 25.160156 18.757812 25.296875 18.34375 25.296875 C 17.957031 25.296875 17.628906 25.160156 17.40625 24.882812 C 17.132812 24.550781 16.992188 24.109375 16.992188 23.558594 Z M 17.574219 23.53125 C 17.574219 23.945312 17.65625 24.21875 17.792969 24.414062 C 17.957031 24.605469 18.125 24.71875 18.34375 24.71875 C 18.566406 24.71875 18.757812 24.605469 18.898438 24.414062 C 19.035156 24.21875 19.117188 23.917969 19.117188 23.53125 C 19.117188 23.144531 19.035156 22.839844 18.898438 22.648438 C 18.757812 22.457031 18.59375 22.371094 18.34375 22.371094 C 18.125 22.371094 17.929688 22.457031 17.792969 22.648438 C 17.65625 22.839844 17.574219 23.144531 17.574219 23.53125 Z M 17.574219 23.53125 "/>
<path fill-rule="nonzero" fill="rgb(0%, 0%, 100%)" fill-opacity="1" d="M 20.191406 25.242188 C 20.191406 24.109375 20.191406 22.980469 20.191406 21.847656 C 20.386719 21.847656 20.578125 21.847656 20.746094 21.847656 C 21.132812 22.59375 21.515625 23.367188 21.902344 24.109375 C 21.902344 23.367188 21.902344 22.59375 21.902344 21.847656 C 22.070312 21.847656 22.234375 21.847656 22.425781 21.847656 C 22.425781 22.980469 22.425781 24.109375 22.425781 25.242188 C 22.234375 25.242188 22.042969 25.242188 21.847656 25.242188 C 21.488281 24.496094 21.101562 23.75 20.71875 23.035156 C 20.71875 23.75 20.71875 24.496094 20.71875 25.242188 Z M 20.191406 25.242188 "/>
<path fill-rule="nonzero" fill="rgb(0%, 0%, 100%)" fill-opacity="1" d="M 6.953125 10.207031 C 6.953125 9.046875 7.917969 8.054688 9.074219 8.054688 C 10.289062 8.054688 11.199219 9.046875 11.199219 10.207031 C 11.199219 11.394531 10.289062 12.359375 9.074219 12.359375 C 7.917969 12.359375 6.953125 11.394531 6.953125 10.207031 Z M 6.953125 10.207031 "/>
<path fill-rule="nonzero" fill="rgb(0%, 0%, 100%)" fill-opacity="1" d="M 6.867188 10.207031 C 6.867188 10.042969 6.867188 9.902344 6.898438 9.765625 C 6.925781 9.601562 6.980469 9.460938 7.035156 9.324219 C 7.089844 9.1875 7.144531 9.074219 7.226562 8.964844 C 7.308594 8.855469 7.421875 8.746094 7.53125 8.632812 C 7.613281 8.523438 7.722656 8.441406 7.835938 8.359375 C 7.945312 8.277344 8.082031 8.21875 8.21875 8.164062 C 8.359375 8.109375 8.496094 8.054688 8.632812 8.027344 C 8.773438 8 8.910156 7.972656 9.074219 7.972656 C 9.214844 7.972656 9.378906 8 9.542969 8.027344 C 9.683594 8.054688 9.820312 8.109375 9.957031 8.164062 C 10.070312 8.21875 10.207031 8.277344 10.34375 8.359375 C 10.457031 8.441406 10.566406 8.523438 10.675781 8.632812 C 10.757812 8.746094 10.839844 8.855469 10.953125 8.964844 C 11.007812 9.074219 11.0625 9.1875 11.144531 9.324219 C 11.171875 9.460938 11.226562 9.601562 11.28125 9.765625 C 11.28125 9.902344 11.308594 10.042969 11.339844 10.207031 C 11.308594 10.34375 11.28125 10.511719 11.28125 10.675781 C 11.226562 10.8125 11.171875 10.953125 11.144531 11.089844 C 11.0625 11.199219 11.007812 11.339844 10.953125 11.476562 C 10.839844 11.585938 10.757812 11.695312 10.675781 11.808594 C 10.566406 11.890625 10.457031 11.972656 10.34375 12.054688 C 10.207031 12.109375 10.070312 12.191406 9.957031 12.277344 C 9.820312 12.304688 9.683594 12.359375 9.542969 12.414062 C 9.378906 12.414062 9.214844 12.441406 9.074219 12.46875 C 8.910156 12.441406 8.773438 12.414062 8.632812 12.414062 C 8.496094 12.359375 8.359375 12.304688 8.21875 12.277344 C 8.082031 12.191406 7.945312 12.109375 7.835938 12.054688 C 7.722656 11.972656 7.613281 11.890625 7.53125 11.808594 C 7.421875 11.695312 7.308594 11.585938 7.226562 11.476562 C 7.144531 11.339844 7.089844 11.199219 7.035156 11.089844 C 6.980469 10.953125 6.925781 10.8125 6.898438 10.675781 C 6.867188 10.511719 6.867188 10.34375 6.867188 10.207031 Z M 7.089844 10.648438 C 7.089844 10.621094 7.089844 10.621094 7.089844 10.621094 C 7.117188 10.730469 7.171875 10.867188 7.226562 11.007812 C 7.28125 11.117188 7.339844 11.226562 7.421875 11.367188 C 7.503906 11.449219 7.585938 11.558594 7.667969 11.667969 C 7.667969 11.640625 7.667969 11.640625 7.667969 11.640625 C 7.75 11.722656 7.863281 11.808594 7.972656 11.917969 C 7.945312 11.890625 7.945312 11.890625 7.945312 11.890625 C 8.054688 11.945312 8.164062 12 8.304688 12.082031 C 8.414062 12.109375 8.550781 12.136719 8.691406 12.191406 C 8.828125 12.21875 8.964844 12.25 9.101562 12.277344 C 9.074219 12.277344 9.074219 12.277344 9.074219 12.277344 C 9.214844 12.25 9.351562 12.21875 9.515625 12.191406 C 9.488281 12.191406 9.488281 12.191406 9.488281 12.191406 C 9.628906 12.136719 9.765625 12.109375 9.902344 12.082031 C 9.875 12.082031 9.875 12.082031 9.875 12.082031 C 9.984375 12 10.125 11.945312 10.261719 11.890625 C 10.234375 11.890625 10.207031 11.890625 10.207031 11.917969 C 10.289062 11.808594 10.398438 11.722656 10.511719 11.640625 C 10.511719 11.640625 10.511719 11.640625 10.511719 11.667969 C 10.59375 11.558594 10.675781 11.449219 10.785156 11.367188 C 10.757812 11.367188 10.757812 11.367188 10.757812 11.367188 C 10.8125 11.226562 10.898438 11.117188 10.980469 11.007812 C 11.007812 10.867188 11.035156 10.730469 11.089844 10.621094 C 11.089844 10.621094 11.089844 10.621094 11.089844 10.648438 C 11.089844 10.484375 11.089844 10.34375 11.117188 10.207031 C 11.089844 10.070312 11.089844 9.929688 11.089844 9.792969 C 11.089844 9.792969 11.089844 9.792969 11.089844 9.820312 C 11.035156 9.683594 11.007812 9.542969 10.980469 9.433594 C 10.898438 9.296875 10.8125 9.1875 10.757812 9.074219 C 10.757812 9.074219 10.757812 9.074219 10.785156 9.074219 C 10.675781 8.964844 10.59375 8.855469 10.511719 8.773438 C 10.511719 8.773438 10.511719 8.773438 10.511719 8.800781 C 10.398438 8.691406 10.289062 8.605469 10.207031 8.523438 C 10.207031 8.523438 10.234375 8.523438 10.261719 8.550781 C 10.125 8.46875 9.984375 8.414062 9.875 8.359375 C 9.875 8.359375 9.875 8.359375 9.902344 8.359375 C 9.765625 8.304688 9.628906 8.277344 9.488281 8.25 C 9.488281 8.25 9.488281 8.25 9.515625 8.25 C 9.351562 8.21875 9.214844 8.191406 9.074219 8.164062 C 9.074219 8.164062 9.074219 8.164062 9.101562 8.164062 C 8.964844 8.191406 8.828125 8.21875 8.691406 8.25 C 8.550781 8.277344 8.414062 8.304688 8.304688 8.359375 C 8.304688 8.332031 8.304688 8.332031 8.304688 8.332031 C 8.164062 8.386719 8.054688 8.441406 7.945312 8.523438 C 7.945312 8.523438 7.945312 8.523438 7.972656 8.523438 C 7.863281 8.605469 7.75 8.691406 7.667969 8.800781 C 7.667969 8.773438 7.667969 8.773438 7.667969 8.773438 C 7.585938 8.855469 7.503906 8.964844 7.421875 9.074219 C 7.339844 9.1875 7.28125 9.296875 7.226562 9.433594 C 7.171875 9.542969 7.117188 9.683594 7.089844 9.820312 C 7.089844 9.792969 7.089844 9.792969 7.089844 9.792969 C 7.0625 9.929688 7.0625 10.070312 7.0625 10.207031 C 7.0625 10.34375 7.0625 10.484375 7.089844 10.648438 Z M 7.089844 10.648438 "/>
<path fill="none" stroke-width="1" stroke-linecap="butt" stroke-linejoin="miter" stroke="rgb(0%, 0%, 100%)" stroke-opacity="1" stroke-miterlimit="4" d="M 248.935547 370.004883 C 248.935547 364.057617 248.935547 358.959961 250.068359 354.003906 C 251.05957 348.056641 253.041992 342.958984 255.024414 338.00293 C 257.006836 333.046875 258.989258 328.94043 261.962891 324.975586 C 264.936523 321.010742 269.042969 317.045898 273.007812 312.939453 C 275.981445 308.974609 279.946289 306.000977 284.052734 303.027344 C 288.017578 300.053711 292.973633 297.929687 297.929687 295.947266 C 303.027344 293.964844 307.983398 291.982422 312.939453 290.991211 C 318.037109 290 322.993164 289.008789 328.94043 289.008789 C 334.038086 289.008789 339.985352 290 345.932617 290.991211 C 351.030273 291.982422 355.986328 293.964844 360.942383 295.947266 C 365.048828 297.929687 370.004883 300.053711 374.960937 303.027344 C 379.067383 306.000977 383.032227 308.974609 386.99707 312.939453 C 389.970703 317.045898 392.944336 321.010742 397.050781 324.975586 C 399.033203 328.94043 401.015625 333.046875 403.989258 338.00293 C 404.980469 342.958984 406.962891 348.056641 408.945312 354.003906 C 408.945312 358.959961 409.936523 364.057617 411.069336 370.004883 C 409.936523 374.960937 408.945312 381.049805 408.945312 386.99707 C 406.962891 391.953125 404.980469 397.050781 403.989258 402.006836 C 401.015625 405.97168 399.033203 411.069336 397.050781 416.025391 C 392.944336 419.990234 389.970703 423.955078 386.99707 428.061523 C 383.032227 431.035156 379.067383 434.008789 374.960937 436.982422 C 370.004883 438.964844 365.048828 441.938477 360.942383 445.053711 C 355.986328 446.044922 351.030273 448.027344 345.932617 450.009766 C 339.985352 450.009766 334.038086 451.000977 328.94043 451.992187 C 322.993164 451.000977 318.037109 450.009766 312.939453 450.009766 C 307.983398 448.027344 303.027344 446.044922 297.929687 445.053711 C 292.973633 441.938477 288.017578 438.964844 284.052734 436.982422 C 279.946289 434.008789 275.981445 431.035156 273.007812 428.061523 C 269.042969 423.955078 264.936523 419.990234 261.962891 416.025391 C 258.989258 411.069336 257.006836 405.97168 255.024414 402.006836 C 253.041992 397.050781 251.05957 391.953125 250.068359 386.99707 C 248.935547 381.049805 248.935547 374.960937 248.935547 370.004883 Z M 248.935547 370.004883 " transform="matrix(0.0275862, 0, 0, 0.0275862, 0, 0)"/>
<path fill="none" stroke-width="1" stroke-linecap="butt" stroke-linejoin="miter" stroke="rgb(0%, 0%, 100%)" stroke-opacity="1" stroke-miterlimit="4" d="M 257.006836 386.005859 C 257.006836 385.014648 257.006836 385.014648 257.006836 385.014648 C 257.998047 388.979492 259.980469 393.935547 261.962891 399.033203 C 263.945312 402.998047 266.069336 406.962891 269.042969 412.060547 C 272.016602 415.03418 274.990234 418.999023 277.963867 422.963867 C 277.963867 421.972656 277.963867 421.972656 277.963867 421.972656 C 280.9375 424.946289 285.043945 428.061523 289.008789 432.026367 C 288.017578 431.035156 288.017578 431.035156 288.017578 431.035156 C 291.982422 433.017578 295.947266 435 301.044922 437.973633 C 305.009766 438.964844 309.96582 439.956055 315.063477 441.938477 C 320.019531 442.929687 324.975586 444.0625 329.931641 445.053711 C 328.94043 445.053711 328.94043 445.053711 328.94043 445.053711 C 334.038086 444.0625 338.994141 442.929687 344.941406 441.938477 C 343.950195 441.938477 343.950195 441.938477 343.950195 441.938477 C 349.047852 439.956055 354.003906 438.964844 358.959961 437.973633 C 357.96875 437.973633 357.96875 437.973633 357.96875 437.973633 C 361.933594 435 367.03125 433.017578 371.987305 431.035156 C 370.996094 431.035156 370.004883 431.035156 370.004883 432.026367 C 372.978516 428.061523 376.943359 424.946289 381.049805 421.972656 C 381.049805 421.972656 381.049805 421.972656 381.049805 422.963867 C 384.023437 418.999023 386.99707 415.03418 390.961914 412.060547 C 389.970703 412.060547 389.970703 412.060547 389.970703 412.060547 C 391.953125 406.962891 395.068359 402.998047 398.041992 399.033203 C 399.033203 393.935547 400.024414 388.979492 402.006836 385.014648 C 402.006836 385.014648 402.006836 385.014648 402.006836 386.005859 C 402.006836 380.058594 402.006836 374.960937 402.998047 370.004883 C 402.006836 365.048828 402.006836 359.951172 402.006836 354.995117 C 402.006836 354.995117 402.006836 354.995117 402.006836 355.986328 C 400.024414 351.030273 399.033203 345.932617 398.041992 341.967773 C 395.068359 337.011719 391.953125 333.046875 389.970703 328.94043 C 389.970703 328.94043 389.970703 328.94043 390.961914 328.94043 C 386.99707 324.975586 384.023437 321.010742 381.049805 318.037109 C 381.049805 318.037109 381.049805 318.037109 381.049805 319.02832 C 376.943359 315.063477 372.978516 311.948242 370.004883 308.974609 C 370.004883 308.974609 370.996094 308.974609 371.987305 309.96582 C 367.03125 306.992187 361.933594 305.009766 357.96875 303.027344 C 357.96875 303.027344 357.96875 303.027344 358.959961 303.027344 C 354.003906 301.044922 349.047852 300.053711 343.950195 299.0625 C 343.950195 299.0625 343.950195 299.0625 344.941406 299.0625 C 338.994141 297.929687 334.038086 296.938477 328.94043 295.947266 C 328.94043 295.947266 328.94043 295.947266 329.931641 295.947266 C 324.975586 296.938477 320.019531 297.929687 315.063477 299.0625 C 309.96582 300.053711 305.009766 301.044922 301.044922 303.027344 C 301.044922 302.036133 301.044922 302.036133 301.044922 302.036133 C 295.947266 304.018555 291.982422 306.000977 288.017578 308.974609 C 288.017578 308.974609 288.017578 308.974609 289.008789 308.974609 C 285.043945 311.948242 280.9375 315.063477 277.963867 319.02832 C 277.963867 318.037109 277.963867 318.037109 277.963867 318.037109 C 274.990234 321.010742 272.016602 324.975586 269.042969 328.94043 C 266.069336 333.046875 263.945312 337.011719 261.962891 341.967773 C 259.980469 345.932617 257.998047 351.030273 257.006836 355.986328 C 257.006836 354.995117 257.006836 354.995117 257.006836 354.995117 C 256.015625 359.951172 256.015625 365.048828 256.015625 370.004883 C 256.015625 374.960937 256.015625 380.058594 257.006836 386.005859 Z M 257.006836 386.005859 " transform="matrix(0.0275862, 0, 0, 0.0275862, 0, 0)"/>
<path fill-rule="nonzero" fill="rgb(0%, 0%, 100%)" fill-opacity="1" d="M 21.046875 10.152344 C 21.046875 8.964844 22.070312 7.972656 23.253906 7.972656 C 24.46875 7.972656 25.433594 8.964844 25.433594 10.152344 C 25.433594 11.367188 24.46875 12.359375 23.253906 12.359375 C 22.070312 12.359375 21.046875 11.367188 21.046875 10.152344 Z M 21.046875 10.152344 "/>
<path fill-rule="nonzero" fill="rgb(0%, 0%, 100%)" fill-opacity="1" d="M 20.964844 10.152344 C 20.992188 9.984375 21.019531 9.847656 21.019531 9.710938 C 21.074219 9.542969 21.132812 9.40625 21.160156 9.269531 C 21.242188 9.132812 21.324219 8.992188 21.378906 8.882812 C 21.460938 8.773438 21.542969 8.660156 21.628906 8.550781 C 21.738281 8.441406 21.847656 8.359375 21.957031 8.277344 C 22.097656 8.191406 22.234375 8.109375 22.371094 8.054688 C 22.511719 8 22.648438 7.945312 22.785156 7.917969 C 22.953125 7.890625 23.117188 7.863281 23.253906 7.863281 C 23.421875 7.863281 23.585938 7.890625 23.722656 7.917969 C 23.863281 7.945312 24 8 24.136719 8.054688 C 24.277344 8.109375 24.414062 8.191406 24.550781 8.277344 C 24.660156 8.359375 24.773438 8.441406 24.882812 8.550781 C 24.992188 8.660156 25.074219 8.773438 25.160156 8.882812 C 25.242188 8.992188 25.324219 9.132812 25.378906 9.269531 C 25.433594 9.40625 25.460938 9.542969 25.488281 9.710938 C 25.515625 9.847656 25.542969 9.984375 25.542969 10.152344 C 25.542969 10.289062 25.515625 10.457031 25.488281 10.621094 C 25.460938 10.757812 25.433594 10.898438 25.378906 11.0625 C 25.324219 11.171875 25.242188 11.308594 25.160156 11.449219 C 25.074219 11.558594 24.992188 11.667969 24.882812 11.808594 C 24.773438 11.890625 24.660156 11.972656 24.550781 12.054688 C 24.414062 12.109375 24.277344 12.191406 24.136719 12.277344 C 24 12.304688 23.863281 12.359375 23.722656 12.414062 C 23.585938 12.414062 23.421875 12.441406 23.253906 12.46875 C 23.117188 12.441406 22.953125 12.414062 22.785156 12.414062 C 22.648438 12.359375 22.511719 12.304688 22.371094 12.277344 C 22.234375 12.191406 22.097656 12.109375 21.957031 12.054688 C 21.847656 11.972656 21.738281 11.890625 21.628906 11.808594 C 21.542969 11.667969 21.460938 11.558594 21.378906 11.449219 C 21.324219 11.308594 21.242188 11.171875 21.160156 11.0625 C 21.132812 10.898438 21.074219 10.757812 21.019531 10.621094 C 21.019531 10.457031 20.992188 10.289062 20.964844 10.152344 Z M 21.214844 10.59375 C 21.214844 10.566406 21.214844 10.566406 21.214844 10.566406 C 21.269531 10.703125 21.324219 10.839844 21.351562 11.007812 C 21.351562 10.980469 21.351562 10.980469 21.324219 10.980469 C 21.40625 11.089844 21.460938 11.226562 21.515625 11.367188 C 21.515625 11.339844 21.515625 11.308594 21.515625 11.308594 C 21.628906 11.421875 21.710938 11.53125 21.792969 11.640625 C 21.902344 11.722656 22.015625 11.808594 22.097656 11.917969 C 22.097656 11.890625 22.097656 11.890625 22.097656 11.890625 C 22.234375 11.945312 22.34375 12 22.457031 12.082031 C 22.457031 12.082031 22.457031 12.082031 22.425781 12.082031 C 22.59375 12.109375 22.730469 12.136719 22.867188 12.191406 C 22.867188 12.191406 22.839844 12.191406 22.8125 12.191406 C 22.980469 12.21875 23.117188 12.25 23.253906 12.277344 C 23.421875 12.25 23.558594 12.21875 23.695312 12.191406 C 23.695312 12.191406 23.695312 12.191406 23.667969 12.191406 C 23.808594 12.136719 23.945312 12.109375 24.082031 12.082031 C 24.082031 12.082031 24.082031 12.082031 24.054688 12.082031 C 24.191406 12 24.332031 11.945312 24.441406 11.890625 C 24.441406 11.890625 24.441406 11.890625 24.414062 11.917969 C 24.523438 11.808594 24.632812 11.722656 24.746094 11.640625 C 24.746094 11.640625 24.746094 11.640625 24.71875 11.640625 C 24.828125 11.53125 24.910156 11.421875 24.992188 11.308594 C 24.992188 11.308594 24.992188 11.339844 24.992188 11.367188 C 25.046875 11.226562 25.101562 11.089844 25.160156 10.980469 C 25.160156 10.980469 25.160156 10.980469 25.160156 11.007812 C 25.214844 10.839844 25.269531 10.703125 25.296875 10.566406 C 25.296875 10.566406 25.296875 10.566406 25.296875 10.59375 C 25.324219 10.425781 25.351562 10.289062 25.351562 10.152344 C 25.351562 10.152344 25.351562 10.152344 25.351562 10.179688 C 25.351562 10.015625 25.324219 9.875 25.296875 9.738281 C 25.296875 9.738281 25.296875 9.738281 25.296875 9.765625 C 25.269531 9.601562 25.214844 9.460938 25.160156 9.324219 C 25.160156 9.324219 25.160156 9.351562 25.160156 9.378906 C 25.101562 9.242188 25.046875 9.101562 24.992188 8.992188 C 24.992188 8.992188 24.992188 8.992188 24.992188 9.019531 C 24.910156 8.910156 24.828125 8.800781 24.71875 8.691406 C 24.746094 8.691406 24.746094 8.691406 24.746094 8.71875 C 24.632812 8.605469 24.523438 8.523438 24.414062 8.441406 C 24.441406 8.441406 24.441406 8.441406 24.441406 8.441406 C 24.332031 8.359375 24.191406 8.304688 24.054688 8.25 C 24.082031 8.25 24.082031 8.25 24.082031 8.25 C 23.945312 8.191406 23.808594 8.164062 23.667969 8.136719 C 23.695312 8.136719 23.695312 8.136719 23.695312 8.136719 C 23.558594 8.109375 23.421875 8.082031 23.253906 8.054688 C 23.117188 8.082031 22.980469 8.109375 22.8125 8.136719 C 22.839844 8.136719 22.867188 8.136719 22.867188 8.136719 C 22.730469 8.164062 22.59375 8.191406 22.425781 8.25 C 22.457031 8.25 22.457031 8.25 22.457031 8.25 C 22.34375 8.304688 22.234375 8.359375 22.097656 8.441406 C 22.015625 8.523438 21.902344 8.605469 21.792969 8.71875 C 21.792969 8.691406 21.792969 8.691406 21.792969 8.691406 C 21.710938 8.800781 21.628906 8.910156 21.515625 9.019531 C 21.515625 8.992188 21.515625 8.992188 21.515625 8.992188 C 21.460938 9.101562 21.40625 9.242188 21.324219 9.378906 C 21.351562 9.351562 21.351562 9.324219 21.351562 9.324219 C 21.324219 9.460938 21.269531 9.601562 21.214844 9.765625 C 21.214844 9.738281 21.214844 9.738281 21.214844 9.738281 C 21.214844 9.875 21.214844 10.015625 21.1875 10.179688 C 21.1875 10.152344 21.1875 10.152344 21.1875 10.152344 C 21.214844 10.289062 21.214844 10.425781 21.214844 10.59375 Z M 21.214844 10.59375 "/>
<path fill="none" stroke-width="1" stroke-linecap="butt" stroke-linejoin="miter" stroke="rgb(0%, 0%, 100%)" stroke-opacity="1" stroke-miterlimit="4" d="M 759.975586 368.022461 C 760.966797 361.933594 761.958008 356.977539 761.958008 352.021484 C 763.94043 345.932617 766.064453 340.976562 767.055664 336.020508 C 770.029297 331.064453 773.00293 325.966797 774.985352 322.001953 C 777.958984 318.037109 780.932617 313.930664 784.047852 309.96582 C 788.012695 306.000977 791.977539 303.027344 795.942383 300.053711 C 801.040039 296.938477 805.996094 293.964844 810.952148 291.982422 C 816.049805 290 821.005859 288.017578 825.961914 287.026367 C 832.050781 286.035156 837.998047 285.043945 842.954102 285.043945 C 849.042969 285.043945 854.990234 286.035156 859.946289 287.026367 C 865.043945 288.017578 870 290 874.956055 291.982422 C 880.053711 293.964844 885.009766 296.938477 889.96582 300.053711 C 893.930664 303.027344 898.037109 306.000977 902.001953 309.96582 C 905.966797 313.930664 908.94043 318.037109 912.055664 322.001953 C 915.029297 325.966797 918.00293 331.064453 919.985352 336.020508 C 921.967773 340.976562 922.958984 345.932617 923.950195 352.021484 C 924.941406 356.977539 925.932617 361.933594 925.932617 368.022461 C 925.932617 372.978516 924.941406 379.067383 923.950195 385.014648 C 922.958984 389.970703 921.967773 395.068359 919.985352 401.015625 C 918.00293 404.980469 915.029297 409.936523 912.055664 415.03418 C 908.94043 418.999023 905.966797 422.963867 902.001953 428.061523 C 898.037109 431.035156 893.930664 434.008789 889.96582 436.982422 C 885.009766 438.964844 880.053711 441.938477 874.956055 445.053711 C 870 446.044922 865.043945 448.027344 859.946289 450.009766 C 854.990234 450.009766 849.042969 451.000977 842.954102 451.992187 C 837.998047 451.000977 832.050781 450.009766 825.961914 450.009766 C 821.005859 448.027344 816.049805 446.044922 810.952148 445.053711 C 805.996094 441.938477 801.040039 438.964844 795.942383 436.982422 C 791.977539 434.008789 788.012695 431.035156 784.047852 428.061523 C 780.932617 422.963867 777.958984 418.999023 774.985352 415.03418 C 773.00293 409.936523 770.029297 404.980469 767.055664 401.015625 C 766.064453 395.068359 763.94043 389.970703 761.958008 385.014648 C 761.958008 379.067383 760.966797 372.978516 759.975586 368.022461 Z M 759.975586 368.022461 " transform="matrix(0.0275862, 0, 0, 0.0275862, 0, 0)"/>
<path fill="none" stroke-width="1" stroke-linecap="butt" stroke-linejoin="miter" stroke="rgb(0%, 0%, 100%)" stroke-opacity="1" stroke-miterlimit="4" d="M 769.038086 384.023437 C 769.038086 383.032227 769.038086 383.032227 769.038086 383.032227 C 771.020508 387.988281 773.00293 392.944336 773.994141 399.033203 C 773.994141 398.041992 773.994141 398.041992 773.00293 398.041992 C 775.976562 402.006836 777.958984 406.962891 779.941406 412.060547 C 779.941406 411.069336 779.941406 409.936523 779.941406 409.936523 C 784.047852 414.042969 787.021484 418.007812 789.995117 421.972656 C 793.959961 424.946289 798.066406 428.061523 801.040039 432.026367 C 801.040039 431.035156 801.040039 431.035156 801.040039 431.035156 C 805.996094 433.017578 809.960937 435 814.067383 437.973633 C 814.067383 437.973633 814.067383 437.973633 812.93457 437.973633 C 819.023437 438.964844 823.979492 439.956055 828.935547 441.938477 C 828.935547 441.938477 827.944336 441.938477 826.953125 441.938477 C 833.041992 442.929687 837.998047 444.0625 842.954102 445.053711 C 849.042969 444.0625 853.999023 442.929687 858.955078 441.938477 C 858.955078 441.938477 858.955078 441.938477 857.963867 441.938477 C 863.061523 439.956055 868.017578 438.964844 872.973633 437.973633 C 872.973633 437.973633 872.973633 437.973633 871.982422 437.973633 C 876.938477 435 882.036133 433.017578 886.000977 431.035156 C 886.000977 431.035156 886.000977 431.035156 885.009766 432.026367 C 888.974609 428.061523 892.939453 424.946289 897.045898 421.972656 C 897.045898 421.972656 897.045898 421.972656 896.054687 421.972656 C 900.019531 418.007812 902.993164 414.042969 905.966797 409.936523 C 905.966797 409.936523 905.966797 411.069336 905.966797 412.060547 C 907.949219 406.962891 909.931641 402.006836 912.055664 398.041992 C 912.055664 398.041992 912.055664 398.041992 912.055664 399.033203 C 914.038086 392.944336 916.020508 387.988281 917.011719 383.032227 C 917.011719 383.032227 917.011719 383.032227 917.011719 384.023437 C 918.00293 377.93457 918.994141 372.978516 918.994141 368.022461 C 918.994141 368.022461 918.994141 368.022461 918.994141 369.013672 C 918.994141 363.066406 918.00293 357.96875 917.011719 353.012695 C 917.011719 353.012695 917.011719 353.012695 917.011719 354.003906 C 916.020508 348.056641 914.038086 342.958984 912.055664 338.00293 C 912.055664 338.00293 912.055664 338.994141 912.055664 339.985352 C 909.931641 335.029297 907.949219 329.931641 905.966797 325.966797 C 905.966797 325.966797 905.966797 325.966797 905.966797 326.958008 C 902.993164 322.993164 900.019531 319.02832 896.054687 315.063477 C 897.045898 315.063477 897.045898 315.063477 897.045898 316.054687 C 892.939453 311.948242 888.974609 308.974609 885.009766 306.000977 C 886.000977 306.000977 886.000977 306.000977 886.000977 306.000977 C 882.036133 303.027344 876.938477 301.044922 871.982422 299.0625 C 872.973633 299.0625 872.973633 299.0625 872.973633 299.0625 C 868.017578 296.938477 863.061523 295.947266 857.963867 294.956055 C 858.955078 294.956055 858.955078 294.956055 858.955078 294.956055 C 853.999023 293.964844 849.042969 292.973633 842.954102 291.982422 C 837.998047 292.973633 833.041992 293.964844 826.953125 294.956055 C 827.944336 294.956055 828.935547 294.956055 828.935547 294.956055 C 823.979492 295.947266 819.023437 296.938477 812.93457 299.0625 C 814.067383 299.0625 814.067383 299.0625 814.067383 299.0625 C 809.960937 301.044922 805.996094 303.027344 801.040039 306.000977 C 798.066406 308.974609 793.959961 311.948242 789.995117 316.054687 C 789.995117 315.063477 789.995117 315.063477 789.995117 315.063477 C 787.021484 319.02832 784.047852 322.993164 779.941406 326.958008 C 779.941406 325.966797 779.941406 325.966797 779.941406 325.966797 C 777.958984 329.931641 775.976562 335.029297 773.00293 339.985352 C 773.994141 338.994141 773.994141 338.00293 773.994141 338.00293 C 773.00293 342.958984 771.020508 348.056641 769.038086 354.003906 C 769.038086 353.012695 769.038086 353.012695 769.038086 353.012695 C 769.038086 357.96875 769.038086 363.066406 768.046875 369.013672 C 768.046875 368.022461 768.046875 368.022461 768.046875 368.022461 C 769.038086 372.978516 769.038086 377.93457 769.038086 384.023437 Z M 769.038086 384.023437 " transform="matrix(0.0275862, 0, 0, 0.0275862, 0, 0)"/>
<path fill-rule="nonzero" fill="rgb(0%, 0%, 100%)" fill-opacity="1" d="M 9.019531 8.027344 C 9.40625 8.054688 9.820312 8.109375 10.234375 8.164062 C 10.621094 8.25 11.007812 8.332031 11.421875 8.441406 C 11.808594 8.550781 12.191406 8.691406 12.578125 8.828125 C 12.9375 8.964844 13.296875 9.132812 13.683594 9.296875 C 14.015625 9.488281 14.371094 9.683594 14.730469 9.875 C 15.035156 10.097656 15.367188 10.316406 15.695312 10.539062 C 16 10.785156 16.277344 11.035156 16.578125 11.28125 C 16.882812 11.558594 17.160156 11.835938 17.433594 12.109375 C 17.683594 12.414062 17.929688 12.71875 18.179688 13.019531 C 18.425781 13.324219 18.648438 13.65625 18.867188 13.984375 C 19.089844 14.316406 19.28125 14.648438 19.476562 15.007812 C 19.640625 15.367188 19.808594 15.75 19.945312 16.109375 C 20.082031 16.496094 20.21875 16.882812 20.359375 17.242188 C 20.441406 17.65625 20.523438 18.042969 20.605469 18.425781 C 20.691406 18.839844 20.773438 19.253906 20.828125 19.640625 C 20.855469 20.082031 20.855469 20.496094 20.855469 20.910156 C 20.660156 20.9375 20.46875 20.9375 20.25 20.9375 C 20.25 20.550781 20.21875 20.136719 20.191406 19.722656 C 20.136719 19.339844 20.082031 18.953125 20.027344 18.566406 C 19.945312 18.207031 19.863281 17.820312 19.75 17.433594 C 19.640625 17.074219 19.503906 16.71875 19.367188 16.332031 C 19.226562 16 19.0625 15.667969 18.898438 15.339844 C 18.730469 15.007812 18.539062 14.675781 18.34375 14.34375 C 18.152344 14.015625 17.929688 13.710938 17.710938 13.40625 C 17.488281 13.132812 17.242188 12.855469 16.992188 12.578125 C 16.746094 12.304688 16.46875 12.027344 16.191406 11.75 C 15.917969 11.503906 15.640625 11.253906 15.367188 11.035156 C 15.035156 10.8125 14.730469 10.59375 14.425781 10.398438 C 14.097656 10.207031 13.765625 10.042969 13.433594 9.875 C 13.074219 9.710938 12.71875 9.542969 12.386719 9.40625 C 12.027344 9.269531 11.667969 9.160156 11.308594 9.046875 C 10.925781 8.964844 10.539062 8.882812 10.179688 8.800781 C 9.765625 8.746094 9.351562 8.691406 8.964844 8.632812 C 8.964844 8.414062 8.992188 8.21875 9.019531 8.027344 Z M 9.019531 8.027344 "/>
<path fill-rule="nonzero" fill="rgb(0%, 0%, 100%)" fill-opacity="1" stroke-width="1" stroke-linecap="butt" stroke-linejoin="round" stroke="rgb(0%, 0%, 100%)" stroke-opacity="1" stroke-miterlimit="4" d="M 326.958008 290.991211 C 340.976562 291.982422 355.986328 293.964844 370.996094 295.947266 C 385.014648 299.0625 399.033203 302.036133 414.042969 306.000977 C 428.061523 309.96582 441.938477 315.063477 455.957031 320.019531 C 468.984375 324.975586 482.011719 331.064453 496.030273 337.011719 C 508.066406 343.950195 520.952148 351.030273 533.979492 357.96875 C 545.024414 366.040039 557.060547 373.969727 568.955078 382.041016 C 580 390.961914 590.053711 400.024414 600.957031 408.945312 C 612.001953 418.999023 622.055664 429.052734 631.967773 438.964844 C 641.030273 450.009766 649.951172 461.054687 659.013672 471.958008 C 667.93457 483.00293 676.005859 495.039062 683.935547 506.933594 C 692.006836 518.969727 698.945312 531.005859 706.025391 544.033203 C 711.972656 557.060547 718.061523 570.9375 723.017578 583.964844 C 727.973633 597.983398 732.929687 612.001953 738.027344 625.029297 C 741.000977 640.039062 743.974609 654.057617 746.948242 667.93457 C 750.063477 682.944336 753.037109 697.954102 755.019531 711.972656 C 756.010742 727.973633 756.010742 742.983398 756.010742 757.993164 C 748.930664 758.984375 741.992187 758.984375 734.0625 758.984375 C 734.0625 744.96582 732.929687 729.956055 731.938477 714.946289 C 729.956055 701.069336 727.973633 687.050781 725.991211 673.032227 C 723.017578 660.004883 720.043945 645.986328 715.9375 631.967773 C 711.972656 618.94043 707.016602 606.054687 702.060547 592.036133 C 696.962891 580 691.015625 567.963867 685.068359 556.069336 C 678.979492 544.033203 672.041016 531.99707 664.960937 519.960937 C 658.022461 508.066406 649.951172 497.021484 642.021484 485.976562 C 633.950195 476.064453 625.029297 466.010742 615.966797 455.957031 C 607.045898 446.044922 596.992187 435.991211 586.938477 425.9375 C 577.026367 417.016602 566.972656 407.954102 557.060547 400.024414 C 545.024414 391.953125 533.979492 384.023437 522.93457 376.943359 C 511.040039 370.004883 499.003906 364.057617 486.967773 357.96875 C 473.94043 352.021484 461.054687 345.932617 449.018555 340.976562 C 435.991211 336.020508 422.963867 332.055664 409.936523 327.949219 C 396.05957 324.975586 382.041016 322.001953 369.013672 319.02832 C 354.003906 317.045898 338.994141 315.063477 324.975586 312.939453 C 324.975586 305.009766 325.966797 297.929687 326.958008 290.991211 Z M 326.958008 290.991211 " transform="matrix(0.0275862, 0, 0, 0.0275862, 0, 0)"/>
<path fill-rule="nonzero" fill="rgb(0%, 0%, 100%)" fill-opacity="1" d="M 23.253906 8.523438 C 22.867188 8.578125 22.457031 8.632812 22.042969 8.691406 C 21.683594 8.773438 21.296875 8.855469 20.910156 8.9375 C 20.550781 9.046875 20.191406 9.160156 19.808594 9.296875 C 19.476562 9.433594 19.144531 9.601562 18.785156 9.765625 C 18.457031 9.929688 18.125 10.125 17.765625 10.316406 C 17.460938 10.511719 17.160156 10.703125 16.855469 10.925781 C 16.578125 11.171875 16.277344 11.421875 16 11.667969 C 15.722656 11.917969 15.449219 12.191406 15.199219 12.46875 C 14.953125 12.746094 14.703125 13.019531 14.484375 13.324219 C 14.261719 13.628906 14.042969 13.929688 13.847656 14.234375 C 13.65625 14.566406 13.460938 14.898438 13.296875 15.226562 C 13.132812 15.558594 12.964844 15.917969 12.800781 16.25 C 12.660156 16.605469 12.550781 16.964844 12.441406 17.324219 C 12.332031 17.710938 12.25 18.097656 12.164062 18.457031 C 12.109375 18.867188 12.054688 19.253906 12 19.640625 C 11.972656 20.054688 11.945312 20.441406 11.945312 20.828125 C 11.722656 20.828125 11.503906 20.800781 11.308594 20.773438 C 11.339844 20.359375 11.367188 19.945312 11.394531 19.53125 C 11.449219 19.144531 11.503906 18.730469 11.558594 18.316406 C 11.640625 17.929688 11.75 17.542969 11.863281 17.132812 C 11.972656 16.773438 12.109375 16.386719 12.25 16.027344 C 12.414062 15.640625 12.578125 15.28125 12.746094 14.925781 C 12.9375 14.566406 13.132812 14.207031 13.351562 13.875 C 13.574219 13.542969 13.792969 13.242188 14.015625 12.9375 C 14.261719 12.632812 14.511719 12.332031 14.757812 12.027344 C 15.035156 11.722656 15.308594 11.449219 15.613281 11.171875 C 15.917969 10.925781 16.191406 10.675781 16.496094 10.457031 C 16.828125 10.207031 17.160156 9.984375 17.460938 9.765625 C 17.820312 9.574219 18.179688 9.378906 18.539062 9.1875 C 18.898438 9.019531 19.253906 8.855469 19.613281 8.71875 C 20 8.578125 20.386719 8.441406 20.773438 8.332031 C 21.1875 8.21875 21.574219 8.136719 21.957031 8.054688 C 22.371094 8 22.785156 7.945312 23.171875 7.917969 C 23.199219 8.109375 23.226562 8.304688 23.253906 8.523438 Z M 23.253906 8.523438 "/>
<path fill-rule="nonzero" fill="rgb(0%, 0%, 100%)" fill-opacity="1" stroke-width="1" stroke-linecap="butt" stroke-linejoin="round" stroke="rgb(0%, 0%, 100%)" stroke-opacity="1" stroke-miterlimit="4" d="M 842.954102 308.974609 C 828.935547 310.957031 814.067383 312.939453 799.057617 315.063477 C 786.030273 318.037109 772.011719 321.010742 757.993164 323.984375 C 744.96582 327.949219 731.938477 332.055664 718.061523 337.011719 C 706.025391 341.967773 693.989258 348.056641 680.961914 354.003906 C 669.067383 359.951172 657.03125 367.03125 644.003906 373.969727 C 632.958984 381.049805 622.055664 387.988281 611.010742 396.05957 C 600.957031 404.980469 590.053711 414.042969 580 422.963867 C 569.946289 432.026367 560.03418 441.938477 550.97168 451.992187 C 542.050781 462.045898 532.988281 471.958008 525.058594 483.00293 C 516.987305 494.047852 509.057617 504.951172 501.977539 515.996094 C 495.039062 528.032227 487.958984 540.068359 482.011719 551.962891 C 476.064453 563.999023 469.975586 577.026367 464.02832 589.0625 C 458.930664 601.948242 454.96582 614.975586 451.000977 628.00293 C 447.036133 642.021484 444.0625 656.040039 440.947266 669.067383 C 438.964844 683.935547 436.982422 697.954102 435 711.972656 C 434.008789 726.982422 433.017578 741.000977 433.017578 755.019531 C 424.946289 755.019531 417.016602 754.02832 409.936523 753.037109 C 411.069336 738.027344 412.060547 723.017578 413.051758 708.007812 C 415.03418 693.989258 417.016602 678.979492 418.999023 663.969727 C 421.972656 649.951172 425.9375 635.932617 430.043945 621.064453 C 434.008789 608.037109 438.964844 594.018555 444.0625 580.991211 C 450.009766 566.972656 455.957031 553.945312 462.045898 541.05957 C 468.984375 528.032227 476.064453 515.004883 483.994141 502.96875 C 492.06543 490.932617 499.995117 480.029297 508.066406 468.984375 C 516.987305 457.939453 526.049805 447.036133 534.970703 435.991211 C 545.024414 424.946289 554.936523 415.03418 565.981445 404.980469 C 577.026367 396.05957 586.938477 386.99707 597.983398 379.067383 C 610.019531 370.004883 622.055664 361.933594 632.958984 354.003906 C 645.986328 347.06543 659.013672 339.985352 672.041016 333.046875 C 685.068359 326.958008 697.954102 321.010742 710.981445 316.054687 C 725 310.957031 739.018555 306.000977 753.037109 302.036133 C 768.046875 297.929687 782.06543 294.956055 795.942383 291.982422 C 810.952148 290 825.961914 288.017578 839.980469 287.026367 C 840.97168 293.964844 841.962891 301.044922 842.954102 308.974609 Z M 842.954102 308.974609 " transform="matrix(0.0275862, 0, 0, 0.0275862, 0, 0)"/>
</svg>
