<?xml version="1.0" encoding="UTF-8"?>
<svg xmlns="http://www.w3.org/2000/svg" xmlns:xlink="http://www.w3.org/1999/xlink" width="32" height="32" viewBox="0 0 32 32">
<path fill-rule="nonzero" fill="rgb(0%, 0%, 100%)" fill-opacity="1" d="M 7.394531 1.574219 C 13.488281 1.574219 19.585938 1.574219 25.683594 1.574219 C 25.683594 10.925781 25.683594 20.304688 25.683594 29.65625 C 19.585938 29.65625 13.488281 29.65625 7.394531 29.65625 C 7.394531 20.304688 7.394531 10.925781 7.394531 1.574219 Z M 9.542969 28.550781 C 9.1875 28.191406 8.828125 27.808594 8.46875 27.449219 C 13.847656 27.449219 19.199219 27.449219 24.578125 27.449219 C 24.21875 27.808594 23.835938 28.191406 23.476562 28.550781 C 23.476562 19.917969 23.476562 11.308594 23.476562 2.675781 C 23.835938 3.035156 24.21875 3.421875 24.578125 3.78125 C 19.199219 3.78125 13.847656 3.78125 8.46875 3.78125 C 8.828125 3.421875 9.1875 3.035156 9.542969 2.675781 C 9.542969 11.308594 9.542969 19.917969 9.542969 28.550781 Z M 9.542969 28.550781 "/>
<path fill="none" stroke-width="1" stroke-linecap="butt" stroke-linejoin="miter" stroke="rgb(0%, 0%, 100%)" stroke-opacity="1" stroke-miterlimit="4" d="M 268.051758 57.06543 C 488.950195 57.06543 709.990234 57.06543 931.030273 57.06543 C 931.030273 396.05957 931.030273 736.044922 931.030273 1075.039062 C 709.990234 1075.039062 488.950195 1075.039062 268.051758 1075.039062 C 268.051758 736.044922 268.051758 396.05957 268.051758 57.06543 Z M 268.051758 57.06543 " transform="matrix(0.0275862, 0, 0, 0.0275862, 0, 0)"/>
<path fill="none" stroke-width="1" stroke-linecap="butt" stroke-linejoin="miter" stroke="rgb(0%, 0%, 100%)" stroke-opacity="1" stroke-miterlimit="4" d="M 345.932617 1034.96582 C 333.046875 1021.938477 320.019531 1008.061523 306.992187 995.03418 C 501.977539 995.03418 695.97168 995.03418 890.957031 995.03418 C 877.929687 1008.061523 864.052734 1021.938477 851.025391 1034.96582 C 851.025391 722.026367 851.025391 409.936523 851.025391 96.99707 C 864.052734 110.024414 877.929687 124.042969 890.957031 137.070312 C 695.97168 137.070312 501.977539 137.070312 306.992187 137.070312 C 320.019531 124.042969 333.046875 110.024414 345.932617 96.99707 C 345.932617 409.936523 345.932617 722.026367 345.932617 1034.96582 Z M 345.932617 1034.96582 " transform="matrix(0.0275862, 0, 0, 0.0275862, 0, 0)"/>
<path fill-rule="nonzero" fill="rgb(0%, 0%, 100%)" fill-opacity="1" stroke-width="1" stroke-linecap="butt" stroke-linejoin="miter" stroke="rgb(0%, 0%, 100%)" stroke-opacity="1" stroke-miterlimit="4" d="M 323.984375 577.026367 C 506.933594 577.026367 691.015625 577.026367 873.964844 577.026367 C 873.964844 594.018555 873.964844 611.010742 873.964844 628.00293 C 691.015625 628.00293 506.933594 628.00293 323.984375 628.00293 C 323.984375 611.010742 323.984375 594.018555 323.984375 577.026367 Z M 323.984375 577.026367 " transform="matrix(0.0275862, 0, 0, 0.0275862, 0, 0)"/>
<path fill-rule="nonzero" fill="rgb(0%, 0%, 100%)" fill-opacity="1" stroke-width="1" stroke-linecap="butt" stroke-linejoin="miter" stroke="rgb(0%, 0%, 100%)" stroke-opacity="1" stroke-miterlimit="4" d="M 331.064453 452.983398 C 514.013672 452.983398 697.954102 452.983398 881.044922 452.983398 C 881.044922 469.975586 881.044922 486.967773 881.044922 503.959961 C 697.954102 503.959961 514.013672 503.959961 331.064453 503.959961 C 331.064453 486.967773 331.064453 469.975586 331.064453 452.983398 Z M 331.064453 452.983398 " transform="matrix(0.0275862, 0, 0, 0.0275862, 0, 0)"/>
<path fill-rule="nonzero" fill="rgb(0%, 0%, 100%)" fill-opacity="1" d="M 16.964844 24.386719 L 15.945312 24.386719 L 15.945312 24.054688 C 15.945312 23.640625 16 23.28125 16.109375 23.007812 C 16.21875 22.757812 16.441406 22.457031 16.746094 22.152344 C 17.101562 21.792969 17.324219 21.542969 17.40625 21.40625 C 17.460938 21.269531 17.515625 21.101562 17.515625 20.9375 C 17.515625 20.660156 17.40625 20.414062 17.214844 20.21875 C 17.046875 20.027344 16.800781 19.945312 16.523438 19.945312 C 15.917969 19.945312 15.53125 20.359375 15.394531 21.1875 L 14.371094 21.019531 C 14.398438 20.386719 14.59375 19.890625 15.007812 19.476562 C 15.394531 19.089844 15.890625 18.867188 16.496094 18.867188 C 17.101562 18.867188 17.601562 19.089844 18.015625 19.476562 C 18.398438 19.890625 18.621094 20.386719 18.621094 20.992188 C 18.621094 21.296875 18.539062 21.574219 18.398438 21.847656 C 18.261719 22.125 17.957031 22.511719 17.488281 22.980469 C 17.242188 23.226562 17.101562 23.421875 17.046875 23.585938 C 16.992188 23.722656 16.964844 24 16.964844 24.386719 Z M 15.945312 26.261719 L 15.945312 24.855469 L 17.074219 24.855469 L 17.074219 26.261719 Z M 15.945312 26.261719 "/>
<path fill-rule="nonzero" fill="rgb(0%, 0%, 100%)" fill-opacity="1" d="M 16.441406 12.054688 C 15.367188 12.054688 14.457031 11.667969 13.710938 10.898438 C 12.9375 10.152344 12.578125 9.214844 12.578125 8.136719 C 12.578125 7.0625 12.9375 6.125 13.710938 5.378906 C 14.457031 4.605469 15.367188 4.21875 16.441406 4.21875 C 17.515625 4.21875 18.425781 4.605469 19.171875 5.378906 C 19.945312 6.125 20.304688 7.0625 20.304688 8.136719 C 20.304688 9.214844 19.945312 10.152344 19.171875 10.898438 C 18.425781 11.667969 17.515625 12.054688 16.441406 12.054688 Z M 16.441406 11.558594 C 17.378906 11.558594 18.179688 11.226562 18.839844 10.539062 C 19.476562 9.875 19.808594 9.074219 19.808594 8.136719 C 19.808594 7.199219 19.476562 6.371094 18.839844 5.710938 C 18.179688 5.046875 17.378906 4.71875 16.441406 4.71875 C 15.503906 4.71875 14.703125 5.046875 14.042969 5.710938 C 13.378906 6.371094 13.046875 7.199219 13.046875 8.136719 C 13.046875 9.074219 13.378906 9.875 14.042969 10.539062 C 14.703125 11.226562 15.503906 11.558594 16.441406 11.558594 Z M 14.484375 10.152344 L 14.179688 10.152344 C 14.234375 9.460938 14.484375 8.910156 14.867188 8.523438 C 15.28125 8.109375 15.808594 7.917969 16.441406 7.917969 C 17.074219 7.917969 17.601562 8.109375 17.984375 8.523438 C 18.398438 8.910156 18.648438 9.460938 18.703125 10.152344 L 18.398438 10.152344 C 18.179688 9.074219 17.515625 8.523438 16.441406 8.523438 C 15.367188 8.523438 14.703125 9.074219 14.484375 10.152344 Z M 15.199219 7.503906 C 15.035156 7.503906 14.898438 7.449219 14.785156 7.339844 C 14.648438 7.199219 14.59375 7.0625 14.59375 6.898438 C 14.59375 6.730469 14.648438 6.566406 14.785156 6.457031 C 14.898438 6.316406 15.035156 6.261719 15.199219 6.261719 C 15.394531 6.261719 15.53125 6.316406 15.640625 6.457031 C 15.78125 6.566406 15.835938 6.730469 15.835938 6.898438 C 15.835938 7.0625 15.75 7.199219 15.640625 7.339844 C 15.53125 7.449219 15.367188 7.503906 15.199219 7.503906 Z M 17.683594 7.503906 C 17.488281 7.503906 17.351562 7.449219 17.242188 7.339844 C 17.101562 7.199219 17.046875 7.0625 17.046875 6.898438 C 17.046875 6.730469 17.101562 6.566406 17.242188 6.457031 C 17.351562 6.316406 17.488281 6.261719 17.683594 6.261719 C 17.847656 6.261719 17.984375 6.316406 18.097656 6.457031 C 18.234375 6.566406 18.289062 6.730469 18.289062 6.898438 C 18.289062 7.0625 18.234375 7.199219 18.097656 7.339844 C 17.984375 7.449219 17.847656 7.503906 17.683594 7.503906 Z M 17.683594 7.503906 "/>
</svg>
