<?xml version="1.0" encoding="UTF-8"?>
<svg xmlns="http://www.w3.org/2000/svg" xmlns:xlink="http://www.w3.org/1999/xlink" width="32" height="32" viewBox="0 0 32 32">
<path fill-rule="nonzero" fill="rgb(0%, 0%, 100%)" fill-opacity="1" stroke-width="1" stroke-linecap="butt" stroke-linejoin="miter" stroke="rgb(0%, 0%, 100%)" stroke-opacity="1" stroke-miterlimit="4" d="M 26.054687 543.041992 L 145 543.041992 L 145 582.973633 L 26.054687 582.973633 Z M 186.064453 543.041992 L 305.009766 543.041992 L 305.009766 582.973633 L 186.064453 582.973633 Z M 344.941406 543.041992 L 465.019531 543.041992 L 465.019531 582.973633 L 344.941406 582.973633 Z M 504.951172 543.041992 L 626.020508 543.041992 L 626.020508 582.973633 L 504.951172 582.973633 Z M 665.952148 543.041992 L 786.030273 543.041992 L 786.030273 582.973633 L 665.952148 582.973633 Z M 825.961914 543.041992 L 946.040039 543.041992 L 946.040039 581.982422 L 825.961914 582.973633 Z M 825.961914 543.041992 " transform="matrix(0.0275862, 0, 0, 0.0275862, 0, 0)"/>
<path fill-rule="nonzero" fill="rgb(0%, 0%, 100%)" fill-opacity="1" d="M 26.703125 13.433594 L 30.125 15.503906 L 26.703125 17.601562 Z M 26.703125 13.433594 "/>
<path fill-rule="nonzero" fill="rgb(0%, 0%, 100%)" fill-opacity="1" stroke-width="1" stroke-linecap="butt" stroke-linejoin="miter" stroke="rgb(0%, 0%, 100%)" stroke-opacity="1" stroke-miterlimit="4" d="M 966.005859 483.994141 L 1095.996094 562.016602 L 966.005859 642.021484 Z M 969.970703 638.056641 L 966.99707 635.932617 L 1091.040039 561.025391 L 1091.040039 564.990234 L 966.99707 488.950195 L 969.970703 486.967773 Z M 969.970703 638.056641 " transform="matrix(0.0275862, 0, 0, 0.0275862, 0, 0)"/>
</svg>
