<?xml version="1.0" encoding="UTF-8"?>
<svg xmlns="http://www.w3.org/2000/svg" xmlns:xlink="http://www.w3.org/1999/xlink" width="32" height="32" viewBox="0 0 32 32">
<path fill-rule="nonzero" fill="rgb(0%, 0%, 100%)" fill-opacity="1" stroke-width="1" stroke-linecap="butt" stroke-linejoin="miter" stroke="rgb(0%, 0%, 100%)" stroke-opacity="1" stroke-miterlimit="4" d="M 31.010742 545.024414 L 152.929687 545.024414 L 152.929687 584.956055 L 31.010742 584.956055 Z M 193.994141 545.024414 L 316.054687 545.024414 L 316.054687 584.956055 L 193.994141 584.956055 Z M 356.977539 545.024414 L 481.020508 545.024414 L 481.020508 584.956055 L 356.977539 584.956055 Z M 520.952148 545.024414 L 644.003906 545.024414 L 644.003906 584.956055 L 520.952148 584.956055 Z M 685.068359 545.024414 L 806.987305 545.024414 L 806.987305 584.956055 L 685.068359 584.956055 Z M 848.051758 545.024414 L 885.009766 545.024414 L 885.009766 584.956055 L 848.051758 584.956055 Z M 848.051758 545.024414 " transform="matrix(0.0275862, 0, 0, 0.0275862, 0, 0)"/>
<path fill-rule="nonzero" fill="rgb(0%, 0%, 100%)" fill-opacity="1" d="M 27.117188 13.460938 L 30.621094 15.585938 L 27.117188 17.710938 Z M 27.117188 13.460938 "/>
<path fill-rule="nonzero" fill="rgb(0%, 0%, 100%)" fill-opacity="1" stroke-width="1" stroke-linecap="butt" stroke-linejoin="miter" stroke="rgb(0%, 0%, 100%)" stroke-opacity="1" stroke-miterlimit="4" d="M 981.015625 483.00293 L 1113.979492 564.990234 L 981.015625 645.986328 Z M 984.980469 642.021484 L 982.006836 640.039062 L 1109.023437 563.007812 L 1109.023437 566.972656 L 982.006836 488.950195 L 984.980469 487.958984 Z M 984.980469 642.021484 " transform="matrix(0.0275862, 0, 0, 0.0275862, 0, 0)"/>
<path fill-rule="nonzero" fill="rgb(0%, 0%, 100%)" fill-opacity="1" d="M 23.53125 13.460938 L 27.0625 15.585938 L 23.53125 17.710938 Z M 23.53125 13.460938 "/>
<path fill-rule="nonzero" fill="rgb(0%, 0%, 100%)" fill-opacity="1" stroke-width="1" stroke-linecap="butt" stroke-linejoin="miter" stroke="rgb(0%, 0%, 100%)" stroke-opacity="1" stroke-miterlimit="4" d="M 852.016602 483.00293 L 984.980469 564.990234 L 852.016602 645.986328 Z M 855.981445 642.021484 L 853.007812 640.039062 L 979.033203 563.007812 L 979.033203 566.972656 L 853.007812 488.950195 L 855.981445 487.958984 Z M 855.981445 642.021484 " transform="matrix(0.0275862, 0, 0, 0.0275862, 0, 0)"/>
</svg>
