<?xml version="1.0" encoding="UTF-8"?>
<svg xmlns="http://www.w3.org/2000/svg" xmlns:xlink="http://www.w3.org/1999/xlink" width="32" height="32" viewBox="0 0 32 32">
<path fill-rule="nonzero" fill="rgb(7.058824%, 7.843137%, 100%)" fill-opacity="1" d="M 3.171875 14.757812 L 2.757812 13.488281 L 2.8125 13.460938 L 2.898438 13.433594 L 2.980469 13.351562 L 3.0625 13.351562 L 3.144531 13.324219 L 3.199219 13.324219 L 3.308594 13.296875 L 3.394531 13.269531 L 3.476562 13.242188 L 3.640625 13.242188 L 3.695312 13.214844 L 4.277344 13.214844 L 4.359375 13.242188 L 4.414062 13.242188 L 4.523438 13.269531 L 4.578125 13.296875 L 4.691406 13.296875 L 4.855469 13.351562 L 4.910156 13.351562 L 4.992188 13.378906 L 5.101562 13.433594 L 5.1875 13.488281 L 5.269531 13.515625 L 5.324219 13.542969 L 4.773438 14.8125 L 4.746094 14.785156 L 4.660156 14.785156 L 4.632812 14.757812 L 4.578125 14.730469 L 4.550781 14.730469 L 4.496094 14.703125 L 4.414062 14.703125 L 4.386719 14.648438 L 4.25 14.648438 L 4.191406 14.59375 L 3.667969 14.59375 L 3.585938 14.648438 L 3.449219 14.648438 L 3.394531 14.703125 L 3.339844 14.703125 L 3.308594 14.730469 L 3.253906 14.757812 Z M 6.925781 18.867188 L 7.75 17.710938 L 7.75 17.792969 L 7.835938 17.820312 L 8 17.984375 L 8.054688 18.042969 L 8.109375 18.070312 L 8.164062 18.125 L 8.21875 18.152344 L 8.277344 18.179688 L 8.304688 18.207031 L 8.359375 18.234375 L 8.441406 18.261719 L 8.46875 18.289062 L 8.523438 18.316406 L 8.578125 18.316406 L 8.660156 18.34375 L 8.691406 18.34375 L 8.773438 18.371094 L 8.828125 18.425781 L 8.9375 18.425781 L 8.992188 18.457031 L 9.460938 18.457031 L 9.515625 18.425781 L 9.710938 19.613281 L 9.515625 19.667969 L 9.351562 19.667969 L 9.242188 19.722656 L 9.101562 19.722656 L 9.101562 19.75 L 9.1875 19.75 L 8.9375 19.75 L 8.855469 19.722656 L 8.550781 19.722656 L 8.46875 19.667969 L 8.304688 19.667969 L 8.25 19.613281 L 8.191406 19.585938 L 8.109375 19.558594 L 8.027344 19.558594 L 7.945312 19.53125 L 7.917969 19.503906 L 7.835938 19.476562 L 7.75 19.449219 L 7.695312 19.421875 L 7.613281 19.367188 L 7.558594 19.339844 L 7.503906 19.28125 L 7.394531 19.253906 L 7.367188 19.199219 L 7.28125 19.171875 L 7.226562 19.144531 L 7.171875 19.089844 L 7.089844 19.035156 L 6.980469 18.925781 Z M 10.539062 17.929688 L 11.226562 19.117188 L 11.28125 19.089844 L 11.308594 19.035156 L 11.367188 19.007812 L 11.449219 18.925781 L 11.503906 18.867188 L 11.585938 18.785156 L 11.613281 18.730469 L 11.722656 18.621094 L 11.75 18.566406 L 11.808594 18.511719 L 11.835938 18.484375 L 11.863281 18.371094 L 11.890625 18.316406 L 11.972656 18.234375 L 12.027344 18.152344 L 12.027344 18.125 L 12.054688 18.042969 L 12.082031 17.984375 L 12.136719 17.875 L 12.164062 17.792969 L 12.191406 17.738281 L 12.191406 17.601562 L 12.21875 17.574219 L 12.25 17.488281 L 12.25 17.40625 L 12.277344 17.351562 L 12.277344 17.269531 L 12.332031 17.101562 L 12.359375 16.9375 L 12.386719 16.828125 L 12.386719 16.660156 L 12.414062 16.550781 L 12.441406 16.386719 L 12.46875 16.277344 L 12.496094 16.164062 L 12.523438 16.054688 L 12.550781 15.972656 L 12.550781 15.808594 L 12.605469 15.722656 L 12.605469 15.667969 L 12.660156 15.667969 L 12.660156 15.613281 L 12.691406 15.613281 L 12.691406 15.558594 L 11.808594 14.59375 L 11.75 14.703125 L 11.667969 14.785156 L 11.640625 14.867188 L 11.585938 14.980469 L 11.53125 15.0625 L 11.503906 15.144531 L 11.476562 15.28125 L 11.421875 15.367188 L 11.367188 15.476562 L 11.308594 15.613281 L 11.28125 15.722656 L 11.253906 15.835938 L 11.226562 15.972656 L 11.199219 16.082031 L 11.144531 16.191406 L 11.144531 16.359375 L 11.089844 16.632812 L 11.035156 16.746094 L 11.007812 16.910156 L 10.953125 16.992188 L 10.953125 17.074219 L 10.925781 17.214844 L 10.867188 17.296875 L 10.8125 17.40625 L 10.785156 17.488281 L 10.785156 17.601562 L 10.703125 17.65625 L 10.648438 17.738281 L 10.621094 17.792969 L 10.59375 17.820312 L 10.59375 17.875 Z M 12.992188 13.542969 L 13.433594 14.8125 L 13.488281 14.785156 L 13.574219 14.757812 L 13.628906 14.730469 L 13.65625 14.703125 L 13.738281 14.648438 L 13.792969 14.648438 L 13.847656 14.59375 L 13.984375 14.59375 L 14.015625 14.566406 L 14.152344 14.566406 L 14.207031 14.539062 L 14.457031 14.539062 L 14.511719 14.566406 L 14.621094 14.566406 L 14.703125 14.59375 L 14.8125 14.59375 L 14.867188 14.648438 L 14.925781 14.648438 L 15.007812 14.703125 L 15.0625 14.730469 L 15.089844 14.757812 L 15.171875 14.785156 L 15.226562 14.785156 L 15.28125 14.839844 L 15.367188 14.867188 L 15.835938 13.542969 L 15.75 13.515625 L 15.667969 13.460938 L 15.585938 13.433594 L 15.503906 13.378906 L 15.394531 13.351562 L 15.339844 13.324219 L 15.226562 13.296875 L 15.144531 13.296875 L 15.0625 13.269531 L 14.953125 13.242188 L 14.867188 13.214844 L 14.703125 13.214844 L 14.621094 13.1875 L 14.261719 13.1875 L 14.152344 13.214844 L 13.984375 13.214844 L 13.902344 13.242188 L 13.792969 13.269531 L 13.710938 13.296875 L 13.628906 13.296875 L 13.542969 13.324219 L 13.460938 13.351562 L 13.351562 13.378906 L 13.269531 13.433594 L 13.160156 13.460938 L 13.101562 13.515625 Z M 16.109375 15.667969 L 17.019531 14.703125 L 17.132812 14.785156 L 17.1875 14.839844 L 17.214844 14.953125 L 17.324219 15.117188 L 17.40625 15.28125 L 17.460938 15.308594 L 17.488281 15.449219 L 17.515625 15.503906 L 17.542969 15.613281 L 17.542969 15.667969 L 17.574219 15.722656 L 17.574219 15.808594 L 17.601562 15.863281 L 17.601562 15.972656 L 17.628906 16.191406 L 17.65625 16.386719 L 17.65625 16.605469 L 17.683594 16.746094 L 17.683594 16.910156 L 17.710938 16.964844 L 17.710938 17.074219 L 17.738281 17.074219 L 17.738281 17.160156 L 16.71875 17.929688 L 16.71875 17.820312 L 16.691406 17.710938 L 16.660156 17.601562 L 16.660156 17.433594 L 16.632812 17.351562 L 16.578125 17.214844 L 16.523438 17.074219 L 16.523438 16.9375 L 16.46875 16.773438 L 16.414062 16.632812 L 16.386719 16.496094 L 16.332031 16.332031 L 16.304688 16.164062 L 16.191406 16 L 16.136719 15.835938 Z M 18.425781 18.125 L 17.875 19.339844 L 17.929688 19.339844 L 18.015625 19.394531 L 18.070312 19.421875 L 18.152344 19.476562 L 18.398438 19.558594 L 18.457031 19.585938 L 18.539062 19.613281 L 18.59375 19.613281 L 18.703125 19.667969 L 18.839844 19.667969 L 18.953125 19.722656 L 19.890625 19.722656 L 19.972656 19.667969 L 20.164062 19.667969 L 20.25 19.613281 L 20.332031 19.613281 L 20.550781 19.558594 L 20.191406 18.34375 L 20.164062 18.371094 L 20.082031 18.371094 L 20.027344 18.425781 L 19.972656 18.457031 L 19.863281 18.457031 L 19.808594 18.484375 L 19.253906 18.484375 L 19.199219 18.457031 L 19.144531 18.457031 L 19.089844 18.425781 L 19.035156 18.425781 L 18.980469 18.371094 L 18.953125 18.371094 L 18.867188 18.34375 L 18.8125 18.316406 L 18.785156 18.316406 L 18.730469 18.289062 L 18.648438 18.261719 L 18.648438 18.234375 L 18.484375 18.152344 Z M 21.101562 17.351562 L 22.152344 18.34375 L 22.234375 18.289062 L 22.261719 18.179688 L 22.316406 18.070312 L 22.34375 17.957031 L 22.398438 17.875 L 22.484375 17.792969 L 22.511719 17.628906 L 22.566406 17.542969 L 22.675781 17.40625 L 22.730469 17.269531 L 22.8125 17.160156 L 22.898438 16.992188 L 23.0625 16.71875 L 23.253906 16.386719 L 21.984375 15.558594 L 21.984375 15.613281 L 21.929688 15.613281 L 21.929688 15.667969 L 21.875 15.722656 L 21.820312 15.808594 L 21.792969 15.863281 L 21.765625 16 L 21.710938 16.082031 L 21.574219 16.332031 L 21.460938 16.632812 L 21.269531 16.964844 Z M 27.089844 14.234375 L 27.089844 12.332031 L 31.089844 14.953125 L 27.089844 17.542969 L 27.089844 15.667969 L 25.046875 15.667969 L 24.828125 15.695312 L 24.632812 15.722656 L 24.46875 15.722656 L 24.386719 15.75 L 24.304688 15.75 L 24.21875 15.78125 L 24.164062 15.78125 L 24.109375 15.808594 L 24.054688 15.808594 L 23.972656 15.835938 L 23.890625 15.835938 L 23.835938 15.863281 L 23.808594 15.863281 L 23.171875 14.59375 L 23.308594 14.59375 L 23.367188 14.566406 L 23.53125 14.511719 L 23.585938 14.484375 L 23.667969 14.484375 L 23.75 14.457031 L 23.863281 14.425781 L 24.054688 14.425781 L 24.136719 14.398438 L 24.25 14.398438 L 24.386719 14.371094 L 24.46875 14.371094 L 24.605469 14.316406 L 25.132812 14.316406 L 25.40625 14.261719 L 25.710938 14.261719 L 26.042969 14.234375 Z M 5.515625 15.308594 L 6.511719 14.425781 L 6.566406 14.457031 L 6.566406 14.484375 L 6.621094 14.511719 L 6.648438 14.566406 L 6.703125 14.730469 L 6.757812 14.839844 L 6.8125 14.953125 L 6.867188 15.117188 L 6.898438 15.226562 L 6.953125 15.394531 L 7.035156 15.558594 L 7.0625 15.75 L 7.117188 15.972656 L 7.171875 16.191406 L 7.226562 16.386719 L 7.308594 16.660156 L 7.367188 16.910156 L 6.207031 17.710938 L 6.207031 17.601562 L 6.179688 17.488281 L 6.152344 17.378906 L 6.152344 17.242188 L 6.097656 17.101562 L 6.042969 16.828125 L 5.984375 16.691406 L 5.929688 16.550781 L 5.875 16.359375 L 5.820312 16.191406 L 5.792969 16.027344 L 5.738281 15.863281 L 5.65625 15.695312 L 5.601562 15.503906 Z M 0.71875 16.441406 L 2.125 16.441406 L 2.125 16.164062 L 2.152344 16.109375 L 2.152344 16.027344 L 2.179688 16 L 2.179688 15.863281 L 2.207031 15.835938 L 2.207031 15.808594 L 2.234375 15.75 L 2.261719 15.722656 L 2.261719 15.613281 L 2.289062 15.613281 L 2.289062 15.53125 L 2.34375 15.476562 L 2.398438 15.449219 L 2.425781 15.394531 L 2.425781 15.367188 L 2.457031 15.308594 L 2.484375 15.28125 L 2.511719 15.28125 L 2.566406 15.171875 L 2.59375 15.144531 L 2.59375 15.117188 L 1.710938 14.125 L 1.683594 14.179688 L 1.601562 14.234375 L 1.542969 14.316406 L 1.515625 14.371094 L 1.460938 14.425781 L 1.378906 14.484375 L 1.351562 14.566406 L 1.296875 14.59375 L 1.242188 14.703125 L 1.1875 14.757812 L 1.1875 14.8125 L 1.101562 14.898438 L 1.074219 14.953125 L 1.019531 15.035156 L 0.992188 15.117188 L 0.992188 15.171875 L 0.964844 15.28125 L 0.910156 15.308594 L 0.855469 15.394531 L 0.855469 15.53125 L 0.800781 15.695312 L 0.773438 15.808594 L 0.773438 15.863281 L 0.746094 15.972656 L 0.746094 16.109375 L 0.71875 16.191406 Z M 0.71875 16.441406 "/>
</svg>
