<?xml version="1.0" encoding="UTF-8"?>
<svg xmlns="http://www.w3.org/2000/svg" xmlns:xlink="http://www.w3.org/1999/xlink" width="32" height="32" viewBox="0 0 32 32">
<path fill-rule="nonzero" fill="rgb(0%, 0%, 100%)" fill-opacity="1" stroke-width="1" stroke-linecap="butt" stroke-linejoin="miter" stroke="rgb(0%, 0%, 100%)" stroke-opacity="1" stroke-miterlimit="4" d="M 195.976562 23.930664 L 903.984375 23.930664 L 903.984375 1082.96875 L 195.976562 1082.96875 Z M 278.955078 1041.054687 L 237.041016 999.990234 L 862.070312 999.990234 L 820.014648 1041.054687 L 820.014648 64.995117 L 862.070312 107.050781 L 237.041016 107.050781 L 278.955078 64.995117 Z M 278.955078 1041.054687 " transform="matrix(0.0275862, 0, 0, 0.0275862, 0, 0)"/>
<path fill-rule="nonzero" fill="rgb(0%, 0%, 100%)" fill-opacity="1" stroke-width="1" stroke-linecap="butt" stroke-linejoin="miter" stroke="rgb(0%, 0%, 100%)" stroke-opacity="1" stroke-miterlimit="4" d="M 359.951172 335.029297 L 382.041016 291.982422 L 574.052734 548.989258 L 529.023437 548.989258 L 721.035156 291.982422 L 741.992187 335.029297 Z M 796.933594 280.9375 L 550.97168 610.019531 L 306.000977 280.9375 Z M 796.933594 280.9375 " transform="matrix(0.0275862, 0, 0, 0.0275862, 0, 0)"/>
<path fill-rule="nonzero" fill="rgb(0%, 0%, 100%)" fill-opacity="1" stroke-width="1" stroke-linecap="butt" stroke-linejoin="miter" stroke="rgb(0%, 0%, 100%)" stroke-opacity="1" stroke-miterlimit="4" d="M 581.982422 563.999023 L 581.982422 821.005859 L 528.032227 821.005859 L 528.032227 563.999023 Z M 581.982422 563.999023 " transform="matrix(0.0275862, 0, 0, 0.0275862, 0, 0)"/>
</svg>
