<?xml version="1.0" encoding="UTF-8"?>
<svg xmlns="http://www.w3.org/2000/svg" xmlns:xlink="http://www.w3.org/1999/xlink" width="32" height="32" viewBox="0 0 32 32">
<path fill-rule="nonzero" fill="rgb(0%, 0%, 100%)" fill-opacity="1" stroke-width="1" stroke-linecap="butt" stroke-linejoin="miter" stroke="rgb(0%, 0%, 100%)" stroke-opacity="1" stroke-miterlimit="4" d="M 222.03125 34.975586 L 936.977539 34.975586 L 936.977539 1112.988281 L 222.03125 1112.988281 Z M 305.009766 1070.932617 L 262.954102 1029.018555 L 895.063477 1029.018555 L 852.016602 1070.932617 L 852.016602 77.03125 L 895.063477 119.936523 L 262.954102 119.936523 L 305.009766 77.03125 Z M 305.009766 1070.932617 " transform="matrix(0.0275862, 0, 0, 0.0275862, 0, 0)"/>
<path fill-rule="nonzero" fill="rgb(0%, 0%, 100%)" fill-opacity="1" stroke-width="1" stroke-linecap="butt" stroke-linejoin="miter" stroke="rgb(0%, 0%, 100%)" stroke-opacity="1" stroke-miterlimit="4" d="M 289.008789 599.96582 L 856.972656 599.96582 L 856.972656 655.048828 L 289.008789 655.048828 Z M 289.008789 599.96582 " transform="matrix(0.0275862, 0, 0, 0.0275862, 0, 0)"/>
<path fill-rule="nonzero" fill="rgb(0%, 0%, 100%)" fill-opacity="1" stroke-width="1" stroke-linecap="butt" stroke-linejoin="miter" stroke="rgb(0%, 0%, 100%)" stroke-opacity="1" stroke-miterlimit="4" d="M 295.947266 470.966797 L 864.052734 470.966797 L 864.052734 527.041016 L 295.947266 527.041016 Z M 295.947266 470.966797 " transform="matrix(0.0275862, 0, 0, 0.0275862, 0, 0)"/>
<path fill-rule="nonzero" fill="rgb(0%, 0%, 100%)" fill-opacity="1" stroke-width="1" stroke-linecap="butt" stroke-linejoin="miter" stroke="rgb(0%, 0%, 100%)" stroke-opacity="1" stroke-miterlimit="4" d="M 326.958008 350.039062 L 581.982422 137.070312 L 616.958008 178.984375 L 363.066406 391.953125 Z M 326.958008 350.039062 " transform="matrix(0.0275862, 0, 0, 0.0275862, 0, 0)"/>
<path fill-rule="nonzero" fill="rgb(0%, 0%, 100%)" fill-opacity="1" stroke-width="1" stroke-linecap="butt" stroke-linejoin="miter" stroke="rgb(0%, 0%, 100%)" stroke-opacity="1" stroke-miterlimit="4" d="M 579.008789 132.963867 L 833.041992 347.06543 L 799.057617 388.979492 L 543.041992 175.019531 Z M 579.008789 132.963867 " transform="matrix(0.0275862, 0, 0, 0.0275862, 0, 0)"/>
</svg>
