<?xml version="1.0" encoding="UTF-8"?>
<svg xmlns="http://www.w3.org/2000/svg" xmlns:xlink="http://www.w3.org/1999/xlink" width="32" height="32" viewBox="0 0 32 32">
<path fill-rule="nonzero" fill="rgb(0%, 0%, 100%)" fill-opacity="1" stroke-width="1" stroke-linecap="butt" stroke-linejoin="miter" stroke="rgb(0%, 0%, 100%)" stroke-opacity="1" stroke-miterlimit="4" d="M 380.058594 323.984375 C 380.058594 543.041992 380.058594 762.949219 380.058594 982.006836 C 360.942383 982.006836 341.967773 982.006836 322.993164 982.006836 C 322.993164 762.949219 322.993164 543.041992 322.993164 323.984375 C 341.967773 323.984375 360.942383 323.984375 380.058594 323.984375 Z M 380.058594 323.984375 " transform="matrix(0.0275862, 0, 0, 0.0275862, 0, 0)"/>
<path fill-rule="nonzero" fill="rgb(0%, 0%, 100%)" fill-opacity="1" d="M 6.703125 28.136719 C 6.703125 26.566406 8.027344 25.242188 9.683594 25.242188 C 11.339844 25.242188 12.660156 26.566406 12.660156 28.136719 C 12.660156 29.710938 11.339844 30.980469 9.683594 30.980469 C 8.027344 30.980469 6.703125 29.710938 6.703125 28.136719 Z M 6.703125 28.136719 "/>
<path fill-rule="nonzero" fill="rgb(0%, 0%, 100%)" fill-opacity="1" d="M 6.59375 28.136719 C 6.59375 28.027344 6.621094 27.945312 6.621094 27.835938 C 6.648438 27.722656 6.648438 27.640625 6.675781 27.53125 C 6.703125 27.449219 6.703125 27.339844 6.730469 27.253906 C 6.757812 27.171875 6.8125 27.0625 6.839844 26.980469 C 6.898438 26.898438 6.925781 26.8125 6.980469 26.730469 C 7.035156 26.648438 7.089844 26.566406 7.144531 26.484375 C 7.199219 26.398438 7.253906 26.34375 7.308594 26.261719 C 7.367188 26.179688 7.449219 26.125 7.503906 26.042969 C 7.585938 25.984375 7.640625 25.902344 7.722656 25.847656 C 7.808594 25.792969 7.890625 25.738281 7.972656 25.683594 C 8.054688 25.628906 8.136719 25.601562 8.21875 25.542969 C 8.304688 25.488281 8.386719 25.460938 8.46875 25.40625 C 8.550781 25.378906 8.660156 25.324219 8.746094 25.296875 C 8.855469 25.269531 8.9375 25.269531 9.046875 25.242188 C 9.160156 25.214844 9.242188 25.214844 9.351562 25.1875 C 9.460938 25.1875 9.574219 25.160156 9.683594 25.160156 C 9.792969 25.160156 9.875 25.1875 9.984375 25.1875 C 10.097656 25.214844 10.179688 25.214844 10.289062 25.242188 C 10.398438 25.269531 10.484375 25.269531 10.59375 25.296875 C 10.675781 25.324219 10.785156 25.378906 10.867188 25.40625 C 10.953125 25.460938 11.0625 25.488281 11.144531 25.542969 C 11.226562 25.601562 11.308594 25.628906 11.394531 25.683594 C 11.476562 25.738281 11.558594 25.792969 11.640625 25.847656 C 11.722656 25.902344 11.78125 25.984375 11.863281 26.042969 C 11.917969 26.125 12 26.179688 12.054688 26.261719 C 12.109375 26.34375 12.164062 26.398438 12.21875 26.484375 C 12.277344 26.566406 12.332031 26.621094 12.386719 26.703125 C 12.441406 26.785156 12.46875 26.898438 12.523438 26.980469 C 12.550781 27.0625 12.578125 27.171875 12.605469 27.253906 C 12.632812 27.339844 12.691406 27.449219 12.71875 27.53125 C 12.71875 27.640625 12.746094 27.722656 12.746094 27.835938 C 12.746094 27.945312 12.746094 28.027344 12.746094 28.136719 C 12.746094 28.25 12.746094 28.332031 12.746094 28.441406 C 12.746094 28.550781 12.71875 28.632812 12.71875 28.746094 C 12.691406 28.828125 12.632812 28.9375 12.605469 29.019531 C 12.578125 29.101562 12.550781 29.1875 12.523438 29.269531 C 12.496094 29.351562 12.441406 29.433594 12.414062 29.515625 C 12.359375 29.601562 12.304688 29.710938 12.25 29.792969 C 12.191406 29.875 12.109375 29.929688 12.054688 30.015625 C 12 30.097656 11.917969 30.152344 11.863281 30.234375 C 11.78125 30.289062 11.722656 30.34375 11.640625 30.398438 C 11.558594 30.457031 11.476562 30.539062 11.394531 30.59375 C 11.308594 30.648438 11.226562 30.675781 11.144531 30.730469 C 11.0625 30.757812 10.980469 30.8125 10.898438 30.839844 C 10.8125 30.867188 10.703125 30.925781 10.621094 30.953125 C 10.511719 30.980469 10.425781 31.007812 10.316406 31.035156 C 10.207031 31.0625 10.125 31.0625 10.015625 31.089844 C 9.902344 31.089844 9.792969 31.089844 9.683594 31.089844 C 9.574219 31.089844 9.488281 31.089844 9.378906 31.089844 C 9.269531 31.0625 9.160156 31.0625 9.046875 31.035156 C 8.964844 31.007812 8.855469 30.980469 8.773438 30.953125 C 8.660156 30.925781 8.578125 30.867188 8.46875 30.839844 C 8.386719 30.8125 8.304688 30.757812 8.21875 30.730469 C 8.136719 30.675781 8.054688 30.648438 7.972656 30.59375 C 7.890625 30.539062 7.808594 30.457031 7.722656 30.398438 C 7.640625 30.34375 7.585938 30.289062 7.503906 30.234375 C 7.449219 30.152344 7.367188 30.097656 7.308594 30.015625 C 7.253906 29.929688 7.199219 29.875 7.144531 29.792969 C 7.089844 29.710938 7.0625 29.628906 7.007812 29.542969 C 6.953125 29.460938 6.898438 29.378906 6.839844 29.296875 C 6.8125 29.214844 6.757812 29.101562 6.730469 29.019531 C 6.703125 28.9375 6.703125 28.828125 6.675781 28.746094 C 6.648438 28.632812 6.648438 28.550781 6.621094 28.441406 C 6.621094 28.332031 6.59375 28.25 6.59375 28.136719 Z M 6.8125 28.414062 C 6.8125 28.496094 6.839844 28.605469 6.839844 28.691406 C 6.867188 28.773438 6.898438 28.855469 6.925781 28.9375 C 6.953125 29.019531 6.980469 29.132812 7.007812 29.214844 C 7.0625 29.296875 7.089844 29.378906 7.144531 29.460938 C 7.199219 29.542969 7.226562 29.601562 7.28125 29.683594 C 7.339844 29.765625 7.394531 29.820312 7.449219 29.902344 C 7.503906 29.957031 7.585938 30.042969 7.640625 30.097656 C 7.722656 30.152344 7.78125 30.207031 7.863281 30.261719 C 7.917969 30.316406 8 30.371094 8.054688 30.425781 C 8.136719 30.484375 8.21875 30.511719 8.304688 30.566406 C 8.386719 30.59375 8.46875 30.648438 8.550781 30.675781 C 8.632812 30.703125 8.746094 30.757812 8.828125 30.785156 C 8.910156 30.8125 9.019531 30.8125 9.101562 30.839844 C 9.1875 30.839844 9.296875 30.867188 9.378906 30.867188 C 9.488281 30.867188 9.574219 30.898438 9.683594 30.898438 C 9.765625 30.898438 9.875 30.898438 9.957031 30.898438 C 10.070312 30.867188 10.152344 30.867188 10.261719 30.839844 C 10.34375 30.8125 10.457031 30.8125 10.539062 30.785156 C 10.621094 30.757812 10.730469 30.703125 10.8125 30.675781 C 10.898438 30.648438 10.980469 30.59375 11.0625 30.566406 C 11.144531 30.511719 11.199219 30.484375 11.28125 30.425781 C 11.367188 30.371094 11.449219 30.316406 11.53125 30.261719 C 11.585938 30.207031 11.667969 30.152344 11.722656 30.097656 C 11.78125 30.042969 11.863281 29.957031 11.917969 29.902344 C 11.972656 29.820312 12.027344 29.765625 12.082031 29.683594 C 12.136719 29.601562 12.164062 29.542969 12.21875 29.460938 C 12.25 29.378906 12.304688 29.296875 12.332031 29.214844 C 12.359375 29.132812 12.414062 29.046875 12.441406 28.964844 C 12.46875 28.882812 12.496094 28.773438 12.523438 28.691406 C 12.523438 28.605469 12.550781 28.496094 12.550781 28.414062 C 12.550781 28.332031 12.578125 28.21875 12.578125 28.136719 C 12.578125 28.054688 12.578125 27.945312 12.578125 27.863281 C 12.550781 27.78125 12.550781 27.667969 12.523438 27.585938 C 12.496094 27.503906 12.46875 27.394531 12.441406 27.308594 C 12.414062 27.226562 12.386719 27.144531 12.359375 27.0625 C 12.304688 26.980469 12.277344 26.898438 12.21875 26.8125 C 12.164062 26.730469 12.136719 26.648438 12.082031 26.566406 C 12.027344 26.511719 11.972656 26.425781 11.917969 26.371094 C 11.863281 26.316406 11.78125 26.234375 11.722656 26.179688 C 11.667969 26.125 11.585938 26.042969 11.53125 25.984375 C 11.449219 25.929688 11.394531 25.875 11.308594 25.820312 C 11.226562 25.765625 11.171875 25.738281 11.089844 25.683594 C 11.007812 25.65625 10.898438 25.601562 10.8125 25.574219 C 10.730469 25.542969 10.621094 25.515625 10.539062 25.488281 C 10.457031 25.460938 10.34375 25.433594 10.261719 25.40625 C 10.179688 25.40625 10.070312 25.378906 9.984375 25.378906 C 9.875 25.378906 9.792969 25.378906 9.683594 25.378906 C 9.574219 25.378906 9.488281 25.378906 9.378906 25.378906 C 9.296875 25.378906 9.1875 25.40625 9.101562 25.40625 C 9.019531 25.433594 8.910156 25.460938 8.828125 25.488281 C 8.746094 25.515625 8.660156 25.542969 8.578125 25.574219 C 8.496094 25.601562 8.386719 25.65625 8.304688 25.683594 C 8.21875 25.738281 8.136719 25.765625 8.054688 25.820312 C 8 25.875 7.917969 25.929688 7.863281 25.984375 C 7.78125 26.042969 7.722656 26.097656 7.640625 26.152344 C 7.585938 26.234375 7.503906 26.289062 7.449219 26.371094 C 7.394531 26.425781 7.339844 26.511719 7.28125 26.566406 C 7.226562 26.648438 7.199219 26.730469 7.144531 26.8125 C 7.089844 26.898438 7.0625 26.953125 7.007812 27.035156 C 6.980469 27.117188 6.953125 27.199219 6.925781 27.28125 C 6.898438 27.394531 6.867188 27.476562 6.839844 27.585938 C 6.839844 27.667969 6.8125 27.78125 6.8125 27.863281 C 6.8125 27.945312 6.785156 28.054688 6.785156 28.136719 C 6.785156 28.21875 6.8125 28.332031 6.8125 28.414062 Z M 6.8125 28.414062 "/>
<path fill="none" stroke-width="1" stroke-linecap="butt" stroke-linejoin="miter" stroke="rgb(0%, 0%, 100%)" stroke-opacity="1" stroke-miterlimit="4" d="M 239.023437 1019.956055 C 239.023437 1015.991211 240.014648 1013.017578 240.014648 1009.052734 C 241.005859 1004.946289 241.005859 1001.972656 241.99707 998.007812 C 242.988281 995.03418 242.988281 991.069336 243.979492 987.954102 C 244.970703 984.980469 246.953125 981.015625 247.944336 978.041992 C 250.068359 975.068359 251.05957 971.953125 253.041992 968.979492 C 255.024414 966.005859 257.006836 963.032227 258.989258 960.058594 C 260.97168 956.943359 262.954102 954.960937 264.936523 951.987305 C 267.060547 949.013672 270.03418 947.03125 272.016602 944.057617 C 274.990234 941.933594 276.972656 938.959961 279.946289 936.977539 C 283.061523 934.995117 286.035156 933.012695 289.008789 931.030273 C 291.982422 929.047852 294.956055 928.056641 297.929687 925.932617 C 301.044922 923.950195 304.018555 922.958984 306.992187 920.976562 C 309.96582 919.985352 313.930664 918.00293 317.045898 917.011719 C 321.010742 916.020508 323.984375 916.020508 327.949219 915.029297 C 332.055664 914.038086 335.029297 914.038086 338.994141 913.046875 C 342.958984 913.046875 347.06543 912.055664 351.030273 912.055664 C 354.995117 912.055664 357.96875 913.046875 361.933594 913.046875 C 366.040039 914.038086 369.013672 914.038086 372.978516 915.029297 C 376.943359 916.020508 380.058594 916.020508 384.023437 917.011719 C 386.99707 918.00293 390.961914 919.985352 393.935547 920.976562 C 397.050781 922.958984 401.015625 923.950195 403.989258 925.932617 C 406.962891 928.056641 409.936523 929.047852 413.051758 931.030273 C 416.025391 933.012695 418.999023 934.995117 421.972656 936.977539 C 424.946289 938.959961 427.070312 941.933594 430.043945 944.057617 C 432.026367 947.03125 435 949.013672 436.982422 951.987305 C 438.964844 954.960937 440.947266 956.943359 442.929687 960.058594 C 445.053711 963.032227 447.036133 965.014648 449.018555 967.988281 C 451.000977 970.961914 451.992187 975.068359 453.974609 978.041992 C 454.96582 981.015625 455.957031 984.980469 456.948242 987.954102 C 457.939453 991.069336 460.063477 995.03418 461.054687 998.007812 C 461.054687 1001.972656 462.045898 1004.946289 462.045898 1009.052734 C 462.045898 1013.017578 462.045898 1015.991211 462.045898 1019.956055 C 462.045898 1024.0625 462.045898 1027.036133 462.045898 1031.000977 C 462.045898 1034.96582 461.054687 1037.939453 461.054687 1042.045898 C 460.063477 1045.019531 457.939453 1048.984375 456.948242 1051.958008 C 455.957031 1054.931641 454.96582 1058.046875 453.974609 1061.020508 C 452.983398 1063.994141 451.000977 1066.967773 450.009766 1069.941406 C 448.027344 1073.056641 446.044922 1077.021484 444.0625 1079.995117 C 441.938477 1082.96875 438.964844 1084.951172 436.982422 1088.066406 C 435 1091.040039 432.026367 1093.022461 430.043945 1095.996094 C 427.070312 1097.978516 424.946289 1099.960937 421.972656 1101.943359 C 418.999023 1104.067383 416.025391 1107.041016 413.051758 1109.023437 C 409.936523 1111.005859 406.962891 1111.99707 403.989258 1113.979492 C 401.015625 1114.970703 398.041992 1116.953125 395.068359 1117.944336 C 391.953125 1118.935547 387.988281 1121.05957 385.014648 1122.050781 C 381.049805 1123.041992 377.93457 1124.033203 373.969727 1125.024414 C 370.004883 1126.015625 367.03125 1126.015625 363.066406 1127.006836 C 358.959961 1127.006836 354.995117 1127.006836 351.030273 1127.006836 C 347.06543 1127.006836 343.950195 1127.006836 339.985352 1127.006836 C 336.020508 1126.015625 332.055664 1126.015625 327.949219 1125.024414 C 324.975586 1124.033203 321.010742 1123.041992 318.037109 1122.050781 C 313.930664 1121.05957 310.957031 1118.935547 306.992187 1117.944336 C 304.018555 1116.953125 301.044922 1114.970703 297.929687 1113.979492 C 294.956055 1111.99707 291.982422 1111.005859 289.008789 1109.023437 C 286.035156 1107.041016 283.061523 1104.067383 279.946289 1101.943359 C 276.972656 1099.960937 274.990234 1097.978516 272.016602 1095.996094 C 270.03418 1093.022461 267.060547 1091.040039 264.936523 1088.066406 C 262.954102 1084.951172 260.97168 1082.96875 258.989258 1079.995117 C 257.006836 1077.021484 256.015625 1074.047852 254.033203 1070.932617 C 252.050781 1067.958984 250.068359 1064.985352 247.944336 1062.011719 C 246.953125 1059.038086 244.970703 1054.931641 243.979492 1051.958008 C 242.988281 1048.984375 242.988281 1045.019531 241.99707 1042.045898 C 241.005859 1037.939453 241.005859 1034.96582 240.014648 1031.000977 C 240.014648 1027.036133 239.023437 1024.0625 239.023437 1019.956055 Z M 239.023437 1019.956055 " transform="matrix(0.0275862, 0, 0, 0.0275862, 0, 0)"/>
<path fill="none" stroke-width="1" stroke-linecap="butt" stroke-linejoin="miter" stroke="rgb(0%, 0%, 100%)" stroke-opacity="1" stroke-miterlimit="4" d="M 246.953125 1030.009766 C 246.953125 1032.983398 247.944336 1036.948242 247.944336 1040.063477 C 248.935547 1043.037109 250.068359 1046.010742 251.05957 1048.984375 C 252.050781 1051.958008 253.041992 1056.064453 254.033203 1059.038086 C 256.015625 1062.011719 257.006836 1064.985352 258.989258 1067.958984 C 260.97168 1070.932617 261.962891 1073.056641 263.945312 1076.030273 C 266.069336 1079.003906 268.051758 1080.986328 270.03418 1083.959961 C 272.016602 1085.942383 274.990234 1089.057617 276.972656 1091.040039 C 279.946289 1093.022461 282.070312 1095.004883 285.043945 1096.987305 C 287.026367 1098.969727 290 1100.952148 291.982422 1102.93457 C 294.956055 1105.058594 297.929687 1106.049805 301.044922 1108.032227 C 304.018555 1109.023437 306.992187 1111.005859 309.96582 1111.99707 C 312.939453 1112.988281 317.045898 1114.970703 320.019531 1115.961914 C 322.993164 1116.953125 326.958008 1116.953125 329.931641 1117.944336 C 333.046875 1117.944336 337.011719 1118.935547 339.985352 1118.935547 C 343.950195 1118.935547 347.06543 1120.068359 351.030273 1120.068359 C 354.003906 1120.068359 357.96875 1120.068359 360.942383 1120.068359 C 365.048828 1118.935547 368.022461 1118.935547 371.987305 1117.944336 C 374.960937 1116.953125 379.067383 1116.953125 382.041016 1115.961914 C 385.014648 1114.970703 388.979492 1112.988281 391.953125 1111.99707 C 395.068359 1111.005859 398.041992 1109.023437 401.015625 1108.032227 C 403.989258 1106.049805 405.97168 1105.058594 408.945312 1102.93457 C 412.060547 1100.952148 415.03418 1098.969727 418.007812 1096.987305 C 419.990234 1095.004883 422.963867 1093.022461 424.946289 1091.040039 C 427.070312 1089.057617 430.043945 1085.942383 432.026367 1083.959961 C 434.008789 1080.986328 435.991211 1079.003906 437.973633 1076.030273 C 439.956055 1073.056641 440.947266 1070.932617 442.929687 1067.958984 C 444.0625 1064.985352 446.044922 1062.011719 447.036133 1059.038086 C 448.027344 1056.064453 450.009766 1052.949219 451.000977 1049.975586 C 451.992187 1047.001953 452.983398 1043.037109 453.974609 1040.063477 C 453.974609 1036.948242 454.96582 1032.983398 454.96582 1030.009766 C 454.96582 1027.036133 455.957031 1022.929687 455.957031 1019.956055 C 455.957031 1016.982422 455.957031 1013.017578 455.957031 1010.043945 C 454.96582 1007.070312 454.96582 1002.963867 453.974609 999.990234 C 452.983398 997.016602 451.992187 993.051758 451.000977 989.936523 C 450.009766 986.962891 449.018555 983.989258 448.027344 981.015625 C 446.044922 978.041992 445.053711 975.068359 442.929687 971.953125 C 440.947266 968.979492 439.956055 966.005859 437.973633 963.032227 C 435.991211 961.049805 434.008789 957.93457 432.026367 955.952148 C 430.043945 953.969727 427.070312 950.996094 424.946289 949.013672 C 422.963867 947.03125 419.990234 944.057617 418.007812 941.933594 C 415.03418 939.951172 413.051758 937.96875 409.936523 935.986328 C 406.962891 934.003906 404.980469 933.012695 402.006836 931.030273 C 399.033203 930.039062 395.068359 928.056641 391.953125 927.06543 C 388.979492 925.932617 385.014648 924.941406 382.041016 923.950195 C 379.067383 922.958984 374.960937 921.967773 371.987305 920.976562 C 369.013672 920.976562 365.048828 919.985352 361.933594 919.985352 C 357.96875 919.985352 354.995117 919.985352 351.030273 919.985352 C 347.06543 919.985352 343.950195 919.985352 339.985352 919.985352 C 337.011719 919.985352 333.046875 920.976562 329.931641 920.976562 C 326.958008 921.967773 322.993164 922.958984 320.019531 923.950195 C 317.045898 924.941406 313.930664 925.932617 310.957031 927.06543 C 307.983398 928.056641 304.018555 930.039062 301.044922 931.030273 C 297.929687 933.012695 294.956055 934.003906 291.982422 935.986328 C 290 937.96875 287.026367 939.951172 285.043945 941.933594 C 282.070312 944.057617 279.946289 946.040039 276.972656 948.022461 C 274.990234 950.996094 272.016602 952.978516 270.03418 955.952148 C 268.051758 957.93457 266.069336 961.049805 263.945312 963.032227 C 261.962891 966.005859 260.97168 968.979492 258.989258 971.953125 C 257.006836 975.068359 256.015625 977.050781 254.033203 980.024414 C 253.041992 982.998047 252.050781 985.97168 251.05957 988.945312 C 250.068359 993.051758 248.935547 996.025391 247.944336 999.990234 C 247.944336 1002.963867 246.953125 1007.070312 246.953125 1010.043945 C 246.953125 1013.017578 245.961914 1016.982422 245.961914 1019.956055 C 245.961914 1022.929687 246.953125 1027.036133 246.953125 1030.009766 Z M 246.953125 1030.009766 " transform="matrix(0.0275862, 0, 0, 0.0275862, 0, 0)"/>
<path fill-rule="nonzero" fill="rgb(0%, 0%, 100%)" fill-opacity="1" d="M 8.9375 8.910156 C 8.9375 8.773438 8.964844 8.632812 8.964844 8.496094 C 8.964844 8.359375 8.992188 8.21875 8.992188 8.082031 C 9.019531 7.945312 9.019531 7.835938 9.046875 7.695312 C 9.074219 7.558594 9.074219 7.449219 9.101562 7.308594 C 9.132812 7.171875 9.160156 7.035156 9.1875 6.898438 C 9.242188 6.785156 9.269531 6.648438 9.324219 6.539062 C 9.351562 6.398438 9.40625 6.289062 9.433594 6.152344 C 9.488281 6.042969 9.542969 5.902344 9.601562 5.792969 C 9.65625 5.683594 9.710938 5.542969 9.765625 5.433594 C 9.820312 5.324219 9.875 5.214844 9.929688 5.101562 C 9.984375 4.992188 10.070312 4.882812 10.125 4.773438 C 10.207031 4.660156 10.261719 4.550781 10.34375 4.441406 C 10.425781 4.332031 10.484375 4.25 10.566406 4.136719 C 10.648438 4.027344 10.730469 3.917969 10.8125 3.808594 C 10.898438 3.722656 11.007812 3.613281 11.089844 3.53125 C 11.171875 3.449219 11.28125 3.339844 11.367188 3.253906 C 11.449219 3.171875 11.558594 3.089844 11.640625 3.007812 C 11.75 2.925781 11.835938 2.839844 11.945312 2.757812 C 12.054688 2.675781 12.136719 2.59375 12.25 2.511719 C 12.359375 2.425781 12.46875 2.371094 12.578125 2.289062 C 12.691406 2.234375 12.773438 2.152344 12.882812 2.097656 C 12.992188 2.042969 13.132812 1.957031 13.242188 1.902344 C 13.351562 1.847656 13.488281 1.792969 13.601562 1.738281 C 13.710938 1.683594 13.847656 1.628906 13.957031 1.574219 C 14.070312 1.515625 14.207031 1.488281 14.316406 1.433594 C 14.457031 1.378906 14.59375 1.351562 14.730469 1.296875 C 14.839844 1.269531 14.980469 1.214844 15.089844 1.1875 C 15.226562 1.160156 15.367188 1.132812 15.503906 1.101562 C 15.640625 1.074219 15.78125 1.046875 15.917969 1.019531 C 16.054688 1.019531 16.191406 0.992188 16.332031 0.992188 C 16.46875 0.964844 16.578125 0.964844 16.71875 0.9375 C 16.855469 0.9375 17.019531 0.9375 17.160156 0.9375 C 17.296875 0.9375 17.433594 0.9375 17.574219 0.9375 C 17.710938 0.9375 17.847656 0.964844 17.984375 0.964844 C 18.125 0.992188 18.261719 0.992188 18.398438 1.019531 C 18.539062 1.046875 18.675781 1.074219 18.8125 1.101562 C 18.953125 1.132812 19.0625 1.160156 19.199219 1.1875 C 19.339844 1.214844 19.476562 1.269531 19.613281 1.296875 C 19.722656 1.324219 19.863281 1.378906 19.972656 1.40625 C 20.082031 1.460938 20.21875 1.488281 20.332031 1.542969 C 20.46875 1.601562 20.578125 1.65625 20.71875 1.710938 C 20.828125 1.765625 20.964844 1.820312 21.074219 1.875 C 21.1875 1.929688 21.296875 2.015625 21.40625 2.070312 C 21.515625 2.152344 21.65625 2.207031 21.765625 2.289062 C 21.875 2.34375 21.984375 2.425781 22.097656 2.484375 C 22.207031 2.566406 22.289062 2.648438 22.398438 2.730469 C 22.511719 2.8125 22.59375 2.898438 22.703125 2.980469 C 22.785156 3.0625 22.898438 3.144531 22.980469 3.226562 C 23.0625 3.308594 23.171875 3.421875 23.253906 3.503906 C 23.339844 3.613281 23.421875 3.695312 23.503906 3.808594 C 23.585938 3.917969 23.667969 4 23.75 4.109375 C 23.835938 4.21875 23.917969 4.304688 24 4.414062 C 24.054688 4.523438 24.136719 4.632812 24.191406 4.746094 C 24.25 4.855469 24.332031 4.964844 24.386719 5.074219 C 24.46875 5.1875 24.523438 5.324219 24.605469 5.433594 C 24.660156 5.542969 24.691406 5.65625 24.746094 5.765625 C 24.800781 5.875 24.828125 6.015625 24.882812 6.125 C 24.9375 6.234375 24.992188 6.371094 25.046875 6.484375 C 25.074219 6.621094 25.132812 6.757812 25.160156 6.898438 C 25.1875 7.007812 25.214844 7.144531 25.242188 7.253906 C 25.269531 7.394531 25.296875 7.503906 25.324219 7.640625 C 25.324219 7.78125 25.351562 7.917969 25.351562 8.054688 C 25.378906 8.191406 25.378906 8.332031 25.40625 8.46875 C 25.40625 8.605469 25.40625 8.71875 25.40625 8.855469 C 25.40625 8.992188 25.40625 9.132812 25.40625 9.269531 C 25.378906 9.40625 25.378906 9.542969 25.351562 9.683594 C 25.351562 9.820312 25.324219 9.957031 25.324219 10.097656 C 25.296875 10.234375 25.269531 10.34375 25.242188 10.484375 C 25.214844 10.59375 25.1875 10.730469 25.160156 10.839844 C 25.132812 10.980469 25.074219 11.089844 25.046875 11.226562 C 24.992188 11.339844 24.964844 11.476562 24.910156 11.585938 C 24.855469 11.722656 24.800781 11.835938 24.746094 11.972656 C 24.691406 12.082031 24.660156 12.21875 24.605469 12.332031 C 24.550781 12.441406 24.496094 12.550781 24.441406 12.660156 C 24.359375 12.773438 24.304688 12.910156 24.21875 13.019531 C 24.136719 13.132812 24.082031 13.214844 24 13.324219 C 23.917969 13.433594 23.863281 13.542969 23.78125 13.65625 C 23.695312 13.738281 23.613281 13.847656 23.53125 13.929688 C 23.449219 14.042969 23.367188 14.125 23.28125 14.234375 C 23.171875 14.316406 23.089844 14.425781 22.980469 14.511719 C 22.898438 14.59375 22.785156 14.675781 22.703125 14.757812 C 22.59375 14.839844 22.511719 14.925781 22.398438 15.007812 C 22.289062 15.089844 22.207031 15.171875 22.097656 15.253906 C 21.984375 15.339844 21.902344 15.394531 21.792969 15.476562 C 21.683594 15.558594 21.574219 15.613281 21.460938 15.695312 C 21.351562 15.75 21.214844 15.808594 21.101562 15.863281 C 20.992188 15.917969 20.882812 15.972656 20.773438 16.027344 C 20.632812 16.082031 20.523438 16.136719 20.386719 16.191406 C 20.277344 16.25 20.136719 16.304688 20.027344 16.359375 C 19.890625 16.386719 19.75 16.441406 19.613281 16.46875 C 19.503906 16.496094 19.367188 16.550781 19.253906 16.578125 C 19.117188 16.605469 19.007812 16.632812 18.867188 16.660156 C 18.730469 16.691406 18.566406 16.71875 18.425781 16.746094 C 18.289062 16.773438 18.152344 16.773438 18.015625 16.800781 C 17.875 16.800781 17.738281 16.828125 17.601562 16.828125 C 17.460938 16.828125 17.324219 16.828125 17.1875 16.828125 C 17.046875 16.828125 16.910156 16.828125 16.773438 16.828125 C 16.632812 16.828125 16.496094 16.800781 16.359375 16.800781 C 16.21875 16.773438 16.082031 16.773438 15.945312 16.746094 C 15.808594 16.71875 15.667969 16.71875 15.53125 16.691406 C 15.394531 16.660156 15.28125 16.605469 15.144531 16.578125 C 15.007812 16.550781 14.898438 16.496094 14.757812 16.46875 C 14.621094 16.441406 14.511719 16.386719 14.371094 16.359375 C 14.261719 16.304688 14.125 16.277344 14.015625 16.21875 C 13.875 16.164062 13.765625 16.109375 13.628906 16.054688 C 13.515625 16 13.40625 15.945312 13.296875 15.890625 C 13.1875 15.835938 13.046875 15.75 12.9375 15.695312 C 12.828125 15.640625 12.691406 15.558594 12.578125 15.503906 C 12.46875 15.421875 12.386719 15.339844 12.277344 15.253906 C 12.164062 15.171875 12.082031 15.117188 11.972656 15.035156 C 11.863281 14.953125 11.78125 14.867188 11.667969 14.785156 C 11.585938 14.703125 11.476562 14.59375 11.394531 14.511719 C 11.28125 14.425781 11.199219 14.316406 11.089844 14.234375 C 11.007812 14.152344 10.925781 14.042969 10.839844 13.957031 C 10.757812 13.847656 10.675781 13.765625 10.59375 13.65625 C 10.511719 13.542969 10.457031 13.460938 10.371094 13.351562 C 10.289062 13.242188 10.234375 13.160156 10.152344 13.046875 C 10.097656 12.9375 10.015625 12.800781 9.957031 12.691406 C 9.902344 12.578125 9.847656 12.46875 9.792969 12.359375 C 9.738281 12.25 9.65625 12.136719 9.601562 12.027344 C 9.542969 11.890625 9.515625 11.78125 9.460938 11.640625 C 9.40625 11.53125 9.378906 11.394531 9.324219 11.28125 C 9.269531 11.144531 9.242188 11.035156 9.1875 10.898438 C 9.160156 10.785156 9.132812 10.648438 9.101562 10.539062 C 9.074219 10.398438 9.074219 10.261719 9.046875 10.125 C 9.019531 9.984375 9.019531 9.847656 8.992188 9.710938 C 8.992188 9.574219 8.964844 9.460938 8.964844 9.324219 C 8.964844 9.1875 8.9375 9.046875 8.9375 8.910156 Z M 10.511719 9.214844 C 10.511719 9.324219 10.539062 9.40625 10.539062 9.515625 C 10.566406 9.628906 10.566406 9.710938 10.59375 9.820312 C 10.621094 9.929688 10.621094 10.015625 10.648438 10.125 C 10.675781 10.234375 10.703125 10.34375 10.730469 10.457031 C 10.757812 10.566406 10.785156 10.648438 10.8125 10.757812 C 10.839844 10.839844 10.898438 10.953125 10.925781 11.035156 C 10.953125 11.144531 11.007812 11.226562 11.035156 11.339844 C 11.089844 11.421875 11.117188 11.53125 11.171875 11.613281 C 11.226562 11.695312 11.253906 11.808594 11.308594 11.890625 C 11.367188 11.972656 11.421875 12.082031 11.476562 12.164062 C 11.53125 12.25 11.585938 12.359375 11.640625 12.441406 C 11.695312 12.523438 11.78125 12.578125 11.835938 12.660156 C 11.890625 12.746094 11.945312 12.828125 12 12.910156 C 12.082031 12.992188 12.136719 13.074219 12.21875 13.160156 C 12.304688 13.242188 12.359375 13.296875 12.441406 13.378906 C 12.523438 13.433594 12.605469 13.515625 12.691406 13.574219 C 12.773438 13.65625 12.828125 13.710938 12.910156 13.792969 C 12.992188 13.847656 13.074219 13.902344 13.160156 13.957031 C 13.242188 14.015625 13.351562 14.097656 13.433594 14.152344 C 13.515625 14.207031 13.628906 14.261719 13.710938 14.316406 C 13.792969 14.371094 13.902344 14.425781 13.984375 14.484375 C 14.070312 14.539062 14.179688 14.566406 14.261719 14.621094 C 14.371094 14.648438 14.457031 14.703125 14.566406 14.730469 C 14.675781 14.785156 14.757812 14.8125 14.867188 14.867188 C 14.980469 14.898438 15.0625 14.925781 15.171875 14.953125 C 15.28125 14.980469 15.394531 15.035156 15.503906 15.0625 C 15.613281 15.089844 15.695312 15.089844 15.808594 15.117188 C 15.917969 15.144531 16.027344 15.144531 16.136719 15.171875 C 16.25 15.199219 16.359375 15.199219 16.46875 15.226562 C 16.578125 15.226562 16.71875 15.253906 16.828125 15.253906 C 16.9375 15.253906 17.046875 15.253906 17.160156 15.253906 C 17.269531 15.253906 17.40625 15.253906 17.515625 15.253906 C 17.628906 15.253906 17.738281 15.226562 17.847656 15.226562 C 17.957031 15.199219 18.070312 15.199219 18.179688 15.171875 C 18.289062 15.144531 18.398438 15.144531 18.511719 15.117188 C 18.621094 15.089844 18.730469 15.089844 18.839844 15.0625 C 18.953125 15.035156 19.035156 14.980469 19.144531 14.953125 C 19.253906 14.925781 19.367188 14.898438 19.476562 14.867188 C 19.558594 14.839844 19.667969 14.785156 19.75 14.757812 C 19.863281 14.730469 19.945312 14.675781 20.054688 14.648438 C 20.136719 14.59375 20.25 14.566406 20.332031 14.511719 C 20.441406 14.457031 20.523438 14.398438 20.632812 14.34375 C 20.71875 14.289062 20.828125 14.234375 20.910156 14.179688 C 20.992188 14.125 21.074219 14.042969 21.160156 13.984375 C 21.242188 13.929688 21.324219 13.847656 21.40625 13.792969 C 21.488281 13.738281 21.574219 13.683594 21.65625 13.628906 C 21.738281 13.542969 21.792969 13.488281 21.875 13.40625 C 21.957031 13.324219 22.015625 13.269531 22.097656 13.1875 C 22.152344 13.101562 22.234375 13.019531 22.289062 12.9375 C 22.371094 12.855469 22.425781 12.800781 22.511719 12.71875 C 22.566406 12.632812 22.648438 12.550781 22.703125 12.46875 C 22.757812 12.386719 22.8125 12.277344 22.867188 12.191406 C 22.925781 12.109375 22.953125 12 23.007812 11.917969 C 23.0625 11.835938 23.117188 11.75 23.171875 11.667969 C 23.226562 11.558594 23.253906 11.476562 23.308594 11.367188 C 23.339844 11.28125 23.394531 11.171875 23.421875 11.089844 C 23.449219 10.980469 23.503906 10.898438 23.53125 10.785156 C 23.558594 10.675781 23.585938 10.59375 23.613281 10.484375 C 23.640625 10.371094 23.667969 10.289062 23.695312 10.179688 C 23.722656 10.070312 23.722656 9.984375 23.75 9.875 C 23.78125 9.765625 23.78125 9.65625 23.808594 9.542969 C 23.808594 9.433594 23.835938 9.351562 23.835938 9.242188 C 23.835938 9.132812 23.835938 9.019531 23.835938 8.910156 C 23.835938 8.800781 23.835938 8.691406 23.835938 8.578125 C 23.835938 8.46875 23.808594 8.359375 23.808594 8.25 C 23.78125 8.136719 23.78125 8.027344 23.75 7.917969 C 23.75 7.808594 23.722656 7.722656 23.722656 7.613281 C 23.695312 7.53125 23.667969 7.421875 23.640625 7.339844 C 23.613281 7.226562 23.585938 7.144531 23.558594 7.035156 C 23.503906 6.925781 23.476562 6.839844 23.421875 6.730469 C 23.394531 6.621094 23.339844 6.539062 23.308594 6.425781 C 23.28125 6.34375 23.226562 6.234375 23.199219 6.152344 C 23.144531 6.070312 23.089844 5.957031 23.035156 5.875 C 22.980469 5.792969 22.925781 5.683594 22.867188 5.601562 C 22.8125 5.515625 22.757812 5.433594 22.703125 5.351562 C 22.648438 5.269531 22.59375 5.1875 22.539062 5.101562 C 22.484375 5.019531 22.398438 4.9375 22.34375 4.855469 C 22.261719 4.773438 22.207031 4.71875 22.125 4.632812 C 22.042969 4.550781 21.984375 4.46875 21.902344 4.386719 C 21.820312 4.332031 21.738281 4.25 21.65625 4.191406 C 21.574219 4.109375 21.515625 4.054688 21.433594 3.972656 C 21.351562 3.917969 21.269531 3.863281 21.1875 3.808594 C 21.101562 3.75 21.019531 3.667969 20.9375 3.613281 C 20.828125 3.558594 20.746094 3.503906 20.632812 3.449219 C 20.550781 3.394531 20.441406 3.339844 20.359375 3.28125 C 20.277344 3.226562 20.164062 3.199219 20.082031 3.144531 C 19.972656 3.117188 19.890625 3.0625 19.78125 3.035156 C 19.667969 3.007812 19.585938 2.953125 19.476562 2.925781 C 19.367188 2.867188 19.28125 2.839844 19.171875 2.785156 C 19.0625 2.757812 18.980469 2.757812 18.867188 2.730469 C 18.757812 2.703125 18.675781 2.675781 18.566406 2.648438 C 18.457031 2.621094 18.316406 2.621094 18.207031 2.59375 C 18.097656 2.566406 17.984375 2.566406 17.875 2.539062 C 17.765625 2.539062 17.65625 2.511719 17.542969 2.511719 C 17.433594 2.511719 17.296875 2.511719 17.1875 2.511719 C 17.074219 2.511719 16.9375 2.511719 16.828125 2.511719 C 16.71875 2.511719 16.632812 2.539062 16.523438 2.539062 C 16.414062 2.566406 16.304688 2.566406 16.191406 2.59375 C 16.082031 2.59375 15.945312 2.621094 15.835938 2.621094 C 15.722656 2.648438 15.613281 2.675781 15.503906 2.703125 C 15.394531 2.730469 15.308594 2.757812 15.199219 2.785156 C 15.089844 2.8125 15.007812 2.867188 14.898438 2.898438 C 14.785156 2.925781 14.703125 2.980469 14.59375 3.007812 C 14.484375 3.0625 14.398438 3.089844 14.289062 3.144531 C 14.207031 3.199219 14.097656 3.226562 14.015625 3.28125 C 13.929688 3.339844 13.820312 3.367188 13.738281 3.421875 C 13.65625 3.476562 13.542969 3.558594 13.460938 3.613281 C 13.378906 3.667969 13.269531 3.722656 13.1875 3.78125 C 13.101562 3.835938 13.019531 3.890625 12.9375 3.945312 C 12.855469 4.027344 12.800781 4.082031 12.71875 4.164062 C 12.632812 4.25 12.550781 4.304688 12.46875 4.386719 C 12.386719 4.46875 12.332031 4.523438 12.25 4.605469 C 12.164062 4.691406 12.109375 4.746094 12.027344 4.828125 C 11.972656 4.910156 11.890625 4.992188 11.835938 5.074219 C 11.78125 5.160156 11.722656 5.242188 11.667969 5.324219 C 11.613281 5.40625 11.558594 5.488281 11.503906 5.574219 C 11.449219 5.65625 11.394531 5.765625 11.339844 5.847656 C 11.28125 5.929688 11.226562 6.042969 11.171875 6.125 C 11.144531 6.207031 11.089844 6.316406 11.0625 6.398438 C 11.007812 6.484375 10.980469 6.59375 10.925781 6.675781 C 10.898438 6.785156 10.839844 6.867188 10.8125 6.980469 C 10.785156 7.089844 10.757812 7.171875 10.730469 7.28125 C 10.703125 7.394531 10.675781 7.476562 10.648438 7.585938 C 10.648438 7.695312 10.621094 7.808594 10.621094 7.917969 C 10.59375 8.027344 10.566406 8.109375 10.539062 8.21875 C 10.539062 8.332031 10.511719 8.414062 10.511719 8.523438 C 10.511719 8.632812 10.511719 8.746094 10.511719 8.855469 C 10.511719 8.964844 10.511719 9.101562 10.511719 9.214844 Z M 10.511719 9.214844 "/>
<path fill="none" stroke-width="1" stroke-linecap="butt" stroke-linejoin="miter" stroke="rgb(0%, 0%, 100%)" stroke-opacity="1" stroke-miterlimit="4" d="M 323.984375 322.993164 C 323.984375 318.037109 324.975586 312.939453 324.975586 307.983398 C 324.975586 303.027344 325.966797 297.929687 325.966797 292.973633 C 326.958008 288.017578 326.958008 284.052734 327.949219 278.955078 C 328.94043 273.999023 328.94043 270.03418 329.931641 264.936523 C 331.064453 259.980469 332.055664 255.024414 333.046875 250.068359 C 335.029297 245.961914 336.020508 241.005859 338.00293 237.041016 C 338.994141 231.943359 340.976562 227.978516 341.967773 223.022461 C 343.950195 219.057617 345.932617 213.959961 348.056641 209.995117 C 350.039062 206.030273 352.021484 200.932617 354.003906 196.967773 C 355.986328 193.00293 357.96875 189.038086 359.951172 184.931641 C 361.933594 180.966797 365.048828 177.001953 367.03125 173.037109 C 370.004883 168.930664 371.987305 164.96582 374.960937 161.000977 C 377.93457 157.036133 380.058594 154.0625 383.032227 149.956055 C 386.005859 145.991211 388.979492 142.026367 391.953125 138.061523 C 395.068359 134.946289 399.033203 130.981445 402.006836 128.007812 C 404.980469 125.03418 408.945312 121.069336 412.060547 117.954102 C 415.03418 114.980469 418.999023 112.006836 421.972656 109.033203 C 425.9375 106.05957 429.052734 102.944336 433.017578 99.970703 C 436.982422 96.99707 439.956055 94.023437 444.0625 91.049805 C 448.027344 87.93457 451.992187 85.952148 455.957031 82.978516 C 460.063477 80.996094 463.037109 78.022461 467.001953 76.040039 C 470.966797 74.057617 476.064453 70.942383 480.029297 68.959961 C 483.994141 66.977539 488.950195 64.995117 493.056641 63.012695 C 497.021484 61.030273 501.977539 59.047852 505.942383 57.06543 C 510.048828 54.941406 515.004883 53.950195 518.969727 51.967773 C 524.067383 49.985352 529.023437 48.994141 533.979492 47.011719 C 537.944336 46.020508 543.041992 44.038086 547.006836 43.046875 C 551.962891 42.055664 557.060547 41.064453 562.016602 39.931641 C 566.972656 38.94043 572.070312 37.949219 577.026367 36.958008 C 581.982422 36.958008 586.938477 35.966797 592.036133 35.966797 C 596.992187 34.975586 600.957031 34.975586 606.054687 33.984375 C 611.010742 33.984375 616.958008 33.984375 622.055664 33.984375 C 627.011719 33.984375 631.967773 33.984375 637.06543 33.984375 C 642.021484 33.984375 646.977539 34.975586 651.933594 34.975586 C 657.03125 35.966797 661.987305 35.966797 666.943359 36.958008 C 672.041016 37.949219 676.99707 38.94043 681.953125 39.931641 C 687.050781 41.064453 691.015625 42.055664 695.97168 43.046875 C 701.069336 44.038086 706.025391 46.020508 710.981445 47.011719 C 714.946289 48.00293 720.043945 49.985352 724.008789 50.976562 C 727.973633 52.958984 732.929687 53.950195 737.036133 55.932617 C 741.992187 58.056641 745.957031 60.039062 751.054687 62.021484 C 755.019531 64.003906 759.975586 65.986328 763.94043 67.96875 C 768.046875 69.951172 772.011719 73.066406 775.976562 75.048828 C 779.941406 78.022461 785.039062 80.004883 789.003906 82.978516 C 792.96875 84.960937 796.933594 87.93457 801.040039 90.058594 C 805.004883 93.032227 807.978516 96.005859 811.943359 98.979492 C 816.049805 101.953125 819.023437 105.068359 822.988281 108.041992 C 825.961914 111.015625 830.068359 113.989258 833.041992 116.962891 C 836.015625 119.936523 839.980469 124.042969 842.954102 127.016602 C 846.069336 130.981445 849.042969 133.955078 852.016602 138.061523 C 854.990234 142.026367 857.963867 145 860.9375 148.964844 C 864.052734 152.929687 867.026367 156.044922 870 160.009766 C 871.982422 163.974609 874.956055 167.939453 876.938477 172.045898 C 879.0625 176.010742 882.036133 179.975586 884.018555 183.94043 C 886.992187 188.046875 888.974609 193.00293 891.948242 196.967773 C 893.930664 200.932617 895.063477 205.039062 897.045898 209.003906 C 899.02832 212.96875 900.019531 218.066406 902.001953 222.03125 C 903.984375 225.996094 905.966797 230.952148 907.949219 235.058594 C 908.94043 240.014648 911.064453 244.970703 912.055664 250.068359 C 913.046875 254.033203 914.038086 258.989258 915.029297 262.954102 C 916.020508 268.051758 917.011719 272.016602 918.00293 276.972656 C 918.00293 282.070312 918.994141 287.026367 918.994141 291.982422 C 919.985352 296.938477 919.985352 302.036133 920.976562 306.992187 C 920.976562 311.948242 920.976562 316.054687 920.976562 321.010742 C 920.976562 325.966797 920.976562 331.064453 920.976562 336.020508 C 919.985352 340.976562 919.985352 345.932617 918.994141 351.030273 C 918.994141 355.986328 918.00293 360.942383 918.00293 366.040039 C 917.011719 370.996094 916.020508 374.960937 915.029297 380.058594 C 914.038086 384.023437 913.046875 388.979492 912.055664 392.944336 C 911.064453 398.041992 908.94043 402.006836 907.949219 406.962891 C 905.966797 411.069336 904.975586 416.025391 902.993164 419.990234 C 901.010742 424.946289 899.02832 429.052734 897.045898 434.008789 C 895.063477 437.973633 893.930664 442.929687 891.948242 447.036133 C 889.96582 451.000977 887.983398 454.96582 886.000977 458.930664 C 883.027344 463.037109 881.044922 467.993164 877.929687 471.958008 C 874.956055 476.064453 872.973633 479.038086 870 483.00293 C 867.026367 486.967773 865.043945 490.932617 862.070312 495.039062 C 858.955078 498.012695 855.981445 501.977539 853.007812 504.951172 C 850.03418 509.057617 847.060547 512.03125 843.945312 515.996094 C 839.980469 518.969727 837.006836 522.93457 833.041992 526.049805 C 830.068359 529.023437 825.961914 531.99707 822.988281 534.970703 C 819.023437 537.944336 816.049805 541.05957 811.943359 544.033203 C 807.978516 547.006836 805.004883 549.980469 801.040039 552.954102 C 796.933594 556.069336 793.959961 558.051758 789.995117 561.025391 C 786.030273 563.999023 782.06543 565.981445 777.958984 568.955078 C 773.994141 570.9375 769.038086 573.061523 764.931641 575.043945 C 760.966797 577.026367 757.001953 579.008789 753.037109 580.991211 C 747.939453 582.973633 743.974609 584.956055 739.018555 586.938477 C 735.053711 589.0625 729.956055 591.044922 725.991211 593.027344 C 721.035156 594.018555 715.9375 596.000977 710.981445 596.992187 C 707.016602 597.983398 702.060547 599.96582 697.954102 600.957031 C 692.998047 601.948242 689.033203 602.939453 683.935547 603.930664 C 678.979492 605.063477 673.032227 606.054687 667.93457 607.045898 C 662.978516 608.037109 658.022461 608.037109 653.066406 609.02832 C 647.96875 609.02832 643.012695 610.019531 638.056641 610.019531 C 632.958984 610.019531 628.00293 610.019531 623.046875 610.019531 C 617.949219 610.019531 612.993164 610.019531 608.037109 610.019531 C 602.939453 610.019531 597.983398 609.02832 593.027344 609.02832 C 587.929687 608.037109 582.973633 608.037109 578.017578 607.045898 C 573.061523 606.054687 567.963867 606.054687 563.007812 605.063477 C 558.051758 603.930664 553.945312 601.948242 548.989258 600.957031 C 544.033203 599.96582 540.068359 597.983398 534.970703 596.992187 C 530.014648 596.000977 526.049805 594.018555 520.952148 593.027344 C 516.987305 591.044922 512.03125 590.053711 508.066406 587.929687 C 502.96875 585.947266 499.003906 583.964844 494.047852 581.982422 C 489.941406 580 485.976562 578.017578 482.011719 576.035156 C 478.046875 574.052734 472.949219 570.9375 468.984375 568.955078 C 465.019531 566.972656 460.063477 563.999023 455.957031 562.016602 C 451.992187 559.042969 449.018555 556.069336 445.053711 552.954102 C 440.947266 549.980469 437.973633 547.998047 434.008789 545.024414 C 430.043945 542.050781 427.070312 538.935547 422.963867 535.961914 C 419.990234 532.988281 416.025391 529.023437 413.051758 526.049805 C 408.945312 522.93457 405.97168 518.969727 402.006836 515.996094 C 399.033203 513.022461 396.05957 509.057617 392.944336 505.942383 C 389.970703 501.977539 386.99707 499.003906 384.023437 495.039062 C 381.049805 490.932617 379.067383 487.958984 375.952148 483.994141 C 372.978516 480.029297 370.996094 477.055664 368.022461 472.949219 C 366.040039 468.984375 363.066406 464.02832 360.942383 460.063477 C 358.959961 455.957031 356.977539 451.992187 354.995117 448.027344 C 353.012695 444.0625 350.039062 439.956055 348.056641 435.991211 C 345.932617 431.035156 344.941406 427.070312 342.958984 421.972656 C 340.976562 418.007812 339.985352 413.051758 338.00293 408.945312 C 336.020508 403.989258 335.029297 400.024414 333.046875 395.068359 C 332.055664 390.961914 331.064453 386.005859 329.931641 382.041016 C 328.94043 376.943359 328.94043 371.987305 327.949219 367.03125 C 326.958008 361.933594 326.958008 356.977539 325.966797 352.021484 C 325.966797 347.06543 324.975586 342.958984 324.975586 338.00293 C 324.975586 333.046875 323.984375 327.949219 323.984375 322.993164 Z M 323.984375 322.993164 " transform="matrix(0.0275862, 0, 0, 0.0275862, 0, 0)"/>
<path fill="none" stroke-width="1" stroke-linecap="butt" stroke-linejoin="miter" stroke="rgb(0%, 0%, 100%)" stroke-opacity="1" stroke-miterlimit="4" d="M 381.049805 334.038086 C 381.049805 338.00293 382.041016 340.976562 382.041016 344.941406 C 383.032227 349.047852 383.032227 352.021484 384.023437 355.986328 C 385.014648 359.951172 385.014648 363.066406 386.005859 367.03125 C 386.99707 370.996094 387.988281 374.960937 388.979492 379.067383 C 389.970703 383.032227 390.961914 386.005859 391.953125 389.970703 C 392.944336 392.944336 395.068359 397.050781 396.05957 400.024414 C 397.050781 403.989258 399.033203 406.962891 400.024414 411.069336 C 402.006836 414.042969 402.998047 418.007812 404.980469 420.981445 C 406.962891 423.955078 407.954102 428.061523 409.936523 431.035156 C 412.060547 434.008789 414.042969 437.973633 416.025391 440.947266 C 418.007812 444.0625 419.990234 448.027344 421.972656 451.000977 C 423.955078 453.974609 427.070312 455.957031 429.052734 458.930664 C 431.035156 462.045898 433.017578 465.019531 435 467.993164 C 437.973633 470.966797 439.956055 473.94043 442.929687 477.055664 C 446.044922 480.029297 448.027344 482.011719 451.000977 484.985352 C 453.974609 486.967773 456.948242 489.941406 460.063477 492.06543 C 463.037109 495.039062 465.019531 497.021484 467.993164 499.995117 C 470.966797 501.977539 473.94043 503.959961 477.055664 505.942383 C 480.029297 508.066406 483.994141 511.040039 486.967773 513.022461 C 489.941406 515.004883 494.047852 516.987305 497.021484 518.969727 C 499.995117 520.952148 503.959961 522.93457 506.933594 525.058594 C 510.048828 527.041016 514.013672 528.032227 516.987305 530.014648 C 520.952148 531.005859 524.067383 532.988281 528.032227 533.979492 C 531.99707 535.961914 534.970703 536.953125 538.935547 538.935547 C 543.041992 540.068359 546.015625 541.05957 549.980469 542.050781 C 553.945312 543.041992 558.051758 545.024414 562.016602 546.015625 C 565.981445 547.006836 568.955078 547.006836 573.061523 547.998047 C 577.026367 548.989258 580.991211 548.989258 584.956055 549.980469 C 589.0625 550.97168 593.027344 550.97168 596.992187 551.962891 C 600.957031 551.962891 606.054687 552.954102 610.019531 552.954102 C 613.984375 552.954102 617.949219 552.954102 622.055664 552.954102 C 626.020508 552.954102 630.976562 552.954102 634.941406 552.954102 C 639.047852 552.954102 643.012695 551.962891 646.977539 551.962891 C 650.942383 550.97168 655.048828 550.97168 659.013672 549.980469 C 662.978516 548.989258 666.943359 548.989258 671.049805 547.998047 C 675.014648 547.006836 678.979492 547.006836 682.944336 546.015625 C 687.050781 545.024414 690.024414 543.041992 693.989258 542.050781 C 697.954102 541.05957 702.060547 540.068359 706.025391 538.935547 C 708.999023 537.944336 712.963867 535.961914 715.9375 534.970703 C 720.043945 533.979492 723.017578 531.99707 726.982422 531.005859 C 729.956055 529.023437 734.0625 528.032227 737.036133 526.049805 C 741.000977 524.067383 743.974609 521.943359 747.939453 519.960937 C 751.054687 517.978516 755.019531 515.996094 757.993164 514.013672 C 760.966797 512.03125 763.94043 509.057617 767.055664 506.933594 C 770.029297 504.951172 773.00293 501.977539 775.976562 499.995117 C 778.950195 498.012695 782.06543 496.030273 785.039062 494.047852 C 788.012695 490.932617 789.995117 488.950195 792.96875 485.976562 C 795.942383 483.00293 798.066406 481.020508 801.040039 478.046875 C 803.022461 474.931641 805.996094 471.958008 807.978516 468.984375 C 810.952148 466.010742 812.93457 464.02832 816.049805 461.054687 C 818.032227 457.939453 821.005859 454.96582 822.988281 451.992187 C 824.970703 449.018555 826.953125 445.053711 828.935547 441.938477 C 831.05957 438.964844 832.050781 435 834.033203 432.026367 C 836.015625 429.052734 837.998047 425.9375 839.980469 422.963867 C 841.962891 418.999023 842.954102 416.025391 844.936523 412.060547 C 846.069336 408.945312 848.051758 404.980469 849.042969 402.006836 C 850.03418 398.041992 852.016602 395.068359 853.007812 390.961914 C 853.999023 386.99707 854.990234 384.023437 855.981445 380.058594 C 856.972656 375.952148 857.963867 372.978516 858.955078 369.013672 C 859.946289 365.048828 859.946289 361.933594 860.9375 357.96875 C 862.070312 354.003906 862.070312 350.039062 863.061523 345.932617 C 863.061523 341.967773 864.052734 338.994141 864.052734 335.029297 C 864.052734 331.064453 864.052734 326.958008 864.052734 322.993164 C 864.052734 319.02832 864.052734 315.063477 864.052734 310.957031 C 864.052734 306.992187 863.061523 303.027344 863.061523 299.0625 C 862.070312 294.956055 862.070312 290.991211 860.9375 287.026367 C 860.9375 283.061523 859.946289 279.946289 859.946289 275.981445 C 858.955078 273.007812 857.963867 269.042969 856.972656 266.069336 C 855.981445 261.962891 854.990234 258.989258 853.999023 255.024414 C 852.016602 251.05957 851.025391 247.944336 849.042969 243.979492 C 848.051758 240.014648 846.069336 237.041016 844.936523 232.93457 C 843.945312 229.960937 841.962891 225.996094 840.97168 223.022461 C 838.989258 220.048828 837.006836 215.942383 835.024414 212.96875 C 833.041992 209.995117 831.05957 206.030273 828.935547 203.056641 C 826.953125 199.941406 824.970703 196.967773 822.988281 193.994141 C 821.005859 191.020508 819.023437 188.046875 817.041016 184.931641 C 815.058594 181.958008 811.943359 178.984375 809.960937 176.010742 C 806.987305 173.037109 805.004883 171.054687 802.03125 167.939453 C 799.057617 164.96582 796.933594 161.992187 793.959961 159.018555 C 790.986328 157.036133 788.012695 154.0625 785.039062 151.938477 C 782.06543 148.964844 779.941406 146.982422 776.967773 144.008789 C 773.994141 142.026367 771.020508 140.043945 768.046875 138.061523 C 764.931641 135.9375 761.958008 132.963867 758.984375 130.981445 C 755.019531 128.999023 752.045898 127.016602 747.939453 125.03418 C 744.96582 123.051758 741.000977 121.069336 738.027344 118.945312 C 735.053711 116.962891 730.947266 115.97168 727.973633 113.989258 C 724.008789 112.998047 721.035156 111.015625 717.070312 110.024414 C 712.963867 109.033203 709.990234 107.050781 706.025391 106.05957 C 702.060547 103.935547 698.945312 102.944336 694.980469 100.961914 C 691.015625 99.970703 688.041992 99.970703 683.935547 98.979492 C 679.970703 97.988281 676.99707 96.99707 673.032227 96.005859 C 669.067383 95.014648 663.969727 95.014648 660.004883 94.023437 C 656.040039 93.032227 651.933594 93.032227 647.96875 92.041016 C 644.003906 92.041016 640.039062 91.049805 635.932617 91.049805 C 631.967773 91.049805 627.011719 91.049805 623.046875 91.049805 C 618.94043 91.049805 613.984375 91.049805 610.019531 91.049805 C 606.054687 91.049805 602.939453 92.041016 598.974609 92.041016 C 595.009766 93.032227 591.044922 93.032227 586.938477 94.023437 C 582.973633 94.023437 578.017578 95.014648 574.052734 95.014648 C 569.946289 96.005859 565.981445 96.99707 562.016602 97.988281 C 558.051758 98.979492 554.936523 99.970703 550.97168 100.961914 C 547.006836 101.953125 544.033203 103.935547 540.068359 105.068359 C 535.961914 106.05957 532.988281 108.041992 529.023437 109.033203 C 525.058594 111.015625 521.943359 112.006836 517.978516 113.989258 C 515.004883 115.97168 511.040039 116.962891 508.066406 118.945312 C 504.951172 121.069336 500.986328 122.060547 498.012695 124.042969 C 495.039062 126.025391 490.932617 128.999023 487.958984 130.981445 C 484.985352 132.963867 481.020508 134.946289 478.046875 137.070312 C 474.931641 139.052734 471.958008 141.035156 468.984375 143.017578 C 466.010742 145.991211 464.02832 147.973633 461.054687 150.947266 C 457.939453 154.0625 454.96582 156.044922 451.992187 159.018555 C 449.018555 161.992187 447.036133 163.974609 444.0625 166.948242 C 440.947266 170.063477 438.964844 172.045898 435.991211 175.019531 C 434.008789 177.993164 431.035156 180.966797 429.052734 183.94043 C 427.070312 187.055664 424.946289 190.029297 422.963867 193.00293 C 420.981445 195.976562 418.999023 198.950195 417.016602 202.06543 C 415.03418 205.039062 413.051758 209.003906 411.069336 211.977539 C 408.945312 214.951172 406.962891 219.057617 404.980469 222.03125 C 403.989258 225.004883 402.006836 228.969727 401.015625 231.943359 C 399.033203 235.058594 398.041992 239.023437 396.05957 241.99707 C 395.068359 245.961914 392.944336 248.935547 391.953125 253.041992 C 390.961914 257.006836 389.970703 259.980469 388.979492 263.945312 C 387.988281 268.051758 386.99707 271.025391 386.005859 274.990234 C 386.005859 278.955078 385.014648 283.061523 385.014648 287.026367 C 384.023437 290.991211 383.032227 293.964844 382.041016 297.929687 C 382.041016 302.036133 381.049805 305.009766 381.049805 308.974609 C 381.049805 312.939453 381.049805 317.045898 381.049805 321.010742 C 381.049805 324.975586 381.049805 329.931641 381.049805 334.038086 Z M 381.049805 334.038086 " transform="matrix(0.0275862, 0, 0, 0.0275862, 0, 0)"/>
<path fill-rule="nonzero" fill="rgb(0%, 0%, 100%)" fill-opacity="1" d="M 11.78125 7.0625 L 13.324219 7.0625 C 13.628906 7.0625 13.875 7.089844 14.015625 7.117188 C 14.179688 7.144531 14.316406 7.199219 14.425781 7.28125 C 14.539062 7.339844 14.648438 7.449219 14.730469 7.585938 C 14.8125 7.722656 14.839844 7.890625 14.839844 8.054688 C 14.839844 8.25 14.785156 8.414062 14.703125 8.550781 C 14.59375 8.71875 14.457031 8.828125 14.289062 8.910156 C 14.539062 8.964844 14.730469 9.074219 14.839844 9.269531 C 14.980469 9.433594 15.035156 9.628906 15.035156 9.847656 C 15.035156 10.015625 15.007812 10.207031 14.925781 10.371094 C 14.839844 10.539062 14.730469 10.675781 14.566406 10.757812 C 14.425781 10.867188 14.261719 10.925781 14.042969 10.953125 C 13.902344 10.980469 13.601562 10.980469 13.101562 10.980469 L 11.78125 10.980469 Z M 12.550781 7.722656 L 12.550781 8.632812 L 13.074219 8.632812 C 13.378906 8.632812 13.574219 8.605469 13.65625 8.605469 C 13.792969 8.605469 13.875 8.550781 13.957031 8.46875 C 14.042969 8.386719 14.070312 8.304688 14.070312 8.164062 C 14.070312 8.054688 14.042969 7.945312 13.984375 7.863281 C 13.902344 7.808594 13.820312 7.75 13.683594 7.722656 C 13.601562 7.722656 13.378906 7.722656 13.019531 7.722656 Z M 12.550781 9.269531 L 12.550781 10.316406 L 13.296875 10.316406 C 13.574219 10.316406 13.738281 10.316406 13.820312 10.289062 C 13.929688 10.261719 14.042969 10.234375 14.125 10.152344 C 14.179688 10.070312 14.234375 9.957031 14.234375 9.820312 C 14.234375 9.683594 14.207031 9.601562 14.152344 9.515625 C 14.070312 9.433594 14.015625 9.378906 13.902344 9.324219 C 13.792969 9.296875 13.542969 9.269531 13.1875 9.269531 Z M 12.550781 9.269531 "/>
<path fill-rule="nonzero" fill="rgb(0%, 0%, 100%)" fill-opacity="1" d="M 15.75 10.980469 C 15.75 9.683594 15.75 8.386719 15.75 7.0625 C 16.632812 7.0625 17.515625 7.0625 18.425781 7.0625 C 18.425781 7.28125 18.425781 7.503906 18.425781 7.722656 C 17.792969 7.722656 17.160156 7.722656 16.523438 7.722656 C 16.523438 8.027344 16.523438 8.359375 16.523438 8.660156 C 17.074219 8.660156 17.628906 8.660156 18.152344 8.660156 C 18.152344 8.882812 18.152344 9.101562 18.152344 9.324219 C 17.628906 9.324219 17.074219 9.324219 16.523438 9.324219 C 16.523438 9.875 16.523438 10.425781 16.523438 10.980469 Z M 15.75 10.980469 "/>
<path fill-rule="nonzero" fill="rgb(0%, 0%, 100%)" fill-opacity="1" d="M 19.007812 9.046875 C 19.007812 8.660156 19.0625 8.304688 19.171875 8.054688 C 19.253906 7.835938 19.394531 7.667969 19.53125 7.503906 C 19.695312 7.339844 19.863281 7.226562 20.054688 7.144531 C 20.277344 7.0625 20.578125 7.007812 20.882812 7.007812 C 21.460938 7.007812 21.929688 7.171875 22.261719 7.53125 C 22.621094 7.890625 22.785156 8.386719 22.785156 9.019531 C 22.785156 9.65625 22.621094 10.152344 22.261719 10.511719 C 21.929688 10.867188 21.460938 11.035156 20.910156 11.035156 C 20.304688 11.035156 19.863281 10.867188 19.503906 10.511719 C 19.171875 10.152344 19.007812 9.683594 19.007812 9.046875 Z M 19.808594 9.019531 C 19.808594 9.460938 19.917969 9.792969 20.109375 10.042969 C 20.332031 10.261719 20.578125 10.371094 20.882812 10.371094 C 21.214844 10.371094 21.460938 10.261719 21.683594 10.042969 C 21.875 9.792969 21.957031 9.460938 21.957031 9.019531 C 21.957031 8.550781 21.875 8.21875 21.683594 8 C 21.488281 7.78125 21.214844 7.667969 20.882812 7.667969 C 20.578125 7.667969 20.304688 7.78125 20.109375 8 C 19.917969 8.25 19.808594 8.578125 19.808594 9.019531 Z M 19.808594 9.019531 "/>
</svg>
