<?xml version="1.0" encoding="UTF-8"?>
<svg xmlns="http://www.w3.org/2000/svg" xmlns:xlink="http://www.w3.org/1999/xlink" width="32" height="32" viewBox="0 0 32 32">
<path fill-rule="nonzero" fill="rgb(100%, 0%, 0%)" fill-opacity="1" d="M 17.574219 6.125 C 20.523438 6.484375 22.675781 8.632812 22.425781 10.980469 C 22.152344 13.324219 19.53125 14.925781 16.578125 14.566406 C 19.640625 13.929688 21.351562 11.421875 20.386719 8.9375 C 19.945312 7.78125 18.925781 6.757812 17.574219 6.125 Z M 17.574219 6.125 "/>
<path fill-rule="nonzero" fill="rgb(100%, 0%, 0%)" fill-opacity="1" d="M 18.015625 17.460938 C 19.449219 14.785156 22.289062 13.460938 24.304688 14.59375 C 26.34375 15.667969 26.8125 18.757812 25.378906 21.460938 C 26.070312 18.371094 24.550781 15.75 22.015625 15.640625 C 20.632812 15.585938 19.171875 16.25 18.015625 17.460938 Z M 18.015625 17.460938 "/>
<path fill-rule="nonzero" fill="rgb(100%, 0%, 0%)" fill-opacity="1" d="M 19.640625 13.324219 C 20.21875 12.578125 21.738281 12.441406 23.199219 13.242188 C 23.863281 13.601562 24.359375 14.125 24.9375 14.898438 C 26.042969 16.109375 26.070312 17.765625 25.488281 18.511719 C 25.574219 17.433594 24.605469 15.476562 23.613281 14.59375 C 22.648438 13.738281 20.691406 12.992188 19.640625 13.324219 Z M 19.640625 13.324219 "/>
<path fill-rule="nonzero" fill="rgb(100%, 0%, 0%)" fill-opacity="1" d="M 20.46875 15.476562 C 21.40625 15.503906 22.511719 14.59375 22.867188 13.132812 C 23.035156 12.441406 22.980469 11.78125 22.8125 10.925781 C 22.59375 9.40625 21.324219 7.421875 20.414062 7.367188 C 21.269531 7.945312 22.152344 10.648438 22.152344 12 C 22.152344 13.324219 21.40625 14.980469 20.46875 15.476562 Z M 20.46875 15.476562 "/>
<path fill-rule="nonzero" fill="rgb(100%, 0%, 0%)" fill-opacity="1" d="M 16.964844 14.757812 L 22.125 11.75 L 23.476562 14.125 L 18.125 16.992188 Z M 16.964844 14.757812 "/>
<path fill-rule="nonzero" fill="rgb(100%, 0%, 0%)" fill-opacity="1" d="M 17.378906 17.132812 C 17.65625 16.964844 17.957031 16.550781 17.929688 16.21875 C 17.902344 15.890625 17.765625 15.585938 17.488281 15.421875 C 17.1875 15.226562 16.828125 15.199219 16.550781 15.367188 C 16.882812 15.449219 17.214844 15.722656 17.351562 16 C 17.488281 16.304688 17.488281 16.773438 17.378906 17.132812 Z M 17.378906 17.132812 "/>
<path fill-rule="nonzero" fill="rgb(100%, 0%, 0%)" fill-opacity="1" d="M 16.578125 15.367188 C 16.578125 15.089844 16.605469 14.839844 16.605469 14.59375 L 17.902344 14.316406 L 17.683594 15.394531 Z M 16.578125 15.367188 "/>
<path fill-rule="nonzero" fill="rgb(100%, 0%, 0%)" fill-opacity="1" d="M 17.378906 17.101562 C 17.574219 17.214844 17.820312 17.351562 18.015625 17.460938 L 18.898438 16.441406 L 17.957031 16.164062 Z M 17.378906 17.101562 "/>
<path fill-rule="nonzero" fill="rgb(100%, 0%, 0%)" fill-opacity="1" d="M 6.457031 20.136719 C 5.40625 17.324219 6.34375 14.398438 8.523438 13.574219 C 10.730469 12.746094 13.351562 14.34375 14.398438 17.132812 C 12.414062 14.675781 9.433594 14.316406 7.667969 16.304688 C 6.8125 17.269531 6.371094 18.621094 6.457031 20.136719 Z M 6.457031 20.136719 "/>
<path fill-rule="nonzero" fill="rgb(100%, 0%, 0%)" fill-opacity="1" d="M 16.304688 14.539062 C 13.242188 14.484375 10.8125 12.550781 10.867188 10.234375 C 10.898438 7.917969 13.40625 6.097656 16.441406 6.152344 C 13.378906 6.925781 11.78125 9.488281 12.828125 11.808594 C 13.40625 13.046875 14.675781 14.042969 16.304688 14.539062 Z M 16.304688 14.539062 "/>
<path fill-rule="nonzero" fill="rgb(100%, 0%, 0%)" fill-opacity="1" d="M 11.863281 14.980469 C 10.953125 14.785156 10.125 13.488281 10.152344 11.835938 C 10.207031 11.089844 10.457031 10.398438 10.8125 9.515625 C 11.421875 8 12.882812 7.199219 13.792969 7.394531 C 12.800781 7.808594 11.503906 9.574219 11.171875 10.839844 C 10.867188 12.109375 11.089844 14.207031 11.863281 14.980469 Z M 11.863281 14.980469 "/>
<path fill-rule="nonzero" fill="rgb(100%, 0%, 0%)" fill-opacity="1" d="M 13.378906 13.269531 C 13.019531 12.414062 11.667969 11.835938 10.207031 12.191406 C 9.515625 12.359375 8.992188 12.71875 8.277344 13.242188 C 7.0625 14.125 5.875 16.191406 6.234375 17.019531 C 6.371094 15.972656 8.359375 13.984375 9.542969 13.351562 C 10.730469 12.71875 12.523438 12.660156 13.378906 13.269531 Z M 13.378906 13.269531 "/>
<path fill-rule="nonzero" fill="rgb(100%, 0%, 0%)" fill-opacity="1" d="M 14.371094 16.691406 L 9.351562 13.488281 L 10.8125 11.199219 L 15.835938 14.648438 Z M 14.371094 16.691406 "/>
<path fill-rule="nonzero" fill="rgb(100%, 0%, 0%)" fill-opacity="1" d="M 16.277344 15.253906 C 16 15.0625 15.503906 15.007812 15.199219 15.199219 C 14.953125 15.367188 14.757812 15.640625 14.703125 15.945312 C 14.675781 16.277344 14.8125 16.632812 15.089844 16.828125 C 15.007812 16.46875 15.117188 16.054688 15.28125 15.78125 C 15.503906 15.503906 15.917969 15.339844 16.277344 15.253906 Z M 16.277344 15.253906 "/>
<path fill-rule="nonzero" fill="rgb(100%, 0%, 0%)" fill-opacity="1" d="M 15.089844 16.800781 C 14.839844 16.910156 14.59375 16.992188 14.371094 17.101562 L 13.542969 16.054688 L 14.621094 15.78125 Z M 15.089844 16.800781 "/>
<path fill-rule="nonzero" fill="rgb(100%, 0%, 0%)" fill-opacity="1" d="M 16.277344 15.253906 C 16.277344 15.0625 16.277344 14.757812 16.277344 14.539062 L 14.980469 14.207031 L 15.144531 15.171875 Z M 16.277344 15.253906 "/>
<path fill-rule="nonzero" fill="rgb(100%, 0%, 0%)" fill-opacity="1" d="M 24.386719 23.144531 C 22.511719 25.460938 19.53125 26.125 17.710938 24.660156 C 15.890625 23.171875 15.945312 20.109375 17.792969 17.792969 C 16.691406 20.71875 17.902344 23.53125 20.496094 24.027344 C 21.738281 24.277344 23.144531 23.945312 24.386719 23.144531 Z M 24.386719 23.144531 "/>
<path fill-rule="nonzero" fill="rgb(100%, 0%, 0%)" fill-opacity="1" d="M 14.59375 17.433594 C 16.109375 20.109375 15.667969 23.199219 13.683594 24.332031 C 11.640625 25.488281 8.828125 24.21875 7.308594 21.542969 C 9.542969 23.835938 12.523438 23.945312 14.015625 21.820312 C 14.785156 20.691406 15.007812 19.089844 14.59375 17.433594 Z M 14.59375 17.433594 "/>
<path fill-rule="nonzero" fill="rgb(100%, 0%, 0%)" fill-opacity="1" d="M 17.214844 21.074219 C 17.515625 21.957031 16.855469 23.308594 15.421875 24.109375 C 14.703125 24.46875 14.042969 24.605469 13.074219 24.746094 C 11.476562 24.992188 10.042969 24.136719 9.738281 23.253906 C 10.59375 23.890625 12.800781 24.109375 14.015625 23.75 C 15.28125 23.394531 16.964844 22.125 17.214844 21.074219 Z M 17.214844 21.074219 "/>
<path fill-rule="nonzero" fill="rgb(100%, 0%, 0%)" fill-opacity="1" d="M 14.980469 20.605469 C 14.425781 21.378906 14.621094 22.839844 15.667969 23.890625 C 16.164062 24.441406 16.746094 24.71875 17.542969 25.046875 C 18.925781 25.65625 21.296875 25.65625 21.847656 24.882812 C 20.855469 25.296875 18.152344 24.605469 17.019531 23.890625 C 15.863281 23.171875 14.898438 21.683594 14.980469 20.605469 Z M 14.980469 20.605469 "/>
<path fill-rule="nonzero" fill="rgb(100%, 0%, 0%)" fill-opacity="1" d="M 17.433594 18.015625 L 17.214844 24 L 14.511719 23.890625 L 14.953125 17.792969 Z M 17.433594 18.015625 "/>
<path fill-rule="nonzero" fill="rgb(100%, 0%, 0%)" fill-opacity="1" d="M 15.253906 17.132812 C 15.226562 17.433594 15.394531 17.875 15.722656 18.070312 C 15.972656 18.207031 16.304688 18.234375 16.605469 18.125 C 16.9375 17.984375 17.160156 17.683594 17.1875 17.351562 C 16.882812 17.574219 16.496094 17.710938 16.164062 17.683594 C 15.863281 17.65625 15.476562 17.378906 15.253906 17.132812 Z M 15.253906 17.132812 "/>
<path fill-rule="nonzero" fill="rgb(100%, 0%, 0%)" fill-opacity="1" d="M 17.160156 17.351562 C 17.351562 17.515625 17.574219 17.65625 17.765625 17.820312 L 17.296875 19.0625 L 16.496094 18.289062 Z M 17.160156 17.351562 "/>
<path fill-rule="nonzero" fill="rgb(100%, 0%, 0%)" fill-opacity="1" d="M 15.253906 17.132812 C 15.0625 17.242188 14.8125 17.351562 14.621094 17.460938 L 14.980469 18.730469 L 15.722656 18.125 Z M 15.253906 17.132812 "/>
<path fill-rule="nonzero" fill="rgb(100%, 0%, 0%)" fill-opacity="1" d="M 18.179688 21.957031 L 17.515625 20.332031 C 17.683594 20.441406 19.171875 19.339844 19.613281 18.621094 C 20.082031 17.929688 20.414062 16.082031 20.21875 16.109375 L 22.042969 16.054688 C 22.207031 16.136719 22.125 18.152344 21.460938 19.226562 C 21.296875 19.503906 21.101562 19.78125 20.910156 20.054688 C 20.191406 21.101562 18.34375 22.179688 18.179688 21.957031 Z M 18.179688 21.957031 "/>
<path fill-rule="nonzero" fill="rgb(100%, 0%, 0%)" fill-opacity="1" d="M 20.027344 12 L 18.953125 13.351562 C 18.953125 13.160156 17.242188 12.414062 16.441406 12.359375 C 15.585938 12.332031 13.820312 12.9375 13.957031 13.101562 L 12.992188 11.53125 C 12.992188 11.339844 14.785156 10.425781 16.027344 10.457031 C 16.359375 10.484375 16.71875 10.511719 17.046875 10.511719 C 18.261719 10.648438 20.136719 11.695312 20.027344 12 Z M 20.027344 12 "/>
<path fill-rule="nonzero" fill="rgb(100%, 0%, 0%)" fill-opacity="1" d="M 10.539062 15.421875 L 12.277344 15.667969 C 12.082031 15.78125 12.332031 17.601562 12.691406 18.34375 C 13.074219 19.089844 14.511719 20.304688 14.566406 20.109375 L 13.710938 21.738281 C 13.542969 21.820312 11.863281 20.746094 11.253906 19.640625 C 11.089844 19.339844 10.953125 19.035156 10.785156 18.730469 C 10.261719 17.601562 10.234375 15.476562 10.539062 15.421875 Z M 10.539062 15.421875 "/>
<path fill-rule="nonzero" fill="rgb(100%, 0%, 0%)" fill-opacity="1" stroke-width="1" stroke-linecap="butt" stroke-linejoin="miter" stroke="rgb(100%, 0%, 0%)" stroke-opacity="1" stroke-miterlimit="4" d="M 80.004883 449.018555 L 161.000977 770.029297 L 117.954102 780.932617 L 36.958008 460.063477 Z M 80.004883 449.018555 " transform="matrix(0.0275862, 0, 0, 0.0275862, 0, 0)"/>
<path fill-rule="nonzero" fill="rgb(100%, 0%, 0%)" fill-opacity="1" stroke-width="1" stroke-linecap="butt" stroke-linejoin="miter" stroke="rgb(100%, 0%, 0%)" stroke-opacity="1" stroke-miterlimit="4" d="M 345.932617 83.969727 L 778.950195 82.978516 L 779.941406 127.016602 L 345.932617 128.999023 Z M 345.932617 83.969727 " transform="matrix(0.0275862, 0, 0, 0.0275862, 0, 0)"/>
<path fill-rule="nonzero" fill="rgb(100%, 0%, 0%)" fill-opacity="1" stroke-width="1" stroke-linecap="butt" stroke-linejoin="miter" stroke="rgb(100%, 0%, 0%)" stroke-opacity="1" stroke-miterlimit="4" d="M 783.056641 159.018555 L 1127.006836 26.054687 L 1089.057617 389.970703 L 1045.019531 386.005859 L 1079.003906 57.06543 L 1109.023437 80.004883 L 798.066406 200.932617 Z M 783.056641 159.018555 " transform="matrix(0.0275862, 0, 0, 0.0275862, 0, 0)"/>
<path fill-rule="nonzero" fill="rgb(100%, 0%, 0%)" fill-opacity="1" stroke-width="1" stroke-linecap="butt" stroke-linejoin="miter" stroke="rgb(100%, 0%, 0%)" stroke-opacity="1" stroke-miterlimit="4" d="M 1110.014648 532.988281 L 1059.038086 1105.058594 L 515.996094 1016.982422 L 521.943359 972.944336 L 1042.045898 1058.046875 L 1016.982422 1078.012695 L 1065.976562 529.023437 Z M 1110.014648 532.988281 " transform="matrix(0.0275862, 0, 0, 0.0275862, 0, 0)"/>
<path fill-rule="nonzero" fill="rgb(100%, 0%, 0%)" fill-opacity="1" stroke-width="1" stroke-linecap="butt" stroke-linejoin="miter" stroke="rgb(100%, 0%, 0%)" stroke-opacity="1" stroke-miterlimit="4" d="M 419.990234 1128.989258 L 122.060547 1054.931641 L 61.030273 880.053711 L 102.944336 865.043945 L 160.009766 1029.018555 L 144.008789 1015 L 431.035156 1085.942383 Z M 419.990234 1128.989258 " transform="matrix(0.0275862, 0, 0, 0.0275862, 0, 0)"/>
<path fill-rule="nonzero" fill="rgb(100%, 0%, 0%)" fill-opacity="1" stroke-width="1" stroke-linecap="butt" stroke-linejoin="miter" stroke="rgb(100%, 0%, 0%)" stroke-opacity="1" stroke-miterlimit="4" d="M 74.057617 390.961914 L 54.941406 66.977539 L 354.995117 17.983398 L 361.933594 62.021484 L 81.987305 107.050781 L 98.979492 82.978516 L 117.954102 387.988281 Z M 74.057617 390.961914 " transform="matrix(0.0275862, 0, 0, 0.0275862, 0, 0)"/>
</svg>
