<?xml version="1.0" encoding="UTF-8"?>
<svg xmlns="http://www.w3.org/2000/svg" xmlns:xlink="http://www.w3.org/1999/xlink" width="32" height="32" viewBox="0 0 32 32">
<path fill-rule="nonzero" fill="rgb(0%, 0%, 100%)" fill-opacity="1" d="M 2.566406 8.828125 C 2.953125 8.441406 3.308594 8.082031 3.695312 7.695312 C 3.695312 13.242188 3.695312 18.757812 3.695312 24.304688 C 3.308594 23.945312 2.953125 23.558594 2.566406 23.171875 C 11.53125 23.171875 20.46875 23.171875 29.433594 23.171875 C 29.046875 23.558594 28.660156 23.945312 28.277344 24.304688 C 28.277344 18.757812 28.277344 13.242188 28.277344 7.695312 C 28.660156 8.082031 29.046875 8.441406 29.433594 8.828125 C 20.46875 8.828125 11.53125 8.828125 2.566406 8.828125 Z M 30.59375 6.566406 C 30.59375 12.855469 30.59375 19.144531 30.59375 25.433594 C 20.855469 25.433594 11.144531 25.433594 1.40625 25.433594 C 1.40625 19.144531 1.40625 12.855469 1.40625 6.566406 C 11.144531 6.566406 20.855469 6.566406 30.59375 6.566406 Z M 30.59375 6.566406 "/>
<path fill="none" stroke-width="1" stroke-linecap="butt" stroke-linejoin="miter" stroke="rgb(0%, 0%, 100%)" stroke-opacity="1" stroke-miterlimit="4" d="M 93.032227 320.019531 C 107.050781 306.000977 119.936523 292.973633 133.955078 278.955078 C 133.955078 480.029297 133.955078 679.970703 133.955078 881.044922 C 119.936523 868.017578 107.050781 853.999023 93.032227 839.980469 C 418.007812 839.980469 741.992187 839.980469 1066.967773 839.980469 C 1052.949219 853.999023 1038.930664 868.017578 1025.053711 881.044922 C 1025.053711 679.970703 1025.053711 480.029297 1025.053711 278.955078 C 1038.930664 292.973633 1052.949219 306.000977 1066.967773 320.019531 C 741.992187 320.019531 418.007812 320.019531 93.032227 320.019531 Z M 93.032227 320.019531 " transform="matrix(0.0275862, 0, 0, 0.0275862, 0, 0)"/>
<path fill="none" stroke-width="1" stroke-linecap="butt" stroke-linejoin="miter" stroke="rgb(0%, 0%, 100%)" stroke-opacity="1" stroke-miterlimit="4" d="M 1109.023437 238.032227 C 1109.023437 466.010742 1109.023437 693.989258 1109.023437 921.967773 C 756.010742 921.967773 403.989258 921.967773 50.976562 921.967773 C 50.976562 693.989258 50.976562 466.010742 50.976562 238.032227 C 403.989258 238.032227 756.010742 238.032227 1109.023437 238.032227 Z M 1109.023437 238.032227 " transform="matrix(0.0275862, 0, 0, 0.0275862, 0, 0)"/>
<path fill-rule="nonzero" fill="rgb(0%, 0%, 100%)" fill-opacity="1" d="M 29.488281 16.550781 C 20.523438 16.605469 11.53125 16.660156 2.566406 16.71875 C 2.566406 16.304688 2.566406 15.863281 2.566406 15.449219 C 11.53125 15.394531 20.523438 15.339844 29.488281 15.28125 C 29.488281 15.695312 29.488281 16.109375 29.488281 16.550781 Z M 29.488281 16.550781 "/>
<path fill-rule="nonzero" fill="rgb(0%, 0%, 100%)" fill-opacity="1" stroke-width="1" stroke-linecap="butt" stroke-linejoin="round" stroke="rgb(0%, 0%, 100%)" stroke-opacity="1" stroke-miterlimit="4" d="M 1068.950195 599.96582 C 743.974609 601.948242 418.007812 603.930664 93.032227 606.054687 C 93.032227 591.044922 93.032227 575.043945 93.032227 560.03418 C 418.007812 558.051758 743.974609 556.069336 1068.950195 553.945312 C 1068.950195 568.955078 1068.950195 583.964844 1068.950195 599.96582 Z M 1068.950195 599.96582 " transform="matrix(0.0275862, 0, 0, 0.0275862, 0, 0)"/>
<path fill-rule="nonzero" fill="rgb(0%, 0%, 100%)" fill-opacity="1" d="M 15.421875 24.082031 C 15.421875 18.566406 15.421875 13.019531 15.421875 7.503906 C 15.835938 7.503906 16.25 7.503906 16.660156 7.503906 C 16.660156 13.019531 16.660156 18.566406 16.660156 24.082031 C 16.25 24.082031 15.835938 24.082031 15.421875 24.082031 Z M 15.421875 24.082031 "/>
<path fill-rule="nonzero" fill="rgb(0%, 0%, 100%)" fill-opacity="1" stroke-width="1" stroke-linecap="butt" stroke-linejoin="round" stroke="rgb(0%, 0%, 100%)" stroke-opacity="1" stroke-miterlimit="4" d="M 559.042969 872.973633 C 559.042969 673.032227 559.042969 471.958008 559.042969 272.016602 C 574.052734 272.016602 589.0625 272.016602 603.930664 272.016602 C 603.930664 471.958008 603.930664 673.032227 603.930664 872.973633 C 589.0625 872.973633 574.052734 872.973633 559.042969 872.973633 Z M 559.042969 872.973633 " transform="matrix(0.0275862, 0, 0, 0.0275862, 0, 0)"/>
<path fill-rule="nonzero" fill="rgb(0%, 0%, 100%)" fill-opacity="1" d="M 11.890625 21.929688 L 11.890625 10.125 L 16.304688 10.125 C 17.214844 10.125 17.929688 10.234375 18.484375 10.484375 C 19.035156 10.730469 19.449219 11.089844 19.78125 11.585938 C 20.082031 12.082031 20.21875 12.605469 20.21875 13.132812 C 20.21875 13.65625 20.082031 14.125 19.808594 14.566406 C 19.53125 15.007812 19.117188 15.367188 18.566406 15.640625 C 19.28125 15.863281 19.835938 16.21875 20.21875 16.71875 C 20.605469 17.214844 20.800781 17.820312 20.800781 18.511719 C 20.800781 19.0625 20.691406 19.585938 20.441406 20.054688 C 20.21875 20.523438 19.917969 20.882812 19.585938 21.160156 C 19.226562 21.40625 18.8125 21.601562 18.289062 21.738281 C 17.765625 21.875 17.132812 21.929688 16.386719 21.929688 Z M 13.433594 15.089844 L 16 15.089844 C 16.691406 15.089844 17.1875 15.035156 17.488281 14.953125 C 17.875 14.839844 18.179688 14.621094 18.398438 14.371094 C 18.59375 14.097656 18.703125 13.738281 18.703125 13.324219 C 18.703125 12.9375 18.59375 12.578125 18.398438 12.304688 C 18.207031 12 17.957031 11.78125 17.601562 11.667969 C 17.242188 11.558594 16.660156 11.503906 15.808594 11.503906 L 13.433594 11.503906 Z M 13.433594 20.523438 L 16.386719 20.523438 C 16.882812 20.523438 17.242188 20.523438 17.460938 20.46875 C 17.820312 20.414062 18.125 20.304688 18.34375 20.164062 C 18.59375 20 18.785156 19.78125 18.953125 19.503906 C 19.117188 19.226562 19.171875 18.898438 19.171875 18.511719 C 19.171875 18.070312 19.0625 17.683594 18.839844 17.351562 C 18.621094 17.046875 18.316406 16.800781 17.902344 16.660156 C 17.515625 16.550781 16.9375 16.46875 16.164062 16.46875 L 13.433594 16.46875 Z M 13.433594 20.523438 "/>
</svg>
