<?xml version="1.0" encoding="UTF-8"?>
<svg xmlns="http://www.w3.org/2000/svg" xmlns:xlink="http://www.w3.org/1999/xlink" width="32" height="32" viewBox="0 0 32 32">
<path fill-rule="nonzero" fill="rgb(100%, 0%, 0%)" fill-opacity="1" d="M 10.621094 24.191406 C 10.621094 21.738281 12.578125 19.75 15.035156 19.75 C 17.460938 19.75 19.449219 21.738281 19.449219 24.191406 C 19.449219 26.621094 17.460938 28.605469 15.035156 28.605469 C 12.578125 28.605469 10.621094 26.621094 10.621094 24.191406 Z M 10.621094 24.191406 "/>
<path fill-rule="nonzero" fill="rgb(100%, 0%, 0%)" fill-opacity="1" stroke-width="1" stroke-linecap="butt" stroke-linejoin="miter" stroke="rgb(100%, 0%, 0%)" stroke-opacity="1" stroke-miterlimit="4" d="M 382.041016 876.938477 L 382.041016 868.017578 L 383.032227 859.946289 L 384.023437 851.025391 L 385.014648 843.945312 L 386.99707 836.015625 L 388.979492 827.944336 L 391.953125 820.014648 L 395.068359 812.93457 L 401.015625 799.057617 L 404.980469 791.977539 L 409.936523 786.030273 L 414.042969 778.950195 L 423.955078 767.055664 L 430.043945 760.966797 L 435.991211 756.010742 L 440.947266 751.054687 L 447.036133 745.957031 L 453.974609 741.992187 L 461.054687 738.027344 L 467.001953 732.929687 L 473.94043 729.956055 L 481.020508 726.982422 L 488.950195 723.017578 L 496.030273 721.035156 L 503.959961 719.052734 L 512.03125 717.070312 L 519.960937 715.9375 L 528.032227 714.946289 L 536.953125 713.955078 L 552.954102 713.955078 L 562.016602 714.946289 L 569.946289 715.9375 L 577.026367 715.9375 L 585.947266 719.052734 L 593.027344 721.035156 L 600.957031 723.017578 L 608.037109 726.982422 L 614.975586 729.956055 L 623.046875 732.929687 L 628.994141 738.027344 L 635.932617 741.992187 L 643.012695 745.957031 L 647.96875 751.054687 L 654.057617 756.010742 L 660.004883 760.966797 L 664.960937 767.055664 L 671.049805 773.00293 L 675.014648 778.950195 L 679.970703 786.030273 L 683.935547 791.977539 L 688.041992 799.057617 L 692.006836 805.996094 L 694.980469 812.93457 L 697.954102 820.014648 L 699.936523 827.944336 L 703.051758 835.024414 L 704.042969 843.945312 L 706.025391 851.025391 L 707.016602 859.946289 L 708.007812 868.017578 L 708.007812 885.009766 L 707.016602 892.939453 L 706.025391 901.010742 L 704.042969 908.94043 L 703.051758 917.011719 L 699.936523 924.941406 L 697.954102 932.021484 L 694.980469 939.951172 L 692.006836 947.03125 L 688.041992 953.969727 L 683.935547 961.049805 L 679.970703 967.988281 L 675.014648 972.944336 L 671.049805 980.024414 L 664.960937 985.97168 L 660.004883 991.069336 L 654.057617 997.016602 L 647.96875 1001.972656 L 643.012695 1007.070312 L 635.932617 1011.035156 L 628.994141 1015.991211 L 623.046875 1019.956055 L 615.966797 1022.929687 L 608.037109 1027.036133 L 600.957031 1029.018555 L 593.027344 1031.992187 L 585.947266 1033.974609 L 577.026367 1035.957031 L 569.946289 1037.939453 L 562.016602 1037.939453 L 552.954102 1038.930664 L 536.953125 1038.930664 L 528.032227 1037.939453 L 519.960937 1037.939453 L 512.03125 1035.957031 L 503.959961 1033.974609 L 496.030273 1031.992187 L 488.950195 1029.018555 L 481.020508 1027.036133 L 473.94043 1022.929687 L 467.001953 1019.956055 L 461.054687 1015.991211 L 453.974609 1011.035156 L 447.036133 1007.070312 L 440.947266 1001.972656 L 430.043945 991.069336 L 423.955078 985.97168 L 418.999023 980.024414 L 414.042969 972.944336 L 409.936523 967.988281 L 404.980469 961.049805 L 401.015625 953.969727 L 398.041992 947.03125 L 395.068359 939.951172 L 391.953125 932.021484 L 388.979492 924.941406 L 386.99707 917.011719 L 385.014648 908.94043 L 384.023437 901.010742 L 383.032227 892.939453 L 382.041016 885.009766 Z M 386.99707 884.018555 L 387.988281 892.939453 L 388.979492 900.019531 L 389.970703 907.949219 L 391.953125 915.029297 L 395.068359 922.958984 L 397.050781 930.039062 L 400.024414 936.977539 L 402.998047 945.048828 L 405.97168 951.987305 L 409.936523 957.93457 L 414.042969 964.023437 L 418.999023 969.970703 L 422.963867 977.050781 L 428.061523 982.006836 L 433.017578 987.954102 L 438.964844 993.051758 L 445.053711 998.007812 L 451.000977 1001.972656 L 455.957031 1007.070312 L 463.037109 1011.035156 L 469.975586 1015 L 476.064453 1017.973633 L 483.00293 1021.938477 L 490.932617 1024.0625 L 498.012695 1027.036133 L 505.942383 1029.018555 L 513.022461 1031.000977 L 520.952148 1031.992187 L 529.023437 1032.983398 L 561.025391 1032.983398 L 568.955078 1031.992187 L 577.026367 1031.000977 L 583.964844 1029.018555 L 592.036133 1027.036133 L 598.974609 1024.0625 L 606.054687 1021.938477 L 612.993164 1017.973633 L 619.931641 1015 L 627.011719 1011.035156 L 632.958984 1007.070312 L 639.047852 1001.972656 L 644.995117 998.007812 L 650.942383 993.051758 L 666.943359 977.050781 L 671.049805 970.961914 L 675.014648 964.023437 L 678.979492 957.93457 L 682.944336 951.987305 L 687.050781 945.048828 L 690.024414 937.96875 L 692.998047 930.039062 L 694.980469 922.958984 L 697.954102 916.020508 L 698.945312 907.949219 L 699.936523 900.019531 L 702.060547 892.939453 L 702.060547 885.009766 L 703.051758 876.938477 L 702.060547 868.017578 L 702.060547 860.9375 L 699.936523 852.016602 L 698.945312 844.936523 L 697.954102 837.006836 L 694.980469 828.935547 L 692.998047 822.988281 L 690.024414 815.058594 L 687.050781 807.978516 L 682.944336 802.03125 L 678.979492 794.951172 L 675.014648 788.012695 L 671.049805 782.06543 L 666.943359 775.976562 L 661.987305 770.029297 L 656.040039 764.931641 L 650.942383 759.975586 L 639.047852 750.063477 L 632.958984 745.957031 L 627.011719 741.992187 L 619.931641 738.027344 L 612.993164 735.053711 L 606.054687 731.938477 L 598.974609 727.973633 L 592.036133 726.982422 L 583.964844 724.008789 L 577.026367 722.026367 L 568.955078 721.035156 L 561.025391 720.043945 L 552.954102 719.052734 L 536.953125 719.052734 L 529.023437 720.043945 L 520.952148 721.035156 L 513.022461 722.026367 L 505.942383 724.008789 L 498.012695 725.991211 L 490.932617 727.973633 L 483.00293 731.938477 L 476.064453 735.053711 L 469.975586 738.027344 L 463.037109 741.992187 L 455.957031 745.957031 L 451.000977 750.063477 L 445.053711 755.019531 L 438.964844 759.975586 L 434.008789 764.931641 L 428.061523 770.029297 L 422.963867 775.976562 L 418.999023 782.06543 L 414.042969 788.012695 L 411.069336 794.951172 L 405.97168 802.03125 L 402.998047 807.978516 L 400.024414 815.058594 L 397.050781 822.988281 L 395.068359 828.935547 L 391.953125 837.006836 L 389.970703 844.936523 L 388.979492 852.016602 L 387.988281 860.9375 L 386.99707 868.017578 Z M 386.99707 884.018555 " transform="matrix(0.0275862, 0, 0, 0.0275862, 0, 0)"/>
<path fill-rule="nonzero" fill="rgb(100%, 0%, 0%)" fill-opacity="1" d="M 13.515625 18.8125 C 13.515625 18.511719 13.738281 18.289062 14.015625 18.289062 L 16.054688 18.289062 C 16.332031 18.289062 16.550781 18.511719 16.550781 18.8125 L 16.550781 22.179688 C 16.550781 22.484375 16.332031 22.703125 16.054688 22.703125 L 14.015625 22.703125 C 13.738281 22.703125 13.515625 22.484375 13.515625 22.179688 Z M 13.515625 18.8125 "/>
<path fill-rule="nonzero" fill="rgb(100%, 0%, 0%)" fill-opacity="1" stroke-width="1" stroke-linecap="butt" stroke-linejoin="miter" stroke="rgb(100%, 0%, 0%)" stroke-opacity="1" stroke-miterlimit="4" d="M 485.976562 681.953125 L 486.967773 678.979492 L 486.967773 677.988281 L 487.958984 675.014648 L 487.958984 673.032227 L 490.932617 670.058594 L 490.932617 667.93457 L 493.056641 666.943359 L 496.030273 663.969727 L 501.977539 660.996094 L 503.959961 660.996094 L 505.942383 660.004883 L 582.973633 660.004883 L 585.947266 660.996094 L 586.938477 660.996094 L 590.053711 661.987305 L 592.036133 662.978516 L 593.027344 663.969727 L 595.009766 664.960937 L 597.983398 667.93457 L 598.974609 669.067383 L 602.939453 676.99707 L 602.939453 807.978516 L 601.948242 810.952148 L 600.957031 812.93457 L 599.96582 814.067383 L 597.983398 818.032227 L 595.009766 821.005859 L 593.027344 821.99707 L 592.036133 822.988281 L 590.053711 823.979492 L 587.929687 824.970703 L 585.947266 824.970703 L 583.964844 825.961914 L 505.942383 825.961914 L 503.959961 824.970703 L 501.977539 824.970703 L 498.012695 822.988281 L 496.030273 822.988281 L 495.039062 821.005859 L 493.056641 819.023437 L 490.932617 818.032227 L 490.932617 817.041016 L 489.941406 815.058594 L 488.950195 812.93457 L 486.967773 808.969727 L 486.967773 806.987305 L 485.976562 805.004883 Z M 492.06543 804.013672 L 492.06543 806.987305 L 493.056641 808.969727 L 493.056641 810.952148 L 495.039062 812.93457 L 496.030273 814.067383 L 496.030273 816.049805 L 498.012695 817.041016 L 499.003906 818.032227 L 500.986328 818.032227 L 501.977539 819.023437 L 502.96875 819.023437 L 504.951172 820.014648 L 584.956055 820.014648 L 585.947266 819.023437 L 586.938477 819.023437 L 589.0625 818.032227 L 590.053711 818.032227 L 592.036133 817.041016 L 592.036133 816.049805 L 593.027344 815.058594 L 595.009766 812.93457 L 596.992187 808.969727 L 596.992187 806.987305 L 597.983398 806.987305 L 597.983398 679.970703 L 596.992187 678.979492 L 596.992187 676.99707 L 596.000977 675.014648 L 596.000977 674.023437 L 592.036133 670.058594 L 592.036133 669.067383 L 591.044922 667.93457 L 589.0625 667.93457 L 586.938477 666.943359 L 584.956055 665.952148 L 504.951172 665.952148 L 502.96875 666.943359 L 501.977539 666.943359 L 500.986328 667.93457 L 499.003906 667.93457 L 498.012695 669.067383 L 496.030273 671.049805 L 495.039062 673.032227 L 494.047852 673.032227 L 494.047852 675.014648 L 492.06543 678.979492 Z M 492.06543 804.013672 " transform="matrix(0.0275862, 0, 0, 0.0275862, 0, 0)"/>
<path fill-rule="nonzero" fill="rgb(100%, 0%, 0%)" fill-opacity="1" d="M 14.398438 17.765625 C 14.398438 16.691406 14.867188 15.722656 15.640625 15.144531 C 16.550781 14.457031 17.738281 14.457031 18.648438 15.144531 C 19.449219 15.722656 20.632812 16.9375 20.632812 17.984375 L 19.78125 17.820312 C 19.78125 17.242188 18.316406 16.660156 17.957031 16.359375 C 17.460938 15.917969 16.828125 15.917969 16.332031 16.359375 C 15.972656 16.660156 15.78125 17.214844 15.78125 17.765625 Z M 14.398438 17.765625 "/>
<path fill-rule="nonzero" fill="rgb(100%, 0%, 0%)" fill-opacity="1" d="M 18.953125 15.394531 L 21.574219 17.820312 L 20.632812 18.839844 L 18.015625 16.414062 Z M 18.953125 15.394531 "/>
<path fill-rule="nonzero" fill="rgb(100%, 0%, 0%)" fill-opacity="1" d="M 23.78125 18.425781 C 23.808594 19.308594 23.972656 18.898438 24.441406 18.730469 C 24.25 19.863281 24.304688 19.421875 23.171875 19.613281 C 22.207031 19.75 21.1875 19.394531 20.441406 18.648438 L 21.40625 17.683594 C 21.792969 18.070312 22.34375 18.289062 22.8125 18.261719 C 23.449219 18.207031 23.421875 19.394531 23.449219 18.730469 C 23.476562 18.261719 23.863281 18.8125 23.449219 18.425781 Z M 23.78125 18.425781 "/>
<path fill-rule="nonzero" fill="rgb(100%, 0%, 0%)" fill-opacity="1" d="M 22.566406 18.261719 L 22.566406 19.640625 L 24.441406 19.640625 L 24.441406 18.261719 Z M 22.566406 18.261719 "/>
<path fill-rule="nonzero" fill="rgb(100%, 0%, 0%)" fill-opacity="1" stroke-width="1" stroke-linecap="butt" stroke-linejoin="miter" stroke="rgb(100%, 0%, 0%)" stroke-opacity="1" stroke-miterlimit="4" d="M 818.032227 670.058594 L 885.009766 670.058594 L 885.009766 672.041016 L 818.032227 672.041016 Z M 818.032227 670.058594 " transform="matrix(0.0275862, 0, 0, 0.0275862, 0, 0)"/>
<path fill-rule="nonzero" fill="rgb(100%, 0%, 0%)" fill-opacity="1" stroke-width="1" stroke-linecap="butt" stroke-linejoin="miter" stroke="rgb(100%, 0%, 0%)" stroke-opacity="1" stroke-miterlimit="4" d="M 915.029297 676.005859 L 1047.993164 676.005859 L 1047.993164 688.041992 L 915.029297 688.041992 Z M 915.029297 676.005859 " transform="matrix(0.0275862, 0, 0, 0.0275862, 0, 0)"/>
<path fill-rule="nonzero" fill="rgb(100%, 0%, 0%)" fill-opacity="1" stroke-width="1" stroke-linecap="butt" stroke-linejoin="miter" stroke="rgb(100%, 0%, 0%)" stroke-opacity="1" stroke-miterlimit="4" d="M 918.00293 708.007812 L 1031.992187 776.967773 L 1027.036133 788.012695 L 911.064453 718.061523 Z M 918.00293 708.007812 " transform="matrix(0.0275862, 0, 0, 0.0275862, 0, 0)"/>
<path fill-rule="nonzero" fill="rgb(100%, 0%, 0%)" fill-opacity="1" stroke-width="1" stroke-linecap="butt" stroke-linejoin="miter" stroke="rgb(100%, 0%, 0%)" stroke-opacity="1" stroke-miterlimit="4" d="M 911.064453 646.977539 L 1025.053711 577.026367 L 1031.000977 587.929687 L 916.020508 657.03125 Z M 911.064453 646.977539 " transform="matrix(0.0275862, 0, 0, 0.0275862, 0, 0)"/>
<path fill-rule="nonzero" fill="rgb(100%, 0%, 0%)" fill-opacity="1" stroke-width="1" stroke-linecap="butt" stroke-linejoin="miter" stroke="rgb(100%, 0%, 0%)" stroke-opacity="1" stroke-miterlimit="4" d="M 897.045898 730.947266 L 960.058594 850.03418 L 949.013672 854.990234 L 886.000977 737.036133 Z M 897.045898 730.947266 " transform="matrix(0.0275862, 0, 0, 0.0275862, 0, 0)"/>
<path fill-rule="nonzero" fill="rgb(100%, 0%, 0%)" fill-opacity="1" stroke-width="1" stroke-linecap="butt" stroke-linejoin="miter" stroke="rgb(100%, 0%, 0%)" stroke-opacity="1" stroke-miterlimit="4" d="M 886.000977 631.967773 L 949.013672 513.022461 L 960.058594 517.978516 L 897.045898 637.06543 Z M 886.000977 631.967773 " transform="matrix(0.0275862, 0, 0, 0.0275862, 0, 0)"/>
<path fill-rule="nonzero" fill="rgb(100%, 0%, 0%)" fill-opacity="1" stroke-width="1" stroke-linecap="butt" stroke-linejoin="miter" stroke="rgb(100%, 0%, 0%)" stroke-opacity="1" stroke-miterlimit="4" d="M 854.990234 641.030273 L 810.952148 514.013672 L 822.988281 510.048828 L 866.035156 637.06543 Z M 854.990234 641.030273 " transform="matrix(0.0275862, 0, 0, 0.0275862, 0, 0)"/>
<path fill-rule="nonzero" fill="rgb(100%, 0%, 0%)" fill-opacity="1" stroke-width="1" stroke-linecap="butt" stroke-linejoin="miter" stroke="rgb(100%, 0%, 0%)" stroke-opacity="1" stroke-miterlimit="4" d="M 866.035156 731.938477 L 822.988281 858.955078 L 810.952148 854.990234 L 854.990234 726.982422 Z M 866.035156 731.938477 " transform="matrix(0.0275862, 0, 0, 0.0275862, 0, 0)"/>
<path fill-rule="nonzero" fill="rgb(100%, 0%, 0%)" fill-opacity="1" stroke-width="1" stroke-linecap="butt" stroke-linejoin="miter" stroke="rgb(100%, 0%, 0%)" stroke-opacity="1" stroke-miterlimit="4" d="M 39.931641 20.957031 L 1129.980469 20.957031 L 1129.980469 1117.944336 L 39.931641 1117.944336 Z M 81.987305 1096.987305 L 62.021484 1075.039062 L 1108.032227 1075.039062 L 1088.066406 1096.987305 L 1088.066406 42.055664 L 1108.032227 64.003906 L 62.021484 64.003906 L 81.987305 42.055664 Z M 81.987305 1096.987305 " transform="matrix(0.0275862, 0, 0, 0.0275862, 0, 0)"/>
<path fill-rule="nonzero" fill="rgb(100%, 0%, 0%)" fill-opacity="1" d="M 15.476562 13.710938 L 14.125 10.125 C 16.910156 9.101562 17.710938 7.007812 15.890625 5.433594 C 14.042969 3.890625 10.289062 3.449219 7.476562 4.46875 C 4.660156 5.460938 3.890625 7.558594 5.710938 9.101562 C 7.0625 10.289062 9.515625 10.867188 11.972656 10.59375 Z M 15.476562 13.710938 "/>
<path fill-rule="nonzero" fill="rgb(100%, 0%, 0%)" fill-opacity="1" stroke-width="1" stroke-linecap="butt" stroke-linejoin="miter" stroke="rgb(100%, 0%, 0%)" stroke-opacity="1" stroke-miterlimit="4" d="M 562.016602 497.021484 L 561.025391 497.021484 L 511.040039 367.03125 C 512.03125 366.040039 512.03125 366.040039 512.03125 366.040039 L 520.952148 363.066406 L 530.014648 358.959961 L 537.944336 354.995117 L 546.015625 351.030273 L 552.954102 347.06543 L 561.025391 340.976562 L 566.972656 337.011719 L 573.061523 332.055664 L 579.008789 326.958008 L 583.964844 322.001953 L 589.0625 317.045898 L 593.027344 310.957031 L 597.983398 306.000977 L 600.957031 300.053711 L 602.939453 297.929687 L 602.939453 294.956055 L 605.063477 291.982422 L 606.054687 289.008789 L 608.037109 286.035156 L 608.037109 283.061523 L 609.02832 280.9375 L 609.02832 276.972656 L 610.019531 274.990234 L 610.019531 272.016602 L 611.010742 269.042969 L 611.010742 257.006836 L 610.019531 254.033203 L 610.019531 251.05957 L 609.02832 248.935547 L 608.037109 244.970703 L 608.037109 242.988281 L 607.045898 239.023437 L 605.063477 237.041016 L 603.930664 234.067383 L 602.939453 230.952148 L 598.974609 225.004883 L 596.000977 219.057617 L 593.027344 216.933594 L 592.036133 213.959961 L 589.0625 210.986328 L 586.938477 208.012695 L 583.964844 206.030273 L 580.991211 203.056641 L 578.017578 199.941406 L 575.043945 196.967773 L 568.955078 192.011719 L 562.016602 187.055664 L 554.936523 182.949219 L 547.006836 177.993164 L 538.935547 174.02832 L 531.99707 170.063477 L 521.943359 165.957031 L 514.013672 162.983398 L 504.951172 159.018555 L 496.030273 157.036133 L 485.976562 154.0625 L 476.064453 151.938477 L 466.010742 148.964844 L 455.957031 147.973633 L 446.044922 145.991211 L 435.991211 145 L 425.9375 143.017578 L 404.980469 143.017578 L 395.068359 142.026367 L 384.023437 143.017578 L 363.066406 143.017578 L 340.976562 145 L 331.064453 146.982422 L 321.010742 147.973633 L 309.96582 150.947266 L 300.053711 152.929687 L 290 156.044922 L 279.946289 159.018555 L 271.025391 161.992187 L 261.962891 164.96582 L 253.041992 170.063477 L 243.979492 174.02832 L 236.049805 177.993164 L 228.969727 181.958008 L 222.03125 186.064453 L 214.951172 191.020508 L 208.012695 195.976562 L 197.958984 206.030273 L 193.00293 211.977539 L 188.046875 216.933594 L 184.931641 223.022461 L 182.949219 225.004883 L 181.958008 227.978516 L 179.975586 229.960937 L 177.993164 234.067383 L 177.993164 236.049805 L 176.010742 239.023437 L 173.037109 247.944336 L 173.037109 254.033203 L 172.045898 256.015625 L 172.045898 273.999023 L 173.037109 276.972656 L 173.037109 279.946289 L 174.02832 282.070312 L 175.019531 286.035156 L 176.010742 288.017578 L 177.001953 291.982422 L 179.975586 297.929687 L 180.966797 300.053711 L 184.931641 306.000977 L 187.055664 308.974609 L 188.046875 310.957031 L 191.020508 313.930664 L 193.00293 317.045898 L 195.976562 320.019531 L 197.958984 322.993164 L 200.932617 324.975586 L 204.047852 327.949219 L 207.021484 329.931641 L 211.977539 335.029297 L 216.933594 338.00293 L 222.03125 340.976562 L 226.987305 345.932617 L 232.93457 349.047852 L 239.023437 352.021484 L 243.979492 354.995117 L 251.05957 356.977539 L 257.006836 360.942383 L 263.945312 363.066406 L 270.03418 366.040039 L 276.972656 368.022461 L 284.052734 370.004883 L 290.991211 372.978516 L 299.0625 373.969727 L 305.009766 375.952148 L 312.939453 377.93457 L 320.019531 379.067383 L 328.94043 381.049805 L 336.020508 382.041016 L 343.950195 384.023437 L 359.951172 384.023437 L 368.022461 385.014648 L 375.952148 385.014648 L 384.023437 386.005859 L 400.024414 386.005859 L 408.945312 385.014648 L 417.016602 385.014648 L 425.9375 384.023437 L 434.008789 384.023437 Z M 433.017578 384.023437 L 434.008789 384.023437 L 425.9375 385.014648 L 417.016602 386.005859 L 408.945312 386.005859 L 400.024414 386.99707 L 384.023437 386.99707 L 375.952148 386.005859 L 368.022461 386.005859 L 359.951172 385.014648 L 352.021484 384.023437 L 343.950195 384.023437 L 336.020508 383.032227 L 328.94043 382.041016 L 320.019531 380.058594 L 312.939453 379.067383 L 305.009766 376.943359 L 297.929687 374.960937 L 284.052734 370.996094 L 276.972656 369.013672 L 270.03418 367.03125 L 263.945312 364.057617 L 257.006836 360.942383 L 250.068359 357.96875 L 243.979492 355.986328 L 239.023437 352.021484 L 232.93457 349.047852 L 226.987305 345.932617 L 222.03125 341.967773 L 215.942383 338.994141 L 210.986328 335.029297 L 207.021484 331.064453 L 203.056641 328.94043 L 200.932617 324.975586 L 197.958984 322.993164 L 193.00293 318.037109 L 190.029297 313.930664 L 188.046875 311.948242 L 186.064453 308.974609 L 183.94043 306.000977 L 180.966797 300.053711 L 178.984375 297.929687 L 177.993164 293.964844 L 177.001953 291.982422 L 175.019531 289.008789 L 173.037109 283.061523 L 173.037109 279.946289 L 172.045898 276.972656 L 172.045898 273.999023 L 171.054687 272.016602 L 171.054687 256.015625 L 173.037109 250.068359 L 173.037109 244.970703 L 174.02832 241.99707 L 176.010742 239.023437 L 177.001953 236.049805 L 177.993164 232.93457 L 178.984375 229.960937 L 180.966797 227.978516 L 183.94043 222.03125 L 188.046875 216.933594 L 193.00293 210.986328 L 208.012695 195.976562 L 213.959961 191.020508 L 221.040039 186.064453 L 228.969727 180.966797 L 236.049805 177.001953 L 243.979492 173.037109 L 253.041992 168.930664 L 260.97168 164.96582 L 271.025391 161.000977 L 279.946289 158.027344 L 290 155.053711 L 300.053711 152.929687 L 309.96582 149.956055 L 320.019531 147.973633 L 331.064453 145.991211 L 340.976562 144.008789 L 352.021484 143.017578 L 363.066406 143.017578 L 372.978516 142.026367 L 404.980469 142.026367 L 416.025391 143.017578 L 425.9375 143.017578 L 446.044922 145 L 456.948242 146.982422 L 467.001953 148.964844 L 476.064453 150.947266 L 485.976562 154.0625 L 496.030273 156.044922 L 504.951172 159.018555 L 514.013672 162.983398 L 522.93457 165.957031 L 531.99707 170.063477 L 540.068359 174.02832 L 547.006836 177.993164 L 554.936523 181.958008 L 562.016602 187.055664 L 568.955078 191.020508 L 576.035156 196.967773 L 578.017578 199.941406 L 581.982422 202.06543 L 583.964844 205.039062 L 586.938477 208.012695 L 589.0625 210.986328 L 592.036133 212.96875 L 594.018555 215.942383 L 596.000977 219.057617 L 601.948242 227.978516 L 602.939453 229.960937 L 603.930664 234.067383 L 606.054687 236.049805 L 610.019531 247.944336 L 610.019531 251.05957 L 611.010742 254.033203 L 611.010742 257.006836 L 612.001953 259.980469 L 612.001953 269.042969 L 611.010742 272.016602 L 611.010742 274.990234 L 610.019531 276.972656 L 609.02832 280.9375 L 608.037109 283.061523 L 608.037109 287.026367 L 607.045898 289.008789 L 606.054687 292.973633 L 603.930664 294.956055 L 602.939453 297.929687 L 601.948242 301.044922 L 599.96582 304.018555 L 597.983398 306.000977 L 594.018555 311.948242 L 590.053711 317.045898 L 584.956055 322.993164 L 580 327.949219 L 574.052734 333.046875 L 566.972656 337.011719 L 561.025391 341.967773 L 553.945312 347.06543 L 547.006836 352.021484 L 537.944336 355.986328 L 530.014648 358.959961 L 520.952148 363.066406 L 512.03125 367.03125 L 562.016602 497.021484 C 561.025391 497.021484 561.025391 497.021484 561.025391 497.021484 Z M 433.017578 384.023437 " transform="matrix(0.0275862, 0, 0, 0.0275862, 0, 0)"/>
</svg>
