<?xml version="1.0" encoding="UTF-8"?>
<svg xmlns="http://www.w3.org/2000/svg" xmlns:xlink="http://www.w3.org/1999/xlink" width="32" height="32" viewBox="0 0 32 32">
<path fill-rule="nonzero" fill="rgb(100%, 0%, 0%)" fill-opacity="1" d="M 4.25 19.226562 C 4.25 16.082031 6.839844 13.488281 10.042969 13.488281 C 13.214844 13.488281 15.808594 16.082031 15.808594 19.226562 C 15.808594 22.398438 13.214844 24.964844 10.042969 24.964844 C 6.839844 24.964844 4.25 22.398438 4.25 19.226562 Z M 4.25 19.226562 "/>
<path fill-rule="nonzero" fill="rgb(100%, 0%, 0%)" fill-opacity="1" stroke-width="1" stroke-linecap="butt" stroke-linejoin="miter" stroke="rgb(100%, 0%, 0%)" stroke-opacity="1" stroke-miterlimit="4" d="M 155.053711 694.980469 L 151.938477 696.962891 L 151.938477 680.961914 L 152.929687 675.014648 L 152.929687 670.058594 L 154.0625 664.960937 L 156.044922 655.048828 L 157.036133 648.959961 L 159.018555 639.047852 L 161.000977 634.941406 L 163.974609 625.029297 L 167.939453 615.966797 L 173.037109 606.054687 L 177.001953 596.992187 L 181.958008 587.929687 L 188.046875 579.008789 L 193.994141 570.9375 L 199.941406 563.007812 L 206.030273 556.069336 L 212.96875 547.998047 L 221.040039 541.05957 L 227.978516 534.970703 L 237.041016 529.023437 L 244.970703 522.93457 L 254.033203 516.987305 L 262.954102 512.03125 L 271.025391 506.933594 L 280.9375 502.96875 L 290.991211 499.003906 L 301.044922 496.030273 L 310.957031 493.056641 L 316.054687 492.06543 L 321.010742 490.932617 L 325.966797 489.941406 L 331.064453 488.950195 L 337.011719 487.958984 L 341.967773 487.958984 L 347.06543 486.967773 L 364.057617 486.967773 C 365.048828 486.967773 365.048828 486.967773 366.040039 487.958984 L 364.057617 486.967773 L 374.960937 486.967773 L 380.058594 487.958984 L 390.961914 487.958984 L 396.05957 488.950195 L 405.97168 490.932617 L 412.060547 492.06543 L 417.016602 493.056641 L 427.070312 496.030273 L 435.991211 499.003906 L 446.044922 502.96875 L 455.957031 506.933594 L 465.019531 512.03125 L 472.949219 516.987305 L 483.00293 521.943359 L 489.941406 528.032227 L 499.003906 534.970703 L 505.942383 541.05957 L 514.013672 547.998047 L 519.960937 556.069336 L 527.041016 563.007812 L 533.979492 570.9375 L 540.068359 579.008789 L 545.024414 587.929687 L 549.980469 596.992187 L 554.936523 605.063477 L 559.042969 614.975586 L 562.016602 625.029297 L 565.981445 633.950195 L 567.963867 639.047852 L 569.946289 648.959961 L 572.070312 654.057617 L 573.061523 660.004883 L 573.061523 664.960937 L 574.052734 670.058594 L 574.052734 675.014648 L 575.043945 680.961914 L 575.043945 686.05957 L 576.035156 691.015625 L 576.035156 702.060547 L 575.043945 708.007812 L 575.043945 712.963867 L 574.052734 718.061523 L 574.052734 724.008789 L 573.061523 728.964844 L 573.061523 734.0625 L 572.070312 739.018555 L 569.946289 743.974609 L 568.955078 748.930664 L 567.963867 754.02832 L 565.981445 758.984375 L 562.016602 770.029297 L 559.042969 778.950195 L 554.936523 788.012695 L 549.980469 796.933594 L 545.024414 806.987305 L 540.068359 815.058594 L 533.979492 822.988281 L 527.041016 831.05957 L 519.960937 838.989258 L 514.013672 846.069336 L 505.942383 853.007812 L 499.003906 859.946289 L 490.932617 866.035156 L 483.00293 870.991211 L 472.949219 876.938477 L 465.019531 882.036133 L 455.957031 886.992187 L 446.044922 890.957031 L 435.991211 895.063477 L 427.070312 898.037109 L 417.016602 901.010742 L 412.060547 902.993164 L 406.962891 902.993164 L 401.015625 903.984375 L 396.05957 904.975586 L 390.961914 905.966797 L 386.005859 906.958008 L 380.058594 906.958008 L 374.960937 907.949219 L 364.057617 907.949219 L 366.040039 904.975586 C 366.040039 905.966797 366.040039 906.958008 366.040039 906.958008 C 365.048828 907.949219 365.048828 907.949219 364.057617 907.949219 L 353.012695 907.949219 L 347.06543 906.958008 L 341.967773 906.958008 L 337.011719 905.966797 L 331.064453 904.975586 L 325.966797 903.984375 L 321.010742 902.993164 L 316.054687 902.993164 L 310.957031 901.010742 L 301.044922 898.037109 L 290.991211 895.063477 L 280.9375 890.957031 L 272.016602 886.992187 L 262.954102 882.036133 L 254.033203 876.938477 L 244.970703 870.991211 L 237.041016 866.035156 L 227.978516 859.946289 L 221.040039 853.007812 L 213.959961 846.069336 L 206.030273 838.989258 L 199.941406 831.05957 L 193.994141 822.988281 L 188.046875 815.058594 L 181.958008 806.987305 L 177.001953 796.933594 L 173.037109 788.012695 L 168.930664 778.950195 L 163.974609 770.029297 L 161.000977 758.984375 L 159.018555 754.02832 L 158.027344 748.930664 L 155.053711 734.0625 L 154.0625 728.964844 L 152.929687 724.008789 L 152.929687 719.052734 L 151.938477 712.963867 L 151.938477 696.962891 C 151.938477 695.97168 151.938477 694.980469 152.929687 694.980469 C 152.929687 694.980469 154.0625 693.989258 155.053711 694.980469 Z M 152.929687 699.936523 L 157.036133 696.962891 L 157.036133 707.016602 L 158.027344 712.963867 L 158.027344 723.017578 L 160.009766 732.929687 L 161.000977 738.027344 L 161.992187 742.983398 L 163.974609 748.930664 L 163.974609 754.02832 L 165.957031 757.993164 L 168.930664 768.046875 L 173.037109 776.967773 L 177.001953 786.030273 L 181.958008 794.951172 L 187.055664 803.022461 L 192.011719 811.943359 L 197.958984 820.014648 L 204.047852 827.944336 L 210.986328 835.024414 L 216.933594 841.962891 L 225.004883 849.042969 L 232.93457 854.990234 L 240.014648 860.9375 L 247.944336 867.026367 L 256.015625 871.982422 L 264.936523 876.938477 L 273.999023 882.036133 L 283.061523 886.000977 L 291.982422 889.96582 L 302.036133 892.939453 L 311.948242 896.054687 L 317.045898 897.045898 L 326.958008 899.02832 L 332.055664 900.019531 L 337.011719 901.010742 L 342.958984 901.010742 L 348.056641 902.001953 L 357.96875 902.001953 L 364.057617 902.993164 L 359.951172 904.975586 C 359.951172 902.993164 361.933594 902.001953 364.057617 902.001953 L 380.058594 902.001953 L 385.014648 901.010742 L 389.970703 901.010742 L 395.068359 900.019531 L 409.936523 897.045898 L 415.03418 896.054687 L 424.946289 892.939453 L 435 889.96582 L 444.0625 886.000977 L 452.983398 882.036133 L 462.045898 876.938477 L 470.966797 871.982422 L 479.038086 867.026367 L 487.958984 860.9375 L 495.039062 854.990234 L 502.96875 849.042969 L 509.057617 841.962891 L 515.996094 835.024414 L 522.93457 827.944336 L 529.023437 820.014648 L 534.970703 811.943359 L 541.05957 803.022461 L 546.015625 794.951172 L 549.980469 786.030273 L 553.945312 776.967773 L 557.060547 768.046875 L 561.025391 757.993164 L 562.016602 754.02832 L 563.999023 748.930664 L 564.990234 742.983398 L 565.981445 738.027344 L 566.972656 732.929687 L 567.963867 727.973633 L 567.963867 723.017578 L 568.955078 718.061523 L 569.946289 712.963867 L 569.946289 680.961914 L 567.963867 671.049805 L 567.963867 665.952148 L 565.981445 656.040039 L 564.990234 650.942383 L 563.999023 645.986328 L 562.016602 641.030273 L 561.025391 635.932617 L 557.060547 626.020508 L 553.945312 616.958008 L 549.980469 608.037109 L 546.015625 599.96582 L 541.05957 591.044922 L 534.970703 582.973633 L 530.014648 574.052734 L 522.93457 566.972656 L 516.987305 559.042969 L 509.057617 551.962891 L 502.96875 546.015625 L 495.039062 538.935547 L 487.958984 532.988281 L 479.038086 527.041016 L 470.966797 521.943359 L 462.045898 516.987305 L 452.983398 512.03125 L 444.0625 508.066406 L 435 503.959961 L 424.946289 500.986328 L 415.03418 499.003906 L 409.936523 498.012695 L 404.980469 496.030273 L 395.068359 494.047852 L 389.970703 493.056641 L 373.969727 493.056641 L 369.013672 492.06543 L 364.057617 492.06543 C 363.066406 492.06543 361.933594 492.06543 360.942383 490.932617 L 364.057617 492.06543 L 357.96875 492.06543 L 353.012695 493.056641 L 337.011719 493.056641 L 332.055664 494.047852 L 326.958008 495.039062 L 317.045898 497.021484 L 311.948242 499.003906 L 302.036133 500.986328 L 291.982422 503.959961 L 283.061523 508.066406 L 273.999023 512.03125 L 264.936523 516.987305 L 256.015625 521.943359 L 247.944336 527.041016 L 240.014648 532.988281 L 232.93457 538.935547 L 225.004883 546.015625 L 216.933594 551.962891 L 210.986328 559.042969 L 204.047852 566.972656 L 197.958984 574.052734 L 192.011719 582.973633 L 187.055664 591.044922 L 181.958008 599.96582 L 177.001953 608.037109 L 174.02832 616.958008 L 168.930664 626.020508 L 165.957031 635.932617 L 164.96582 641.030273 L 163.974609 645.986328 L 161.992187 650.942383 L 161.000977 656.040039 L 159.018555 665.952148 L 158.027344 671.049805 L 158.027344 686.05957 L 157.036133 692.006836 L 157.036133 696.962891 C 157.036133 697.954102 157.036133 698.945312 156.044922 699.936523 C 155.053711 699.936523 154.0625 699.936523 152.929687 699.936523 Z M 152.929687 699.936523 " transform="matrix(0.0275862, 0, 0, 0.0275862, 0, 0)"/>
<path fill-rule="nonzero" fill="rgb(100%, 0%, 0%)" fill-opacity="1" d="M 8.027344 12.25 C 8.027344 11.890625 8.332031 11.585938 8.71875 11.585938 L 11.367188 11.585938 C 11.722656 11.585938 12 11.890625 12 12.25 L 12 16.660156 C 12 17.019531 11.722656 17.324219 11.367188 17.324219 L 8.71875 17.324219 C 8.332031 17.324219 8.027344 17.019531 8.027344 16.660156 Z M 8.027344 12.25 "/>
<path fill-rule="nonzero" fill="rgb(100%, 0%, 0%)" fill-opacity="1" stroke-width="1" stroke-linecap="butt" stroke-linejoin="miter" stroke="rgb(100%, 0%, 0%)" stroke-opacity="1" stroke-miterlimit="4" d="M 289.008789 444.0625 L 289.008789 438.964844 L 290 435.991211 L 290.991211 434.008789 L 290.991211 431.035156 L 294.956055 427.070312 L 296.938477 424.946289 L 297.929687 423.955078 L 301.044922 421.972656 L 302.036133 419.990234 L 305.009766 418.999023 L 306.992187 418.999023 L 309.96582 418.007812 L 311.948242 418.007812 L 315.063477 417.016602 L 412.060547 417.016602 L 414.042969 418.007812 L 417.016602 418.007812 L 418.999023 418.999023 L 421.972656 418.999023 L 423.955078 419.990234 L 427.070312 421.972656 L 430.043945 424.946289 L 432.026367 427.070312 L 434.008789 429.052734 L 435 431.035156 L 435.991211 434.008789 L 436.982422 435.991211 L 437.973633 438.964844 L 438.964844 440.947266 L 438.964844 606.054687 L 437.973633 609.02832 L 436.982422 611.010742 L 435.991211 613.984375 L 435 615.966797 L 434.008789 618.94043 L 433.017578 621.064453 L 431.035156 622.055664 L 429.052734 625.029297 L 427.070312 626.020508 L 423.955078 627.011719 L 421.972656 628.00293 L 418.999023 628.994141 L 417.016602 629.985352 L 414.042969 630.976562 L 312.939453 630.976562 L 306.992187 628.994141 L 301.044922 626.020508 L 297.929687 625.029297 L 296.938477 623.046875 L 294.956055 621.064453 L 292.973633 618.94043 L 291.982422 615.966797 L 290.991211 614.975586 L 290 612.001953 L 289.008789 610.019531 Z M 293.964844 603.930664 L 293.964844 605.063477 L 294.956055 608.037109 L 294.956055 610.019531 L 296.938477 613.984375 L 296.938477 615.966797 L 299.0625 616.958008 L 302.036133 619.931641 L 303.027344 621.064453 L 310.957031 625.029297 L 416.025391 625.029297 L 423.955078 621.064453 L 424.946289 621.064453 L 427.070312 618.94043 L 428.061523 616.958008 L 429.052734 615.966797 L 433.017578 608.037109 L 433.017578 439.956055 L 429.052734 432.026367 L 429.052734 430.043945 L 427.070312 429.052734 L 424.946289 428.061523 L 423.955078 425.9375 L 419.990234 423.955078 L 416.025391 423.955078 L 414.042969 422.963867 L 311.948242 422.963867 L 308.974609 423.955078 L 306.992187 423.955078 L 306.000977 424.946289 L 304.018555 425.9375 L 302.036133 428.061523 L 301.044922 429.052734 L 299.0625 430.043945 L 297.929687 432.026367 L 296.938477 434.008789 L 295.947266 435 L 294.956055 437.973633 L 294.956055 439.956055 L 293.964844 441.938477 Z M 293.964844 603.930664 " transform="matrix(0.0275862, 0, 0, 0.0275862, 0, 0)"/>
<path fill-rule="nonzero" fill="rgb(100%, 0%, 0%)" fill-opacity="1" d="M 9.1875 10.925781 C 9.1875 9.515625 9.792969 8.25 10.8125 7.503906 C 12.027344 6.621094 13.574219 6.621094 14.757812 7.503906 C 15.808594 8.25 17.324219 9.792969 17.324219 11.199219 L 16.21875 10.953125 C 16.21875 10.234375 14.34375 9.488281 13.847656 9.074219 C 13.214844 8.496094 12.359375 8.496094 11.722656 9.074219 C 11.253906 9.488281 10.980469 10.207031 10.980469 10.925781 Z M 9.1875 10.925781 "/>
<path fill-rule="nonzero" fill="rgb(100%, 0%, 0%)" fill-opacity="1" d="M 15.144531 7.863281 L 18.566406 10.953125 L 17.351562 12.277344 L 13.929688 9.1875 Z M 15.144531 7.863281 "/>
<path fill-rule="nonzero" fill="rgb(100%, 0%, 0%)" fill-opacity="1" d="M 21.433594 11.75 C 21.488281 12.882812 21.683594 12.386719 22.289062 12.164062 C 22.070312 13.628906 22.125 13.074219 20.660156 13.324219 C 19.421875 13.488281 18.070312 13.019531 17.101562 12.054688 L 18.371094 10.785156 C 18.898438 11.28125 19.558594 11.558594 20.191406 11.558594 C 21.046875 11.503906 20.992188 13.019531 21.019531 12.164062 C 21.074219 11.558594 21.515625 12.277344 21.019531 11.75 Z M 21.433594 11.75 "/>
<path fill-rule="nonzero" fill="rgb(100%, 0%, 0%)" fill-opacity="1" d="M 19.890625 11.558594 L 19.890625 13.351562 L 22.289062 13.351562 L 22.289062 11.558594 Z M 19.890625 11.558594 "/>
<path fill-rule="nonzero" fill="rgb(100%, 0%, 0%)" fill-opacity="1" stroke-width="1" stroke-linecap="butt" stroke-linejoin="miter" stroke="rgb(100%, 0%, 0%)" stroke-opacity="1" stroke-miterlimit="4" d="M 720.043945 429.052734 L 806.987305 429.052734 L 806.987305 431.035156 L 720.043945 431.035156 Z M 720.043945 429.052734 " transform="matrix(0.0275862, 0, 0, 0.0275862, 0, 0)"/>
<path fill-rule="nonzero" fill="rgb(100%, 0%, 0%)" fill-opacity="1" stroke-width="1" stroke-linecap="butt" stroke-linejoin="miter" stroke="rgb(100%, 0%, 0%)" stroke-opacity="1" stroke-miterlimit="4" d="M 846.069336 441.938477 L 1020.947266 441.938477 L 1020.947266 448.027344 L 846.069336 448.027344 Z M 846.069336 441.938477 " transform="matrix(0.0275862, 0, 0, 0.0275862, 0, 0)"/>
<path fill-rule="nonzero" fill="rgb(100%, 0%, 0%)" fill-opacity="1" stroke-width="1" stroke-linecap="butt" stroke-linejoin="miter" stroke="rgb(100%, 0%, 0%)" stroke-opacity="1" stroke-miterlimit="4" d="M 848.051758 483.00293 L 998.007812 573.061523 L 994.042969 578.017578 L 844.936523 487.958984 Z M 848.051758 483.00293 " transform="matrix(0.0275862, 0, 0, 0.0275862, 0, 0)"/>
<path fill-rule="nonzero" fill="rgb(100%, 0%, 0%)" fill-opacity="1" stroke-width="1" stroke-linecap="butt" stroke-linejoin="miter" stroke="rgb(100%, 0%, 0%)" stroke-opacity="1" stroke-miterlimit="4" d="M 842.954102 403.989258 L 993.051758 313.930664 L 996.025391 319.02832 L 846.069336 408.945312 Z M 842.954102 403.989258 " transform="matrix(0.0275862, 0, 0, 0.0275862, 0, 0)"/>
<path fill-rule="nonzero" fill="rgb(100%, 0%, 0%)" fill-opacity="1" stroke-width="1" stroke-linecap="butt" stroke-linejoin="miter" stroke="rgb(100%, 0%, 0%)" stroke-opacity="1" stroke-miterlimit="4" d="M 819.023437 510.048828 L 901.010742 663.969727 L 896.054687 667.93457 L 812.93457 514.013672 Z M 819.023437 510.048828 " transform="matrix(0.0275862, 0, 0, 0.0275862, 0, 0)"/>
<path fill-rule="nonzero" fill="rgb(100%, 0%, 0%)" fill-opacity="1" stroke-width="1" stroke-linecap="butt" stroke-linejoin="miter" stroke="rgb(100%, 0%, 0%)" stroke-opacity="1" stroke-miterlimit="4" d="M 812.93457 382.041016 L 896.054687 227.978516 L 901.010742 230.952148 L 819.023437 385.014648 Z M 812.93457 382.041016 " transform="matrix(0.0275862, 0, 0, 0.0275862, 0, 0)"/>
<path fill-rule="nonzero" fill="rgb(100%, 0%, 0%)" fill-opacity="1" stroke-width="1" stroke-linecap="butt" stroke-linejoin="miter" stroke="rgb(100%, 0%, 0%)" stroke-opacity="1" stroke-miterlimit="4" d="M 773.00293 389.970703 L 717.070312 225.004883 L 722.026367 223.022461 L 778.950195 387.988281 Z M 773.00293 389.970703 " transform="matrix(0.0275862, 0, 0, 0.0275862, 0, 0)"/>
<path fill-rule="nonzero" fill="rgb(100%, 0%, 0%)" fill-opacity="1" stroke-width="1" stroke-linecap="butt" stroke-linejoin="miter" stroke="rgb(100%, 0%, 0%)" stroke-opacity="1" stroke-miterlimit="4" d="M 778.950195 508.066406 L 722.026367 673.032227 L 717.070312 670.058594 L 773.00293 504.951172 Z M 778.950195 508.066406 " transform="matrix(0.0275862, 0, 0, 0.0275862, 0, 0)"/>
<path fill-rule="nonzero" fill="rgb(100%, 0%, 0%)" fill-opacity="1" stroke-width="1" stroke-linecap="butt" stroke-linejoin="miter" stroke="rgb(100%, 0%, 0%)" stroke-opacity="1" stroke-miterlimit="4" d="M 25.063477 19.96582 L 1132.954102 19.96582 L 1132.954102 1128.989258 L 25.063477 1128.989258 Z M 67.96875 1108.032227 L 47.011719 1085.942383 L 1111.99707 1085.942383 L 1090.048828 1108.032227 L 1090.048828 42.055664 L 1111.99707 63.012695 L 47.011719 63.012695 L 67.96875 42.055664 Z M 67.96875 1108.032227 " transform="matrix(0.0275862, 0, 0, 0.0275862, 0, 0)"/>
</svg>
