<?xml version="1.0" encoding="UTF-8"?>
<svg xmlns="http://www.w3.org/2000/svg" xmlns:xlink="http://www.w3.org/1999/xlink" width="32" height="32" viewBox="0 0 32 32">
<path fill-rule="nonzero" fill="rgb(100%, 0%, 0%)" fill-opacity="1" stroke-width="2" stroke-linecap="butt" stroke-linejoin="miter" stroke="rgb(100%, 0%, 0%)" stroke-opacity="1" stroke-miterlimit="4" d="M 659.013672 46.020508 L 584.956055 128.007812 L 560.03418 157.036133 L 551.962891 170.063477 L 543.041992 180.966797 L 536.953125 192.011719 L 531.99707 205.039062 L 528.032227 215.942383 L 524.067383 227.978516 L 517.978516 256.015625 L 512.03125 289.008789 L 510.048828 312.939453 L 510.048828 337.011719 L 511.040039 358.959961 L 515.004883 380.058594 L 521.943359 399.033203 L 529.023437 418.999023 L 549.980469 456.948242 L 576.035156 490.932617 L 606.054687 525.058594 L 672.041016 587.929687 L 738.027344 651.933594 L 767.055664 685.068359 L 791.977539 720.043945 L 812.93457 757.001953 L 821.005859 776.967773 L 825.961914 796.933594 L 830.068359 817.041016 L 832.050781 838.989258 L 832.050781 864.052734 L 828.935547 887.983398 L 823.979492 907.949219 L 817.041016 928.056641 L 807.978516 947.03125 L 795.942383 965.014648 L 782.06543 982.006836 L 767.055664 998.007812 L 747.939453 1014.008789 L 726.982422 1027.036133 L 703.051758 1041.054687 L 678.979492 1052.949219 L 650.942383 1063.00293 L 621.064453 1072.06543 L 589.0625 1079.995117 L 553.945312 1085.942383 L 478.046875 1094.013672 L 553.945312 1013.017578 L 577.026367 982.998047 L 586.938477 969.970703 L 595.009766 959.067383 L 601.948242 948.022461 L 607.045898 935.986328 L 611.010742 924.941406 L 613.984375 912.055664 L 619.931641 885.009766 L 625.029297 851.025391 L 628.994141 826.953125 L 628.994141 804.013672 L 626.020508 782.06543 L 622.055664 760.966797 L 616.958008 740.009766 L 608.037109 721.035156 L 587.929687 683.935547 L 562.016602 648.959961 L 532.988281 614.975586 L 467.001953 551.962891 L 401.015625 487.958984 L 371.987305 455.957031 L 345.932617 420.981445 L 325.966797 384.023437 L 317.045898 364.057617 L 310.957031 343.950195 L 306.992187 322.001953 L 305.009766 300.053711 L 305.009766 275.981445 L 308.974609 253.041992 L 312.939453 231.943359 L 320.019531 212.96875 L 329.931641 193.994141 L 341.967773 175.019531 L 354.995117 158.027344 L 371.987305 143.017578 L 390.961914 126.025391 L 411.069336 112.998047 L 434.008789 99.970703 L 460.063477 87.93457 L 487.958984 78.022461 L 517.978516 67.96875 L 549.980469 60.039062 L 583.964844 53.950195 Z M 659.013672 46.020508 " transform="matrix(0.0275862, 0, 0, 0.0275862, 0, 0)"/>
</svg>
