<?xml version="1.0" encoding="UTF-8"?>
<svg xmlns="http://www.w3.org/2000/svg" xmlns:xlink="http://www.w3.org/1999/xlink" width="32" height="32" viewBox="0 0 32 32">
<path fill-rule="nonzero" fill="rgb(100%, 60%, 0%)" fill-opacity="1" d="M 31.171875 29.046875 C 21.074219 29.046875 10.953125 29.046875 0.855469 29.046875 C 5.902344 20.359375 10.953125 11.640625 16.027344 2.953125 C 21.074219 11.640625 26.125 20.359375 31.171875 29.046875 Z M 27.367188 27.144531 C 23.585938 20.578125 19.808594 13.984375 16.027344 7.421875 C 12.25 13.984375 8.46875 20.578125 4.691406 27.144531 C 12.25 27.144531 19.808594 27.144531 27.367188 27.144531 Z M 27.367188 27.144531 "/>
<path fill-rule="nonzero" fill="rgb(100%, 60%, 0%)" fill-opacity="1" d="M 17.460938 22.207031 L 18.566406 22.539062 C 18.398438 23.171875 18.125 23.613281 17.738281 23.917969 C 17.324219 24.21875 16.828125 24.359375 16.25 24.359375 C 15.503906 24.359375 14.898438 24.109375 14.398438 23.613281 C 13.929688 23.089844 13.683594 22.398438 13.683594 21.488281 C 13.683594 20.550781 13.929688 19.835938 14.425781 19.308594 C 14.898438 18.785156 15.53125 18.539062 16.304688 18.539062 C 16.992188 18.539062 17.542969 18.730469 17.984375 19.144531 C 18.234375 19.394531 18.425781 19.722656 18.539062 20.191406 L 17.433594 20.441406 C 17.351562 20.164062 17.214844 19.917969 17.019531 19.75 C 16.800781 19.585938 16.550781 19.503906 16.25 19.503906 C 15.835938 19.503906 15.503906 19.667969 15.253906 19.945312 C 14.980469 20.25 14.867188 20.746094 14.867188 21.40625 C 14.867188 22.125 14.980469 22.648438 15.226562 22.953125 C 15.503906 23.253906 15.835938 23.394531 16.21875 23.394531 C 16.523438 23.394531 16.800781 23.308594 16.992188 23.117188 C 17.214844 22.925781 17.378906 22.621094 17.460938 22.207031 Z M 17.460938 22.207031 "/>
</svg>
