<?xml version="1.0" encoding="UTF-8"?>
<svg xmlns="http://www.w3.org/2000/svg" xmlns:xlink="http://www.w3.org/1999/xlink" width="32" height="32" viewBox="0 0 32 32">
<path fill-rule="nonzero" fill="rgb(0%, 0%, 100%)" fill-opacity="1" d="M 6.539062 1.460938 C 12.855469 1.460938 19.171875 1.460938 25.488281 1.460938 C 25.488281 11.144531 25.488281 20.855469 25.488281 30.539062 C 19.171875 30.539062 12.855469 30.539062 6.539062 30.539062 C 6.539062 20.855469 6.539062 11.144531 6.539062 1.460938 Z M 8.800781 29.378906 C 8.414062 28.992188 8.054688 28.632812 7.667969 28.25 C 13.242188 28.25 18.785156 28.25 24.359375 28.25 C 23.972656 28.632812 23.613281 28.992188 23.226562 29.378906 C 23.226562 20.441406 23.226562 11.53125 23.226562 2.59375 C 23.613281 2.980469 23.972656 3.339844 24.359375 3.722656 C 18.785156 3.722656 13.242188 3.722656 7.667969 3.722656 C 8.054688 3.339844 8.414062 2.980469 8.800781 2.59375 C 8.800781 11.53125 8.800781 20.441406 8.800781 29.378906 Z M 8.800781 29.378906 "/>
<path fill="none" stroke-width="1" stroke-linecap="butt" stroke-linejoin="miter" stroke="rgb(0%, 0%, 100%)" stroke-opacity="1" stroke-miterlimit="4" d="M 237.041016 52.958984 C 466.010742 52.958984 694.980469 52.958984 923.950195 52.958984 C 923.950195 403.989258 923.950195 756.010742 923.950195 1107.041016 C 694.980469 1107.041016 466.010742 1107.041016 237.041016 1107.041016 C 237.041016 756.010742 237.041016 403.989258 237.041016 52.958984 Z M 237.041016 52.958984 " transform="matrix(0.0275862, 0, 0, 0.0275862, 0, 0)"/>
<path fill="none" stroke-width="1" stroke-linecap="butt" stroke-linejoin="miter" stroke="rgb(0%, 0%, 100%)" stroke-opacity="1" stroke-miterlimit="4" d="M 319.02832 1064.985352 C 305.009766 1050.966797 291.982422 1037.939453 277.963867 1024.0625 C 480.029297 1024.0625 680.961914 1024.0625 883.027344 1024.0625 C 869.008789 1037.939453 855.981445 1050.966797 841.962891 1064.985352 C 841.962891 741.000977 841.962891 418.007812 841.962891 94.023437 C 855.981445 108.041992 869.008789 121.069336 883.027344 134.946289 C 680.961914 134.946289 480.029297 134.946289 277.963867 134.946289 C 291.982422 121.069336 305.009766 108.041992 319.02832 94.023437 C 319.02832 418.007812 319.02832 741.000977 319.02832 1064.985352 Z M 319.02832 1064.985352 " transform="matrix(0.0275862, 0, 0, 0.0275862, 0, 0)"/>
<path fill-rule="nonzero" fill="rgb(0%, 0%, 100%)" fill-opacity="1" d="M 8.550781 17.242188 C 13.65625 17.242188 18.730469 17.242188 23.835938 17.242188 C 23.835938 17.738281 23.835938 18.207031 23.835938 18.703125 C 18.730469 18.703125 13.65625 18.703125 8.550781 18.703125 C 8.550781 18.207031 8.550781 17.738281 8.550781 17.242188 Z M 8.550781 17.242188 "/>
<path fill-rule="nonzero" fill="rgb(0%, 0%, 100%)" fill-opacity="1" stroke-width="1" stroke-linecap="butt" stroke-linejoin="round" stroke="rgb(0%, 0%, 100%)" stroke-opacity="1" stroke-miterlimit="4" d="M 309.96582 625.029297 C 495.039062 625.029297 678.979492 625.029297 864.052734 625.029297 C 864.052734 643.012695 864.052734 660.004883 864.052734 677.988281 C 678.979492 677.988281 495.039062 677.988281 309.96582 677.988281 C 309.96582 660.004883 309.96582 643.012695 309.96582 625.029297 Z M 309.96582 625.029297 " transform="matrix(0.0275862, 0, 0, 0.0275862, 0, 0)"/>
<path fill-rule="nonzero" fill="rgb(0%, 0%, 100%)" fill-opacity="1" d="M 8.660156 14.179688 C 13.765625 14.179688 18.839844 14.179688 23.945312 14.179688 C 23.945312 14.675781 23.945312 15.144531 23.945312 15.640625 C 18.839844 15.640625 13.765625 15.640625 8.660156 15.640625 C 8.660156 15.144531 8.660156 14.675781 8.660156 14.179688 Z M 8.660156 14.179688 "/>
<path fill-rule="nonzero" fill="rgb(0%, 0%, 100%)" fill-opacity="1" stroke-width="1" stroke-linecap="butt" stroke-linejoin="round" stroke="rgb(0%, 0%, 100%)" stroke-opacity="1" stroke-miterlimit="4" d="M 313.930664 514.013672 C 499.003906 514.013672 682.944336 514.013672 868.017578 514.013672 C 868.017578 531.99707 868.017578 548.989258 868.017578 566.972656 C 682.944336 566.972656 499.003906 566.972656 313.930664 566.972656 C 313.930664 548.989258 313.930664 531.99707 313.930664 514.013672 Z M 313.930664 514.013672 " transform="matrix(0.0275862, 0, 0, 0.0275862, 0, 0)"/>
<path fill-rule="nonzero" fill="rgb(0%, 0%, 100%)" fill-opacity="1" d="M 15.972656 21.296875 C 15.835938 21.1875 15.722656 21.074219 15.585938 20.964844 C 15.53125 20.910156 15.449219 20.882812 15.394531 20.828125 C 15.394531 20.828125 15.421875 20.855469 15.421875 20.855469 C 15.367188 20.828125 15.28125 20.773438 15.226562 20.746094 C 15.226562 20.746094 15.253906 20.746094 15.253906 20.746094 C 15.199219 20.71875 15.144531 20.71875 15.089844 20.691406 C 15.117188 20.691406 15.117188 20.71875 15.144531 20.71875 C 15.035156 20.660156 14.953125 20.632812 14.839844 20.578125 C 14.867188 20.578125 14.867188 20.605469 14.898438 20.605469 C 14.785156 20.578125 14.675781 20.550781 14.566406 20.523438 C 14.59375 20.523438 14.59375 20.523438 14.621094 20.523438 C 14.398438 20.523438 14.179688 20.496094 13.957031 20.496094 C 13.984375 20.496094 14.015625 20.496094 14.042969 20.496094 C 13.820312 20.523438 13.601562 20.578125 13.378906 20.605469 C 13.40625 20.605469 13.460938 20.605469 13.488281 20.605469 C 13.269531 20.691406 13.074219 20.773438 12.855469 20.855469 C 12.910156 20.828125 12.964844 20.773438 13.019531 20.746094 C 12.882812 20.882812 12.773438 21.046875 12.632812 21.1875 C 12.660156 21.1875 12.660156 21.160156 12.691406 21.160156 C 12.605469 21.296875 12.496094 21.433594 12.414062 21.574219 C 12.441406 21.542969 12.441406 21.488281 12.46875 21.460938 C 12.46875 21.542969 12.441406 21.65625 12.441406 21.738281 C 12.441406 21.710938 12.441406 21.683594 12.441406 21.65625 C 12.441406 21.738281 12.441406 21.847656 12.441406 21.929688 C 12.441406 21.902344 12.441406 21.902344 12.441406 21.875 C 12.46875 21.957031 12.46875 22.042969 12.496094 22.125 C 12.496094 22.125 12.496094 22.097656 12.496094 22.097656 C 12.523438 22.179688 12.550781 22.261719 12.578125 22.34375 C 12.550781 22.289062 12.523438 22.261719 12.496094 22.207031 C 13.765625 23.640625 15.007812 25.101562 16.277344 26.539062 C 16.054688 26.539062 15.863281 26.539062 15.640625 26.539062 C 16.882812 25.101562 18.152344 23.640625 19.394531 22.207031 C 19.367188 22.234375 19.339844 22.289062 19.308594 22.316406 C 19.339844 22.234375 19.394531 22.125 19.421875 22.042969 C 19.421875 22.070312 19.394531 22.097656 19.394531 22.125 C 19.421875 22.042969 19.421875 21.957031 19.449219 21.875 C 19.449219 21.875 19.449219 21.902344 19.449219 21.902344 C 19.449219 21.820312 19.476562 21.738281 19.476562 21.65625 C 19.476562 21.683594 19.449219 21.683594 19.449219 21.710938 C 19.449219 21.628906 19.449219 21.515625 19.449219 21.433594 C 19.449219 21.488281 19.476562 21.515625 19.476562 21.574219 C 19.449219 21.488281 19.421875 21.40625 19.394531 21.324219 C 19.394531 21.351562 19.421875 21.378906 19.421875 21.40625 C 19.367188 21.324219 19.28125 21.269531 19.226562 21.1875 C 19.253906 21.1875 19.253906 21.214844 19.28125 21.214844 C 19.144531 21.074219 19.007812 20.910156 18.867188 20.773438 C 18.925781 20.800781 18.953125 20.828125 19.007812 20.855469 C 18.785156 20.773438 18.59375 20.691406 18.371094 20.605469 C 18.398438 20.605469 18.457031 20.605469 18.484375 20.605469 C 18.261719 20.578125 18.070312 20.523438 17.847656 20.496094 C 17.875 20.496094 17.929688 20.496094 17.957031 20.496094 C 17.738281 20.496094 17.488281 20.523438 17.269531 20.523438 C 17.296875 20.523438 17.296875 20.523438 17.324219 20.523438 C 17.214844 20.550781 17.101562 20.578125 16.992188 20.605469 C 17.019531 20.605469 17.019531 20.578125 17.046875 20.578125 C 16.964844 20.632812 16.855469 20.660156 16.773438 20.71875 C 16.773438 20.71875 16.800781 20.691406 16.800781 20.691406 C 16.746094 20.71875 16.71875 20.71875 16.660156 20.746094 C 16.660156 20.746094 16.691406 20.746094 16.691406 20.746094 C 16.632812 20.773438 16.550781 20.828125 16.496094 20.855469 C 16.496094 20.855469 16.523438 20.828125 16.523438 20.828125 C 16.441406 20.882812 16.386719 20.9375 16.304688 20.992188 C 16.304688 20.992188 16.332031 20.964844 16.332031 20.964844 C 16.21875 21.074219 16.082031 21.1875 15.972656 21.296875 Z M 15.835938 20.359375 C 15.917969 20.304688 15.972656 20.277344 16.054688 20.21875 C 16.136719 20.164062 16.191406 20.136719 16.277344 20.082031 C 16.332031 20.027344 16.414062 20 16.46875 19.945312 C 16.578125 19.917969 16.691406 19.863281 16.800781 19.835938 C 16.9375 19.808594 17.074219 19.808594 17.214844 19.78125 C 17.460938 19.75 17.710938 19.722656 17.957031 19.695312 C 18.207031 19.75 18.457031 19.808594 18.703125 19.863281 C 18.953125 19.972656 19.171875 20.054688 19.421875 20.164062 C 19.585938 20.359375 19.722656 20.523438 19.890625 20.71875 C 19.945312 20.800781 20.027344 20.882812 20.082031 20.964844 C 20.136719 21.074219 20.164062 21.1875 20.21875 21.296875 C 20.25 21.433594 20.25 21.542969 20.277344 21.683594 C 20.25 21.792969 20.25 21.875 20.21875 21.984375 C 20.191406 22.097656 20.164062 22.234375 20.136719 22.34375 C 20.082031 22.457031 20.054688 22.566406 20 22.675781 C 18.648438 24.25 17.324219 25.847656 15.972656 27.421875 C 14.59375 25.820312 13.242188 24.25 11.863281 22.648438 C 11.808594 22.539062 11.78125 22.457031 11.722656 22.34375 C 11.695312 22.234375 11.695312 22.097656 11.667969 21.984375 C 11.667969 21.875 11.667969 21.765625 11.667969 21.65625 C 11.667969 21.542969 11.695312 21.40625 11.695312 21.296875 C 11.808594 21.101562 11.890625 20.910156 12 20.71875 C 12.164062 20.523438 12.304688 20.359375 12.46875 20.164062 C 12.71875 20.054688 12.9375 19.972656 13.1875 19.863281 C 13.433594 19.808594 13.710938 19.75 13.957031 19.695312 C 14.207031 19.722656 14.425781 19.75 14.675781 19.78125 C 14.8125 19.808594 14.953125 19.808594 15.089844 19.835938 C 15.199219 19.863281 15.339844 19.917969 15.449219 19.945312 C 15.503906 20 15.585938 20.027344 15.640625 20.082031 C 15.695312 20.136719 15.78125 20.164062 15.835938 20.21875 C 15.917969 20.277344 15.972656 20.304688 16.054688 20.359375 C 16.109375 20.414062 16.164062 20.441406 16.21875 20.496094 C 16.054688 20.496094 15.863281 20.496094 15.695312 20.496094 C 15.75 20.441406 15.78125 20.414062 15.835938 20.359375 Z M 15.835938 20.359375 "/>
<path fill="none" stroke-width="1" stroke-linecap="butt" stroke-linejoin="miter" stroke="rgb(0%, 0%, 100%)" stroke-opacity="1" stroke-miterlimit="4" d="M 579.008789 772.011719 C 574.052734 768.046875 569.946289 763.94043 564.990234 759.975586 C 563.007812 757.993164 560.03418 757.001953 558.051758 755.019531 C 558.051758 755.019531 559.042969 756.010742 559.042969 756.010742 C 557.060547 755.019531 553.945312 753.037109 551.962891 752.045898 C 551.962891 752.045898 552.954102 752.045898 552.954102 752.045898 C 550.97168 751.054687 548.989258 751.054687 547.006836 750.063477 C 547.998047 750.063477 547.998047 751.054687 548.989258 751.054687 C 545.024414 748.930664 542.050781 747.939453 537.944336 745.957031 C 538.935547 745.957031 538.935547 746.948242 540.068359 746.948242 C 535.961914 745.957031 531.99707 744.96582 528.032227 743.974609 C 529.023437 743.974609 529.023437 743.974609 530.014648 743.974609 C 521.943359 743.974609 514.013672 742.983398 505.942383 742.983398 C 506.933594 742.983398 508.066406 742.983398 509.057617 742.983398 C 500.986328 743.974609 493.056641 745.957031 484.985352 746.948242 C 485.976562 746.948242 487.958984 746.948242 488.950195 746.948242 C 481.020508 750.063477 473.94043 753.037109 466.010742 756.010742 C 467.993164 755.019531 469.975586 753.037109 471.958008 752.045898 C 467.001953 757.001953 463.037109 762.949219 457.939453 768.046875 C 458.930664 768.046875 458.930664 767.055664 460.063477 767.055664 C 456.948242 772.011719 452.983398 776.967773 450.009766 782.06543 C 451.000977 780.932617 451.000977 778.950195 451.992187 777.958984 C 451.992187 780.932617 451.000977 785.039062 451.000977 788.012695 C 451.000977 787.021484 451.000977 786.030273 451.000977 785.039062 C 451.000977 788.012695 451.000977 791.977539 451.000977 794.951172 C 451.000977 793.959961 451.000977 793.959961 451.000977 792.96875 C 451.992187 795.942383 451.992187 799.057617 452.983398 802.03125 C 452.983398 802.03125 452.983398 801.040039 452.983398 801.040039 C 453.974609 804.013672 454.96582 806.987305 455.957031 809.960937 C 454.96582 807.978516 453.974609 806.987305 452.983398 805.004883 C 499.003906 856.972656 544.033203 909.931641 590.053711 962.041016 C 581.982422 962.041016 575.043945 962.041016 566.972656 962.041016 C 612.001953 909.931641 658.022461 856.972656 703.051758 805.004883 C 702.060547 805.996094 701.069336 807.978516 699.936523 808.969727 C 701.069336 805.996094 703.051758 802.03125 704.042969 799.057617 C 704.042969 800.048828 703.051758 801.040039 703.051758 802.03125 C 704.042969 799.057617 704.042969 795.942383 705.03418 792.96875 C 705.03418 792.96875 705.03418 793.959961 705.03418 793.959961 C 705.03418 790.986328 706.025391 788.012695 706.025391 785.039062 C 706.025391 786.030273 705.03418 786.030273 705.03418 787.021484 C 705.03418 784.047852 705.03418 779.941406 705.03418 776.967773 C 705.03418 778.950195 706.025391 779.941406 706.025391 782.06543 C 705.03418 778.950195 704.042969 775.976562 703.051758 773.00293 C 703.051758 773.994141 704.042969 774.985352 704.042969 775.976562 C 702.060547 773.00293 698.945312 771.020508 696.962891 768.046875 C 697.954102 768.046875 697.954102 769.038086 698.945312 769.038086 C 693.989258 763.94043 689.033203 757.993164 683.935547 753.037109 C 686.05957 754.02832 687.050781 755.019531 689.033203 756.010742 C 680.961914 753.037109 674.023437 750.063477 665.952148 746.948242 C 666.943359 746.948242 669.067383 746.948242 670.058594 746.948242 C 661.987305 745.957031 655.048828 743.974609 646.977539 742.983398 C 647.96875 742.983398 649.951172 742.983398 650.942383 742.983398 C 643.012695 742.983398 633.950195 743.974609 626.020508 743.974609 C 627.011719 743.974609 627.011719 743.974609 628.00293 743.974609 C 624.038086 744.96582 619.931641 745.957031 615.966797 746.948242 C 616.958008 746.948242 616.958008 745.957031 617.949219 745.957031 C 614.975586 747.939453 611.010742 748.930664 608.037109 751.054687 C 608.037109 751.054687 609.02832 750.063477 609.02832 750.063477 C 607.045898 751.054687 606.054687 751.054687 603.930664 752.045898 C 603.930664 752.045898 605.063477 752.045898 605.063477 752.045898 C 602.939453 753.037109 599.96582 755.019531 597.983398 756.010742 C 597.983398 756.010742 598.974609 755.019531 598.974609 755.019531 C 596.000977 757.001953 594.018555 758.984375 591.044922 760.966797 C 591.044922 760.966797 592.036133 759.975586 592.036133 759.975586 C 587.929687 763.94043 582.973633 768.046875 579.008789 772.011719 Z M 579.008789 772.011719 " transform="matrix(0.0275862, 0, 0, 0.0275862, 0, 0)"/>
<path fill="none" stroke-width="1" stroke-linecap="butt" stroke-linejoin="miter" stroke="rgb(0%, 0%, 100%)" stroke-opacity="1" stroke-miterlimit="4" d="M 574.052734 738.027344 C 577.026367 736.044922 579.008789 735.053711 581.982422 732.929687 C 584.956055 730.947266 586.938477 729.956055 590.053711 727.973633 C 592.036133 725.991211 595.009766 725 596.992187 723.017578 C 600.957031 722.026367 605.063477 720.043945 609.02832 719.052734 C 613.984375 718.061523 618.94043 718.061523 624.038086 717.070312 C 632.958984 715.9375 642.021484 714.946289 650.942383 713.955078 C 660.004883 715.9375 669.067383 718.061523 677.988281 720.043945 C 687.050781 724.008789 694.980469 726.982422 704.042969 730.947266 C 709.990234 738.027344 714.946289 743.974609 721.035156 751.054687 C 723.017578 754.02832 725.991211 757.001953 727.973633 759.975586 C 729.956055 763.94043 730.947266 768.046875 732.929687 772.011719 C 734.0625 776.967773 734.0625 780.932617 735.053711 786.030273 C 734.0625 789.995117 734.0625 792.96875 732.929687 796.933594 C 731.938477 801.040039 730.947266 805.996094 729.956055 809.960937 C 727.973633 814.067383 726.982422 818.032227 725 821.99707 C 676.005859 879.0625 628.00293 936.977539 579.008789 994.042969 C 529.023437 935.986328 480.029297 879.0625 430.043945 821.005859 C 428.061523 817.041016 427.070312 814.067383 424.946289 809.960937 C 423.955078 805.996094 423.955078 801.040039 422.963867 796.933594 C 422.963867 792.96875 422.963867 789.003906 422.963867 785.039062 C 422.963867 780.932617 423.955078 775.976562 423.955078 772.011719 C 428.061523 764.931641 431.035156 757.993164 435 751.054687 C 440.947266 743.974609 446.044922 738.027344 451.992187 730.947266 C 461.054687 726.982422 468.984375 724.008789 478.046875 720.043945 C 486.967773 718.061523 497.021484 715.9375 505.942383 713.955078 C 515.004883 714.946289 522.93457 715.9375 531.99707 717.070312 C 536.953125 718.061523 542.050781 718.061523 547.006836 719.052734 C 550.97168 720.043945 556.069336 722.026367 560.03418 723.017578 C 562.016602 725 564.990234 725.991211 566.972656 727.973633 C 568.955078 729.956055 572.070312 730.947266 574.052734 732.929687 C 577.026367 735.053711 579.008789 736.044922 581.982422 738.027344 C 583.964844 740.009766 585.947266 741.000977 587.929687 742.983398 C 581.982422 742.983398 575.043945 742.983398 568.955078 742.983398 C 570.9375 741.000977 572.070312 740.009766 574.052734 738.027344 Z M 574.052734 738.027344 " transform="matrix(0.0275862, 0, 0, 0.0275862, 0, 0)"/>
<path fill-rule="nonzero" fill="rgb(0%, 0%, 100%)" fill-opacity="1" d="M 19.007812 12.164062 L 17.984375 12.164062 C 17.542969 12.71875 17.019531 13.101562 16.496094 13.351562 C 16.332031 13.378906 16.191406 13.378906 16.109375 13.378906 C 15.890625 13.378906 15.613281 13.324219 15.339844 13.242188 L 15.089844 13.378906 L 14.785156 13.378906 C 14.125 13.378906 13.792969 13.132812 13.792969 12.660156 C 13.792969 12.632812 13.820312 12.578125 13.820312 12.523438 C 13.324219 12.496094 13.074219 12.25 13.074219 11.835938 C 13.074219 11.78125 13.101562 11.722656 13.101562 11.640625 C 12.910156 11.585938 12.800781 11.503906 12.691406 11.394531 C 12.605469 11.28125 12.550781 11.144531 12.550781 10.953125 C 12.550781 10.8125 12.605469 10.675781 12.71875 10.511719 C 12.46875 10.261719 12.332031 9.957031 12.332031 9.628906 C 12.332031 9.269531 12.550781 8.964844 12.9375 8.71875 C 13.351562 8.496094 13.875 8.386719 14.539062 8.386719 L 14.703125 8.386719 C 14.648438 7.972656 14.511719 7.585938 14.316406 7.199219 L 14.234375 7.007812 C 13.984375 6.566406 13.875 6.207031 13.875 5.957031 C 13.875 5.296875 14.234375 4.855469 14.925781 4.691406 L 15.117188 4.632812 L 15.476562 6.152344 L 16.71875 7.503906 C 16.800781 7.613281 16.9375 7.808594 17.160156 8.082031 L 17.351562 8.332031 C 17.542969 8.605469 17.683594 8.800781 17.765625 8.855469 C 17.847656 8.910156 17.984375 8.9375 18.179688 8.9375 L 18.980469 8.9375 C 19.199219 9.460938 19.339844 10.015625 19.339844 10.566406 C 19.339844 11.089844 19.226562 11.640625 19.007812 12.164062 Z M 18.785156 11.808594 C 18.925781 11.394531 18.980469 11.007812 18.980469 10.621094 C 18.980469 10.179688 18.925781 9.738281 18.757812 9.324219 C 18.179688 9.324219 17.847656 9.269531 17.683594 9.214844 C 17.542969 9.132812 17.324219 8.910156 17.046875 8.496094 C 16.9375 8.332031 16.746094 8.109375 16.523438 7.808594 L 15.171875 6.34375 L 14.898438 5.101562 C 14.457031 5.242188 14.234375 5.542969 14.234375 5.957031 C 14.234375 6.179688 14.289062 6.425781 14.457031 6.675781 L 14.539062 6.839844 C 14.898438 7.421875 15.0625 8 15.0625 8.523438 L 15.0625 8.71875 L 14.839844 8.71875 C 14.125 8.71875 13.574219 8.800781 13.214844 8.9375 C 12.855469 9.074219 12.691406 9.296875 12.691406 9.601562 C 12.691406 9.847656 12.773438 10.070312 12.964844 10.261719 C 13.132812 10.457031 13.378906 10.539062 13.65625 10.539062 L 14.042969 10.539062 L 15.28125 9.984375 C 15.089844 9.710938 14.839844 9.542969 14.539062 9.542969 C 14.457031 9.542969 14.34375 9.574219 14.234375 9.601562 C 14.097656 9.65625 13.957031 9.710938 13.765625 9.765625 L 13.460938 9.792969 L 13.132812 9.433594 L 13.683594 9.433594 C 13.847656 9.378906 13.984375 9.324219 14.125 9.296875 C 14.261719 9.269531 14.371094 9.242188 14.484375 9.242188 C 15.0625 9.242188 15.476562 9.542969 15.75 10.125 L 15.503906 10.234375 C 15.808594 10.371094 16 10.621094 16.164062 10.980469 L 15.890625 11.089844 C 16.109375 11.226562 16.304688 11.449219 16.46875 11.78125 L 16.054688 11.972656 C 16.277344 12.136719 16.46875 12.386719 16.605469 12.691406 L 15.78125 13.046875 C 15.917969 13.074219 16.027344 13.101562 16.136719 13.101562 L 16.386719 13.101562 C 16.992188 12.746094 17.460938 12.332031 17.847656 11.808594 Z M 15.695312 10.8125 C 15.53125 10.621094 15.367188 10.484375 15.144531 10.425781 L 14.125 10.867188 L 13.765625 10.867188 C 13.433594 10.867188 13.1875 10.8125 12.992188 10.730469 C 12.9375 10.8125 12.910156 10.898438 12.910156 10.953125 C 12.910156 11.117188 12.992188 11.199219 13.132812 11.28125 C 13.269531 11.367188 13.460938 11.394531 13.738281 11.394531 L 14.457031 11.394531 Z M 15.972656 11.613281 C 15.972656 11.585938 15.945312 11.585938 15.917969 11.558594 C 15.835938 11.421875 15.695312 11.339844 15.558594 11.253906 L 14.511719 11.722656 L 13.40625 11.722656 L 13.40625 11.808594 C 13.40625 12.082031 13.65625 12.21875 14.179688 12.21875 L 14.703125 12.21875 Z M 16.136719 12.550781 C 16.082031 12.496094 16.082031 12.46875 16.054688 12.441406 C 15.972656 12.332031 15.863281 12.21875 15.722656 12.109375 L 14.757812 12.550781 L 14.152344 12.550781 L 14.152344 12.605469 C 14.152344 12.910156 14.371094 13.046875 14.785156 13.046875 L 15.007812 13.046875 Z M 16.136719 12.550781 "/>
</svg>
