<?xml version="1.0" encoding="UTF-8"?>
<svg xmlns="http://www.w3.org/2000/svg" xmlns:xlink="http://www.w3.org/1999/xlink" width="32" height="32" viewBox="0 0 32 32">
<path fill-rule="nonzero" fill="rgb(100%, 0%, 0%)" fill-opacity="1" stroke-width="1" stroke-linecap="butt" stroke-linejoin="miter" stroke="rgb(100%, 0%, 0%)" stroke-opacity="1" stroke-miterlimit="4" d="M 20.957031 17.983398 L 1129.980469 17.983398 L 1129.980469 1128.989258 L 20.957031 1128.989258 Z M 64.995117 1106.049805 L 43.046875 1084.951172 L 1108.032227 1084.951172 L 1085.942383 1106.049805 L 1085.942383 38.94043 L 1108.032227 62.021484 L 43.046875 62.021484 L 64.995117 38.94043 Z M 64.995117 1106.049805 " transform="matrix(0.0275862, 0, 0, 0.0275862, 0, 0)"/>
<path fill-rule="nonzero" fill="rgb(100%, 0%, 0%)" fill-opacity="1" stroke-width="1" stroke-linecap="butt" stroke-linejoin="miter" stroke="rgb(100%, 0%, 0%)" stroke-opacity="1" stroke-miterlimit="4" d="M 119.936523 922.958984 L 584.956055 181.958008 L 1049.975586 922.958984 Z M 982.998047 849.042969 L 950.996094 905.966797 L 553.945312 272.016602 L 616.958008 272.016602 L 219.057617 905.966797 L 188.046875 849.042969 Z M 982.998047 849.042969 " transform="matrix(0.0275862, 0, 0, 0.0275862, 0, 0)"/>
<path fill-rule="nonzero" fill="rgb(100%, 0%, 0%)" fill-opacity="1" d="M 10.511719 21.847656 L 16.25 12.660156 L 21.984375 21.847656 Z M 10.511719 21.847656 "/>
</svg>
