<?xml version="1.0" encoding="UTF-8"?>
<svg xmlns="http://www.w3.org/2000/svg" xmlns:xlink="http://www.w3.org/1999/xlink" width="32" height="32" viewBox="0 0 32 32">
<path fill-rule="nonzero" fill="rgb(0%, 0%, 100%)" fill-opacity="1" stroke-width="1" stroke-linecap="butt" stroke-linejoin="miter" stroke="rgb(0%, 0%, 100%)" stroke-opacity="1" stroke-miterlimit="4" d="M 31.010742 542.050781 L 884.018555 542.050781 L 884.018555 580.991211 L 31.010742 580.991211 Z M 31.010742 542.050781 " transform="matrix(0.0275862, 0, 0, 0.0275862, 0, 0)"/>
<path fill-rule="nonzero" fill="rgb(0%, 0%, 100%)" fill-opacity="1" d="M 26.785156 13.488281 L 30.234375 15.613281 L 26.785156 17.710938 Z M 26.785156 13.488281 "/>
<path fill-rule="nonzero" fill="rgb(0%, 0%, 100%)" fill-opacity="1" stroke-width="1" stroke-linecap="butt" stroke-linejoin="miter" stroke="rgb(0%, 0%, 100%)" stroke-opacity="1" stroke-miterlimit="4" d="M 968.979492 485.976562 L 1099.960937 565.981445 L 968.979492 645.986328 Z M 972.944336 642.021484 L 969.970703 640.039062 L 1095.004883 563.999023 L 1095.004883 567.963867 L 969.970703 492.06543 L 972.944336 488.950195 Z M 972.944336 642.021484 " transform="matrix(0.0275862, 0, 0, 0.0275862, 0, 0)"/>
<path fill-rule="nonzero" fill="rgb(0%, 0%, 100%)" fill-opacity="1" d="M 23.226562 13.324219 L 26.675781 15.476562 L 23.226562 17.574219 Z M 23.226562 13.324219 "/>
<path fill-rule="nonzero" fill="rgb(0%, 0%, 100%)" fill-opacity="1" stroke-width="1" stroke-linecap="butt" stroke-linejoin="miter" stroke="rgb(0%, 0%, 100%)" stroke-opacity="1" stroke-miterlimit="4" d="M 838.989258 480.029297 L 970.961914 561.025391 L 838.989258 642.021484 Z M 842.954102 637.06543 L 840.97168 635.932617 L 965.014648 559.042969 L 965.014648 562.016602 L 840.97168 484.985352 L 842.954102 483.00293 Z M 842.954102 637.06543 " transform="matrix(0.0275862, 0, 0, 0.0275862, 0, 0)"/>
</svg>
