<?xml version="1.0" encoding="UTF-8"?>
<svg xmlns="http://www.w3.org/2000/svg" xmlns:xlink="http://www.w3.org/1999/xlink" width="32" height="32" viewBox="0 0 32 32">
<path fill-rule="nonzero" fill="rgb(7.058824%, 7.843137%, 100%)" fill-opacity="1" d="M 31.117188 14.898438 L 27.171875 17.460938 L 27.171875 15.585938 L 24.496094 15.585938 L 24.441406 15.613281 L 24.386719 15.613281 L 24.332031 15.640625 L 24.277344 15.640625 L 24.25 15.667969 L 24.164062 15.695312 L 24.082031 15.695312 L 24 15.722656 L 23.972656 15.78125 L 23.917969 15.808594 L 23.890625 15.835938 L 23.835938 15.863281 L 23.78125 15.863281 L 23.722656 15.890625 L 23.667969 15.945312 L 23.640625 16 L 23.585938 16.027344 L 23.558594 16.082031 L 23.449219 16.191406 L 23.394531 16.25 L 23.339844 16.332031 L 23.308594 16.359375 L 23.253906 16.46875 L 23.171875 16.523438 L 23.171875 16.605469 L 23.007812 16.828125 L 22.898438 17.101562 L 22.757812 17.324219 L 22.59375 17.601562 L 22.484375 17.820312 L 22.316406 18.070312 L 22.179688 18.316406 L 22.042969 18.566406 L 21.984375 18.621094 L 21.929688 18.703125 L 21.820312 18.8125 L 21.792969 18.867188 L 21.710938 18.925781 L 21.65625 18.980469 L 21.574219 19.035156 L 21.515625 19.089844 L 21.460938 19.117188 L 21.40625 19.171875 L 21.324219 19.226562 L 21.269531 19.253906 L 21.1875 19.28125 L 21.132812 19.308594 L 21.046875 19.367188 L 20.992188 19.394531 L 20.828125 19.449219 L 20.773438 19.476562 L 20.691406 19.503906 L 20.578125 19.503906 L 20.523438 19.53125 L 20.359375 19.585938 L 20.109375 19.585938 L 20 19.613281 L 19.476562 19.613281 L 19.394531 19.585938 L 19.171875 19.585938 L 19.0625 19.558594 L 19.035156 19.558594 L 18.925781 19.53125 L 18.867188 19.503906 L 18.757812 19.503906 L 18.730469 19.476562 L 18.484375 19.394531 L 18.398438 19.367188 L 18.371094 19.308594 L 18.289062 19.28125 L 18.234375 19.253906 L 18.125 19.253906 L 18.015625 19.144531 L 17.929688 19.089844 L 17.875 19.0625 L 17.738281 18.925781 L 17.683594 18.925781 L 17.628906 18.867188 L 17.574219 18.785156 L 17.488281 18.757812 L 17.40625 18.703125 L 17.378906 18.621094 L 17.324219 18.59375 L 17.269531 18.511719 L 17.214844 18.457031 L 17.160156 18.398438 L 17.101562 18.316406 L 17.046875 18.261719 L 17.019531 18.207031 L 16.964844 18.152344 L 16.9375 18.097656 L 16.882812 18.015625 L 16.855469 17.957031 L 16.800781 17.875 L 16.773438 17.792969 L 16.773438 17.738281 L 16.71875 17.683594 L 16.691406 17.628906 L 16.660156 17.515625 L 16.605469 17.40625 L 16.605469 17.296875 L 16.578125 17.242188 L 16.550781 17.160156 L 16.523438 17.101562 L 16.523438 16.992188 L 16.496094 16.9375 L 16.496094 16.855469 L 16.46875 16.800781 L 16.46875 16.414062 L 16.441406 16.386719 L 16.441406 16.082031 L 16.414062 16.054688 L 16.414062 16.027344 L 16.386719 15.972656 L 16.386719 15.917969 L 16.332031 15.808594 L 16.332031 15.75 L 16.277344 15.722656 L 16.277344 15.640625 L 16.25 15.585938 L 16.21875 15.558594 L 16.136719 15.476562 L 16.109375 15.421875 L 16.109375 15.394531 L 16.082031 15.367188 L 16.027344 15.339844 L 16.027344 15.28125 L 15.945312 15.253906 L 15.945312 15.199219 L 15.917969 15.171875 L 15.890625 15.117188 L 15.78125 15.0625 L 15.75 15.035156 L 15.695312 14.980469 L 15.613281 14.925781 L 15.613281 14.898438 L 15.585938 14.867188 L 15.53125 14.867188 L 15.476562 14.839844 L 15.449219 14.785156 L 15.394531 14.785156 L 15.367188 14.757812 L 15.308594 14.730469 L 15.28125 14.730469 L 15.253906 14.703125 L 15.144531 14.648438 L 15.117188 14.648438 L 15.0625 14.621094 L 15.035156 14.59375 L 14.839844 14.59375 L 14.8125 14.566406 L 14.703125 14.566406 L 14.648438 14.539062 L 14.371094 14.539062 L 14.316406 14.566406 L 14.207031 14.566406 L 14.152344 14.59375 L 14.015625 14.59375 L 13.984375 14.621094 L 13.957031 14.621094 L 13.902344 14.648438 L 13.875 14.675781 L 13.820312 14.703125 L 13.792969 14.703125 L 13.738281 14.730469 L 13.683594 14.730469 L 13.65625 14.757812 L 13.65625 14.785156 L 13.574219 14.785156 L 13.542969 14.839844 L 13.488281 14.867188 L 13.433594 14.898438 L 13.324219 15.007812 L 13.269531 15.035156 L 13.160156 15.144531 L 13.160156 15.171875 L 13.132812 15.199219 L 13.074219 15.253906 L 13.046875 15.28125 L 13.019531 15.339844 L 12.992188 15.367188 L 12.964844 15.367188 L 12.910156 15.476562 L 12.910156 15.53125 L 12.882812 15.53125 L 12.855469 15.585938 L 12.855469 15.613281 L 12.828125 15.667969 L 12.800781 15.695312 L 12.773438 15.75 L 12.746094 15.808594 L 12.746094 15.863281 L 12.71875 15.863281 L 12.71875 15.890625 L 12.691406 15.945312 L 12.691406 16.082031 L 12.660156 16.164062 L 12.660156 16.386719 L 12.632812 16.496094 L 12.632812 16.71875 L 12.605469 16.828125 L 12.605469 16.964844 L 12.578125 17.019531 L 12.578125 17.132812 L 12.550781 17.160156 L 12.523438 17.269531 L 12.523438 17.40625 L 12.46875 17.460938 L 12.441406 17.542969 L 12.414062 17.628906 L 12.386719 17.710938 L 12.332031 17.820312 L 12.277344 17.875 L 12.25 17.957031 L 12.191406 18.015625 L 12.191406 18.097656 L 12.082031 18.207031 L 12.027344 18.289062 L 11.972656 18.34375 L 11.917969 18.425781 L 11.863281 18.457031 L 11.835938 18.539062 L 11.78125 18.59375 L 11.695312 18.675781 L 11.640625 18.703125 L 11.585938 18.757812 L 11.53125 18.839844 L 11.476562 18.898438 L 11.394531 18.925781 L 11.339844 19.007812 L 11.28125 19.035156 L 11.199219 19.089844 L 11.171875 19.117188 L 11.089844 19.171875 L 11.035156 19.226562 L 10.953125 19.253906 L 10.898438 19.253906 L 10.839844 19.308594 L 10.730469 19.339844 L 10.675781 19.394531 L 10.59375 19.421875 L 10.539062 19.421875 L 10.457031 19.476562 L 10.398438 19.503906 L 10.316406 19.503906 L 10.234375 19.53125 L 10.152344 19.53125 L 10.097656 19.558594 L 10.015625 19.585938 L 9.792969 19.585938 L 9.710938 19.613281 L 9.214844 19.613281 L 9.132812 19.585938 L 8.910156 19.585938 L 8.800781 19.558594 L 8.746094 19.558594 L 8.660156 19.53125 L 8.605469 19.503906 L 8.496094 19.503906 L 8.386719 19.449219 L 8.304688 19.421875 L 8.21875 19.394531 L 8.136719 19.367188 L 8.082031 19.308594 L 8.027344 19.28125 L 7.945312 19.253906 L 7.890625 19.226562 L 7.808594 19.171875 L 7.75 19.117188 L 7.667969 19.089844 L 7.613281 19.035156 L 7.53125 19.007812 L 7.476562 18.925781 L 7.421875 18.925781 L 7.339844 18.839844 L 7.28125 18.785156 L 7.226562 18.757812 L 7.171875 18.675781 L 6.953125 18.457031 L 6.898438 18.398438 L 6.839844 18.316406 L 6.785156 18.261719 L 6.757812 18.179688 L 6.675781 18.125 L 6.648438 18.070312 L 6.648438 17.984375 L 6.59375 17.929688 L 6.539062 17.847656 L 6.511719 17.792969 L 6.457031 17.628906 L 6.425781 17.574219 L 6.371094 17.488281 L 6.34375 17.460938 L 6.34375 17.351562 L 6.316406 17.296875 L 6.316406 17.214844 L 6.289062 17.160156 L 6.261719 17.074219 L 6.261719 16.992188 L 6.234375 16.882812 L 6.207031 16.828125 L 6.207031 16.496094 L 6.179688 16.414062 L 6.179688 16.136719 L 6.152344 16.054688 L 6.152344 15.890625 L 6.125 15.863281 L 6.125 15.835938 L 6.097656 15.78125 L 6.097656 15.695312 L 6.042969 15.640625 L 6.015625 15.585938 L 6.015625 15.558594 L 5.984375 15.53125 L 5.984375 15.476562 L 5.957031 15.421875 L 5.902344 15.367188 L 5.847656 15.339844 L 5.820312 15.28125 L 5.820312 15.253906 L 5.738281 15.171875 L 5.683594 15.144531 L 5.683594 15.089844 L 5.628906 15.089844 L 5.628906 15.035156 L 5.515625 15.007812 L 5.460938 14.925781 L 5.351562 14.867188 L 5.296875 14.839844 L 5.269531 14.785156 L 5.214844 14.785156 L 5.160156 14.757812 L 5.132812 14.730469 L 5.046875 14.730469 L 5.019531 14.703125 L 4.964844 14.675781 L 4.9375 14.648438 L 4.882812 14.648438 L 4.855469 14.621094 L 4.800781 14.59375 L 4.632812 14.59375 L 4.523438 14.566406 L 4.441406 14.566406 L 4.386719 14.539062 L 4.164062 14.539062 L 4.027344 14.566406 L 3.945312 14.566406 L 3.835938 14.59375 L 3.640625 14.59375 L 3.558594 14.621094 L 3.476562 14.675781 L 3.367188 14.703125 L 3.28125 14.730469 L 3.171875 14.785156 L 3.0625 14.867188 L 3.007812 14.898438 L 2.980469 14.953125 L 2.898438 15.035156 L 2.839844 15.0625 L 2.785156 15.117188 L 2.730469 15.199219 L 2.703125 15.28125 L 2.648438 15.367188 L 2.59375 15.421875 L 2.566406 15.53125 L 2.566406 15.585938 L 2.539062 15.695312 L 2.511719 15.78125 L 2.484375 15.863281 L 2.484375 15.972656 L 2.457031 16.082031 L 2.457031 16.164062 L 2.425781 16.304688 L 2.425781 16.386719 L 1.074219 16.386719 L 1.074219 16.027344 L 1.101562 15.917969 L 1.101562 15.863281 L 1.132812 15.78125 L 1.132812 15.695312 L 1.160156 15.613281 L 1.1875 15.558594 L 1.1875 15.476562 L 1.214844 15.394531 L 1.242188 15.367188 L 1.242188 15.253906 L 1.296875 15.199219 L 1.324219 15.117188 L 1.351562 15.0625 L 1.40625 15.007812 L 1.433594 14.925781 L 1.460938 14.867188 L 1.515625 14.785156 L 1.574219 14.730469 L 1.574219 14.675781 L 1.628906 14.59375 L 1.738281 14.484375 L 1.792969 14.398438 L 1.902344 14.289062 L 1.929688 14.234375 L 2.015625 14.179688 L 2.070312 14.097656 L 2.125 14.070312 L 2.179688 14.015625 L 2.234375 13.957031 L 2.289062 13.902344 L 2.371094 13.847656 L 2.425781 13.792969 L 2.511719 13.765625 L 2.566406 13.738281 L 2.648438 13.683594 L 2.703125 13.65625 L 2.757812 13.601562 L 2.839844 13.574219 L 2.898438 13.542969 L 2.980469 13.488281 L 3.035156 13.488281 L 3.117188 13.433594 L 3.199219 13.433594 L 3.226562 13.40625 L 3.308594 13.378906 L 3.394531 13.351562 L 3.476562 13.324219 L 3.53125 13.296875 L 3.78125 13.296875 L 3.863281 13.269531 L 3.945312 13.269531 L 4.027344 13.242188 L 4.523438 13.242188 L 4.578125 13.269531 L 4.660156 13.269531 L 4.71875 13.296875 L 4.882812 13.296875 L 4.964844 13.324219 L 5.019531 13.324219 L 5.132812 13.351562 L 5.1875 13.378906 L 5.296875 13.40625 L 5.40625 13.460938 L 5.488281 13.488281 L 5.574219 13.542969 L 5.628906 13.542969 L 5.683594 13.574219 L 5.765625 13.601562 L 5.929688 13.710938 L 5.984375 13.738281 L 6.042969 13.792969 L 6.125 13.820312 L 6.179688 13.875 L 6.261719 13.929688 L 6.316406 13.984375 L 6.371094 14.042969 L 6.457031 14.070312 L 6.511719 14.152344 L 6.59375 14.207031 L 6.648438 14.261719 L 6.675781 14.316406 L 6.757812 14.398438 L 6.8125 14.457031 L 6.867188 14.539062 L 6.925781 14.59375 L 6.980469 14.648438 L 7.007812 14.730469 L 7.089844 14.785156 L 7.117188 14.867188 L 7.117188 14.898438 L 7.171875 14.980469 L 7.28125 15.089844 L 7.28125 15.171875 L 7.339844 15.253906 L 7.339844 15.339844 L 7.394531 15.367188 L 7.421875 15.476562 L 7.449219 15.53125 L 7.449219 15.695312 L 7.476562 15.75 L 7.503906 15.863281 L 7.53125 15.890625 L 7.53125 16 L 7.558594 16.082031 L 7.558594 16.21875 L 7.585938 16.332031 L 7.585938 16.660156 L 7.613281 16.691406 L 7.613281 16.910156 L 7.640625 16.964844 L 7.640625 16.992188 L 7.667969 17.046875 L 7.667969 17.074219 L 7.722656 17.132812 L 7.722656 17.160156 L 7.75 17.1875 L 7.75 17.242188 L 7.78125 17.296875 L 7.808594 17.324219 L 7.808594 17.351562 L 7.863281 17.460938 L 7.890625 17.460938 L 7.917969 17.488281 L 7.945312 17.542969 L 7.972656 17.601562 L 8 17.628906 L 8.054688 17.628906 L 8.082031 17.710938 L 8.164062 17.792969 L 8.21875 17.820312 L 8.25 17.875 L 8.277344 17.875 L 8.332031 17.957031 L 8.414062 17.957031 L 8.441406 17.984375 L 8.46875 18.042969 L 8.496094 18.070312 L 8.605469 18.125 L 8.632812 18.125 L 8.660156 18.152344 L 8.71875 18.179688 L 8.800781 18.179688 L 8.828125 18.207031 L 8.882812 18.234375 L 8.9375 18.234375 L 8.964844 18.261719 L 9.019531 18.261719 L 9.074219 18.289062 L 9.242188 18.289062 L 9.269531 18.316406 L 9.628906 18.316406 L 9.683594 18.289062 L 9.875 18.289062 L 9.902344 18.261719 L 9.929688 18.261719 L 9.984375 18.234375 L 10.042969 18.234375 L 10.070312 18.207031 L 10.125 18.179688 L 10.207031 18.179688 L 10.261719 18.125 L 10.316406 18.125 L 10.371094 18.097656 L 10.425781 18.042969 L 10.457031 17.984375 L 10.539062 17.957031 L 10.566406 17.957031 L 10.621094 17.875 L 10.675781 17.875 L 10.703125 17.820312 L 10.730469 17.792969 L 10.785156 17.765625 L 10.785156 17.738281 L 10.867188 17.710938 L 10.867188 17.628906 L 10.898438 17.628906 L 10.925781 17.601562 L 10.953125 17.542969 L 10.980469 17.488281 L 11.035156 17.460938 L 11.089844 17.351562 L 11.117188 17.324219 L 11.117188 17.296875 L 11.171875 17.242188 L 11.199219 17.1875 L 11.199219 17.074219 L 11.253906 17.046875 L 11.253906 16.910156 L 11.28125 16.882812 L 11.28125 16.828125 L 11.308594 16.800781 L 11.308594 16.691406 L 11.339844 16.660156 L 11.339844 16.21875 L 11.367188 16.164062 L 11.367188 15.890625 L 11.394531 15.863281 L 11.394531 15.75 L 11.421875 15.695312 L 11.449219 15.585938 L 11.503906 15.476562 L 11.53125 15.367188 L 11.53125 15.339844 L 11.585938 15.253906 L 11.585938 15.171875 L 11.613281 15.089844 L 11.667969 15.035156 L 11.695312 14.980469 L 11.722656 14.898438 L 11.78125 14.867188 L 11.835938 14.785156 L 11.863281 14.730469 L 11.917969 14.648438 L 11.945312 14.59375 L 12 14.539062 L 12.054688 14.457031 L 12.109375 14.398438 L 12.164062 14.316406 L 12.21875 14.261719 L 12.277344 14.207031 L 12.332031 14.152344 L 12.386719 14.070312 L 12.46875 14.042969 L 12.523438 13.984375 L 12.632812 13.875 L 12.691406 13.820312 L 12.773438 13.792969 L 12.855469 13.738281 L 12.910156 13.710938 L 13.019531 13.601562 L 13.101562 13.574219 L 13.160156 13.542969 L 13.242188 13.542969 L 13.324219 13.488281 L 13.351562 13.460938 L 13.460938 13.433594 L 13.515625 13.40625 L 13.574219 13.378906 L 13.738281 13.324219 L 13.820312 13.324219 L 13.902344 13.296875 L 14.042969 13.296875 L 14.125 13.269531 L 14.207031 13.269531 L 14.316406 13.242188 L 14.785156 13.242188 L 14.839844 13.269531 L 14.953125 13.269531 L 14.980469 13.296875 L 15.144531 13.296875 L 15.253906 13.324219 L 15.28125 13.324219 L 15.394531 13.351562 L 15.449219 13.378906 L 15.558594 13.40625 L 15.613281 13.433594 L 15.695312 13.460938 L 15.78125 13.488281 L 15.835938 13.542969 L 15.917969 13.542969 L 15.945312 13.574219 L 16.027344 13.601562 L 16.191406 13.710938 L 16.277344 13.738281 L 16.332031 13.792969 L 16.386719 13.820312 L 16.441406 13.875 L 16.605469 13.984375 L 16.660156 14.042969 L 16.71875 14.070312 L 16.773438 14.152344 L 16.855469 14.207031 L 16.964844 14.316406 L 17.019531 14.398438 L 17.074219 14.457031 L 17.132812 14.539062 L 17.242188 14.648438 L 17.269531 14.730469 L 17.351562 14.785156 L 17.378906 14.867188 L 17.40625 14.898438 L 17.433594 14.980469 L 17.542969 15.089844 L 17.574219 15.171875 L 17.601562 15.253906 L 17.628906 15.339844 L 17.65625 15.367188 L 17.683594 15.476562 L 17.738281 15.53125 L 17.738281 15.75 L 17.765625 15.863281 L 17.792969 15.890625 L 17.792969 16 L 17.820312 16.082031 L 17.820312 16.164062 L 17.847656 16.21875 L 17.847656 16.660156 L 17.875 16.691406 L 17.875 16.800781 L 17.902344 16.828125 L 17.902344 16.964844 L 17.929688 16.992188 L 17.929688 17.046875 L 17.957031 17.074219 L 17.984375 17.132812 L 17.984375 17.160156 L 18.015625 17.1875 L 18.015625 17.242188 L 18.070312 17.296875 L 18.070312 17.351562 L 18.125 17.460938 L 18.152344 17.460938 L 18.207031 17.488281 L 18.234375 17.542969 L 18.234375 17.601562 L 18.261719 17.628906 L 18.316406 17.628906 L 18.34375 17.710938 L 18.398438 17.738281 L 18.398438 17.765625 L 18.425781 17.792969 L 18.484375 17.820312 L 18.511719 17.875 L 18.566406 17.875 L 18.59375 17.957031 L 18.675781 17.957031 L 18.730469 17.984375 L 18.730469 18.042969 L 18.757812 18.070312 L 18.867188 18.125 L 18.898438 18.125 L 18.925781 18.152344 L 18.980469 18.179688 L 19.0625 18.179688 L 19.089844 18.207031 L 19.144531 18.234375 L 19.199219 18.234375 L 19.226562 18.261719 L 19.28125 18.261719 L 19.308594 18.289062 L 19.503906 18.289062 L 19.53125 18.316406 L 19.917969 18.316406 L 19.972656 18.289062 L 20.191406 18.289062 L 20.21875 18.261719 L 20.277344 18.261719 L 20.332031 18.234375 L 20.359375 18.207031 L 20.414062 18.207031 L 20.46875 18.179688 L 20.523438 18.179688 L 20.578125 18.125 L 20.632812 18.125 L 20.691406 18.097656 L 20.691406 18.070312 L 20.746094 18.042969 L 20.773438 18.015625 L 20.800781 17.984375 L 20.828125 17.957031 L 20.855469 17.957031 L 20.882812 17.929688 L 20.910156 17.875 L 20.9375 17.847656 L 20.992188 17.820312 L 21.019531 17.792969 L 21.046875 17.738281 L 21.074219 17.710938 L 21.132812 17.628906 L 21.132812 17.574219 L 21.1875 17.488281 L 21.1875 17.460938 L 21.242188 17.378906 L 21.269531 17.296875 L 21.351562 17.132812 L 21.378906 16.992188 L 21.433594 16.910156 L 21.460938 16.828125 L 21.488281 16.691406 L 21.515625 16.605469 L 21.574219 16.496094 L 21.628906 16.386719 L 21.65625 16.277344 L 21.710938 16.164062 L 21.765625 16.054688 L 21.792969 15.972656 L 21.847656 15.863281 L 21.929688 15.78125 L 21.984375 15.695312 L 22.015625 15.585938 L 22.097656 15.53125 L 22.152344 15.421875 L 22.207031 15.367188 L 22.289062 15.28125 L 22.34375 15.199219 L 22.425781 15.117188 L 22.484375 15.0625 L 22.539062 15.007812 L 22.648438 14.925781 L 22.703125 14.867188 L 22.8125 14.839844 L 22.898438 14.757812 L 22.953125 14.730469 L 23.035156 14.675781 L 23.117188 14.59375 L 23.226562 14.566406 L 23.28125 14.539062 L 23.421875 14.511719 L 23.503906 14.457031 L 23.585938 14.398438 L 23.695312 14.398438 L 23.78125 14.371094 L 23.890625 14.34375 L 23.972656 14.316406 L 24.109375 14.316406 L 24.25 14.289062 L 24.773438 14.289062 L 24.964844 14.261719 L 25.40625 14.261719 L 25.65625 14.234375 L 27.171875 14.234375 L 27.171875 12.386719 Z M 31.117188 14.898438 "/>
</svg>
