<?xml version="1.0" encoding="UTF-8"?>
<svg xmlns="http://www.w3.org/2000/svg" xmlns:xlink="http://www.w3.org/1999/xlink" width="32" height="32" viewBox="0 0 32 32">
<path fill-rule="nonzero" fill="rgb(0%, 0%, 100%)" fill-opacity="1" stroke-width="1" stroke-linecap="butt" stroke-linejoin="miter" stroke="rgb(0%, 0%, 100%)" stroke-opacity="1" stroke-miterlimit="4" d="M 383.032227 322.993164 C 383.032227 543.041992 383.032227 761.958008 383.032227 982.006836 C 363.066406 982.006836 343.950195 982.006836 324.975586 982.006836 C 324.975586 761.958008 324.975586 543.041992 324.975586 322.993164 C 343.950195 322.993164 363.066406 322.993164 383.032227 322.993164 Z M 383.032227 322.993164 " transform="matrix(0.0275862, 0, 0, 0.0275862, 0, 0)"/>
<path fill-rule="nonzero" fill="rgb(0%, 0%, 100%)" fill-opacity="1" d="M 6.785156 28.109375 C 6.785156 26.511719 8.109375 25.242188 9.738281 25.242188 C 11.394531 25.242188 12.71875 26.511719 12.71875 28.109375 C 12.71875 29.710938 11.394531 30.980469 9.738281 30.980469 C 8.109375 30.980469 6.785156 29.710938 6.785156 28.109375 Z M 6.785156 28.109375 "/>
<path fill-rule="nonzero" fill="rgb(0%, 0%, 100%)" fill-opacity="1" d="M 6.703125 28.109375 C 6.703125 28.027344 6.730469 27.917969 6.730469 27.835938 C 6.730469 27.722656 6.757812 27.640625 6.757812 27.53125 C 6.785156 27.421875 6.8125 27.339844 6.839844 27.226562 C 6.867188 27.144531 6.898438 27.035156 6.925781 26.953125 C 6.980469 26.867188 7.007812 26.785156 7.0625 26.703125 C 7.117188 26.621094 7.144531 26.539062 7.199219 26.457031 C 7.253906 26.371094 7.339844 26.289062 7.394531 26.207031 C 7.449219 26.152344 7.53125 26.097656 7.585938 26.015625 C 7.667969 25.957031 7.722656 25.902344 7.808594 25.820312 C 7.890625 25.765625 7.972656 25.710938 8.054688 25.65625 C 8.136719 25.601562 8.21875 25.542969 8.304688 25.488281 C 8.386719 25.460938 8.46875 25.433594 8.550781 25.378906 C 8.632812 25.351562 8.746094 25.324219 8.828125 25.296875 C 8.9375 25.269531 9.019531 25.242188 9.132812 25.214844 C 9.242188 25.214844 9.324219 25.214844 9.433594 25.1875 C 9.515625 25.1875 9.628906 25.1875 9.738281 25.160156 C 9.847656 25.1875 9.957031 25.1875 10.070312 25.1875 C 10.152344 25.214844 10.261719 25.214844 10.371094 25.214844 C 10.457031 25.242188 10.539062 25.269531 10.648438 25.296875 C 10.730469 25.324219 10.8125 25.351562 10.925781 25.378906 C 11.007812 25.433594 11.089844 25.460938 11.199219 25.488281 C 11.28125 25.542969 11.367188 25.601562 11.449219 25.65625 C 11.53125 25.710938 11.613281 25.765625 11.695312 25.820312 C 11.75 25.902344 11.808594 25.957031 11.890625 26.015625 C 11.945312 26.097656 12.027344 26.152344 12.109375 26.207031 C 12.164062 26.289062 12.21875 26.371094 12.277344 26.457031 C 12.332031 26.539062 12.386719 26.621094 12.441406 26.675781 C 12.46875 26.785156 12.523438 26.867188 12.578125 26.953125 C 12.605469 27.035156 12.632812 27.144531 12.660156 27.226562 C 12.691406 27.339844 12.71875 27.421875 12.746094 27.53125 C 12.746094 27.613281 12.746094 27.722656 12.773438 27.808594 C 12.773438 27.917969 12.773438 28 12.800781 28.109375 C 12.773438 28.21875 12.773438 28.304688 12.773438 28.414062 C 12.746094 28.523438 12.746094 28.605469 12.746094 28.71875 C 12.71875 28.800781 12.691406 28.910156 12.660156 28.992188 C 12.632812 29.074219 12.605469 29.1875 12.578125 29.269531 C 12.523438 29.351562 12.46875 29.433594 12.441406 29.515625 C 12.386719 29.601562 12.332031 29.683594 12.304688 29.765625 C 12.21875 29.847656 12.164062 29.902344 12.109375 29.984375 C 12.027344 30.042969 11.972656 30.125 11.917969 30.179688 C 11.835938 30.261719 11.75 30.316406 11.695312 30.398438 C 11.613281 30.457031 11.53125 30.511719 11.449219 30.566406 C 11.367188 30.621094 11.28125 30.648438 11.199219 30.703125 C 11.117188 30.757812 11.035156 30.785156 10.953125 30.839844 C 10.839844 30.867188 10.757812 30.898438 10.675781 30.925781 C 10.566406 30.953125 10.457031 30.980469 10.371094 31.007812 C 10.261719 31.035156 10.152344 31.035156 10.070312 31.0625 C 9.957031 31.0625 9.847656 31.0625 9.765625 31.0625 C 9.65625 31.0625 9.542969 31.0625 9.433594 31.0625 C 9.324219 31.035156 9.242188 31.035156 9.132812 31.007812 C 9.046875 30.980469 8.9375 30.953125 8.855469 30.925781 C 8.773438 30.898438 8.660156 30.867188 8.578125 30.839844 C 8.496094 30.8125 8.386719 30.757812 8.304688 30.730469 C 8.21875 30.675781 8.136719 30.621094 8.054688 30.566406 C 7.972656 30.511719 7.890625 30.457031 7.808594 30.398438 C 7.75 30.34375 7.667969 30.261719 7.613281 30.207031 C 7.53125 30.152344 7.476562 30.070312 7.394531 30.015625 C 7.339844 29.929688 7.253906 29.847656 7.199219 29.765625 C 7.144531 29.683594 7.117188 29.601562 7.0625 29.515625 C 7.007812 29.433594 6.980469 29.351562 6.925781 29.269531 C 6.898438 29.1875 6.867188 29.074219 6.839844 28.992188 C 6.8125 28.910156 6.785156 28.800781 6.757812 28.71875 C 6.757812 28.605469 6.730469 28.523438 6.730469 28.414062 C 6.730469 28.304688 6.703125 28.21875 6.703125 28.109375 Z M 6.898438 28.386719 C 6.925781 28.46875 6.925781 28.578125 6.953125 28.660156 C 6.980469 28.746094 6.980469 28.855469 7.007812 28.9375 C 7.035156 29.019531 7.089844 29.101562 7.117188 29.1875 C 7.144531 29.269531 7.199219 29.351562 7.226562 29.433594 C 7.28125 29.515625 7.308594 29.574219 7.367188 29.65625 C 7.421875 29.738281 7.476562 29.792969 7.53125 29.875 C 7.585938 29.929688 7.667969 30.015625 7.722656 30.070312 C 7.78125 30.125 7.863281 30.179688 7.917969 30.234375 C 8 30.289062 8.054688 30.34375 8.136719 30.398438 C 8.21875 30.457031 8.277344 30.484375 8.359375 30.539062 C 8.441406 30.566406 8.550781 30.621094 8.632812 30.648438 C 8.71875 30.675781 8.828125 30.730469 8.910156 30.757812 C 8.992188 30.785156 9.074219 30.785156 9.160156 30.8125 C 9.269531 30.839844 9.351562 30.839844 9.460938 30.867188 C 9.542969 30.867188 9.628906 30.898438 9.738281 30.898438 C 9.820312 30.898438 9.929688 30.867188 10.042969 30.867188 C 10.125 30.839844 10.207031 30.839844 10.316406 30.8125 C 10.398438 30.785156 10.484375 30.785156 10.59375 30.757812 C 10.675781 30.730469 10.757812 30.675781 10.839844 30.648438 C 10.925781 30.621094 11.007812 30.566406 11.117188 30.539062 C 11.171875 30.484375 11.253906 30.457031 11.339844 30.398438 C 11.421875 30.34375 11.503906 30.316406 11.585938 30.261719 C 11.640625 30.207031 11.695312 30.125 11.78125 30.070312 C 11.835938 30.015625 11.890625 29.929688 11.972656 29.875 C 12.027344 29.792969 12.082031 29.738281 12.136719 29.65625 C 12.164062 29.574219 12.21875 29.515625 12.277344 29.433594 C 12.304688 29.351562 12.332031 29.269531 12.386719 29.1875 C 12.414062 29.101562 12.441406 29.019531 12.46875 28.9375 C 12.496094 28.855469 12.523438 28.773438 12.550781 28.691406 C 12.550781 28.605469 12.578125 28.496094 12.605469 28.414062 C 12.605469 28.304688 12.605469 28.21875 12.605469 28.109375 C 12.605469 28.027344 12.605469 27.917969 12.605469 27.835938 C 12.578125 27.75 12.578125 27.640625 12.578125 27.558594 C 12.550781 27.476562 12.523438 27.367188 12.496094 27.28125 C 12.441406 27.199219 12.414062 27.117188 12.386719 27.035156 C 12.332031 26.953125 12.304688 26.867188 12.277344 26.785156 C 12.21875 26.730469 12.164062 26.648438 12.136719 26.566406 C 12.082031 26.511719 12.027344 26.425781 11.972656 26.34375 C 11.890625 26.289062 11.835938 26.234375 11.78125 26.152344 C 11.695312 26.097656 11.640625 26.042969 11.585938 25.984375 C 11.503906 25.929688 11.421875 25.875 11.367188 25.820312 C 11.28125 25.792969 11.199219 25.738281 11.144531 25.683594 C 11.035156 25.65625 10.953125 25.628906 10.867188 25.574219 C 10.757812 25.542969 10.675781 25.515625 10.59375 25.488281 C 10.511719 25.460938 10.425781 25.433594 10.34375 25.40625 C 10.234375 25.40625 10.125 25.378906 10.042969 25.351562 C 9.929688 25.351562 9.847656 25.351562 9.765625 25.324219 C 9.65625 25.351562 9.542969 25.351562 9.460938 25.351562 C 9.378906 25.378906 9.269531 25.40625 9.1875 25.40625 C 9.101562 25.433594 8.992188 25.460938 8.910156 25.460938 C 8.828125 25.488281 8.746094 25.515625 8.660156 25.542969 C 8.578125 25.601562 8.46875 25.65625 8.386719 25.683594 C 8.304688 25.738281 8.25 25.765625 8.164062 25.792969 C 8.082031 25.847656 8 25.902344 7.917969 25.957031 C 7.863281 26.042969 7.78125 26.097656 7.722656 26.152344 C 7.667969 26.234375 7.585938 26.289062 7.53125 26.34375 C 7.476562 26.425781 7.421875 26.511719 7.367188 26.566406 C 7.308594 26.648438 7.28125 26.730469 7.226562 26.785156 C 7.199219 26.867188 7.144531 26.953125 7.117188 27.035156 C 7.089844 27.117188 7.0625 27.199219 7.035156 27.28125 C 7.007812 27.367188 6.980469 27.449219 6.953125 27.53125 C 6.925781 27.640625 6.925781 27.722656 6.898438 27.835938 C 6.898438 27.917969 6.898438 28.027344 6.898438 28.109375 C 6.898438 28.191406 6.898438 28.304688 6.898438 28.386719 Z M 6.898438 28.386719 "/>
<path fill="none" stroke-width="1" stroke-linecap="butt" stroke-linejoin="miter" stroke="rgb(0%, 0%, 100%)" stroke-opacity="1" stroke-miterlimit="4" d="M 242.988281 1018.964844 C 242.988281 1015.991211 243.979492 1012.026367 243.979492 1009.052734 C 243.979492 1004.946289 244.970703 1001.972656 244.970703 998.007812 C 245.961914 994.042969 246.953125 991.069336 247.944336 986.962891 C 248.935547 983.989258 250.068359 980.024414 251.05957 977.050781 C 253.041992 973.935547 254.033203 970.961914 256.015625 967.988281 C 257.998047 965.014648 258.989258 962.041016 260.97168 959.067383 C 262.954102 955.952148 266.069336 952.978516 268.051758 950.004883 C 270.03418 948.022461 273.007812 946.040039 274.990234 943.066406 C 277.963867 940.942383 279.946289 938.959961 283.061523 935.986328 C 286.035156 934.003906 289.008789 932.021484 291.982422 930.039062 C 294.956055 928.056641 297.929687 925.932617 301.044922 923.950195 C 304.018555 922.958984 306.992187 921.967773 309.96582 919.985352 C 312.939453 918.994141 317.045898 918.00293 320.019531 917.011719 C 323.984375 916.020508 326.958008 915.029297 331.064453 914.038086 C 335.029297 914.038086 338.00293 914.038086 341.967773 913.046875 C 344.941406 913.046875 349.047852 913.046875 353.012695 912.055664 C 356.977539 913.046875 360.942383 913.046875 365.048828 913.046875 C 368.022461 914.038086 371.987305 914.038086 375.952148 914.038086 C 379.067383 915.029297 382.041016 916.020508 386.005859 917.011719 C 388.979492 918.00293 391.953125 918.994141 396.05957 919.985352 C 399.033203 921.967773 402.006836 922.958984 405.97168 923.950195 C 408.945312 925.932617 412.060547 928.056641 415.03418 930.039062 C 418.007812 932.021484 420.981445 934.003906 423.955078 935.986328 C 425.9375 938.959961 428.061523 940.942383 431.035156 943.066406 C 433.017578 946.040039 435.991211 948.022461 438.964844 950.004883 C 440.947266 952.978516 442.929687 955.952148 445.053711 959.067383 C 447.036133 962.041016 449.018555 965.014648 451.000977 966.99707 C 451.992187 970.961914 453.974609 973.935547 455.957031 977.050781 C 456.948242 980.024414 457.939453 983.989258 458.930664 986.962891 C 460.063477 991.069336 461.054687 994.042969 462.045898 998.007812 C 462.045898 1000.981445 462.045898 1004.946289 463.037109 1008.061523 C 463.037109 1012.026367 463.037109 1015 464.02832 1018.964844 C 463.037109 1022.929687 463.037109 1026.044922 463.037109 1030.009766 C 462.045898 1033.974609 462.045898 1036.948242 462.045898 1041.054687 C 461.054687 1044.02832 460.063477 1047.993164 458.930664 1050.966797 C 457.939453 1053.94043 456.948242 1058.046875 455.957031 1061.020508 C 453.974609 1063.994141 451.992187 1066.967773 451.000977 1069.941406 C 449.018555 1073.056641 447.036133 1076.030273 446.044922 1079.003906 C 442.929687 1081.977539 440.947266 1083.959961 438.964844 1086.933594 C 435.991211 1089.057617 434.008789 1092.03125 432.026367 1094.013672 C 429.052734 1096.987305 425.9375 1098.969727 423.955078 1101.943359 C 420.981445 1104.067383 418.007812 1106.049805 415.03418 1108.032227 C 412.060547 1110.014648 408.945312 1111.005859 405.97168 1112.988281 C 402.998047 1114.970703 400.024414 1115.961914 397.050781 1117.944336 C 392.944336 1118.935547 389.970703 1120.068359 386.99707 1121.05957 C 383.032227 1122.050781 379.067383 1123.041992 375.952148 1124.033203 C 371.987305 1125.024414 368.022461 1125.024414 365.048828 1126.015625 C 360.942383 1126.015625 356.977539 1126.015625 354.003906 1126.015625 C 350.039062 1126.015625 345.932617 1126.015625 341.967773 1126.015625 C 338.00293 1125.024414 335.029297 1125.024414 331.064453 1124.033203 C 327.949219 1123.041992 323.984375 1122.050781 321.010742 1121.05957 C 318.037109 1120.068359 313.930664 1118.935547 310.957031 1117.944336 C 307.983398 1116.953125 304.018555 1114.970703 301.044922 1113.979492 C 297.929687 1111.99707 294.956055 1110.014648 291.982422 1108.032227 C 289.008789 1106.049805 286.035156 1104.067383 283.061523 1101.943359 C 280.9375 1099.960937 277.963867 1096.987305 275.981445 1095.004883 C 273.007812 1093.022461 271.025391 1090.048828 268.051758 1088.066406 C 266.069336 1084.951172 262.954102 1081.977539 260.97168 1079.003906 C 258.989258 1076.030273 257.998047 1073.056641 256.015625 1069.941406 C 254.033203 1066.967773 253.041992 1063.994141 251.05957 1061.020508 C 250.068359 1058.046875 248.935547 1053.94043 247.944336 1050.966797 C 246.953125 1047.993164 245.961914 1044.02832 244.970703 1041.054687 C 244.970703 1036.948242 243.979492 1033.974609 243.979492 1030.009766 C 243.979492 1026.044922 242.988281 1022.929687 242.988281 1018.964844 Z M 242.988281 1018.964844 " transform="matrix(0.0275862, 0, 0, 0.0275862, 0, 0)"/>
<path fill="none" stroke-width="1" stroke-linecap="butt" stroke-linejoin="miter" stroke="rgb(0%, 0%, 100%)" stroke-opacity="1" stroke-miterlimit="4" d="M 250.068359 1029.018555 C 251.05957 1031.992187 251.05957 1035.957031 252.050781 1038.930664 C 253.041992 1042.045898 253.041992 1046.010742 254.033203 1048.984375 C 255.024414 1051.958008 257.006836 1054.931641 257.998047 1058.046875 C 258.989258 1061.020508 260.97168 1063.994141 261.962891 1066.967773 C 263.945312 1069.941406 264.936523 1072.06543 267.060547 1075.039062 C 269.042969 1078.012695 271.025391 1079.995117 273.007812 1082.96875 C 274.990234 1084.951172 277.963867 1088.066406 279.946289 1090.048828 C 282.070312 1092.03125 285.043945 1094.013672 287.026367 1095.996094 C 290 1097.978516 291.982422 1099.960937 294.956055 1101.943359 C 297.929687 1104.067383 300.053711 1105.058594 303.027344 1107.041016 C 306.000977 1108.032227 309.96582 1110.014648 312.939453 1111.005859 C 316.054687 1111.99707 320.019531 1113.979492 322.993164 1114.970703 C 325.966797 1115.961914 328.94043 1115.961914 332.055664 1116.953125 C 336.020508 1117.944336 338.994141 1117.944336 342.958984 1118.935547 C 345.932617 1118.935547 349.047852 1120.068359 353.012695 1120.068359 C 355.986328 1120.068359 359.951172 1118.935547 364.057617 1118.935547 C 367.03125 1117.944336 370.004883 1117.944336 373.969727 1116.953125 C 376.943359 1115.961914 380.058594 1115.961914 384.023437 1114.970703 C 386.99707 1113.979492 389.970703 1111.99707 392.944336 1111.005859 C 396.05957 1110.014648 399.033203 1108.032227 402.998047 1107.041016 C 404.980469 1105.058594 407.954102 1104.067383 411.069336 1101.943359 C 414.042969 1099.960937 417.016602 1098.969727 419.990234 1096.987305 C 421.972656 1095.004883 423.955078 1092.03125 427.070312 1090.048828 C 429.052734 1088.066406 431.035156 1084.951172 434.008789 1082.96875 C 435.991211 1079.995117 437.973633 1078.012695 439.956055 1075.039062 C 440.947266 1072.06543 442.929687 1069.941406 445.053711 1066.967773 C 446.044922 1063.994141 447.036133 1061.020508 449.018555 1058.046875 C 450.009766 1054.931641 451.000977 1051.958008 451.992187 1048.984375 C 452.983398 1046.010742 453.974609 1043.037109 454.96582 1040.063477 C 454.96582 1036.948242 455.957031 1032.983398 456.948242 1030.009766 C 456.948242 1026.044922 456.948242 1022.929687 456.948242 1018.964844 C 456.948242 1015.991211 456.948242 1012.026367 456.948242 1009.052734 C 455.957031 1005.9375 455.957031 1001.972656 455.957031 998.999023 C 454.96582 996.025391 453.974609 992.060547 452.983398 988.945312 C 451.000977 985.97168 450.009766 982.998047 449.018555 980.024414 C 447.036133 977.050781 446.044922 973.935547 445.053711 970.961914 C 442.929687 968.979492 440.947266 966.005859 439.956055 963.032227 C 437.973633 961.049805 435.991211 957.93457 434.008789 954.960937 C 431.035156 952.978516 429.052734 950.996094 427.070312 948.022461 C 423.955078 946.040039 421.972656 944.057617 419.990234 941.933594 C 417.016602 939.951172 414.042969 937.96875 412.060547 935.986328 C 408.945312 934.995117 405.97168 933.012695 403.989258 931.030273 C 400.024414 930.039062 397.050781 929.047852 393.935547 927.06543 C 389.970703 925.932617 386.99707 924.941406 384.023437 923.950195 C 381.049805 922.958984 377.93457 921.967773 374.960937 920.976562 C 370.996094 920.976562 367.03125 919.985352 364.057617 918.994141 C 359.951172 918.994141 356.977539 918.994141 354.003906 918.00293 C 350.039062 918.994141 345.932617 918.994141 342.958984 918.994141 C 339.985352 919.985352 336.020508 920.976562 333.046875 920.976562 C 329.931641 921.967773 325.966797 922.958984 322.993164 922.958984 C 320.019531 923.950195 317.045898 924.941406 313.930664 925.932617 C 310.957031 928.056641 306.992187 930.039062 304.018555 931.030273 C 301.044922 933.012695 299.0625 934.003906 295.947266 934.995117 C 292.973633 936.977539 290 938.959961 287.026367 940.942383 C 285.043945 944.057617 282.070312 946.040039 279.946289 948.022461 C 277.963867 950.996094 274.990234 952.978516 273.007812 954.960937 C 271.025391 957.93457 269.042969 961.049805 267.060547 963.032227 C 264.936523 966.005859 263.945312 968.979492 261.962891 970.961914 C 260.97168 973.935547 258.989258 977.050781 257.998047 980.024414 C 257.006836 982.998047 256.015625 985.97168 255.024414 988.945312 C 254.033203 992.060547 253.041992 995.03418 252.050781 998.007812 C 251.05957 1001.972656 251.05957 1004.946289 250.068359 1009.052734 C 250.068359 1012.026367 250.068359 1015.991211 250.068359 1018.964844 C 250.068359 1021.938477 250.068359 1026.044922 250.068359 1029.018555 Z M 250.068359 1029.018555 " transform="matrix(0.0275862, 0, 0, 0.0275862, 0, 0)"/>
<path fill-rule="nonzero" fill="rgb(0%, 0%, 100%)" fill-opacity="1" d="M 8.9375 8.910156 C 8.9375 8.773438 8.964844 8.632812 8.964844 8.496094 C 8.964844 8.359375 8.992188 8.21875 8.992188 8.082031 C 9.019531 7.945312 9.019531 7.808594 9.046875 7.695312 C 9.074219 7.558594 9.074219 7.421875 9.101562 7.308594 C 9.132812 7.171875 9.1875 7.035156 9.214844 6.925781 C 9.242188 6.785156 9.296875 6.648438 9.324219 6.539062 C 9.351562 6.398438 9.40625 6.261719 9.433594 6.152344 C 9.488281 6.042969 9.542969 5.929688 9.601562 5.820312 C 9.65625 5.683594 9.710938 5.574219 9.765625 5.460938 C 9.820312 5.351562 9.875 5.214844 9.957031 5.101562 C 10.015625 4.992188 10.070312 4.882812 10.125 4.773438 C 10.179688 4.660156 10.261719 4.578125 10.34375 4.46875 C 10.398438 4.359375 10.484375 4.25 10.566406 4.136719 C 10.648438 4.027344 10.730469 3.945312 10.839844 3.835938 C 10.925781 3.75 11.007812 3.640625 11.089844 3.558594 C 11.171875 3.476562 11.253906 3.367188 11.339844 3.28125 C 11.421875 3.199219 11.53125 3.089844 11.640625 3.007812 C 11.722656 2.925781 11.808594 2.839844 11.917969 2.757812 C 12.027344 2.675781 12.136719 2.59375 12.25 2.511719 C 12.359375 2.457031 12.46875 2.371094 12.578125 2.316406 C 12.660156 2.234375 12.773438 2.179688 12.882812 2.097656 C 12.992188 2.042969 13.101562 1.957031 13.242188 1.902344 C 13.351562 1.847656 13.460938 1.792969 13.601562 1.738281 C 13.710938 1.683594 13.820312 1.628906 13.929688 1.574219 C 14.042969 1.515625 14.179688 1.488281 14.316406 1.433594 C 14.425781 1.378906 14.566406 1.351562 14.703125 1.296875 C 14.8125 1.269531 14.953125 1.214844 15.089844 1.1875 C 15.199219 1.160156 15.339844 1.132812 15.476562 1.101562 C 15.613281 1.074219 15.75 1.046875 15.890625 1.019531 C 16 1.019531 16.136719 0.992188 16.25 0.992188 C 16.386719 0.992188 16.523438 0.964844 16.660156 0.964844 C 16.828125 0.964844 16.964844 0.964844 17.101562 0.964844 C 17.242188 0.964844 17.378906 0.964844 17.515625 0.964844 C 17.65625 0.964844 17.792969 0.992188 17.929688 0.992188 C 18.070312 0.992188 18.207031 1.019531 18.34375 1.019531 C 18.484375 1.046875 18.621094 1.074219 18.730469 1.101562 C 18.867188 1.132812 19.007812 1.160156 19.144531 1.1875 C 19.28125 1.214844 19.421875 1.269531 19.53125 1.296875 C 19.667969 1.351562 19.78125 1.378906 19.890625 1.433594 C 20.027344 1.488281 20.164062 1.515625 20.277344 1.574219 C 20.414062 1.628906 20.523438 1.683594 20.632812 1.738281 C 20.773438 1.792969 20.882812 1.820312 20.992188 1.875 C 21.132812 1.929688 21.242188 2.015625 21.351562 2.070312 C 21.460938 2.152344 21.574219 2.207031 21.65625 2.289062 C 21.765625 2.371094 21.875 2.425781 21.984375 2.511719 C 22.097656 2.59375 22.207031 2.675781 22.289062 2.757812 C 22.398438 2.839844 22.511719 2.898438 22.59375 2.980469 C 22.703125 3.0625 22.785156 3.144531 22.867188 3.226562 C 22.953125 3.339844 23.0625 3.421875 23.144531 3.53125 C 23.226562 3.613281 23.308594 3.722656 23.394531 3.808594 C 23.476562 3.917969 23.585938 4 23.667969 4.109375 C 23.75 4.21875 23.808594 4.304688 23.890625 4.414062 C 23.972656 4.523438 24.027344 4.632812 24.109375 4.746094 C 24.164062 4.855469 24.25 4.964844 24.304688 5.074219 C 24.359375 5.1875 24.414062 5.296875 24.46875 5.40625 C 24.523438 5.515625 24.605469 5.65625 24.660156 5.765625 C 24.71875 5.875 24.746094 5.984375 24.800781 6.125 C 24.855469 6.234375 24.882812 6.371094 24.9375 6.511719 C 24.964844 6.621094 25.019531 6.730469 25.046875 6.867188 C 25.074219 7.007812 25.101562 7.144531 25.132812 7.28125 C 25.160156 7.394531 25.1875 7.53125 25.214844 7.667969 C 25.242188 7.78125 25.242188 7.917969 25.269531 8.054688 C 25.269531 8.191406 25.296875 8.332031 25.296875 8.46875 C 25.296875 8.605469 25.296875 8.746094 25.296875 8.882812 C 25.296875 8.992188 25.296875 9.132812 25.296875 9.269531 C 25.296875 9.40625 25.269531 9.542969 25.269531 9.683594 C 25.242188 9.820312 25.242188 9.957031 25.214844 10.097656 C 25.1875 10.207031 25.160156 10.34375 25.132812 10.484375 C 25.101562 10.59375 25.074219 10.730469 25.046875 10.867188 C 25.019531 10.980469 24.964844 11.117188 24.9375 11.253906 C 24.910156 11.367188 24.855469 11.476562 24.828125 11.613281 C 24.773438 11.722656 24.71875 11.835938 24.660156 11.972656 C 24.605469 12.082031 24.550781 12.191406 24.496094 12.332031 C 24.441406 12.441406 24.359375 12.550781 24.304688 12.691406 C 24.25 12.800781 24.164062 12.910156 24.109375 13.019531 C 24.054688 13.101562 23.972656 13.214844 23.917969 13.324219 C 23.835938 13.40625 23.75 13.515625 23.667969 13.628906 C 23.585938 13.710938 23.53125 13.820312 23.449219 13.929688 C 23.367188 14.015625 23.253906 14.125 23.171875 14.234375 C 23.089844 14.316406 23.007812 14.398438 22.925781 14.511719 C 22.839844 14.59375 22.730469 14.675781 22.621094 14.785156 C 22.539062 14.867188 22.457031 14.953125 22.34375 15.035156 C 22.234375 15.089844 22.125 15.171875 22.015625 15.253906 C 21.929688 15.308594 21.820312 15.394531 21.710938 15.476562 C 21.601562 15.53125 21.488281 15.585938 21.351562 15.667969 C 21.269531 15.722656 21.160156 15.78125 21.046875 15.863281 C 20.9375 15.917969 20.800781 15.972656 20.660156 16.054688 C 20.550781 16.109375 20.441406 16.164062 20.304688 16.21875 C 20.191406 16.25 20.082031 16.304688 19.945312 16.332031 C 19.835938 16.386719 19.695312 16.414062 19.558594 16.441406 C 19.449219 16.496094 19.308594 16.523438 19.171875 16.550781 C 19.0625 16.605469 18.925781 16.632812 18.785156 16.660156 C 18.648438 16.691406 18.511719 16.71875 18.371094 16.71875 C 18.261719 16.746094 18.125 16.773438 17.984375 16.773438 C 17.847656 16.800781 17.710938 16.800781 17.542969 16.800781 C 17.40625 16.828125 17.269531 16.828125 17.132812 16.828125 C 16.992188 16.828125 16.855469 16.828125 16.71875 16.800781 C 16.578125 16.800781 16.441406 16.800781 16.304688 16.773438 C 16.164062 16.773438 16.054688 16.746094 15.917969 16.71875 C 15.78125 16.71875 15.640625 16.691406 15.53125 16.660156 C 15.394531 16.632812 15.253906 16.605469 15.117188 16.550781 C 14.980469 16.523438 14.839844 16.496094 14.730469 16.46875 C 14.59375 16.441406 14.457031 16.386719 14.34375 16.332031 C 14.207031 16.304688 14.097656 16.277344 13.984375 16.25 C 13.847656 16.191406 13.738281 16.136719 13.628906 16.082031 C 13.488281 16 13.378906 15.945312 13.269531 15.890625 C 13.132812 15.808594 13.019531 15.75 12.910156 15.695312 C 12.800781 15.613281 12.691406 15.558594 12.605469 15.503906 C 12.496094 15.421875 12.386719 15.339844 12.277344 15.28125 C 12.164062 15.199219 12.054688 15.117188 11.972656 15.0625 C 11.863281 14.953125 11.75 14.867188 11.667969 14.785156 C 11.558594 14.703125 11.449219 14.621094 11.367188 14.539062 C 11.28125 14.425781 11.199219 14.34375 11.117188 14.261719 C 11.007812 14.152344 10.925781 14.042969 10.839844 13.957031 C 10.757812 13.847656 10.675781 13.765625 10.59375 13.683594 C 10.511719 13.574219 10.425781 13.460938 10.371094 13.351562 C 10.289062 13.242188 10.207031 13.132812 10.152344 13.019531 C 10.070312 12.910156 10.015625 12.800781 9.957031 12.71875 C 9.902344 12.578125 9.847656 12.46875 9.792969 12.359375 C 9.710938 12.21875 9.65625 12.109375 9.601562 12 C 9.542969 11.890625 9.488281 11.78125 9.460938 11.667969 C 9.40625 11.53125 9.378906 11.394531 9.324219 11.28125 C 9.296875 11.144531 9.269531 11.007812 9.242188 10.898438 C 9.1875 10.757812 9.160156 10.648438 9.101562 10.539062 C 9.074219 10.398438 9.074219 10.261719 9.046875 10.125 C 9.019531 9.984375 9.019531 9.847656 8.992188 9.738281 C 8.992188 9.601562 8.964844 9.460938 8.964844 9.324219 C 8.964844 9.1875 8.9375 9.046875 8.9375 8.910156 Z M 10.539062 9.214844 C 10.539062 9.296875 10.539062 9.40625 10.566406 9.515625 C 10.566406 9.601562 10.566406 9.710938 10.59375 9.820312 C 10.59375 9.929688 10.621094 10.042969 10.648438 10.152344 C 10.648438 10.234375 10.675781 10.34375 10.703125 10.457031 C 10.730469 10.539062 10.757812 10.648438 10.8125 10.757812 C 10.839844 10.839844 10.867188 10.953125 10.925781 11.0625 C 10.953125 11.144531 10.980469 11.226562 11.007812 11.339844 C 11.035156 11.421875 11.089844 11.503906 11.144531 11.613281 C 11.171875 11.695312 11.226562 11.78125 11.28125 11.890625 C 11.339844 11.972656 11.394531 12.054688 11.449219 12.164062 C 11.503906 12.25 11.558594 12.332031 11.613281 12.441406 C 11.667969 12.523438 11.75 12.605469 11.835938 12.691406 C 11.890625 12.746094 11.945312 12.828125 12.027344 12.910156 C 12.082031 12.992188 12.136719 13.074219 12.21875 13.160156 C 12.277344 13.214844 12.359375 13.296875 12.441406 13.378906 C 12.496094 13.433594 12.578125 13.515625 12.660156 13.601562 C 12.71875 13.65625 12.800781 13.710938 12.882812 13.792969 C 12.964844 13.847656 13.046875 13.902344 13.160156 13.984375 C 13.242188 14.042969 13.324219 14.097656 13.40625 14.179688 C 13.488281 14.234375 13.574219 14.289062 13.683594 14.34375 C 13.765625 14.371094 13.847656 14.425781 13.957031 14.484375 C 14.042969 14.539062 14.125 14.59375 14.234375 14.648438 C 14.316406 14.675781 14.425781 14.703125 14.539062 14.757812 C 14.621094 14.785156 14.730469 14.8125 14.839844 14.867188 C 14.925781 14.898438 15.035156 14.925781 15.144531 14.953125 C 15.253906 14.980469 15.367188 15.007812 15.476562 15.0625 C 15.558594 15.0625 15.667969 15.089844 15.78125 15.117188 C 15.890625 15.144531 16 15.171875 16.109375 15.199219 C 16.191406 15.199219 16.304688 15.199219 16.414062 15.226562 C 16.523438 15.226562 16.632812 15.226562 16.746094 15.253906 C 16.882812 15.253906 16.992188 15.253906 17.101562 15.253906 C 17.214844 15.253906 17.324219 15.253906 17.433594 15.253906 C 17.574219 15.226562 17.683594 15.226562 17.792969 15.226562 C 17.902344 15.199219 18.015625 15.199219 18.125 15.199219 C 18.234375 15.171875 18.34375 15.144531 18.425781 15.144531 C 18.539062 15.117188 18.648438 15.089844 18.757812 15.089844 C 18.867188 15.035156 18.980469 15.007812 19.0625 14.980469 C 19.171875 14.953125 19.28125 14.925781 19.394531 14.898438 C 19.503906 14.839844 19.613281 14.8125 19.695312 14.785156 C 19.808594 14.730469 19.917969 14.675781 20 14.648438 C 20.109375 14.59375 20.191406 14.539062 20.277344 14.484375 C 20.386719 14.425781 20.46875 14.371094 20.550781 14.34375 C 20.660156 14.289062 20.746094 14.234375 20.828125 14.179688 C 20.910156 14.125 20.992188 14.070312 21.074219 14.015625 C 21.160156 13.929688 21.242188 13.875 21.324219 13.820312 C 21.40625 13.738281 21.488281 13.683594 21.574219 13.628906 C 21.65625 13.542969 21.738281 13.460938 21.792969 13.40625 C 21.875 13.324219 21.957031 13.242188 22.015625 13.1875 C 22.097656 13.101562 22.152344 13.019531 22.207031 12.9375 C 22.289062 12.855469 22.371094 12.773438 22.425781 12.71875 C 22.511719 12.605469 22.566406 12.523438 22.621094 12.441406 C 22.675781 12.359375 22.730469 12.277344 22.785156 12.191406 C 22.839844 12.109375 22.898438 12.027344 22.953125 11.945312 C 23.007812 11.835938 23.035156 11.75 23.089844 11.667969 C 23.144531 11.558594 23.171875 11.476562 23.226562 11.394531 C 23.253906 11.28125 23.308594 11.171875 23.339844 11.089844 C 23.367188 10.980469 23.421875 10.898438 23.449219 10.8125 C 23.476562 10.703125 23.503906 10.59375 23.53125 10.511719 C 23.558594 10.398438 23.558594 10.289062 23.585938 10.207031 C 23.613281 10.097656 23.640625 9.984375 23.667969 9.875 C 23.667969 9.765625 23.695312 9.65625 23.695312 9.542969 C 23.695312 9.433594 23.722656 9.324219 23.722656 9.242188 C 23.722656 9.132812 23.75 9.019531 23.75 8.910156 C 23.75 8.800781 23.722656 8.691406 23.722656 8.605469 C 23.722656 8.496094 23.695312 8.386719 23.695312 8.277344 C 23.695312 8.164062 23.667969 8.054688 23.667969 7.945312 C 23.640625 7.835938 23.640625 7.722656 23.613281 7.613281 C 23.585938 7.503906 23.558594 7.394531 23.53125 7.308594 C 23.503906 7.199219 23.476562 7.089844 23.449219 7.007812 C 23.421875 6.898438 23.394531 6.785156 23.367188 6.703125 C 23.308594 6.59375 23.28125 6.511719 23.226562 6.425781 C 23.171875 6.316406 23.144531 6.234375 23.089844 6.152344 C 23.035156 6.042969 23.007812 5.957031 22.953125 5.875 C 22.898438 5.765625 22.867188 5.683594 22.8125 5.601562 C 22.757812 5.515625 22.703125 5.433594 22.648438 5.351562 C 22.59375 5.269531 22.539062 5.1875 22.457031 5.101562 C 22.398438 5.019531 22.316406 4.9375 22.234375 4.855469 C 22.179688 4.773438 22.125 4.71875 22.042969 4.632812 C 21.984375 4.550781 21.902344 4.496094 21.820312 4.414062 C 21.765625 4.332031 21.683594 4.277344 21.601562 4.191406 C 21.515625 4.136719 21.433594 4.054688 21.351562 4 C 21.269531 3.945312 21.1875 3.863281 21.101562 3.808594 C 21.019531 3.75 20.9375 3.695312 20.855469 3.640625 C 20.773438 3.585938 20.691406 3.53125 20.578125 3.476562 C 20.496094 3.421875 20.414062 3.367188 20.304688 3.308594 C 20.21875 3.253906 20.136719 3.226562 20.027344 3.171875 C 19.945312 3.117188 19.835938 3.089844 19.722656 3.035156 C 19.640625 2.980469 19.53125 2.953125 19.421875 2.898438 C 19.339844 2.867188 19.226562 2.839844 19.117188 2.8125 C 19.035156 2.785156 18.925781 2.757812 18.8125 2.730469 C 18.703125 2.703125 18.59375 2.675781 18.484375 2.648438 C 18.371094 2.621094 18.261719 2.621094 18.125 2.59375 C 18.042969 2.59375 17.929688 2.566406 17.820312 2.566406 C 17.710938 2.566406 17.601562 2.539062 17.488281 2.539062 C 17.378906 2.539062 17.269531 2.511719 17.132812 2.511719 C 17.019531 2.511719 16.910156 2.511719 16.800781 2.511719 C 16.691406 2.539062 16.578125 2.539062 16.441406 2.566406 C 16.332031 2.566406 16.21875 2.59375 16.136719 2.59375 C 16.027344 2.621094 15.917969 2.621094 15.808594 2.648438 C 15.695312 2.675781 15.585938 2.703125 15.503906 2.730469 C 15.394531 2.757812 15.28125 2.757812 15.199219 2.785156 C 15.089844 2.8125 14.980469 2.867188 14.867188 2.898438 C 14.757812 2.953125 14.648438 2.980469 14.566406 3.035156 C 14.457031 3.0625 14.371094 3.117188 14.289062 3.144531 C 14.179688 3.199219 14.070312 3.226562 13.984375 3.28125 C 13.875 3.339844 13.792969 3.394531 13.710938 3.449219 C 13.628906 3.503906 13.542969 3.558594 13.460938 3.613281 C 13.351562 3.667969 13.269531 3.722656 13.1875 3.78125 C 13.101562 3.835938 13.019531 3.917969 12.9375 3.972656 C 12.855469 4.027344 12.773438 4.109375 12.691406 4.164062 C 12.605469 4.21875 12.523438 4.304688 12.441406 4.359375 C 12.359375 4.441406 12.304688 4.523438 12.25 4.605469 C 12.164062 4.691406 12.082031 4.746094 12.027344 4.828125 C 11.945312 4.910156 11.890625 4.992188 11.835938 5.074219 C 11.75 5.160156 11.695312 5.242188 11.640625 5.324219 C 11.585938 5.40625 11.53125 5.488281 11.476562 5.574219 C 11.421875 5.65625 11.367188 5.738281 11.308594 5.847656 C 11.253906 5.929688 11.199219 6.015625 11.171875 6.125 C 11.117188 6.207031 11.0625 6.289062 11.035156 6.398438 C 10.980469 6.484375 10.953125 6.59375 10.925781 6.703125 C 10.898438 6.785156 10.867188 6.898438 10.839844 7.007812 C 10.785156 7.089844 10.757812 7.171875 10.730469 7.28125 C 10.703125 7.367188 10.675781 7.476562 10.675781 7.585938 C 10.648438 7.667969 10.621094 7.78125 10.59375 7.890625 C 10.566406 8 10.566406 8.109375 10.566406 8.21875 C 10.539062 8.332031 10.539062 8.441406 10.539062 8.550781 C 10.539062 8.660156 10.539062 8.773438 10.539062 8.882812 C 10.539062 8.992188 10.539062 9.101562 10.539062 9.214844 Z M 10.539062 9.214844 "/>
<path fill="none" stroke-width="1" stroke-linecap="butt" stroke-linejoin="miter" stroke="rgb(0%, 0%, 100%)" stroke-opacity="1" stroke-miterlimit="4" d="M 323.984375 322.993164 C 323.984375 318.037109 324.975586 312.939453 324.975586 307.983398 C 324.975586 303.027344 325.966797 297.929687 325.966797 292.973633 C 326.958008 288.017578 326.958008 283.061523 327.949219 278.955078 C 328.94043 273.999023 328.94043 269.042969 329.931641 264.936523 C 331.064453 259.980469 333.046875 255.024414 334.038086 251.05957 C 335.029297 245.961914 337.011719 241.005859 338.00293 237.041016 C 338.994141 231.943359 340.976562 226.987305 341.967773 223.022461 C 343.950195 219.057617 345.932617 214.951172 348.056641 210.986328 C 350.039062 206.030273 352.021484 202.06543 354.003906 197.958984 C 355.986328 193.994141 357.96875 189.038086 360.942383 184.931641 C 363.066406 180.966797 365.048828 177.001953 367.03125 173.037109 C 369.013672 168.930664 371.987305 165.957031 374.960937 161.992187 C 376.943359 158.027344 380.058594 154.0625 383.032227 149.956055 C 386.005859 145.991211 388.979492 143.017578 392.944336 139.052734 C 396.05957 135.9375 399.033203 131.972656 402.006836 128.999023 C 404.980469 126.025391 407.954102 122.060547 411.069336 118.945312 C 414.042969 115.97168 418.007812 112.006836 421.972656 109.033203 C 424.946289 106.05957 428.061523 102.944336 432.026367 99.970703 C 435.991211 96.99707 439.956055 94.023437 444.0625 91.049805 C 448.027344 89.067383 451.992187 85.952148 455.957031 83.969727 C 458.930664 80.996094 463.037109 79.013672 467.001953 76.040039 C 470.966797 74.057617 474.931641 70.942383 480.029297 68.959961 C 483.994141 66.977539 487.958984 64.995117 493.056641 63.012695 C 497.021484 61.030273 500.986328 59.047852 504.951172 57.06543 C 509.057617 54.941406 514.013672 53.950195 518.969727 51.967773 C 522.93457 49.985352 528.032227 48.994141 532.988281 47.011719 C 536.953125 46.020508 542.050781 44.038086 547.006836 43.046875 C 550.97168 42.055664 556.069336 41.064453 561.025391 39.931641 C 565.981445 38.94043 570.9375 37.949219 576.035156 36.958008 C 580 36.958008 584.956055 35.966797 589.0625 35.966797 C 594.018555 35.966797 598.974609 34.975586 603.930664 34.975586 C 610.019531 34.975586 614.975586 34.975586 619.931641 34.975586 C 625.029297 34.975586 629.985352 34.975586 634.941406 34.975586 C 640.039062 34.975586 644.995117 35.966797 649.951172 35.966797 C 655.048828 35.966797 660.004883 36.958008 664.960937 36.958008 C 670.058594 37.949219 675.014648 38.94043 678.979492 39.931641 C 683.935547 41.064453 689.033203 42.055664 693.989258 43.046875 C 698.945312 44.038086 704.042969 46.020508 708.007812 47.011719 C 712.963867 48.994141 717.070312 49.985352 721.035156 51.967773 C 725.991211 53.950195 730.947266 54.941406 735.053711 57.06543 C 740.009766 59.047852 743.974609 61.030273 747.939453 63.012695 C 753.037109 64.995117 757.001953 65.986328 760.966797 67.96875 C 766.064453 69.951172 770.029297 73.066406 773.994141 75.048828 C 777.958984 78.022461 782.06543 80.004883 785.039062 82.978516 C 789.003906 85.952148 792.96875 87.93457 796.933594 91.049805 C 801.040039 94.023437 805.004883 96.99707 807.978516 99.970703 C 811.943359 102.944336 816.049805 105.068359 819.023437 108.041992 C 822.988281 111.015625 825.961914 113.989258 828.935547 116.962891 C 832.050781 121.069336 836.015625 124.042969 838.989258 128.007812 C 841.962891 130.981445 844.936523 134.946289 848.051758 138.061523 C 851.025391 142.026367 854.990234 145 857.963867 148.964844 C 860.9375 152.929687 863.061523 156.044922 866.035156 160.009766 C 869.008789 163.974609 870.991211 167.939453 873.964844 172.045898 C 875.947266 176.010742 879.0625 179.975586 881.044922 183.94043 C 883.027344 188.046875 885.009766 192.011719 886.992187 195.976562 C 888.974609 199.941406 891.948242 205.039062 893.930664 209.003906 C 896.054687 212.96875 897.045898 216.933594 899.02832 222.03125 C 901.010742 225.996094 902.001953 230.952148 903.984375 236.049805 C 904.975586 240.014648 906.958008 243.979492 907.949219 248.935547 C 908.94043 254.033203 909.931641 258.989258 911.064453 263.945312 C 912.055664 268.051758 913.046875 273.007812 914.038086 277.963867 C 915.029297 282.070312 915.029297 287.026367 916.020508 291.982422 C 916.020508 296.938477 917.011719 302.036133 917.011719 306.992187 C 917.011719 311.948242 917.011719 317.045898 917.011719 322.001953 C 917.011719 325.966797 917.011719 331.064453 917.011719 336.020508 C 917.011719 340.976562 916.020508 345.932617 916.020508 351.030273 C 915.029297 355.986328 915.029297 360.942383 914.038086 366.040039 C 913.046875 370.004883 912.055664 374.960937 911.064453 380.058594 C 909.931641 384.023437 908.94043 388.979492 907.949219 393.935547 C 906.958008 398.041992 904.975586 402.998047 903.984375 407.954102 C 902.993164 412.060547 901.010742 416.025391 900.019531 420.981445 C 898.037109 424.946289 896.054687 429.052734 893.930664 434.008789 C 891.948242 437.973633 889.96582 441.938477 887.983398 447.036133 C 886.000977 451.000977 883.027344 454.96582 881.044922 460.063477 C 879.0625 464.02832 875.947266 467.993164 873.964844 471.958008 C 871.982422 474.931641 869.008789 479.038086 867.026367 483.00293 C 864.052734 485.976562 860.9375 489.941406 857.963867 494.047852 C 854.990234 497.021484 853.007812 500.986328 850.03418 504.951172 C 847.060547 508.066406 842.954102 512.03125 839.980469 515.996094 C 837.006836 518.969727 834.033203 521.943359 831.05957 526.049805 C 827.944336 529.023437 823.979492 531.99707 820.014648 535.961914 C 817.041016 538.935547 814.067383 542.050781 809.960937 545.024414 C 805.996094 547.006836 802.03125 549.980469 798.066406 552.954102 C 794.951172 554.936523 790.986328 558.051758 787.021484 561.025391 C 783.056641 563.007812 778.950195 564.990234 773.994141 567.963867 C 771.020508 569.946289 767.055664 572.070312 762.949219 575.043945 C 758.984375 577.026367 754.02832 579.008789 748.930664 581.982422 C 744.96582 583.964844 741.000977 585.947266 736.044922 587.929687 C 731.938477 589.0625 727.973633 591.044922 723.017578 592.036133 C 719.052734 594.018555 713.955078 595.009766 708.999023 596.000977 C 705.03418 597.983398 699.936523 598.974609 694.980469 599.96582 C 691.015625 601.948242 686.05957 602.939453 680.961914 603.930664 C 676.005859 605.063477 671.049805 606.054687 665.952148 606.054687 C 661.987305 607.045898 657.03125 608.037109 651.933594 608.037109 C 646.977539 609.02832 642.021484 609.02832 635.932617 609.02832 C 630.976562 610.019531 626.020508 610.019531 621.064453 610.019531 C 615.966797 610.019531 611.010742 610.019531 606.054687 609.02832 C 600.957031 609.02832 596.000977 609.02832 591.044922 608.037109 C 585.947266 608.037109 581.982422 607.045898 577.026367 606.054687 C 572.070312 606.054687 566.972656 605.063477 563.007812 603.930664 C 558.051758 602.939453 552.954102 601.948242 547.998047 599.96582 C 543.041992 598.974609 537.944336 597.983398 533.979492 596.992187 C 529.023437 596.000977 524.067383 594.018555 519.960937 592.036133 C 515.004883 591.044922 511.040039 590.053711 506.933594 589.0625 C 501.977539 586.938477 498.012695 584.956055 494.047852 582.973633 C 488.950195 580 484.985352 578.017578 481.020508 576.035156 C 476.064453 573.061523 471.958008 570.9375 467.993164 568.955078 C 464.02832 565.981445 460.063477 563.999023 456.948242 562.016602 C 452.983398 559.042969 449.018555 556.069336 445.053711 553.945312 C 440.947266 550.97168 436.982422 547.998047 434.008789 546.015625 C 430.043945 542.050781 425.9375 538.935547 422.963867 535.961914 C 418.999023 532.988281 415.03418 530.014648 412.060547 527.041016 C 408.945312 522.93457 405.97168 519.960937 402.998047 516.987305 C 399.033203 513.022461 396.05957 509.057617 392.944336 505.942383 C 389.970703 501.977539 386.99707 499.003906 384.023437 496.030273 C 381.049805 492.06543 377.93457 487.958984 375.952148 483.994141 C 372.978516 480.029297 370.004883 476.064453 368.022461 471.958008 C 365.048828 467.993164 363.066406 464.02832 360.942383 461.054687 C 358.959961 455.957031 356.977539 451.992187 354.995117 448.027344 C 352.021484 442.929687 350.039062 438.964844 348.056641 435 C 345.932617 431.035156 343.950195 427.070312 342.958984 422.963867 C 340.976562 418.007812 339.985352 413.051758 338.00293 408.945312 C 337.011719 403.989258 336.020508 399.033203 335.029297 395.068359 C 333.046875 389.970703 332.055664 386.005859 329.931641 382.041016 C 328.94043 376.943359 328.94043 371.987305 327.949219 367.03125 C 326.958008 361.933594 326.958008 356.977539 325.966797 353.012695 C 325.966797 348.056641 324.975586 342.958984 324.975586 338.00293 C 324.975586 333.046875 323.984375 327.949219 323.984375 322.993164 Z M 323.984375 322.993164 " transform="matrix(0.0275862, 0, 0, 0.0275862, 0, 0)"/>
<path fill="none" stroke-width="1" stroke-linecap="butt" stroke-linejoin="miter" stroke="rgb(0%, 0%, 100%)" stroke-opacity="1" stroke-miterlimit="4" d="M 382.041016 334.038086 C 382.041016 337.011719 382.041016 340.976562 383.032227 344.941406 C 383.032227 348.056641 383.032227 352.021484 384.023437 355.986328 C 384.023437 359.951172 385.014648 364.057617 386.005859 368.022461 C 386.005859 370.996094 386.99707 374.960937 387.988281 379.067383 C 388.979492 382.041016 389.970703 386.005859 391.953125 389.970703 C 392.944336 392.944336 393.935547 397.050781 396.05957 401.015625 C 397.050781 403.989258 398.041992 406.962891 399.033203 411.069336 C 400.024414 414.042969 402.006836 417.016602 403.989258 420.981445 C 404.980469 423.955078 406.962891 427.070312 408.945312 431.035156 C 411.069336 434.008789 413.051758 436.982422 415.03418 440.947266 C 417.016602 444.0625 418.999023 447.036133 420.981445 451.000977 C 422.963867 453.974609 425.9375 456.948242 429.052734 460.063477 C 431.035156 462.045898 433.017578 465.019531 435.991211 467.993164 C 437.973633 470.966797 439.956055 473.94043 442.929687 477.055664 C 445.053711 479.038086 448.027344 482.011719 451.000977 484.985352 C 452.983398 486.967773 455.957031 489.941406 458.930664 493.056641 C 461.054687 495.039062 464.02832 497.021484 467.001953 499.995117 C 469.975586 501.977539 472.949219 503.959961 477.055664 506.933594 C 480.029297 509.057617 483.00293 511.040039 485.976562 514.013672 C 488.950195 515.996094 492.06543 517.978516 496.030273 519.960937 C 499.003906 520.952148 501.977539 522.93457 505.942383 525.058594 C 509.057617 527.041016 512.03125 529.023437 515.996094 531.005859 C 518.969727 531.99707 522.93457 532.988281 527.041016 534.970703 C 530.014648 535.961914 533.979492 536.953125 537.944336 538.935547 C 541.05957 540.068359 545.024414 541.05957 548.989258 542.050781 C 552.954102 543.041992 557.060547 544.033203 561.025391 546.015625 C 563.999023 546.015625 567.963867 547.006836 572.070312 547.998047 C 576.035156 548.989258 580 549.980469 583.964844 550.97168 C 586.938477 550.97168 591.044922 550.97168 595.009766 551.962891 C 598.974609 551.962891 602.939453 551.962891 607.045898 552.954102 C 612.001953 552.954102 615.966797 552.954102 619.931641 552.954102 C 624.038086 552.954102 628.00293 552.954102 631.967773 552.954102 C 637.06543 551.962891 641.030273 551.962891 644.995117 551.962891 C 648.959961 550.97168 653.066406 550.97168 657.03125 550.97168 C 660.996094 549.980469 664.960937 548.989258 667.93457 548.989258 C 672.041016 547.998047 676.005859 547.006836 679.970703 547.006836 C 683.935547 545.024414 688.041992 544.033203 691.015625 543.041992 C 694.980469 542.050781 698.945312 541.05957 703.051758 540.068359 C 707.016602 537.944336 710.981445 536.953125 713.955078 535.961914 C 718.061523 533.979492 722.026367 531.99707 725 531.005859 C 728.964844 529.023437 731.938477 527.041016 735.053711 525.058594 C 739.018555 522.93457 741.992187 520.952148 744.96582 519.960937 C 748.930664 517.978516 752.045898 515.996094 755.019531 514.013672 C 757.993164 512.03125 760.966797 510.048828 763.94043 508.066406 C 767.055664 504.951172 770.029297 502.96875 773.00293 500.986328 C 775.976562 498.012695 778.950195 496.030273 782.06543 494.047852 C 785.039062 490.932617 788.012695 487.958984 789.995117 485.976562 C 792.96875 483.00293 795.942383 480.029297 798.066406 478.046875 C 801.040039 474.931641 803.022461 471.958008 805.004883 468.984375 C 807.978516 466.010742 810.952148 463.037109 812.93457 461.054687 C 816.049805 456.948242 818.032227 453.974609 820.014648 451.000977 C 821.99707 448.027344 823.979492 445.053711 825.961914 441.938477 C 827.944336 438.964844 830.068359 435.991211 832.050781 433.017578 C 834.033203 429.052734 835.024414 425.9375 837.006836 422.963867 C 838.989258 418.999023 839.980469 416.025391 841.962891 413.051758 C 842.954102 408.945312 844.936523 404.980469 846.069336 402.006836 C 847.060547 398.041992 849.042969 395.068359 850.03418 391.953125 C 851.025391 387.988281 852.016602 384.023437 853.007812 381.049805 C 853.999023 376.943359 853.999023 372.978516 854.990234 370.004883 C 855.981445 366.040039 856.972656 361.933594 857.963867 357.96875 C 857.963867 354.003906 858.955078 350.039062 858.955078 345.932617 C 858.955078 341.967773 859.946289 338.00293 859.946289 335.029297 C 859.946289 331.064453 860.9375 326.958008 860.9375 322.993164 C 860.9375 319.02832 859.946289 315.063477 859.946289 311.948242 C 859.946289 307.983398 858.955078 304.018555 858.955078 300.053711 C 858.955078 295.947266 857.963867 291.982422 857.963867 288.017578 C 856.972656 284.052734 856.972656 279.946289 855.981445 275.981445 C 854.990234 272.016602 853.999023 268.051758 853.007812 264.936523 C 852.016602 260.97168 851.025391 257.006836 850.03418 254.033203 C 849.042969 250.068359 848.051758 245.961914 847.060547 242.988281 C 844.936523 239.023437 843.945312 236.049805 841.962891 232.93457 C 839.980469 228.969727 838.989258 225.996094 837.006836 223.022461 C 835.024414 219.057617 834.033203 215.942383 832.050781 212.96875 C 830.068359 209.003906 828.935547 206.030273 826.953125 203.056641 C 824.970703 199.941406 822.988281 196.967773 821.005859 193.994141 C 819.023437 191.020508 817.041016 188.046875 814.067383 184.931641 C 811.943359 181.958008 808.969727 178.984375 805.996094 176.010742 C 804.013672 173.037109 802.03125 171.054687 799.057617 167.939453 C 796.933594 164.96582 793.959961 162.983398 790.986328 160.009766 C 789.003906 157.036133 786.030273 155.053711 783.056641 151.938477 C 779.941406 149.956055 776.967773 146.982422 773.994141 145 C 771.020508 143.017578 768.046875 140.043945 764.931641 138.061523 C 761.958008 135.9375 758.984375 133.955078 756.010742 131.972656 C 753.037109 129.990234 750.063477 128.007812 745.957031 126.025391 C 742.983398 124.042969 740.009766 122.060547 736.044922 119.936523 C 732.929687 117.954102 729.956055 116.962891 725.991211 114.980469 C 723.017578 112.998047 719.052734 112.006836 714.946289 110.024414 C 711.972656 108.041992 708.007812 107.050781 704.042969 105.068359 C 701.069336 103.935547 696.962891 102.944336 692.998047 101.953125 C 690.024414 100.961914 686.05957 99.970703 681.953125 98.979492 C 677.988281 97.988281 674.023437 96.99707 670.058594 96.005859 C 665.952148 95.014648 661.987305 95.014648 657.03125 94.023437 C 654.057617 94.023437 649.951172 93.032227 645.986328 93.032227 C 642.021484 93.032227 638.056641 92.041016 633.950195 92.041016 C 629.985352 92.041016 626.020508 91.049805 621.064453 91.049805 C 616.958008 91.049805 612.993164 91.049805 609.02832 91.049805 C 605.063477 92.041016 600.957031 92.041016 596.000977 93.032227 C 592.036133 93.032227 587.929687 94.023437 584.956055 94.023437 C 580.991211 95.014648 577.026367 95.014648 573.061523 96.005859 C 568.955078 96.99707 564.990234 97.988281 562.016602 98.979492 C 558.051758 99.970703 553.945312 99.970703 550.97168 100.961914 C 547.006836 101.953125 543.041992 103.935547 538.935547 105.068359 C 534.970703 107.050781 531.005859 108.041992 528.032227 110.024414 C 524.067383 111.015625 520.952148 112.998047 517.978516 113.989258 C 514.013672 115.97168 510.048828 116.962891 506.933594 118.945312 C 502.96875 121.069336 499.995117 123.051758 497.021484 125.03418 C 494.047852 127.016602 490.932617 128.999023 487.958984 130.981445 C 483.994141 132.963867 481.020508 134.946289 478.046875 137.070312 C 474.931641 139.052734 471.958008 142.026367 468.984375 144.008789 C 466.010742 145.991211 463.037109 148.964844 460.063477 150.947266 C 456.948242 152.929687 453.974609 156.044922 451.000977 158.027344 C 448.027344 161.000977 446.044922 163.974609 444.0625 166.948242 C 440.947266 170.063477 437.973633 172.045898 435.991211 175.019531 C 433.017578 177.993164 431.035156 180.966797 429.052734 183.94043 C 425.9375 187.055664 423.955078 190.029297 421.972656 193.00293 C 419.990234 195.976562 418.007812 198.950195 416.025391 202.06543 C 414.042969 205.039062 412.060547 208.012695 409.936523 211.977539 C 407.954102 214.951172 405.97168 218.066406 404.980469 222.03125 C 402.998047 225.004883 401.015625 227.978516 400.024414 231.943359 C 398.041992 235.058594 397.050781 239.023437 396.05957 242.988281 C 395.068359 245.961914 393.935547 250.068359 392.944336 254.033203 C 390.961914 257.006836 389.970703 259.980469 388.979492 263.945312 C 387.988281 267.060547 386.99707 271.025391 386.99707 274.990234 C 386.005859 277.963867 385.014648 282.070312 384.023437 286.035156 C 383.032227 290 383.032227 293.964844 383.032227 297.929687 C 382.041016 302.036133 382.041016 306.000977 382.041016 309.96582 C 382.041016 313.930664 382.041016 318.037109 382.041016 322.001953 C 382.041016 325.966797 382.041016 329.931641 382.041016 334.038086 Z M 382.041016 334.038086 " transform="matrix(0.0275862, 0, 0, 0.0275862, 0, 0)"/>
<path fill-rule="nonzero" fill="rgb(0%, 0%, 100%)" fill-opacity="1" d="M 14.015625 10.980469 C 14.015625 9.683594 14.015625 8.386719 14.015625 7.0625 C 14.980469 7.0625 15.945312 7.0625 16.910156 7.0625 C 16.910156 7.28125 16.910156 7.503906 16.910156 7.722656 C 16.21875 7.722656 15.53125 7.722656 14.8125 7.722656 C 14.8125 8.027344 14.8125 8.304688 14.8125 8.605469 C 15.476562 8.605469 16.109375 8.605469 16.773438 8.605469 C 16.773438 8.828125 16.773438 9.046875 16.773438 9.269531 C 16.109375 9.269531 15.476562 9.269531 14.8125 9.269531 C 14.8125 9.601562 14.8125 9.957031 14.8125 10.316406 C 15.53125 10.316406 16.277344 10.316406 16.992188 10.316406 C 16.992188 10.539062 16.992188 10.757812 16.992188 10.980469 Z M 14.015625 10.980469 "/>
<path fill-rule="nonzero" fill="rgb(0%, 0%, 100%)" fill-opacity="1" d="M 17.324219 10.980469 C 17.324219 10.730469 17.324219 10.511719 17.324219 10.261719 C 18.015625 9.433594 18.703125 8.578125 19.394531 7.722656 C 18.785156 7.722656 18.179688 7.722656 17.574219 7.722656 C 17.574219 7.503906 17.574219 7.28125 17.574219 7.0625 C 18.511719 7.0625 19.476562 7.0625 20.414062 7.0625 C 20.414062 7.28125 20.414062 7.476562 20.414062 7.695312 C 19.695312 8.550781 19.007812 9.433594 18.289062 10.316406 C 19.035156 10.316406 19.75 10.316406 20.496094 10.316406 C 20.496094 10.539062 20.496094 10.757812 20.496094 10.980469 Z M 17.324219 10.980469 "/>
</svg>
