<?xml version="1.0" encoding="UTF-8"?>
<svg xmlns="http://www.w3.org/2000/svg" xmlns:xlink="http://www.w3.org/1999/xlink" width="32" height="32" viewBox="0 0 32 32">
<path fill-rule="nonzero" fill="rgb(0%, 0%, 100%)" fill-opacity="1" stroke-width="1" stroke-linecap="butt" stroke-linejoin="miter" stroke="rgb(0%, 0%, 100%)" stroke-opacity="1" stroke-miterlimit="4" d="M 389.970703 318.037109 C 389.970703 533.979492 389.970703 750.063477 389.970703 966.005859 C 370.996094 966.005859 352.021484 966.005859 334.038086 966.005859 C 334.038086 750.063477 334.038086 533.979492 334.038086 318.037109 C 352.021484 318.037109 370.996094 318.037109 389.970703 318.037109 Z M 389.970703 318.037109 " transform="matrix(0.0275862, 0, 0, 0.0275862, 0, 0)"/>
<path fill-rule="nonzero" fill="rgb(0%, 0%, 100%)" fill-opacity="1" d="M 9.214844 8.773438 C 9.214844 8.632812 9.214844 8.496094 9.242188 8.359375 C 9.242188 8.21875 9.242188 8.082031 9.269531 7.945312 C 9.269531 7.808594 9.296875 7.667969 9.324219 7.558594 C 9.324219 7.421875 9.351562 7.28125 9.378906 7.171875 C 9.40625 7.035156 9.433594 6.898438 9.488281 6.785156 C 9.515625 6.648438 9.542969 6.539062 9.601562 6.425781 C 9.628906 6.289062 9.65625 6.179688 9.710938 6.070312 C 9.738281 5.929688 9.792969 5.792969 9.847656 5.683594 C 9.902344 5.574219 9.957031 5.460938 10.015625 5.351562 C 10.070312 5.242188 10.125 5.132812 10.207031 5.019531 C 10.261719 4.910156 10.316406 4.773438 10.398438 4.660156 C 10.457031 4.550781 10.539062 4.46875 10.621094 4.359375 C 10.675781 4.277344 10.730469 4.164062 10.8125 4.082031 C 10.898438 3.972656 10.980469 3.890625 11.089844 3.78125 C 11.171875 3.667969 11.253906 3.585938 11.339844 3.476562 C 11.421875 3.394531 11.503906 3.28125 11.585938 3.199219 C 11.667969 3.117188 11.75 3.035156 11.863281 2.953125 C 11.945312 2.867188 12.054688 2.785156 12.164062 2.703125 C 12.25 2.621094 12.359375 2.539062 12.46875 2.457031 C 12.578125 2.398438 12.691406 2.316406 12.800781 2.261719 C 12.910156 2.179688 13.019531 2.125 13.132812 2.042969 C 13.242188 1.984375 13.351562 1.929688 13.460938 1.875 C 13.574219 1.820312 13.683594 1.738281 13.792969 1.683594 C 13.902344 1.628906 14.042969 1.601562 14.179688 1.542969 C 14.289062 1.488281 14.398438 1.460938 14.539062 1.40625 C 14.648438 1.351562 14.785156 1.324219 14.925781 1.269531 C 15.035156 1.242188 15.144531 1.1875 15.28125 1.160156 C 15.394531 1.132812 15.53125 1.101562 15.667969 1.074219 C 15.808594 1.046875 15.945312 1.019531 16.054688 0.992188 C 16.191406 0.992188 16.332031 0.964844 16.441406 0.964844 C 16.578125 0.9375 16.71875 0.9375 16.855469 0.910156 C 16.992188 0.910156 17.132812 0.910156 17.269531 0.910156 C 17.40625 0.910156 17.542969 0.910156 17.683594 0.910156 C 17.820312 0.9375 17.957031 0.9375 18.097656 0.964844 C 18.234375 0.964844 18.371094 0.992188 18.511719 0.992188 C 18.648438 1.019531 18.785156 1.046875 18.898438 1.074219 C 19.035156 1.101562 19.171875 1.101562 19.28125 1.132812 C 19.421875 1.1875 19.558594 1.214844 19.667969 1.269531 C 19.808594 1.296875 19.945312 1.351562 20.054688 1.378906 C 20.191406 1.433594 20.304688 1.460938 20.414062 1.515625 C 20.550781 1.574219 20.660156 1.628906 20.773438 1.683594 C 20.910156 1.738281 21.019531 1.792969 21.132812 1.847656 C 21.242188 1.902344 21.351562 1.957031 21.460938 2.015625 C 21.574219 2.097656 21.683594 2.152344 21.765625 2.234375 C 21.875 2.316406 21.984375 2.371094 22.097656 2.457031 C 22.207031 2.539062 22.316406 2.59375 22.398438 2.675781 C 22.511719 2.757812 22.621094 2.839844 22.703125 2.925781 C 22.8125 3.007812 22.898438 3.117188 22.980469 3.199219 C 23.0625 3.28125 23.171875 3.367188 23.253906 3.449219 C 23.339844 3.558594 23.449219 3.640625 23.53125 3.75 C 23.613281 3.835938 23.667969 3.945312 23.75 4.027344 C 23.835938 4.136719 23.890625 4.25 23.972656 4.359375 C 24.054688 4.46875 24.109375 4.550781 24.191406 4.660156 C 24.25 4.773438 24.332031 4.855469 24.386719 4.964844 C 24.441406 5.074219 24.496094 5.214844 24.550781 5.324219 C 24.605469 5.433594 24.660156 5.574219 24.71875 5.683594 C 24.773438 5.792969 24.828125 5.902344 24.882812 6.015625 C 24.910156 6.125 24.964844 6.261719 24.992188 6.398438 C 25.046875 6.511719 25.074219 6.621094 25.132812 6.757812 C 25.160156 6.867188 25.1875 7.007812 25.214844 7.144531 C 25.242188 7.253906 25.242188 7.394531 25.269531 7.53125 C 25.296875 7.640625 25.296875 7.78125 25.324219 7.917969 C 25.351562 8.054688 25.351562 8.191406 25.378906 8.332031 C 25.378906 8.441406 25.378906 8.578125 25.378906 8.71875 C 25.378906 8.828125 25.378906 8.964844 25.378906 9.101562 C 25.378906 9.242188 25.351562 9.378906 25.351562 9.515625 C 25.324219 9.65625 25.296875 9.792969 25.269531 9.929688 C 25.242188 10.042969 25.242188 10.152344 25.214844 10.289062 C 25.1875 10.398438 25.160156 10.539062 25.132812 10.675781 C 25.101562 10.785156 25.046875 10.925781 25.019531 11.0625 C 24.964844 11.171875 24.9375 11.28125 24.882812 11.421875 C 24.828125 11.53125 24.800781 11.640625 24.746094 11.78125 C 24.691406 11.890625 24.632812 12 24.578125 12.136719 C 24.523438 12.21875 24.441406 12.332031 24.386719 12.441406 C 24.332031 12.550781 24.277344 12.660156 24.21875 12.800781 C 24.136719 12.882812 24.082031 12.992188 24 13.101562 C 23.917969 13.1875 23.863281 13.296875 23.78125 13.40625 C 23.695312 13.488281 23.613281 13.601562 23.53125 13.710938 C 23.449219 13.792969 23.367188 13.875 23.28125 13.984375 C 23.199219 14.070312 23.089844 14.152344 23.007812 14.261719 C 22.925781 14.34375 22.839844 14.425781 22.730469 14.511719 C 22.648438 14.59375 22.566406 14.675781 22.457031 14.785156 C 22.34375 14.839844 22.234375 14.925781 22.125 15.007812 C 22.042969 15.0625 21.929688 15.144531 21.820312 15.226562 C 21.710938 15.28125 21.601562 15.339844 21.488281 15.421875 C 21.378906 15.476562 21.269531 15.53125 21.160156 15.613281 C 21.046875 15.667969 20.9375 15.722656 20.800781 15.808594 C 20.691406 15.835938 20.578125 15.890625 20.441406 15.945312 C 20.332031 15.972656 20.21875 16.027344 20.082031 16.082031 C 19.972656 16.109375 19.863281 16.164062 19.722656 16.21875 C 19.585938 16.25 19.449219 16.277344 19.308594 16.304688 C 19.199219 16.332031 19.089844 16.359375 18.953125 16.386719 C 18.8125 16.414062 18.675781 16.441406 18.539062 16.441406 C 18.398438 16.46875 18.261719 16.496094 18.125 16.496094 C 17.984375 16.523438 17.847656 16.523438 17.710938 16.523438 C 17.601562 16.523438 17.460938 16.523438 17.324219 16.523438 C 17.1875 16.523438 17.046875 16.523438 16.910156 16.523438 C 16.773438 16.523438 16.632812 16.523438 16.496094 16.496094 C 16.359375 16.496094 16.21875 16.46875 16.082031 16.441406 C 15.972656 16.441406 15.835938 16.414062 15.722656 16.386719 C 15.585938 16.359375 15.449219 16.332031 15.339844 16.304688 C 15.199219 16.277344 15.0625 16.25 14.925781 16.21875 C 14.785156 16.164062 14.675781 16.136719 14.566406 16.109375 C 14.425781 16.054688 14.289062 16 14.179688 15.972656 C 14.070312 15.917969 13.957031 15.863281 13.847656 15.808594 C 13.710938 15.75 13.601562 15.695312 13.488281 15.640625 C 13.378906 15.558594 13.269531 15.503906 13.160156 15.449219 C 13.046875 15.367188 12.9375 15.28125 12.828125 15.226562 C 12.71875 15.144531 12.605469 15.089844 12.496094 15.035156 C 12.386719 14.953125 12.277344 14.867188 12.191406 14.785156 C 12.082031 14.703125 11.972656 14.621094 11.890625 14.539062 C 11.78125 14.457031 11.695312 14.371094 11.613281 14.289062 C 11.53125 14.207031 11.449219 14.125 11.367188 14.042969 C 11.28125 13.929688 11.199219 13.820312 11.117188 13.738281 C 11.007812 13.628906 10.925781 13.542969 10.839844 13.460938 C 10.757812 13.351562 10.703125 13.242188 10.648438 13.132812 C 10.566406 13.019531 10.484375 12.910156 10.425781 12.828125 C 10.34375 12.71875 10.289062 12.605469 10.234375 12.496094 C 10.152344 12.359375 10.097656 12.25 10.042969 12.136719 C 9.984375 12.027344 9.929688 11.917969 9.875 11.808594 C 9.820312 11.667969 9.765625 11.558594 9.738281 11.449219 C 9.683594 11.308594 9.628906 11.199219 9.601562 11.089844 C 9.542969 10.953125 9.515625 10.8125 9.488281 10.703125 C 9.433594 10.566406 9.40625 10.457031 9.378906 10.34375 C 9.351562 10.207031 9.324219 10.070312 9.324219 9.957031 C 9.296875 9.820312 9.269531 9.683594 9.269531 9.542969 C 9.242188 9.40625 9.242188 9.269531 9.242188 9.160156 C 9.214844 9.019531 9.214844 8.882812 9.214844 8.773438 Z M 10.785156 9.046875 C 10.785156 9.132812 10.785156 9.242188 10.8125 9.351562 C 10.8125 9.433594 10.8125 9.542969 10.839844 9.65625 C 10.839844 9.738281 10.867188 9.847656 10.898438 9.957031 C 10.925781 10.042969 10.953125 10.152344 10.980469 10.261719 C 11.007812 10.34375 11.035156 10.457031 11.0625 10.566406 C 11.089844 10.648438 11.117188 10.757812 11.171875 10.867188 C 11.199219 10.953125 11.226562 11.035156 11.28125 11.144531 C 11.308594 11.226562 11.339844 11.308594 11.394531 11.421875 C 11.449219 11.503906 11.503906 11.585938 11.558594 11.695312 C 11.585938 11.78125 11.640625 11.863281 11.695312 11.972656 C 11.75 12.054688 11.808594 12.136719 11.863281 12.21875 C 11.917969 12.304688 11.972656 12.386719 12.054688 12.46875 C 12.109375 12.550781 12.164062 12.632812 12.25 12.71875 C 12.304688 12.773438 12.359375 12.855469 12.441406 12.9375 C 12.496094 12.992188 12.578125 13.074219 12.660156 13.160156 C 12.71875 13.214844 12.800781 13.269531 12.882812 13.351562 C 12.964844 13.40625 13.046875 13.488281 13.132812 13.574219 C 13.214844 13.628906 13.296875 13.683594 13.378906 13.765625 C 13.460938 13.792969 13.542969 13.847656 13.628906 13.902344 C 13.710938 13.957031 13.792969 14.015625 13.902344 14.070312 C 13.984375 14.125 14.070312 14.179688 14.179688 14.234375 C 14.261719 14.261719 14.34375 14.316406 14.457031 14.371094 C 14.539062 14.398438 14.648438 14.425781 14.757812 14.484375 C 14.839844 14.511719 14.953125 14.566406 15.0625 14.621094 C 15.144531 14.648438 15.253906 14.675781 15.367188 14.730469 C 15.449219 14.757812 15.53125 14.785156 15.640625 14.8125 C 15.75 14.839844 15.863281 14.867188 15.972656 14.898438 C 16.054688 14.898438 16.164062 14.898438 16.277344 14.925781 C 16.386719 14.925781 16.496094 14.953125 16.605469 14.980469 C 16.71875 14.980469 16.828125 14.980469 16.9375 15.007812 C 17.046875 15.007812 17.160156 15.007812 17.269531 15.007812 C 17.40625 15.007812 17.515625 15.007812 17.628906 15.007812 C 17.738281 14.980469 17.847656 14.980469 17.957031 14.980469 C 18.070312 14.953125 18.179688 14.925781 18.261719 14.925781 C 18.371094 14.898438 18.484375 14.898438 18.59375 14.898438 C 18.703125 14.867188 18.8125 14.839844 18.925781 14.8125 C 19.035156 14.785156 19.144531 14.757812 19.226562 14.730469 C 19.339844 14.703125 19.449219 14.675781 19.53125 14.648438 C 19.640625 14.59375 19.75 14.539062 19.835938 14.511719 C 19.945312 14.457031 20.054688 14.425781 20.136719 14.398438 C 20.25 14.34375 20.332031 14.289062 20.414062 14.261719 C 20.523438 14.207031 20.605469 14.152344 20.691406 14.097656 C 20.773438 14.042969 20.855469 13.984375 20.9375 13.929688 C 21.019531 13.875 21.101562 13.820312 21.1875 13.765625 C 21.296875 13.710938 21.378906 13.65625 21.460938 13.601562 C 21.542969 13.515625 21.628906 13.433594 21.683594 13.378906 C 21.765625 13.296875 21.847656 13.242188 21.902344 13.1875 C 21.984375 13.101562 22.070312 13.019531 22.125 12.964844 C 22.207031 12.882812 22.289062 12.800781 22.34375 12.746094 C 22.398438 12.660156 22.457031 12.578125 22.511719 12.496094 C 22.59375 12.414062 22.648438 12.332031 22.703125 12.25 C 22.785156 12.164062 22.839844 12.082031 22.898438 12 C 22.953125 11.890625 22.980469 11.808594 23.035156 11.722656 C 23.089844 11.640625 23.144531 11.558594 23.199219 11.476562 C 23.226562 11.367188 23.28125 11.28125 23.308594 11.199219 C 23.339844 11.089844 23.394531 10.980469 23.421875 10.898438 C 23.449219 10.785156 23.503906 10.703125 23.53125 10.621094 C 23.558594 10.511719 23.585938 10.398438 23.613281 10.316406 C 23.640625 10.207031 23.667969 10.097656 23.695312 10.015625 C 23.722656 9.902344 23.722656 9.792969 23.75 9.710938 C 23.78125 9.601562 23.78125 9.488281 23.808594 9.378906 C 23.808594 9.269531 23.808594 9.160156 23.808594 9.074219 C 23.808594 8.964844 23.835938 8.855469 23.835938 8.773438 C 23.835938 8.660156 23.808594 8.550781 23.808594 8.441406 C 23.808594 8.332031 23.808594 8.21875 23.808594 8.109375 C 23.78125 8 23.78125 7.890625 23.75 7.808594 C 23.722656 7.695312 23.722656 7.585938 23.695312 7.503906 C 23.667969 7.394531 23.667969 7.28125 23.640625 7.171875 C 23.613281 7.0625 23.558594 6.980469 23.53125 6.898438 C 23.503906 6.785156 23.476562 6.675781 23.449219 6.59375 C 23.421875 6.484375 23.367188 6.398438 23.339844 6.316406 C 23.28125 6.207031 23.253906 6.125 23.199219 6.042969 C 23.144531 5.929688 23.117188 5.847656 23.0625 5.765625 C 23.007812 5.683594 22.953125 5.601562 22.898438 5.515625 C 22.839844 5.433594 22.785156 5.324219 22.730469 5.242188 C 22.675781 5.160156 22.621094 5.074219 22.566406 4.992188 C 22.511719 4.910156 22.425781 4.855469 22.34375 4.773438 C 22.289062 4.691406 22.234375 4.605469 22.152344 4.523438 C 22.097656 4.46875 22.015625 4.386719 21.929688 4.332031 C 21.875 4.25 21.792969 4.191406 21.710938 4.109375 C 21.628906 4.054688 21.542969 3.972656 21.460938 3.917969 C 21.378906 3.863281 21.296875 3.78125 21.214844 3.722656 C 21.132812 3.667969 21.046875 3.585938 20.964844 3.53125 C 20.882812 3.476562 20.800781 3.421875 20.71875 3.367188 C 20.632812 3.308594 20.550781 3.28125 20.441406 3.226562 C 20.359375 3.171875 20.277344 3.144531 20.164062 3.089844 C 20.082031 3.035156 19.972656 3.007812 19.863281 2.953125 C 19.78125 2.925781 19.667969 2.867188 19.558594 2.839844 C 19.476562 2.8125 19.394531 2.785156 19.28125 2.757812 C 19.171875 2.730469 19.0625 2.675781 18.953125 2.648438 C 18.867188 2.621094 18.757812 2.621094 18.648438 2.59375 C 18.539062 2.566406 18.425781 2.566406 18.316406 2.539062 C 18.207031 2.511719 18.097656 2.511719 17.984375 2.484375 C 17.875 2.484375 17.765625 2.457031 17.65625 2.457031 C 17.542969 2.457031 17.433594 2.457031 17.324219 2.457031 C 17.214844 2.457031 17.101562 2.457031 16.964844 2.457031 C 16.855469 2.457031 16.746094 2.484375 16.632812 2.484375 C 16.523438 2.511719 16.414062 2.511719 16.304688 2.539062 C 16.21875 2.566406 16.109375 2.566406 16 2.59375 C 15.917969 2.621094 15.808594 2.621094 15.695312 2.648438 C 15.585938 2.675781 15.476562 2.730469 15.367188 2.757812 C 15.253906 2.785156 15.144531 2.8125 15.0625 2.839844 C 14.953125 2.867188 14.839844 2.925781 14.757812 2.953125 C 14.648438 2.980469 14.566406 3.035156 14.484375 3.0625 C 14.371094 3.117188 14.289062 3.144531 14.207031 3.199219 C 14.097656 3.253906 14.015625 3.308594 13.929688 3.367188 C 13.820312 3.421875 13.738281 3.476562 13.65625 3.53125 C 13.574219 3.585938 13.488281 3.640625 13.40625 3.695312 C 13.324219 3.75 13.242188 3.835938 13.160156 3.890625 C 13.074219 3.945312 12.992188 4.027344 12.910156 4.082031 C 12.828125 4.164062 12.773438 4.21875 12.71875 4.304688 C 12.632812 4.386719 12.550781 4.441406 12.46875 4.523438 C 12.386719 4.605469 12.332031 4.660156 12.277344 4.746094 C 12.191406 4.828125 12.136719 4.882812 12.082031 4.964844 C 12 5.046875 11.945312 5.160156 11.890625 5.242188 C 11.835938 5.324219 11.78125 5.40625 11.722656 5.488281 C 11.667969 5.574219 11.613281 5.65625 11.558594 5.738281 C 11.503906 5.820312 11.449219 5.902344 11.421875 5.984375 C 11.367188 6.070312 11.308594 6.179688 11.28125 6.289062 C 11.226562 6.371094 11.199219 6.457031 11.171875 6.566406 C 11.144531 6.648438 11.117188 6.757812 11.089844 6.867188 C 11.035156 6.953125 11.007812 7.035156 10.980469 7.144531 C 10.953125 7.226562 10.925781 7.339844 10.925781 7.449219 C 10.898438 7.53125 10.867188 7.640625 10.839844 7.75 C 10.8125 7.863281 10.8125 7.972656 10.8125 8.082031 C 10.785156 8.164062 10.785156 8.277344 10.785156 8.386719 C 10.785156 8.496094 10.785156 8.605469 10.785156 8.71875 C 10.785156 8.828125 10.785156 8.9375 10.785156 9.046875 Z M 10.785156 9.046875 "/>
<path fill="none" stroke-width="1" stroke-linecap="butt" stroke-linejoin="miter" stroke="rgb(0%, 0%, 100%)" stroke-opacity="1" stroke-miterlimit="4" d="M 334.038086 318.037109 C 334.038086 312.939453 334.038086 307.983398 335.029297 303.027344 C 335.029297 297.929687 335.029297 292.973633 336.020508 288.017578 C 336.020508 283.061523 337.011719 277.963867 338.00293 273.999023 C 338.00293 269.042969 338.994141 263.945312 339.985352 259.980469 C 340.976562 255.024414 341.967773 250.068359 343.950195 245.961914 C 344.941406 241.005859 345.932617 237.041016 348.056641 232.93457 C 349.047852 227.978516 350.039062 224.013672 352.021484 220.048828 C 353.012695 214.951172 354.995117 209.995117 356.977539 206.030273 C 358.959961 202.06543 360.942383 197.958984 363.066406 193.994141 C 365.048828 190.029297 367.03125 186.064453 370.004883 181.958008 C 371.987305 177.993164 373.969727 173.037109 376.943359 168.930664 C 379.067383 164.96582 382.041016 161.992187 385.014648 158.027344 C 386.99707 155.053711 388.979492 150.947266 391.953125 147.973633 C 395.068359 144.008789 398.041992 141.035156 402.006836 137.070312 C 404.980469 132.963867 407.954102 129.990234 411.069336 126.025391 C 414.042969 123.051758 417.016602 118.945312 419.990234 115.97168 C 422.963867 112.998047 425.9375 110.024414 430.043945 107.050781 C 433.017578 103.935547 436.982422 100.961914 440.947266 97.988281 C 444.0625 95.014648 448.027344 92.041016 451.992187 89.067383 C 455.957031 86.943359 460.063477 83.969727 464.02832 81.987305 C 467.993164 79.013672 471.958008 77.03125 476.064453 74.057617 C 480.029297 71.933594 483.994141 69.951172 487.958984 67.96875 C 492.06543 65.986328 496.030273 63.012695 499.995117 61.030273 C 503.959961 59.047852 509.057617 58.056641 514.013672 55.932617 C 517.978516 53.950195 521.943359 52.958984 527.041016 50.976562 C 531.005859 48.994141 535.961914 48.00293 541.05957 46.020508 C 545.024414 45.029297 548.989258 43.046875 553.945312 42.055664 C 558.051758 41.064453 563.007812 39.931641 567.963867 38.94043 C 573.061523 37.949219 578.017578 36.958008 581.982422 35.966797 C 586.938477 35.966797 592.036133 34.975586 596.000977 34.975586 C 600.957031 33.984375 606.054687 33.984375 611.010742 32.993164 C 615.966797 32.993164 621.064453 32.993164 626.020508 32.993164 C 630.976562 32.993164 635.932617 32.993164 641.030273 32.993164 C 645.986328 33.984375 650.942383 33.984375 656.040039 34.975586 C 660.996094 34.975586 665.952148 35.966797 671.049805 35.966797 C 676.005859 36.958008 680.961914 37.949219 685.068359 38.94043 C 690.024414 39.931641 694.980469 39.931641 698.945312 41.064453 C 704.042969 43.046875 708.999023 44.038086 712.963867 46.020508 C 718.061523 47.011719 723.017578 48.994141 726.982422 49.985352 C 731.938477 51.967773 736.044922 52.958984 740.009766 54.941406 C 744.96582 57.06543 748.930664 59.047852 753.037109 61.030273 C 757.993164 63.012695 761.958008 64.995117 766.064453 66.977539 C 770.029297 68.959961 773.994141 70.942383 777.958984 73.066406 C 782.06543 76.040039 786.030273 78.022461 789.003906 80.996094 C 792.96875 83.969727 796.933594 85.952148 801.040039 89.067383 C 805.004883 92.041016 808.969727 94.023437 811.943359 96.99707 C 816.049805 99.970703 820.014648 102.944336 822.988281 106.05957 C 826.953125 109.033203 830.068359 112.998047 833.041992 115.97168 C 836.015625 118.945312 839.980469 122.060547 842.954102 125.03418 C 846.069336 128.999023 850.03418 131.972656 853.007812 135.9375 C 855.981445 139.052734 857.963867 143.017578 860.9375 145.991211 C 864.052734 149.956055 866.035156 154.0625 869.008789 158.027344 C 871.982422 161.992187 873.964844 164.96582 876.938477 168.930664 C 879.0625 173.037109 882.036133 176.010742 884.018555 179.975586 C 886.000977 183.94043 887.983398 189.038086 889.96582 193.00293 C 891.948242 196.967773 893.930664 202.06543 896.054687 206.030273 C 898.037109 209.995117 900.019531 213.959961 902.001953 218.066406 C 902.993164 222.03125 904.975586 226.987305 905.966797 231.943359 C 907.949219 236.049805 908.94043 240.014648 911.064453 244.970703 C 912.055664 248.935547 913.046875 254.033203 914.038086 258.989258 C 915.029297 262.954102 915.029297 268.051758 916.020508 273.007812 C 917.011719 276.972656 917.011719 282.070312 918.00293 287.026367 C 918.994141 291.982422 918.994141 296.938477 919.985352 302.036133 C 919.985352 306.000977 919.985352 310.957031 919.985352 316.054687 C 919.985352 320.019531 919.985352 324.975586 919.985352 329.931641 C 919.985352 335.029297 918.994141 339.985352 918.994141 344.941406 C 918.00293 350.039062 917.011719 354.995117 916.020508 359.951172 C 915.029297 364.057617 915.029297 368.022461 914.038086 372.978516 C 913.046875 376.943359 912.055664 382.041016 911.064453 386.99707 C 909.931641 390.961914 907.949219 396.05957 906.958008 401.015625 C 904.975586 404.980469 903.984375 408.945312 902.001953 414.042969 C 900.019531 418.007812 899.02832 421.972656 897.045898 427.070312 C 895.063477 431.035156 892.939453 435 890.957031 439.956055 C 888.974609 442.929687 886.000977 447.036133 884.018555 451.000977 C 882.036133 454.96582 880.053711 458.930664 877.929687 464.02832 C 874.956055 467.001953 872.973633 470.966797 870 474.931641 C 867.026367 478.046875 865.043945 482.011719 862.070312 485.976562 C 858.955078 488.950195 855.981445 493.056641 853.007812 497.021484 C 850.03418 499.995117 847.060547 502.96875 843.945312 506.933594 C 840.97168 510.048828 837.006836 513.022461 834.033203 516.987305 C 831.05957 519.960937 827.944336 522.93457 823.979492 526.049805 C 821.005859 529.023437 818.032227 531.99707 814.067383 535.961914 C 809.960937 537.944336 805.996094 541.05957 802.03125 544.033203 C 799.057617 546.015625 794.951172 548.989258 790.986328 551.962891 C 787.021484 553.945312 783.056641 556.069336 778.950195 559.042969 C 774.985352 561.025391 771.020508 563.007812 767.055664 565.981445 C 762.949219 567.963867 758.984375 569.946289 754.02832 573.061523 C 750.063477 574.052734 745.957031 576.035156 741.000977 578.017578 C 737.036133 579.008789 732.929687 580.991211 727.973633 582.973633 C 724.008789 583.964844 720.043945 585.947266 714.946289 587.929687 C 709.990234 589.0625 705.03418 590.053711 699.936523 591.044922 C 695.97168 592.036133 692.006836 593.027344 687.050781 594.018555 C 681.953125 595.009766 676.99707 596.000977 672.041016 596.000977 C 666.943359 596.992187 661.987305 597.983398 657.03125 597.983398 C 651.933594 598.974609 646.977539 598.974609 642.021484 598.974609 C 638.056641 598.974609 632.958984 598.974609 628.00293 598.974609 C 623.046875 598.974609 617.949219 598.974609 612.993164 598.974609 C 608.037109 598.974609 602.939453 598.974609 597.983398 597.983398 C 593.027344 597.983398 587.929687 596.992187 582.973633 596.000977 C 579.008789 596.000977 574.052734 595.009766 569.946289 594.018555 C 564.990234 593.027344 560.03418 592.036133 556.069336 591.044922 C 550.97168 590.053711 546.015625 589.0625 541.05957 587.929687 C 535.961914 585.947266 531.99707 584.956055 528.032227 583.964844 C 522.93457 581.982422 517.978516 580 514.013672 579.008789 C 510.048828 577.026367 505.942383 575.043945 501.977539 573.061523 C 497.021484 570.9375 493.056641 568.955078 488.950195 566.972656 C 484.985352 563.999023 481.020508 562.016602 477.055664 560.03418 C 472.949219 557.060547 468.984375 553.945312 465.019531 551.962891 C 461.054687 548.989258 456.948242 547.006836 452.983398 545.024414 C 449.018555 542.050781 445.053711 538.935547 441.938477 535.961914 C 437.973633 532.988281 434.008789 530.014648 431.035156 527.041016 C 427.070312 524.067383 423.955078 520.952148 420.981445 517.978516 C 418.007812 515.004883 415.03418 512.03125 412.060547 509.057617 C 408.945312 504.951172 405.97168 500.986328 402.998047 498.012695 C 399.033203 494.047852 396.05957 490.932617 392.944336 487.958984 C 389.970703 483.994141 387.988281 480.029297 386.005859 476.064453 C 383.032227 471.958008 380.058594 467.993164 377.93457 465.019531 C 374.960937 461.054687 372.978516 456.948242 370.996094 452.983398 C 368.022461 448.027344 366.040039 444.0625 364.057617 439.956055 C 361.933594 435.991211 359.951172 432.026367 357.96875 428.061523 C 355.986328 422.963867 354.003906 418.999023 353.012695 415.03418 C 351.030273 409.936523 349.047852 405.97168 348.056641 402.006836 C 345.932617 397.050781 344.941406 391.953125 343.950195 387.988281 C 341.967773 383.032227 340.976562 379.067383 339.985352 374.960937 C 338.994141 370.004883 338.00293 365.048828 338.00293 360.942383 C 337.011719 355.986328 336.020508 351.030273 336.020508 345.932617 C 335.029297 340.976562 335.029297 336.020508 335.029297 332.055664 C 334.038086 326.958008 334.038086 322.001953 334.038086 318.037109 Z M 334.038086 318.037109 " transform="matrix(0.0275862, 0, 0, 0.0275862, 0, 0)"/>
<path fill="none" stroke-width="1" stroke-linecap="butt" stroke-linejoin="miter" stroke="rgb(0%, 0%, 100%)" stroke-opacity="1" stroke-miterlimit="4" d="M 390.961914 327.949219 C 390.961914 331.064453 390.961914 335.029297 391.953125 338.994141 C 391.953125 341.967773 391.953125 345.932617 392.944336 350.039062 C 392.944336 353.012695 393.935547 356.977539 395.068359 360.942383 C 396.05957 364.057617 397.050781 368.022461 398.041992 371.987305 C 399.033203 374.960937 400.024414 379.067383 401.015625 383.032227 C 402.006836 386.005859 402.998047 389.970703 404.980469 393.935547 C 405.97168 397.050781 406.962891 400.024414 408.945312 403.989258 C 409.936523 406.962891 411.069336 409.936523 413.051758 414.042969 C 415.03418 417.016602 417.016602 419.990234 418.999023 423.955078 C 419.990234 427.070312 421.972656 430.043945 423.955078 434.008789 C 425.9375 436.982422 428.061523 439.956055 430.043945 442.929687 C 432.026367 446.044922 434.008789 449.018555 436.982422 451.992187 C 438.964844 454.96582 440.947266 457.939453 444.0625 461.054687 C 446.044922 463.037109 448.027344 466.010742 451.000977 468.984375 C 452.983398 470.966797 455.957031 473.94043 458.930664 477.055664 C 461.054687 479.038086 464.02832 481.020508 467.001953 483.994141 C 469.975586 485.976562 472.949219 488.950195 476.064453 492.06543 C 479.038086 494.047852 482.011719 496.030273 484.985352 499.003906 C 487.958984 499.995117 490.932617 501.977539 494.047852 503.959961 C 497.021484 505.942383 499.995117 508.066406 503.959961 510.048828 C 506.933594 512.03125 510.048828 514.013672 514.013672 515.996094 C 516.987305 516.987305 519.960937 518.969727 524.067383 520.952148 C 527.041016 521.943359 531.005859 522.93457 534.970703 525.058594 C 537.944336 526.049805 542.050781 528.032227 546.015625 530.014648 C 548.989258 531.005859 552.954102 531.99707 557.060547 533.979492 C 560.03418 534.970703 563.007812 535.961914 566.972656 536.953125 C 570.9375 537.944336 575.043945 538.935547 579.008789 540.068359 C 581.982422 540.068359 585.947266 540.068359 590.053711 541.05957 C 594.018555 541.05957 597.983398 542.050781 601.948242 543.041992 C 606.054687 543.041992 610.019531 543.041992 613.984375 544.033203 C 617.949219 544.033203 622.055664 544.033203 626.020508 544.033203 C 630.976562 544.033203 634.941406 544.033203 639.047852 544.033203 C 643.012695 543.041992 646.977539 543.041992 650.942383 543.041992 C 655.048828 542.050781 659.013672 541.05957 661.987305 541.05957 C 665.952148 540.068359 670.058594 540.068359 674.023437 540.068359 C 677.988281 538.935547 681.953125 537.944336 686.05957 536.953125 C 690.024414 535.961914 693.989258 534.970703 696.962891 533.979492 C 701.069336 532.988281 705.03418 531.99707 708.007812 531.005859 C 711.972656 529.023437 715.9375 527.041016 719.052734 526.049805 C 723.017578 524.067383 726.982422 522.93457 729.956055 521.943359 C 734.0625 519.960937 737.036133 517.978516 740.009766 516.987305 C 743.974609 515.004883 746.948242 513.022461 750.063477 511.040039 C 753.037109 509.057617 756.010742 506.933594 758.984375 504.951172 C 761.958008 502.96875 764.931641 500.986328 768.046875 499.003906 C 772.011719 497.021484 774.985352 495.039062 777.958984 493.056641 C 780.932617 489.941406 784.047852 486.967773 786.030273 484.985352 C 789.003906 482.011719 791.977539 480.029297 793.959961 478.046875 C 796.933594 474.931641 800.048828 471.958008 802.03125 469.975586 C 805.004883 467.001953 807.978516 464.02832 809.960937 462.045898 C 811.943359 458.930664 814.067383 455.957031 816.049805 452.983398 C 819.023437 450.009766 821.005859 447.036133 822.988281 444.0625 C 825.961914 440.947266 827.944336 437.973633 830.068359 435 C 832.050781 431.035156 833.041992 428.061523 835.024414 424.946289 C 837.006836 421.972656 838.989258 418.999023 840.97168 416.025391 C 841.962891 412.060547 843.945312 408.945312 844.936523 405.97168 C 846.069336 402.006836 848.051758 398.041992 849.042969 395.068359 C 850.03418 390.961914 852.016602 387.988281 853.007812 385.014648 C 853.999023 381.049805 854.990234 376.943359 855.981445 373.969727 C 856.972656 370.004883 857.963867 366.040039 858.955078 363.066406 C 859.946289 358.959961 859.946289 354.995117 860.9375 352.021484 C 862.070312 348.056641 862.070312 343.950195 863.061523 339.985352 C 863.061523 336.020508 863.061523 332.055664 863.061523 328.94043 C 863.061523 324.975586 864.052734 321.010742 864.052734 318.037109 C 864.052734 313.930664 863.061523 309.96582 863.061523 306.000977 C 863.061523 302.036133 863.061523 297.929687 863.061523 293.964844 C 862.070312 290 862.070312 286.035156 860.9375 283.061523 C 859.946289 278.955078 859.946289 274.990234 858.955078 272.016602 C 857.963867 268.051758 857.963867 263.945312 856.972656 259.980469 C 855.981445 256.015625 853.999023 253.041992 853.007812 250.068359 C 852.016602 245.961914 851.025391 241.99707 850.03418 239.023437 C 849.042969 235.058594 847.060547 231.943359 846.069336 228.969727 C 843.945312 225.004883 842.954102 222.03125 840.97168 219.057617 C 838.989258 214.951172 837.998047 211.977539 836.015625 209.003906 C 834.033203 206.030273 832.050781 203.056641 830.068359 199.941406 C 827.944336 196.967773 825.961914 193.00293 823.979492 190.029297 C 821.99707 187.055664 820.014648 183.94043 818.032227 180.966797 C 816.049805 177.993164 812.93457 176.010742 809.960937 173.037109 C 807.978516 170.063477 805.996094 166.948242 803.022461 163.974609 C 801.040039 161.992187 798.066406 159.018555 794.951172 157.036133 C 792.96875 154.0625 789.995117 151.938477 787.021484 148.964844 C 784.047852 146.982422 780.932617 144.008789 777.958984 142.026367 C 774.985352 140.043945 772.011719 137.070312 769.038086 134.946289 C 766.064453 132.963867 762.949219 129.990234 759.975586 128.007812 C 757.001953 126.025391 754.02832 124.042969 751.054687 122.060547 C 747.939453 119.936523 744.96582 118.945312 741.000977 116.962891 C 738.027344 114.980469 735.053711 113.989258 730.947266 112.006836 C 727.973633 110.024414 724.008789 109.033203 720.043945 107.050781 C 717.070312 106.05957 712.963867 103.935547 708.999023 102.944336 C 706.025391 101.953125 703.051758 100.961914 698.945312 99.970703 C 694.980469 98.979492 691.015625 96.99707 687.050781 96.005859 C 683.935547 95.014648 679.970703 95.014648 676.005859 94.023437 C 672.041016 93.032227 667.93457 93.032227 663.969727 92.041016 C 660.004883 91.049805 656.040039 91.049805 651.933594 90.058594 C 647.96875 90.058594 644.003906 89.067383 640.039062 89.067383 C 635.932617 89.067383 631.967773 89.067383 628.00293 89.067383 C 624.038086 89.067383 619.931641 89.067383 614.975586 89.067383 C 611.010742 89.067383 607.045898 90.058594 602.939453 90.058594 C 598.974609 91.049805 595.009766 91.049805 591.044922 92.041016 C 587.929687 93.032227 583.964844 93.032227 580 94.023437 C 577.026367 95.014648 573.061523 95.014648 568.955078 96.005859 C 564.990234 96.99707 561.025391 98.979492 557.060547 99.970703 C 552.954102 100.961914 548.989258 101.953125 546.015625 102.944336 C 542.050781 103.935547 537.944336 106.05957 534.970703 107.050781 C 531.005859 108.041992 528.032227 110.024414 525.058594 111.015625 C 520.952148 112.998047 517.978516 113.989258 515.004883 115.97168 C 511.040039 117.954102 508.066406 119.936523 504.951172 122.060547 C 500.986328 124.042969 498.012695 126.025391 495.039062 128.007812 C 492.06543 129.990234 488.950195 131.972656 485.976562 133.955078 C 483.00293 135.9375 480.029297 139.052734 477.055664 141.035156 C 473.94043 143.017578 470.966797 145.991211 467.993164 147.973633 C 465.019531 150.947266 463.037109 152.929687 461.054687 156.044922 C 457.939453 159.018555 454.96582 161.000977 451.992187 163.974609 C 449.018555 166.948242 447.036133 168.930664 445.053711 172.045898 C 441.938477 175.019531 439.956055 177.001953 437.973633 179.975586 C 435 182.949219 433.017578 187.055664 431.035156 190.029297 C 429.052734 193.00293 427.070312 195.976562 424.946289 198.950195 C 422.963867 202.06543 420.981445 205.039062 418.999023 208.012695 C 417.016602 210.986328 415.03418 213.959961 414.042969 216.933594 C 412.060547 220.048828 409.936523 224.013672 408.945312 227.978516 C 406.962891 230.952148 405.97168 234.067383 404.980469 238.032227 C 403.989258 241.005859 402.998047 244.970703 402.006836 248.935547 C 400.024414 252.050781 399.033203 255.024414 398.041992 258.989258 C 397.050781 261.962891 396.05957 266.069336 396.05957 270.03418 C 395.068359 273.007812 393.935547 276.972656 392.944336 280.9375 C 391.953125 285.043945 391.953125 289.008789 391.953125 292.973633 C 390.961914 295.947266 390.961914 300.053711 390.961914 304.018555 C 390.961914 307.983398 390.961914 311.948242 390.961914 316.054687 C 390.961914 320.019531 390.961914 323.984375 390.961914 327.949219 Z M 390.961914 327.949219 " transform="matrix(0.0275862, 0, 0, 0.0275862, 0, 0)"/>
<path fill-rule="nonzero" fill="rgb(0%, 0%, 100%)" fill-opacity="1" d="M 14.234375 10.757812 C 14.234375 9.460938 14.234375 8.191406 14.234375 6.898438 C 15.199219 6.898438 16.164062 6.898438 17.132812 6.898438 C 17.132812 7.117188 17.132812 7.339844 17.132812 7.558594 C 16.441406 7.558594 15.722656 7.558594 15.035156 7.558594 C 15.035156 7.835938 15.035156 8.136719 15.035156 8.414062 C 15.667969 8.414062 16.332031 8.414062 16.992188 8.414062 C 16.992188 8.632812 16.992188 8.855469 16.992188 9.046875 C 16.332031 9.046875 15.667969 9.046875 15.035156 9.046875 C 15.035156 9.40625 15.035156 9.765625 15.035156 10.097656 C 15.75 10.097656 16.46875 10.097656 17.214844 10.097656 C 17.214844 10.316406 17.214844 10.539062 17.214844 10.757812 Z M 14.234375 10.757812 "/>
<path fill-rule="nonzero" fill="rgb(0%, 0%, 100%)" fill-opacity="1" d="M 17.902344 10.757812 C 17.902344 9.488281 17.902344 8.21875 17.902344 6.953125 C 18.179688 6.953125 18.425781 6.953125 18.703125 6.953125 C 18.703125 8 18.703125 9.046875 18.703125 10.097656 C 19.367188 10.097656 20 10.097656 20.660156 10.097656 C 20.660156 10.316406 20.660156 10.539062 20.660156 10.757812 Z M 17.902344 10.757812 "/>
<path fill-rule="nonzero" fill="rgb(0%, 0%, 100%)" fill-opacity="1" stroke-width="1" stroke-linecap="butt" stroke-linejoin="miter" stroke="rgb(0%, 0%, 100%)" stroke-opacity="1" stroke-miterlimit="4" d="M 279.946289 885.009766 C 347.06543 952.978516 414.042969 1019.956055 482.011719 1088.066406 C 467.993164 1100.952148 453.974609 1113.979492 440.947266 1127.006836 C 373.969727 1059.038086 306.992187 992.060547 240.014648 923.950195 C 253.041992 911.064453 267.060547 898.037109 279.946289 885.009766 Z M 279.946289 885.009766 " transform="matrix(0.0275862, 0, 0, 0.0275862, 0, 0)"/>
<path fill-rule="nonzero" fill="rgb(0%, 0%, 100%)" fill-opacity="1" stroke-width="1" stroke-linecap="butt" stroke-linejoin="miter" stroke="rgb(0%, 0%, 100%)" stroke-opacity="1" stroke-miterlimit="4" d="M 482.011719 923.950195 C 414.042969 992.060547 347.06543 1060.029297 279.946289 1127.998047 C 267.060547 1114.970703 253.041992 1101.943359 240.014648 1089.057617 C 306.992187 1020.947266 373.969727 952.978516 440.947266 885.009766 C 453.974609 898.037109 467.993164 911.064453 482.011719 923.950195 Z M 482.011719 923.950195 " transform="matrix(0.0275862, 0, 0, 0.0275862, 0, 0)"/>
</svg>
