<?xml version="1.0" encoding="UTF-8"?>
<svg xmlns="http://www.w3.org/2000/svg" xmlns:xlink="http://www.w3.org/1999/xlink" width="32" height="32" viewBox="0 0 32 32">
<path fill-rule="nonzero" fill="rgb(0%, 0%, 100%)" fill-opacity="1" stroke-width="1" stroke-linecap="butt" stroke-linejoin="miter" stroke="rgb(0%, 0%, 100%)" stroke-opacity="1" stroke-miterlimit="4" d="M 304.018555 849.042969 L 306.000977 821.005859 L 307.983398 806.987305 L 309.96582 793.959961 L 312.939453 780.932617 L 316.054687 768.046875 L 320.019531 755.019531 L 324.975586 742.983398 L 331.064453 730.947266 L 337.011719 718.061523 L 343.950195 707.016602 L 350.039062 695.97168 L 357.96875 685.068359 L 366.040039 675.014648 L 374.960937 664.960937 L 384.023437 656.040039 L 392.944336 646.977539 L 402.998047 638.056641 L 414.042969 629.985352 L 423.955078 622.055664 L 435 614.975586 L 446.044922 609.02832 L 457.939453 601.948242 L 469.975586 596.992187 L 483.00293 592.036133 L 495.039062 587.929687 L 508.066406 583.964844 L 520.952148 580.991211 L 534.970703 578.017578 L 547.998047 577.026367 L 562.016602 575.043945 L 590.053711 575.043945 L 603.930664 576.035156 L 617.949219 578.017578 L 630.976562 580 L 644.003906 583.964844 L 657.03125 586.938477 L 670.058594 591.044922 L 682.944336 596.000977 L 693.989258 600.957031 L 706.025391 608.037109 L 718.061523 613.984375 L 728.964844 621.064453 L 739.018555 628.994141 L 750.063477 637.06543 L 759.975586 645.986328 L 769.038086 654.057617 L 778.950195 662.978516 L 787.021484 674.023437 L 794.951172 683.935547 L 803.022461 694.980469 L 809.960937 706.025391 L 816.049805 717.070312 L 821.99707 728.964844 L 827.944336 741.000977 L 832.050781 754.02832 L 837.006836 766.064453 L 840.97168 778.950195 L 843.945312 791.977539 L 847.060547 805.996094 L 848.051758 819.023437 L 849.042969 834.033203 L 849.042969 860.9375 L 848.051758 875.947266 L 847.060547 888.974609 L 843.945312 902.993164 L 840.97168 916.020508 L 837.006836 929.047852 L 833.041992 940.942383 L 827.944336 953.969727 L 822.988281 966.005859 L 817.041016 977.050781 L 810.952148 988.945312 L 804.013672 999.990234 L 795.942383 1011.035156 L 788.012695 1020.947266 L 778.950195 1031.000977 L 770.029297 1041.054687 L 760.966797 1049.975586 L 751.054687 1058.046875 L 741.000977 1066.967773 L 729.956055 1074.047852 L 719.052734 1080.986328 L 707.016602 1088.066406 L 695.97168 1094.013672 L 683.935547 1099.960937 L 672.041016 1105.058594 L 658.022461 1109.023437 L 645.986328 1111.99707 L 632.958984 1115.961914 L 618.94043 1117.944336 L 605.063477 1120.068359 L 592.036133 1121.05957 L 563.999023 1121.05957 L 549.980469 1120.068359 L 535.961914 1117.944336 L 522.93457 1115.961914 L 509.057617 1112.988281 L 497.021484 1110.014648 L 483.994141 1105.058594 L 471.958008 1099.960937 L 460.063477 1094.013672 L 448.027344 1089.057617 L 435.991211 1081.977539 L 424.946289 1075.039062 L 414.042969 1067.958984 L 403.989258 1060.029297 L 393.935547 1050.966797 L 385.014648 1042.045898 L 375.952148 1031.992187 L 367.03125 1022.929687 L 358.959961 1012.026367 L 351.030273 1001.972656 L 344.941406 991.069336 L 338.00293 979.033203 L 332.055664 966.99707 L 325.966797 955.952148 L 321.010742 943.066406 L 317.045898 930.039062 L 312.939453 917.011719 L 309.96582 903.984375 L 307.983398 890.957031 L 306.000977 876.938477 L 305.009766 863.061523 Z M 370.996094 857.963867 L 371.987305 869.008789 L 371.987305 879.0625 L 374.960937 888.974609 L 376.943359 899.02832 L 380.058594 907.949219 L 382.041016 918.994141 L 386.99707 928.056641 L 390.961914 936.977539 L 395.068359 946.040039 L 400.024414 954.960937 L 404.980469 963.032227 L 411.069336 970.961914 L 417.016602 979.033203 L 423.955078 986.962891 L 430.043945 993.051758 L 437.973633 999.990234 L 445.053711 1007.070312 L 452.983398 1013.017578 L 461.054687 1018.964844 L 468.984375 1025.053711 L 477.055664 1030.009766 L 486.967773 1033.974609 L 496.030273 1037.939453 L 504.951172 1042.045898 L 514.013672 1045.019531 L 525.058594 1047.993164 L 534.970703 1050.966797 L 545.024414 1051.958008 L 554.936523 1052.949219 L 565.981445 1053.94043 L 576.035156 1054.931641 L 586.938477 1053.94043 L 596.992187 1053.94043 L 608.037109 1051.958008 L 617.949219 1050.966797 L 628.00293 1047.993164 L 637.06543 1046.010742 L 646.977539 1042.045898 L 657.03125 1038.930664 L 665.952148 1034.96582 L 675.014648 1031.000977 L 683.935547 1025.053711 L 692.006836 1019.956055 L 699.936523 1015 L 708.007812 1008.061523 L 714.946289 1001.972656 L 722.026367 994.042969 L 728.964844 987.954102 L 736.044922 980.024414 L 741.992187 971.953125 L 746.948242 964.023437 L 753.037109 955.952148 L 757.993164 947.03125 L 762.949219 938.959961 L 767.055664 930.039062 L 771.020508 919.985352 L 773.994141 909.931641 L 776.967773 901.010742 L 778.950195 890.957031 L 780.932617 881.044922 L 782.06543 870.991211 L 783.056641 859.946289 L 784.047852 849.042969 L 783.056641 838.989258 L 783.056641 827.944336 L 780.932617 818.032227 L 778.950195 806.987305 L 776.967773 796.933594 L 773.994141 787.021484 L 771.020508 777.958984 L 768.046875 769.038086 L 762.949219 758.984375 L 758.984375 750.063477 L 754.02832 741.992187 L 747.939453 732.929687 L 742.983398 725 L 737.036133 717.070312 L 730.947266 709.990234 L 715.9375 694.980469 L 708.999023 690.024414 L 701.069336 682.944336 L 692.998047 676.99707 L 685.068359 672.041016 L 676.005859 666.943359 L 667.93457 662.978516 L 658.022461 658.022461 L 648.959961 654.057617 L 639.047852 650.942383 L 629.985352 647.96875 L 619.931641 645.986328 L 610.019531 644.003906 L 598.974609 642.021484 L 557.060547 642.021484 L 546.015625 644.003906 L 535.961914 645.986328 L 526.049805 647.96875 L 515.996094 650.942383 L 506.933594 654.057617 L 498.012695 658.022461 L 487.958984 661.987305 L 479.038086 665.952148 L 470.966797 671.049805 L 462.045898 676.005859 L 453.974609 681.953125 L 446.044922 688.041992 L 438.964844 694.980469 L 431.035156 701.069336 L 423.955078 708.999023 L 418.007812 717.070312 L 412.060547 724.008789 L 405.97168 732.929687 L 401.015625 740.009766 L 396.05957 748.930664 L 390.961914 757.993164 L 386.99707 767.055664 L 383.032227 775.976562 L 380.058594 786.030273 L 376.943359 795.942383 L 372.978516 816.049805 L 371.987305 825.961914 L 370.996094 837.006836 Z M 370.996094 857.963867 " transform="matrix(0.0275862, 0, 0, 0.0275862, 0, 0)"/>
<path fill-rule="nonzero" fill="rgb(0%, 0%, 100%)" fill-opacity="1" stroke-width="1" stroke-linecap="butt" stroke-linejoin="miter" stroke="rgb(0%, 0%, 100%)" stroke-opacity="1" stroke-miterlimit="4" d="M 532.988281 600.957031 L 534.970703 17.983398 L 600.957031 17.983398 L 598.974609 600.957031 Z M 532.988281 600.957031 " transform="matrix(0.0275862, 0, 0, 0.0275862, 0, 0)"/>
<path fill-rule="nonzero" fill="rgb(0%, 0%, 100%)" fill-opacity="1" stroke-width="1" stroke-linecap="butt" stroke-linejoin="miter" stroke="rgb(0%, 0%, 100%)" stroke-opacity="1" stroke-miterlimit="4" d="M 540.068359 16.992187 L 744.96582 16.992187 L 744.96582 82.978516 L 540.068359 82.978516 Z M 540.068359 16.992187 " transform="matrix(0.0275862, 0, 0, 0.0275862, 0, 0)"/>
<path fill-rule="nonzero" fill="rgb(0%, 0%, 100%)" fill-opacity="1" stroke-width="1" stroke-linecap="butt" stroke-linejoin="miter" stroke="rgb(0%, 0%, 100%)" stroke-opacity="1" stroke-miterlimit="4" d="M 540.068359 154.0625 L 744.96582 154.0625 L 744.96582 221.040039 L 540.068359 221.040039 Z M 540.068359 154.0625 " transform="matrix(0.0275862, 0, 0, 0.0275862, 0, 0)"/>
<path fill-rule="nonzero" fill="rgb(0%, 0%, 100%)" fill-opacity="1" stroke-width="1" stroke-linecap="butt" stroke-linejoin="miter" stroke="rgb(0%, 0%, 100%)" stroke-opacity="1" stroke-miterlimit="4" d="M 542.050781 288.017578 L 746.948242 288.017578 L 746.948242 354.995117 L 542.050781 354.995117 Z M 542.050781 288.017578 " transform="matrix(0.0275862, 0, 0, 0.0275862, 0, 0)"/>
</svg>
