<?xml version="1.0" encoding="UTF-8"?>
<svg xmlns="http://www.w3.org/2000/svg" xmlns:xlink="http://www.w3.org/1999/xlink" width="32" height="32" viewBox="0 0 32 32">
<path fill-rule="nonzero" fill="rgb(100%, 60%, 0%)" fill-opacity="1" d="M 31.0625 28.964844 C 20.882812 28.964844 10.703125 28.964844 0.523438 28.964844 C 5.601562 20.21875 10.675781 11.503906 15.78125 2.757812 C 20.855469 11.503906 25.957031 20.21875 31.0625 28.964844 Z M 27.199219 27.0625 C 23.394531 20.441406 19.585938 13.847656 15.78125 7.226562 C 11.972656 13.847656 8.164062 20.441406 4.359375 27.0625 C 11.972656 27.0625 19.585938 27.0625 27.199219 27.0625 Z M 27.199219 27.0625 "/>
<path fill-rule="nonzero" fill="rgb(100%, 60%, 0%)" fill-opacity="1" d="M 11.308594 24.136719 C 11.308594 22.261719 11.308594 20.359375 11.308594 18.484375 C 12.691406 18.484375 14.070312 18.484375 15.449219 18.484375 C 15.449219 18.785156 15.449219 19.117188 15.449219 19.421875 C 14.457031 19.421875 13.433594 19.421875 12.441406 19.421875 C 12.441406 19.835938 12.441406 20.277344 12.441406 20.691406 C 13.378906 20.691406 14.316406 20.691406 15.253906 20.691406 C 15.253906 20.992188 15.253906 21.324219 15.253906 21.628906 C 14.316406 21.628906 13.378906 21.628906 12.441406 21.628906 C 12.441406 22.152344 12.441406 22.675781 12.441406 23.171875 C 13.488281 23.171875 14.511719 23.171875 15.558594 23.171875 C 15.558594 23.503906 15.558594 23.808594 15.558594 24.136719 Z M 11.308594 24.136719 "/>
<path fill-rule="nonzero" fill="rgb(100%, 60%, 0%)" fill-opacity="1" d="M 15.890625 24.136719 C 16.359375 23.421875 16.855469 22.730469 17.351562 22.015625 C 16.882812 21.351562 16.414062 20.691406 15.945312 20.027344 C 16.386719 20.027344 16.828125 20.027344 17.242188 20.027344 C 17.488281 20.414062 17.738281 20.773438 17.984375 21.160156 C 18.234375 20.773438 18.484375 20.414062 18.730469 20.027344 C 19.144531 20.027344 19.585938 20.027344 20 20.027344 C 19.53125 20.691406 19.089844 21.324219 18.621094 21.984375 C 19.117188 22.703125 19.613281 23.421875 20.109375 24.136719 C 19.667969 24.136719 19.226562 24.136719 18.8125 24.136719 C 18.539062 23.722656 18.261719 23.28125 17.984375 22.867188 C 17.683594 23.28125 17.40625 23.722656 17.132812 24.136719 Z M 15.890625 24.136719 "/>
</svg>
