<?xml version="1.0" encoding="UTF-8"?>
<svg xmlns="http://www.w3.org/2000/svg" xmlns:xlink="http://www.w3.org/1999/xlink" width="32" height="32" viewBox="0 0 32 32">
<path fill-rule="nonzero" fill="rgb(100%, 60%, 0%)" fill-opacity="1" d="M 0.910156 28.964844 C 5.929688 20.332031 10.980469 11.695312 16.027344 3.0625 C 21.046875 11.695312 26.097656 20.332031 31.117188 28.964844 C 21.046875 28.964844 10.980469 28.964844 0.910156 28.964844 Z M 29.132812 26.648438 C 28.800781 27.226562 28.46875 27.835938 28.136719 28.414062 C 23.78125 20.910156 19.394531 13.433594 15.035156 5.929688 C 15.695312 5.929688 16.359375 5.929688 17.019531 5.929688 C 12.660156 13.433594 8.277344 20.910156 3.917969 28.414062 C 3.585938 27.835938 3.253906 27.226562 2.925781 26.648438 C 11.667969 26.648438 20.386719 26.648438 29.132812 26.648438 Z M 29.132812 26.648438 "/>
<path fill="none" stroke-width="1" stroke-linecap="butt" stroke-linejoin="miter" stroke="rgb(100%, 60%, 0%)" stroke-opacity="1" stroke-miterlimit="4" d="M 32.993164 1049.975586 C 214.951172 737.036133 398.041992 423.955078 580.991211 111.015625 C 762.949219 423.955078 946.040039 737.036133 1127.998047 1049.975586 C 762.949219 1049.975586 398.041992 1049.975586 32.993164 1049.975586 Z M 32.993164 1049.975586 " transform="matrix(0.0275862, 0, 0, 0.0275862, 0, 0)"/>
<path fill="none" stroke-width="1" stroke-linecap="butt" stroke-linejoin="miter" stroke="rgb(100%, 60%, 0%)" stroke-opacity="1" stroke-miterlimit="4" d="M 1056.064453 966.005859 C 1044.02832 986.962891 1031.992187 1009.052734 1019.956055 1030.009766 C 862.070312 757.993164 703.051758 486.967773 545.024414 214.951172 C 568.955078 214.951172 593.027344 214.951172 616.958008 214.951172 C 458.930664 486.967773 300.053711 757.993164 142.026367 1030.009766 C 129.990234 1009.052734 117.954102 986.962891 106.05957 966.005859 C 422.963867 966.005859 739.018555 966.005859 1056.064453 966.005859 Z M 1056.064453 966.005859 " transform="matrix(0.0275862, 0, 0, 0.0275862, 0, 0)"/>
<path fill-rule="nonzero" fill="rgb(100%, 60%, 0%)" fill-opacity="1" d="M 16.191406 22.234375 L 16.191406 21.296875 L 18.621094 21.296875 L 18.621094 23.53125 C 18.398438 23.75 18.042969 23.972656 17.601562 24.136719 C 17.160156 24.304688 16.691406 24.386719 16.21875 24.386719 C 15.640625 24.386719 15.117188 24.277344 14.675781 24.027344 C 14.261719 23.78125 13.929688 23.421875 13.710938 22.980469 C 13.488281 22.511719 13.378906 22.015625 13.378906 21.460938 C 13.378906 20.882812 13.488281 20.359375 13.738281 19.917969 C 13.984375 19.449219 14.34375 19.089844 14.8125 18.867188 C 15.171875 18.675781 15.613281 18.59375 16.164062 18.59375 C 16.855469 18.59375 17.40625 18.730469 17.792969 19.007812 C 18.207031 19.308594 18.457031 19.722656 18.566406 20.21875 L 17.433594 20.441406 C 17.351562 20.164062 17.214844 19.945312 16.992188 19.78125 C 16.773438 19.640625 16.496094 19.558594 16.164062 19.558594 C 15.667969 19.558594 15.28125 19.695312 14.980469 20.027344 C 14.675781 20.332031 14.539062 20.800781 14.539062 21.433594 C 14.539062 22.097656 14.675781 22.59375 14.980469 22.925781 C 15.28125 23.253906 15.667969 23.421875 16.164062 23.421875 C 16.386719 23.421875 16.632812 23.394531 16.855469 23.28125 C 17.101562 23.199219 17.324219 23.089844 17.488281 22.953125 L 17.488281 22.234375 Z M 16.191406 22.234375 "/>
</svg>
