<?xml version="1.0" encoding="UTF-8"?>
<svg xmlns="http://www.w3.org/2000/svg" xmlns:xlink="http://www.w3.org/1999/xlink" width="32" height="32" viewBox="0 0 32 32">
<path fill-rule="nonzero" fill="rgb(100%, 0%, 0%)" fill-opacity="1" stroke-width="1" stroke-linecap="butt" stroke-linejoin="miter" stroke="rgb(100%, 0%, 0%)" stroke-opacity="1" stroke-miterlimit="4" d="M 54.941406 462.045898 L 139.052734 782.06543 L 102.944336 792.96875 L 17.983398 473.94043 Z M 54.941406 462.045898 " transform="matrix(0.0275862, 0, 0, 0.0275862, 0, 0)"/>
<path fill-rule="nonzero" fill="rgb(100%, 0%, 0%)" fill-opacity="1" stroke-width="1" stroke-linecap="butt" stroke-linejoin="miter" stroke="rgb(100%, 0%, 0%)" stroke-opacity="1" stroke-miterlimit="4" d="M 334.038086 99.970703 L 782.06543 98.979492 L 782.06543 140.043945 L 334.038086 142.026367 Z M 334.038086 99.970703 " transform="matrix(0.0275862, 0, 0, 0.0275862, 0, 0)"/>
<path fill-rule="nonzero" fill="rgb(100%, 0%, 0%)" fill-opacity="1" stroke-width="1" stroke-linecap="butt" stroke-linejoin="miter" stroke="rgb(100%, 0%, 0%)" stroke-opacity="1" stroke-miterlimit="4" d="M 788.012695 174.02832 L 1138.051758 44.038086 L 1098.969727 403.989258 L 1060.029297 399.033203 L 1095.996094 70.942383 L 1121.05957 94.023437 L 801.040039 212.96875 Z M 788.012695 174.02832 " transform="matrix(0.0275862, 0, 0, 0.0275862, 0, 0)"/>
<path fill-rule="nonzero" fill="rgb(100%, 0%, 0%)" fill-opacity="1" stroke-width="1" stroke-linecap="butt" stroke-linejoin="miter" stroke="rgb(100%, 0%, 0%)" stroke-opacity="1" stroke-miterlimit="4" d="M 1118.935547 547.998047 L 1068.950195 1116.953125 L 511.040039 1027.036133 L 516.987305 984.980469 L 1053.94043 1072.06543 L 1032.983398 1091.040039 L 1079.995117 544.033203 Z M 1118.935547 547.998047 " transform="matrix(0.0275862, 0, 0, 0.0275862, 0, 0)"/>
<path fill-rule="nonzero" fill="rgb(100%, 0%, 0%)" fill-opacity="1" stroke-width="1" stroke-linecap="butt" stroke-linejoin="miter" stroke="rgb(100%, 0%, 0%)" stroke-opacity="1" stroke-miterlimit="4" d="M 401.015625 1132.954102 L 107.050781 1072.06543 L 53.950195 895.063477 L 91.049805 883.027344 L 139.052734 1047.993164 L 125.03418 1033.974609 L 408.945312 1092.03125 Z M 401.015625 1132.954102 " transform="matrix(0.0275862, 0, 0, 0.0275862, 0, 0)"/>
<path fill-rule="nonzero" fill="rgb(100%, 0%, 0%)" fill-opacity="1" stroke-width="1" stroke-linecap="butt" stroke-linejoin="miter" stroke="rgb(100%, 0%, 0%)" stroke-opacity="1" stroke-miterlimit="4" d="M 53.950195 405.97168 L 37.949219 82.978516 L 345.932617 32.001953 L 351.030273 73.066406 L 61.030273 122.060547 L 78.022461 98.979492 L 93.032227 403.989258 Z M 53.950195 405.97168 " transform="matrix(0.0275862, 0, 0, 0.0275862, 0, 0)"/>
<path fill-rule="nonzero" fill="rgb(100%, 0%, 0%)" fill-opacity="1" stroke-width="1" stroke-linecap="butt" stroke-linejoin="miter" stroke="rgb(100%, 0%, 0%)" stroke-opacity="1" stroke-miterlimit="4" d="M 177.993164 416.025391 L 577.026367 210.986328 L 592.036133 244.970703 L 193.00293 450.009766 Z M 177.993164 416.025391 " transform="matrix(0.0275862, 0, 0, 0.0275862, 0, 0)"/>
<path fill-rule="nonzero" fill="rgb(100%, 0%, 0%)" fill-opacity="1" stroke-width="1" stroke-linecap="butt" stroke-linejoin="miter" stroke="rgb(100%, 0%, 0%)" stroke-opacity="1" stroke-miterlimit="4" d="M 251.05957 950.004883 L 255.024414 386.99707 L 289.008789 387.988281 L 285.043945 950.996094 Z M 251.05957 950.004883 " transform="matrix(0.0275862, 0, 0, 0.0275862, 0, 0)"/>
<path fill-rule="nonzero" fill="rgb(100%, 0%, 0%)" fill-opacity="1" stroke-width="1" stroke-linecap="butt" stroke-linejoin="miter" stroke="rgb(100%, 0%, 0%)" stroke-opacity="1" stroke-miterlimit="4" d="M 260.97168 913.046875 L 687.050781 913.046875 L 687.050781 950.004883 L 260.97168 950.004883 Z M 260.97168 913.046875 " transform="matrix(0.0275862, 0, 0, 0.0275862, 0, 0)"/>
<path fill-rule="nonzero" fill="rgb(100%, 0%, 0%)" fill-opacity="1" stroke-width="1" stroke-linecap="butt" stroke-linejoin="miter" stroke="rgb(100%, 0%, 0%)" stroke-opacity="1" stroke-miterlimit="4" d="M 348.056641 614.975586 L 533.979492 614.975586 L 533.979492 653.066406 L 348.056641 653.066406 Z M 348.056641 614.975586 " transform="matrix(0.0275862, 0, 0, 0.0275862, 0, 0)"/>
<path fill-rule="nonzero" fill="rgb(100%, 0%, 0%)" fill-opacity="1" stroke-width="1" stroke-linecap="butt" stroke-linejoin="miter" stroke="rgb(100%, 0%, 0%)" stroke-opacity="1" stroke-miterlimit="4" d="M 383.032227 625.029297 L 374.960937 944.057617 L 340.976562 944.057617 L 349.047852 624.038086 Z M 383.032227 625.029297 " transform="matrix(0.0275862, 0, 0, 0.0275862, 0, 0)"/>
<path fill-rule="nonzero" fill="rgb(100%, 0%, 0%)" fill-opacity="1" stroke-width="1" stroke-linecap="butt" stroke-linejoin="miter" stroke="rgb(100%, 0%, 0%)" stroke-opacity="1" stroke-miterlimit="4" d="M 533.979492 639.047852 L 530.014648 918.994141 L 496.030273 918.00293 L 499.003906 638.056641 Z M 533.979492 639.047852 " transform="matrix(0.0275862, 0, 0, 0.0275862, 0, 0)"/>
<path fill-rule="nonzero" fill="rgb(100%, 0%, 0%)" fill-opacity="1" d="M 21.683594 18.511719 C 21.488281 18.730469 21.601562 20 21.324219 20.46875 C 21.242188 20.578125 21.160156 20.71875 21.101562 20.855469 C 21.019531 21.074219 20.882812 21.574219 20.882812 21.574219 C 20.910156 21.847656 21.019531 22.152344 20.992188 22.425781 C 20.964844 22.59375 20.773438 22.621094 20.632812 22.675781 C 20.359375 22.839844 19.890625 22.898438 19.640625 22.925781 C 19.53125 23.035156 19.449219 23.171875 19.394531 23.308594 C 19.308594 23.503906 19.253906 23.917969 19.0625 24.027344 C 18.785156 24.191406 18.152344 24.277344 18.152344 24.277344 C 17.875 25.160156 17.738281 24.882812 18.261719 25.269531 C 18.34375 25.378906 18.398438 25.542969 18.484375 25.628906 C 18.566406 25.765625 18.730469 25.765625 18.839844 25.902344 C 18.898438 25.984375 18.839844 26.179688 18.953125 26.261719 C 18.980469 26.316406 19.722656 26.511719 19.75 26.511719 C 19.863281 26.59375 20 26.621094 20.054688 26.757812 C 20.441406 27.253906 19.890625 27.035156 20.414062 27.503906 C 20.496094 27.558594 20.632812 27.558594 20.746094 27.613281 C 21.160156 27.558594 21.574219 27.53125 21.984375 27.503906 C 22.125 27.476562 22.234375 27.394531 22.34375 27.367188 C 22.675781 27.308594 23.035156 27.28125 23.367188 27.253906 C 24.21875 26.925781 23.171875 27.367188 24.027344 26.867188 C 24.304688 26.730469 24.71875 26.703125 24.964844 26.621094 C 25.074219 26.59375 25.1875 26.566406 25.296875 26.511719 C 25.324219 26.371094 25.351562 26.261719 25.40625 26.152344 C 25.460938 26.015625 25.628906 25.902344 25.65625 25.765625 C 25.65625 25.488281 25.574219 25.1875 25.542969 24.910156 C 25.460938 24.660156 25.296875 24.164062 25.296875 24.164062 C 25.269531 23.339844 25.324219 22.511719 25.1875 21.683594 C 25.160156 21.574219 24.964844 21.65625 24.855469 21.574219 C 24.605469 21.433594 24.164062 21.074219 24.164062 21.074219 C 24.082031 20.800781 23.972656 20.21875 23.722656 19.972656 L 22.675781 19.226562 C 22.566406 19.144531 22.484375 19.035156 22.34375 18.980469 C 21.902344 18.8125 21.847656 18.261719 21.683594 18.511719 Z M 21.683594 18.511719 "/>
<path fill-rule="nonzero" fill="rgb(100%, 0%, 0%)" fill-opacity="1" stroke-width="1" stroke-linecap="butt" stroke-linejoin="miter" stroke="rgb(100%, 0%, 0%)" stroke-opacity="1" stroke-miterlimit="4" d="M 579.008789 212.96875 L 735.053711 328.94043 L 715.9375 359.951172 L 559.042969 242.988281 Z M 579.008789 212.96875 " transform="matrix(0.0275862, 0, 0, 0.0275862, 0, 0)"/>
<path fill-rule="nonzero" fill="rgb(100%, 0%, 0%)" fill-opacity="1" stroke-width="1" stroke-linecap="butt" stroke-linejoin="miter" stroke="rgb(100%, 0%, 0%)" stroke-opacity="1" stroke-miterlimit="4" d="M 703.051758 354.995117 L 704.042969 364.057617 L 705.03418 372.978516 L 707.016602 382.041016 L 707.016602 390.961914 C 707.016602 390.961914 707.016602 392.944336 707.016602 393.935547 L 707.016602 396.05957 C 707.016602 396.05957 707.016602 398.041992 707.016602 400.024414 L 706.025391 401.015625 C 706.025391 401.015625 706.025391 402.006836 705.03418 402.998047 L 704.042969 404.980469 L 702.060547 407.954102 L 699.936523 411.069336 L 697.954102 415.03418 L 695.97168 417.016602 L 693.989258 419.990234 L 690.024414 424.946289 L 688.041992 428.061523 L 687.050781 430.043945 L 685.068359 432.026367 L 687.050781 428.061523 L 686.05957 430.043945 L 686.05957 425.9375 L 687.050781 430.043945 L 687.050781 433.017578 L 688.041992 435.991211 L 688.041992 444.0625 L 689.033203 446.044922 L 689.033203 449.018555 L 690.024414 450.009766 L 690.024414 451.992187 L 691.015625 454.96582 L 692.998047 458.930664 L 692.998047 460.063477 L 692.006836 457.939453 L 692.998047 458.930664 L 691.015625 456.948242 L 692.006836 457.939453 L 690.024414 456.948242 L 691.015625 457.939453 L 689.033203 456.948242 L 693.989258 456.948242 L 696.962891 457.939453 L 698.945312 457.939453 L 702.060547 460.063477 L 705.03418 461.054687 L 710.981445 465.019531 L 712.963867 468.984375 L 715.9375 471.958008 L 717.070312 476.064453 L 720.043945 480.029297 L 721.035156 483.00293 L 722.026367 484.985352 L 722.026367 487.958984 L 723.017578 489.941406 L 724.008789 495.039062 L 726.982422 500.986328 L 726.982422 503.959961 L 727.973633 505.942383 L 729.956055 508.066406 L 731.938477 510.048828 L 731.938477 512.03125 L 734.0625 514.013672 L 736.044922 514.013672 L 737.036133 515.004883 L 737.036133 515.996094 L 738.027344 515.996094 L 737.036133 515.996094 L 738.027344 515.996094 L 740.009766 516.987305 L 741.992187 516.987305 L 744.96582 517.978516 L 746.948242 518.969727 L 750.063477 519.960937 L 753.037109 521.943359 L 757.001953 524.067383 L 760.966797 527.041016 L 764.931641 529.023437 L 767.055664 531.99707 C 772.011719 535.961914 774.985352 543.041992 772.011719 548.989258 L 763.94043 576.035156 L 761.958008 582.973633 L 761.958008 585.947266 L 760.966797 587.929687 L 757.001953 606.054687 L 757.001953 601.948242 L 757.001953 612.993164 L 757.993164 625.029297 L 757.993164 629.985352 L 758.984375 634.941406 L 758.984375 639.047852 L 760.966797 643.012695 L 759.975586 641.030273 L 760.966797 643.012695 L 758.984375 639.047852 L 759.975586 641.030273 L 757.993164 639.047852 L 759.975586 640.039062 L 757.993164 639.047852 L 759.975586 640.039062 L 759.975586 641.030273 L 760.966797 641.030273 L 762.949219 642.021484 L 767.055664 643.012695 L 774.985352 643.012695 L 778.950195 644.003906 L 788.012695 644.003906 L 792.96875 644.995117 L 796.933594 644.995117 C 803.022461 645.986328 807.978516 649.951172 809.960937 656.040039 L 811.943359 661.987305 L 812.93457 665.952148 L 814.067383 670.058594 L 816.049805 677.988281 L 816.049805 685.068359 L 817.041016 692.006836 L 818.032227 697.954102 L 819.023437 710.981445 L 820.014648 723.017578 L 820.014648 736.044922 L 821.005859 748.930664 L 821.005859 760.966797 L 821.99707 768.046875 L 821.99707 775.976562 L 822.988281 775.976562 L 822.988281 777.958984 L 823.979492 780.932617 L 824.970703 786.030273 L 825.961914 790.986328 L 828.935547 802.03125 L 830.068359 807.978516 L 831.05957 815.058594 L 831.05957 835.024414 L 803.022461 835.024414 L 803.022461 819.023437 L 802.03125 815.058594 L 802.03125 808.969727 L 799.057617 798.066406 L 798.066406 794.951172 L 796.933594 789.995117 L 795.942383 784.047852 L 794.951172 780.932617 L 794.951172 777.958984 L 793.959961 771.020508 L 792.96875 763.94043 L 792.96875 757.001953 L 791.977539 751.054687 L 791.977539 725.991211 L 790.986328 712.963867 L 789.995117 702.060547 L 789.003906 695.97168 L 788.012695 689.033203 L 787.021484 682.944336 L 787.021484 676.005859 L 786.030273 672.041016 L 784.047852 669.067383 L 783.056641 665.952148 L 794.951172 676.005859 L 790.986328 675.014648 L 786.030273 675.014648 L 776.967773 674.023437 L 772.011719 674.023437 L 767.055664 673.032227 L 760.966797 672.041016 L 755.019531 671.049805 L 751.054687 669.067383 L 746.948242 666.943359 L 743.974609 665.952148 L 741.992187 664.960937 C 741.992187 663.969727 741.992187 663.969727 741.000977 662.978516 L 740.009766 661.987305 C 739.018555 661.987305 738.027344 660.996094 738.027344 660.004883 L 737.036133 658.022461 C 736.044922 658.022461 736.044922 657.03125 735.053711 656.040039 L 734.0625 653.066406 C 734.0625 653.066406 732.929687 653.066406 732.929687 650.942383 L 731.938477 644.003906 L 730.947266 638.056641 L 729.956055 631.967773 L 729.956055 626.020508 L 728.964844 613.984375 L 728.964844 602.939453 C 728.964844 601.948242 728.964844 599.96582 728.964844 597.983398 L 732.929687 580 L 735.053711 576.035156 L 736.044922 573.061523 L 737.036133 565.981445 L 745.957031 538.935547 L 752.045898 557.060547 L 747.939453 553.945312 L 745.957031 552.954102 L 742.983398 550.97168 L 741.000977 548.989258 L 739.018555 548.989258 L 738.027344 547.998047 L 737.036133 547.998047 L 736.044922 547.006836 L 735.053711 547.006836 L 732.929687 546.015625 L 729.956055 545.024414 L 727.973633 545.024414 L 725.991211 544.033203 L 723.017578 543.041992 L 721.035156 541.05957 L 719.052734 538.935547 L 717.070312 537.944336 L 713.955078 534.970703 L 711.972656 532.988281 L 709.990234 530.014648 L 708.007812 528.032227 L 705.03418 524.067383 L 703.051758 518.969727 L 701.069336 515.004883 L 699.936523 511.040039 L 697.954102 508.066406 L 696.962891 503.959961 L 696.962891 499.995117 L 695.97168 499.003906 L 694.980469 496.030273 L 694.980469 495.039062 L 693.989258 494.047852 L 692.998047 490.932617 L 692.998047 489.941406 L 692.006836 488.950195 L 692.006836 487.958984 L 692.998047 487.958984 L 687.050781 487.958984 L 683.935547 486.967773 L 682.944336 486.967773 C 682.944336 486.967773 681.953125 486.967773 681.953125 485.976562 L 679.970703 485.976562 C 678.979492 485.976562 678.979492 484.985352 677.988281 484.985352 L 676.99707 484.985352 C 676.99707 483.994141 676.005859 483.994141 675.014648 483.00293 L 674.023437 482.011719 C 673.032227 481.020508 673.032227 481.020508 673.032227 480.029297 L 670.058594 478.046875 L 667.93457 474.931641 L 666.943359 470.966797 L 664.960937 467.993164 L 662.978516 460.063477 L 662.978516 456.948242 L 661.987305 454.96582 L 661.987305 451.992187 L 660.996094 450.009766 L 660.004883 446.044922 L 660.004883 444.0625 L 659.013672 439.956055 L 659.013672 436.982422 L 658.022461 433.017578 L 658.022461 430.043945 C 658.022461 429.052734 658.022461 427.070312 658.022461 425.9375 L 658.022461 424.946289 C 658.022461 423.955078 658.022461 421.972656 659.013672 420.981445 L 660.996094 417.016602 L 662.978516 415.03418 L 663.969727 411.069336 L 665.952148 408.945312 L 667.93457 405.97168 L 672.041016 401.015625 L 674.023437 398.041992 L 676.005859 396.05957 L 677.988281 392.944336 L 677.988281 390.961914 L 678.979492 390.961914 L 680.961914 387.988281 L 679.970703 390.961914 L 679.970703 388.979492 L 678.979492 392.944336 L 678.979492 390.961914 L 678.979492 395.068359 L 677.988281 386.005859 L 677.988281 375.952148 L 676.99707 367.03125 L 675.014648 358.959961 Z M 703.051758 354.995117 " transform="matrix(0.0275862, 0, 0, 0.0275862, 0, 0)"/>
</svg>
