<?xml version="1.0" encoding="UTF-8"?>
<svg xmlns="http://www.w3.org/2000/svg" xmlns:xlink="http://www.w3.org/1999/xlink" width="32" height="32" viewBox="0 0 32 32">
<path fill-rule="nonzero" fill="rgb(100%, 60%, 0%)" fill-opacity="1" d="M 1.378906 6.925781 C 11.144531 6.925781 20.882812 6.925781 30.648438 6.925781 C 30.648438 12.964844 30.648438 19.035156 30.648438 25.074219 C 20.882812 25.074219 11.144531 25.074219 1.378906 25.074219 C 1.378906 19.035156 1.378906 12.964844 1.378906 6.925781 Z M 2.839844 24.359375 C 2.59375 24.109375 2.371094 23.835938 2.125 23.585938 C 11.394531 23.585938 20.632812 23.585938 29.902344 23.585938 C 29.65625 23.835938 29.40625 24.109375 29.160156 24.359375 C 29.160156 18.785156 29.160156 13.242188 29.160156 7.667969 C 29.40625 7.917969 29.65625 8.164062 29.902344 8.414062 C 20.632812 8.414062 11.394531 8.414062 2.125 8.414062 C 2.371094 8.164062 2.59375 7.917969 2.839844 7.667969 C 2.839844 13.242188 2.839844 18.785156 2.839844 24.359375 Z M 2.839844 24.359375 "/>
<path fill="none" stroke-width="1" stroke-linecap="butt" stroke-linejoin="miter" stroke="rgb(100%, 60%, 0%)" stroke-opacity="1" stroke-miterlimit="4" d="M 49.985352 251.05957 C 403.989258 251.05957 757.001953 251.05957 1111.005859 251.05957 C 1111.005859 469.975586 1111.005859 690.024414 1111.005859 908.94043 C 757.001953 908.94043 403.989258 908.94043 49.985352 908.94043 C 49.985352 690.024414 49.985352 469.975586 49.985352 251.05957 Z M 49.985352 251.05957 " transform="matrix(0.0275862, 0, 0, 0.0275862, 0, 0)"/>
<path fill="none" stroke-width="1" stroke-linecap="butt" stroke-linejoin="miter" stroke="rgb(100%, 60%, 0%)" stroke-opacity="1" stroke-miterlimit="4" d="M 102.944336 883.027344 C 94.023437 873.964844 85.952148 864.052734 77.03125 854.990234 C 413.051758 854.990234 747.939453 854.990234 1083.959961 854.990234 C 1075.039062 864.052734 1065.976562 873.964844 1057.055664 883.027344 C 1057.055664 680.961914 1057.055664 480.029297 1057.055664 277.963867 C 1065.976562 287.026367 1075.039062 295.947266 1083.959961 305.009766 C 747.939453 305.009766 413.051758 305.009766 77.03125 305.009766 C 85.952148 295.947266 94.023437 287.026367 102.944336 277.963867 C 102.944336 480.029297 102.944336 680.961914 102.944336 883.027344 Z M 102.944336 883.027344 " transform="matrix(0.0275862, 0, 0, 0.0275862, 0, 0)"/>
<path fill-rule="nonzero" fill="rgb(100%, 60%, 0%)" fill-opacity="1" d="M 13.074219 11.503906 C 12.828125 11.394531 12.660156 11.253906 12.523438 11.0625 C 12.414062 10.898438 12.359375 10.675781 12.359375 10.457031 C 12.359375 10.070312 12.496094 9.765625 12.773438 9.515625 C 13.019531 9.269531 13.40625 9.160156 13.902344 9.160156 C 14.371094 9.160156 14.757812 9.269531 15.007812 9.515625 C 15.28125 9.765625 15.421875 10.070312 15.421875 10.457031 C 15.421875 10.703125 15.367188 10.898438 15.226562 11.089844 C 15.117188 11.28125 14.953125 11.421875 14.730469 11.503906 C 15.007812 11.613281 15.226562 11.78125 15.367188 12 C 15.503906 12.21875 15.585938 12.46875 15.585938 12.773438 C 15.585938 13.242188 15.421875 13.628906 15.144531 13.902344 C 14.839844 14.207031 14.425781 14.34375 13.929688 14.34375 C 13.460938 14.34375 13.074219 14.234375 12.773438 13.984375 C 12.414062 13.710938 12.21875 13.296875 12.21875 12.800781 C 12.21875 12.523438 12.304688 12.277344 12.441406 12.054688 C 12.578125 11.808594 12.800781 11.640625 13.074219 11.503906 Z M 13.296875 10.539062 C 13.296875 10.730469 13.351562 10.867188 13.460938 10.980469 C 13.574219 11.089844 13.710938 11.144531 13.902344 11.144531 C 14.070312 11.144531 14.234375 11.089844 14.34375 10.980469 C 14.457031 10.867188 14.511719 10.730469 14.511719 10.539062 C 14.511719 10.34375 14.457031 10.207031 14.34375 10.097656 C 14.234375 9.984375 14.070312 9.929688 13.902344 9.929688 C 13.710938 9.929688 13.574219 9.984375 13.460938 10.097656 C 13.351562 10.207031 13.296875 10.34375 13.296875 10.539062 Z M 13.1875 12.71875 C 13.1875 12.992188 13.269531 13.1875 13.40625 13.351562 C 13.542969 13.488281 13.710938 13.574219 13.929688 13.574219 C 14.125 13.574219 14.289062 13.488281 14.425781 13.351562 C 14.539062 13.214844 14.621094 12.992188 14.621094 12.71875 C 14.621094 12.496094 14.539062 12.304688 14.425781 12.136719 C 14.289062 12 14.125 11.917969 13.902344 11.917969 C 13.65625 11.917969 13.488281 12 13.378906 12.164062 C 13.242188 12.332031 13.1875 12.523438 13.1875 12.71875 Z M 13.1875 12.71875 "/>
<path fill-rule="nonzero" fill="rgb(100%, 60%, 0%)" fill-opacity="1" d="M 17.847656 9.160156 C 18.34375 9.160156 18.730469 9.324219 19.007812 9.683594 C 19.339844 10.097656 19.503906 10.785156 19.503906 11.75 C 19.503906 12.71875 19.339844 13.40625 19.007812 13.820312 C 18.730469 14.179688 18.34375 14.34375 17.847656 14.34375 C 17.351562 14.34375 16.9375 14.152344 16.632812 13.765625 C 16.332031 13.40625 16.191406 12.71875 16.191406 11.75 C 16.191406 10.785156 16.359375 10.097656 16.691406 9.65625 C 16.964844 9.324219 17.351562 9.160156 17.847656 9.160156 Z M 17.847656 9.957031 C 17.738281 9.957031 17.628906 9.984375 17.515625 10.070312 C 17.433594 10.152344 17.351562 10.289062 17.324219 10.484375 C 17.242188 10.730469 17.214844 11.144531 17.214844 11.75 C 17.214844 12.359375 17.242188 12.746094 17.296875 12.992188 C 17.351562 13.214844 17.433594 13.351562 17.515625 13.433594 C 17.628906 13.488281 17.738281 13.542969 17.847656 13.542969 C 17.957031 13.542969 18.070312 13.488281 18.152344 13.433594 C 18.261719 13.351562 18.316406 13.214844 18.371094 13.019531 C 18.457031 12.773438 18.484375 12.359375 18.484375 11.75 C 18.484375 11.144531 18.457031 10.730469 18.371094 10.511719 C 18.316406 10.289062 18.261719 10.152344 18.152344 10.070312 C 18.070312 9.984375 17.957031 9.957031 17.847656 9.957031 Z M 17.847656 9.957031 "/>
<path fill-rule="nonzero" fill="rgb(100%, 60%, 0%)" fill-opacity="1" d="M 10.785156 22.867188 L 9.792969 22.867188 L 9.792969 19.199219 C 9.433594 19.53125 8.992188 19.78125 8.523438 19.917969 L 8.523438 19.035156 C 8.773438 18.953125 9.046875 18.8125 9.351562 18.566406 C 9.65625 18.34375 9.875 18.070312 9.984375 17.765625 L 10.785156 17.765625 Z M 10.785156 22.867188 "/>
<path fill-rule="nonzero" fill="rgb(100%, 60%, 0%)" fill-opacity="1" d="M 12.277344 18.757812 L 12.277344 17.847656 L 15.640625 17.847656 L 15.640625 18.566406 C 15.367188 18.8125 15.089844 19.199219 14.785156 19.722656 C 14.511719 20.21875 14.289062 20.773438 14.125 21.351562 C 13.984375 21.902344 13.902344 22.425781 13.902344 22.867188 L 12.964844 22.867188 C 12.964844 22.152344 13.132812 21.433594 13.40625 20.71875 C 13.683594 19.972656 14.042969 19.339844 14.511719 18.757812 Z M 12.277344 18.757812 "/>
<path fill-rule="nonzero" fill="rgb(100%, 60%, 0%)" fill-opacity="1" d="M 17.160156 20.109375 C 16.910156 20 16.71875 19.863281 16.605469 19.667969 C 16.496094 19.503906 16.441406 19.28125 16.441406 19.0625 C 16.441406 18.675781 16.578125 18.371094 16.828125 18.125 C 17.101562 17.875 17.488281 17.765625 17.984375 17.765625 C 18.457031 17.765625 18.839844 17.875 19.117188 18.125 C 19.394531 18.371094 19.53125 18.675781 19.53125 19.0625 C 19.53125 19.308594 19.476562 19.503906 19.339844 19.695312 C 19.226562 19.890625 19.035156 20.027344 18.8125 20.109375 C 19.089844 20.21875 19.308594 20.386719 19.476562 20.605469 C 19.613281 20.828125 19.695312 21.074219 19.695312 21.378906 C 19.695312 21.847656 19.53125 22.234375 19.226562 22.511719 C 18.925781 22.8125 18.539062 22.953125 18.015625 22.953125 C 17.542969 22.953125 17.160156 22.839844 16.855469 22.59375 C 16.496094 22.316406 16.304688 21.902344 16.304688 21.40625 C 16.304688 21.132812 16.359375 20.882812 16.496094 20.660156 C 16.632812 20.414062 16.855469 20.25 17.160156 20.109375 Z M 17.378906 19.144531 C 17.378906 19.339844 17.433594 19.476562 17.542969 19.585938 C 17.65625 19.695312 17.792969 19.75 17.984375 19.75 C 18.179688 19.75 18.316406 19.695312 18.425781 19.585938 C 18.539062 19.476562 18.59375 19.339844 18.59375 19.144531 C 18.59375 18.953125 18.539062 18.8125 18.425781 18.703125 C 18.316406 18.59375 18.179688 18.539062 17.984375 18.539062 C 17.792969 18.539062 17.65625 18.59375 17.542969 18.703125 C 17.433594 18.8125 17.378906 18.953125 17.378906 19.144531 Z M 17.269531 21.324219 C 17.269531 21.601562 17.351562 21.792969 17.488281 21.957031 C 17.628906 22.097656 17.792969 22.179688 18.015625 22.179688 C 18.207031 22.179688 18.371094 22.097656 18.511719 21.957031 C 18.648438 21.820312 18.703125 21.601562 18.703125 21.324219 C 18.703125 21.101562 18.648438 20.910156 18.511719 20.746094 C 18.371094 20.605469 18.207031 20.523438 17.984375 20.523438 C 17.738281 20.523438 17.574219 20.605469 17.460938 20.773438 C 17.324219 20.9375 17.269531 21.132812 17.269531 21.324219 Z M 17.269531 21.324219 "/>
<path fill-rule="nonzero" fill="rgb(100%, 60%, 0%)" fill-opacity="1" d="M 20.359375 21.683594 L 21.324219 21.601562 C 21.324219 21.765625 21.40625 21.929688 21.488281 22.015625 C 21.601562 22.097656 21.710938 22.152344 21.875 22.152344 C 22.097656 22.152344 22.261719 22.070312 22.398438 21.875 C 22.539062 21.683594 22.648438 21.296875 22.675781 20.71875 C 22.425781 20.992188 22.125 21.160156 21.738281 21.160156 C 21.351562 21.160156 20.992188 20.992188 20.691406 20.691406 C 20.414062 20.386719 20.25 19.972656 20.25 19.476562 C 20.25 18.953125 20.414062 18.539062 20.71875 18.234375 C 21.019531 17.902344 21.433594 17.765625 21.902344 17.765625 C 22.425781 17.765625 22.867188 17.957031 23.199219 18.34375 C 23.53125 18.757812 23.695312 19.421875 23.695312 20.332031 C 23.695312 21.269531 23.53125 21.929688 23.171875 22.34375 C 22.8125 22.757812 22.371094 22.953125 21.820312 22.953125 C 21.40625 22.953125 21.074219 22.839844 20.828125 22.648438 C 20.578125 22.425781 20.414062 22.125 20.359375 21.683594 Z M 22.59375 19.558594 C 22.59375 19.253906 22.511719 19.007812 22.371094 18.8125 C 22.234375 18.648438 22.070312 18.566406 21.875 18.566406 C 21.683594 18.566406 21.515625 18.621094 21.40625 18.785156 C 21.296875 18.925781 21.214844 19.144531 21.214844 19.476562 C 21.214844 19.808594 21.296875 20.054688 21.433594 20.191406 C 21.542969 20.359375 21.710938 20.441406 21.902344 20.441406 C 22.097656 20.441406 22.261719 20.359375 22.398438 20.21875 C 22.539062 20.054688 22.59375 19.835938 22.59375 19.558594 Z M 22.59375 19.558594 "/>
<path fill-rule="nonzero" fill="rgb(100%, 60%, 0%)" fill-opacity="1" d="M 2.125 15.226562 C 11.394531 15.226562 20.660156 15.226562 29.929688 15.226562 C 29.929688 15.722656 29.929688 16.21875 29.929688 16.71875 C 20.660156 16.71875 11.394531 16.71875 2.125 16.71875 C 2.125 16.21875 2.125 15.722656 2.125 15.226562 Z M 2.125 15.226562 "/>
<path fill-rule="nonzero" fill="rgb(100%, 60%, 0%)" fill-opacity="1" stroke-width="1" stroke-linecap="butt" stroke-linejoin="round" stroke="rgb(100%, 60%, 0%)" stroke-opacity="1" stroke-miterlimit="4" d="M 77.03125 551.962891 C 413.051758 551.962891 748.930664 551.962891 1084.951172 551.962891 C 1084.951172 569.946289 1084.951172 587.929687 1084.951172 606.054687 C 748.930664 606.054687 413.051758 606.054687 77.03125 606.054687 C 77.03125 587.929687 77.03125 569.946289 77.03125 551.962891 Z M 77.03125 551.962891 " transform="matrix(0.0275862, 0, 0, 0.0275862, 0, 0)"/>
</svg>
