<?xml version="1.0" encoding="UTF-8"?>
<svg xmlns="http://www.w3.org/2000/svg" xmlns:xlink="http://www.w3.org/1999/xlink" width="32" height="32" viewBox="0 0 32 32">
<path fill-rule="nonzero" fill="rgb(100%, 60%, 0%)" fill-opacity="1" d="M 30.980469 28.828125 C 20.855469 28.828125 10.757812 28.828125 0.632812 28.828125 C 5.683594 20.136719 10.730469 11.476562 15.808594 2.785156 C 20.855469 11.476562 25.929688 20.136719 30.980469 28.828125 Z M 27.171875 26.953125 C 23.394531 20.386719 19.585938 13.792969 15.808594 7.226562 C 12.027344 13.792969 8.25 20.386719 4.46875 26.953125 C 12.027344 26.953125 19.613281 26.953125 27.171875 26.953125 Z M 27.171875 26.953125 "/>
<path fill-rule="nonzero" fill="rgb(100%, 60%, 0%)" fill-opacity="1" d="M 12.828125 24.082031 C 12.828125 22.207031 12.828125 20.332031 12.828125 18.425781 C 14.207031 18.425781 15.585938 18.425781 16.964844 18.425781 C 16.964844 18.757812 16.964844 19.0625 16.964844 19.394531 C 15.945312 19.394531 14.953125 19.394531 13.929688 19.394531 C 13.929688 19.808594 13.929688 20.21875 13.929688 20.632812 C 14.867188 20.632812 15.808594 20.632812 16.746094 20.632812 C 16.746094 20.964844 16.746094 21.269531 16.746094 21.601562 C 15.808594 21.601562 14.867188 21.601562 13.929688 21.601562 C 13.929688 22.097656 13.929688 22.621094 13.929688 23.144531 C 14.980469 23.144531 16.027344 23.144531 17.074219 23.144531 C 17.074219 23.449219 17.074219 23.78125 17.074219 24.082031 Z M 12.828125 24.082031 "/>
<path fill-rule="nonzero" fill="rgb(100%, 60%, 0%)" fill-opacity="1" d="M 17.984375 24.082031 C 17.984375 22.207031 17.984375 20.332031 17.984375 18.425781 C 18.34375 18.425781 18.703125 18.425781 19.0625 18.425781 C 19.0625 20.332031 19.0625 22.207031 19.0625 24.082031 Z M 17.984375 24.082031 "/>
</svg>
