<?xml version="1.0" encoding="UTF-8"?>
<svg xmlns="http://www.w3.org/2000/svg" xmlns:xlink="http://www.w3.org/1999/xlink" width="32" height="32" viewBox="0 0 32 32">
<path fill-rule="nonzero" fill="rgb(0%, 0%, 0%)" fill-opacity="1" d="M 12.46875 18.898438 L 13.296875 18.898438 C 13.378906 18.898438 13.460938 18.925781 13.515625 18.953125 C 13.574219 18.980469 13.601562 19.035156 13.628906 19.117188 L 14.371094 22.015625 C 14.398438 22.152344 14.457031 22.34375 14.484375 22.539062 C 14.511719 22.425781 14.511719 22.34375 14.539062 22.261719 C 14.566406 22.179688 14.59375 22.097656 14.621094 22.015625 L 15.476562 19.117188 C 15.503906 19.0625 15.53125 19.007812 15.585938 18.953125 C 15.667969 18.925781 15.722656 18.898438 15.808594 18.898438 L 16.082031 18.898438 C 16.191406 18.898438 16.25 18.898438 16.304688 18.953125 C 16.359375 18.980469 16.386719 19.035156 16.414062 19.117188 L 17.296875 22.015625 C 17.324219 22.097656 17.324219 22.179688 17.351562 22.261719 C 17.378906 22.34375 17.40625 22.425781 17.40625 22.539062 C 17.433594 22.425781 17.460938 22.34375 17.460938 22.261719 C 17.488281 22.179688 17.515625 22.097656 17.515625 22.015625 L 18.261719 19.117188 C 18.289062 19.0625 18.316406 19.007812 18.371094 18.953125 C 18.425781 18.925781 18.511719 18.898438 18.59375 18.898438 L 19.367188 18.898438 L 17.875 23.917969 L 16.992188 23.917969 L 16 20.578125 C 16 20.523438 15.972656 20.496094 15.972656 20.441406 C 15.945312 20.386719 15.945312 20.332031 15.917969 20.277344 C 15.917969 20.332031 15.890625 20.386719 15.890625 20.441406 C 15.863281 20.496094 15.863281 20.523438 15.835938 20.578125 L 14.839844 23.917969 L 13.957031 23.917969 Z M 12.46875 18.898438 "/>
<path fill-rule="nonzero" fill="rgb(100%, 60%, 0%)" fill-opacity="1" d="M 31.0625 28.964844 C 21.019531 28.964844 10.980469 28.964844 0.9375 28.964844 C 5.957031 20.332031 10.980469 11.695312 16.027344 3.0625 C 21.019531 11.695312 26.042969 20.332031 31.0625 28.964844 Z M 27.28125 27.089844 C 23.53125 20.550781 19.78125 14.015625 16.027344 7.476562 C 12.25 14.015625 8.46875 20.550781 4.71875 27.089844 C 12.25 27.089844 19.75 27.089844 27.28125 27.089844 Z M 27.28125 27.089844 "/>
<path fill-rule="nonzero" fill="rgb(100%, 60%, 0%)" fill-opacity="1" stroke-width="1" stroke-linecap="butt" stroke-linejoin="miter" stroke="rgb(100%, 60%, 0%)" stroke-opacity="1" stroke-miterlimit="4" d="M 440.947266 594.018555 C 541.05957 694.980469 642.021484 795.942383 741.992187 896.054687 C 734.0625 904.975586 725.991211 913.046875 717.070312 920.976562 C 615.966797 821.005859 515.996094 720.043945 415.03418 618.94043 C 422.963867 611.010742 432.026367 602.939453 440.947266 594.018555 Z M 440.947266 594.018555 " transform="matrix(0.0275862, 0, 0, 0.0275862, 0, 0)"/>
<path fill-rule="nonzero" fill="rgb(100%, 60%, 0%)" fill-opacity="1" stroke-width="1" stroke-linecap="butt" stroke-linejoin="miter" stroke="rgb(100%, 60%, 0%)" stroke-opacity="1" stroke-miterlimit="4" d="M 415.03418 896.054687 C 515.996094 795.942383 615.966797 694.980469 717.070312 594.018555 C 725.991211 602.939453 734.0625 611.010742 741.992187 618.94043 C 642.021484 720.043945 541.05957 821.005859 440.947266 920.976562 C 432.026367 913.046875 422.963867 904.975586 415.03418 896.054687 Z M 415.03418 896.054687 " transform="matrix(0.0275862, 0, 0, 0.0275862, 0, 0)"/>
</svg>
