<?xml version="1.0" encoding="UTF-8"?>
<svg xmlns="http://www.w3.org/2000/svg" xmlns:xlink="http://www.w3.org/1999/xlink" width="32" height="32" viewBox="0 0 32 32">
<path fill-rule="nonzero" fill="rgb(100%, 58.039216%, 8.235294%)" fill-opacity="1" d="M 18.042969 17.765625 L 15.863281 21.515625 L 13.65625 17.765625 L 15.28125 17.765625 L 15.28125 11.476562 L 16.386719 11.476562 L 16.386719 17.765625 Z M 31.089844 29.1875 L 0.550781 29.1875 L 15.863281 2.839844 Z M 27.308594 27.007812 L 15.863281 7.253906 L 4.386719 27.007812 Z M 22.839844 22.511719 L 22.511719 22.511719 L 22.425781 22.539062 L 22.34375 22.539062 L 22.261719 22.59375 L 22.234375 22.59375 L 22.152344 22.621094 L 22.097656 22.648438 L 22.015625 22.675781 L 21.957031 22.730469 L 21.929688 22.757812 L 21.875 22.785156 L 21.792969 22.8125 L 21.765625 22.898438 L 21.683594 22.980469 L 21.628906 23.007812 L 21.601562 23.089844 L 21.601562 23.144531 L 21.542969 23.226562 L 21.515625 23.28125 L 21.488281 23.339844 L 21.460938 23.421875 L 21.460938 23.558594 L 21.433594 23.640625 L 21.433594 23.808594 L 21.378906 23.890625 L 21.378906 24.332031 L 21.351562 24.359375 L 21.324219 24.414062 L 21.324219 24.441406 L 21.296875 24.46875 L 21.296875 24.523438 L 21.269531 24.550781 L 21.214844 24.578125 L 21.214844 24.605469 L 21.160156 24.660156 L 21.132812 24.691406 L 21.074219 24.71875 L 21.046875 24.71875 L 21.046875 24.746094 L 20.992188 24.746094 L 20.964844 24.773438 L 20.910156 24.800781 L 20.882812 24.800781 L 20.828125 24.828125 L 20.746094 24.828125 L 20.691406 24.855469 L 20.386719 24.855469 L 20.332031 24.828125 L 20.277344 24.828125 L 20.21875 24.800781 L 20.191406 24.800781 L 20.109375 24.773438 L 20.109375 24.746094 L 20.054688 24.746094 L 20.027344 24.71875 L 19.972656 24.71875 L 19.945312 24.691406 L 19.945312 24.660156 L 19.917969 24.632812 L 19.863281 24.605469 L 19.808594 24.550781 L 19.808594 24.523438 L 19.78125 24.46875 L 19.78125 24.441406 L 19.75 24.414062 L 19.75 24.359375 L 19.722656 24.332031 L 19.722656 24.277344 L 19.695312 24.25 L 19.695312 24.082031 L 19.667969 24.054688 L 19.667969 23.722656 L 19.640625 23.640625 L 19.640625 23.476562 L 19.613281 23.421875 L 19.585938 23.339844 L 19.558594 23.28125 L 19.53125 23.226562 L 19.503906 23.144531 L 19.476562 23.089844 L 19.449219 23.007812 L 19.394531 22.980469 L 19.339844 22.925781 L 19.308594 22.898438 L 19.253906 22.8125 L 19.089844 22.730469 L 19.007812 22.675781 L 18.898438 22.621094 L 18.839844 22.59375 L 18.730469 22.59375 L 18.675781 22.539062 L 18.59375 22.539062 L 18.511719 22.511719 L 17.820312 22.511719 L 17.738281 22.539062 L 17.65625 22.539062 L 17.574219 22.59375 L 17.488281 22.59375 L 17.460938 22.621094 L 17.378906 22.648438 L 17.324219 22.675781 L 17.269531 22.730469 L 17.160156 22.785156 L 17.101562 22.8125 L 17.046875 22.898438 L 17.019531 22.925781 L 16.992188 22.980469 L 16.9375 23.007812 L 16.910156 23.089844 L 16.855469 23.144531 L 16.855469 23.226562 L 16.828125 23.28125 L 16.800781 23.339844 L 16.773438 23.421875 L 16.746094 23.476562 L 16.746094 23.558594 L 16.71875 23.640625 L 16.71875 23.722656 L 16.691406 23.808594 L 16.691406 24.277344 L 16.660156 24.332031 L 16.660156 24.359375 L 16.632812 24.414062 L 16.632812 24.441406 L 16.605469 24.46875 L 16.578125 24.523438 L 16.550781 24.550781 L 16.550781 24.578125 L 16.46875 24.660156 L 16.441406 24.691406 L 16.332031 24.746094 L 16.304688 24.746094 L 16.25 24.773438 L 16.21875 24.800781 L 16.191406 24.800781 L 16.136719 24.828125 L 16.054688 24.828125 L 16 24.855469 L 15.695312 24.855469 L 15.640625 24.828125 L 15.558594 24.828125 L 15.503906 24.800781 L 15.476562 24.800781 L 15.421875 24.773438 L 15.394531 24.746094 L 15.367188 24.746094 L 15.308594 24.71875 L 15.28125 24.71875 L 15.28125 24.691406 L 15.199219 24.660156 L 15.199219 24.632812 L 15.117188 24.550781 L 15.117188 24.46875 L 15.089844 24.441406 L 15.035156 24.414062 L 15.035156 24.277344 L 15.007812 24.25 L 15.007812 24.136719 L 14.980469 24.082031 L 14.980469 23.722656 L 14.953125 23.640625 L 14.953125 23.476562 L 14.898438 23.421875 L 14.867188 23.339844 L 14.867188 23.28125 L 14.839844 23.226562 L 14.785156 23.144531 L 14.785156 23.089844 L 14.730469 23.007812 L 14.648438 22.925781 L 14.59375 22.898438 L 14.566406 22.8125 L 14.484375 22.785156 L 14.425781 22.757812 L 14.398438 22.730469 L 14.316406 22.675781 L 14.234375 22.648438 L 14.179688 22.621094 L 14.097656 22.59375 L 14.042969 22.59375 L 13.957031 22.539062 L 13.902344 22.539062 L 13.792969 22.511719 L 13.101562 22.511719 L 13.019531 22.539062 L 12.964844 22.539062 L 12.882812 22.59375 L 12.828125 22.59375 L 12.746094 22.621094 L 12.691406 22.648438 L 12.632812 22.675781 L 12.578125 22.730469 L 12.496094 22.757812 L 12.46875 22.785156 L 12.414062 22.8125 L 12.359375 22.898438 L 12.332031 22.925781 L 12.304688 22.980469 L 12.25 23.007812 L 12.191406 23.089844 L 12.191406 23.144531 L 12.164062 23.226562 L 12.109375 23.28125 L 12.109375 23.339844 L 12.082031 23.421875 L 12.054688 23.476562 L 12.027344 23.558594 L 12.027344 24.136719 L 12 24.191406 L 12 24.277344 L 11.945312 24.332031 L 11.945312 24.414062 L 11.917969 24.441406 L 11.917969 24.46875 L 11.890625 24.523438 L 11.863281 24.550781 L 11.863281 24.578125 L 11.808594 24.605469 L 11.78125 24.632812 L 11.78125 24.660156 L 11.722656 24.691406 L 11.722656 24.71875 L 11.695312 24.71875 L 11.640625 24.746094 L 11.613281 24.746094 L 11.503906 24.800781 L 11.476562 24.800781 L 11.449219 24.828125 L 11.339844 24.828125 L 11.308594 24.855469 L 11.007812 24.855469 L 10.953125 24.828125 L 10.839844 24.828125 L 10.8125 24.800781 L 10.785156 24.800781 L 10.621094 24.71875 L 10.59375 24.71875 L 10.566406 24.691406 L 10.511719 24.660156 L 10.511719 24.632812 L 10.457031 24.578125 L 10.425781 24.550781 L 10.398438 24.523438 L 10.371094 24.46875 L 10.371094 24.414062 L 10.34375 24.359375 L 10.34375 24.332031 L 10.316406 24.277344 L 10.316406 24.191406 L 10.289062 24.136719 L 10.289062 23.808594 L 10.261719 23.722656 L 10.261719 23.640625 L 10.234375 23.558594 L 10.234375 23.476562 L 10.207031 23.421875 L 10.207031 23.339844 L 10.179688 23.28125 L 10.152344 23.226562 L 10.097656 23.144531 L 10.070312 23.089844 L 10.042969 23.007812 L 9.984375 22.980469 L 9.957031 22.925781 L 9.902344 22.898438 L 9.847656 22.8125 L 9.683594 22.730469 L 9.628906 22.675781 L 9.574219 22.648438 L 9.488281 22.621094 L 9.40625 22.59375 L 9.324219 22.59375 L 9.269531 22.539062 L 9.1875 22.539062 L 9.101562 22.511719 L 8.386719 22.511719 L 8.332031 22.539062 L 8.25 22.539062 L 8.191406 22.59375 L 8.136719 22.59375 L 8.054688 22.621094 L 8 22.648438 L 7.917969 22.675781 L 7.835938 22.757812 L 7.75 22.785156 L 7.722656 22.8125 L 7.667969 22.839844 L 7.613281 22.898438 L 7.585938 22.953125 L 7.558594 22.980469 L 7.503906 23.0625 L 7.421875 23.226562 L 7.394531 23.308594 L 7.394531 23.394531 L 7.367188 23.449219 L 7.339844 23.53125 L 7.339844 23.613281 L 7.308594 23.695312 L 7.308594 23.945312 L 7.917969 23.945312 L 7.917969 23.890625 L 7.945312 23.863281 L 7.945312 23.695312 L 8 23.640625 L 8 23.53125 L 8.027344 23.53125 L 8.027344 23.449219 L 8.054688 23.449219 L 8.054688 23.421875 L 8.136719 23.339844 L 8.136719 23.308594 L 8.164062 23.308594 L 8.21875 23.253906 L 8.25 23.253906 L 8.304688 23.226562 L 8.359375 23.226562 L 8.386719 23.171875 L 8.414062 23.144531 L 8.9375 23.144531 L 8.992188 23.171875 L 9.019531 23.171875 L 9.074219 23.226562 L 9.101562 23.226562 L 9.132812 23.253906 L 9.160156 23.28125 L 9.214844 23.308594 L 9.242188 23.308594 L 9.269531 23.339844 L 9.296875 23.394531 L 9.324219 23.421875 L 9.378906 23.449219 L 9.40625 23.476562 L 9.40625 23.53125 L 9.433594 23.585938 L 9.460938 23.613281 L 9.488281 23.695312 L 9.574219 23.78125 L 9.574219 23.890625 L 9.628906 23.945312 L 9.628906 24 L 9.65625 24.082031 L 9.683594 24.136719 L 9.710938 24.21875 L 9.738281 24.25 L 9.738281 24.414062 L 9.765625 24.46875 L 9.792969 24.550781 L 9.820312 24.605469 L 9.875 24.660156 L 9.875 24.71875 L 9.929688 24.828125 L 9.984375 24.882812 L 10.015625 24.910156 L 10.042969 24.964844 L 10.125 25.046875 L 10.179688 25.074219 L 10.207031 25.132812 L 10.261719 25.1875 L 10.316406 25.1875 L 10.371094 25.214844 L 10.398438 25.242188 L 10.457031 25.269531 L 10.566406 25.324219 L 10.648438 25.351562 L 10.675781 25.351562 L 10.757812 25.378906 L 10.867188 25.378906 L 10.953125 25.40625 L 11.394531 25.40625 L 11.476562 25.378906 L 11.558594 25.378906 L 11.640625 25.351562 L 11.722656 25.351562 L 11.78125 25.324219 L 11.863281 25.296875 L 11.890625 25.269531 L 11.945312 25.242188 L 12.027344 25.1875 L 12.082031 25.1875 L 12.109375 25.132812 L 12.191406 25.132812 L 12.21875 25.046875 L 12.277344 25.019531 L 12.332031 24.964844 L 12.332031 24.882812 L 12.386719 24.855469 L 12.414062 24.800781 L 12.414062 24.71875 L 12.46875 24.660156 L 12.496094 24.578125 L 12.496094 24.523438 L 12.523438 24.441406 L 12.550781 24.386719 L 12.550781 24.304688 L 12.578125 24.25 L 12.578125 23.808594 L 12.605469 23.78125 L 12.605469 23.722656 L 12.632812 23.695312 L 12.632812 23.613281 L 12.660156 23.558594 L 12.660156 23.53125 L 12.691406 23.476562 L 12.691406 23.449219 L 12.746094 23.394531 L 12.773438 23.394531 L 12.800781 23.339844 L 12.828125 23.308594 L 12.855469 23.308594 L 12.910156 23.253906 L 12.964844 23.226562 L 13.019531 23.226562 L 13.101562 23.144531 L 13.765625 23.144531 L 13.792969 23.171875 L 13.847656 23.171875 L 13.875 23.226562 L 13.957031 23.226562 L 14.015625 23.253906 L 14.070312 23.308594 L 14.097656 23.308594 L 14.125 23.339844 L 14.179688 23.394531 L 14.179688 23.421875 L 14.234375 23.476562 L 14.234375 23.53125 L 14.261719 23.558594 L 14.261719 23.585938 L 14.289062 23.613281 L 14.316406 23.695312 L 14.316406 23.722656 L 14.34375 23.78125 L 14.34375 23.917969 L 14.371094 23.972656 L 14.371094 24.359375 L 14.398438 24.414062 L 14.398438 24.578125 L 14.425781 24.632812 L 14.484375 24.71875 L 14.511719 24.746094 L 14.539062 24.828125 L 14.566406 24.882812 L 14.648438 24.964844 L 14.675781 25.019531 L 14.730469 25.046875 L 14.785156 25.132812 L 14.8125 25.160156 L 14.867188 25.1875 L 14.953125 25.214844 L 15.007812 25.242188 L 15.035156 25.269531 L 15.117188 25.324219 L 15.199219 25.351562 L 15.339844 25.351562 L 15.421875 25.378906 L 15.503906 25.378906 L 15.585938 25.40625 L 16.109375 25.40625 L 16.191406 25.378906 L 16.25 25.378906 L 16.332031 25.351562 L 16.386719 25.351562 L 16.550781 25.296875 L 16.660156 25.242188 L 16.71875 25.1875 L 16.773438 25.1875 L 16.828125 25.132812 L 16.855469 25.132812 L 16.910156 25.046875 L 16.964844 25.019531 L 17.019531 24.964844 L 17.019531 24.882812 L 17.101562 24.855469 L 17.101562 24.800781 L 17.160156 24.71875 L 17.1875 24.660156 L 17.1875 24.578125 L 17.214844 24.523438 L 17.214844 24.441406 L 17.269531 24.386719 L 17.269531 23.917969 L 17.296875 23.863281 L 17.296875 23.722656 L 17.324219 23.695312 L 17.324219 23.558594 L 17.351562 23.53125 L 17.378906 23.476562 L 17.40625 23.449219 L 17.40625 23.421875 L 17.433594 23.394531 L 17.460938 23.394531 L 17.488281 23.339844 L 17.515625 23.308594 L 17.574219 23.308594 L 17.574219 23.28125 L 17.628906 23.253906 L 17.65625 23.226562 L 17.738281 23.226562 L 17.765625 23.171875 L 17.820312 23.144531 L 18.457031 23.144531 L 18.511719 23.171875 L 18.539062 23.171875 L 18.59375 23.226562 L 18.675781 23.226562 L 18.757812 23.308594 L 18.8125 23.308594 L 18.839844 23.339844 L 18.839844 23.394531 L 18.867188 23.421875 L 18.898438 23.449219 L 18.925781 23.476562 L 18.953125 23.53125 L 19.007812 23.585938 L 19.007812 23.722656 L 19.035156 23.78125 L 19.035156 23.863281 L 19.0625 23.917969 L 19.0625 24.277344 L 19.089844 24.359375 L 19.089844 24.414062 L 19.144531 24.578125 L 19.144531 24.632812 L 19.171875 24.71875 L 19.199219 24.746094 L 19.226562 24.828125 L 19.308594 24.910156 L 19.339844 24.964844 L 19.394531 25.019531 L 19.449219 25.046875 L 19.476562 25.132812 L 19.695312 25.242188 L 19.78125 25.269531 L 19.808594 25.324219 L 19.890625 25.351562 L 20.027344 25.351562 L 20.109375 25.378906 L 20.191406 25.378906 L 20.277344 25.40625 L 20.828125 25.40625 L 20.882812 25.378906 L 20.964844 25.378906 L 21.046875 25.351562 L 21.132812 25.351562 L 21.160156 25.324219 L 21.214844 25.296875 L 21.296875 25.269531 L 21.351562 25.242188 L 21.433594 25.1875 L 21.460938 25.1875 L 21.515625 25.132812 L 21.574219 25.132812 L 21.628906 25.046875 L 21.65625 25.019531 L 21.683594 24.964844 L 21.765625 24.882812 L 21.765625 24.855469 L 21.792969 24.800781 L 21.847656 24.71875 L 21.875 24.660156 L 21.902344 24.578125 L 21.929688 24.523438 L 21.929688 24.386719 L 21.957031 24.304688 L 21.957031 24.136719 L 21.984375 24.054688 L 21.984375 23.78125 L 22.015625 23.722656 L 22.015625 23.640625 L 22.042969 23.613281 L 22.070312 23.558594 L 22.070312 23.53125 L 22.097656 23.476562 L 22.097656 23.449219 L 22.152344 23.394531 L 22.179688 23.394531 L 22.207031 23.339844 L 22.234375 23.308594 L 22.261719 23.28125 L 22.316406 23.253906 L 22.34375 23.226562 L 22.425781 23.226562 L 22.457031 23.171875 L 22.511719 23.144531 L 23.199219 23.144531 L 23.28125 23.226562 L 23.367188 23.226562 L 23.394531 23.253906 L 23.421875 23.253906 L 23.476562 23.28125 L 23.503906 23.308594 L 23.53125 23.339844 L 23.640625 23.449219 L 23.667969 23.53125 L 23.695312 23.585938 L 23.695312 23.613281 L 23.75 23.640625 L 23.75 23.945312 L 24.386719 23.945312 L 24.386719 23.613281 L 24.359375 23.53125 L 24.304688 23.449219 L 24.304688 23.308594 L 24.25 23.226562 L 24.21875 23.171875 L 24.21875 23.117188 L 24.164062 23.0625 L 24.136719 22.980469 L 24.082031 22.953125 L 24.054688 22.898438 L 24 22.839844 L 23.945312 22.8125 L 23.917969 22.785156 L 23.835938 22.757812 L 23.78125 22.730469 L 23.695312 22.675781 L 23.667969 22.648438 L 23.503906 22.59375 L 23.449219 22.59375 L 23.367188 22.539062 L 23.28125 22.539062 L 23.199219 22.511719 Z M 22.839844 22.511719 "/>
</svg>
