<?xml version="1.0" encoding="UTF-8"?>
<svg xmlns="http://www.w3.org/2000/svg" xmlns:xlink="http://www.w3.org/1999/xlink" width="32" height="32" viewBox="0 0 32 32">
<path fill-rule="nonzero" fill="rgb(0%, 0%, 100%)" fill-opacity="1" stroke-width="1" stroke-linecap="butt" stroke-linejoin="miter" stroke="rgb(0%, 0%, 100%)" stroke-opacity="1" stroke-miterlimit="4" d="M 354.995117 312.939453 C 354.995117 534.970703 354.995117 757.993164 354.995117 980.024414 C 335.029297 980.024414 316.054687 980.024414 296.938477 980.024414 C 296.938477 757.993164 296.938477 534.970703 296.938477 312.939453 C 316.054687 312.939453 335.029297 312.939453 354.995117 312.939453 Z M 354.995117 312.939453 " transform="matrix(0.0275862, 0, 0, 0.0275862, 0, 0)"/>
<path fill-rule="nonzero" fill="rgb(0%, 0%, 100%)" fill-opacity="1" d="M 6.015625 28.109375 C 6.015625 26.511719 7.367188 25.214844 8.992188 25.214844 C 10.675781 25.214844 12.027344 26.511719 12.027344 28.109375 C 12.027344 29.710938 10.675781 31.007812 8.992188 31.007812 C 7.367188 31.007812 6.015625 29.710938 6.015625 28.109375 Z M 6.015625 28.109375 "/>
<path fill-rule="nonzero" fill="rgb(0%, 0%, 100%)" fill-opacity="1" d="M 5.929688 28.109375 C 5.929688 28 5.929688 27.917969 5.929688 27.808594 C 5.929688 27.722656 5.957031 27.613281 5.957031 27.53125 C 5.984375 27.421875 6.015625 27.308594 6.042969 27.199219 C 6.070312 27.117188 6.125 27.035156 6.152344 26.953125 C 6.207031 26.867188 6.234375 26.785156 6.289062 26.703125 C 6.34375 26.621094 6.371094 26.539062 6.425781 26.425781 C 6.484375 26.371094 6.566406 26.289062 6.621094 26.207031 C 6.675781 26.152344 6.757812 26.070312 6.8125 25.984375 C 6.898438 25.929688 6.953125 25.875 7.035156 25.792969 C 7.117188 25.738281 7.199219 25.683594 7.28125 25.628906 C 7.367188 25.574219 7.449219 25.515625 7.53125 25.460938 C 7.613281 25.433594 7.722656 25.40625 7.808594 25.351562 C 7.890625 25.324219 8 25.296875 8.082031 25.242188 C 8.191406 25.214844 8.277344 25.1875 8.386719 25.160156 C 8.496094 25.160156 8.578125 25.160156 8.691406 25.132812 C 8.800781 25.132812 8.882812 25.132812 8.992188 25.101562 C 9.101562 25.101562 9.214844 25.101562 9.324219 25.101562 C 9.40625 25.132812 9.515625 25.160156 9.628906 25.160156 C 9.710938 25.1875 9.820312 25.214844 9.929688 25.242188 C 10.015625 25.296875 10.097656 25.324219 10.207031 25.351562 C 10.289062 25.40625 10.371094 25.433594 10.484375 25.460938 C 10.566406 25.515625 10.648438 25.574219 10.757812 25.601562 C 10.8125 25.683594 10.898438 25.738281 10.980469 25.792969 C 11.035156 25.875 11.117188 25.929688 11.199219 25.984375 C 11.253906 26.070312 11.339844 26.152344 11.421875 26.207031 C 11.476562 26.289062 11.53125 26.371094 11.585938 26.425781 C 11.613281 26.511719 11.667969 26.59375 11.722656 26.675781 C 11.78125 26.757812 11.835938 26.839844 11.890625 26.925781 C 11.917969 27.007812 11.945312 27.117188 11.972656 27.199219 C 12 27.308594 12.027344 27.394531 12.054688 27.503906 C 12.054688 27.613281 12.054688 27.695312 12.082031 27.808594 C 12.082031 27.917969 12.082031 28 12.109375 28.109375 C 12.082031 28.21875 12.082031 28.304688 12.082031 28.414062 C 12.054688 28.523438 12.054688 28.605469 12.054688 28.71875 C 12.027344 28.800781 12 28.910156 11.972656 28.992188 C 11.945312 29.101562 11.917969 29.1875 11.890625 29.296875 C 11.835938 29.378906 11.78125 29.460938 11.722656 29.542969 C 11.667969 29.628906 11.613281 29.710938 11.585938 29.792969 C 11.53125 29.875 11.476562 29.929688 11.421875 30.015625 C 11.339844 30.097656 11.28125 30.152344 11.226562 30.234375 C 11.144531 30.289062 11.0625 30.371094 10.980469 30.425781 C 10.898438 30.484375 10.8125 30.566406 10.757812 30.621094 C 10.648438 30.675781 10.566406 30.703125 10.484375 30.757812 C 10.398438 30.785156 10.316406 30.839844 10.234375 30.867188 C 10.125 30.898438 10.042969 30.953125 9.957031 30.980469 C 9.847656 31.007812 9.738281 31.035156 9.628906 31.0625 C 9.515625 31.089844 9.40625 31.089844 9.324219 31.117188 C 9.214844 31.117188 9.101562 31.117188 9.019531 31.117188 C 8.910156 31.117188 8.800781 31.117188 8.691406 31.117188 C 8.578125 31.089844 8.496094 31.089844 8.386719 31.0625 C 8.277344 31.035156 8.191406 31.007812 8.082031 30.980469 C 8 30.953125 7.890625 30.898438 7.808594 30.867188 C 7.722656 30.839844 7.613281 30.785156 7.53125 30.757812 C 7.449219 30.703125 7.367188 30.675781 7.28125 30.621094 C 7.199219 30.566406 7.144531 30.484375 7.0625 30.425781 C 6.980469 30.371094 6.898438 30.289062 6.8125 30.234375 C 6.757812 30.152344 6.675781 30.097656 6.621094 30.015625 C 6.566406 29.929688 6.484375 29.875 6.425781 29.792969 C 6.371094 29.710938 6.34375 29.628906 6.289062 29.542969 C 6.234375 29.460938 6.207031 29.378906 6.152344 29.296875 C 6.125 29.1875 6.097656 29.101562 6.070312 28.992188 C 6.042969 28.910156 5.984375 28.800781 5.957031 28.71875 C 5.957031 28.605469 5.929688 28.523438 5.929688 28.414062 C 5.929688 28.304688 5.929688 28.21875 5.929688 28.109375 Z M 6.097656 28.386719 C 6.125 28.46875 6.125 28.578125 6.152344 28.660156 C 6.179688 28.746094 6.207031 28.855469 6.234375 28.9375 C 6.261719 29.019531 6.289062 29.101562 6.316406 29.1875 C 6.34375 29.269531 6.398438 29.378906 6.425781 29.460938 C 6.484375 29.515625 6.539062 29.601562 6.59375 29.65625 C 6.648438 29.738281 6.703125 29.820312 6.757812 29.902344 C 6.8125 29.957031 6.898438 30.042969 6.953125 30.097656 C 7.007812 30.152344 7.089844 30.234375 7.144531 30.289062 C 7.226562 30.34375 7.28125 30.398438 7.367188 30.457031 C 7.449219 30.511719 7.53125 30.539062 7.613281 30.59375 C 7.695312 30.621094 7.78125 30.675781 7.863281 30.703125 C 7.945312 30.730469 8.054688 30.757812 8.136719 30.785156 C 8.21875 30.8125 8.332031 30.839844 8.414062 30.867188 C 8.496094 30.867188 8.605469 30.898438 8.691406 30.898438 C 8.800781 30.898438 8.882812 30.925781 8.992188 30.925781 C 9.101562 30.925781 9.214844 30.925781 9.324219 30.925781 C 9.40625 30.898438 9.488281 30.898438 9.601562 30.867188 C 9.683594 30.839844 9.765625 30.8125 9.875 30.785156 C 9.957031 30.757812 10.042969 30.730469 10.125 30.703125 C 10.207031 30.675781 10.289062 30.621094 10.398438 30.59375 C 10.457031 30.539062 10.539062 30.511719 10.621094 30.457031 C 10.703125 30.398438 10.785156 30.34375 10.867188 30.289062 C 10.925781 30.234375 11.007812 30.152344 11.089844 30.097656 C 11.144531 30.042969 11.199219 29.957031 11.253906 29.902344 C 11.308594 29.820312 11.367188 29.765625 11.421875 29.683594 C 11.476562 29.601562 11.53125 29.542969 11.585938 29.460938 C 11.613281 29.378906 11.640625 29.296875 11.695312 29.214844 C 11.722656 29.132812 11.75 29.046875 11.78125 28.964844 C 11.808594 28.855469 11.835938 28.773438 11.863281 28.660156 C 11.863281 28.578125 11.863281 28.46875 11.890625 28.386719 C 11.890625 28.304688 11.890625 28.191406 11.917969 28.109375 C 11.890625 28.027344 11.890625 27.917969 11.890625 27.835938 C 11.890625 27.722656 11.890625 27.640625 11.890625 27.53125 C 11.863281 27.449219 11.835938 27.367188 11.808594 27.28125 C 11.75 27.199219 11.722656 27.117188 11.695312 27.035156 C 11.640625 26.953125 11.613281 26.839844 11.585938 26.757812 C 11.53125 26.703125 11.476562 26.648438 11.421875 26.566406 C 11.367188 26.484375 11.308594 26.398438 11.253906 26.316406 C 11.199219 26.261719 11.144531 26.207031 11.089844 26.125 C 11.007812 26.070312 10.925781 26.015625 10.867188 25.929688 C 10.785156 25.875 10.703125 25.820312 10.648438 25.765625 C 10.566406 25.738281 10.484375 25.683594 10.425781 25.628906 C 10.316406 25.601562 10.234375 25.574219 10.152344 25.515625 C 10.042969 25.488281 9.957031 25.460938 9.875 25.433594 C 9.765625 25.40625 9.683594 25.378906 9.601562 25.351562 C 9.488281 25.351562 9.40625 25.324219 9.324219 25.296875 C 9.214844 25.296875 9.101562 25.296875 9.019531 25.296875 C 8.910156 25.296875 8.828125 25.296875 8.71875 25.296875 C 8.632812 25.324219 8.523438 25.351562 8.441406 25.351562 C 8.359375 25.378906 8.25 25.40625 8.164062 25.433594 C 8.054688 25.460938 7.972656 25.488281 7.863281 25.515625 C 7.78125 25.574219 7.695312 25.601562 7.613281 25.628906 C 7.53125 25.683594 7.449219 25.738281 7.367188 25.765625 C 7.308594 25.820312 7.226562 25.875 7.171875 25.929688 C 7.089844 26.015625 7.035156 26.070312 6.953125 26.125 C 6.898438 26.207031 6.8125 26.261719 6.757812 26.316406 C 6.703125 26.398438 6.648438 26.484375 6.59375 26.539062 C 6.539062 26.621094 6.511719 26.675781 6.457031 26.757812 C 6.398438 26.839844 6.371094 26.925781 6.316406 27.007812 C 6.289062 27.089844 6.261719 27.171875 6.234375 27.253906 C 6.207031 27.339844 6.179688 27.449219 6.152344 27.53125 C 6.125 27.640625 6.125 27.722656 6.097656 27.835938 C 6.097656 27.917969 6.097656 28.027344 6.097656 28.109375 C 6.097656 28.191406 6.097656 28.304688 6.097656 28.386719 Z M 6.097656 28.386719 "/>
<path fill="none" stroke-width="1" stroke-linecap="butt" stroke-linejoin="miter" stroke="rgb(0%, 0%, 100%)" stroke-opacity="1" stroke-miterlimit="4" d="M 214.951172 1018.964844 C 214.951172 1015 214.951172 1012.026367 214.951172 1008.061523 C 214.951172 1004.946289 215.942383 1000.981445 215.942383 998.007812 C 216.933594 994.042969 218.066406 989.936523 219.057617 985.97168 C 220.048828 982.998047 222.03125 980.024414 223.022461 977.050781 C 225.004883 973.935547 225.996094 970.961914 227.978516 967.988281 C 229.960937 965.014648 230.952148 962.041016 232.93457 957.93457 C 235.058594 955.952148 238.032227 952.978516 240.014648 950.004883 C 241.99707 948.022461 244.970703 945.048828 246.953125 941.933594 C 250.068359 939.951172 252.050781 937.96875 255.024414 934.995117 C 257.998047 933.012695 260.97168 931.030273 263.945312 929.047852 C 267.060547 927.06543 270.03418 924.941406 273.007812 922.958984 C 275.981445 921.967773 279.946289 920.976562 283.061523 918.994141 C 286.035156 918.00293 290 917.011719 292.973633 915.029297 C 296.938477 914.038086 300.053711 913.046875 304.018555 912.055664 C 307.983398 912.055664 310.957031 912.055664 315.063477 911.064453 C 319.02832 911.064453 322.001953 911.064453 325.966797 909.931641 C 329.931641 909.931641 334.038086 909.931641 338.00293 909.931641 C 340.976562 911.064453 344.941406 912.055664 349.047852 912.055664 C 352.021484 913.046875 355.986328 914.038086 359.951172 915.029297 C 363.066406 917.011719 366.040039 918.00293 370.004883 918.994141 C 372.978516 920.976562 375.952148 921.967773 380.058594 922.958984 C 383.032227 924.941406 386.005859 927.06543 389.970703 928.056641 C 391.953125 931.030273 395.068359 933.012695 398.041992 934.995117 C 400.024414 937.96875 402.998047 939.951172 405.97168 941.933594 C 407.954102 945.048828 411.069336 948.022461 414.042969 950.004883 C 416.025391 952.978516 418.007812 955.952148 419.990234 957.93457 C 420.981445 961.049805 422.963867 964.023437 424.946289 966.99707 C 427.070312 969.970703 429.052734 972.944336 431.035156 976.05957 C 432.026367 979.033203 433.017578 982.998047 434.008789 985.97168 C 435 989.936523 435.991211 993.051758 436.982422 997.016602 C 436.982422 1000.981445 436.982422 1003.955078 437.973633 1008.061523 C 437.973633 1012.026367 437.973633 1015 438.964844 1018.964844 C 437.973633 1022.929687 437.973633 1026.044922 437.973633 1030.009766 C 436.982422 1033.974609 436.982422 1036.948242 436.982422 1041.054687 C 435.991211 1044.02832 435 1047.993164 434.008789 1050.966797 C 433.017578 1054.931641 432.026367 1058.046875 431.035156 1062.011719 C 429.052734 1064.985352 427.070312 1067.958984 424.946289 1070.932617 C 422.963867 1074.047852 420.981445 1077.021484 419.990234 1079.995117 C 418.007812 1082.96875 416.025391 1084.951172 414.042969 1088.066406 C 411.069336 1091.040039 408.945312 1093.022461 406.962891 1095.996094 C 403.989258 1097.978516 401.015625 1100.952148 398.041992 1102.93457 C 395.068359 1105.058594 391.953125 1108.032227 389.970703 1110.014648 C 386.005859 1111.99707 383.032227 1112.988281 380.058594 1114.970703 C 376.943359 1115.961914 373.969727 1117.944336 370.996094 1118.935547 C 367.03125 1120.068359 364.057617 1122.050781 360.942383 1123.041992 C 356.977539 1124.033203 353.012695 1125.024414 349.047852 1126.015625 C 344.941406 1127.006836 340.976562 1127.006836 338.00293 1127.998047 C 334.038086 1127.998047 329.931641 1127.998047 326.958008 1127.998047 C 322.993164 1127.998047 319.02832 1127.998047 315.063477 1127.998047 C 310.957031 1127.006836 307.983398 1127.006836 304.018555 1126.015625 C 300.053711 1125.024414 296.938477 1124.033203 292.973633 1123.041992 C 290 1122.050781 286.035156 1120.068359 283.061523 1118.935547 C 279.946289 1117.944336 275.981445 1115.961914 273.007812 1114.970703 C 270.03418 1112.988281 267.060547 1111.99707 263.945312 1110.014648 C 260.97168 1108.032227 258.989258 1105.058594 256.015625 1102.93457 C 253.041992 1100.952148 250.068359 1097.978516 246.953125 1095.996094 C 244.970703 1093.022461 241.99707 1091.040039 240.014648 1088.066406 C 238.032227 1084.951172 235.058594 1082.96875 232.93457 1079.995117 C 230.952148 1077.021484 229.960937 1074.047852 227.978516 1070.932617 C 225.996094 1067.958984 225.004883 1064.985352 223.022461 1062.011719 C 222.03125 1058.046875 221.040039 1054.931641 220.048828 1050.966797 C 219.057617 1047.993164 216.933594 1044.02832 215.942383 1041.054687 C 215.942383 1036.948242 214.951172 1033.974609 214.951172 1030.009766 C 214.951172 1026.044922 214.951172 1022.929687 214.951172 1018.964844 Z M 214.951172 1018.964844 " transform="matrix(0.0275862, 0, 0, 0.0275862, 0, 0)"/>
<path fill="none" stroke-width="1" stroke-linecap="butt" stroke-linejoin="miter" stroke="rgb(0%, 0%, 100%)" stroke-opacity="1" stroke-miterlimit="4" d="M 221.040039 1029.018555 C 222.03125 1031.992187 222.03125 1035.957031 223.022461 1038.930664 C 224.013672 1042.045898 225.004883 1046.010742 225.996094 1048.984375 C 226.987305 1051.958008 227.978516 1054.931641 228.969727 1058.046875 C 229.960937 1061.020508 231.943359 1064.985352 232.93457 1067.958984 C 235.058594 1069.941406 237.041016 1073.056641 239.023437 1075.039062 C 241.005859 1078.012695 242.988281 1080.986328 244.970703 1083.959961 C 246.953125 1085.942383 250.068359 1089.057617 252.050781 1091.040039 C 254.033203 1093.022461 257.006836 1095.996094 258.989258 1097.978516 C 261.962891 1099.960937 263.945312 1101.943359 267.060547 1104.067383 C 270.03418 1106.049805 273.007812 1107.041016 275.981445 1109.023437 C 278.955078 1110.014648 282.070312 1111.99707 285.043945 1112.988281 C 288.017578 1113.979492 291.982422 1114.970703 294.956055 1115.961914 C 297.929687 1116.953125 302.036133 1117.944336 305.009766 1118.935547 C 307.983398 1118.935547 311.948242 1120.068359 315.063477 1120.068359 C 319.02832 1120.068359 322.001953 1121.05957 325.966797 1121.05957 C 329.931641 1121.05957 334.038086 1121.05957 338.00293 1121.05957 C 340.976562 1120.068359 343.950195 1120.068359 348.056641 1118.935547 C 351.030273 1117.944336 354.003906 1116.953125 357.96875 1115.961914 C 360.942383 1114.970703 364.057617 1113.979492 367.03125 1112.988281 C 370.004883 1111.99707 372.978516 1110.014648 376.943359 1109.023437 C 379.067383 1107.041016 382.041016 1106.049805 385.014648 1104.067383 C 387.988281 1101.943359 390.961914 1099.960937 393.935547 1097.978516 C 396.05957 1095.996094 399.033203 1093.022461 402.006836 1091.040039 C 403.989258 1089.057617 405.97168 1085.942383 407.954102 1083.959961 C 409.936523 1080.986328 412.060547 1079.003906 414.042969 1076.030273 C 416.025391 1073.056641 418.007812 1070.932617 419.990234 1067.958984 C 420.981445 1064.985352 421.972656 1062.011719 423.955078 1059.038086 C 424.946289 1056.064453 425.9375 1052.949219 427.070312 1049.975586 C 428.061523 1046.010742 429.052734 1043.037109 430.043945 1038.930664 C 430.043945 1035.957031 430.043945 1031.992187 431.035156 1029.018555 C 431.035156 1026.044922 431.035156 1021.938477 432.026367 1018.964844 C 431.035156 1015.991211 431.035156 1012.026367 431.035156 1009.052734 C 431.035156 1004.946289 431.035156 1001.972656 431.035156 998.007812 C 430.043945 995.03418 429.052734 992.060547 428.061523 988.945312 C 425.9375 985.97168 424.946289 982.998047 423.955078 980.024414 C 421.972656 977.050781 420.981445 972.944336 419.990234 969.970703 C 418.007812 967.988281 416.025391 966.005859 414.042969 963.032227 C 412.060547 960.058594 409.936523 956.943359 407.954102 953.969727 C 405.97168 951.987305 403.989258 950.004883 402.006836 947.03125 C 399.033203 945.048828 396.05957 943.066406 393.935547 939.951172 C 390.961914 937.96875 387.988281 935.986328 386.005859 934.003906 C 383.032227 933.012695 380.058594 931.030273 377.93457 929.047852 C 373.969727 928.056641 370.996094 927.06543 368.022461 924.941406 C 364.057617 923.950195 360.942383 922.958984 357.96875 921.967773 C 354.003906 920.976562 351.030273 919.985352 348.056641 918.994141 C 343.950195 918.994141 340.976562 918.00293 338.00293 917.011719 C 334.038086 917.011719 329.931641 917.011719 326.958008 917.011719 C 322.993164 917.011719 320.019531 917.011719 316.054687 917.011719 C 312.939453 918.00293 308.974609 918.994141 306.000977 918.994141 C 303.027344 919.985352 299.0625 920.976562 295.947266 921.967773 C 291.982422 922.958984 289.008789 923.950195 285.043945 924.941406 C 282.070312 927.06543 278.955078 928.056641 275.981445 929.047852 C 273.007812 931.030273 270.03418 933.012695 267.060547 934.003906 C 264.936523 935.986328 261.962891 937.96875 259.980469 939.951172 C 257.006836 943.066406 255.024414 945.048828 252.050781 947.03125 C 250.068359 950.004883 246.953125 951.987305 244.970703 953.969727 C 242.988281 956.943359 241.005859 960.058594 239.023437 962.041016 C 237.041016 965.014648 236.049805 966.99707 234.067383 969.970703 C 231.943359 972.944336 230.952148 976.05957 228.969727 979.033203 C 227.978516 982.006836 226.987305 984.980469 225.996094 987.954102 C 225.004883 991.069336 224.013672 995.03418 223.022461 998.007812 C 222.03125 1001.972656 222.03125 1004.946289 221.040039 1009.052734 C 221.040039 1012.026367 221.040039 1015.991211 221.040039 1018.964844 C 221.040039 1021.938477 221.040039 1026.044922 221.040039 1029.018555 Z M 221.040039 1029.018555 " transform="matrix(0.0275862, 0, 0, 0.0275862, 0, 0)"/>
<path fill-rule="nonzero" fill="rgb(0%, 0%, 100%)" fill-opacity="1" d="M 8.191406 8.632812 C 8.191406 8.496094 8.191406 8.359375 8.191406 8.21875 C 8.21875 8.082031 8.21875 7.945312 8.25 7.808594 C 8.277344 7.667969 8.277344 7.53125 8.304688 7.421875 C 8.332031 7.28125 8.332031 7.144531 8.359375 7.007812 C 8.386719 6.867188 8.441406 6.730469 8.46875 6.59375 C 8.496094 6.457031 8.550781 6.34375 8.578125 6.234375 C 8.605469 6.097656 8.660156 5.957031 8.691406 5.847656 C 8.746094 5.710938 8.800781 5.574219 8.855469 5.460938 C 8.910156 5.351562 8.9375 5.242188 8.992188 5.132812 C 9.046875 5.019531 9.101562 4.882812 9.1875 4.773438 C 9.242188 4.660156 9.324219 4.550781 9.40625 4.441406 C 9.460938 4.332031 9.542969 4.21875 9.628906 4.109375 C 9.683594 4 9.765625 3.917969 9.847656 3.808594 C 9.929688 3.695312 10.015625 3.613281 10.097656 3.503906 C 10.179688 3.394531 10.261719 3.308594 10.34375 3.199219 C 10.425781 3.089844 10.511719 3.007812 10.621094 2.898438 C 10.703125 2.8125 10.8125 2.730469 10.925781 2.648438 C 11.007812 2.566406 11.117188 2.457031 11.226562 2.371094 C 11.308594 2.289062 11.421875 2.234375 11.53125 2.152344 C 11.640625 2.070312 11.75 2.015625 11.863281 1.929688 C 11.972656 1.875 12.082031 1.792969 12.191406 1.738281 C 12.304688 1.683594 12.414062 1.601562 12.550781 1.542969 C 12.660156 1.488281 12.773438 1.40625 12.882812 1.351562 C 12.992188 1.296875 13.132812 1.242188 13.269531 1.1875 C 13.378906 1.132812 13.515625 1.101562 13.65625 1.046875 C 13.765625 0.992188 13.875 0.964844 14.015625 0.910156 C 14.152344 0.882812 14.289062 0.828125 14.425781 0.800781 C 14.539062 0.773438 14.675781 0.746094 14.8125 0.71875 C 14.953125 0.691406 15.089844 0.660156 15.226562 0.632812 C 15.367188 0.632812 15.503906 0.605469 15.640625 0.605469 C 15.78125 0.605469 15.917969 0.578125 16.054688 0.578125 C 16.191406 0.578125 16.332031 0.550781 16.46875 0.550781 C 16.605469 0.550781 16.746094 0.578125 16.882812 0.578125 C 17.046875 0.578125 17.1875 0.605469 17.324219 0.605469 C 17.460938 0.605469 17.601562 0.632812 17.710938 0.632812 C 17.875 0.660156 18.015625 0.691406 18.152344 0.71875 C 18.289062 0.746094 18.425781 0.773438 18.539062 0.800781 C 18.675781 0.828125 18.8125 0.882812 18.925781 0.910156 C 19.0625 0.964844 19.199219 0.992188 19.308594 1.046875 C 19.449219 1.101562 19.585938 1.132812 19.695312 1.1875 C 19.835938 1.242188 19.945312 1.269531 20.054688 1.324219 C 20.191406 1.378906 20.304688 1.460938 20.414062 1.515625 C 20.523438 1.574219 20.632812 1.65625 20.746094 1.710938 C 20.882812 1.765625 20.992188 1.847656 21.101562 1.902344 C 21.214844 1.984375 21.324219 2.042969 21.40625 2.125 C 21.515625 2.207031 21.628906 2.289062 21.738281 2.371094 C 21.847656 2.457031 21.957031 2.539062 22.042969 2.621094 C 22.152344 2.703125 22.261719 2.785156 22.34375 2.867188 C 22.457031 2.980469 22.539062 3.0625 22.621094 3.171875 C 22.703125 3.253906 22.785156 3.367188 22.867188 3.449219 C 22.953125 3.558594 23.035156 3.640625 23.117188 3.75 C 23.199219 3.863281 23.253906 3.972656 23.339844 4.082031 C 23.421875 4.191406 23.476562 4.304688 23.558594 4.414062 C 23.640625 4.523438 23.695312 4.632812 23.78125 4.746094 C 23.835938 4.855469 23.917969 4.992188 23.972656 5.101562 C 24.027344 5.214844 24.082031 5.351562 24.136719 5.460938 C 24.191406 5.574219 24.21875 5.683594 24.277344 5.792969 C 24.332031 5.902344 24.359375 6.042969 24.414062 6.179688 C 24.441406 6.289062 24.496094 6.425781 24.523438 6.566406 C 24.550781 6.675781 24.605469 6.8125 24.632812 6.953125 C 24.660156 7.089844 24.660156 7.226562 24.691406 7.367188 C 24.71875 7.476562 24.71875 7.613281 24.746094 7.75 C 24.773438 7.890625 24.773438 8.027344 24.800781 8.191406 C 24.800781 8.304688 24.800781 8.441406 24.800781 8.578125 C 24.800781 8.71875 24.800781 8.855469 24.800781 9.019531 C 24.773438 9.132812 24.773438 9.269531 24.746094 9.40625 C 24.71875 9.542969 24.71875 9.683594 24.691406 9.820312 C 24.660156 9.957031 24.660156 10.097656 24.632812 10.234375 C 24.605469 10.34375 24.550781 10.484375 24.523438 10.621094 C 24.496094 10.730469 24.441406 10.839844 24.414062 10.980469 C 24.386719 11.089844 24.332031 11.226562 24.304688 11.367188 C 24.25 11.476562 24.191406 11.613281 24.136719 11.75 C 24.082031 11.863281 24.027344 11.972656 23.972656 12.109375 C 23.917969 12.21875 23.863281 12.332031 23.808594 12.441406 C 23.722656 12.550781 23.667969 12.660156 23.585938 12.773438 C 23.503906 12.882812 23.449219 12.992188 23.367188 13.101562 C 23.28125 13.214844 23.226562 13.324219 23.144531 13.433594 C 23.0625 13.515625 22.980469 13.628906 22.898438 13.738281 C 22.8125 13.820312 22.730469 13.929688 22.648438 14.042969 C 22.566406 14.125 22.484375 14.207031 22.371094 14.316406 C 22.289062 14.398438 22.179688 14.484375 22.070312 14.566406 C 21.984375 14.648438 21.875 14.730469 21.765625 14.839844 C 21.683594 14.898438 21.574219 14.980469 21.460938 15.0625 C 21.351562 15.117188 21.242188 15.199219 21.132812 15.28125 C 21.019531 15.339844 20.910156 15.421875 20.800781 15.503906 C 20.691406 15.558594 20.578125 15.613281 20.441406 15.695312 C 20.332031 15.75 20.21875 15.808594 20.109375 15.863281 C 20 15.917969 19.863281 15.972656 19.722656 16.027344 C 19.613281 16.054688 19.476562 16.109375 19.339844 16.164062 C 19.226562 16.21875 19.117188 16.25 18.980469 16.277344 C 18.839844 16.332031 18.703125 16.359375 18.566406 16.386719 C 18.457031 16.441406 18.316406 16.46875 18.179688 16.496094 C 18.042969 16.523438 17.902344 16.550781 17.765625 16.550781 C 17.628906 16.578125 17.488281 16.605469 17.351562 16.605469 C 17.214844 16.632812 17.074219 16.632812 16.910156 16.632812 C 16.800781 16.660156 16.660156 16.660156 16.523438 16.660156 C 16.386719 16.660156 16.21875 16.660156 16.054688 16.660156 C 15.945312 16.660156 15.808594 16.632812 15.695312 16.605469 C 15.558594 16.605469 15.421875 16.578125 15.28125 16.550781 C 15.144531 16.550781 15.007812 16.523438 14.867188 16.496094 C 14.730469 16.46875 14.59375 16.441406 14.484375 16.386719 C 14.34375 16.359375 14.207031 16.332031 14.070312 16.304688 C 13.929688 16.277344 13.792969 16.21875 13.683594 16.164062 C 13.542969 16.136719 13.433594 16.082031 13.324219 16.027344 C 13.1875 16 13.046875 15.945312 12.9375 15.890625 C 12.800781 15.808594 12.691406 15.75 12.578125 15.695312 C 12.441406 15.640625 12.332031 15.585938 12.21875 15.53125 C 12.109375 15.449219 12 15.367188 11.890625 15.308594 C 11.78125 15.226562 11.667969 15.144531 11.585938 15.089844 C 11.476562 15.007812 11.367188 14.925781 11.253906 14.867188 C 11.144531 14.757812 11.035156 14.675781 10.953125 14.59375 C 10.839844 14.511719 10.730469 14.425781 10.648438 14.34375 C 10.566406 14.234375 10.484375 14.152344 10.398438 14.070312 C 10.289062 13.957031 10.207031 13.847656 10.125 13.765625 C 10.042969 13.65625 9.957031 13.542969 9.875 13.460938 C 9.792969 13.351562 9.710938 13.242188 9.628906 13.132812 C 9.542969 13.019531 9.488281 12.910156 9.433594 12.828125 C 9.351562 12.691406 9.269531 12.578125 9.214844 12.46875 C 9.132812 12.359375 9.074219 12.25 9.019531 12.136719 C 8.964844 12 8.910156 11.890625 8.855469 11.78125 C 8.800781 11.640625 8.773438 11.53125 8.71875 11.421875 C 8.660156 11.28125 8.632812 11.144531 8.578125 11.035156 C 8.550781 10.898438 8.496094 10.785156 8.46875 10.675781 C 8.441406 10.539062 8.386719 10.398438 8.359375 10.261719 C 8.332031 10.125 8.332031 9.984375 8.304688 9.847656 C 8.277344 9.710938 8.277344 9.574219 8.25 9.460938 C 8.21875 9.324219 8.21875 9.1875 8.191406 9.046875 C 8.191406 8.910156 8.191406 8.773438 8.191406 8.632812 Z M 9.792969 8.910156 C 9.792969 9.019531 9.792969 9.132812 9.820312 9.242188 C 9.820312 9.351562 9.847656 9.460938 9.875 9.574219 C 9.875 9.65625 9.902344 9.765625 9.929688 9.875 C 9.929688 9.957031 9.957031 10.070312 9.984375 10.179688 C 10.015625 10.289062 10.042969 10.398438 10.097656 10.511719 C 10.125 10.59375 10.152344 10.703125 10.179688 10.8125 C 10.207031 10.898438 10.234375 11.007812 10.289062 11.117188 C 10.34375 11.199219 10.398438 11.28125 10.457031 11.394531 C 10.484375 11.476562 10.539062 11.558594 10.59375 11.667969 C 10.648438 11.75 10.703125 11.835938 10.757812 11.945312 C 10.8125 12.027344 10.867188 12.109375 10.925781 12.191406 C 10.980469 12.277344 11.035156 12.359375 11.089844 12.441406 C 11.144531 12.523438 11.226562 12.605469 11.308594 12.691406 C 11.367188 12.773438 11.449219 12.855469 11.53125 12.9375 C 11.585938 12.992188 11.640625 13.074219 11.722656 13.160156 C 11.808594 13.214844 11.890625 13.296875 11.972656 13.378906 C 12.054688 13.433594 12.136719 13.515625 12.21875 13.601562 C 12.304688 13.65625 12.386719 13.710938 12.46875 13.765625 C 12.550781 13.820312 12.632812 13.875 12.71875 13.957031 C 12.800781 14.015625 12.910156 14.070312 13.019531 14.125 C 13.101562 14.152344 13.1875 14.207031 13.296875 14.261719 C 13.378906 14.316406 13.460938 14.371094 13.574219 14.425781 C 13.65625 14.457031 13.738281 14.511719 13.847656 14.566406 C 13.929688 14.59375 14.042969 14.621094 14.152344 14.675781 C 14.261719 14.703125 14.371094 14.730469 14.484375 14.785156 C 14.59375 14.8125 14.703125 14.839844 14.8125 14.867188 C 14.898438 14.867188 15.007812 14.898438 15.117188 14.925781 C 15.226562 14.953125 15.339844 14.980469 15.449219 15.007812 C 15.558594 15.007812 15.667969 15.035156 15.78125 15.0625 C 15.890625 15.0625 16 15.0625 16.109375 15.0625 C 16.25 15.0625 16.359375 15.0625 16.46875 15.0625 C 16.605469 15.0625 16.71875 15.0625 16.828125 15.0625 C 16.9375 15.0625 17.046875 15.0625 17.160156 15.0625 C 17.269531 15.035156 17.378906 15.007812 17.488281 15.007812 C 17.601562 14.980469 17.710938 14.953125 17.820312 14.953125 C 17.929688 14.925781 18.042969 14.898438 18.152344 14.898438 C 18.261719 14.839844 18.371094 14.8125 18.484375 14.785156 C 18.59375 14.757812 18.703125 14.730469 18.785156 14.703125 C 18.898438 14.648438 19.007812 14.59375 19.089844 14.566406 C 19.199219 14.511719 19.308594 14.457031 19.394531 14.425781 C 19.503906 14.371094 19.585938 14.316406 19.667969 14.289062 C 19.78125 14.234375 19.863281 14.179688 19.945312 14.152344 C 20.054688 14.070312 20.164062 14.015625 20.25 13.957031 C 20.332031 13.902344 20.414062 13.847656 20.496094 13.792969 C 20.578125 13.710938 20.660156 13.65625 20.746094 13.601562 C 20.828125 13.515625 20.910156 13.460938 20.992188 13.40625 C 21.074219 13.324219 21.160156 13.242188 21.242188 13.1875 C 21.324219 13.101562 21.378906 13.019531 21.433594 12.964844 C 21.515625 12.882812 21.601562 12.800781 21.65625 12.746094 C 21.738281 12.632812 21.820312 12.550781 21.875 12.46875 C 21.929688 12.386719 21.984375 12.304688 22.042969 12.21875 C 22.097656 12.136719 22.152344 12.054688 22.207031 11.972656 C 22.261719 11.863281 22.316406 11.78125 22.371094 11.695312 C 22.425781 11.585938 22.484375 11.503906 22.539062 11.421875 C 22.59375 11.308594 22.648438 11.226562 22.675781 11.144531 C 22.730469 11.035156 22.757812 10.925781 22.785156 10.839844 C 22.839844 10.730469 22.867188 10.621094 22.898438 10.539062 C 22.925781 10.425781 22.953125 10.316406 22.980469 10.234375 C 23.007812 10.125 23.035156 10.015625 23.0625 9.929688 C 23.089844 9.820312 23.089844 9.710938 23.117188 9.601562 C 23.144531 9.488281 23.144531 9.378906 23.171875 9.296875 C 23.171875 9.1875 23.171875 9.074219 23.171875 8.964844 C 23.171875 8.855469 23.199219 8.746094 23.199219 8.632812 C 23.199219 8.523438 23.171875 8.414062 23.171875 8.304688 C 23.171875 8.191406 23.171875 8.082031 23.171875 7.972656 C 23.171875 7.863281 23.144531 7.75 23.144531 7.640625 C 23.117188 7.53125 23.089844 7.421875 23.0625 7.339844 C 23.035156 7.226562 23.035156 7.117188 23.007812 7.035156 C 22.980469 6.925781 22.953125 6.8125 22.898438 6.730469 C 22.867188 6.621094 22.839844 6.511719 22.8125 6.425781 C 22.785156 6.316406 22.730469 6.207031 22.675781 6.125 C 22.648438 6.015625 22.59375 5.902344 22.539062 5.820312 C 22.511719 5.738281 22.457031 5.65625 22.398438 5.574219 C 22.34375 5.460938 22.289062 5.378906 22.234375 5.296875 C 22.179688 5.214844 22.125 5.101562 22.070312 5.019531 C 22.015625 4.9375 21.957031 4.855469 21.875 4.773438 C 21.820312 4.691406 21.765625 4.605469 21.710938 4.523438 C 21.628906 4.441406 21.542969 4.386719 21.460938 4.304688 C 21.40625 4.21875 21.324219 4.136719 21.242188 4.054688 C 21.1875 3.972656 21.101562 3.917969 21.019531 3.835938 C 20.9375 3.78125 20.855469 3.695312 20.773438 3.640625 C 20.691406 3.585938 20.605469 3.503906 20.523438 3.449219 C 20.441406 3.394531 20.359375 3.308594 20.277344 3.253906 C 20.191406 3.199219 20.082031 3.144531 19.972656 3.089844 C 19.890625 3.035156 19.808594 3.007812 19.722656 2.953125 C 19.640625 2.898438 19.53125 2.839844 19.421875 2.785156 C 19.339844 2.757812 19.253906 2.703125 19.144531 2.675781 C 19.035156 2.621094 18.925781 2.59375 18.8125 2.539062 C 18.703125 2.511719 18.59375 2.457031 18.484375 2.425781 C 18.398438 2.398438 18.289062 2.398438 18.179688 2.371094 C 18.070312 2.34375 17.957031 2.316406 17.847656 2.289062 C 17.738281 2.261719 17.628906 2.234375 17.515625 2.207031 C 17.40625 2.207031 17.296875 2.179688 17.1875 2.179688 C 17.074219 2.179688 16.964844 2.152344 16.855469 2.152344 C 16.746094 2.152344 16.632812 2.152344 16.523438 2.152344 C 16.414062 2.152344 16.304688 2.152344 16.164062 2.152344 C 16.054688 2.152344 15.945312 2.179688 15.835938 2.179688 C 15.722656 2.179688 15.613281 2.207031 15.503906 2.207031 C 15.394531 2.234375 15.28125 2.234375 15.171875 2.261719 C 15.0625 2.289062 14.953125 2.316406 14.839844 2.34375 C 14.730469 2.371094 14.621094 2.398438 14.511719 2.425781 C 14.398438 2.457031 14.289062 2.511719 14.207031 2.539062 C 14.097656 2.566406 13.984375 2.621094 13.902344 2.648438 C 13.792969 2.703125 13.683594 2.730469 13.601562 2.785156 C 13.488281 2.839844 13.40625 2.867188 13.324219 2.925781 C 13.214844 2.980469 13.101562 3.007812 13.019531 3.0625 C 12.910156 3.117188 12.828125 3.199219 12.746094 3.253906 C 12.660156 3.308594 12.578125 3.367188 12.496094 3.421875 C 12.386719 3.476562 12.304688 3.558594 12.21875 3.613281 C 12.136719 3.695312 12.054688 3.75 12 3.835938 C 11.917969 3.890625 11.835938 3.972656 11.75 4.027344 C 11.667969 4.109375 11.613281 4.191406 11.558594 4.277344 C 11.476562 4.359375 11.394531 4.414062 11.339844 4.496094 C 11.253906 4.578125 11.171875 4.660156 11.117188 4.746094 C 11.035156 4.828125 10.980469 4.910156 10.925781 4.992188 C 10.867188 5.074219 10.8125 5.1875 10.757812 5.269531 C 10.703125 5.351562 10.648438 5.433594 10.59375 5.515625 C 10.539062 5.601562 10.484375 5.683594 10.457031 5.792969 C 10.398438 5.875 10.34375 5.984375 10.316406 6.097656 C 10.261719 6.179688 10.234375 6.261719 10.207031 6.371094 C 10.152344 6.457031 10.125 6.566406 10.097656 6.675781 C 10.070312 6.757812 10.042969 6.867188 10.015625 6.980469 C 9.984375 7.0625 9.957031 7.171875 9.929688 7.28125 C 9.902344 7.394531 9.875 7.503906 9.875 7.613281 C 9.847656 7.695312 9.820312 7.808594 9.820312 7.917969 C 9.792969 8.027344 9.792969 8.136719 9.792969 8.25 C 9.792969 8.359375 9.792969 8.46875 9.792969 8.578125 C 9.792969 8.691406 9.792969 8.800781 9.792969 8.910156 Z M 9.792969 8.910156 "/>
<path fill="none" stroke-width="1" stroke-linecap="butt" stroke-linejoin="miter" stroke="rgb(0%, 0%, 100%)" stroke-opacity="1" stroke-miterlimit="4" d="M 296.938477 312.939453 C 296.938477 307.983398 296.938477 303.027344 296.938477 297.929687 C 297.929687 292.973633 297.929687 288.017578 299.0625 283.061523 C 300.053711 277.963867 300.053711 273.007812 301.044922 269.042969 C 302.036133 263.945312 302.036133 258.989258 303.027344 254.033203 C 304.018555 248.935547 306.000977 243.979492 306.992187 239.023437 C 307.983398 234.067383 309.96582 229.960937 310.957031 225.996094 C 311.948242 221.040039 313.930664 215.942383 315.063477 211.977539 C 317.045898 207.021484 319.02832 202.06543 321.010742 197.958984 C 322.993164 193.994141 323.984375 190.029297 325.966797 186.064453 C 327.949219 181.958008 329.931641 177.001953 333.046875 173.037109 C 335.029297 168.930664 338.00293 164.96582 340.976562 161.000977 C 342.958984 157.036133 345.932617 152.929687 349.047852 148.964844 C 351.030273 145 354.003906 142.026367 356.977539 138.061523 C 359.951172 133.955078 363.066406 130.981445 366.040039 127.016602 C 369.013672 123.051758 371.987305 119.936523 374.960937 115.97168 C 377.93457 112.006836 381.049805 109.033203 385.014648 105.068359 C 387.988281 101.953125 391.953125 98.979492 396.05957 96.005859 C 399.033203 93.032227 402.998047 89.067383 406.962891 85.952148 C 409.936523 82.978516 414.042969 80.996094 418.007812 78.022461 C 421.972656 75.048828 425.9375 73.066406 430.043945 69.951172 C 434.008789 67.96875 437.973633 64.995117 441.938477 63.012695 C 446.044922 61.030273 450.009766 58.056641 454.96582 55.932617 C 458.930664 53.950195 463.037109 50.976562 467.001953 48.994141 C 470.966797 47.011719 476.064453 45.029297 481.020508 43.046875 C 484.985352 41.064453 489.941406 39.931641 495.039062 37.949219 C 499.003906 35.966797 502.96875 34.975586 508.066406 32.993164 C 513.022461 32.001953 517.978516 30.019531 522.93457 29.02832 C 527.041016 28.037109 531.99707 27.045898 536.953125 26.054687 C 542.050781 25.063477 547.006836 23.930664 551.962891 22.939453 C 557.060547 22.939453 562.016602 21.948242 566.972656 21.948242 C 572.070312 21.948242 577.026367 20.957031 581.982422 20.957031 C 586.938477 20.957031 592.036133 19.96582 596.992187 19.96582 C 601.948242 19.96582 607.045898 20.957031 612.001953 20.957031 C 617.949219 20.957031 623.046875 21.948242 628.00293 21.948242 C 632.958984 21.948242 638.056641 22.939453 642.021484 22.939453 C 647.96875 23.930664 653.066406 25.063477 658.022461 26.054687 C 662.978516 27.045898 667.93457 28.037109 672.041016 29.02832 C 676.99707 30.019531 681.953125 32.001953 686.05957 32.993164 C 691.015625 34.975586 695.97168 35.966797 699.936523 37.949219 C 705.03418 39.931641 709.990234 41.064453 713.955078 43.046875 C 719.052734 45.029297 723.017578 46.020508 726.982422 48.00293 C 731.938477 49.985352 736.044922 52.958984 740.009766 54.941406 C 743.974609 57.06543 747.939453 60.039062 752.045898 62.021484 C 757.001953 64.003906 760.966797 66.977539 764.931641 68.959961 C 769.038086 71.933594 773.00293 74.057617 775.976562 77.03125 C 779.941406 80.004883 784.047852 82.978516 788.012695 85.952148 C 791.977539 89.067383 795.942383 92.041016 799.057617 95.014648 C 803.022461 97.988281 806.987305 100.961914 809.960937 103.935547 C 814.067383 108.041992 817.041016 111.015625 820.014648 114.980469 C 822.988281 117.954102 825.961914 122.060547 828.935547 125.03418 C 832.050781 128.999023 835.024414 131.972656 837.998047 135.9375 C 840.97168 140.043945 842.954102 144.008789 846.069336 147.973633 C 849.042969 151.938477 851.025391 156.044922 853.999023 160.009766 C 856.972656 163.974609 858.955078 167.939453 862.070312 172.045898 C 864.052734 176.010742 867.026367 180.966797 869.008789 184.931641 C 870.991211 189.038086 872.973633 193.994141 874.956055 197.958984 C 876.938477 202.06543 877.929687 206.030273 880.053711 209.995117 C 882.036133 213.959961 883.027344 219.057617 885.009766 224.013672 C 886.000977 227.978516 887.983398 232.93457 888.974609 238.032227 C 889.96582 241.99707 891.948242 246.953125 892.939453 252.050781 C 893.930664 257.006836 893.930664 261.962891 895.063477 267.060547 C 896.054687 271.025391 896.054687 275.981445 897.045898 280.9375 C 898.037109 286.035156 898.037109 290.991211 899.02832 296.938477 C 899.02832 301.044922 899.02832 306.000977 899.02832 310.957031 C 899.02832 316.054687 899.02832 321.010742 899.02832 326.958008 C 898.037109 331.064453 898.037109 336.020508 897.045898 340.976562 C 896.054687 345.932617 896.054687 351.030273 895.063477 355.986328 C 893.930664 360.942383 893.930664 366.040039 892.939453 370.996094 C 891.948242 374.960937 889.96582 380.058594 888.974609 385.014648 C 887.983398 388.979492 886.000977 392.944336 885.009766 398.041992 C 884.018555 402.006836 882.036133 406.962891 881.044922 412.060547 C 879.0625 416.025391 876.938477 420.981445 874.956055 425.9375 C 872.973633 430.043945 870.991211 434.008789 869.008789 438.964844 C 867.026367 442.929687 865.043945 447.036133 863.061523 451.000977 C 859.946289 454.96582 857.963867 458.930664 854.990234 463.037109 C 852.016602 467.001953 850.03418 470.966797 847.060547 474.931641 C 843.945312 479.038086 841.962891 483.00293 838.989258 486.967773 C 836.015625 489.941406 833.041992 494.047852 830.068359 498.012695 C 826.953125 500.986328 823.979492 504.951172 821.005859 509.057617 C 818.032227 512.03125 815.058594 515.004883 810.952148 518.969727 C 807.978516 521.943359 804.013672 525.058594 800.048828 528.032227 C 796.933594 531.005859 792.96875 533.979492 789.003906 537.944336 C 786.030273 540.068359 782.06543 543.041992 777.958984 546.015625 C 773.994141 547.998047 770.029297 550.97168 766.064453 553.945312 C 761.958008 556.069336 757.993164 559.042969 754.02832 562.016602 C 750.063477 563.999023 745.957031 565.981445 741.000977 568.955078 C 737.036133 570.9375 732.929687 573.061523 728.964844 575.043945 C 725 577.026367 720.043945 579.008789 714.946289 580.991211 C 710.981445 581.982422 706.025391 583.964844 701.069336 585.947266 C 696.962891 587.929687 692.998047 589.0625 688.041992 590.053711 C 682.944336 592.036133 677.988281 593.027344 673.032227 594.018555 C 669.067383 596.000977 663.969727 596.992187 659.013672 597.983398 C 654.057617 598.974609 648.959961 599.96582 644.003906 599.96582 C 639.047852 600.957031 633.950195 601.948242 628.994141 601.948242 C 624.038086 602.939453 618.94043 602.939453 612.993164 602.939453 C 609.02832 603.930664 603.930664 603.930664 598.974609 603.930664 C 594.018555 603.930664 587.929687 603.930664 581.982422 603.930664 C 578.017578 603.930664 573.061523 602.939453 568.955078 601.948242 C 563.999023 601.948242 559.042969 600.957031 553.945312 599.96582 C 548.989258 599.96582 544.033203 598.974609 538.935547 597.983398 C 533.979492 596.992187 529.023437 596.000977 525.058594 594.018555 C 519.960937 593.027344 515.004883 592.036133 510.048828 591.044922 C 504.951172 590.053711 499.995117 587.929687 496.030273 585.947266 C 490.932617 584.956055 486.967773 582.973633 483.00293 580.991211 C 478.046875 580 472.949219 578.017578 468.984375 576.035156 C 464.02832 573.061523 460.063477 570.9375 455.957031 568.955078 C 451.000977 566.972656 447.036133 564.990234 442.929687 563.007812 C 438.964844 560.03418 435 557.060547 431.035156 554.936523 C 427.070312 551.962891 422.963867 548.989258 419.990234 547.006836 C 416.025391 544.033203 412.060547 541.05957 407.954102 538.935547 C 403.989258 534.970703 400.024414 531.99707 397.050781 529.023437 C 392.944336 526.049805 388.979492 522.93457 386.005859 519.960937 C 383.032227 515.996094 380.058594 513.022461 376.943359 510.048828 C 372.978516 505.942383 370.004883 501.977539 367.03125 499.003906 C 364.057617 495.039062 360.942383 490.932617 357.96875 487.958984 C 354.995117 483.994141 352.021484 480.029297 349.047852 476.064453 C 345.932617 471.958008 343.950195 467.993164 341.967773 465.019531 C 338.994141 460.063477 336.020508 455.957031 334.038086 451.992187 C 331.064453 448.027344 328.94043 444.0625 326.958008 439.956055 C 324.975586 435 322.993164 431.035156 321.010742 427.070312 C 319.02832 421.972656 318.037109 418.007812 316.054687 414.042969 C 313.930664 408.945312 312.939453 403.989258 310.957031 400.024414 C 309.96582 395.068359 307.983398 390.961914 306.992187 386.99707 C 306.000977 382.041016 304.018555 376.943359 303.027344 371.987305 C 302.036133 367.03125 302.036133 361.933594 301.044922 356.977539 C 300.053711 352.021484 300.053711 347.06543 299.0625 342.958984 C 297.929687 338.00293 297.929687 333.046875 296.938477 327.949219 C 296.938477 322.993164 296.938477 318.037109 296.938477 312.939453 Z M 296.938477 312.939453 " transform="matrix(0.0275862, 0, 0, 0.0275862, 0, 0)"/>
<path fill="none" stroke-width="1" stroke-linecap="butt" stroke-linejoin="miter" stroke="rgb(0%, 0%, 100%)" stroke-opacity="1" stroke-miterlimit="4" d="M 354.995117 322.993164 C 354.995117 326.958008 354.995117 331.064453 355.986328 335.029297 C 355.986328 338.994141 356.977539 342.958984 357.96875 347.06543 C 357.96875 350.039062 358.959961 354.003906 359.951172 357.96875 C 359.951172 360.942383 360.942383 365.048828 361.933594 369.013672 C 363.066406 372.978516 364.057617 376.943359 366.040039 381.049805 C 367.03125 384.023437 368.022461 387.988281 369.013672 391.953125 C 370.004883 395.068359 370.996094 399.033203 372.978516 402.998047 C 374.960937 405.97168 376.943359 408.945312 379.067383 413.051758 C 380.058594 416.025391 382.041016 418.999023 384.023437 422.963867 C 386.005859 425.9375 387.988281 429.052734 389.970703 433.017578 C 391.953125 435.991211 393.935547 438.964844 396.05957 441.938477 C 398.041992 445.053711 400.024414 448.027344 402.006836 451.000977 C 403.989258 453.974609 406.962891 456.948242 409.936523 460.063477 C 412.060547 463.037109 415.03418 466.010742 418.007812 468.984375 C 419.990234 470.966797 421.972656 473.94043 424.946289 477.055664 C 428.061523 479.038086 431.035156 482.011719 434.008789 484.985352 C 436.982422 486.967773 439.956055 489.941406 442.929687 493.056641 C 446.044922 495.039062 449.018555 497.021484 451.992187 499.003906 C 454.96582 500.986328 457.939453 502.96875 461.054687 505.942383 C 464.02832 508.066406 467.993164 510.048828 471.958008 512.03125 C 474.931641 513.022461 478.046875 515.004883 482.011719 516.987305 C 484.985352 518.969727 487.958984 520.952148 492.06543 522.93457 C 495.039062 524.067383 498.012695 526.049805 501.977539 528.032227 C 504.951172 529.023437 509.057617 530.014648 513.022461 531.99707 C 516.987305 532.988281 520.952148 533.979492 525.058594 535.961914 C 529.023437 536.953125 532.988281 537.944336 536.953125 538.935547 C 540.068359 538.935547 544.033203 540.068359 547.998047 541.05957 C 551.962891 542.050781 556.069336 543.041992 560.03418 544.033203 C 563.999023 544.033203 567.963867 545.024414 572.070312 546.015625 C 576.035156 546.015625 580 546.015625 583.964844 546.015625 C 589.0625 546.015625 593.027344 546.015625 596.992187 546.015625 C 601.948242 546.015625 606.054687 546.015625 610.019531 546.015625 C 613.984375 546.015625 617.949219 546.015625 622.055664 546.015625 C 626.020508 545.024414 629.985352 544.033203 633.950195 544.033203 C 638.056641 543.041992 642.021484 542.050781 645.986328 542.050781 C 649.951172 541.05957 654.057617 540.068359 658.022461 540.068359 C 661.987305 537.944336 665.952148 536.953125 670.058594 535.961914 C 674.023437 534.970703 677.988281 533.979492 680.961914 532.988281 C 685.068359 531.005859 689.033203 529.023437 692.006836 528.032227 C 695.97168 526.049805 699.936523 524.067383 703.051758 522.93457 C 707.016602 520.952148 709.990234 518.969727 712.963867 517.978516 C 717.070312 515.996094 720.043945 514.013672 723.017578 513.022461 C 726.982422 510.048828 730.947266 508.066406 734.0625 505.942383 C 737.036133 503.959961 740.009766 501.977539 742.983398 499.995117 C 745.957031 497.021484 748.930664 495.039062 752.045898 493.056641 C 755.019531 489.941406 757.993164 487.958984 760.966797 485.976562 C 763.94043 483.00293 767.055664 480.029297 770.029297 478.046875 C 773.00293 474.931641 774.985352 471.958008 776.967773 469.975586 C 779.941406 467.001953 783.056641 464.02832 785.039062 462.045898 C 788.012695 457.939453 790.986328 454.96582 792.96875 451.992187 C 794.951172 449.018555 796.933594 446.044922 799.057617 442.929687 C 801.040039 439.956055 803.022461 436.982422 805.004883 434.008789 C 806.987305 430.043945 808.969727 427.070312 810.952148 423.955078 C 812.93457 419.990234 815.058594 417.016602 817.041016 414.042969 C 819.023437 409.936523 821.005859 406.962891 821.99707 403.989258 C 823.979492 400.024414 824.970703 396.05957 825.961914 392.944336 C 827.944336 388.979492 828.935547 385.014648 830.068359 382.041016 C 831.05957 377.93457 832.050781 373.969727 833.041992 370.996094 C 834.033203 367.03125 835.024414 363.066406 836.015625 359.951172 C 837.006836 355.986328 837.006836 352.021484 837.998047 348.056641 C 838.989258 343.950195 838.989258 339.985352 839.980469 337.011719 C 839.980469 333.046875 839.980469 328.94043 839.980469 324.975586 C 839.980469 321.010742 840.97168 317.045898 840.97168 312.939453 C 840.97168 308.974609 839.980469 305.009766 839.980469 301.044922 C 839.980469 296.938477 839.980469 292.973633 839.980469 289.008789 C 839.980469 285.043945 838.989258 280.9375 838.989258 276.972656 C 837.998047 273.007812 837.006836 269.042969 836.015625 266.069336 C 835.024414 261.962891 835.024414 257.998047 834.033203 255.024414 C 833.041992 251.05957 832.050781 246.953125 830.068359 243.979492 C 828.935547 240.014648 827.944336 236.049805 826.953125 232.93457 C 825.961914 228.969727 823.979492 225.004883 821.99707 222.03125 C 821.005859 218.066406 819.023437 213.959961 817.041016 210.986328 C 816.049805 208.012695 814.067383 205.039062 811.943359 202.06543 C 809.960937 197.958984 807.978516 194.985352 805.996094 192.011719 C 804.013672 189.038086 802.03125 184.931641 800.048828 181.958008 C 798.066406 178.984375 795.942383 176.010742 792.96875 173.037109 C 790.986328 170.063477 789.003906 166.948242 787.021484 163.974609 C 784.047852 161.000977 780.932617 159.018555 777.958984 156.044922 C 775.976562 152.929687 773.00293 149.956055 770.029297 146.982422 C 768.046875 144.008789 764.931641 142.026367 761.958008 139.052734 C 758.984375 137.070312 756.010742 133.955078 753.037109 131.972656 C 750.063477 129.990234 746.948242 127.016602 743.974609 125.03418 C 741.000977 123.051758 738.027344 119.936523 735.053711 117.954102 C 731.938477 115.97168 727.973633 113.989258 724.008789 112.006836 C 721.035156 110.024414 718.061523 109.033203 714.946289 107.050781 C 711.972656 105.068359 708.007812 102.944336 704.042969 100.961914 C 701.069336 99.970703 697.954102 97.988281 693.989258 96.99707 C 690.024414 95.014648 686.05957 94.023437 681.953125 92.041016 C 677.988281 91.049805 674.023437 89.067383 670.058594 87.93457 C 666.943359 86.943359 662.978516 86.943359 659.013672 85.952148 C 655.048828 84.960937 650.942383 83.969727 646.977539 82.978516 C 643.012695 81.987305 639.047852 80.996094 634.941406 80.004883 C 630.976562 80.004883 627.011719 79.013672 623.046875 79.013672 C 618.94043 79.013672 614.975586 78.022461 611.010742 78.022461 C 607.045898 78.022461 602.939453 78.022461 598.974609 78.022461 C 595.009766 78.022461 591.044922 78.022461 585.947266 78.022461 C 581.982422 78.022461 578.017578 79.013672 574.052734 79.013672 C 569.946289 79.013672 565.981445 80.004883 562.016602 80.004883 C 558.051758 80.996094 553.945312 80.996094 549.980469 81.987305 C 546.015625 82.978516 542.050781 83.969727 537.944336 84.960937 C 533.979492 85.952148 530.014648 86.943359 526.049805 87.93457 C 521.943359 89.067383 517.978516 91.049805 515.004883 92.041016 C 511.040039 93.032227 506.933594 95.014648 503.959961 96.005859 C 499.995117 97.988281 496.030273 98.979492 493.056641 100.961914 C 488.950195 102.944336 485.976562 103.935547 483.00293 106.05957 C 479.038086 108.041992 474.931641 109.033203 471.958008 111.015625 C 467.993164 112.998047 465.019531 115.97168 462.045898 117.954102 C 458.930664 119.936523 455.957031 122.060547 452.983398 124.042969 C 449.018555 126.025391 446.044922 128.999023 442.929687 130.981445 C 439.956055 133.955078 436.982422 135.9375 435 139.052734 C 432.026367 141.035156 429.052734 144.008789 425.9375 145.991211 C 422.963867 148.964844 420.981445 151.938477 418.999023 155.053711 C 416.025391 158.027344 413.051758 160.009766 411.069336 162.983398 C 407.954102 165.957031 404.980469 168.930664 402.998047 172.045898 C 400.024414 175.019531 398.041992 177.993164 396.05957 180.966797 C 393.935547 183.94043 391.953125 188.046875 389.970703 191.020508 C 387.988281 193.994141 386.005859 196.967773 384.023437 199.941406 C 382.041016 203.056641 380.058594 206.030273 379.067383 209.995117 C 376.943359 212.96875 374.960937 216.933594 373.969727 221.040039 C 371.987305 224.013672 370.996094 226.987305 370.004883 230.952148 C 368.022461 234.067383 367.03125 238.032227 366.040039 241.99707 C 365.048828 244.970703 364.057617 248.935547 363.066406 253.041992 C 361.933594 256.015625 360.942383 259.980469 359.951172 263.945312 C 358.959961 268.051758 357.96875 272.016602 357.96875 275.981445 C 356.977539 278.955078 355.986328 283.061523 355.986328 287.026367 C 354.995117 290.991211 354.995117 294.956055 354.995117 299.0625 C 354.995117 303.027344 354.995117 306.992187 354.995117 310.957031 C 354.995117 315.063477 354.995117 319.02832 354.995117 322.993164 Z M 354.995117 322.993164 " transform="matrix(0.0275862, 0, 0, 0.0275862, 0, 0)"/>
<path fill-rule="nonzero" fill="rgb(0%, 0%, 100%)" fill-opacity="1" d="M 12.71875 9.160156 L 12.71875 8.46875 L 14.425781 8.46875 L 14.425781 10.070312 C 14.261719 10.234375 14.015625 10.371094 13.710938 10.511719 C 13.40625 10.621094 13.074219 10.675781 12.746094 10.675781 C 12.359375 10.675781 12 10.59375 11.695312 10.425781 C 11.394531 10.261719 11.144531 9.984375 11.007812 9.683594 C 10.839844 9.351562 10.757812 8.992188 10.757812 8.605469 C 10.757812 8.191406 10.867188 7.808594 11.035156 7.503906 C 11.199219 7.171875 11.449219 6.925781 11.78125 6.730469 C 12.027344 6.621094 12.332031 6.539062 12.71875 6.539062 C 13.1875 6.539062 13.574219 6.648438 13.847656 6.867188 C 14.125 7.0625 14.289062 7.367188 14.371094 7.722656 L 13.601562 7.863281 C 13.542969 7.667969 13.433594 7.53125 13.269531 7.394531 C 13.132812 7.28125 12.9375 7.226562 12.71875 7.226562 C 12.359375 7.226562 12.082031 7.339844 11.890625 7.558594 C 11.695312 7.808594 11.585938 8.136719 11.585938 8.578125 C 11.585938 9.046875 11.695312 9.40625 11.890625 9.628906 C 12.109375 9.875 12.359375 9.984375 12.71875 9.984375 C 12.882812 9.984375 13.046875 9.957031 13.214844 9.902344 C 13.378906 9.820312 13.515625 9.738281 13.628906 9.65625 L 13.628906 9.160156 Z M 12.71875 9.160156 "/>
<path fill-rule="nonzero" fill="rgb(0%, 0%, 100%)" fill-opacity="1" d="M 15.226562 10.621094 C 15.226562 9.296875 15.226562 7.945312 15.226562 6.621094 C 16.109375 6.621094 16.992188 6.621094 17.902344 6.621094 C 17.902344 6.839844 17.902344 7.0625 17.902344 7.28125 C 17.269531 7.28125 16.632812 7.28125 16 7.28125 C 16 7.613281 16 7.917969 16 8.25 C 16.550781 8.25 17.101562 8.25 17.628906 8.25 C 17.628906 8.46875 17.628906 8.691406 17.628906 8.910156 C 17.101562 8.910156 16.550781 8.910156 16 8.910156 C 16 9.488281 16 10.042969 16 10.621094 Z M 15.226562 10.621094 "/>
<path fill-rule="nonzero" fill="rgb(0%, 0%, 100%)" fill-opacity="1" d="M 18.398438 8.632812 C 18.398438 8.21875 18.457031 7.890625 18.566406 7.613281 C 18.648438 7.421875 18.785156 7.226562 18.925781 7.0625 C 19.089844 6.898438 19.253906 6.785156 19.449219 6.703125 C 19.667969 6.59375 19.972656 6.539062 20.277344 6.539062 C 20.855469 6.539062 21.324219 6.730469 21.65625 7.089844 C 22.015625 7.449219 22.179688 7.972656 22.179688 8.632812 C 22.179688 9.269531 22.015625 9.765625 21.65625 10.152344 C 21.324219 10.511719 20.855469 10.675781 20.277344 10.675781 C 19.695312 10.675781 19.253906 10.511719 18.898438 10.152344 C 18.566406 9.792969 18.398438 9.269531 18.398438 8.632812 Z M 19.199219 8.605469 C 19.199219 9.074219 19.308594 9.40625 19.503906 9.65625 C 19.722656 9.875 19.972656 9.984375 20.277344 9.984375 C 20.605469 9.984375 20.855469 9.875 21.046875 9.65625 C 21.269531 9.40625 21.351562 9.074219 21.351562 8.605469 C 21.351562 8.136719 21.269531 7.808594 21.074219 7.585938 C 20.882812 7.339844 20.605469 7.226562 20.277344 7.226562 C 19.972656 7.226562 19.695312 7.339844 19.503906 7.585938 C 19.308594 7.808594 19.199219 8.164062 19.199219 8.605469 Z M 19.199219 8.605469 "/>
</svg>
