<?xml version="1.0" encoding="UTF-8"?>
<svg xmlns="http://www.w3.org/2000/svg" xmlns:xlink="http://www.w3.org/1999/xlink" width="32" height="32" viewBox="0 0 32 32">
<path fill-rule="nonzero" fill="rgb(0%, 0%, 100%)" fill-opacity="1" stroke-width="1" stroke-linecap="butt" stroke-linejoin="miter" stroke="rgb(0%, 0%, 100%)" stroke-opacity="1" stroke-miterlimit="4" d="M 304.018555 849.042969 L 304.018555 834.033203 L 305.009766 821.005859 L 306.992187 806.987305 L 309.96582 792.96875 L 312.939453 780.932617 L 316.054687 767.055664 L 320.019531 754.02832 L 324.975586 741.992187 L 331.064453 729.956055 L 336.020508 718.061523 L 342.958984 706.025391 L 351.030273 694.980469 L 357.96875 685.068359 L 366.040039 674.023437 L 373.969727 664.960937 L 384.023437 655.048828 L 392.944336 645.986328 L 402.998047 637.06543 L 413.051758 629.985352 L 423.955078 622.055664 L 435 614.975586 L 447.036133 608.037109 L 457.939453 601.948242 L 469.975586 596.000977 L 483.00293 592.036133 L 495.039062 587.929687 L 508.066406 583.964844 L 521.943359 580 L 534.970703 578.017578 L 548.989258 576.035156 L 562.016602 575.043945 L 590.053711 575.043945 L 603.930664 576.035156 L 617.949219 578.017578 L 630.976562 580 L 644.003906 583.964844 L 657.03125 586.938477 L 670.058594 591.044922 L 681.953125 596.000977 L 694.980469 600.957031 L 706.025391 607.045898 L 718.061523 613.984375 L 728.964844 621.064453 L 740.009766 628.00293 L 750.063477 637.06543 L 759.975586 644.995117 L 777.958984 662.978516 L 787.021484 674.023437 L 794.951172 683.935547 L 803.022461 694.980469 L 809.960937 706.025391 L 816.049805 717.070312 L 822.988281 727.973633 L 827.944336 741.000977 L 833.041992 753.037109 L 837.006836 764.931641 L 840.97168 778.950195 L 843.945312 790.986328 L 846.069336 805.004883 L 848.051758 818.032227 L 850.03418 833.041992 L 850.03418 859.946289 L 849.042969 874.956055 L 846.069336 887.983398 L 844.936523 902.001953 L 840.97168 915.029297 L 837.998047 928.056641 L 834.033203 939.951172 L 828.935547 952.978516 L 823.979492 965.014648 L 817.041016 977.050781 L 810.952148 987.954102 L 804.013672 998.999023 L 795.942383 1010.043945 L 788.012695 1019.956055 L 778.950195 1031.000977 L 771.020508 1040.063477 L 760.966797 1048.984375 L 751.054687 1057.055664 L 741.000977 1065.976562 L 729.956055 1073.056641 L 719.052734 1079.995117 L 708.007812 1086.933594 L 695.97168 1093.022461 L 683.935547 1098.969727 L 671.049805 1104.067383 L 659.013672 1108.032227 L 645.986328 1111.005859 L 632.958984 1114.970703 L 618.94043 1116.953125 L 606.054687 1118.935547 L 592.036133 1120.068359 L 578.017578 1121.05957 L 563.999023 1120.068359 L 549.980469 1118.935547 L 536.953125 1116.953125 L 521.943359 1114.970703 L 510.048828 1111.99707 L 496.030273 1108.032227 L 483.994141 1104.067383 L 471.958008 1099.960937 L 458.930664 1094.013672 L 448.027344 1088.066406 L 436.982422 1080.986328 L 425.9375 1074.047852 L 415.03418 1066.967773 L 403.989258 1058.046875 L 395.068359 1049.975586 L 384.023437 1041.054687 L 375.952148 1031.000977 L 367.03125 1020.947266 L 358.959961 1011.035156 L 352.021484 1000.981445 L 343.950195 989.936523 L 337.011719 978.041992 L 331.064453 966.99707 L 325.966797 954.960937 L 321.010742 941.933594 L 317.045898 930.039062 L 312.939453 917.011719 L 309.96582 902.993164 L 307.983398 889.96582 L 306.000977 875.947266 L 304.018555 862.070312 Z M 370.996094 856.972656 L 371.987305 868.017578 L 372.978516 877.929687 L 373.969727 887.983398 L 376.943359 898.037109 L 379.067383 907.949219 L 383.032227 918.00293 L 386.005859 927.06543 L 389.970703 935.986328 L 395.068359 945.048828 L 400.024414 953.969727 L 404.980469 962.041016 L 411.069336 969.970703 L 417.016602 978.041992 L 422.963867 985.97168 L 431.035156 993.051758 L 436.982422 998.999023 L 445.053711 1005.9375 L 452.983398 1012.026367 L 461.054687 1017.973633 L 468.984375 1024.0625 L 478.046875 1029.018555 L 486.967773 1032.983398 L 495.039062 1036.948242 L 505.942383 1041.054687 L 524.067383 1047.001953 L 534.970703 1049.975586 L 544.033203 1051.958008 L 554.936523 1051.958008 L 564.990234 1052.949219 L 576.035156 1053.94043 L 586.938477 1052.949219 L 596.992187 1052.949219 L 607.045898 1051.958008 L 617.949219 1049.975586 L 628.00293 1047.001953 L 638.056641 1045.019531 L 647.96875 1041.054687 L 656.040039 1037.939453 L 665.952148 1033.974609 L 675.014648 1030.009766 L 683.935547 1025.053711 L 692.006836 1018.964844 L 699.936523 1014.008789 L 708.007812 1007.070312 L 714.946289 1000.981445 L 723.017578 994.042969 L 728.964844 986.962891 L 736.044922 979.033203 L 741.992187 971.953125 L 747.939453 963.032227 L 753.037109 954.960937 L 757.993164 946.040039 L 762.949219 937.96875 L 767.055664 929.047852 L 771.020508 918.994141 L 773.994141 909.931641 L 776.967773 900.019531 L 778.950195 889.96582 L 780.932617 880.053711 L 782.06543 870 L 783.056641 858.955078 L 783.056641 837.998047 L 782.06543 827.944336 L 782.06543 817.041016 L 779.941406 806.987305 L 776.967773 796.933594 L 774.985352 787.021484 L 772.011719 776.967773 L 767.055664 768.046875 L 763.94043 758.984375 L 758.984375 750.063477 L 754.02832 741.000977 L 748.930664 732.929687 L 737.036133 717.070312 L 729.956055 709.990234 L 724.008789 702.060547 L 717.070312 694.980469 L 708.999023 689.033203 L 702.060547 682.944336 L 692.998047 676.99707 L 685.068359 672.041016 L 676.005859 666.943359 L 666.943359 661.987305 L 658.022461 658.022461 L 648.959961 654.057617 L 639.047852 650.942383 L 628.994141 647.96875 L 618.94043 645.986328 L 609.02832 644.003906 L 598.974609 642.021484 L 589.0625 642.021484 L 578.017578 641.030273 L 566.972656 642.021484 L 557.060547 642.021484 L 546.015625 643.012695 L 535.961914 644.995117 L 527.041016 647.96875 L 516.987305 649.951172 L 505.942383 653.066406 L 497.021484 657.03125 L 487.958984 660.996094 L 480.029297 665.952148 L 469.975586 671.049805 L 462.045898 676.005859 L 453.974609 681.953125 L 446.044922 688.041992 L 438.964844 694.980469 L 432.026367 701.069336 L 424.946289 708.007812 L 418.007812 715.9375 L 412.060547 723.017578 L 405.97168 731.938477 L 400.024414 740.009766 L 396.05957 748.930664 L 390.961914 757.001953 L 386.99707 766.064453 L 384.023437 775.976562 L 380.058594 786.030273 L 376.943359 794.951172 L 372.978516 815.058594 L 371.987305 825.961914 L 370.996094 836.015625 L 370.004883 847.060547 Z M 370.996094 856.972656 " transform="matrix(0.0275862, 0, 0, 0.0275862, 0, 0)"/>
<path fill-rule="nonzero" fill="rgb(0%, 0%, 100%)" fill-opacity="1" stroke-width="1" stroke-linecap="butt" stroke-linejoin="miter" stroke="rgb(0%, 0%, 100%)" stroke-opacity="1" stroke-miterlimit="4" d="M 532.988281 600.957031 L 533.979492 19.96582 L 600.957031 19.96582 L 599.96582 600.957031 Z M 532.988281 600.957031 " transform="matrix(0.0275862, 0, 0, 0.0275862, 0, 0)"/>
<path fill-rule="nonzero" fill="rgb(0%, 0%, 100%)" fill-opacity="1" stroke-width="1" stroke-linecap="butt" stroke-linejoin="miter" stroke="rgb(0%, 0%, 100%)" stroke-opacity="1" stroke-miterlimit="4" d="M 540.068359 19.96582 L 744.96582 19.96582 L 744.96582 85.952148 L 540.068359 85.952148 Z M 540.068359 19.96582 " transform="matrix(0.0275862, 0, 0, 0.0275862, 0, 0)"/>
</svg>
