<?xml version="1.0" encoding="UTF-8"?>
<svg xmlns="http://www.w3.org/2000/svg" xmlns:xlink="http://www.w3.org/1999/xlink" width="32" height="32" viewBox="0 0 32 32">
<path fill-rule="nonzero" fill="rgb(0%, 0%, 100%)" fill-opacity="1" stroke-width="1" stroke-linecap="butt" stroke-linejoin="miter" stroke="rgb(0%, 0%, 100%)" stroke-opacity="1" stroke-miterlimit="4" d="M 266.069336 682.944336 L 268.051758 650.942383 L 270.03418 634.941406 L 273.007812 618.94043 L 275.981445 603.930664 L 279.946289 589.0625 L 285.043945 574.052734 L 296.938477 546.015625 L 304.018555 531.99707 L 311.948242 518.969727 L 320.019531 505.942383 L 328.94043 493.056641 L 338.00293 481.020508 L 348.056641 469.975586 L 358.959961 457.939453 L 370.004883 448.027344 L 381.049805 437.973633 L 392.944336 429.052734 L 405.97168 419.990234 L 418.999023 411.069336 L 432.026367 403.989258 L 446.044922 397.050781 L 460.063477 389.970703 L 473.94043 385.014648 L 488.950195 380.058594 L 503.959961 374.960937 L 518.969727 371.987305 L 534.970703 369.013672 L 566.972656 365.048828 L 599.96582 365.048828 L 631.967773 369.013672 L 646.977539 370.996094 L 662.978516 374.960937 L 677.988281 379.067383 L 692.998047 384.023437 L 707.016602 389.970703 L 721.035156 396.05957 L 735.053711 402.998047 L 747.939453 411.069336 L 760.966797 418.999023 L 773.994141 428.061523 L 786.030273 436.982422 L 798.066406 447.036133 L 819.023437 467.993164 L 828.935547 480.029297 L 838.989258 492.06543 L 848.051758 503.959961 L 855.981445 516.987305 L 863.061523 530.014648 L 876.938477 558.051758 L 883.027344 572.070312 L 887.983398 586.938477 L 891.948242 601.948242 L 896.054687 616.958008 L 899.02832 632.958984 L 901.010742 648.959961 L 902.001953 664.960937 L 902.001953 696.962891 L 901.010742 713.955078 L 899.02832 729.956055 L 896.054687 744.96582 L 891.948242 759.975586 L 887.983398 774.985352 L 883.027344 789.995117 L 877.929687 805.004883 L 864.052734 833.041992 L 856.972656 846.069336 L 848.051758 858.955078 L 839.980469 870.991211 L 830.068359 883.027344 L 820.014648 895.063477 L 809.960937 905.966797 L 799.057617 916.020508 L 787.021484 925.932617 L 774.985352 935.986328 L 762.949219 944.057617 L 750.063477 952.978516 L 737.036133 960.058594 L 708.999023 973.935547 L 694.980469 979.033203 L 679.970703 984.980469 L 664.960937 988.945312 L 648.959961 992.060547 L 633.950195 995.03418 L 601.948242 998.999023 L 568.955078 998.999023 L 552.954102 998.007812 L 536.953125 996.025391 L 520.952148 993.051758 L 505.942383 988.945312 L 490.932617 984.980469 L 476.064453 980.024414 L 461.054687 973.935547 L 448.027344 967.988281 L 434.008789 961.049805 L 419.990234 953.969727 L 407.954102 946.040039 L 395.068359 936.977539 L 383.032227 927.06543 L 370.996094 917.011719 L 359.951172 906.958008 L 350.039062 896.054687 L 339.985352 884.018555 L 329.931641 872.973633 L 321.010742 859.946289 L 312.939453 848.051758 L 305.009766 834.033203 L 297.929687 821.005859 L 291.982422 805.996094 L 286.035156 791.977539 L 280.9375 776.967773 L 273.007812 746.948242 L 270.03418 730.947266 L 268.051758 714.946289 Z M 343.950195 693.989258 L 344.941406 706.025391 L 345.932617 717.070312 L 348.056641 729.956055 L 351.030273 741.000977 L 354.003906 753.037109 L 357.96875 762.949219 L 361.933594 774.985352 L 367.03125 785.039062 L 371.987305 794.951172 L 377.93457 805.004883 L 384.023437 815.058594 L 390.961914 824.970703 L 398.041992 834.033203 L 405.97168 842.954102 L 413.051758 851.025391 L 421.972656 858.955078 L 430.043945 866.035156 L 439.956055 873.964844 L 449.018555 880.053711 L 458.930664 886.992187 L 468.984375 891.948242 L 479.038086 898.037109 L 489.941406 902.993164 L 500.986328 906.958008 L 512.03125 911.064453 L 522.93457 914.038086 L 534.970703 917.011719 L 559.042969 920.976562 L 570.9375 920.976562 L 582.973633 921.967773 L 596.000977 920.976562 L 608.037109 920.976562 L 619.931641 918.994141 L 631.967773 917.011719 L 644.003906 914.038086 L 655.048828 911.064453 L 665.952148 907.949219 L 676.99707 902.993164 L 688.041992 899.02832 L 698.945312 892.939453 L 708.999023 887.983398 L 718.061523 881.044922 L 727.973633 874.956055 L 737.036133 868.017578 L 745.957031 859.946289 L 754.02832 852.016602 L 761.958008 843.945312 L 770.029297 835.024414 L 776.967773 825.961914 L 784.047852 817.041016 L 795.942383 796.933594 L 801.040039 787.021484 L 805.996094 775.976562 L 809.960937 764.931641 L 814.067383 754.02832 L 817.041016 742.983398 L 820.014648 730.947266 L 821.99707 720.043945 L 823.979492 708.007812 L 824.970703 694.980469 L 824.970703 671.049805 L 822.988281 646.977539 L 820.014648 634.941406 L 818.032227 623.046875 L 815.058594 612.001953 L 810.952148 600.957031 L 806.987305 590.053711 L 802.03125 579.008789 L 796.933594 568.955078 L 790.986328 559.042969 L 785.039062 548.989258 L 777.958984 540.068359 L 771.020508 531.005859 L 762.949219 521.943359 L 755.019531 513.022461 L 746.948242 504.951172 L 738.027344 498.012695 L 728.964844 490.932617 L 720.043945 483.994141 L 709.990234 478.046875 L 699.936523 471.958008 L 690.024414 466.010742 L 678.979492 462.045898 L 667.93457 456.948242 L 657.03125 452.983398 L 645.986328 450.009766 L 633.950195 448.027344 L 622.055664 445.053711 L 610.019531 444.0625 L 597.983398 442.929687 L 584.956055 441.938477 L 573.061523 442.929687 L 561.025391 442.929687 L 548.989258 445.053711 L 536.953125 447.036133 L 525.058594 450.009766 L 514.013672 452.983398 L 501.977539 456.948242 L 490.932617 461.054687 L 481.020508 466.010742 L 469.975586 470.966797 L 460.063477 477.055664 L 450.009766 483.00293 L 440.947266 489.941406 L 432.026367 497.021484 L 422.963867 503.959961 L 415.03418 512.03125 L 406.962891 519.960937 L 399.033203 529.023437 L 391.953125 537.944336 L 385.014648 547.998047 L 379.067383 557.060547 L 372.978516 566.972656 L 368.022461 577.026367 L 363.066406 587.929687 L 357.96875 598.974609 L 354.995117 610.019531 L 351.030273 621.064453 L 349.047852 632.958984 L 345.932617 644.995117 L 343.950195 669.067383 L 342.958984 680.961914 Z M 343.950195 693.989258 " transform="matrix(0.0275862, 0, 0, 0.0275862, 0, 0)"/>
<path fill-rule="nonzero" fill="rgb(0%, 0%, 100%)" fill-opacity="1" stroke-width="1" stroke-linecap="butt" stroke-linejoin="miter" stroke="rgb(0%, 0%, 100%)" stroke-opacity="1" stroke-miterlimit="4" d="M 437.973633 423.955078 L 593.027344 147.973633 L 643.012695 176.010742 L 487.958984 451.992187 Z M 437.973633 423.955078 " transform="matrix(0.0275862, 0, 0, 0.0275862, 0, 0)"/>
<path fill-rule="nonzero" fill="rgb(0%, 0%, 100%)" fill-opacity="1" stroke-width="1" stroke-linecap="butt" stroke-linejoin="miter" stroke="rgb(0%, 0%, 100%)" stroke-opacity="1" stroke-miterlimit="4" d="M 622.055664 377.93457 L 745.957031 146.982422 L 795.942383 174.02832 L 672.041016 404.980469 Z M 622.055664 377.93457 " transform="matrix(0.0275862, 0, 0, 0.0275862, 0, 0)"/>
</svg>
