<?xml version="1.0" encoding="UTF-8"?>
<svg xmlns="http://www.w3.org/2000/svg" xmlns:xlink="http://www.w3.org/1999/xlink" width="32" height="32" viewBox="0 0 32 32">
<path fill-rule="nonzero" fill="rgb(0%, 0%, 100%)" fill-opacity="1" stroke-width="1" stroke-linecap="butt" stroke-linejoin="miter" stroke="rgb(0%, 0%, 100%)" stroke-opacity="1" stroke-miterlimit="4" d="M 1088.066406 202.06543 L 1088.066406 899.02832 L 41.064453 899.02832 L 41.064453 202.06543 Z M 81.987305 283.061523 L 123.051758 242.988281 L 123.051758 857.963867 L 81.987305 816.049805 L 1047.001953 816.049805 L 1005.9375 857.963867 L 1005.9375 242.988281 L 1047.001953 283.061523 Z M 81.987305 283.061523 " transform="matrix(0.0275862, 0, 0, 0.0275862, 0, 0)"/>
<path fill-rule="nonzero" fill="rgb(0%, 0%, 100%)" fill-opacity="1" d="M 2.8125 14.484375 L 2.8125 15.972656 L 28.632812 15.972656 L 28.632812 14.484375 Z M 2.8125 14.484375 "/>
<path fill-rule="nonzero" fill="rgb(0%, 0%, 100%)" fill-opacity="1" d="M 8.691406 8.632812 L 15.78125 11.421875 L 8.691406 13.792969 Z M 8.691406 8.632812 "/>
<path fill-rule="nonzero" fill="rgb(0%, 0%, 100%)" fill-opacity="1" d="M 22.34375 8.632812 L 15.367188 11.421875 L 22.34375 13.792969 Z M 22.34375 8.632812 "/>
</svg>
