<?xml version="1.0" encoding="UTF-8"?>
<svg xmlns="http://www.w3.org/2000/svg" xmlns:xlink="http://www.w3.org/1999/xlink" width="32" height="32" viewBox="0 0 32 32">
<path fill-rule="nonzero" fill="rgb(0%, 0%, 100%)" fill-opacity="1" d="M 6.757812 1.875 C 12.9375 1.875 19.089844 1.875 25.269531 1.875 C 25.269531 11.28125 25.269531 20.71875 25.269531 30.125 C 19.089844 30.125 12.9375 30.125 6.757812 30.125 C 6.757812 20.71875 6.757812 11.28125 6.757812 1.875 Z M 8.964844 29.019531 C 8.578125 28.660156 8.21875 28.277344 7.863281 27.917969 C 13.296875 27.917969 18.730469 27.917969 24.164062 27.917969 C 23.78125 28.277344 23.421875 28.660156 23.035156 29.019531 C 23.035156 20.332031 23.035156 11.667969 23.035156 2.980469 C 23.421875 3.339844 23.78125 3.722656 24.164062 4.082031 C 18.730469 4.082031 13.296875 4.082031 7.863281 4.082031 C 8.21875 3.722656 8.578125 3.339844 8.964844 2.980469 C 8.964844 11.667969 8.964844 20.332031 8.964844 29.019531 Z M 8.964844 29.019531 "/>
<path fill="none" stroke-width="1" stroke-linecap="butt" stroke-linejoin="miter" stroke="rgb(0%, 0%, 100%)" stroke-opacity="1" stroke-miterlimit="4" d="M 244.970703 67.96875 C 468.984375 67.96875 692.006836 67.96875 916.020508 67.96875 C 916.020508 408.945312 916.020508 751.054687 916.020508 1092.03125 C 692.006836 1092.03125 468.984375 1092.03125 244.970703 1092.03125 C 244.970703 751.054687 244.970703 408.945312 244.970703 67.96875 Z M 244.970703 67.96875 " transform="matrix(0.0275862, 0, 0, 0.0275862, 0, 0)"/>
<path fill="none" stroke-width="1" stroke-linecap="butt" stroke-linejoin="miter" stroke="rgb(0%, 0%, 100%)" stroke-opacity="1" stroke-miterlimit="4" d="M 324.975586 1051.958008 C 310.957031 1038.930664 297.929687 1025.053711 285.043945 1012.026367 C 482.011719 1012.026367 678.979492 1012.026367 875.947266 1012.026367 C 862.070312 1025.053711 849.042969 1038.930664 835.024414 1051.958008 C 835.024414 737.036133 835.024414 422.963867 835.024414 108.041992 C 849.042969 121.069336 862.070312 134.946289 875.947266 147.973633 C 678.979492 147.973633 482.011719 147.973633 285.043945 147.973633 C 297.929687 134.946289 310.957031 121.069336 324.975586 108.041992 C 324.975586 422.963867 324.975586 737.036133 324.975586 1051.958008 Z M 324.975586 1051.958008 " transform="matrix(0.0275862, 0, 0, 0.0275862, 0, 0)"/>
<path fill-rule="nonzero" fill="rgb(0%, 0%, 100%)" fill-opacity="1" d="M 15.117188 11.835938 C 15.117188 11.035156 15.117188 10.207031 15.117188 9.40625 C 15.835938 9.40625 16.550781 9.40625 17.242188 9.40625 C 17.242188 10.207031 17.242188 11.035156 17.242188 11.835938 Z M 15.117188 23.144531 C 15.117188 19.835938 15.117188 16.496094 15.117188 13.1875 C 15.835938 13.1875 16.550781 13.1875 17.242188 13.1875 C 17.242188 16.496094 17.242188 19.835938 17.242188 23.144531 Z M 15.117188 23.144531 "/>
</svg>
