<?xml version="1.0" encoding="UTF-8"?>
<svg xmlns="http://www.w3.org/2000/svg" xmlns:xlink="http://www.w3.org/1999/xlink" width="32" height="32" viewBox="0 0 32 32">
<path fill-rule="nonzero" fill="rgb(0%, 0%, 100%)" fill-opacity="1" d="M 16 2.785156 C 20.386719 7.199219 24.800781 11.613281 29.1875 16.027344 C 24.800781 20.441406 20.414062 24.855469 16.054688 29.242188 C 11.640625 24.828125 7.226562 20.414062 2.839844 16 C 7.226562 11.613281 11.613281 7.199219 16 2.785156 Z M 4.992188 16.71875 C 4.992188 16.25 4.992188 15.78125 4.992188 15.28125 C 8.910156 19.226562 12.828125 23.144531 16.746094 27.0625 C 16.277344 27.0625 15.808594 27.0625 15.339844 27.0625 C 19.226562 23.144531 23.144531 19.226562 27.035156 15.308594 C 27.035156 15.808594 27.035156 16.277344 27.035156 16.746094 C 23.117188 12.828125 19.199219 8.882812 15.28125 4.964844 C 15.75 4.964844 16.21875 4.964844 16.691406 4.964844 C 12.800781 8.882812 8.882812 12.800781 4.992188 16.71875 Z M 4.992188 16.71875 "/>
<path fill="none" stroke-width="1" stroke-linecap="butt" stroke-linejoin="miter" stroke="rgb(0%, 0%, 100%)" stroke-opacity="1" stroke-miterlimit="4" d="M 580 100.961914 C 739.018555 260.97168 899.02832 420.981445 1058.046875 580.991211 C 899.02832 741.000977 740.009766 901.010742 581.982422 1060.029297 C 421.972656 900.019531 261.962891 740.009766 102.944336 580 C 261.962891 420.981445 420.981445 260.97168 580 100.961914 Z M 580 100.961914 " transform="matrix(0.0275862, 0, 0, 0.0275862, 0, 0)"/>
<path fill="none" stroke-width="1" stroke-linecap="butt" stroke-linejoin="miter" stroke="rgb(0%, 0%, 100%)" stroke-opacity="1" stroke-miterlimit="4" d="M 180.966797 606.054687 C 180.966797 589.0625 180.966797 572.070312 180.966797 553.945312 C 322.993164 696.962891 465.019531 838.989258 607.045898 981.015625 C 590.053711 981.015625 573.061523 981.015625 556.069336 981.015625 C 696.962891 838.989258 838.989258 696.962891 980.024414 554.936523 C 980.024414 573.061523 980.024414 590.053711 980.024414 607.045898 C 837.998047 465.019531 695.97168 322.001953 553.945312 179.975586 C 570.9375 179.975586 587.929687 179.975586 605.063477 179.975586 C 464.02832 322.001953 322.001953 464.02832 180.966797 606.054687 Z M 180.966797 606.054687 " transform="matrix(0.0275862, 0, 0, 0.0275862, 0, 0)"/>
<path fill-rule="nonzero" fill="rgb(0%, 0%, 100%)" fill-opacity="1" d="M 15.117188 11.808594 C 15.117188 11.0625 15.117188 10.316406 15.117188 9.542969 C 15.75 9.542969 16.414062 9.542969 17.046875 9.542969 C 17.046875 10.316406 17.046875 11.0625 17.046875 11.808594 Z M 15.117188 22.234375 C 15.117188 19.171875 15.117188 16.109375 15.117188 13.046875 C 15.75 13.046875 16.414062 13.046875 17.046875 13.046875 C 17.046875 16.109375 17.046875 19.171875 17.046875 22.234375 Z M 15.117188 22.234375 "/>
</svg>
