<?xml version="1.0" encoding="UTF-8"?>
<svg xmlns="http://www.w3.org/2000/svg" xmlns:xlink="http://www.w3.org/1999/xlink" width="32" height="32" viewBox="0 0 32 32">
<path fill-rule="nonzero" fill="rgb(100%, 0%, 0%)" fill-opacity="1" d="M 29.378906 25.738281 C 26.398438 26.675781 22.511719 22.867188 20.660156 17.214844 C 18.839844 11.53125 19.75 6.152344 22.703125 5.1875 C 21.460938 11.394531 24.136719 20.332031 28.71875 25.101562 C 28.964844 25.324219 29.160156 25.515625 29.378906 25.738281 Z M 29.378906 25.738281 "/>
<path fill-rule="nonzero" fill="rgb(100%, 0%, 0%)" fill-opacity="1" d="M 2.59375 25.683594 C 5.242188 26.59375 8.910156 22.730469 10.839844 17.101562 C 12.746094 11.449219 12.164062 6.125 9.515625 5.242188 C 10.730469 10.371094 8.523438 18.59375 4.632812 23.558594 C 3.972656 24.414062 3.28125 25.101562 2.59375 25.683594 Z M 2.59375 25.683594 "/>
<path fill-rule="nonzero" fill="rgb(100%, 0%, 0%)" fill-opacity="1" d="M 10.125 5.296875 L 13.601562 5.269531 L 13.601562 15.945312 L 10.125 15.945312 Z M 10.125 5.296875 "/>
<path fill-rule="nonzero" fill="rgb(100%, 0%, 0%)" fill-opacity="1" d="M 18.371094 5.242188 L 18.371094 15.890625 L 21.710938 15.890625 L 21.710938 5.242188 Z M 18.371094 5.242188 "/>
<path fill-rule="nonzero" fill="rgb(100%, 0%, 0%)" fill-opacity="1" d="M 19.890625 5.242188 L 22.730469 5.1875 L 22.59375 5.820312 L 19.917969 5.820312 Z M 19.890625 5.242188 "/>
<path fill-rule="nonzero" fill="rgb(100%, 0%, 0%)" fill-opacity="1" d="M 9.515625 5.242188 L 12.277344 5.296875 L 12.277344 5.738281 L 9.792969 5.738281 Z M 9.515625 5.242188 "/>
<path fill-rule="nonzero" fill="rgb(100%, 0%, 0%)" fill-opacity="1" d="M 13.601562 5.269531 C 12.578125 5.433594 12.277344 9.074219 12.9375 13.433594 C 13.628906 17.765625 15.035156 21.160156 16.082031 20.992188 C 14.621094 16.277344 13.65625 10.207031 13.601562 5.269531 Z M 13.601562 5.269531 "/>
<path fill-rule="nonzero" fill="rgb(100%, 0%, 0%)" fill-opacity="1" d="M 15.808594 20.9375 C 16.855469 21.101562 18.289062 17.738281 19.007812 13.40625 C 19.695312 9.046875 19.421875 5.40625 18.371094 5.242188 C 18.484375 10.015625 17.40625 16.46875 15.808594 20.9375 Z M 15.808594 20.9375 "/>
<path fill-rule="nonzero" fill="rgb(100%, 0%, 0%)" fill-opacity="1" d="M 17.242188 15.945312 C 17.242188 18.289062 16.660156 20.191406 16.027344 20.191406 C 15.367188 20.191406 14.8125 18.289062 14.8125 15.945312 C 15.308594 18.289062 16.25 18.757812 16.9375 16.992188 C 17.046875 16.691406 17.132812 16.332031 17.242188 15.945312 Z M 17.242188 15.945312 "/>
<path fill-rule="nonzero" fill="rgb(100%, 0%, 0%)" fill-opacity="1" d="M 4.054688 27.253906 C 4.054688 22.398438 9.378906 18.457031 15.972656 18.457031 C 22.566406 18.457031 27.917969 22.398438 27.917969 27.253906 C 24.691406 22.398438 16.746094 20.386719 10.152344 22.757812 C 7.476562 23.722656 5.351562 25.296875 4.054688 27.253906 Z M 4.054688 27.253906 "/>
<path fill-rule="nonzero" fill="rgb(100%, 0%, 0%)" fill-opacity="1" d="M 4.082031 24.773438 L 5.101562 25.875 L 4.136719 26.757812 L 3.117188 25.65625 Z M 4.082031 24.773438 "/>
<path fill-rule="nonzero" fill="rgb(100%, 0%, 0%)" fill-opacity="1" d="M 3.972656 27.339844 C 3.476562 26.8125 3.035156 26.234375 2.511719 25.738281 L 3.199219 25.160156 L 5.101562 25.929688 Z M 3.972656 27.339844 "/>
<path fill-rule="nonzero" fill="rgb(100%, 0%, 0%)" fill-opacity="1" d="M 27.917969 27.226562 C 28.414062 26.757812 28.855469 26.207031 29.378906 25.738281 L 28.632812 25.019531 L 26.703125 25.601562 Z M 27.917969 27.226562 "/>
<path fill-rule="nonzero" fill="rgb(100%, 0%, 0%)" fill-opacity="1" d="M 21.847656 20.691406 C 21.820312 19.007812 21.460938 17.296875 21.433594 15.585938 L 18.015625 15.585938 L 17.160156 20.332031 Z M 21.847656 20.691406 "/>
<path fill-rule="nonzero" fill="rgb(100%, 0%, 0%)" fill-opacity="1" d="M 14.621094 20.691406 C 14.59375 19.007812 14.179688 17.296875 14.152344 15.585938 L 10.425781 15.585938 L 9.515625 20.332031 Z M 14.621094 20.691406 "/>
<path fill-rule="nonzero" fill="rgb(100%, 0%, 0%)" fill-opacity="1" stroke-width="1" stroke-linecap="butt" stroke-linejoin="miter" stroke="rgb(100%, 0%, 0%)" stroke-opacity="1" stroke-miterlimit="4" d="M 22.939453 30.019531 L 1131.962891 30.019531 L 1131.962891 1140.03418 L 22.939453 1140.03418 Z M 66.977539 1117.944336 L 45.029297 1095.996094 L 1110.014648 1095.996094 L 1088.066406 1117.944336 L 1088.066406 51.967773 L 1110.014648 74.057617 L 45.029297 74.057617 L 66.977539 51.967773 Z M 66.977539 1117.944336 " transform="matrix(0.0275862, 0, 0, 0.0275862, 0, 0)"/>
</svg>
