<?xml version="1.0" encoding="UTF-8"?>
<svg xmlns="http://www.w3.org/2000/svg" xmlns:xlink="http://www.w3.org/1999/xlink" width="32" height="32" viewBox="0 0 32 32">
<path fill-rule="nonzero" fill="rgb(0%, 0%, 100%)" fill-opacity="1" stroke-width="1" stroke-linecap="butt" stroke-linejoin="miter" stroke="rgb(0%, 0%, 100%)" stroke-opacity="1" stroke-miterlimit="4" d="M 208.012695 31.010742 L 908.94043 31.010742 L 908.94043 1088.066406 L 208.012695 1088.066406 Z M 290 1047.001953 L 250.068359 1004.946289 L 868.017578 1004.946289 L 826.953125 1047.001953 L 826.953125 73.066406 L 868.017578 112.998047 L 250.068359 112.998047 L 290 73.066406 Z M 290 1047.001953 " transform="matrix(0.0275862, 0, 0, 0.0275862, 0, 0)"/>
<path fill-rule="nonzero" fill="rgb(0%, 0%, 100%)" fill-opacity="1" stroke-width="1" stroke-linecap="butt" stroke-linejoin="miter" stroke="rgb(0%, 0%, 100%)" stroke-opacity="1" stroke-miterlimit="4" d="M 271.025391 584.956055 L 836.015625 584.956055 L 836.015625 639.047852 L 271.025391 639.047852 Z M 271.025391 584.956055 " transform="matrix(0.0275862, 0, 0, 0.0275862, 0, 0)"/>
<path fill-rule="nonzero" fill="rgb(0%, 0%, 100%)" fill-opacity="1" stroke-width="1" stroke-linecap="butt" stroke-linejoin="miter" stroke="rgb(0%, 0%, 100%)" stroke-opacity="1" stroke-miterlimit="4" d="M 274.990234 458.930664 L 838.989258 458.930664 L 838.989258 513.022461 L 274.990234 513.022461 Z M 274.990234 458.930664 " transform="matrix(0.0275862, 0, 0, 0.0275862, 0, 0)"/>
<path fill-rule="nonzero" fill="rgb(0%, 0%, 100%)" fill-opacity="1" d="M 9.40625 21.628906 C 9.40625 21.101562 9.820312 20.691406 10.34375 20.691406 C 10.867188 20.691406 11.253906 21.101562 11.253906 21.628906 C 11.253906 22.152344 10.867188 22.566406 10.34375 22.566406 C 9.820312 22.566406 9.40625 22.152344 9.40625 21.628906 Z M 9.40625 21.628906 "/>
<path fill-rule="nonzero" fill="rgb(0%, 0%, 100%)" fill-opacity="1" stroke-width="1" stroke-linecap="butt" stroke-linejoin="miter" stroke="rgb(0%, 0%, 100%)" stroke-opacity="1" stroke-miterlimit="4" d="M 338.00293 785.039062 C 338.00293 785.039062 338.00293 784.047852 338.00293 784.047852 L 338.00293 776.967773 L 339.985352 770.029297 C 339.985352 770.029297 339.985352 769.038086 340.976562 769.038086 L 348.056641 757.993164 C 348.056641 757.993164 349.047852 757.993164 349.047852 757.001953 L 359.951172 750.063477 C 359.951172 750.063477 359.951172 750.063477 360.942383 750.063477 L 367.03125 746.948242 C 368.022461 746.948242 368.022461 746.948242 368.022461 746.948242 L 374.960937 746.948242 C 374.960937 745.957031 374.960937 745.957031 374.960937 746.948242 L 382.041016 746.948242 C 382.041016 746.948242 383.032227 746.948242 383.032227 746.948242 L 388.979492 750.063477 C 389.970703 750.063477 389.970703 750.063477 389.970703 750.063477 L 401.015625 757.001953 C 402.006836 757.993164 402.006836 757.993164 402.006836 758.984375 L 408.945312 769.038086 C 408.945312 769.038086 408.945312 770.029297 408.945312 770.029297 L 412.060547 776.967773 L 412.060547 784.047852 C 412.060547 784.047852 412.060547 785.039062 412.060547 785.039062 L 412.060547 791.977539 L 408.945312 799.057617 L 402.006836 810.952148 C 402.006836 811.943359 402.006836 811.943359 401.015625 811.943359 L 389.970703 819.023437 C 389.970703 819.023437 389.970703 819.023437 388.979492 819.023437 L 383.032227 821.005859 C 383.032227 821.005859 382.041016 821.005859 382.041016 821.005859 L 374.960937 821.99707 L 368.022461 821.005859 C 368.022461 821.005859 368.022461 821.005859 367.03125 821.005859 L 360.942383 819.023437 C 359.951172 819.023437 359.951172 819.023437 359.951172 819.023437 L 349.047852 811.943359 C 349.047852 811.943359 348.056641 811.943359 348.056641 810.952148 L 340.976562 799.057617 C 339.985352 799.057617 339.985352 799.057617 339.985352 799.057617 L 338.00293 791.977539 Z M 344.941406 790.986328 L 344.941406 789.995117 L 347.06543 796.933594 L 347.06543 794.951172 L 354.003906 806.987305 L 353.012695 805.996094 L 364.057617 812.93457 L 363.066406 811.943359 L 369.013672 814.067383 L 374.960937 815.058594 L 382.041016 814.067383 L 381.049805 814.067383 L 386.99707 811.943359 L 386.005859 812.93457 L 397.050781 805.996094 L 396.05957 806.987305 L 403.989258 795.942383 L 402.998047 796.933594 L 403.989258 789.995117 L 403.989258 790.986328 L 404.980469 784.047852 L 405.97168 785.039062 L 403.989258 777.958984 L 403.989258 778.950195 L 402.998047 772.011719 L 403.989258 773.00293 L 396.05957 761.958008 L 397.050781 762.949219 L 386.005859 756.010742 L 386.99707 756.010742 L 381.049805 755.019531 L 382.041016 755.019531 L 374.960937 754.02832 L 363.066406 756.010742 L 364.057617 756.010742 L 353.012695 762.949219 L 354.003906 761.958008 L 347.06543 773.00293 L 347.06543 772.011719 L 344.941406 778.950195 L 344.941406 777.958984 L 343.950195 785.039062 L 343.950195 784.047852 Z M 344.941406 790.986328 " transform="matrix(0.0275862, 0, 0, 0.0275862, 0, 0)"/>
<path fill-rule="nonzero" fill="rgb(0%, 0%, 100%)" fill-opacity="1" d="M 19.863281 21.628906 C 19.863281 21.101562 20.277344 20.691406 20.800781 20.691406 C 21.296875 20.691406 21.738281 21.101562 21.738281 21.628906 C 21.738281 22.152344 21.296875 22.566406 20.800781 22.566406 C 20.277344 22.566406 19.863281 22.152344 19.863281 21.628906 Z M 19.863281 21.628906 "/>
<path fill-rule="nonzero" fill="rgb(0%, 0%, 100%)" fill-opacity="1" stroke-width="1" stroke-linecap="butt" stroke-linejoin="miter" stroke="rgb(0%, 0%, 100%)" stroke-opacity="1" stroke-miterlimit="4" d="M 715.9375 785.039062 C 715.9375 785.039062 715.9375 784.047852 717.070312 784.047852 L 717.070312 776.967773 L 719.052734 770.029297 C 719.052734 770.029297 719.052734 769.038086 720.043945 769.038086 L 726.982422 757.993164 C 727.973633 757.993164 727.973633 757.993164 727.973633 757.001953 L 739.018555 750.063477 C 739.018555 750.063477 740.009766 750.063477 740.009766 750.063477 L 745.957031 746.948242 C 745.957031 746.948242 745.957031 746.948242 746.948242 746.948242 L 754.02832 746.948242 C 754.02832 745.957031 754.02832 745.957031 754.02832 746.948242 L 761.958008 746.948242 L 768.046875 750.063477 C 768.046875 750.063477 769.038086 750.063477 769.038086 750.063477 L 779.941406 757.001953 C 779.941406 757.993164 780.932617 757.993164 780.932617 758.984375 L 789.003906 769.038086 C 789.003906 769.038086 789.003906 770.029297 789.003906 770.029297 L 790.986328 776.967773 L 790.986328 784.047852 C 790.986328 784.047852 790.986328 785.039062 790.986328 785.039062 L 790.986328 791.977539 L 789.003906 799.057617 L 780.932617 810.952148 C 780.932617 811.943359 779.941406 811.943359 779.941406 811.943359 L 769.038086 819.023437 C 769.038086 819.023437 768.046875 819.023437 768.046875 819.023437 L 761.958008 821.005859 L 754.02832 821.99707 L 746.948242 821.005859 C 745.957031 821.005859 745.957031 821.005859 745.957031 821.005859 L 740.009766 819.023437 C 740.009766 819.023437 739.018555 819.023437 739.018555 819.023437 L 727.973633 811.943359 C 727.973633 811.943359 727.973633 811.943359 726.982422 810.952148 L 720.043945 799.057617 C 719.052734 799.057617 719.052734 799.057617 719.052734 799.057617 L 717.070312 791.977539 Z M 724.008789 790.986328 L 724.008789 789.995117 L 725.991211 796.933594 L 725.991211 794.951172 L 732.929687 806.987305 L 731.938477 805.996094 L 742.983398 812.93457 L 741.000977 811.943359 L 748.930664 814.067383 L 747.939453 814.067383 L 754.02832 815.058594 L 760.966797 814.067383 L 759.975586 814.067383 L 767.055664 811.943359 L 766.064453 812.93457 L 775.976562 805.996094 L 775.976562 806.987305 L 782.06543 795.942383 L 782.06543 796.933594 L 784.047852 789.995117 L 784.047852 790.986328 L 785.039062 784.047852 L 785.039062 785.039062 L 784.047852 777.958984 L 784.047852 778.950195 L 782.06543 772.011719 L 782.06543 773.00293 L 775.976562 761.958008 L 775.976562 762.949219 L 764.931641 756.010742 L 767.055664 756.010742 L 759.975586 755.019531 L 760.966797 755.019531 L 754.02832 754.02832 L 747.939453 755.019531 L 748.930664 755.019531 L 741.000977 756.010742 L 742.983398 756.010742 L 731.938477 762.949219 L 732.929687 761.958008 L 725.991211 773.00293 L 725.991211 772.011719 L 724.008789 778.950195 L 724.008789 777.958984 L 723.017578 785.039062 L 723.017578 784.047852 Z M 724.008789 790.986328 " transform="matrix(0.0275862, 0, 0, 0.0275862, 0, 0)"/>
<path fill-rule="nonzero" fill="rgb(0%, 0%, 100%)" fill-opacity="1" stroke-width="1" stroke-linecap="butt" stroke-linejoin="miter" stroke="rgb(0%, 0%, 100%)" stroke-opacity="1" stroke-miterlimit="4" d="M 448.027344 806.987305 L 461.054687 785.039062 L 574.052734 957.93457 L 550.97168 957.93457 L 665.952148 785.039062 L 676.99707 806.987305 Z M 676.99707 778.950195 C 681.953125 778.950195 687.050781 782.06543 690.024414 786.030273 C 692.998047 790.986328 692.998047 796.933594 689.033203 801.040039 L 574.052734 973.935547 C 572.070312 978.041992 566.972656 980.024414 562.016602 980.024414 C 558.051758 980.024414 552.954102 978.041992 550.97168 973.935547 L 435.991211 801.040039 C 434.008789 796.933594 434.008789 790.986328 435 786.030273 C 438.964844 782.06543 442.929687 778.950195 448.027344 778.950195 Z M 676.99707 778.950195 " transform="matrix(0.0275862, 0, 0, 0.0275862, 0, 0)"/>
<path fill-rule="nonzero" fill="rgb(0%, 0%, 100%)" fill-opacity="1" stroke-width="1" stroke-linecap="butt" stroke-linejoin="miter" stroke="rgb(0%, 0%, 100%)" stroke-opacity="1" stroke-miterlimit="4" d="M 425.9375 755.019531 L 357.96875 661.987305 L 381.049805 644.995117 L 449.018555 738.027344 Z M 425.9375 755.019531 " transform="matrix(0.0275862, 0, 0, 0.0275862, 0, 0)"/>
<path fill-rule="nonzero" fill="rgb(0%, 0%, 100%)" fill-opacity="1" stroke-width="1" stroke-linecap="butt" stroke-linejoin="miter" stroke="rgb(0%, 0%, 100%)" stroke-opacity="1" stroke-miterlimit="4" d="M 673.032227 735.053711 L 741.000977 644.995117 L 762.949219 661.987305 L 695.97168 753.037109 Z M 673.032227 735.053711 " transform="matrix(0.0275862, 0, 0, 0.0275862, 0, 0)"/>
<path fill-rule="nonzero" fill="rgb(0%, 0%, 100%)" fill-opacity="1" stroke-width="1" stroke-linecap="butt" stroke-linejoin="miter" stroke="rgb(0%, 0%, 100%)" stroke-opacity="1" stroke-miterlimit="4" d="M 425.9375 728.964844 L 696.962891 725 L 696.962891 754.02832 L 427.070312 757.993164 Z M 425.9375 728.964844 " transform="matrix(0.0275862, 0, 0, 0.0275862, 0, 0)"/>
</svg>
