<?xml version="1.0" encoding="UTF-8"?>
<svg xmlns="http://www.w3.org/2000/svg" xmlns:xlink="http://www.w3.org/1999/xlink" width="32" height="32" viewBox="0 0 32 32">
<path fill-rule="nonzero" fill="rgb(100%, 0%, 0%)" fill-opacity="1" stroke-width="1" stroke-linecap="butt" stroke-linejoin="miter" stroke="rgb(100%, 0%, 0%)" stroke-opacity="1" stroke-miterlimit="4" d="M 554.936523 570.9375 L 488.950195 617.949219 L 431.035156 605.063477 L 370.996094 567.963867 L 360.942383 518.969727 L 370.004883 488.950195 L 370.004883 493.056641 L 370.004883 467.001953 L 391.953125 435 L 478.046875 386.005859 L 492.06543 409.936523 L 408.945312 456.948242 L 413.051758 453.974609 L 393.935547 479.038086 L 397.050781 471.958008 L 397.050781 495.039062 L 387.988281 522.93457 L 388.979492 516.987305 L 397.050781 557.060547 L 389.970703 547.998047 L 444.0625 580.991211 L 439.956055 579.008789 L 487.958984 590.053711 L 477.055664 593.027344 L 538.935547 548.989258 Z M 554.936523 570.9375 " transform="matrix(0.0275862, 0, 0, 0.0275862, 0, 0)"/>
<path fill-rule="nonzero" fill="rgb(100%, 0%, 0%)" fill-opacity="1" stroke-width="1" stroke-linecap="butt" stroke-linejoin="miter" stroke="rgb(100%, 0%, 0%)" stroke-opacity="1" stroke-miterlimit="4" d="M 25.063477 22.939453 L 1127.006836 22.939453 L 1127.006836 1125.024414 L 25.063477 1125.024414 Z M 66.977539 1104.067383 L 46.020508 1082.96875 L 1105.058594 1082.96875 L 1083.959961 1104.067383 L 1083.959961 44.038086 L 1105.058594 65.986328 L 46.020508 65.986328 L 66.977539 44.038086 Z M 66.977539 1104.067383 " transform="matrix(0.0275862, 0, 0, 0.0275862, 0, 0)"/>
<path fill-rule="nonzero" fill="rgb(100%, 0%, 0%)" fill-opacity="1" stroke-width="1" stroke-linecap="butt" stroke-linejoin="miter" stroke="rgb(100%, 0%, 0%)" stroke-opacity="1" stroke-miterlimit="4" d="M 263.945312 862.070312 L 270.03418 865.043945 L 277.963867 870.991211 L 282.070312 874.956055 L 286.035156 877.929687 L 289.008789 882.036133 L 292.973633 885.009766 L 295.947266 889.96582 L 299.0625 892.939453 L 302.036133 897.045898 L 304.018555 901.010742 L 306.992187 905.966797 L 308.974609 909.931641 L 310.957031 915.029297 L 311.948242 918.994141 L 313.930664 922.958984 L 316.054687 928.056641 L 318.037109 937.96875 L 318.037109 965.014648 L 316.054687 969.970703 L 315.063477 975.068359 L 312.939453 979.033203 L 310.957031 983.989258 L 308.974609 987.954102 L 306.992187 992.060547 L 304.018555 996.025391 L 305.009766 993.051758 L 303.027344 997.016602 L 301.044922 1001.972656 L 297.929687 1007.070312 L 295.947266 1011.035156 L 291.982422 1015 L 289.008789 1018.964844 L 285.043945 1022.929687 L 280.9375 1026.044922 L 273.007812 1031.992187 L 269.042969 1033.974609 L 263.945312 1036.948242 L 258.989258 1038.930664 L 255.024414 1041.054687 L 250.068359 1044.02832 L 244.970703 1044.02832 L 240.014648 1046.010742 L 235.058594 1047.001953 L 229.960937 1047.993164 L 225.004883 1048.984375 L 204.047852 1048.984375 L 198.950195 1047.993164 L 193.994141 1046.010742 L 189.038086 1045.019531 L 182.949219 1044.02832 L 177.993164 1042.045898 L 173.037109 1038.930664 L 168.930664 1036.948242 L 162.983398 1033.974609 L 158.027344 1031.992187 L 154.0625 1028.027344 L 149.956055 1025.053711 L 146.982422 1021.938477 L 142.026367 1017.973633 L 139.052734 1015 L 135.9375 1012.026367 L 131.972656 1007.070312 L 128.999023 1002.963867 L 126.025391 998.999023 L 124.042969 995.03418 L 121.069336 991.069336 L 118.945312 985.97168 L 116.962891 981.015625 L 114.980469 977.050781 L 113.989258 971.953125 L 112.006836 966.99707 L 111.015625 963.032227 L 110.024414 957.93457 L 110.024414 933.012695 L 111.015625 928.056641 L 112.006836 921.967773 L 112.998047 917.011719 L 114.980469 912.055664 L 115.97168 906.958008 L 118.945312 902.993164 L 121.069336 898.037109 L 124.042969 893.930664 L 123.051758 895.063477 L 125.03418 890.957031 L 127.016602 885.009766 L 129.990234 881.044922 L 132.963867 876.938477 L 137.070312 872.973633 L 140.043945 869.008789 L 144.008789 866.035156 L 146.982422 863.061523 L 151.938477 859.946289 L 156.044922 857.963867 L 161.000977 854.990234 L 164.96582 853.007812 L 170.063477 851.025391 L 174.02832 850.03418 L 178.984375 848.051758 L 184.931641 848.051758 L 190.029297 847.060547 L 194.985352 846.069336 L 214.951172 846.069336 L 220.048828 847.060547 L 225.004883 848.051758 L 229.960937 848.051758 L 236.049805 849.042969 L 245.961914 853.007812 L 250.068359 854.990234 L 259.980469 858.955078 Z M 245.961914 885.009766 L 246.953125 885.009766 L 242.988281 884.018555 L 238.032227 882.036133 L 239.023437 882.036133 L 235.058594 880.053711 L 236.049805 880.053711 L 230.952148 880.053711 L 231.943359 880.053711 L 226.987305 877.929687 L 227.978516 877.929687 L 223.022461 876.938477 L 224.013672 876.938477 L 220.048828 875.947266 L 221.040039 875.947266 L 215.942383 875.947266 L 216.933594 875.947266 L 211.977539 874.956055 L 208.012695 874.956055 L 209.003906 874.956055 L 204.047852 874.956055 L 205.039062 874.956055 L 196.967773 874.956055 L 193.00293 875.947266 L 193.994141 874.956055 L 186.064453 876.938477 L 187.055664 876.938477 L 182.949219 877.929687 L 183.94043 877.929687 L 178.984375 880.053711 L 179.975586 879.0625 L 176.010742 880.053711 L 177.001953 880.053711 L 174.02832 882.036133 L 174.02832 881.044922 L 170.063477 884.018555 L 171.054687 883.027344 L 167.939453 885.009766 L 168.930664 885.009766 L 164.96582 886.992187 L 165.957031 886.000977 L 162.983398 888.974609 L 162.983398 887.983398 L 160.009766 890.957031 L 161.000977 890.957031 L 158.027344 892.939453 L 158.027344 891.948242 L 156.044922 896.054687 L 157.036133 895.063477 L 154.0625 898.037109 L 155.053711 897.045898 L 152.929687 901.010742 L 152.929687 900.019531 L 150.947266 903.984375 L 151.938477 902.993164 L 149.956055 906.958008 L 146.982422 912.055664 L 145 916.020508 L 145.991211 915.029297 L 144.008789 918.994141 L 144.008789 918.00293 L 142.026367 921.967773 L 142.026367 925.932617 L 142.026367 924.941406 L 141.035156 929.047852 L 141.035156 928.056641 L 140.043945 933.012695 L 139.052734 936.977539 L 140.043945 935.986328 L 139.052734 939.951172 L 139.052734 938.959961 L 139.052734 944.057617 L 139.052734 943.066406 L 139.052734 947.03125 L 139.052734 946.040039 L 139.052734 950.004883 L 139.052734 949.013672 L 140.043945 953.969727 L 140.043945 952.978516 L 140.043945 956.943359 L 141.035156 960.058594 L 142.026367 964.023437 L 144.008789 969.970703 L 145.991211 973.935547 L 145.991211 972.944336 L 146.982422 977.050781 L 146.982422 976.05957 L 148.964844 981.015625 L 148.964844 980.024414 L 152.929687 985.97168 L 155.053711 988.945312 L 158.027344 992.060547 L 158.027344 991.069336 L 160.009766 995.03418 L 162.983398 997.016602 L 165.957031 999.990234 L 164.96582 999.990234 L 168.930664 1001.972656 L 172.045898 1004.946289 L 175.019531 1007.070312 L 178.984375 1009.052734 L 181.958008 1012.026367 L 181.958008 1011.035156 L 184.931641 1013.017578 L 190.029297 1014.008789 L 189.038086 1014.008789 L 193.00293 1015.991211 L 192.011719 1015.991211 L 195.976562 1016.982422 L 194.985352 1016.982422 L 200.932617 1017.973633 L 199.941406 1017.973633 L 204.047852 1017.973633 L 203.056641 1017.973633 L 207.021484 1018.964844 L 219.057617 1018.964844 L 218.066406 1018.964844 L 222.03125 1018.964844 L 226.987305 1017.973633 L 225.996094 1017.973633 L 229.960937 1017.973633 L 228.969727 1017.973633 L 234.067383 1017.973633 L 232.93457 1017.973633 L 238.032227 1016.982422 L 237.041016 1016.982422 L 241.005859 1015 L 240.014648 1015 L 243.979492 1014.008789 L 242.988281 1014.008789 L 247.944336 1013.017578 L 246.953125 1013.017578 L 251.05957 1011.035156 L 250.068359 1012.026367 L 254.033203 1009.052734 L 254.033203 1010.043945 L 257.006836 1007.070312 L 256.015625 1007.070312 L 258.989258 1004.946289 L 258.989258 1005.9375 L 262.954102 1002.963867 L 261.962891 1003.955078 L 264.936523 1000.981445 L 263.945312 1001.972656 L 268.051758 998.007812 L 267.060547 998.999023 L 270.03418 996.025391 L 270.03418 997.016602 L 272.016602 993.051758 L 271.025391 994.042969 L 273.999023 991.069336 L 273.007812 991.069336 L 274.990234 986.962891 L 274.990234 987.954102 L 276.972656 984.980469 L 275.981445 985.97168 L 278.955078 981.015625 L 282.070312 975.068359 L 280.9375 976.05957 L 284.052734 972.944336 L 283.061523 973.935547 L 285.043945 969.970703 L 285.043945 970.961914 L 286.035156 967.988281 L 286.035156 968.979492 L 287.026367 965.014648 L 286.035156 966.005859 L 288.017578 962.041016 L 287.026367 963.032227 L 288.017578 960.058594 L 289.008789 955.952148 L 289.008789 956.943359 L 289.008789 950.004883 L 289.008789 950.996094 L 289.008789 948.022461 L 289.008789 949.013672 L 289.008789 944.057617 L 289.008789 945.048828 L 288.017578 941.933594 L 289.008789 941.933594 L 288.017578 937.96875 L 288.017578 938.959961 L 287.026367 934.995117 L 287.026367 935.986328 L 286.035156 932.021484 L 286.035156 933.012695 L 286.035156 929.047852 L 284.052734 925.932617 L 284.052734 927.06543 L 282.070312 921.967773 L 283.061523 922.958984 L 279.946289 918.994141 L 280.9375 919.985352 L 278.955078 917.011719 L 279.946289 917.011719 L 276.972656 913.046875 L 276.972656 914.038086 L 274.990234 911.064453 L 273.007812 906.958008 L 273.007812 907.949219 L 270.03418 904.975586 L 268.051758 901.010742 L 269.042969 902.001953 L 264.936523 899.02832 L 264.936523 900.019531 L 261.962891 896.054687 L 262.954102 897.045898 L 258.989258 893.930664 L 258.989258 895.063477 L 256.015625 890.957031 L 257.006836 891.948242 L 253.041992 889.96582 L 254.033203 889.96582 L 248.935547 886.992187 L 250.068359 887.983398 Z M 245.961914 885.009766 " transform="matrix(0.0275862, 0, 0, 0.0275862, 0, 0)"/>
<path fill-rule="nonzero" fill="rgb(100%, 0%, 0%)" fill-opacity="1" stroke-width="1" stroke-linecap="butt" stroke-linejoin="miter" stroke="rgb(100%, 0%, 0%)" stroke-opacity="1" stroke-miterlimit="4" d="M 902.001953 116.962891 L 905.966797 114.980469 L 909.931641 112.006836 L 914.038086 111.015625 L 923.950195 107.050781 L 929.047852 106.05957 L 933.012695 106.05957 L 937.96875 105.068359 L 943.066406 105.068359 L 947.03125 103.935547 L 951.987305 105.068359 L 955.952148 105.068359 L 961.049805 106.05957 L 966.005859 106.05957 L 970.961914 108.041992 L 975.068359 109.033203 L 979.033203 111.015625 L 983.989258 112.998047 L 987.954102 114.980469 L 993.051758 116.962891 L 996.025391 119.936523 L 999.990234 123.051758 L 1003.955078 126.025391 L 1008.061523 128.999023 L 1012.026367 132.963867 L 1015 137.070312 L 1018.964844 141.035156 L 1020.947266 144.008789 L 1025.053711 148.964844 L 1027.036133 154.0625 L 1031.000977 159.018555 L 1032.983398 162.983398 L 1031.992187 162.983398 L 1034.96582 166.948242 L 1036.948242 171.054687 L 1038.930664 175.019531 L 1041.054687 179.975586 L 1042.045898 184.931641 L 1043.037109 190.029297 L 1044.02832 193.994141 L 1045.019531 198.950195 L 1046.010742 203.056641 L 1046.010742 216.933594 L 1045.019531 223.022461 L 1043.037109 230.952148 L 1041.054687 236.049805 L 1041.054687 240.014648 L 1038.930664 243.979492 L 1036.948242 248.935547 L 1034.96582 253.041992 L 1031.992187 257.006836 L 1031.000977 259.980469 L 1027.036133 264.936523 L 1025.053711 269.042969 L 1020.947266 272.016602 L 1018.964844 275.981445 L 1015 278.955078 L 1011.035156 282.070312 L 1008.061523 286.035156 L 1003.955078 288.017578 L 999.990234 291.982422 L 996.025391 292.973633 L 980.024414 269.042969 L 982.998047 266.069336 L 982.998047 267.060547 L 986.962891 264.936523 L 985.97168 264.936523 L 988.945312 261.962891 L 988.945312 262.954102 L 992.060547 259.980469 L 995.03418 257.998047 L 994.042969 257.998047 L 998.999023 253.041992 L 1001.972656 248.935547 L 1000.981445 250.068359 L 1003.955078 246.953125 L 1003.955078 247.944336 L 1004.946289 243.979492 L 1004.946289 244.970703 L 1007.070312 241.99707 L 1009.052734 239.023437 L 1010.043945 236.049805 L 1010.043945 237.041016 L 1011.035156 232.93457 L 1013.017578 229.960937 L 1012.026367 230.952148 L 1014.008789 226.987305 L 1014.008789 227.978516 L 1015 224.013672 L 1015 221.040039 L 1015 222.03125 L 1015 216.933594 L 1015 218.066406 L 1015.991211 213.959961 L 1015.991211 214.951172 L 1015.991211 208.012695 L 1015.991211 209.003906 L 1015.991211 205.039062 L 1015.991211 206.030273 L 1015 202.06543 L 1015 203.056641 L 1015 198.950195 L 1015 199.941406 L 1015 195.976562 L 1014.008789 192.011719 L 1014.008789 193.00293 L 1013.017578 190.029297 L 1013.017578 191.020508 L 1011.035156 186.064453 L 1012.026367 187.055664 L 1010.043945 182.949219 L 1010.043945 183.94043 L 1009.052734 179.975586 L 1007.070312 177.001953 L 1003.955078 172.045898 L 1003.955078 173.037109 L 1001.972656 168.930664 L 1002.963867 170.063477 L 999.990234 164.96582 L 998.007812 161.992187 L 998.007812 162.983398 L 995.03418 159.018555 L 996.025391 159.018555 L 993.051758 156.044922 L 989.936523 154.0625 L 991.069336 154.0625 L 982.998047 145.991211 L 982.998047 146.982422 L 979.033203 144.008789 L 980.024414 144.008789 L 977.050781 143.017578 L 972.944336 141.035156 L 973.935547 141.035156 L 970.961914 139.052734 L 971.953125 139.052734 L 967.988281 138.061523 L 965.014648 137.070312 L 966.005859 138.061523 L 961.049805 135.9375 L 963.032227 135.9375 L 959.067383 134.946289 L 960.058594 134.946289 L 955.952148 133.955078 L 955.952148 134.946289 L 952.978516 133.955078 L 953.969727 133.955078 L 950.004883 133.955078 L 950.996094 133.955078 L 946.040039 133.955078 L 948.022461 133.955078 L 944.057617 133.955078 L 945.048828 133.955078 L 939.951172 133.955078 L 940.942383 133.955078 L 937.96875 133.955078 L 934.995117 134.946289 L 931.030273 135.9375 L 932.021484 135.9375 L 929.047852 137.070312 L 930.039062 137.070312 L 924.941406 138.061523 L 925.932617 138.061523 L 921.967773 139.052734 L 922.958984 139.052734 L 918.994141 141.035156 L 919.985352 141.035156 L 916.020508 143.017578 Z M 902.001953 116.962891 " transform="matrix(0.0275862, 0, 0, 0.0275862, 0, 0)"/>
<path fill-rule="nonzero" fill="rgb(100%, 0%, 0%)" fill-opacity="1" stroke-width="1" stroke-linecap="butt" stroke-linejoin="miter" stroke="rgb(100%, 0%, 0%)" stroke-opacity="1" stroke-miterlimit="4" d="M 115.97168 902.993164 L 251.05957 635.932617 L 333.046875 617.949219 L 364.057617 660.004883 L 352.021484 654.057617 L 400.024414 654.057617 L 441.938477 717.070312 L 306.992187 993.051758 L 279.946289 981.015625 L 412.060547 711.972656 L 413.051758 725.991211 L 380.058594 676.99707 L 391.953125 683.935547 L 343.950195 683.935547 L 315.063477 643.012695 L 329.931641 647.96875 L 263.945312 663.969727 L 273.999023 657.03125 L 143.017578 917.011719 Z M 115.97168 902.993164 " transform="matrix(0.0275862, 0, 0, 0.0275862, 0, 0)"/>
<path fill-rule="nonzero" fill="rgb(100%, 0%, 0%)" fill-opacity="1" stroke-width="1" stroke-linecap="butt" stroke-linejoin="miter" stroke="rgb(100%, 0%, 0%)" stroke-opacity="1" stroke-miterlimit="4" d="M 923.950195 138.061523 L 493.056641 409.936523 L 499.003906 391.953125 L 500.986328 397.050781 L 489.941406 387.988281 L 516.987305 391.953125 L 514.013672 391.953125 L 702.060547 375.952148 L 573.061523 460.063477 L 578.017578 441.938477 L 594.018555 478.046875 L 594.018555 490.932617 L 595.009766 493.056641 L 595.009766 501.977539 L 594.018555 503.959961 L 594.018555 509.057617 L 590.053711 516.987305 L 589.0625 519.960937 L 587.929687 524.067383 L 589.0625 522.93457 L 587.929687 526.049805 L 587.929687 525.058594 L 587.929687 526.049805 L 587.929687 525.058594 L 586.938477 529.023437 L 585.947266 531.99707 L 583.964844 535.961914 L 581.982422 540.068359 L 579.008789 542.050781 L 578.017578 545.024414 L 575.043945 547.998047 L 573.061523 550.97168 L 569.946289 552.954102 L 567.963867 557.060547 L 563.007812 562.016602 L 563.999023 562.016602 L 562.016602 563.999023 L 562.016602 563.007812 L 560.03418 565.981445 L 561.025391 564.990234 L 559.042969 566.972656 L 560.03418 566.972656 L 558.051758 567.963867 L 559.042969 566.972656 L 536.953125 549.980469 L 983.989258 266.069336 L 999.990234 290.991211 L 515.996094 598.974609 L 531.99707 557.060547 L 532.988281 553.945312 L 534.970703 550.97168 L 535.961914 548.989258 L 538.935547 546.015625 L 541.05957 543.041992 L 543.041992 541.05957 L 546.015625 536.953125 L 547.006836 534.970703 L 549.980469 531.99707 L 553.945312 526.049805 L 553.945312 527.041016 L 557.060547 525.058594 L 556.069336 525.058594 L 557.060547 521.943359 L 557.060547 522.93457 L 559.042969 519.960937 L 558.051758 520.952148 L 559.042969 519.960937 L 558.051758 520.952148 L 559.042969 519.960937 L 558.051758 524.067383 L 558.051758 519.960937 L 560.03418 514.013672 L 562.016602 511.040039 L 562.016602 506.933594 L 563.999023 502.96875 L 563.999023 503.959961 L 564.990234 499.995117 L 564.990234 500.986328 L 565.981445 498.012695 L 565.981445 497.021484 L 565.981445 498.012695 L 565.981445 497.021484 L 565.981445 499.003906 L 565.981445 497.021484 L 564.990234 494.047852 L 564.990234 482.011719 L 565.981445 487.958984 L 546.015625 441.938477 L 637.06543 383.032227 L 645.986328 411.069336 L 514.013672 421.972656 L 477.055664 416.025391 L 467.001953 391.953125 L 907.949219 112.998047 Z M 923.950195 138.061523 " transform="matrix(0.0275862, 0, 0, 0.0275862, 0, 0)"/>
<path fill-rule="nonzero" fill="rgb(100%, 0%, 0%)" fill-opacity="1" d="M 13.738281 17.296875 L 14.566406 18.757812 L 14.757812 20.332031 L 14.757812 21.542969 L 14.566406 22.566406 L 14.097656 23.808594 L 13.738281 25.160156 L 13.902344 26.152344 L 14.289062 27.144531 L 15.144531 28.164062 L 16.632812 28.605469 L 18.511719 29.160156 L 20.496094 29.160156 L 23.007812 28.605469 L 24.71875 28.386719 L 25.542969 27.808594 L 26.59375 27.144531 L 27.0625 26.152344 L 27.0625 24.800781 L 26.785156 23.558594 L 26.398438 22.566406 L 25.351562 21.542969 L 24.523438 21.101562 L 23.007812 20.773438 L 21.132812 20.773438 L 19.367188 20.332031 L 17.957031 19.75 L 16.25 18.539062 L 14.953125 17.542969 L 13.269531 16.082031 Z M 13.738281 17.296875 "/>
<path fill-rule="nonzero" fill="rgb(100%, 0%, 0%)" fill-opacity="1" stroke-width="1" stroke-linecap="butt" stroke-linejoin="miter" stroke="rgb(100%, 0%, 0%)" stroke-opacity="1" stroke-miterlimit="4" d="M 498.012695 627.011719 L 529.023437 679.970703 L 535.961914 737.036133 L 535.961914 780.932617 L 529.023437 818.032227 L 511.040039 863.061523 L 498.012695 912.055664 L 503.959961 948.022461 L 517.978516 983.989258 L 548.989258 1020.947266 L 602.939453 1036.948242 L 671.049805 1057.055664 L 742.983398 1057.055664 L 834.033203 1036.948242 L 896.054687 1028.027344 L 925.932617 1008.061523 L 964.023437 983.989258 L 963.032227 983.989258 L 981.015625 948.022461 L 981.015625 899.02832 L 970.961914 853.999023 L 955.952148 818.032227 L 918.994141 780.932617 L 888.974609 764.931641 L 834.033203 753.037109 L 766.064453 753.037109 L 701.069336 737.036133 L 650.942383 715.9375 L 589.0625 672.041016 L 541.05957 635.932617 L 481.020508 582.973633 Z M 480.029297 581.982422 L 542.050781 634.941406 L 589.0625 672.041016 L 650.942383 715.9375 L 702.060547 737.036133 L 766.064453 753.037109 L 834.033203 753.037109 L 888.974609 764.931641 L 918.994141 780.932617 L 956.943359 818.032227 L 970.961914 853.999023 L 981.015625 899.02832 L 981.015625 948.022461 L 964.023437 984.980469 L 925.932617 1009.052734 L 896.054687 1029.018555 L 834.033203 1036.948242 L 742.983398 1057.055664 L 671.049805 1057.055664 L 602.939453 1036.948242 L 547.998047 1020.947266 L 517.978516 984.980469 L 503.959961 948.022461 L 498.012695 912.055664 L 511.040039 863.061523 L 528.032227 818.032227 L 534.970703 780.932617 L 534.970703 737.036133 L 528.032227 679.970703 L 498.012695 627.011719 Z M 480.029297 581.982422 " transform="matrix(0.0275862, 0, 0, 0.0275862, 0, 0)"/>
<path fill-rule="nonzero" fill="rgb(88.627451%, 0%, 10.196078%)" fill-opacity="1" stroke-width="1" stroke-linecap="butt" stroke-linejoin="miter" stroke="rgb(88.627451%, 0%, 10.196078%)" stroke-opacity="1" stroke-miterlimit="4" d="M 405.97168 564.990234 L 409.936523 567.963867 L 408.945312 568.955078 Z M 405.97168 564.990234 " transform="matrix(0.0275862, 0, 0, 0.0275862, 0, 0)"/>
</svg>
