<?xml version="1.0" encoding="UTF-8"?>
<svg xmlns="http://www.w3.org/2000/svg" xmlns:xlink="http://www.w3.org/1999/xlink" width="32" height="32" viewBox="0 0 32 32">
<path fill-rule="nonzero" fill="rgb(0%, 0%, 100%)" fill-opacity="1" stroke-width="1" stroke-linecap="butt" stroke-linejoin="miter" stroke="rgb(0%, 0%, 100%)" stroke-opacity="1" stroke-miterlimit="4" d="M 382.041016 322.001953 C 382.041016 542.050781 382.041016 761.958008 382.041016 982.006836 C 363.066406 982.006836 344.941406 982.006836 325.966797 982.006836 C 325.966797 761.958008 325.966797 542.050781 325.966797 322.001953 C 344.941406 322.001953 363.066406 322.001953 382.041016 322.001953 Z M 382.041016 322.001953 " transform="matrix(0.0275862, 0, 0, 0.0275862, 0, 0)"/>
<path fill-rule="nonzero" fill="rgb(0%, 0%, 100%)" fill-opacity="1" d="M 6.785156 28.109375 C 6.785156 26.539062 8.109375 25.269531 9.765625 25.269531 C 11.367188 25.269531 12.691406 26.539062 12.691406 28.109375 C 12.691406 29.710938 11.367188 31.007812 9.765625 31.007812 C 8.109375 31.007812 6.785156 29.710938 6.785156 28.109375 Z M 6.785156 28.109375 "/>
<path fill-rule="nonzero" fill="rgb(0%, 0%, 100%)" fill-opacity="1" d="M 6.675781 28.136719 C 6.675781 28.027344 6.703125 27.945312 6.703125 27.835938 C 6.730469 27.722656 6.730469 27.640625 6.757812 27.53125 C 6.785156 27.449219 6.8125 27.339844 6.839844 27.253906 C 6.867188 27.171875 6.925781 27.0625 6.953125 26.980469 C 6.980469 26.898438 7.035156 26.8125 7.0625 26.730469 C 7.117188 26.648438 7.171875 26.539062 7.226562 26.457031 C 7.28125 26.371094 7.339844 26.316406 7.394531 26.234375 C 7.449219 26.179688 7.53125 26.097656 7.585938 26.042969 C 7.667969 25.984375 7.722656 25.902344 7.808594 25.847656 C 7.890625 25.792969 7.945312 25.738281 8.027344 25.683594 C 8.109375 25.628906 8.21875 25.574219 8.304688 25.515625 C 8.386719 25.488281 8.46875 25.433594 8.550781 25.40625 C 8.632812 25.378906 8.746094 25.324219 8.828125 25.296875 C 8.9375 25.269531 9.019531 25.269531 9.132812 25.242188 C 9.242188 25.214844 9.324219 25.214844 9.433594 25.1875 C 9.542969 25.1875 9.65625 25.160156 9.765625 25.160156 C 9.875 25.160156 9.957031 25.1875 10.070312 25.1875 C 10.152344 25.214844 10.261719 25.214844 10.34375 25.242188 C 10.457031 25.269531 10.539062 25.269531 10.648438 25.296875 C 10.730469 25.324219 10.839844 25.378906 10.925781 25.40625 C 11.007812 25.433594 11.117188 25.488281 11.199219 25.515625 C 11.28125 25.574219 11.367188 25.628906 11.449219 25.683594 C 11.53125 25.738281 11.585938 25.792969 11.667969 25.847656 C 11.75 25.902344 11.835938 25.984375 11.917969 26.042969 C 11.972656 26.097656 12.054688 26.179688 12.109375 26.234375 C 12.164062 26.316406 12.21875 26.371094 12.277344 26.457031 C 12.332031 26.539062 12.359375 26.621094 12.414062 26.703125 C 12.46875 26.785156 12.496094 26.867188 12.550781 26.953125 C 12.578125 27.035156 12.632812 27.144531 12.660156 27.226562 C 12.691406 27.308594 12.691406 27.421875 12.71875 27.503906 C 12.746094 27.613281 12.746094 27.695312 12.773438 27.808594 C 12.773438 27.917969 12.800781 28 12.800781 28.109375 C 12.800781 28.21875 12.773438 28.304688 12.773438 28.414062 C 12.773438 28.523438 12.746094 28.605469 12.746094 28.71875 C 12.71875 28.800781 12.691406 28.910156 12.660156 28.992188 C 12.632812 29.074219 12.578125 29.1875 12.550781 29.269531 C 12.496094 29.351562 12.46875 29.460938 12.414062 29.542969 C 12.359375 29.628906 12.332031 29.683594 12.277344 29.765625 C 12.21875 29.847656 12.164062 29.902344 12.109375 29.984375 C 12.054688 30.070312 11.972656 30.125 11.917969 30.207031 C 11.835938 30.289062 11.75 30.34375 11.667969 30.425781 C 11.585938 30.484375 11.53125 30.511719 11.449219 30.566406 C 11.367188 30.621094 11.308594 30.675781 11.226562 30.730469 C 11.117188 30.785156 11.035156 30.8125 10.925781 30.867188 C 10.839844 30.898438 10.730469 30.925781 10.648438 30.953125 C 10.539062 30.980469 10.457031 30.980469 10.34375 31.007812 C 10.261719 31.035156 10.152344 31.035156 10.070312 31.0625 C 9.957031 31.0625 9.875 31.089844 9.765625 31.089844 C 9.65625 31.089844 9.574219 31.0625 9.460938 31.0625 C 9.351562 31.035156 9.242188 31.035156 9.132812 31.007812 C 9.046875 30.980469 8.9375 30.980469 8.855469 30.953125 C 8.773438 30.925781 8.660156 30.898438 8.578125 30.867188 C 8.496094 30.8125 8.386719 30.785156 8.304688 30.730469 C 8.21875 30.675781 8.136719 30.621094 8.054688 30.566406 C 7.972656 30.511719 7.890625 30.484375 7.808594 30.425781 C 7.722656 30.371094 7.667969 30.289062 7.585938 30.234375 C 7.53125 30.152344 7.476562 30.097656 7.421875 30.015625 C 7.367188 29.929688 7.28125 29.875 7.226562 29.792969 C 7.171875 29.710938 7.117188 29.628906 7.0625 29.542969 C 7.035156 29.460938 6.980469 29.351562 6.953125 29.269531 C 6.925781 29.1875 6.867188 29.101562 6.839844 29.019531 C 6.8125 28.910156 6.785156 28.828125 6.757812 28.71875 C 6.730469 28.632812 6.730469 28.523438 6.703125 28.441406 C 6.703125 28.332031 6.675781 28.25 6.675781 28.136719 Z M 6.898438 28.386719 C 6.925781 28.46875 6.925781 28.578125 6.953125 28.660156 C 6.980469 28.746094 6.980469 28.855469 7.007812 28.9375 C 7.035156 29.019531 7.089844 29.101562 7.117188 29.1875 C 7.144531 29.269531 7.199219 29.351562 7.226562 29.433594 C 7.28125 29.515625 7.308594 29.601562 7.367188 29.683594 C 7.421875 29.738281 7.476562 29.820312 7.53125 29.875 C 7.585938 29.929688 7.640625 30.015625 7.695312 30.070312 C 7.78125 30.125 7.835938 30.207031 7.917969 30.261719 C 8 30.316406 8.054688 30.371094 8.136719 30.425781 C 8.21875 30.484375 8.304688 30.511719 8.386719 30.566406 C 8.46875 30.59375 8.523438 30.648438 8.605469 30.675781 C 8.691406 30.703125 8.800781 30.730469 8.882812 30.757812 C 8.992188 30.785156 9.074219 30.8125 9.1875 30.839844 C 9.269531 30.839844 9.378906 30.867188 9.460938 30.867188 C 9.574219 30.867188 9.65625 30.898438 9.765625 30.898438 C 9.847656 30.898438 9.957031 30.867188 10.042969 30.867188 C 10.125 30.867188 10.234375 30.839844 10.316406 30.839844 C 10.398438 30.8125 10.511719 30.785156 10.59375 30.757812 C 10.675781 30.730469 10.785156 30.703125 10.867188 30.675781 C 10.953125 30.648438 11.007812 30.59375 11.089844 30.566406 C 11.171875 30.511719 11.28125 30.484375 11.367188 30.425781 C 11.421875 30.371094 11.503906 30.316406 11.558594 30.261719 C 11.640625 30.207031 11.695312 30.152344 11.78125 30.097656 C 11.835938 30.015625 11.917969 29.957031 11.972656 29.875 C 12.027344 29.820312 12.054688 29.738281 12.109375 29.683594 C 12.164062 29.601562 12.191406 29.515625 12.25 29.433594 C 12.304688 29.351562 12.332031 29.296875 12.386719 29.214844 C 12.414062 29.132812 12.441406 29.046875 12.46875 28.964844 C 12.496094 28.882812 12.523438 28.773438 12.550781 28.691406 C 12.550781 28.605469 12.578125 28.496094 12.578125 28.414062 C 12.578125 28.332031 12.605469 28.21875 12.605469 28.136719 C 12.605469 28.027344 12.605469 27.945312 12.605469 27.835938 C 12.578125 27.75 12.578125 27.667969 12.550781 27.585938 C 12.523438 27.503906 12.523438 27.394531 12.496094 27.308594 C 12.46875 27.226562 12.414062 27.144531 12.386719 27.0625 C 12.332031 26.980469 12.304688 26.898438 12.25 26.8125 C 12.191406 26.730469 12.164062 26.675781 12.109375 26.59375 C 12.054688 26.511719 12.027344 26.457031 11.972656 26.371094 C 11.917969 26.316406 11.835938 26.234375 11.78125 26.179688 C 11.695312 26.125 11.640625 26.042969 11.558594 25.984375 C 11.503906 25.929688 11.421875 25.902344 11.367188 25.847656 C 11.28125 25.792969 11.199219 25.765625 11.117188 25.710938 C 11.035156 25.65625 10.953125 25.628906 10.867188 25.574219 C 10.785156 25.542969 10.703125 25.488281 10.621094 25.460938 C 10.539062 25.460938 10.425781 25.433594 10.34375 25.433594 C 10.261719 25.40625 10.152344 25.40625 10.070312 25.378906 C 9.957031 25.378906 9.875 25.351562 9.765625 25.351562 C 9.65625 25.351562 9.574219 25.378906 9.460938 25.378906 C 9.378906 25.40625 9.269531 25.40625 9.1875 25.433594 C 9.074219 25.433594 8.992188 25.460938 8.882812 25.460938 C 8.800781 25.488281 8.71875 25.542969 8.632812 25.574219 C 8.550781 25.601562 8.46875 25.65625 8.386719 25.683594 C 8.304688 25.738281 8.21875 25.765625 8.136719 25.820312 C 8.054688 25.875 8 25.929688 7.917969 25.984375 C 7.863281 26.042969 7.78125 26.125 7.722656 26.179688 C 7.667969 26.234375 7.613281 26.289062 7.558594 26.34375 C 7.503906 26.425781 7.449219 26.484375 7.394531 26.566406 C 7.339844 26.648438 7.28125 26.703125 7.226562 26.785156 C 7.199219 26.867188 7.144531 26.980469 7.117188 27.0625 C 7.089844 27.144531 7.035156 27.226562 7.007812 27.308594 C 6.980469 27.394531 6.980469 27.476562 6.953125 27.558594 C 6.925781 27.640625 6.925781 27.75 6.898438 27.835938 C 6.898438 27.917969 6.867188 28.027344 6.867188 28.109375 C 6.867188 28.191406 6.898438 28.304688 6.898438 28.386719 Z M 6.898438 28.386719 "/>
<path fill="none" stroke-width="1" stroke-linecap="butt" stroke-linejoin="miter" stroke="rgb(0%, 0%, 100%)" stroke-opacity="1" stroke-miterlimit="4" d="M 241.99707 1019.956055 C 241.99707 1015.991211 242.988281 1013.017578 242.988281 1009.052734 C 243.979492 1004.946289 243.979492 1001.972656 244.970703 998.007812 C 245.961914 995.03418 246.953125 991.069336 247.944336 987.954102 C 248.935547 984.980469 251.05957 981.015625 252.050781 978.041992 C 253.041992 975.068359 255.024414 971.953125 256.015625 968.979492 C 257.998047 966.005859 259.980469 962.041016 261.962891 959.067383 C 263.945312 955.952148 266.069336 953.969727 268.051758 950.996094 C 270.03418 949.013672 273.007812 946.040039 274.990234 944.057617 C 277.963867 941.933594 279.946289 938.959961 283.061523 936.977539 C 286.035156 934.995117 288.017578 933.012695 290.991211 931.030273 C 293.964844 929.047852 297.929687 927.06543 301.044922 924.941406 C 304.018555 923.950195 306.992187 921.967773 309.96582 920.976562 C 312.939453 919.985352 317.045898 918.00293 320.019531 917.011719 C 323.984375 916.020508 326.958008 916.020508 331.064453 915.029297 C 335.029297 914.038086 338.00293 914.038086 341.967773 913.046875 C 345.932617 913.046875 350.039062 912.055664 354.003906 912.055664 C 357.96875 912.055664 360.942383 913.046875 365.048828 913.046875 C 368.022461 914.038086 371.987305 914.038086 374.960937 915.029297 C 379.067383 916.020508 382.041016 916.020508 386.005859 917.011719 C 388.979492 918.00293 392.944336 919.985352 396.05957 920.976562 C 399.033203 921.967773 402.998047 923.950195 405.97168 924.941406 C 408.945312 927.06543 412.060547 929.047852 415.03418 931.030273 C 418.007812 933.012695 419.990234 934.995117 422.963867 936.977539 C 425.9375 938.959961 429.052734 941.933594 432.026367 944.057617 C 434.008789 946.040039 436.982422 949.013672 438.964844 950.996094 C 440.947266 953.969727 442.929687 955.952148 445.053711 959.067383 C 447.036133 962.041016 448.027344 965.014648 450.009766 967.988281 C 451.992187 970.961914 452.983398 973.935547 454.96582 977.050781 C 455.957031 980.024414 457.939453 983.989258 458.930664 986.962891 C 460.063477 989.936523 460.063477 994.042969 461.054687 997.016602 C 462.045898 1000.981445 462.045898 1003.955078 463.037109 1008.061523 C 463.037109 1012.026367 464.02832 1015 464.02832 1018.964844 C 464.02832 1022.929687 463.037109 1026.044922 463.037109 1030.009766 C 463.037109 1033.974609 462.045898 1036.948242 462.045898 1041.054687 C 461.054687 1044.02832 460.063477 1047.993164 458.930664 1050.966797 C 457.939453 1053.94043 455.957031 1058.046875 454.96582 1061.020508 C 452.983398 1063.994141 451.992187 1067.958984 450.009766 1070.932617 C 448.027344 1074.047852 447.036133 1076.030273 445.053711 1079.003906 C 442.929687 1081.977539 440.947266 1083.959961 438.964844 1086.933594 C 436.982422 1090.048828 434.008789 1092.03125 432.026367 1095.004883 C 429.052734 1097.978516 425.9375 1099.960937 422.963867 1102.93457 C 419.990234 1105.058594 418.007812 1106.049805 415.03418 1108.032227 C 412.060547 1110.014648 409.936523 1111.99707 406.962891 1113.979492 C 402.998047 1115.961914 400.024414 1116.953125 396.05957 1118.935547 C 392.944336 1120.068359 388.979492 1121.05957 386.005859 1122.050781 C 382.041016 1123.041992 379.067383 1123.041992 374.960937 1124.033203 C 371.987305 1125.024414 368.022461 1125.024414 365.048828 1126.015625 C 360.942383 1126.015625 357.96875 1127.006836 354.003906 1127.006836 C 350.039062 1127.006836 347.06543 1126.015625 342.958984 1126.015625 C 338.994141 1125.024414 335.029297 1125.024414 331.064453 1124.033203 C 327.949219 1123.041992 323.984375 1123.041992 321.010742 1122.050781 C 318.037109 1121.05957 313.930664 1120.068359 310.957031 1118.935547 C 307.983398 1116.953125 304.018555 1115.961914 301.044922 1113.979492 C 297.929687 1111.99707 294.956055 1110.014648 291.982422 1108.032227 C 289.008789 1106.049805 286.035156 1105.058594 283.061523 1102.93457 C 279.946289 1100.952148 277.963867 1097.978516 274.990234 1095.996094 C 273.007812 1093.022461 271.025391 1091.040039 269.042969 1088.066406 C 267.060547 1084.951172 263.945312 1082.96875 261.962891 1079.995117 C 259.980469 1077.021484 257.998047 1074.047852 256.015625 1070.932617 C 255.024414 1067.958984 253.041992 1063.994141 252.050781 1061.020508 C 251.05957 1058.046875 248.935547 1054.931641 247.944336 1051.958008 C 246.953125 1047.993164 245.961914 1045.019531 244.970703 1041.054687 C 243.979492 1037.939453 243.979492 1033.974609 242.988281 1031.000977 C 242.988281 1027.036133 241.99707 1024.0625 241.99707 1019.956055 Z M 241.99707 1019.956055 " transform="matrix(0.0275862, 0, 0, 0.0275862, 0, 0)"/>
<path fill="none" stroke-width="1" stroke-linecap="butt" stroke-linejoin="miter" stroke="rgb(0%, 0%, 100%)" stroke-opacity="1" stroke-miterlimit="4" d="M 250.068359 1029.018555 C 251.05957 1031.992187 251.05957 1035.957031 252.050781 1038.930664 C 253.041992 1042.045898 253.041992 1046.010742 254.033203 1048.984375 C 255.024414 1051.958008 257.006836 1054.931641 257.998047 1058.046875 C 258.989258 1061.020508 260.97168 1063.994141 261.962891 1066.967773 C 263.945312 1069.941406 264.936523 1073.056641 267.060547 1076.030273 C 269.042969 1078.012695 271.025391 1080.986328 273.007812 1082.96875 C 274.990234 1084.951172 276.972656 1088.066406 278.955078 1090.048828 C 282.070312 1092.03125 284.052734 1095.004883 287.026367 1096.987305 C 290 1098.969727 291.982422 1100.952148 294.956055 1102.93457 C 297.929687 1105.058594 301.044922 1106.049805 304.018555 1108.032227 C 306.992187 1109.023437 308.974609 1111.005859 311.948242 1111.99707 C 315.063477 1112.988281 319.02832 1113.979492 322.001953 1114.970703 C 325.966797 1115.961914 328.94043 1116.953125 333.046875 1117.944336 C 336.020508 1117.944336 339.985352 1118.935547 342.958984 1118.935547 C 347.06543 1118.935547 350.039062 1120.068359 354.003906 1120.068359 C 356.977539 1120.068359 360.942383 1118.935547 364.057617 1118.935547 C 367.03125 1118.935547 370.996094 1117.944336 373.969727 1117.944336 C 376.943359 1116.953125 381.049805 1115.961914 384.023437 1114.970703 C 386.99707 1113.979492 390.961914 1112.988281 393.935547 1111.99707 C 397.050781 1111.005859 399.033203 1109.023437 402.006836 1108.032227 C 404.980469 1106.049805 408.945312 1105.058594 412.060547 1102.93457 C 414.042969 1100.952148 417.016602 1098.969727 418.999023 1096.987305 C 421.972656 1095.004883 423.955078 1093.022461 427.070312 1091.040039 C 429.052734 1088.066406 432.026367 1085.942383 434.008789 1082.96875 C 435.991211 1080.986328 436.982422 1078.012695 438.964844 1076.030273 C 440.947266 1073.056641 441.938477 1069.941406 444.0625 1066.967773 C 446.044922 1063.994141 447.036133 1062.011719 449.018555 1059.038086 C 450.009766 1056.064453 451.000977 1052.949219 451.992187 1049.975586 C 452.983398 1047.001953 453.974609 1043.037109 454.96582 1040.063477 C 454.96582 1036.948242 455.957031 1032.983398 455.957031 1030.009766 C 455.957031 1027.036133 456.948242 1022.929687 456.948242 1019.956055 C 456.948242 1015.991211 456.948242 1013.017578 456.948242 1009.052734 C 455.957031 1005.9375 455.957031 1002.963867 454.96582 999.990234 C 453.974609 997.016602 453.974609 993.051758 452.983398 989.936523 C 451.992187 986.962891 450.009766 983.989258 449.018555 981.015625 C 447.036133 978.041992 446.044922 975.068359 444.0625 971.953125 C 441.938477 968.979492 440.947266 966.99707 438.964844 964.023437 C 436.982422 961.049805 435.991211 959.067383 434.008789 955.952148 C 432.026367 953.969727 429.052734 950.996094 427.070312 949.013672 C 423.955078 947.03125 421.972656 944.057617 418.999023 941.933594 C 417.016602 939.951172 414.042969 938.959961 412.060547 936.977539 C 408.945312 934.995117 405.97168 934.003906 402.998047 932.021484 C 400.024414 930.039062 397.050781 929.047852 393.935547 927.06543 C 390.961914 925.932617 387.988281 923.950195 385.014648 922.958984 C 382.041016 922.958984 377.93457 921.967773 374.960937 921.967773 C 371.987305 920.976562 368.022461 920.976562 365.048828 919.985352 C 360.942383 919.985352 357.96875 918.994141 354.003906 918.994141 C 350.039062 918.994141 347.06543 919.985352 342.958984 919.985352 C 339.985352 920.976562 336.020508 920.976562 333.046875 921.967773 C 328.94043 921.967773 325.966797 922.958984 322.001953 922.958984 C 319.02832 923.950195 316.054687 925.932617 312.939453 927.06543 C 309.96582 928.056641 306.992187 930.039062 304.018555 931.030273 C 301.044922 933.012695 297.929687 934.003906 294.956055 935.986328 C 291.982422 937.96875 290 939.951172 287.026367 941.933594 C 285.043945 944.057617 282.070312 947.03125 279.946289 949.013672 C 277.963867 950.996094 275.981445 952.978516 273.999023 954.960937 C 272.016602 957.93457 270.03418 960.058594 268.051758 963.032227 C 266.069336 966.005859 263.945312 967.988281 261.962891 970.961914 C 260.97168 973.935547 258.989258 978.041992 257.998047 981.015625 C 257.006836 983.989258 255.024414 986.962891 254.033203 989.936523 C 253.041992 993.051758 253.041992 996.025391 252.050781 998.999023 C 251.05957 1001.972656 251.05957 1005.9375 250.068359 1009.052734 C 250.068359 1012.026367 248.935547 1015.991211 248.935547 1018.964844 C 248.935547 1021.938477 250.068359 1026.044922 250.068359 1029.018555 Z M 250.068359 1029.018555 " transform="matrix(0.0275862, 0, 0, 0.0275862, 0, 0)"/>
<path fill-rule="nonzero" fill="rgb(0%, 0%, 100%)" fill-opacity="1" d="M 8.9375 8.882812 C 8.9375 8.746094 8.964844 8.632812 8.964844 8.496094 C 8.964844 8.359375 8.992188 8.21875 8.992188 8.082031 C 8.992188 7.945312 9.019531 7.808594 9.019531 7.667969 C 9.046875 7.53125 9.074219 7.421875 9.101562 7.28125 C 9.132812 7.171875 9.160156 7.035156 9.1875 6.925781 C 9.242188 6.785156 9.269531 6.648438 9.324219 6.511719 C 9.378906 6.398438 9.40625 6.261719 9.460938 6.152344 C 9.515625 6.042969 9.542969 5.902344 9.601562 5.792969 C 9.65625 5.683594 9.710938 5.542969 9.765625 5.433594 C 9.820312 5.324219 9.875 5.214844 9.929688 5.101562 C 9.984375 4.992188 10.070312 4.855469 10.125 4.746094 C 10.207031 4.632812 10.261719 4.550781 10.34375 4.441406 C 10.425781 4.332031 10.484375 4.25 10.566406 4.136719 C 10.648438 4.027344 10.730469 3.945312 10.8125 3.835938 C 10.898438 3.75 11.007812 3.640625 11.089844 3.558594 C 11.171875 3.476562 11.28125 3.367188 11.367188 3.28125 C 11.449219 3.171875 11.558594 3.089844 11.640625 2.980469 C 11.722656 2.898438 11.835938 2.839844 11.917969 2.757812 C 12.027344 2.675781 12.136719 2.59375 12.25 2.511719 C 12.359375 2.425781 12.441406 2.371094 12.550781 2.289062 C 12.660156 2.234375 12.773438 2.152344 12.882812 2.097656 C 12.992188 2.042969 13.132812 1.957031 13.242188 1.902344 C 13.351562 1.847656 13.460938 1.765625 13.574219 1.710938 C 13.683594 1.65625 13.820312 1.601562 13.929688 1.542969 C 14.070312 1.488281 14.179688 1.460938 14.316406 1.40625 C 14.457031 1.378906 14.566406 1.324219 14.703125 1.296875 C 14.8125 1.269531 14.953125 1.214844 15.0625 1.1875 C 15.199219 1.160156 15.339844 1.101562 15.476562 1.074219 C 15.613281 1.046875 15.75 1.046875 15.890625 1.019531 C 16.027344 0.992188 16.136719 0.992188 16.277344 0.964844 C 16.414062 0.964844 16.550781 0.9375 16.691406 0.9375 C 16.828125 0.9375 16.964844 0.9375 17.101562 0.9375 C 17.242188 0.9375 17.40625 0.9375 17.542969 0.9375 C 17.683594 0.9375 17.820312 0.964844 17.957031 0.964844 C 18.097656 0.992188 18.234375 0.992188 18.371094 1.019531 C 18.511719 1.046875 18.621094 1.046875 18.757812 1.074219 C 18.898438 1.101562 19.007812 1.160156 19.144531 1.1875 C 19.28125 1.214844 19.421875 1.242188 19.558594 1.269531 C 19.667969 1.324219 19.808594 1.351562 19.917969 1.40625 C 20.054688 1.460938 20.164062 1.488281 20.304688 1.542969 C 20.414062 1.601562 20.550781 1.65625 20.660156 1.710938 C 20.773438 1.765625 20.910156 1.820312 21.019531 1.875 C 21.132812 1.929688 21.242188 2.015625 21.351562 2.070312 C 21.460938 2.125 21.574219 2.207031 21.683594 2.261719 C 21.792969 2.34375 21.902344 2.398438 22.015625 2.484375 C 22.125 2.566406 22.207031 2.621094 22.316406 2.703125 C 22.425781 2.785156 22.511719 2.898438 22.621094 2.980469 C 22.703125 3.0625 22.8125 3.144531 22.898438 3.226562 C 22.980469 3.339844 23.089844 3.421875 23.171875 3.53125 C 23.253906 3.613281 23.339844 3.722656 23.421875 3.808594 C 23.503906 3.917969 23.613281 4 23.695312 4.109375 C 23.78125 4.21875 23.835938 4.304688 23.917969 4.414062 C 24 4.523438 24.054688 4.632812 24.136719 4.746094 C 24.191406 4.855469 24.25 4.9375 24.304688 5.046875 C 24.359375 5.160156 24.441406 5.296875 24.496094 5.40625 C 24.550781 5.515625 24.605469 5.65625 24.660156 5.765625 C 24.71875 5.875 24.773438 6.015625 24.828125 6.125 C 24.855469 6.261719 24.910156 6.371094 24.9375 6.511719 C 24.964844 6.621094 25.019531 6.757812 25.046875 6.867188 C 25.074219 7.007812 25.132812 7.117188 25.160156 7.253906 C 25.1875 7.394531 25.1875 7.503906 25.214844 7.640625 C 25.242188 7.78125 25.269531 7.917969 25.296875 8.054688 C 25.296875 8.191406 25.324219 8.304688 25.324219 8.441406 C 25.324219 8.578125 25.324219 8.71875 25.324219 8.855469 C 25.324219 8.992188 25.324219 9.132812 25.324219 9.269531 C 25.324219 9.40625 25.296875 9.542969 25.296875 9.683594 C 25.269531 9.820312 25.269531 9.929688 25.242188 10.070312 C 25.214844 10.207031 25.1875 10.316406 25.160156 10.457031 C 25.132812 10.59375 25.101562 10.703125 25.074219 10.839844 C 25.046875 10.980469 24.992188 11.089844 24.964844 11.226562 C 24.910156 11.367188 24.882812 11.476562 24.828125 11.613281 C 24.773438 11.722656 24.746094 11.835938 24.691406 11.945312 C 24.632812 12.082031 24.578125 12.191406 24.523438 12.332031 C 24.46875 12.441406 24.386719 12.550781 24.332031 12.660156 C 24.277344 12.773438 24.191406 12.882812 24.136719 12.992188 C 24.082031 13.101562 24 13.214844 23.945312 13.324219 C 23.863281 13.433594 23.78125 13.515625 23.695312 13.628906 C 23.613281 13.738281 23.53125 13.820312 23.449219 13.929688 C 23.367188 14.042969 23.28125 14.125 23.199219 14.234375 C 23.117188 14.316406 23.007812 14.398438 22.925781 14.484375 C 22.839844 14.566406 22.730469 14.675781 22.648438 14.757812 C 22.539062 14.839844 22.457031 14.925781 22.34375 15.007812 C 22.234375 15.089844 22.152344 15.171875 22.042969 15.253906 C 21.929688 15.308594 21.820312 15.394531 21.710938 15.449219 C 21.601562 15.53125 21.488281 15.585938 21.378906 15.667969 C 21.269531 15.722656 21.160156 15.808594 21.046875 15.863281 C 20.9375 15.917969 20.800781 16 20.691406 16.054688 C 20.578125 16.109375 20.441406 16.136719 20.332031 16.191406 C 20.21875 16.25 20.082031 16.277344 19.972656 16.332031 C 19.835938 16.386719 19.722656 16.414062 19.585938 16.46875 C 19.449219 16.496094 19.339844 16.550781 19.199219 16.578125 C 19.0625 16.605469 18.953125 16.632812 18.8125 16.660156 C 18.675781 16.691406 18.539062 16.71875 18.398438 16.746094 C 18.261719 16.746094 18.125 16.773438 17.984375 16.773438 C 17.847656 16.773438 17.710938 16.800781 17.574219 16.800781 C 17.433594 16.800781 17.296875 16.828125 17.160156 16.828125 C 17.019531 16.828125 16.882812 16.800781 16.746094 16.800781 C 16.605469 16.800781 16.46875 16.773438 16.332031 16.773438 C 16.191406 16.773438 16.054688 16.746094 15.917969 16.746094 C 15.78125 16.71875 15.640625 16.691406 15.503906 16.660156 C 15.367188 16.632812 15.253906 16.605469 15.117188 16.578125 C 14.980469 16.550781 14.867188 16.523438 14.730469 16.496094 C 14.59375 16.441406 14.484375 16.386719 14.34375 16.332031 C 14.234375 16.277344 14.097656 16.25 13.984375 16.191406 C 13.847656 16.136719 13.738281 16.109375 13.601562 16.054688 C 13.488281 16 13.378906 15.945312 13.269531 15.890625 C 13.160156 15.835938 13.019531 15.75 12.910156 15.695312 C 12.800781 15.613281 12.691406 15.558594 12.578125 15.476562 C 12.46875 15.421875 12.359375 15.339844 12.25 15.28125 C 12.164062 15.199219 12.054688 15.117188 11.972656 15.035156 C 11.863281 14.953125 11.78125 14.867188 11.667969 14.785156 C 11.558594 14.703125 11.476562 14.59375 11.367188 14.511719 C 11.28125 14.425781 11.171875 14.34375 11.089844 14.261719 C 11.007812 14.152344 10.925781 14.070312 10.839844 13.957031 C 10.757812 13.847656 10.675781 13.765625 10.59375 13.65625 C 10.511719 13.542969 10.425781 13.460938 10.34375 13.351562 C 10.289062 13.242188 10.207031 13.132812 10.152344 13.019531 C 10.097656 12.910156 10.015625 12.800781 9.957031 12.691406 C 9.902344 12.578125 9.820312 12.46875 9.765625 12.359375 C 9.710938 12.25 9.683594 12.109375 9.628906 12 C 9.574219 11.890625 9.515625 11.75 9.460938 11.640625 C 9.40625 11.53125 9.378906 11.394531 9.324219 11.28125 C 9.296875 11.144531 9.242188 11.035156 9.214844 10.898438 C 9.1875 10.757812 9.160156 10.648438 9.132812 10.511719 C 9.101562 10.371094 9.074219 10.261719 9.046875 10.125 C 9.019531 9.984375 9.019531 9.875 8.992188 9.738281 C 8.992188 9.601562 8.964844 9.433594 8.964844 9.296875 C 8.964844 9.160156 8.9375 9.019531 8.9375 8.882812 Z M 10.511719 9.1875 C 10.511719 9.296875 10.539062 9.40625 10.539062 9.515625 C 10.566406 9.628906 10.566406 9.710938 10.59375 9.820312 C 10.621094 9.929688 10.621094 10.042969 10.648438 10.152344 C 10.675781 10.261719 10.675781 10.34375 10.703125 10.457031 C 10.730469 10.566406 10.757812 10.648438 10.785156 10.757812 C 10.839844 10.867188 10.867188 10.953125 10.925781 11.0625 C 10.953125 11.144531 11.007812 11.253906 11.035156 11.339844 C 11.0625 11.421875 11.117188 11.53125 11.144531 11.613281 C 11.199219 11.695312 11.253906 11.808594 11.308594 11.890625 C 11.367188 11.972656 11.394531 12.082031 11.449219 12.164062 C 11.503906 12.25 11.585938 12.332031 11.640625 12.414062 C 11.695312 12.496094 11.75 12.578125 11.808594 12.660156 C 11.863281 12.746094 11.945312 12.828125 12 12.910156 C 12.082031 12.992188 12.136719 13.046875 12.21875 13.132812 C 12.277344 13.214844 12.359375 13.296875 12.414062 13.378906 C 12.496094 13.433594 12.578125 13.515625 12.660156 13.574219 C 12.746094 13.628906 12.800781 13.710938 12.882812 13.765625 C 12.964844 13.847656 13.046875 13.902344 13.132812 13.984375 C 13.214844 14.042969 13.324219 14.097656 13.40625 14.152344 C 13.488281 14.207031 13.601562 14.261719 13.683594 14.316406 C 13.765625 14.371094 13.875 14.398438 13.957031 14.457031 C 14.042969 14.511719 14.152344 14.539062 14.234375 14.59375 C 14.34375 14.648438 14.425781 14.675781 14.539062 14.730469 C 14.648438 14.785156 14.730469 14.8125 14.839844 14.867188 C 14.953125 14.898438 15.035156 14.925781 15.144531 14.953125 C 15.253906 14.980469 15.367188 15.007812 15.476562 15.035156 C 15.585938 15.0625 15.667969 15.089844 15.78125 15.117188 C 15.890625 15.144531 16 15.144531 16.109375 15.171875 C 16.21875 15.171875 16.332031 15.199219 16.441406 15.199219 C 16.550781 15.226562 16.660156 15.226562 16.773438 15.253906 C 16.882812 15.253906 16.992188 15.253906 17.101562 15.253906 C 17.214844 15.253906 17.351562 15.253906 17.460938 15.253906 C 17.574219 15.253906 17.710938 15.226562 17.820312 15.226562 C 17.929688 15.199219 18.015625 15.199219 18.125 15.171875 C 18.234375 15.144531 18.34375 15.144531 18.457031 15.117188 C 18.566406 15.089844 18.675781 15.0625 18.785156 15.035156 C 18.898438 15.007812 18.980469 15.007812 19.089844 14.980469 C 19.199219 14.953125 19.308594 14.898438 19.421875 14.867188 C 19.53125 14.839844 19.613281 14.785156 19.722656 14.757812 C 19.808594 14.703125 19.917969 14.675781 20 14.621094 C 20.109375 14.566406 20.191406 14.539062 20.304688 14.484375 C 20.386719 14.425781 20.496094 14.371094 20.578125 14.316406 C 20.660156 14.261719 20.746094 14.207031 20.828125 14.152344 C 20.910156 14.097656 20.992188 14.042969 21.074219 13.984375 C 21.160156 13.929688 21.269531 13.847656 21.351562 13.792969 C 21.433594 13.738281 21.515625 13.65625 21.601562 13.601562 C 21.65625 13.542969 21.738281 13.460938 21.792969 13.40625 C 21.875 13.324219 21.957031 13.242188 22.042969 13.160156 C 22.097656 13.074219 22.179688 13.019531 22.234375 12.9375 C 22.289062 12.855469 22.371094 12.773438 22.425781 12.691406 C 22.484375 12.605469 22.566406 12.523438 22.621094 12.441406 C 22.675781 12.359375 22.757812 12.277344 22.8125 12.191406 C 22.867188 12.109375 22.898438 12.027344 22.953125 11.945312 C 23.007812 11.835938 23.0625 11.75 23.117188 11.640625 C 23.171875 11.558594 23.199219 11.449219 23.253906 11.367188 C 23.28125 11.253906 23.339844 11.171875 23.367188 11.0625 C 23.394531 10.980469 23.421875 10.867188 23.449219 10.785156 C 23.476562 10.675781 23.53125 10.59375 23.558594 10.484375 C 23.585938 10.371094 23.585938 10.289062 23.613281 10.179688 C 23.640625 10.070312 23.667969 9.984375 23.695312 9.875 C 23.695312 9.765625 23.722656 9.65625 23.722656 9.542969 C 23.722656 9.433594 23.75 9.351562 23.75 9.242188 C 23.75 9.132812 23.75 8.992188 23.75 8.882812 C 23.75 8.773438 23.75 8.660156 23.75 8.550781 C 23.75 8.46875 23.722656 8.359375 23.722656 8.277344 C 23.722656 8.164062 23.695312 8.054688 23.695312 7.945312 C 23.667969 7.835938 23.667969 7.722656 23.640625 7.613281 C 23.613281 7.503906 23.585938 7.421875 23.558594 7.308594 C 23.53125 7.199219 23.503906 7.117188 23.476562 7.007812 C 23.449219 6.898438 23.394531 6.8125 23.367188 6.703125 C 23.339844 6.621094 23.28125 6.511719 23.253906 6.425781 C 23.199219 6.34375 23.171875 6.234375 23.117188 6.152344 C 23.0625 6.070312 23.007812 5.957031 22.953125 5.875 C 22.898438 5.792969 22.867188 5.683594 22.8125 5.601562 C 22.757812 5.515625 22.703125 5.40625 22.648438 5.324219 C 22.59375 5.242188 22.511719 5.160156 22.457031 5.074219 C 22.398438 4.992188 22.316406 4.9375 22.261719 4.855469 C 22.207031 4.773438 22.125 4.691406 22.070312 4.605469 C 21.984375 4.523438 21.929688 4.46875 21.847656 4.386719 C 21.765625 4.304688 21.710938 4.25 21.628906 4.164062 C 21.542969 4.109375 21.433594 4.054688 21.351562 4 C 21.269531 3.917969 21.214844 3.863281 21.132812 3.78125 C 21.046875 3.722656 20.964844 3.667969 20.882812 3.613281 C 20.800781 3.558594 20.691406 3.476562 20.605469 3.421875 C 20.523438 3.367188 20.414062 3.339844 20.332031 3.28125 C 20.21875 3.226562 20.136719 3.199219 20.027344 3.144531 C 19.917969 3.089844 19.835938 3.0625 19.722656 3.007812 C 19.640625 2.980469 19.53125 2.925781 19.449219 2.898438 C 19.339844 2.867188 19.253906 2.839844 19.144531 2.8125 C 19.035156 2.785156 18.925781 2.730469 18.8125 2.703125 C 18.703125 2.675781 18.621094 2.675781 18.511719 2.648438 C 18.398438 2.621094 18.261719 2.59375 18.152344 2.566406 C 18.042969 2.566406 17.929688 2.539062 17.820312 2.539062 C 17.710938 2.539062 17.628906 2.511719 17.515625 2.511719 C 17.40625 2.511719 17.269531 2.511719 17.160156 2.511719 C 17.046875 2.511719 16.910156 2.511719 16.800781 2.511719 C 16.691406 2.511719 16.578125 2.539062 16.46875 2.539062 C 16.359375 2.539062 16.25 2.566406 16.136719 2.566406 C 16.027344 2.59375 15.917969 2.621094 15.808594 2.648438 C 15.695312 2.675781 15.585938 2.675781 15.476562 2.703125 C 15.394531 2.730469 15.28125 2.757812 15.199219 2.785156 C 15.089844 2.8125 14.980469 2.867188 14.867188 2.898438 C 14.757812 2.925781 14.675781 2.980469 14.566406 3.007812 C 14.484375 3.035156 14.371094 3.089844 14.289062 3.117188 C 14.179688 3.171875 14.097656 3.226562 13.984375 3.28125 C 13.902344 3.339844 13.792969 3.367188 13.710938 3.421875 C 13.628906 3.476562 13.515625 3.53125 13.433594 3.585938 C 13.351562 3.640625 13.242188 3.722656 13.160156 3.78125 C 13.074219 3.835938 13.019531 3.917969 12.9375 3.972656 C 12.855469 4.027344 12.773438 4.109375 12.691406 4.164062 C 12.605469 4.21875 12.523438 4.304688 12.441406 4.359375 C 12.386719 4.441406 12.304688 4.523438 12.25 4.605469 C 12.164062 4.691406 12.109375 4.746094 12.027344 4.828125 C 11.972656 4.910156 11.890625 4.964844 11.835938 5.046875 C 11.78125 5.132812 11.722656 5.242188 11.667969 5.324219 C 11.613281 5.40625 11.53125 5.488281 11.476562 5.574219 C 11.421875 5.65625 11.367188 5.738281 11.308594 5.820312 C 11.253906 5.902344 11.226562 6.015625 11.171875 6.097656 C 11.117188 6.179688 11.089844 6.289062 11.035156 6.371094 C 11.007812 6.484375 10.953125 6.566406 10.925781 6.675781 C 10.898438 6.757812 10.839844 6.867188 10.8125 6.953125 C 10.785156 7.0625 10.757812 7.144531 10.730469 7.253906 C 10.703125 7.367188 10.675781 7.476562 10.648438 7.585938 C 10.621094 7.695312 10.621094 7.78125 10.59375 7.890625 C 10.566406 8 10.566406 8.109375 10.539062 8.21875 C 10.539062 8.332031 10.511719 8.441406 10.511719 8.550781 C 10.511719 8.660156 10.511719 8.746094 10.511719 8.855469 C 10.511719 8.964844 10.511719 9.074219 10.511719 9.1875 Z M 10.511719 9.1875 "/>
<path fill="none" stroke-width="1" stroke-linecap="butt" stroke-linejoin="miter" stroke="rgb(0%, 0%, 100%)" stroke-opacity="1" stroke-miterlimit="4" d="M 323.984375 322.001953 C 323.984375 317.045898 324.975586 312.939453 324.975586 307.983398 C 324.975586 303.027344 325.966797 297.929687 325.966797 292.973633 C 325.966797 288.017578 326.958008 283.061523 326.958008 277.963867 C 327.949219 273.007812 328.94043 269.042969 329.931641 263.945312 C 331.064453 259.980469 332.055664 255.024414 333.046875 251.05957 C 335.029297 245.961914 336.020508 241.005859 338.00293 236.049805 C 339.985352 231.943359 340.976562 226.987305 342.958984 223.022461 C 344.941406 219.057617 345.932617 213.959961 348.056641 209.995117 C 350.039062 206.030273 352.021484 200.932617 354.003906 196.967773 C 355.986328 193.00293 357.96875 189.038086 359.951172 184.931641 C 361.933594 180.966797 365.048828 176.010742 367.03125 172.045898 C 370.004883 167.939453 371.987305 164.96582 374.960937 161.000977 C 377.93457 157.036133 380.058594 154.0625 383.032227 149.956055 C 386.005859 145.991211 388.979492 143.017578 391.953125 139.052734 C 395.068359 135.9375 399.033203 131.972656 402.006836 128.999023 C 404.980469 126.025391 408.945312 122.060547 412.060547 118.945312 C 415.03418 114.980469 418.999023 112.006836 421.972656 108.041992 C 424.946289 105.068359 429.052734 102.944336 432.026367 99.970703 C 435.991211 96.99707 439.956055 94.023437 444.0625 91.049805 C 448.027344 87.93457 451.000977 85.952148 454.96582 82.978516 C 458.930664 80.996094 463.037109 78.022461 467.001953 76.040039 C 470.966797 74.057617 476.064453 70.942383 480.029297 68.959961 C 483.994141 66.977539 487.958984 64.003906 492.06543 62.021484 C 496.030273 60.039062 500.986328 58.056641 504.951172 55.932617 C 510.048828 53.950195 514.013672 52.958984 518.969727 50.976562 C 524.067383 49.985352 528.032227 48.00293 532.988281 47.011719 C 536.953125 46.020508 542.050781 44.038086 546.015625 43.046875 C 550.97168 42.055664 556.069336 39.931641 561.025391 38.94043 C 565.981445 37.949219 570.9375 37.949219 576.035156 36.958008 C 580.991211 35.966797 584.956055 35.966797 590.053711 34.975586 C 595.009766 34.975586 599.96582 33.984375 605.063477 33.984375 C 610.019531 33.984375 614.975586 33.984375 619.931641 33.984375 C 625.029297 33.984375 630.976562 33.984375 635.932617 33.984375 C 641.030273 33.984375 645.986328 34.975586 650.942383 34.975586 C 656.040039 35.966797 660.996094 35.966797 665.952148 36.958008 C 671.049805 37.949219 675.014648 37.949219 679.970703 38.94043 C 685.068359 39.931641 689.033203 42.055664 693.989258 43.046875 C 698.945312 44.038086 704.042969 45.029297 708.999023 46.020508 C 712.963867 48.00293 718.061523 48.994141 722.026367 50.976562 C 726.982422 52.958984 730.947266 53.950195 736.044922 55.932617 C 740.009766 58.056641 744.96582 60.039062 748.930664 62.021484 C 753.037109 64.003906 757.993164 65.986328 761.958008 67.96875 C 766.064453 69.951172 770.029297 73.066406 773.994141 75.048828 C 777.958984 77.03125 782.06543 80.004883 786.030273 81.987305 C 789.995117 84.960937 793.959961 86.943359 798.066406 90.058594 C 802.03125 93.032227 805.004883 95.014648 808.969727 97.988281 C 812.93457 100.961914 816.049805 105.068359 820.014648 108.041992 C 822.988281 111.015625 826.953125 113.989258 830.068359 116.962891 C 833.041992 121.069336 837.006836 124.042969 839.980469 128.007812 C 842.954102 130.981445 846.069336 134.946289 849.042969 138.061523 C 852.016602 142.026367 855.981445 145 858.955078 148.964844 C 862.070312 152.929687 864.052734 156.044922 867.026367 160.009766 C 870 163.974609 871.982422 167.939453 874.956055 172.045898 C 876.938477 176.010742 879.0625 178.984375 881.044922 182.949219 C 883.027344 187.055664 886.000977 192.011719 887.983398 195.976562 C 889.96582 199.941406 891.948242 205.039062 893.930664 209.003906 C 896.054687 212.96875 898.037109 218.066406 900.019531 222.03125 C 901.010742 226.987305 902.993164 230.952148 903.984375 236.049805 C 904.975586 240.014648 906.958008 244.970703 907.949219 248.935547 C 908.94043 254.033203 911.064453 257.998047 912.055664 262.954102 C 913.046875 268.051758 913.046875 272.016602 914.038086 276.972656 C 915.029297 282.070312 916.020508 287.026367 917.011719 291.982422 C 917.011719 296.938477 918.00293 301.044922 918.00293 306.000977 C 918.00293 310.957031 918.00293 316.054687 918.00293 321.010742 C 918.00293 325.966797 918.00293 331.064453 918.00293 336.020508 C 918.00293 340.976562 917.011719 345.932617 917.011719 351.030273 C 916.020508 355.986328 916.020508 359.951172 915.029297 365.048828 C 914.038086 370.004883 913.046875 373.969727 912.055664 379.067383 C 911.064453 384.023437 909.931641 387.988281 908.94043 392.944336 C 907.949219 398.041992 905.966797 402.006836 904.975586 406.962891 C 902.993164 412.060547 902.001953 416.025391 900.019531 420.981445 C 898.037109 424.946289 897.045898 429.052734 895.063477 433.017578 C 892.939453 437.973633 890.957031 441.938477 888.974609 447.036133 C 886.992187 451.000977 884.018555 454.96582 882.036133 458.930664 C 880.053711 463.037109 876.938477 467.001953 874.956055 470.966797 C 872.973633 474.931641 870 479.038086 868.017578 483.00293 C 865.043945 486.967773 862.070312 489.941406 858.955078 494.047852 C 855.981445 498.012695 853.007812 500.986328 850.03418 504.951172 C 847.060547 509.057617 843.945312 512.03125 840.97168 515.996094 C 837.998047 518.969727 834.033203 521.943359 831.05957 525.058594 C 827.944336 528.032227 823.979492 531.99707 821.005859 534.970703 C 817.041016 537.944336 814.067383 541.05957 809.960937 544.033203 C 805.996094 547.006836 803.022461 549.980469 799.057617 552.954102 C 794.951172 554.936523 790.986328 558.051758 787.021484 560.03418 C 783.056641 563.007812 778.950195 564.990234 774.985352 567.963867 C 771.020508 569.946289 767.055664 573.061523 762.949219 575.043945 C 758.984375 577.026367 754.02832 580 750.063477 581.982422 C 745.957031 583.964844 741.000977 584.956055 737.036133 586.938477 C 732.929687 589.0625 727.973633 590.053711 724.008789 592.036133 C 719.052734 594.018555 714.946289 595.009766 709.990234 596.992187 C 705.03418 597.983398 701.069336 599.96582 695.97168 600.957031 C 691.015625 601.948242 687.050781 602.939453 681.953125 603.930664 C 676.99707 605.063477 672.041016 606.054687 666.943359 607.045898 C 661.987305 607.045898 657.03125 608.037109 651.933594 608.037109 C 646.977539 608.037109 642.021484 609.02832 637.06543 609.02832 C 631.967773 609.02832 627.011719 610.019531 622.055664 610.019531 C 616.958008 610.019531 612.001953 609.02832 607.045898 609.02832 C 601.948242 609.02832 596.992187 608.037109 592.036133 608.037109 C 586.938477 608.037109 581.982422 607.045898 577.026367 607.045898 C 572.070312 606.054687 566.972656 605.063477 562.016602 603.930664 C 557.060547 602.939453 552.954102 601.948242 547.998047 600.957031 C 543.041992 599.96582 538.935547 598.974609 533.979492 597.983398 C 529.023437 596.000977 525.058594 594.018555 519.960937 592.036133 C 515.996094 590.053711 511.040039 589.0625 506.933594 586.938477 C 501.977539 584.956055 498.012695 583.964844 493.056641 581.982422 C 488.950195 580 484.985352 578.017578 481.020508 576.035156 C 477.055664 574.052734 471.958008 570.9375 467.993164 568.955078 C 464.02832 565.981445 460.063477 563.999023 455.957031 561.025391 C 451.992187 559.042969 448.027344 556.069336 444.0625 553.945312 C 440.947266 550.97168 436.982422 547.998047 434.008789 545.024414 C 430.043945 542.050781 427.070312 538.935547 422.963867 535.961914 C 418.999023 532.988281 416.025391 529.023437 412.060547 526.049805 C 408.945312 522.93457 404.980469 519.960937 402.006836 516.987305 C 399.033203 513.022461 396.05957 510.048828 392.944336 505.942383 C 389.970703 501.977539 386.99707 499.003906 384.023437 495.039062 C 381.049805 490.932617 377.93457 487.958984 374.960937 483.994141 C 372.978516 480.029297 370.004883 476.064453 368.022461 471.958008 C 366.040039 467.993164 363.066406 464.02832 360.942383 460.063477 C 358.959961 455.957031 355.986328 451.992187 354.003906 448.027344 C 352.021484 444.0625 351.030273 438.964844 349.047852 435 C 347.06543 431.035156 344.941406 425.9375 342.958984 421.972656 C 340.976562 418.007812 339.985352 413.051758 338.00293 408.945312 C 337.011719 403.989258 335.029297 400.024414 334.038086 395.068359 C 333.046875 389.970703 332.055664 386.005859 331.064453 381.049805 C 329.931641 375.952148 328.94043 371.987305 327.949219 367.03125 C 326.958008 361.933594 326.958008 357.96875 325.966797 353.012695 C 325.966797 348.056641 324.975586 341.967773 324.975586 337.011719 C 324.975586 332.055664 323.984375 326.958008 323.984375 322.001953 Z M 323.984375 322.001953 " transform="matrix(0.0275862, 0, 0, 0.0275862, 0, 0)"/>
<path fill="none" stroke-width="1" stroke-linecap="butt" stroke-linejoin="miter" stroke="rgb(0%, 0%, 100%)" stroke-opacity="1" stroke-miterlimit="4" d="M 381.049805 333.046875 C 381.049805 337.011719 382.041016 340.976562 382.041016 344.941406 C 383.032227 349.047852 383.032227 352.021484 384.023437 355.986328 C 385.014648 359.951172 385.014648 364.057617 386.005859 368.022461 C 386.99707 371.987305 386.99707 374.960937 387.988281 379.067383 C 388.979492 383.032227 389.970703 386.005859 390.961914 389.970703 C 392.944336 393.935547 393.935547 397.050781 396.05957 401.015625 C 397.050781 403.989258 399.033203 407.954102 400.024414 411.069336 C 401.015625 414.042969 402.998047 418.007812 403.989258 420.981445 C 405.97168 423.955078 407.954102 428.061523 409.936523 431.035156 C 412.060547 434.008789 413.051758 437.973633 415.03418 440.947266 C 417.016602 444.0625 419.990234 447.036133 421.972656 450.009766 C 423.955078 452.983398 425.9375 455.957031 428.061523 458.930664 C 430.043945 462.045898 433.017578 465.019531 435 467.993164 C 437.973633 470.966797 439.956055 472.949219 442.929687 476.064453 C 445.053711 479.038086 448.027344 482.011719 450.009766 484.985352 C 452.983398 486.967773 455.957031 489.941406 458.930664 492.06543 C 462.045898 494.047852 464.02832 497.021484 467.001953 499.003906 C 469.975586 501.977539 472.949219 503.959961 476.064453 506.933594 C 479.038086 509.057617 483.00293 511.040039 485.976562 513.022461 C 488.950195 515.004883 493.056641 516.987305 496.030273 518.969727 C 499.003906 520.952148 502.96875 521.943359 505.942383 524.067383 C 509.057617 526.049805 513.022461 527.041016 515.996094 529.023437 C 519.960937 531.005859 522.93457 531.99707 527.041016 533.979492 C 531.005859 535.961914 533.979492 536.953125 537.944336 538.935547 C 542.050781 540.068359 545.024414 541.05957 548.989258 542.050781 C 552.954102 543.041992 557.060547 544.033203 561.025391 545.024414 C 564.990234 546.015625 567.963867 547.006836 572.070312 547.998047 C 576.035156 548.989258 580 548.989258 583.964844 549.980469 C 587.929687 549.980469 592.036133 550.97168 596.000977 550.97168 C 599.96582 551.962891 603.930664 551.962891 608.037109 552.954102 C 612.001953 552.954102 615.966797 552.954102 619.931641 552.954102 C 624.038086 552.954102 628.994141 552.954102 632.958984 552.954102 C 637.06543 552.954102 642.021484 551.962891 645.986328 551.962891 C 649.951172 550.97168 653.066406 550.97168 657.03125 549.980469 C 660.996094 548.989258 664.960937 548.989258 669.067383 547.998047 C 673.032227 547.006836 676.99707 546.015625 680.961914 545.024414 C 685.068359 544.033203 688.041992 544.033203 692.006836 543.041992 C 695.97168 542.050781 699.936523 540.068359 704.042969 538.935547 C 708.007812 537.944336 710.981445 535.961914 714.946289 534.970703 C 718.061523 532.988281 722.026367 531.99707 725 530.014648 C 728.964844 528.032227 731.938477 527.041016 736.044922 525.058594 C 739.018555 522.93457 742.983398 520.952148 745.957031 518.969727 C 748.930664 516.987305 752.045898 515.004883 755.019531 513.022461 C 757.993164 511.040039 760.966797 509.057617 763.94043 506.933594 C 767.055664 504.951172 771.020508 501.977539 773.994141 499.995117 C 776.967773 498.012695 779.941406 495.039062 783.056641 493.056641 C 785.039062 490.932617 788.012695 487.958984 789.995117 485.976562 C 792.96875 483.00293 795.942383 480.029297 799.057617 477.055664 C 801.040039 473.94043 804.013672 471.958008 805.996094 468.984375 C 807.978516 466.010742 810.952148 463.037109 812.93457 460.063477 C 815.058594 456.948242 818.032227 453.974609 820.014648 451.000977 C 821.99707 448.027344 824.970703 445.053711 826.953125 441.938477 C 828.935547 438.964844 830.068359 435.991211 832.050781 433.017578 C 834.033203 429.052734 836.015625 425.9375 837.998047 421.972656 C 839.980469 418.999023 840.97168 415.03418 842.954102 412.060547 C 843.945312 407.954102 846.069336 404.980469 847.060547 401.015625 C 848.051758 398.041992 849.042969 393.935547 850.03418 390.961914 C 851.025391 386.99707 853.007812 384.023437 853.999023 380.058594 C 854.990234 375.952148 854.990234 372.978516 855.981445 369.013672 C 856.972656 365.048828 857.963867 361.933594 858.955078 357.96875 C 858.955078 354.003906 859.946289 350.039062 859.946289 345.932617 C 859.946289 341.967773 860.9375 338.994141 860.9375 335.029297 C 860.9375 331.064453 860.9375 325.966797 860.9375 322.001953 C 860.9375 318.037109 860.9375 313.930664 860.9375 309.96582 C 860.9375 306.992187 859.946289 303.027344 859.946289 300.053711 C 859.946289 295.947266 858.955078 291.982422 858.955078 288.017578 C 857.963867 284.052734 857.963867 279.946289 856.972656 275.981445 C 855.981445 272.016602 854.990234 269.042969 853.999023 264.936523 C 853.007812 260.97168 852.016602 257.998047 851.025391 254.033203 C 850.03418 250.068359 848.051758 246.953125 847.060547 242.988281 C 846.069336 240.014648 843.945312 236.049805 842.954102 232.93457 C 840.97168 229.960937 839.980469 225.996094 837.998047 223.022461 C 836.015625 220.048828 834.033203 215.942383 832.050781 212.96875 C 830.068359 209.995117 828.935547 206.030273 826.953125 203.056641 C 824.970703 199.941406 822.988281 195.976562 821.005859 193.00293 C 819.023437 190.029297 816.049805 187.055664 814.067383 183.94043 C 811.943359 180.966797 808.969727 178.984375 806.987305 176.010742 C 805.004883 173.037109 802.03125 170.063477 800.048828 166.948242 C 796.933594 163.974609 794.951172 161.992187 791.977539 159.018555 C 789.003906 156.044922 787.021484 154.0625 784.047852 150.947266 C 780.932617 148.964844 776.967773 146.982422 773.994141 145 C 771.020508 142.026367 769.038086 140.043945 766.064453 137.070312 C 762.949219 134.946289 759.975586 132.963867 757.001953 130.981445 C 754.02832 128.999023 750.063477 126.025391 746.948242 124.042969 C 743.974609 122.060547 740.009766 121.069336 737.036133 118.945312 C 732.929687 116.962891 729.956055 115.97168 725.991211 113.989258 C 722.026367 112.006836 719.052734 111.015625 714.946289 109.033203 C 711.972656 108.041992 708.007812 106.05957 705.03418 105.068359 C 701.069336 103.935547 697.954102 102.944336 693.989258 101.953125 C 690.024414 100.961914 686.05957 98.979492 681.953125 97.988281 C 677.988281 96.99707 675.014648 96.99707 671.049805 96.005859 C 666.943359 95.014648 661.987305 94.023437 658.022461 93.032227 C 654.057617 93.032227 649.951172 92.041016 645.986328 92.041016 C 642.021484 92.041016 639.047852 91.049805 634.941406 91.049805 C 630.976562 91.049805 626.020508 91.049805 622.055664 91.049805 C 617.949219 91.049805 612.993164 91.049805 609.02832 91.049805 C 605.063477 91.049805 600.957031 92.041016 596.992187 92.041016 C 593.027344 92.041016 589.0625 93.032227 584.956055 93.032227 C 580.991211 94.023437 577.026367 95.014648 573.061523 96.005859 C 568.955078 96.99707 564.990234 96.99707 561.025391 97.988281 C 558.051758 98.979492 553.945312 99.970703 550.97168 100.961914 C 547.006836 101.953125 543.041992 103.935547 538.935547 105.068359 C 534.970703 106.05957 531.99707 108.041992 528.032227 109.033203 C 525.058594 110.024414 520.952148 112.006836 517.978516 112.998047 C 514.013672 114.980469 511.040039 116.962891 506.933594 118.945312 C 503.959961 121.069336 499.995117 122.060547 497.021484 124.042969 C 494.047852 126.025391 489.941406 128.007812 486.967773 129.990234 C 483.994141 131.972656 480.029297 134.946289 477.055664 137.070312 C 473.94043 139.052734 471.958008 142.026367 468.984375 144.008789 C 466.010742 145.991211 463.037109 148.964844 460.063477 150.947266 C 456.948242 152.929687 453.974609 156.044922 451.000977 158.027344 C 449.018555 161.000977 446.044922 163.974609 444.0625 166.948242 C 440.947266 170.063477 438.964844 172.045898 435.991211 175.019531 C 434.008789 177.993164 431.035156 179.975586 429.052734 182.949219 C 427.070312 186.064453 424.946289 190.029297 422.963867 193.00293 C 420.981445 195.976562 418.007812 198.950195 416.025391 202.06543 C 414.042969 205.039062 412.060547 208.012695 409.936523 210.986328 C 407.954102 213.959961 406.962891 218.066406 404.980469 221.040039 C 402.998047 224.013672 402.006836 227.978516 400.024414 230.952148 C 399.033203 235.058594 397.050781 238.032227 396.05957 241.99707 C 395.068359 244.970703 392.944336 248.935547 391.953125 252.050781 C 390.961914 256.015625 389.970703 258.989258 388.979492 262.954102 C 387.988281 267.060547 386.99707 271.025391 386.005859 274.990234 C 385.014648 278.955078 385.014648 282.070312 384.023437 286.035156 C 383.032227 290 383.032227 293.964844 382.041016 297.929687 C 382.041016 302.036133 381.049805 306.000977 381.049805 309.96582 C 381.049805 313.930664 381.049805 317.045898 381.049805 321.010742 C 381.049805 324.975586 381.049805 328.94043 381.049805 333.046875 Z M 381.049805 333.046875 " transform="matrix(0.0275862, 0, 0, 0.0275862, 0, 0)"/>
<path fill-rule="nonzero" fill="rgb(0%, 0%, 100%)" fill-opacity="1" d="M 11.78125 10.953125 C 11.78125 9.628906 11.78125 8.304688 11.78125 6.953125 C 12.054688 6.953125 12.332031 6.953125 12.578125 6.953125 C 12.578125 7.558594 12.578125 8.136719 12.578125 8.746094 C 13.132812 8.136719 13.683594 7.558594 14.207031 6.953125 C 14.566406 6.953125 14.925781 6.953125 15.308594 6.953125 C 14.785156 7.476562 14.289062 8 13.792969 8.523438 C 14.316406 9.324219 14.839844 10.152344 15.367188 10.953125 C 15.035156 10.953125 14.675781 10.953125 14.34375 10.953125 C 13.957031 10.316406 13.601562 9.710938 13.242188 9.074219 C 13.019531 9.296875 12.800781 9.515625 12.578125 9.738281 C 12.578125 10.152344 12.578125 10.539062 12.578125 10.953125 Z M 11.78125 10.953125 "/>
<path fill-rule="nonzero" fill="rgb(0%, 0%, 100%)" fill-opacity="1" d="M 15.695312 10.953125 C 15.695312 9.628906 15.695312 8.304688 15.695312 6.953125 C 16.605469 6.953125 17.515625 6.953125 18.425781 6.953125 C 18.425781 7.199219 18.425781 7.421875 18.425781 7.640625 C 17.792969 7.640625 17.132812 7.640625 16.496094 7.640625 C 16.496094 7.945312 16.496094 8.277344 16.496094 8.578125 C 17.046875 8.578125 17.601562 8.578125 18.152344 8.578125 C 18.152344 8.800781 18.152344 9.019531 18.152344 9.269531 C 17.601562 9.269531 17.046875 9.269531 16.496094 9.269531 C 16.496094 9.820312 16.496094 10.398438 16.496094 10.953125 Z M 15.695312 10.953125 "/>
<path fill-rule="nonzero" fill="rgb(0%, 0%, 100%)" fill-opacity="1" d="M 18.8125 8.992188 C 18.8125 8.578125 18.867188 8.21875 18.980469 7.972656 C 19.089844 7.75 19.199219 7.585938 19.367188 7.421875 C 19.53125 7.253906 19.695312 7.117188 19.890625 7.0625 C 20.136719 6.953125 20.414062 6.898438 20.746094 6.898438 C 21.324219 6.898438 21.792969 7.089844 22.152344 7.449219 C 22.511719 7.808594 22.675781 8.304688 22.675781 8.964844 C 22.675781 9.601562 22.511719 10.125 22.152344 10.484375 C 21.792969 10.839844 21.324219 11.007812 20.746094 11.007812 C 20.164062 11.007812 19.695312 10.839844 19.339844 10.484375 C 18.980469 10.125 18.8125 9.628906 18.8125 8.992188 Z M 19.640625 8.964844 C 19.640625 9.40625 19.75 9.738281 19.945312 9.984375 C 20.164062 10.207031 20.414062 10.34375 20.746094 10.34375 C 21.074219 10.34375 21.324219 10.207031 21.542969 9.984375 C 21.738281 9.765625 21.847656 9.40625 21.847656 8.9375 C 21.847656 8.496094 21.738281 8.136719 21.542969 7.917969 C 21.351562 7.695312 21.074219 7.585938 20.746094 7.585938 C 20.414062 7.585938 20.136719 7.695312 19.945312 7.917969 C 19.75 8.164062 19.640625 8.496094 19.640625 8.964844 Z M 19.640625 8.964844 "/>
</svg>
