<?xml version="1.0" encoding="UTF-8"?>
<svg xmlns="http://www.w3.org/2000/svg" xmlns:xlink="http://www.w3.org/1999/xlink" width="32" height="32" viewBox="0 0 32 32">
<path fill-rule="nonzero" fill="rgb(100%, 100%, 100%)" fill-opacity="1" d="M 20.578125 20.855469 L 15.722656 15.945312 L 20.578125 11.035156 Z M 20.578125 20.855469 "/>
<path fill-rule="nonzero" fill="rgb(100%, 100%, 100%)" fill-opacity="1" stroke-width="1" stroke-linecap="butt" stroke-linejoin="miter" stroke="rgb(100%, 100%, 100%)" stroke-opacity="1" stroke-miterlimit="4" d="M 748.930664 756.010742 C 748.930664 757.993164 747.939453 758.984375 746.948242 758.984375 C 745.957031 759.975586 744.96582 758.984375 743.974609 758.984375 L 568.955078 580.991211 C 566.972656 580 566.972656 577.026367 568.955078 577.026367 L 743.974609 399.033203 C 744.96582 397.050781 745.957031 397.050781 746.948242 398.041992 C 747.939453 398.041992 748.930664 400.024414 748.930664 400.024414 Z M 741.992187 400.024414 L 747.939453 402.998047 L 573.061523 580.991211 L 573.061523 577.026367 L 747.939453 755.019531 L 741.992187 756.010742 Z M 741.992187 400.024414 " transform="matrix(0.0275862, 0, 0, 0.0275862, 0, 0)"/>
<path fill-rule="nonzero" fill="rgb(100%, 100%, 100%)" fill-opacity="1" d="M 10.621094 20.773438 L 15.558594 15.917969 L 10.621094 11.035156 Z M 10.621094 20.773438 "/>
<path fill-rule="nonzero" fill="rgb(100%, 100%, 100%)" fill-opacity="1" stroke-width="1" stroke-linecap="butt" stroke-linejoin="miter" stroke="rgb(100%, 100%, 100%)" stroke-opacity="1" stroke-miterlimit="4" d="M 387.988281 753.037109 L 383.032227 751.054687 L 562.016602 575.043945 L 562.016602 579.008789 L 383.032227 402.998047 L 387.988281 400.024414 Z M 382.041016 400.024414 C 382.041016 400.024414 382.041016 398.041992 384.023437 398.041992 C 385.014648 397.050781 386.005859 397.050781 386.99707 399.033203 L 565.981445 575.043945 C 566.972656 575.043945 566.972656 576.035156 566.972656 577.026367 C 566.972656 578.017578 566.972656 579.008789 565.981445 579.008789 L 386.99707 755.019531 C 386.005859 756.010742 385.014648 757.001953 384.023437 756.010742 C 382.041016 756.010742 382.041016 755.019531 382.041016 753.037109 Z M 382.041016 400.024414 " transform="matrix(0.0275862, 0, 0, 0.0275862, 0, 0)"/>
<path fill-rule="nonzero" fill="rgb(0%, 0%, 100%)" fill-opacity="1" d="M 10.621094 21.074219 L 15.585938 16.082031 L 20.46875 21.074219 L 15.585938 26.042969 Z M 10.621094 21.074219 "/>
<path fill-rule="nonzero" fill="rgb(0%, 0%, 100%)" fill-opacity="1" stroke-width="1" stroke-linecap="butt" stroke-linejoin="miter" stroke="rgb(0%, 0%, 100%)" stroke-opacity="1" stroke-miterlimit="4" d="M 384.023437 766.064453 C 382.041016 764.931641 382.041016 761.958008 384.023437 761.958008 L 562.016602 580.991211 C 563.007812 580 564.990234 580 566.972656 580.991211 L 744.96582 761.958008 C 745.957031 761.958008 745.957031 764.931641 744.96582 766.064453 L 566.972656 946.040039 C 564.990234 947.03125 563.007812 947.03125 562.016602 946.040039 Z M 566.972656 940.942383 L 562.016602 940.942383 L 740.009766 761.958008 L 740.009766 766.064453 L 562.016602 584.956055 L 566.972656 584.956055 L 387.988281 766.064453 L 387.988281 761.958008 Z M 566.972656 940.942383 " transform="matrix(0.0275862, 0, 0, 0.0275862, 0, 0)"/>
<path fill-rule="nonzero" fill="rgb(0%, 0%, 100%)" fill-opacity="1" d="M 20.46875 11.117188 L 15.640625 15.863281 L 10.785156 11.117188 Z M 20.46875 11.117188 "/>
<path fill-rule="nonzero" fill="rgb(0%, 0%, 100%)" fill-opacity="1" stroke-width="1" stroke-linecap="butt" stroke-linejoin="miter" stroke="rgb(0%, 0%, 100%)" stroke-opacity="1" stroke-miterlimit="4" d="M 741.992187 400.024414 C 743.974609 400.024414 745.957031 401.015625 745.957031 402.998047 C 745.957031 402.998047 745.957031 404.980469 744.96582 405.97168 L 568.955078 577.026367 C 568.955078 579.008789 565.981445 579.008789 564.990234 577.026367 L 388.979492 405.97168 C 388.979492 404.980469 387.988281 402.998047 388.979492 402.998047 C 388.979492 401.015625 389.970703 400.024414 390.961914 400.024414 Z M 390.961914 406.962891 L 392.944336 402.006836 L 568.955078 573.061523 L 564.990234 573.061523 L 741.000977 402.006836 L 741.992187 406.962891 Z M 390.961914 406.962891 " transform="matrix(0.0275862, 0, 0, 0.0275862, 0, 0)"/>
<path fill-rule="nonzero" fill="rgb(0%, 0%, 100%)" fill-opacity="1" stroke-width="1" stroke-linecap="butt" stroke-linejoin="miter" stroke="rgb(0%, 0%, 100%)" stroke-opacity="1" stroke-miterlimit="4" d="M 382.041016 399.033203 C 382.041016 398.041992 382.041016 397.050781 383.032227 397.050781 L 746.948242 397.050781 C 748.930664 397.050781 748.930664 398.041992 748.930664 399.033203 L 748.930664 767.055664 C 748.930664 769.038086 748.930664 769.038086 746.948242 769.038086 L 383.032227 769.038086 C 382.041016 769.038086 382.041016 769.038086 382.041016 767.055664 Z M 385.014648 767.055664 L 383.032227 766.064453 L 746.948242 766.064453 L 745.957031 767.055664 L 745.957031 399.033203 L 746.948242 400.024414 L 383.032227 400.024414 L 385.014648 399.033203 Z M 385.014648 767.055664 " transform="matrix(0.0275862, 0, 0, 0.0275862, 0, 0)"/>
<path fill-rule="nonzero" fill="rgb(0%, 0%, 100%)" fill-opacity="1" stroke-width="1" stroke-linecap="butt" stroke-linejoin="miter" stroke="rgb(0%, 0%, 100%)" stroke-opacity="1" stroke-miterlimit="4" d="M 264.936523 1075.039062 L 264.936523 354.003906 L 569.946289 46.020508 L 874.956055 354.003906 L 871.982422 1075.039062 L 812.93457 1074.047852 L 815.058594 366.040039 L 824.970703 386.99707 L 549.980469 109.033203 L 592.036133 109.033203 L 317.045898 386.99707 L 324.975586 366.040039 L 324.975586 1075.039062 Z M 264.936523 1075.039062 " transform="matrix(0.0275862, 0, 0, 0.0275862, 0, 0)"/>
</svg>
