<?xml version="1.0" encoding="UTF-8"?>
<svg xmlns="http://www.w3.org/2000/svg" xmlns:xlink="http://www.w3.org/1999/xlink" width="32" height="32" viewBox="0 0 32 32">
<path fill-rule="nonzero" fill="rgb(0%, 0%, 100%)" fill-opacity="1" stroke-width="1" stroke-linecap="butt" stroke-linejoin="miter" stroke="rgb(0%, 0%, 100%)" stroke-opacity="1" stroke-miterlimit="4" d="M 252.050781 1084.951172 L 252.050781 374.960937 L 568.955078 57.06543 L 885.009766 374.960937 L 885.009766 1084.951172 Z M 853.999023 1022.929687 L 822.988281 1053.94043 L 822.988281 386.99707 L 832.050781 408.945312 L 547.006836 122.060547 L 590.053711 122.060547 L 305.009766 408.945312 L 313.930664 386.99707 L 313.930664 1053.94043 L 283.061523 1022.929687 Z M 853.999023 1022.929687 " transform="matrix(0.0275862, 0, 0, 0.0275862, 0, 0)"/>
<path fill-rule="nonzero" fill="rgb(100%, 100%, 100%)" fill-opacity="1" d="M 20.882812 21.902344 L 15.78125 16.882812 L 20.882812 11.863281 Z M 20.882812 21.902344 "/>
<path fill-rule="nonzero" fill="rgb(100%, 100%, 100%)" fill-opacity="1" stroke-width="1" stroke-linecap="butt" stroke-linejoin="miter" stroke="rgb(100%, 100%, 100%)" stroke-opacity="1" stroke-miterlimit="4" d="M 760.966797 793.959961 C 760.966797 794.951172 759.975586 796.933594 758.984375 796.933594 C 758.984375 798.066406 756.010742 796.933594 756.010742 795.942383 L 569.946289 613.984375 C 568.955078 613.984375 568.955078 612.993164 568.955078 612.001953 C 568.955078 611.010742 568.955078 610.019531 569.946289 610.019531 L 756.010742 428.061523 C 756.010742 427.070312 758.984375 427.070312 758.984375 428.061523 C 759.975586 428.061523 760.966797 429.052734 760.966797 430.043945 Z M 754.02832 430.043945 L 759.975586 432.026367 L 574.052734 613.984375 L 574.052734 610.019531 L 759.975586 791.977539 L 754.02832 793.959961 Z M 754.02832 430.043945 " transform="matrix(0.0275862, 0, 0, 0.0275862, 0, 0)"/>
<path fill-rule="nonzero" fill="rgb(100%, 100%, 100%)" fill-opacity="1" d="M 10.539062 21.902344 L 15.585938 16.828125 L 10.539062 11.78125 Z M 10.539062 21.902344 "/>
<path fill-rule="nonzero" fill="rgb(100%, 100%, 100%)" fill-opacity="1" stroke-width="1" stroke-linecap="butt" stroke-linejoin="miter" stroke="rgb(100%, 100%, 100%)" stroke-opacity="1" stroke-miterlimit="4" d="M 386.005859 793.959961 L 381.049805 791.977539 L 563.007812 608.037109 L 563.007812 612.001953 L 381.049805 429.052734 L 386.005859 427.070312 Z M 379.067383 427.070312 C 379.067383 425.9375 380.058594 423.955078 382.041016 423.955078 C 382.041016 423.955078 384.023437 423.955078 385.014648 424.946289 L 567.963867 608.037109 C 568.955078 609.02832 568.955078 612.001953 567.963867 612.001953 L 385.014648 795.942383 C 384.023437 796.933594 382.041016 798.066406 382.041016 796.933594 C 380.058594 796.933594 379.067383 794.951172 379.067383 793.959961 Z M 379.067383 427.070312 " transform="matrix(0.0275862, 0, 0, 0.0275862, 0, 0)"/>
<path fill-rule="nonzero" fill="rgb(0%, 0%, 100%)" fill-opacity="1" d="M 10.539062 22.152344 L 15.667969 16.964844 L 20.746094 22.152344 L 15.667969 27.28125 Z M 10.539062 22.152344 "/>
<path fill-rule="nonzero" fill="rgb(0%, 0%, 100%)" fill-opacity="1" stroke-width="1" stroke-linecap="butt" stroke-linejoin="miter" stroke="rgb(0%, 0%, 100%)" stroke-opacity="1" stroke-miterlimit="4" d="M 380.058594 805.004883 C 379.067383 803.022461 379.067383 801.040039 380.058594 800.048828 L 564.990234 613.984375 C 565.981445 612.001953 568.955078 612.001953 569.946289 613.984375 L 755.019531 800.048828 C 756.010742 801.040039 756.010742 803.022461 755.019531 805.004883 L 569.946289 991.069336 C 568.955078 992.060547 565.981445 992.060547 564.990234 991.069336 Z M 569.946289 985.97168 L 564.990234 985.97168 L 750.063477 800.048828 L 750.063477 805.004883 L 564.990234 618.94043 L 569.946289 618.94043 L 384.023437 805.004883 L 384.023437 800.048828 Z M 569.946289 985.97168 " transform="matrix(0.0275862, 0, 0, 0.0275862, 0, 0)"/>
<path fill-rule="nonzero" fill="rgb(0%, 0%, 100%)" fill-opacity="1" d="M 20.71875 11.863281 L 15.695312 16.746094 L 10.648438 11.863281 Z M 20.71875 11.863281 "/>
<path fill-rule="nonzero" fill="rgb(0%, 0%, 100%)" fill-opacity="1" stroke-width="1" stroke-linecap="butt" stroke-linejoin="miter" stroke="rgb(0%, 0%, 100%)" stroke-opacity="1" stroke-miterlimit="4" d="M 751.054687 427.070312 C 752.045898 427.070312 754.02832 428.061523 754.02832 429.052734 C 755.019531 430.043945 754.02832 432.026367 753.037109 432.026367 L 570.9375 609.02832 C 569.946289 611.010742 567.963867 611.010742 566.972656 609.02832 L 384.023437 432.026367 C 383.032227 432.026367 382.041016 430.043945 383.032227 429.052734 C 383.032227 428.061523 385.014648 427.070312 386.005859 427.070312 Z M 386.005859 433.017578 L 387.988281 428.061523 L 570.9375 605.063477 L 566.972656 605.063477 L 748.930664 428.061523 L 751.054687 433.017578 Z M 386.005859 433.017578 " transform="matrix(0.0275862, 0, 0, 0.0275862, 0, 0)"/>
<path fill-rule="nonzero" fill="rgb(0%, 0%, 100%)" fill-opacity="1" stroke-width="1" stroke-linecap="butt" stroke-linejoin="miter" stroke="rgb(0%, 0%, 100%)" stroke-opacity="1" stroke-miterlimit="4" d="M 379.067383 424.946289 C 379.067383 423.955078 380.058594 423.955078 381.049805 423.955078 L 756.010742 423.955078 C 757.001953 423.955078 757.001953 423.955078 757.001953 424.946289 L 757.001953 805.004883 C 757.001953 806.987305 757.001953 806.987305 756.010742 806.987305 L 381.049805 806.987305 C 380.058594 806.987305 379.067383 806.987305 379.067383 805.004883 Z M 382.041016 805.004883 L 381.049805 803.022461 L 756.010742 803.022461 L 754.02832 805.004883 L 754.02832 424.946289 L 756.010742 427.070312 L 381.049805 427.070312 L 382.041016 424.946289 Z M 382.041016 805.004883 " transform="matrix(0.0275862, 0, 0, 0.0275862, 0, 0)"/>
</svg>
