<?xml version="1.0" encoding="UTF-8"?>
<svg xmlns="http://www.w3.org/2000/svg" xmlns:xlink="http://www.w3.org/1999/xlink" width="32" height="32" viewBox="0 0 32 32">
<path fill-rule="nonzero" fill="rgb(0%, 0%, 100%)" fill-opacity="1" stroke-width="1" stroke-linecap="butt" stroke-linejoin="miter" stroke="rgb(0%, 0%, 100%)" stroke-opacity="1" stroke-miterlimit="4" d="M 223.022461 31.010742 L 886.000977 31.010742 L 886.000977 1089.057617 L 223.022461 1089.057617 Z M 302.036133 1049.975586 L 261.962891 1009.052734 L 847.060547 1009.052734 L 806.987305 1049.975586 L 806.987305 70.942383 L 847.060547 110.024414 L 261.962891 110.024414 L 302.036133 70.942383 Z M 302.036133 1049.975586 " transform="matrix(0.0275862, 0, 0, 0.0275862, 0, 0)"/>
<path fill-rule="nonzero" fill="rgb(0%, 0%, 100%)" fill-opacity="1" stroke-width="1" stroke-linecap="butt" stroke-linejoin="miter" stroke="rgb(0%, 0%, 100%)" stroke-opacity="1" stroke-miterlimit="4" d="M 283.061523 589.0625 L 819.023437 589.0625 L 819.023437 641.030273 L 283.061523 641.030273 Z M 283.061523 589.0625 " transform="matrix(0.0275862, 0, 0, 0.0275862, 0, 0)"/>
<path fill-rule="nonzero" fill="rgb(0%, 0%, 100%)" fill-opacity="1" stroke-width="1" stroke-linecap="butt" stroke-linejoin="miter" stroke="rgb(0%, 0%, 100%)" stroke-opacity="1" stroke-miterlimit="4" d="M 287.026367 454.96582 L 821.99707 454.96582 L 821.99707 505.942383 L 287.026367 505.942383 Z M 287.026367 454.96582 " transform="matrix(0.0275862, 0, 0, 0.0275862, 0, 0)"/>
<path fill-rule="nonzero" fill="rgb(100%, 100%, 100%)" fill-opacity="1" d="M 20.746094 18.730469 L 15.449219 13.460938 L 20.746094 8.191406 Z M 20.746094 18.730469 "/>
<path fill-rule="nonzero" fill="rgb(100%, 100%, 100%)" fill-opacity="1" stroke-width="1" stroke-linecap="butt" stroke-linejoin="miter" stroke="rgb(100%, 100%, 100%)" stroke-opacity="1" stroke-miterlimit="4" d="M 756.010742 678.979492 C 756.010742 680.961914 755.019531 682.944336 754.02832 682.944336 C 753.037109 682.944336 752.045898 682.944336 751.054687 681.953125 L 558.051758 489.941406 C 557.060547 489.941406 556.069336 488.950195 556.069336 487.958984 C 556.069336 486.967773 557.060547 485.976562 558.051758 485.976562 L 751.054687 294.956055 C 752.045898 292.973633 753.037109 292.973633 754.02832 292.973633 C 755.019531 292.973633 756.010742 295.947266 756.010742 296.938477 Z M 748.930664 296.938477 L 755.019531 299.0625 L 562.016602 489.941406 L 562.016602 485.976562 L 755.019531 676.99707 L 748.930664 678.979492 Z M 748.930664 296.938477 " transform="matrix(0.0275862, 0, 0, 0.0275862, 0, 0)"/>
<path fill-rule="nonzero" fill="rgb(100%, 100%, 100%)" fill-opacity="1" d="M 9.847656 18.730469 L 15.253906 13.40625 L 9.847656 8.082031 Z M 9.847656 18.730469 "/>
<path fill-rule="nonzero" fill="rgb(100%, 100%, 100%)" fill-opacity="1" stroke-width="1" stroke-linecap="butt" stroke-linejoin="miter" stroke="rgb(100%, 100%, 100%)" stroke-opacity="1" stroke-miterlimit="4" d="M 359.951172 678.979492 L 354.995117 676.99707 L 550.97168 483.994141 L 550.97168 487.958984 L 354.995117 295.947266 L 359.951172 292.973633 Z M 354.003906 292.973633 C 354.003906 291.982422 354.995117 290 355.986328 290 C 356.977539 289.008789 358.959961 289.008789 358.959961 290.991211 L 554.936523 483.994141 C 556.069336 483.994141 556.069336 484.985352 556.069336 485.976562 C 556.069336 487.958984 556.069336 487.958984 554.936523 487.958984 L 358.959961 681.953125 C 358.959961 682.944336 356.977539 682.944336 355.986328 682.944336 C 354.995117 682.944336 354.003906 680.961914 354.003906 678.979492 Z M 354.003906 292.973633 " transform="matrix(0.0275862, 0, 0, 0.0275862, 0, 0)"/>
<path fill-rule="nonzero" fill="rgb(0%, 0%, 100%)" fill-opacity="1" d="M 9.875 18.980469 L 15.253906 13.574219 L 20.660156 18.980469 L 15.253906 24.386719 Z M 9.875 18.980469 "/>
<path fill-rule="nonzero" fill="rgb(0%, 0%, 100%)" fill-opacity="1" stroke-width="1" stroke-linecap="butt" stroke-linejoin="miter" stroke="rgb(0%, 0%, 100%)" stroke-opacity="1" stroke-miterlimit="4" d="M 355.986328 691.015625 C 354.995117 689.033203 354.995117 687.050781 355.986328 686.05957 L 550.97168 489.941406 C 551.962891 487.958984 553.945312 487.958984 556.069336 489.941406 L 752.045898 686.05957 C 752.045898 687.050781 752.045898 689.033203 752.045898 691.015625 L 556.069336 886.992187 C 553.945312 886.992187 551.962891 886.992187 550.97168 886.992187 Z M 556.069336 882.036133 L 550.97168 882.036133 L 745.957031 686.05957 L 745.957031 691.015625 L 550.97168 494.047852 L 556.069336 494.047852 L 359.951172 691.015625 L 359.951172 686.05957 Z M 556.069336 882.036133 " transform="matrix(0.0275862, 0, 0, 0.0275862, 0, 0)"/>
<path fill-rule="nonzero" fill="rgb(0%, 0%, 100%)" fill-opacity="1" d="M 20.660156 8.191406 L 15.339844 13.324219 L 10.042969 8.191406 Z M 20.660156 8.191406 "/>
<path fill-rule="nonzero" fill="rgb(0%, 0%, 100%)" fill-opacity="1" stroke-width="1" stroke-linecap="butt" stroke-linejoin="miter" stroke="rgb(0%, 0%, 100%)" stroke-opacity="1" stroke-miterlimit="4" d="M 748.930664 292.973633 C 751.054687 292.973633 752.045898 292.973633 752.045898 295.947266 C 753.037109 296.938477 752.045898 297.929687 752.045898 299.0625 L 559.042969 484.985352 C 558.051758 486.967773 554.936523 486.967773 553.945312 484.985352 L 361.933594 299.0625 C 360.942383 297.929687 359.951172 296.938477 360.942383 295.947266 C 360.942383 292.973633 363.066406 292.973633 364.057617 292.973633 Z M 364.057617 300.053711 L 366.040039 294.956055 L 559.042969 481.020508 L 553.945312 481.020508 L 746.948242 294.956055 L 748.930664 300.053711 Z M 364.057617 300.053711 " transform="matrix(0.0275862, 0, 0, 0.0275862, 0, 0)"/>
<path fill-rule="nonzero" fill="rgb(0%, 0%, 100%)" fill-opacity="1" stroke-width="1" stroke-linecap="butt" stroke-linejoin="miter" stroke="rgb(0%, 0%, 100%)" stroke-opacity="1" stroke-miterlimit="4" d="M 354.003906 290.991211 C 354.003906 290 354.995117 289.008789 354.995117 289.008789 L 754.02832 289.008789 C 756.010742 289.008789 756.010742 290 756.010742 290.991211 L 756.010742 691.015625 C 756.010742 692.006836 756.010742 692.006836 754.02832 692.006836 L 354.995117 692.006836 C 354.995117 692.006836 354.003906 692.006836 354.003906 691.015625 Z M 356.977539 691.015625 L 354.995117 689.033203 L 754.02832 689.033203 L 752.045898 691.015625 L 752.045898 290.991211 L 754.02832 292.973633 L 354.995117 292.973633 L 356.977539 290.991211 Z M 356.977539 691.015625 " transform="matrix(0.0275862, 0, 0, 0.0275862, 0, 0)"/>
</svg>
