<?xml version="1.0" encoding="UTF-8"?>
<svg xmlns="http://www.w3.org/2000/svg" xmlns:xlink="http://www.w3.org/1999/xlink" width="32" height="32" viewBox="0 0 32 32">
<path fill-rule="nonzero" fill="rgb(0%, 0%, 100%)" fill-opacity="1" stroke-width="1" stroke-linecap="butt" stroke-linejoin="miter" stroke="rgb(0%, 0%, 100%)" stroke-opacity="1" stroke-miterlimit="4" d="M 383.032227 322.993164 C 383.032227 542.050781 383.032227 761.958008 383.032227 981.015625 C 364.057617 981.015625 344.941406 981.015625 325.966797 981.015625 C 325.966797 761.958008 325.966797 542.050781 325.966797 322.993164 C 344.941406 322.993164 364.057617 322.993164 383.032227 322.993164 Z M 383.032227 322.993164 " transform="matrix(0.0275862, 0, 0, 0.0275862, 0, 0)"/>
<path fill-rule="nonzero" fill="rgb(0%, 0%, 100%)" fill-opacity="1" d="M 6.757812 28.109375 C 6.757812 26.539062 8.109375 25.214844 9.710938 25.214844 C 11.367188 25.214844 12.691406 26.539062 12.691406 28.109375 C 12.691406 29.683594 11.367188 30.953125 9.710938 30.953125 C 8.109375 30.953125 6.757812 29.683594 6.757812 28.109375 Z M 6.757812 28.109375 "/>
<path fill-rule="nonzero" fill="rgb(0%, 0%, 100%)" fill-opacity="1" d="M 6.648438 28.109375 C 6.648438 28 6.675781 27.917969 6.675781 27.808594 C 6.703125 27.695312 6.703125 27.613281 6.730469 27.503906 C 6.757812 27.421875 6.785156 27.308594 6.8125 27.226562 C 6.839844 27.144531 6.898438 27.035156 6.925781 26.953125 C 6.953125 26.867188 7.007812 26.785156 7.035156 26.675781 C 7.089844 26.621094 7.144531 26.539062 7.199219 26.457031 C 7.253906 26.398438 7.308594 26.316406 7.367188 26.234375 C 7.421875 26.179688 7.503906 26.097656 7.558594 26.015625 C 7.640625 25.957031 7.695312 25.902344 7.78125 25.820312 C 7.863281 25.765625 7.945312 25.710938 8.027344 25.65625 C 8.109375 25.628906 8.164062 25.574219 8.25 25.515625 C 8.359375 25.488281 8.441406 25.433594 8.550781 25.378906 C 8.632812 25.351562 8.746094 25.324219 8.828125 25.269531 C 8.910156 25.269531 9.019531 25.242188 9.101562 25.214844 C 9.214844 25.214844 9.324219 25.1875 9.433594 25.160156 C 9.515625 25.160156 9.601562 25.160156 9.710938 25.132812 C 9.820312 25.160156 9.929688 25.160156 10.042969 25.160156 C 10.125 25.1875 10.234375 25.214844 10.34375 25.214844 C 10.425781 25.242188 10.511719 25.269531 10.621094 25.269531 C 10.703125 25.324219 10.8125 25.351562 10.925781 25.378906 C 11.007812 25.433594 11.089844 25.488281 11.171875 25.515625 C 11.253906 25.574219 11.339844 25.628906 11.449219 25.65625 C 11.503906 25.710938 11.585938 25.765625 11.667969 25.820312 C 11.722656 25.902344 11.808594 25.957031 11.890625 26.015625 C 11.945312 26.097656 12 26.179688 12.082031 26.234375 C 12.136719 26.316406 12.191406 26.371094 12.25 26.425781 C 12.304688 26.511719 12.359375 26.59375 12.414062 26.675781 C 12.441406 26.785156 12.46875 26.867188 12.523438 26.953125 C 12.550781 27.035156 12.578125 27.144531 12.632812 27.226562 C 12.660156 27.308594 12.691406 27.421875 12.71875 27.503906 C 12.71875 27.585938 12.746094 27.695312 12.773438 27.78125 C 12.773438 27.890625 12.773438 28 12.800781 28.109375 C 12.773438 28.21875 12.773438 28.304688 12.773438 28.414062 C 12.746094 28.496094 12.746094 28.605469 12.746094 28.691406 C 12.691406 28.800781 12.660156 28.882812 12.632812 28.992188 C 12.605469 29.074219 12.578125 29.160156 12.550781 29.242188 C 12.496094 29.324219 12.441406 29.40625 12.414062 29.488281 C 12.359375 29.574219 12.304688 29.683594 12.277344 29.765625 C 12.191406 29.847656 12.136719 29.902344 12.082031 29.984375 C 12.027344 30.070312 11.972656 30.125 11.917969 30.207031 C 11.835938 30.261719 11.75 30.316406 11.667969 30.371094 C 11.585938 30.425781 11.503906 30.484375 11.449219 30.539062 C 11.339844 30.59375 11.253906 30.648438 11.171875 30.703125 C 11.089844 30.730469 11.007812 30.785156 10.925781 30.8125 C 10.8125 30.867188 10.730469 30.898438 10.648438 30.953125 C 10.539062 30.980469 10.425781 30.980469 10.34375 31.007812 C 10.234375 31.007812 10.125 31.035156 10.042969 31.035156 C 9.929688 31.035156 9.820312 31.0625 9.738281 31.0625 C 9.628906 31.0625 9.515625 31.035156 9.433594 31.035156 C 9.324219 31.035156 9.242188 31.007812 9.132812 31.007812 C 9.019531 30.980469 8.9375 30.980469 8.828125 30.953125 C 8.746094 30.898438 8.632812 30.867188 8.550781 30.8125 C 8.46875 30.785156 8.359375 30.730469 8.277344 30.703125 C 8.191406 30.648438 8.109375 30.621094 8.027344 30.566406 C 7.945312 30.511719 7.890625 30.425781 7.808594 30.371094 C 7.722656 30.316406 7.640625 30.261719 7.558594 30.207031 C 7.503906 30.125 7.421875 30.070312 7.367188 29.984375 C 7.308594 29.902344 7.253906 29.847656 7.199219 29.765625 C 7.144531 29.683594 7.117188 29.601562 7.0625 29.515625 C 7.007812 29.433594 6.980469 29.351562 6.925781 29.269531 C 6.898438 29.1875 6.839844 29.074219 6.8125 28.992188 C 6.785156 28.910156 6.757812 28.800781 6.730469 28.71875 C 6.703125 28.605469 6.703125 28.523438 6.675781 28.414062 C 6.675781 28.304688 6.648438 28.21875 6.648438 28.109375 Z M 6.867188 28.386719 C 6.898438 28.46875 6.898438 28.578125 6.925781 28.660156 C 6.953125 28.746094 6.953125 28.828125 6.980469 28.910156 C 7.007812 28.992188 7.0625 29.101562 7.089844 29.1875 C 7.117188 29.269531 7.171875 29.351562 7.199219 29.433594 C 7.253906 29.488281 7.28125 29.574219 7.339844 29.628906 C 7.394531 29.710938 7.476562 29.792969 7.53125 29.875 C 7.585938 29.929688 7.640625 30.015625 7.695312 30.070312 C 7.75 30.125 7.835938 30.179688 7.890625 30.234375 C 7.972656 30.289062 8.027344 30.34375 8.109375 30.398438 C 8.191406 30.457031 8.277344 30.484375 8.359375 30.539062 C 8.441406 30.566406 8.523438 30.621094 8.605469 30.648438 C 8.691406 30.675781 8.773438 30.730469 8.855469 30.757812 C 8.9375 30.785156 9.046875 30.785156 9.132812 30.8125 C 9.242188 30.8125 9.324219 30.839844 9.433594 30.839844 C 9.515625 30.839844 9.601562 30.867188 9.710938 30.867188 C 9.792969 30.867188 9.902344 30.867188 10.015625 30.867188 C 10.097656 30.839844 10.179688 30.839844 10.289062 30.8125 C 10.371094 30.785156 10.484375 30.785156 10.59375 30.757812 C 10.675781 30.730469 10.757812 30.675781 10.839844 30.648438 C 10.925781 30.621094 11.007812 30.566406 11.089844 30.539062 C 11.171875 30.484375 11.253906 30.457031 11.339844 30.398438 C 11.394531 30.34375 11.476562 30.289062 11.558594 30.234375 C 11.613281 30.179688 11.695312 30.125 11.78125 30.070312 C 11.835938 30.015625 11.890625 29.929688 11.945312 29.875 C 12 29.792969 12.054688 29.738281 12.109375 29.65625 C 12.136719 29.574219 12.191406 29.515625 12.25 29.433594 C 12.277344 29.351562 12.304688 29.269531 12.359375 29.1875 C 12.386719 29.101562 12.414062 29.019531 12.46875 28.9375 C 12.46875 28.855469 12.496094 28.746094 12.523438 28.660156 C 12.523438 28.578125 12.550781 28.46875 12.578125 28.386719 C 12.578125 28.304688 12.578125 28.191406 12.605469 28.109375 C 12.578125 28.027344 12.578125 27.917969 12.578125 27.835938 C 12.550781 27.75 12.523438 27.640625 12.523438 27.558594 C 12.496094 27.476562 12.46875 27.367188 12.46875 27.28125 C 12.414062 27.199219 12.386719 27.117188 12.359375 27.035156 C 12.304688 26.953125 12.277344 26.867188 12.25 26.785156 C 12.191406 26.703125 12.136719 26.621094 12.109375 26.539062 C 12.054688 26.484375 12 26.425781 11.945312 26.34375 C 11.890625 26.289062 11.835938 26.234375 11.78125 26.152344 C 11.695312 26.097656 11.613281 26.042969 11.558594 25.957031 C 11.476562 25.929688 11.394531 25.875 11.339844 25.820312 C 11.253906 25.765625 11.171875 25.710938 11.117188 25.65625 C 11.035156 25.628906 10.953125 25.601562 10.867188 25.542969 C 10.757812 25.515625 10.675781 25.488281 10.59375 25.460938 C 10.484375 25.433594 10.371094 25.40625 10.289062 25.378906 C 10.179688 25.378906 10.097656 25.378906 10.015625 25.351562 C 9.902344 25.351562 9.820312 25.351562 9.738281 25.324219 C 9.628906 25.351562 9.515625 25.351562 9.433594 25.351562 C 9.351562 25.378906 9.242188 25.378906 9.160156 25.378906 C 9.074219 25.40625 8.964844 25.433594 8.882812 25.460938 C 8.800781 25.488281 8.691406 25.515625 8.605469 25.542969 C 8.523438 25.601562 8.441406 25.628906 8.359375 25.65625 C 8.277344 25.710938 8.191406 25.765625 8.109375 25.820312 C 8.054688 25.875 7.972656 25.929688 7.917969 25.957031 C 7.835938 26.015625 7.78125 26.070312 7.695312 26.125 C 7.640625 26.207031 7.585938 26.289062 7.53125 26.34375 C 7.476562 26.425781 7.421875 26.484375 7.367188 26.539062 C 7.308594 26.621094 7.28125 26.703125 7.226562 26.785156 C 7.171875 26.867188 7.144531 26.925781 7.089844 27.007812 C 7.0625 27.089844 7.007812 27.199219 6.980469 27.28125 C 6.953125 27.367188 6.953125 27.476562 6.925781 27.558594 C 6.898438 27.640625 6.898438 27.722656 6.867188 27.808594 C 6.867188 27.917969 6.867188 28 6.867188 28.109375 C 6.867188 28.191406 6.867188 28.304688 6.867188 28.386719 Z M 6.867188 28.386719 "/>
<path fill="none" stroke-width="1" stroke-linecap="butt" stroke-linejoin="miter" stroke="rgb(0%, 0%, 100%)" stroke-opacity="1" stroke-miterlimit="4" d="M 241.005859 1018.964844 C 241.005859 1015 241.99707 1012.026367 241.99707 1008.061523 C 242.988281 1003.955078 242.988281 1000.981445 243.979492 997.016602 C 244.970703 994.042969 245.961914 989.936523 246.953125 986.962891 C 247.944336 983.989258 250.068359 980.024414 251.05957 977.050781 C 252.050781 973.935547 254.033203 970.961914 255.024414 966.99707 C 257.006836 965.014648 258.989258 962.041016 260.97168 959.067383 C 262.954102 956.943359 264.936523 953.969727 267.060547 950.996094 C 269.042969 949.013672 272.016602 946.040039 273.999023 943.066406 C 276.972656 940.942383 278.955078 938.959961 282.070312 935.986328 C 285.043945 934.003906 288.017578 932.021484 290.991211 930.039062 C 293.964844 929.047852 295.947266 927.06543 299.0625 924.941406 C 303.027344 923.950195 306.000977 921.967773 309.96582 919.985352 C 312.939453 918.994141 317.045898 918.00293 320.019531 916.020508 C 322.993164 916.020508 326.958008 915.029297 329.931641 914.038086 C 334.038086 914.038086 338.00293 913.046875 341.967773 912.055664 C 344.941406 912.055664 348.056641 912.055664 352.021484 911.064453 C 355.986328 912.055664 359.951172 912.055664 364.057617 912.055664 C 367.03125 913.046875 370.996094 914.038086 374.960937 914.038086 C 377.93457 915.029297 381.049805 916.020508 385.014648 916.020508 C 387.988281 918.00293 391.953125 918.994141 396.05957 919.985352 C 399.033203 921.967773 402.006836 923.950195 404.980469 924.941406 C 407.954102 927.06543 411.069336 929.047852 415.03418 930.039062 C 417.016602 932.021484 419.990234 934.003906 422.963867 935.986328 C 424.946289 938.959961 428.061523 940.942383 431.035156 943.066406 C 433.017578 946.040039 435 949.013672 437.973633 950.996094 C 439.956055 953.969727 441.938477 955.952148 444.0625 957.93457 C 446.044922 961.049805 448.027344 964.023437 450.009766 966.99707 C 451.000977 970.961914 451.992187 973.935547 453.974609 977.050781 C 454.96582 980.024414 455.957031 983.989258 457.939453 986.962891 C 458.930664 989.936523 460.063477 994.042969 461.054687 997.016602 C 461.054687 999.990234 462.045898 1003.955078 463.037109 1007.070312 C 463.037109 1011.035156 463.037109 1015 464.02832 1018.964844 C 463.037109 1022.929687 463.037109 1026.044922 463.037109 1030.009766 C 462.045898 1032.983398 462.045898 1036.948242 462.045898 1040.063477 C 460.063477 1044.02832 458.930664 1047.001953 457.939453 1050.966797 C 456.948242 1053.94043 455.957031 1057.055664 454.96582 1060.029297 C 452.983398 1063.00293 451.000977 1065.976562 450.009766 1068.950195 C 448.027344 1072.06543 446.044922 1076.030273 445.053711 1079.003906 C 441.938477 1081.977539 439.956055 1083.959961 437.973633 1086.933594 C 435.991211 1090.048828 434.008789 1092.03125 432.026367 1095.004883 C 429.052734 1096.987305 425.9375 1098.969727 422.963867 1100.952148 C 419.990234 1102.93457 417.016602 1105.058594 415.03418 1107.041016 C 411.069336 1109.023437 407.954102 1111.005859 404.980469 1112.988281 C 402.006836 1113.979492 399.033203 1115.961914 396.05957 1116.953125 C 391.953125 1118.935547 388.979492 1120.068359 386.005859 1122.050781 C 382.041016 1123.041992 377.93457 1123.041992 374.960937 1124.033203 C 370.996094 1124.033203 367.03125 1125.024414 364.057617 1125.024414 C 359.951172 1125.024414 355.986328 1126.015625 353.012695 1126.015625 C 349.047852 1126.015625 344.941406 1125.024414 341.967773 1125.024414 C 338.00293 1125.024414 335.029297 1124.033203 331.064453 1124.033203 C 326.958008 1123.041992 323.984375 1123.041992 320.019531 1122.050781 C 317.045898 1120.068359 312.939453 1118.935547 309.96582 1116.953125 C 306.992187 1115.961914 303.027344 1113.979492 300.053711 1112.988281 C 296.938477 1111.005859 293.964844 1110.014648 290.991211 1108.032227 C 288.017578 1106.049805 286.035156 1102.93457 283.061523 1100.952148 C 279.946289 1098.969727 276.972656 1096.987305 273.999023 1095.004883 C 272.016602 1092.03125 269.042969 1090.048828 267.060547 1086.933594 C 264.936523 1083.959961 262.954102 1081.977539 260.97168 1079.003906 C 258.989258 1076.030273 257.998047 1073.056641 256.015625 1069.941406 C 254.033203 1066.967773 253.041992 1063.994141 251.05957 1061.020508 C 250.068359 1058.046875 247.944336 1053.94043 246.953125 1050.966797 C 245.961914 1047.993164 244.970703 1044.02832 243.979492 1041.054687 C 242.988281 1036.948242 242.988281 1033.974609 241.99707 1030.009766 C 241.99707 1026.044922 241.005859 1022.929687 241.005859 1018.964844 Z M 241.005859 1018.964844 " transform="matrix(0.0275862, 0, 0, 0.0275862, 0, 0)"/>
<path fill="none" stroke-width="1" stroke-linecap="butt" stroke-linejoin="miter" stroke="rgb(0%, 0%, 100%)" stroke-opacity="1" stroke-miterlimit="4" d="M 248.935547 1029.018555 C 250.068359 1031.992187 250.068359 1035.957031 251.05957 1038.930664 C 252.050781 1042.045898 252.050781 1045.019531 253.041992 1047.993164 C 254.033203 1050.966797 256.015625 1054.931641 257.006836 1058.046875 C 257.998047 1061.020508 259.980469 1063.994141 260.97168 1066.967773 C 262.954102 1068.950195 263.945312 1072.06543 266.069336 1074.047852 C 268.051758 1077.021484 271.025391 1079.995117 273.007812 1082.96875 C 274.990234 1084.951172 276.972656 1088.066406 278.955078 1090.048828 C 280.9375 1092.03125 284.052734 1094.013672 286.035156 1095.996094 C 289.008789 1097.978516 290.991211 1099.960937 293.964844 1101.943359 C 296.938477 1104.067383 300.053711 1105.058594 303.027344 1107.041016 C 306.000977 1108.032227 308.974609 1110.014648 311.948242 1111.005859 C 315.063477 1111.99707 318.037109 1113.979492 321.010742 1114.970703 C 323.984375 1115.961914 327.949219 1115.961914 331.064453 1116.953125 C 335.029297 1116.953125 338.00293 1117.944336 341.967773 1117.944336 C 344.941406 1117.944336 348.056641 1118.935547 352.021484 1118.935547 C 354.995117 1118.935547 358.959961 1118.935547 363.066406 1118.935547 C 366.040039 1117.944336 369.013672 1117.944336 372.978516 1116.953125 C 375.952148 1115.961914 380.058594 1115.961914 384.023437 1114.970703 C 386.99707 1113.979492 389.970703 1111.99707 392.944336 1111.005859 C 396.05957 1110.014648 399.033203 1108.032227 402.006836 1107.041016 C 404.980469 1105.058594 407.954102 1104.067383 411.069336 1101.943359 C 413.051758 1099.960937 416.025391 1097.978516 418.999023 1095.996094 C 420.981445 1094.013672 423.955078 1092.03125 427.070312 1090.048828 C 429.052734 1088.066406 431.035156 1084.951172 433.017578 1082.96875 C 435 1079.995117 436.982422 1078.012695 438.964844 1075.039062 C 439.956055 1072.06543 441.938477 1069.941406 444.0625 1066.967773 C 445.053711 1063.994141 446.044922 1061.020508 448.027344 1058.046875 C 449.018555 1054.931641 450.009766 1051.958008 451.992187 1048.984375 C 451.992187 1046.010742 452.983398 1042.045898 453.974609 1038.930664 C 453.974609 1035.957031 454.96582 1031.992187 455.957031 1029.018555 C 455.957031 1026.044922 455.957031 1021.938477 456.948242 1018.964844 C 455.957031 1015.991211 455.957031 1012.026367 455.957031 1009.052734 C 454.96582 1005.9375 453.974609 1001.972656 453.974609 998.999023 C 452.983398 996.025391 451.992187 992.060547 451.992187 988.945312 C 450.009766 985.97168 449.018555 982.998047 448.027344 980.024414 C 446.044922 977.050781 445.053711 973.935547 444.0625 970.961914 C 441.938477 967.988281 439.956055 965.014648 438.964844 962.041016 C 436.982422 960.058594 435 957.93457 433.017578 954.960937 C 431.035156 952.978516 429.052734 950.996094 427.070312 948.022461 C 423.955078 946.040039 420.981445 944.057617 418.999023 940.942383 C 416.025391 939.951172 413.051758 937.96875 411.069336 935.986328 C 407.954102 934.003906 404.980469 932.021484 402.998047 930.039062 C 400.024414 929.047852 397.050781 928.056641 393.935547 925.932617 C 389.970703 924.941406 386.99707 923.950195 384.023437 922.958984 C 380.058594 921.967773 375.952148 920.976562 372.978516 919.985352 C 369.013672 919.985352 366.040039 919.985352 363.066406 918.994141 C 358.959961 918.994141 355.986328 918.994141 353.012695 918.00293 C 349.047852 918.994141 344.941406 918.994141 341.967773 918.994141 C 338.994141 919.985352 335.029297 919.985352 332.055664 919.985352 C 328.94043 920.976562 324.975586 921.967773 322.001953 922.958984 C 319.02832 923.950195 315.063477 924.941406 311.948242 925.932617 C 308.974609 928.056641 306.000977 929.047852 303.027344 930.039062 C 300.053711 932.021484 296.938477 934.003906 293.964844 935.986328 C 291.982422 937.96875 289.008789 939.951172 287.026367 940.942383 C 284.052734 943.066406 282.070312 945.048828 278.955078 947.03125 C 276.972656 950.004883 274.990234 952.978516 273.007812 954.960937 C 271.025391 957.93457 269.042969 960.058594 267.060547 962.041016 C 264.936523 965.014648 263.945312 967.988281 261.962891 970.961914 C 259.980469 973.935547 258.989258 976.05957 257.006836 979.033203 C 256.015625 982.006836 254.033203 985.97168 253.041992 988.945312 C 252.050781 992.060547 252.050781 996.025391 251.05957 998.999023 C 250.068359 1001.972656 250.068359 1004.946289 248.935547 1008.061523 C 248.935547 1012.026367 248.935547 1015 248.935547 1018.964844 C 248.935547 1021.938477 248.935547 1026.044922 248.935547 1029.018555 Z M 248.935547 1029.018555 " transform="matrix(0.0275862, 0, 0, 0.0275862, 0, 0)"/>
<path fill-rule="nonzero" fill="rgb(0%, 0%, 100%)" fill-opacity="1" d="M 8.964844 8.910156 C 8.964844 8.773438 8.992188 8.632812 8.992188 8.496094 C 8.992188 8.359375 8.992188 8.21875 8.992188 8.082031 C 9.019531 7.945312 9.019531 7.808594 9.046875 7.695312 C 9.074219 7.558594 9.101562 7.421875 9.132812 7.308594 C 9.160156 7.171875 9.1875 7.035156 9.214844 6.898438 C 9.242188 6.757812 9.296875 6.648438 9.324219 6.539062 C 9.351562 6.398438 9.40625 6.289062 9.460938 6.179688 C 9.488281 6.042969 9.542969 5.902344 9.601562 5.792969 C 9.65625 5.65625 9.710938 5.542969 9.765625 5.433594 C 9.820312 5.324219 9.875 5.214844 9.957031 5.101562 C 10.015625 4.992188 10.070312 4.882812 10.152344 4.773438 C 10.207031 4.660156 10.289062 4.550781 10.371094 4.441406 C 10.425781 4.332031 10.511719 4.21875 10.59375 4.109375 C 10.675781 4 10.757812 3.917969 10.839844 3.808594 C 10.925781 3.722656 11.007812 3.613281 11.089844 3.53125 C 11.171875 3.449219 11.253906 3.339844 11.367188 3.253906 C 11.449219 3.171875 11.53125 3.089844 11.640625 3.007812 C 11.722656 2.925781 11.808594 2.839844 11.917969 2.757812 C 12.027344 2.675781 12.136719 2.59375 12.25 2.511719 C 12.359375 2.425781 12.46875 2.371094 12.578125 2.289062 C 12.691406 2.207031 12.800781 2.152344 12.910156 2.070312 C 13.019531 2.015625 13.132812 1.957031 13.242188 1.902344 C 13.351562 1.847656 13.460938 1.792969 13.601562 1.738281 C 13.710938 1.683594 13.820312 1.628906 13.957031 1.574219 C 14.070312 1.515625 14.207031 1.488281 14.34375 1.433594 C 14.457031 1.378906 14.566406 1.351562 14.703125 1.296875 C 14.839844 1.269531 14.980469 1.214844 15.117188 1.1875 C 15.226562 1.160156 15.367188 1.132812 15.503906 1.101562 C 15.613281 1.074219 15.75 1.046875 15.890625 1.019531 C 16.027344 1.019531 16.136719 0.992188 16.277344 0.992188 C 16.414062 0.964844 16.550781 0.964844 16.691406 0.9375 C 16.855469 0.9375 16.992188 0.9375 17.132812 0.9375 C 17.269531 0.9375 17.40625 0.9375 17.542969 0.9375 C 17.683594 0.9375 17.820312 0.964844 17.957031 0.964844 C 18.097656 0.992188 18.234375 0.992188 18.34375 1.019531 C 18.484375 1.046875 18.621094 1.046875 18.757812 1.074219 C 18.898438 1.101562 19.035156 1.160156 19.171875 1.1875 C 19.308594 1.214844 19.421875 1.269531 19.53125 1.296875 C 19.667969 1.324219 19.808594 1.378906 19.945312 1.40625 C 20.082031 1.460938 20.191406 1.488281 20.304688 1.542969 C 20.441406 1.601562 20.550781 1.65625 20.660156 1.710938 C 20.800781 1.765625 20.910156 1.820312 21.019531 1.875 C 21.160156 1.929688 21.269531 2.015625 21.378906 2.070312 C 21.488281 2.152344 21.601562 2.207031 21.683594 2.289062 C 21.792969 2.34375 21.902344 2.425781 22.015625 2.484375 C 22.125 2.566406 22.234375 2.648438 22.316406 2.730469 C 22.425781 2.8125 22.539062 2.898438 22.621094 2.980469 C 22.730469 3.0625 22.8125 3.144531 22.898438 3.226562 C 22.980469 3.339844 23.089844 3.421875 23.171875 3.53125 C 23.253906 3.613281 23.367188 3.722656 23.449219 3.808594 C 23.53125 3.917969 23.613281 4 23.695312 4.109375 C 23.78125 4.21875 23.835938 4.304688 23.917969 4.414062 C 24 4.523438 24.054688 4.632812 24.136719 4.746094 C 24.191406 4.855469 24.277344 4.964844 24.332031 5.074219 C 24.386719 5.1875 24.441406 5.296875 24.496094 5.40625 C 24.550781 5.515625 24.632812 5.628906 24.691406 5.765625 C 24.746094 5.875 24.773438 5.984375 24.828125 6.125 C 24.855469 6.234375 24.910156 6.34375 24.9375 6.484375 C 24.992188 6.59375 25.019531 6.730469 25.074219 6.867188 C 25.101562 6.980469 25.160156 7.117188 25.1875 7.253906 C 25.214844 7.367188 25.214844 7.503906 25.242188 7.640625 C 25.269531 7.78125 25.269531 7.917969 25.296875 8.054688 C 25.296875 8.191406 25.324219 8.332031 25.324219 8.46875 C 25.324219 8.578125 25.351562 8.71875 25.351562 8.855469 C 25.351562 8.992188 25.324219 9.132812 25.324219 9.269531 C 25.324219 9.40625 25.296875 9.542969 25.296875 9.683594 C 25.269531 9.792969 25.269531 9.929688 25.242188 10.070312 C 25.214844 10.179688 25.214844 10.316406 25.1875 10.457031 C 25.160156 10.59375 25.101562 10.730469 25.074219 10.867188 C 25.046875 10.980469 24.992188 11.089844 24.964844 11.226562 C 24.910156 11.339844 24.882812 11.449219 24.828125 11.585938 C 24.773438 11.695312 24.746094 11.835938 24.691406 11.972656 C 24.632812 12.082031 24.578125 12.191406 24.523438 12.332031 C 24.46875 12.441406 24.386719 12.550781 24.332031 12.660156 C 24.277344 12.773438 24.21875 12.882812 24.164062 12.992188 C 24.082031 13.101562 24.027344 13.214844 23.945312 13.324219 C 23.863281 13.433594 23.808594 13.542969 23.722656 13.65625 C 23.640625 13.738281 23.53125 13.820312 23.449219 13.929688 C 23.367188 14.015625 23.28125 14.125 23.199219 14.234375 C 23.117188 14.316406 23.007812 14.398438 22.925781 14.511719 C 22.839844 14.59375 22.757812 14.675781 22.648438 14.757812 C 22.566406 14.839844 22.457031 14.925781 22.34375 15.007812 C 22.261719 15.089844 22.152344 15.171875 22.042969 15.253906 C 21.929688 15.308594 21.820312 15.394531 21.710938 15.476562 C 21.628906 15.53125 21.515625 15.613281 21.40625 15.695312 C 21.296875 15.75 21.1875 15.808594 21.046875 15.863281 C 20.9375 15.917969 20.828125 15.972656 20.691406 16.027344 C 20.578125 16.082031 20.46875 16.136719 20.359375 16.191406 C 20.21875 16.21875 20.082031 16.277344 19.945312 16.304688 C 19.835938 16.359375 19.722656 16.414062 19.585938 16.441406 C 19.476562 16.496094 19.339844 16.523438 19.199219 16.550781 C 19.0625 16.578125 18.925781 16.605469 18.785156 16.632812 C 18.675781 16.660156 18.539062 16.691406 18.398438 16.71875 C 18.261719 16.746094 18.125 16.746094 17.984375 16.746094 C 17.847656 16.773438 17.710938 16.800781 17.574219 16.800781 C 17.433594 16.800781 17.296875 16.800781 17.160156 16.800781 C 17.019531 16.800781 16.882812 16.800781 16.71875 16.800781 C 16.578125 16.800781 16.441406 16.773438 16.304688 16.746094 C 16.191406 16.746094 16.054688 16.746094 15.945312 16.71875 C 15.808594 16.71875 15.667969 16.691406 15.53125 16.660156 C 15.394531 16.632812 15.253906 16.605469 15.144531 16.550781 C 15.007812 16.523438 14.867188 16.496094 14.757812 16.441406 C 14.621094 16.414062 14.484375 16.386719 14.371094 16.332031 C 14.234375 16.304688 14.097656 16.25 13.984375 16.21875 C 13.847656 16.164062 13.738281 16.109375 13.628906 16.054688 C 13.515625 15.972656 13.40625 15.917969 13.296875 15.863281 C 13.160156 15.808594 13.046875 15.75 12.9375 15.695312 C 12.828125 15.613281 12.71875 15.53125 12.605469 15.476562 C 12.496094 15.394531 12.386719 15.308594 12.277344 15.253906 C 12.164062 15.171875 12.054688 15.089844 11.972656 15.035156 C 11.863281 14.953125 11.75 14.867188 11.667969 14.785156 C 11.558594 14.703125 11.476562 14.621094 11.394531 14.539062 C 11.28125 14.425781 11.199219 14.316406 11.117188 14.234375 C 11.035156 14.125 10.953125 14.042969 10.867188 13.957031 C 10.757812 13.847656 10.675781 13.738281 10.59375 13.65625 C 10.511719 13.542969 10.457031 13.433594 10.398438 13.351562 C 10.316406 13.242188 10.234375 13.132812 10.152344 13.046875 C 10.097656 12.910156 10.042969 12.800781 9.984375 12.691406 C 9.902344 12.578125 9.847656 12.46875 9.792969 12.359375 C 9.710938 12.21875 9.65625 12.109375 9.601562 12 C 9.542969 11.863281 9.488281 11.75 9.460938 11.640625 C 9.40625 11.503906 9.378906 11.394531 9.351562 11.28125 C 9.324219 11.144531 9.269531 11.007812 9.242188 10.898438 C 9.214844 10.757812 9.160156 10.621094 9.132812 10.511719 C 9.101562 10.371094 9.074219 10.234375 9.046875 10.125 C 9.019531 9.984375 9.019531 9.847656 8.992188 9.710938 C 8.992188 9.574219 8.992188 9.433594 8.992188 9.296875 C 8.992188 9.160156 8.964844 9.019531 8.964844 8.910156 Z M 10.539062 9.1875 C 10.539062 9.296875 10.539062 9.40625 10.566406 9.515625 C 10.566406 9.628906 10.566406 9.738281 10.59375 9.847656 C 10.59375 9.929688 10.621094 10.015625 10.648438 10.125 C 10.675781 10.234375 10.703125 10.34375 10.730469 10.457031 C 10.757812 10.539062 10.785156 10.621094 10.8125 10.730469 C 10.839844 10.8125 10.867188 10.925781 10.925781 11.035156 C 10.953125 11.117188 10.980469 11.226562 11.035156 11.339844 C 11.0625 11.421875 11.117188 11.503906 11.171875 11.613281 C 11.226562 11.695312 11.28125 11.78125 11.339844 11.890625 C 11.367188 11.972656 11.421875 12.054688 11.476562 12.164062 C 11.53125 12.25 11.585938 12.332031 11.640625 12.414062 C 11.695312 12.496094 11.75 12.578125 11.835938 12.660156 C 11.890625 12.746094 11.945312 12.828125 12.027344 12.910156 C 12.082031 12.964844 12.136719 13.046875 12.21875 13.132812 C 12.304688 13.1875 12.386719 13.269531 12.46875 13.351562 C 12.523438 13.40625 12.578125 13.488281 12.660156 13.574219 C 12.746094 13.628906 12.828125 13.710938 12.9375 13.792969 C 12.992188 13.847656 13.074219 13.902344 13.160156 13.957031 C 13.242188 14.015625 13.324219 14.070312 13.433594 14.152344 C 13.515625 14.207031 13.601562 14.261719 13.683594 14.316406 C 13.765625 14.371094 13.847656 14.425781 13.957031 14.484375 C 14.042969 14.511719 14.152344 14.566406 14.261719 14.621094 C 14.34375 14.648438 14.425781 14.675781 14.539062 14.730469 C 14.621094 14.757812 14.730469 14.785156 14.839844 14.839844 C 14.925781 14.867188 15.035156 14.925781 15.144531 14.980469 C 15.253906 14.980469 15.367188 15.007812 15.476562 15.035156 C 15.585938 15.0625 15.695312 15.089844 15.808594 15.117188 C 15.917969 15.117188 16.027344 15.144531 16.109375 15.171875 C 16.21875 15.171875 16.332031 15.199219 16.414062 15.226562 C 16.550781 15.226562 16.660156 15.226562 16.773438 15.253906 C 16.910156 15.253906 17.019531 15.253906 17.132812 15.253906 C 17.242188 15.253906 17.351562 15.253906 17.460938 15.253906 C 17.574219 15.226562 17.683594 15.226562 17.792969 15.226562 C 17.929688 15.199219 18.042969 15.171875 18.152344 15.171875 C 18.261719 15.144531 18.371094 15.117188 18.457031 15.117188 C 18.566406 15.089844 18.675781 15.0625 18.785156 15.0625 C 18.898438 15.035156 19.007812 15.007812 19.089844 14.980469 C 19.199219 14.925781 19.308594 14.898438 19.394531 14.867188 C 19.503906 14.8125 19.613281 14.785156 19.722656 14.757812 C 19.835938 14.703125 19.917969 14.675781 20 14.648438 C 20.109375 14.59375 20.21875 14.539062 20.304688 14.484375 C 20.386719 14.425781 20.46875 14.371094 20.550781 14.34375 C 20.660156 14.289062 20.746094 14.234375 20.828125 14.179688 C 20.9375 14.097656 21.019531 14.042969 21.101562 13.984375 C 21.1875 13.902344 21.269531 13.847656 21.351562 13.792969 C 21.433594 13.710938 21.515625 13.65625 21.601562 13.601562 C 21.683594 13.515625 21.765625 13.433594 21.820312 13.378906 C 21.902344 13.296875 21.984375 13.242188 22.042969 13.1875 C 22.125 13.101562 22.207031 13.019531 22.261719 12.9375 C 22.316406 12.855469 22.371094 12.773438 22.425781 12.691406 C 22.511719 12.605469 22.59375 12.523438 22.648438 12.46875 C 22.703125 12.359375 22.757812 12.277344 22.8125 12.191406 C 22.867188 12.082031 22.925781 12 22.980469 11.917969 C 23.035156 11.808594 23.0625 11.722656 23.117188 11.640625 C 23.171875 11.53125 23.199219 11.449219 23.253906 11.367188 C 23.28125 11.253906 23.339844 11.171875 23.367188 11.089844 C 23.394531 10.980469 23.421875 10.867188 23.449219 10.785156 C 23.476562 10.675781 23.53125 10.566406 23.558594 10.484375 C 23.585938 10.371094 23.585938 10.261719 23.613281 10.179688 C 23.640625 10.070312 23.667969 9.957031 23.695312 9.875 C 23.695312 9.765625 23.722656 9.65625 23.722656 9.542969 C 23.722656 9.433594 23.75 9.324219 23.75 9.242188 C 23.75 9.132812 23.75 9.019531 23.75 8.910156 C 23.75 8.800781 23.75 8.691406 23.75 8.578125 C 23.75 8.46875 23.722656 8.359375 23.722656 8.25 C 23.722656 8.136719 23.695312 8.027344 23.695312 7.917969 C 23.667969 7.808594 23.667969 7.722656 23.640625 7.640625 C 23.613281 7.53125 23.613281 7.421875 23.585938 7.308594 C 23.558594 7.199219 23.503906 7.117188 23.476562 7.035156 C 23.449219 6.925781 23.394531 6.8125 23.367188 6.730469 C 23.339844 6.621094 23.308594 6.511719 23.28125 6.425781 C 23.226562 6.316406 23.199219 6.234375 23.144531 6.152344 C 23.089844 6.042969 23.035156 5.957031 22.980469 5.875 C 22.925781 5.765625 22.898438 5.683594 22.839844 5.601562 C 22.785156 5.515625 22.730469 5.433594 22.675781 5.351562 C 22.621094 5.269531 22.539062 5.1875 22.457031 5.101562 C 22.398438 5.019531 22.34375 4.9375 22.261719 4.855469 C 22.207031 4.773438 22.152344 4.71875 22.070312 4.632812 C 22.015625 4.550781 21.929688 4.496094 21.847656 4.414062 C 21.792969 4.332031 21.710938 4.277344 21.628906 4.191406 C 21.542969 4.109375 21.460938 4.054688 21.378906 3.972656 C 21.296875 3.917969 21.214844 3.863281 21.132812 3.808594 C 21.046875 3.75 20.964844 3.667969 20.882812 3.613281 C 20.800781 3.558594 20.71875 3.503906 20.605469 3.449219 C 20.523438 3.394531 20.441406 3.339844 20.332031 3.28125 C 20.25 3.226562 20.164062 3.199219 20.054688 3.144531 C 19.972656 3.117188 19.863281 3.0625 19.75 3.035156 C 19.667969 3.007812 19.558594 2.953125 19.449219 2.925781 C 19.367188 2.867188 19.253906 2.839844 19.144531 2.785156 C 19.035156 2.757812 18.925781 2.757812 18.8125 2.730469 C 18.703125 2.703125 18.59375 2.675781 18.484375 2.648438 C 18.398438 2.621094 18.289062 2.621094 18.179688 2.59375 C 18.070312 2.566406 17.957031 2.566406 17.847656 2.539062 C 17.738281 2.539062 17.628906 2.511719 17.488281 2.511719 C 17.378906 2.511719 17.269531 2.484375 17.160156 2.484375 C 17.046875 2.484375 16.9375 2.511719 16.828125 2.511719 C 16.71875 2.511719 16.605469 2.539062 16.46875 2.539062 C 16.359375 2.566406 16.25 2.566406 16.136719 2.59375 C 16.054688 2.621094 15.945312 2.621094 15.863281 2.648438 C 15.722656 2.675781 15.613281 2.675781 15.503906 2.703125 C 15.394531 2.730469 15.28125 2.757812 15.199219 2.785156 C 15.089844 2.8125 14.980469 2.867188 14.898438 2.898438 C 14.785156 2.925781 14.675781 2.980469 14.59375 3.007812 C 14.484375 3.035156 14.371094 3.089844 14.289062 3.117188 C 14.179688 3.171875 14.097656 3.226562 14.015625 3.28125 C 13.902344 3.339844 13.820312 3.367188 13.738281 3.421875 C 13.628906 3.476562 13.542969 3.53125 13.460938 3.585938 C 13.378906 3.640625 13.296875 3.722656 13.214844 3.78125 C 13.101562 3.835938 13.019531 3.917969 12.9375 3.972656 C 12.855469 4.027344 12.773438 4.109375 12.71875 4.164062 C 12.632812 4.25 12.550781 4.304688 12.496094 4.386719 C 12.414062 4.46875 12.332031 4.523438 12.25 4.605469 C 12.164062 4.691406 12.109375 4.746094 12.054688 4.828125 C 11.972656 4.910156 11.917969 4.992188 11.863281 5.074219 C 11.78125 5.160156 11.722656 5.214844 11.667969 5.296875 C 11.585938 5.378906 11.53125 5.488281 11.476562 5.574219 C 11.421875 5.65625 11.367188 5.738281 11.339844 5.847656 C 11.28125 5.929688 11.226562 6.015625 11.171875 6.125 C 11.117188 6.207031 11.0625 6.289062 11.035156 6.398438 C 10.980469 6.484375 10.953125 6.566406 10.925781 6.675781 C 10.898438 6.757812 10.867188 6.867188 10.839844 6.980469 C 10.785156 7.0625 10.757812 7.171875 10.730469 7.28125 C 10.703125 7.367188 10.675781 7.476562 10.675781 7.585938 C 10.648438 7.667969 10.621094 7.78125 10.59375 7.890625 C 10.566406 8 10.566406 8.109375 10.566406 8.21875 C 10.539062 8.304688 10.539062 8.414062 10.539062 8.523438 C 10.539062 8.632812 10.539062 8.746094 10.539062 8.855469 C 10.539062 8.964844 10.539062 9.074219 10.539062 9.1875 Z M 10.539062 9.1875 "/>
<path fill="none" stroke-width="1" stroke-linecap="butt" stroke-linejoin="miter" stroke="rgb(0%, 0%, 100%)" stroke-opacity="1" stroke-miterlimit="4" d="M 324.975586 322.993164 C 324.975586 318.037109 325.966797 312.939453 325.966797 307.983398 C 325.966797 303.027344 325.966797 297.929687 325.966797 292.973633 C 326.958008 288.017578 326.958008 283.061523 327.949219 278.955078 C 328.94043 273.999023 329.931641 269.042969 331.064453 264.936523 C 332.055664 259.980469 333.046875 255.024414 334.038086 250.068359 C 335.029297 244.970703 337.011719 241.005859 338.00293 237.041016 C 338.994141 231.943359 340.976562 227.978516 342.958984 224.013672 C 343.950195 219.057617 345.932617 213.959961 348.056641 209.995117 C 350.039062 205.039062 352.021484 200.932617 354.003906 196.967773 C 355.986328 193.00293 357.96875 189.038086 360.942383 184.931641 C 363.066406 180.966797 365.048828 177.001953 368.022461 173.037109 C 370.004883 168.930664 372.978516 164.96582 375.952148 161.000977 C 377.93457 157.036133 381.049805 152.929687 384.023437 148.964844 C 386.99707 145 389.970703 142.026367 392.944336 138.061523 C 396.05957 134.946289 399.033203 130.981445 402.006836 128.007812 C 404.980469 125.03418 407.954102 121.069336 412.060547 117.954102 C 415.03418 114.980469 418.007812 112.006836 421.972656 109.033203 C 424.946289 106.05957 428.061523 102.944336 432.026367 99.970703 C 435.991211 96.99707 439.956055 94.023437 444.0625 91.049805 C 448.027344 87.93457 451.992187 85.952148 455.957031 82.978516 C 460.063477 80.004883 464.02832 78.022461 467.993164 75.048828 C 471.958008 73.066406 476.064453 70.942383 480.029297 68.959961 C 483.994141 66.977539 487.958984 64.995117 493.056641 63.012695 C 497.021484 61.030273 500.986328 59.047852 505.942383 57.06543 C 510.048828 54.941406 515.004883 53.950195 519.960937 51.967773 C 524.067383 49.985352 528.032227 48.994141 532.988281 47.011719 C 537.944336 46.020508 543.041992 44.038086 547.998047 43.046875 C 551.962891 42.055664 557.060547 41.064453 562.016602 39.931641 C 565.981445 38.94043 570.9375 37.949219 576.035156 36.958008 C 580.991211 36.958008 584.956055 35.966797 590.053711 35.966797 C 595.009766 34.975586 599.96582 34.975586 605.063477 33.984375 C 611.010742 33.984375 615.966797 33.984375 621.064453 33.984375 C 626.020508 33.984375 630.976562 33.984375 635.932617 33.984375 C 641.030273 33.984375 645.986328 34.975586 650.942383 34.975586 C 656.040039 35.966797 660.996094 35.966797 664.960937 36.958008 C 670.058594 37.949219 675.014648 37.949219 679.970703 38.94043 C 685.068359 39.931641 690.024414 42.055664 694.980469 43.046875 C 699.936523 44.038086 704.042969 46.020508 708.007812 47.011719 C 712.963867 48.00293 718.061523 49.985352 723.017578 50.976562 C 727.973633 52.958984 731.938477 53.950195 736.044922 55.932617 C 741.000977 58.056641 744.96582 60.039062 748.930664 62.021484 C 754.02832 64.003906 757.993164 65.986328 761.958008 67.96875 C 767.055664 69.951172 771.020508 73.066406 774.985352 75.048828 C 778.950195 78.022461 783.056641 80.004883 786.030273 82.978516 C 789.995117 84.960937 793.959961 87.93457 798.066406 90.058594 C 802.03125 93.032227 805.996094 96.005859 808.969727 98.979492 C 812.93457 101.953125 817.041016 105.068359 820.014648 108.041992 C 823.979492 111.015625 826.953125 113.989258 830.068359 116.962891 C 833.041992 121.069336 837.006836 124.042969 839.980469 128.007812 C 842.954102 130.981445 847.060547 134.946289 850.03418 138.061523 C 853.007812 142.026367 855.981445 145 858.955078 148.964844 C 862.070312 152.929687 864.052734 156.044922 867.026367 160.009766 C 870 163.974609 871.982422 167.939453 874.956055 172.045898 C 876.938477 176.010742 880.053711 179.975586 882.036133 183.94043 C 884.018555 188.046875 886.000977 192.011719 887.983398 195.976562 C 889.96582 199.941406 892.939453 204.047852 895.063477 209.003906 C 897.045898 212.96875 898.037109 216.933594 900.019531 222.03125 C 901.010742 225.996094 902.993164 229.960937 903.984375 235.058594 C 905.966797 239.023437 906.958008 243.979492 908.94043 248.935547 C 909.931641 253.041992 912.055664 257.998047 913.046875 262.954102 C 914.038086 267.060547 914.038086 272.016602 915.029297 276.972656 C 916.020508 282.070312 916.020508 287.026367 917.011719 291.982422 C 917.011719 296.938477 918.00293 302.036133 918.00293 306.992187 C 918.00293 310.957031 918.994141 316.054687 918.994141 321.010742 C 918.994141 325.966797 918.00293 331.064453 918.00293 336.020508 C 918.00293 340.976562 917.011719 345.932617 917.011719 351.030273 C 916.020508 354.995117 916.020508 359.951172 915.029297 365.048828 C 914.038086 369.013672 914.038086 373.969727 913.046875 379.067383 C 912.055664 384.023437 909.931641 388.979492 908.94043 393.935547 C 907.949219 398.041992 905.966797 402.006836 904.975586 406.962891 C 902.993164 411.069336 902.001953 415.03418 900.019531 419.990234 C 898.037109 423.955078 897.045898 429.052734 895.063477 434.008789 C 892.939453 437.973633 890.957031 441.938477 888.974609 447.036133 C 886.992187 451.000977 884.018555 454.96582 882.036133 458.930664 C 880.053711 463.037109 877.929687 467.001953 875.947266 470.966797 C 872.973633 474.931641 870.991211 479.038086 868.017578 483.00293 C 865.043945 486.967773 863.061523 490.932617 859.946289 495.039062 C 856.972656 498.012695 853.007812 500.986328 850.03418 504.951172 C 847.060547 508.066406 843.945312 512.03125 840.97168 515.996094 C 837.998047 518.969727 834.033203 521.943359 831.05957 526.049805 C 827.944336 529.023437 824.970703 531.99707 821.005859 534.970703 C 818.032227 537.944336 814.067383 541.05957 809.960937 544.033203 C 806.987305 547.006836 803.022461 549.980469 799.057617 552.954102 C 794.951172 554.936523 790.986328 558.051758 787.021484 561.025391 C 784.047852 563.007812 779.941406 565.981445 775.976562 568.955078 C 772.011719 570.9375 768.046875 573.061523 762.949219 575.043945 C 758.984375 577.026367 755.019531 579.008789 750.063477 580.991211 C 745.957031 582.973633 741.992187 584.956055 738.027344 586.938477 C 732.929687 587.929687 727.973633 590.053711 723.017578 591.044922 C 719.052734 593.027344 714.946289 595.009766 709.990234 596.000977 C 706.025391 597.983398 701.069336 598.974609 695.97168 599.96582 C 691.015625 600.957031 686.05957 601.948242 680.961914 602.939453 C 676.99707 603.930664 672.041016 605.063477 666.943359 606.054687 C 661.987305 607.045898 657.03125 607.045898 651.933594 607.045898 C 646.977539 608.037109 642.021484 609.02832 637.06543 609.02832 C 631.967773 609.02832 627.011719 609.02832 622.055664 609.02832 C 616.958008 609.02832 612.001953 609.02832 606.054687 609.02832 C 600.957031 609.02832 596.000977 608.037109 591.044922 607.045898 C 586.938477 607.045898 581.982422 607.045898 578.017578 606.054687 C 573.061523 606.054687 567.963867 605.063477 563.007812 603.930664 C 558.051758 602.939453 552.954102 601.948242 548.989258 599.96582 C 544.033203 598.974609 538.935547 597.983398 534.970703 596.000977 C 530.014648 595.009766 525.058594 594.018555 520.952148 592.036133 C 515.996094 591.044922 511.040039 589.0625 506.933594 587.929687 C 501.977539 585.947266 498.012695 583.964844 494.047852 581.982422 C 489.941406 579.008789 485.976562 577.026367 482.011719 575.043945 C 477.055664 573.061523 472.949219 570.9375 468.984375 568.955078 C 465.019531 565.981445 461.054687 563.007812 456.948242 561.025391 C 452.983398 558.051758 449.018555 554.936523 445.053711 552.954102 C 440.947266 549.980469 436.982422 547.006836 434.008789 545.024414 C 430.043945 542.050781 425.9375 538.935547 422.963867 535.961914 C 418.999023 532.988281 416.025391 530.014648 413.051758 527.041016 C 408.945312 522.93457 405.97168 518.969727 402.998047 515.996094 C 400.024414 512.03125 397.050781 509.057617 393.935547 505.942383 C 389.970703 501.977539 386.99707 498.012695 384.023437 495.039062 C 381.049805 490.932617 379.067383 486.967773 376.943359 483.994141 C 373.969727 480.029297 370.996094 476.064453 368.022461 472.949219 C 366.040039 467.993164 364.057617 464.02832 361.933594 460.063477 C 358.959961 455.957031 356.977539 451.992187 354.995117 448.027344 C 352.021484 442.929687 350.039062 438.964844 348.056641 435 C 345.932617 430.043945 343.950195 425.9375 342.958984 421.972656 C 340.976562 417.016602 339.985352 413.051758 338.994141 408.945312 C 338.00293 403.989258 336.020508 399.033203 335.029297 395.068359 C 334.038086 389.970703 332.055664 385.014648 331.064453 381.049805 C 329.931641 375.952148 328.94043 370.996094 327.949219 367.03125 C 326.958008 361.933594 326.958008 356.977539 325.966797 352.021484 C 325.966797 347.06543 325.966797 341.967773 325.966797 337.011719 C 325.966797 332.055664 324.975586 326.958008 324.975586 322.993164 Z M 324.975586 322.993164 " transform="matrix(0.0275862, 0, 0, 0.0275862, 0, 0)"/>
<path fill="none" stroke-width="1" stroke-linecap="butt" stroke-linejoin="miter" stroke="rgb(0%, 0%, 100%)" stroke-opacity="1" stroke-miterlimit="4" d="M 382.041016 333.046875 C 382.041016 337.011719 382.041016 340.976562 383.032227 344.941406 C 383.032227 349.047852 383.032227 353.012695 384.023437 356.977539 C 384.023437 359.951172 385.014648 363.066406 386.005859 367.03125 C 386.99707 370.996094 387.988281 374.960937 388.979492 379.067383 C 389.970703 382.041016 390.961914 385.014648 391.953125 388.979492 C 392.944336 391.953125 393.935547 396.05957 396.05957 400.024414 C 397.050781 402.998047 398.041992 406.962891 400.024414 411.069336 C 401.015625 414.042969 402.998047 417.016602 404.980469 420.981445 C 406.962891 423.955078 408.945312 427.070312 411.069336 431.035156 C 412.060547 434.008789 414.042969 436.982422 416.025391 440.947266 C 418.007812 444.0625 419.990234 447.036133 421.972656 450.009766 C 423.955078 452.983398 425.9375 455.957031 429.052734 458.930664 C 431.035156 462.045898 433.017578 465.019531 435.991211 467.993164 C 437.973633 469.975586 439.956055 472.949219 442.929687 476.064453 C 446.044922 478.046875 449.018555 481.020508 451.992187 483.994141 C 453.974609 485.976562 455.957031 488.950195 458.930664 492.06543 C 462.045898 494.047852 465.019531 497.021484 468.984375 499.995117 C 470.966797 501.977539 473.94043 503.959961 477.055664 505.942383 C 480.029297 508.066406 483.00293 510.048828 486.967773 513.022461 C 489.941406 515.004883 493.056641 516.987305 496.030273 518.969727 C 499.003906 520.952148 501.977539 522.93457 505.942383 525.058594 C 509.057617 526.049805 513.022461 528.032227 516.987305 530.014648 C 519.960937 531.005859 522.93457 531.99707 527.041016 533.979492 C 530.014648 534.970703 533.979492 535.961914 537.944336 537.944336 C 541.05957 538.935547 545.024414 541.05957 548.989258 543.041992 C 552.954102 543.041992 557.060547 544.033203 561.025391 545.024414 C 564.990234 546.015625 568.955078 547.006836 573.061523 547.998047 C 577.026367 547.998047 580.991211 548.989258 583.964844 549.980469 C 587.929687 549.980469 592.036133 550.97168 595.009766 551.962891 C 599.96582 551.962891 603.930664 551.962891 608.037109 552.954102 C 612.993164 552.954102 616.958008 552.954102 621.064453 552.954102 C 625.029297 552.954102 628.994141 552.954102 632.958984 552.954102 C 637.06543 551.962891 641.030273 551.962891 644.995117 551.962891 C 649.951172 550.97168 654.057617 549.980469 658.022461 549.980469 C 661.987305 548.989258 665.952148 547.998047 669.067383 547.998047 C 673.032227 547.006836 676.99707 546.015625 680.961914 546.015625 C 685.068359 545.024414 689.033203 544.033203 692.006836 543.041992 C 695.97168 541.05957 699.936523 540.068359 703.051758 538.935547 C 707.016602 536.953125 710.981445 535.961914 714.946289 534.970703 C 719.052734 532.988281 722.026367 531.99707 725 531.005859 C 728.964844 529.023437 732.929687 527.041016 736.044922 525.058594 C 739.018555 522.93457 741.992187 520.952148 744.96582 519.960937 C 748.930664 517.978516 752.045898 515.996094 755.019531 514.013672 C 758.984375 511.040039 761.958008 509.057617 764.931641 506.933594 C 768.046875 503.959961 771.020508 501.977539 773.994141 499.995117 C 776.967773 497.021484 779.941406 495.039062 783.056641 493.056641 C 786.030273 489.941406 789.003906 486.967773 790.986328 484.985352 C 793.959961 482.011719 796.933594 480.029297 799.057617 478.046875 C 802.03125 474.931641 805.004883 471.958008 806.987305 468.984375 C 808.969727 466.010742 810.952148 463.037109 812.93457 460.063477 C 816.049805 456.948242 819.023437 453.974609 821.005859 451.992187 C 822.988281 448.027344 824.970703 445.053711 826.953125 441.938477 C 828.935547 437.973633 831.05957 435 833.041992 432.026367 C 835.024414 428.061523 836.015625 424.946289 837.998047 421.972656 C 839.980469 418.007812 840.97168 415.03418 842.954102 412.060547 C 843.945312 407.954102 846.069336 404.980469 847.060547 402.006836 C 848.051758 398.041992 849.042969 393.935547 850.03418 390.961914 C 851.025391 386.99707 853.007812 383.032227 853.999023 380.058594 C 854.990234 375.952148 854.990234 371.987305 855.981445 369.013672 C 856.972656 365.048828 857.963867 360.942383 858.955078 357.96875 C 858.955078 354.003906 859.946289 350.039062 859.946289 345.932617 C 859.946289 341.967773 860.9375 338.00293 860.9375 335.029297 C 860.9375 331.064453 860.9375 326.958008 860.9375 322.993164 C 860.9375 319.02832 860.9375 315.063477 860.9375 310.957031 C 860.9375 306.992187 859.946289 303.027344 859.946289 299.0625 C 859.946289 294.956055 858.955078 290.991211 858.955078 287.026367 C 857.963867 283.061523 857.963867 279.946289 856.972656 276.972656 C 855.981445 273.007812 855.981445 269.042969 854.990234 264.936523 C 853.999023 260.97168 852.016602 257.998047 851.025391 255.024414 C 850.03418 251.05957 848.051758 246.953125 847.060547 243.979492 C 846.069336 240.014648 844.936523 236.049805 843.945312 232.93457 C 841.962891 228.969727 840.97168 225.996094 838.989258 223.022461 C 837.006836 219.057617 835.024414 215.942383 833.041992 212.96875 C 831.05957 209.003906 830.068359 206.030273 827.944336 203.056641 C 825.961914 199.941406 823.979492 196.967773 821.99707 193.994141 C 820.014648 191.020508 817.041016 188.046875 814.067383 184.931641 C 811.943359 181.958008 809.960937 178.984375 806.987305 176.010742 C 805.004883 173.037109 803.022461 171.054687 800.048828 167.939453 C 798.066406 164.96582 794.951172 162.983398 791.977539 160.009766 C 789.995117 157.036133 787.021484 155.053711 784.047852 151.938477 C 780.932617 148.964844 777.958984 146.982422 774.985352 144.008789 C 772.011719 142.026367 769.038086 140.043945 766.064453 138.061523 C 762.949219 135.9375 759.975586 132.963867 757.001953 130.981445 C 754.02832 128.999023 751.054687 127.016602 746.948242 125.03418 C 743.974609 123.051758 741.000977 121.069336 737.036133 118.945312 C 734.0625 116.962891 730.947266 115.97168 726.982422 113.989258 C 724.008789 112.998047 720.043945 111.015625 715.9375 110.024414 C 712.963867 109.033203 708.999023 107.050781 705.03418 106.05957 C 702.060547 103.935547 697.954102 102.944336 693.989258 100.961914 C 690.024414 99.970703 686.05957 99.970703 681.953125 98.979492 C 677.988281 97.988281 674.023437 96.99707 670.058594 96.005859 C 666.943359 95.014648 662.978516 95.014648 659.013672 94.023437 C 655.048828 93.032227 650.942383 93.032227 646.977539 92.041016 C 643.012695 92.041016 639.047852 91.049805 633.950195 91.049805 C 629.985352 91.049805 626.020508 90.058594 622.055664 90.058594 C 617.949219 90.058594 613.984375 91.049805 610.019531 91.049805 C 606.054687 91.049805 601.948242 92.041016 596.992187 92.041016 C 593.027344 93.032227 589.0625 93.032227 584.956055 94.023437 C 581.982422 95.014648 578.017578 95.014648 575.043945 96.005859 C 569.946289 96.99707 565.981445 96.99707 562.016602 97.988281 C 558.051758 98.979492 553.945312 99.970703 550.97168 100.961914 C 547.006836 101.953125 543.041992 103.935547 540.068359 105.068359 C 535.961914 106.05957 531.99707 108.041992 529.023437 109.033203 C 525.058594 110.024414 520.952148 112.006836 517.978516 112.998047 C 514.013672 114.980469 511.040039 116.962891 508.066406 118.945312 C 503.959961 121.069336 500.986328 122.060547 498.012695 124.042969 C 494.047852 126.025391 490.932617 128.007812 487.958984 129.990234 C 484.985352 131.972656 482.011719 134.946289 479.038086 137.070312 C 474.931641 139.052734 471.958008 142.026367 468.984375 144.008789 C 466.010742 145.991211 463.037109 148.964844 461.054687 150.947266 C 457.939453 154.0625 454.96582 156.044922 452.983398 159.018555 C 450.009766 161.992187 447.036133 163.974609 444.0625 166.948242 C 440.947266 170.063477 438.964844 172.045898 436.982422 175.019531 C 434.008789 177.993164 432.026367 180.966797 430.043945 183.94043 C 427.070312 187.055664 424.946289 189.038086 422.963867 192.011719 C 419.990234 194.985352 418.007812 198.950195 416.025391 202.06543 C 414.042969 205.039062 412.060547 208.012695 411.069336 211.977539 C 408.945312 214.951172 406.962891 218.066406 404.980469 222.03125 C 402.998047 225.004883 401.015625 227.978516 400.024414 231.943359 C 398.041992 235.058594 397.050781 238.032227 396.05957 241.99707 C 395.068359 244.970703 393.935547 248.935547 392.944336 253.041992 C 390.961914 256.015625 389.970703 259.980469 388.979492 263.945312 C 387.988281 267.060547 386.99707 271.025391 386.99707 274.990234 C 386.005859 277.963867 385.014648 282.070312 384.023437 286.035156 C 383.032227 290 383.032227 293.964844 383.032227 297.929687 C 382.041016 301.044922 382.041016 305.009766 382.041016 308.974609 C 382.041016 312.939453 382.041016 317.045898 382.041016 321.010742 C 382.041016 324.975586 382.041016 328.94043 382.041016 333.046875 Z M 382.041016 333.046875 " transform="matrix(0.0275862, 0, 0, 0.0275862, 0, 0)"/>
<path fill-rule="nonzero" fill="rgb(0%, 0%, 100%)" fill-opacity="1" d="M 15.558594 10.839844 L 15.558594 6.925781 L 17.214844 6.925781 C 17.628906 6.925781 17.929688 6.980469 18.125 7.035156 C 18.289062 7.117188 18.457031 7.226562 18.566406 7.421875 C 18.675781 7.585938 18.730469 7.808594 18.730469 8.027344 C 18.730469 8.332031 18.648438 8.550781 18.484375 8.746094 C 18.316406 8.9375 18.042969 9.074219 17.710938 9.101562 C 17.875 9.214844 18.015625 9.324219 18.125 9.433594 C 18.234375 9.574219 18.398438 9.765625 18.566406 10.070312 L 19.035156 10.839844 L 18.125 10.839844 L 17.542969 9.984375 C 17.351562 9.683594 17.214844 9.488281 17.132812 9.40625 C 17.074219 9.324219 16.992188 9.269531 16.910156 9.242188 C 16.828125 9.214844 16.691406 9.214844 16.496094 9.214844 L 16.359375 9.214844 L 16.359375 10.839844 Z M 16.359375 8.578125 L 16.9375 8.578125 C 17.296875 8.578125 17.542969 8.578125 17.628906 8.523438 C 17.710938 8.496094 17.792969 8.441406 17.847656 8.359375 C 17.902344 8.304688 17.929688 8.191406 17.929688 8.082031 C 17.929688 7.945312 17.902344 7.835938 17.820312 7.75 C 17.765625 7.667969 17.65625 7.640625 17.515625 7.613281 C 17.460938 7.585938 17.269531 7.585938 16.964844 7.585938 L 16.359375 7.585938 Z M 16.359375 8.578125 "/>
</svg>
