<?xml version="1.0" encoding="UTF-8"?>
<svg xmlns="http://www.w3.org/2000/svg" xmlns:xlink="http://www.w3.org/1999/xlink" width="32" height="32" viewBox="0 0 32 32">
<path fill-rule="nonzero" fill="rgb(0%, 0%, 100%)" fill-opacity="1" stroke-width="1" stroke-linecap="butt" stroke-linejoin="miter" stroke="rgb(0%, 0%, 100%)" stroke-opacity="1" stroke-miterlimit="4" d="M 386.005859 313.930664 C 386.005859 532.988281 386.005859 752.045898 386.005859 970.961914 C 367.03125 970.961914 348.056641 970.961914 328.94043 970.961914 C 328.94043 752.045898 328.94043 532.988281 328.94043 313.930664 C 348.056641 313.930664 367.03125 313.930664 386.005859 313.930664 Z M 386.005859 313.930664 " transform="matrix(0.0275862, 0, 0, 0.0275862, 0, 0)"/>
<path fill-rule="nonzero" fill="rgb(0%, 0%, 100%)" fill-opacity="1" d="M 9.101562 8.632812 C 9.101562 8.496094 9.101562 8.359375 9.132812 8.21875 C 9.132812 8.082031 9.132812 7.945312 9.160156 7.808594 C 9.160156 7.667969 9.160156 7.53125 9.1875 7.421875 C 9.214844 7.28125 9.242188 7.144531 9.269531 7.035156 C 9.296875 6.898438 9.324219 6.757812 9.351562 6.648438 C 9.378906 6.511719 9.433594 6.371094 9.488281 6.261719 C 9.515625 6.125 9.542969 6.015625 9.601562 5.902344 C 9.628906 5.765625 9.683594 5.65625 9.738281 5.542969 C 9.792969 5.40625 9.847656 5.296875 9.902344 5.160156 C 9.957031 5.046875 10.015625 4.9375 10.097656 4.828125 C 10.152344 4.71875 10.234375 4.605469 10.316406 4.496094 C 10.371094 4.386719 10.425781 4.277344 10.511719 4.164062 C 10.59375 4.054688 10.675781 3.972656 10.757812 3.863281 C 10.8125 3.75 10.898438 3.667969 10.980469 3.558594 C 11.0625 3.476562 11.144531 3.367188 11.253906 3.28125 C 11.339844 3.171875 11.421875 3.089844 11.53125 2.980469 C 11.613281 2.898438 11.695312 2.8125 11.808594 2.730469 C 11.890625 2.648438 12 2.566406 12.109375 2.484375 C 12.191406 2.398438 12.304688 2.316406 12.414062 2.234375 C 12.523438 2.152344 12.632812 2.097656 12.746094 2.015625 C 12.855469 1.957031 12.964844 1.875 13.074219 1.820312 C 13.1875 1.765625 13.296875 1.683594 13.40625 1.628906 C 13.515625 1.574219 13.628906 1.488281 13.765625 1.433594 C 13.875 1.378906 13.984375 1.351562 14.125 1.296875 C 14.234375 1.242188 14.371094 1.214844 14.511719 1.160156 C 14.621094 1.101562 14.730469 1.074219 14.867188 1.019531 C 15.007812 0.992188 15.144531 0.9375 15.28125 0.910156 C 15.421875 0.882812 15.558594 0.855469 15.695312 0.828125 C 15.808594 0.800781 15.945312 0.773438 16.082031 0.746094 C 16.191406 0.71875 16.332031 0.71875 16.46875 0.691406 C 16.605469 0.691406 16.746094 0.691406 16.882812 0.691406 C 17.019531 0.691406 17.160156 0.660156 17.296875 0.660156 C 17.460938 0.660156 17.601562 0.691406 17.738281 0.691406 C 17.875 0.691406 18.015625 0.691406 18.125 0.691406 C 18.289062 0.71875 18.425781 0.71875 18.566406 0.746094 C 18.703125 0.773438 18.839844 0.800781 18.953125 0.828125 C 19.089844 0.855469 19.226562 0.882812 19.367188 0.910156 C 19.503906 0.9375 19.640625 0.992188 19.75 1.019531 C 19.890625 1.046875 20.027344 1.101562 20.136719 1.132812 C 20.277344 1.1875 20.414062 1.214844 20.523438 1.269531 C 20.632812 1.324219 20.746094 1.378906 20.855469 1.433594 C 20.992188 1.488281 21.101562 1.542969 21.214844 1.601562 C 21.351562 1.65625 21.460938 1.738281 21.574219 1.792969 C 21.683594 1.847656 21.792969 1.929688 21.902344 1.984375 C 22.015625 2.070312 22.125 2.152344 22.234375 2.234375 C 22.34375 2.316406 22.457031 2.371094 22.539062 2.457031 C 22.648438 2.539062 22.757812 2.621094 22.839844 2.703125 C 22.953125 2.785156 23.035156 2.898438 23.117188 2.980469 C 23.226562 3.0625 23.308594 3.171875 23.421875 3.253906 C 23.503906 3.339844 23.585938 3.449219 23.667969 3.53125 C 23.75 3.640625 23.835938 3.722656 23.917969 3.835938 C 24 3.945312 24.054688 4.027344 24.136719 4.136719 C 24.21875 4.25 24.277344 4.359375 24.359375 4.46875 C 24.414062 4.578125 24.496094 4.660156 24.550781 4.773438 C 24.605469 4.882812 24.691406 5.019531 24.746094 5.132812 C 24.800781 5.242188 24.855469 5.378906 24.910156 5.488281 C 24.964844 5.601562 25.019531 5.710938 25.074219 5.847656 C 25.101562 5.957031 25.160156 6.097656 25.1875 6.234375 C 25.214844 6.34375 25.269531 6.457031 25.296875 6.59375 C 25.324219 6.703125 25.378906 6.839844 25.40625 6.980469 C 25.433594 7.089844 25.433594 7.226562 25.460938 7.367188 C 25.488281 7.503906 25.515625 7.640625 25.542969 7.78125 C 25.542969 7.917969 25.574219 8.054688 25.574219 8.191406 C 25.574219 8.304688 25.574219 8.441406 25.574219 8.578125 C 25.574219 8.71875 25.574219 8.855469 25.574219 9.019531 C 25.574219 9.132812 25.542969 9.269531 25.542969 9.40625 C 25.515625 9.542969 25.515625 9.683594 25.488281 9.820312 C 25.460938 9.929688 25.433594 10.070312 25.40625 10.207031 C 25.378906 10.316406 25.351562 10.457031 25.324219 10.59375 C 25.296875 10.703125 25.242188 10.839844 25.214844 10.980469 C 25.160156 11.089844 25.132812 11.199219 25.074219 11.339844 C 25.019531 11.449219 24.964844 11.558594 24.910156 11.695312 C 24.855469 11.808594 24.800781 11.917969 24.746094 12.054688 C 24.691406 12.164062 24.632812 12.277344 24.578125 12.414062 C 24.523438 12.523438 24.441406 12.632812 24.386719 12.746094 C 24.304688 12.855469 24.25 12.964844 24.164062 13.074219 C 24.082031 13.160156 24.027344 13.269531 23.945312 13.378906 C 23.863281 13.460938 23.78125 13.542969 23.695312 13.65625 C 23.613281 13.738281 23.53125 13.847656 23.449219 13.957031 C 23.339844 14.042969 23.253906 14.125 23.144531 14.234375 C 23.0625 14.316406 22.980469 14.398438 22.867188 14.511719 C 22.785156 14.566406 22.675781 14.648438 22.566406 14.730469 C 22.484375 14.8125 22.371094 14.898438 22.261719 14.980469 C 22.179688 15.0625 22.070312 15.144531 21.957031 15.226562 C 21.847656 15.28125 21.738281 15.339844 21.601562 15.421875 C 21.488281 15.476562 21.378906 15.53125 21.269531 15.613281 C 21.160156 15.667969 21.046875 15.722656 20.910156 15.78125 C 20.800781 15.835938 20.660156 15.890625 20.523438 15.945312 C 20.414062 15.972656 20.304688 16.027344 20.164062 16.082031 C 20.054688 16.109375 19.917969 16.136719 19.78125 16.191406 C 19.667969 16.21875 19.53125 16.277344 19.394531 16.304688 C 19.28125 16.332031 19.144531 16.359375 19.007812 16.386719 C 18.867188 16.414062 18.730469 16.441406 18.59375 16.46875 C 18.457031 16.496094 18.316406 16.496094 18.179688 16.496094 C 18.042969 16.523438 17.902344 16.523438 17.765625 16.523438 C 17.628906 16.523438 17.488281 16.523438 17.351562 16.523438 C 17.214844 16.523438 17.074219 16.523438 16.9375 16.523438 C 16.800781 16.523438 16.660156 16.523438 16.496094 16.496094 C 16.359375 16.496094 16.21875 16.496094 16.082031 16.46875 C 15.972656 16.441406 15.835938 16.414062 15.695312 16.386719 C 15.558594 16.359375 15.421875 16.332031 15.308594 16.304688 C 15.171875 16.277344 15.035156 16.25 14.925781 16.21875 C 14.785156 16.164062 14.675781 16.109375 14.566406 16.082031 C 14.425781 16.027344 14.289062 16 14.179688 15.972656 C 14.042969 15.917969 13.902344 15.863281 13.792969 15.808594 C 13.65625 15.722656 13.542969 15.667969 13.433594 15.613281 C 13.324219 15.53125 13.214844 15.476562 13.101562 15.421875 C 12.992188 15.339844 12.882812 15.28125 12.773438 15.226562 C 12.660156 15.144531 12.550781 15.0625 12.441406 15.007812 C 12.332031 14.925781 12.21875 14.839844 12.109375 14.757812 C 12 14.675781 11.917969 14.59375 11.835938 14.539062 C 11.722656 14.425781 11.640625 14.316406 11.558594 14.234375 C 11.449219 14.152344 11.367188 14.070312 11.28125 13.984375 C 11.171875 13.875 11.089844 13.792969 11.007812 13.710938 C 10.925781 13.601562 10.839844 13.488281 10.785156 13.40625 C 10.703125 13.296875 10.621094 13.1875 10.539062 13.101562 C 10.457031 12.992188 10.371094 12.882812 10.316406 12.773438 C 10.234375 12.660156 10.179688 12.550781 10.125 12.441406 C 10.042969 12.332031 9.984375 12.21875 9.929688 12.109375 C 9.875 11.972656 9.820312 11.863281 9.765625 11.75 C 9.710938 11.613281 9.65625 11.476562 9.628906 11.367188 C 9.574219 11.226562 9.515625 11.117188 9.488281 11.007812 C 9.433594 10.867188 9.378906 10.757812 9.351562 10.648438 C 9.324219 10.511719 9.296875 10.371094 9.269531 10.234375 C 9.242188 10.097656 9.214844 9.957031 9.1875 9.847656 C 9.160156 9.710938 9.160156 9.574219 9.160156 9.460938 C 9.132812 9.324219 9.132812 9.1875 9.132812 9.046875 C 9.101562 8.910156 9.101562 8.773438 9.101562 8.632812 Z M 10.675781 8.9375 C 10.675781 9.019531 10.675781 9.132812 10.703125 9.242188 C 10.703125 9.324219 10.730469 9.433594 10.757812 9.542969 C 10.757812 9.65625 10.785156 9.765625 10.8125 9.875 C 10.839844 9.957031 10.867188 10.070312 10.898438 10.179688 C 10.925781 10.261719 10.953125 10.371094 10.980469 10.484375 C 11.007812 10.566406 11.035156 10.675781 11.089844 10.785156 C 11.117188 10.867188 11.144531 10.953125 11.199219 11.0625 C 11.226562 11.144531 11.253906 11.226562 11.308594 11.339844 C 11.367188 11.421875 11.421875 11.503906 11.476562 11.613281 C 11.53125 11.695312 11.585938 11.78125 11.640625 11.890625 C 11.695312 11.972656 11.75 12.054688 11.808594 12.136719 C 11.863281 12.21875 11.917969 12.304688 11.972656 12.414062 C 12.027344 12.46875 12.109375 12.550781 12.191406 12.632812 C 12.25 12.71875 12.304688 12.800781 12.386719 12.882812 C 12.441406 12.9375 12.523438 13.019531 12.605469 13.101562 C 12.660156 13.160156 12.746094 13.214844 12.828125 13.296875 C 12.910156 13.351562 12.992188 13.433594 13.101562 13.515625 C 13.160156 13.574219 13.242188 13.628906 13.324219 13.710938 C 13.40625 13.765625 13.488281 13.820312 13.601562 13.902344 C 13.683594 13.957031 13.765625 14.015625 13.875 14.070312 C 13.957031 14.097656 14.042969 14.152344 14.152344 14.207031 C 14.234375 14.234375 14.316406 14.289062 14.425781 14.34375 C 14.511719 14.371094 14.621094 14.425781 14.730469 14.484375 C 14.8125 14.511719 14.925781 14.539062 15.035156 14.59375 C 15.117188 14.621094 15.226562 14.648438 15.339844 14.703125 C 15.449219 14.730469 15.558594 14.757812 15.667969 14.785156 C 15.78125 14.8125 15.890625 14.839844 16 14.867188 C 16.082031 14.867188 16.191406 14.867188 16.304688 14.898438 C 16.414062 14.898438 16.523438 14.925781 16.632812 14.953125 C 16.746094 14.953125 16.855469 14.953125 16.964844 14.980469 C 17.074219 14.980469 17.1875 14.980469 17.296875 14.980469 C 17.433594 14.980469 17.542969 14.980469 17.65625 14.980469 C 17.765625 14.953125 17.875 14.953125 17.984375 14.953125 C 18.097656 14.925781 18.207031 14.898438 18.316406 14.898438 C 18.425781 14.867188 18.539062 14.867188 18.648438 14.867188 C 18.757812 14.839844 18.867188 14.8125 18.980469 14.785156 C 19.089844 14.757812 19.199219 14.730469 19.308594 14.703125 C 19.421875 14.648438 19.53125 14.621094 19.613281 14.59375 C 19.722656 14.539062 19.835938 14.511719 19.917969 14.484375 C 20.027344 14.425781 20.136719 14.398438 20.21875 14.371094 C 20.332031 14.316406 20.414062 14.261719 20.496094 14.234375 C 20.605469 14.179688 20.691406 14.125 20.773438 14.070312 C 20.882812 14.015625 20.964844 13.957031 21.046875 13.902344 C 21.160156 13.847656 21.242188 13.792969 21.324219 13.738281 C 21.40625 13.65625 21.488281 13.601562 21.542969 13.542969 C 21.65625 13.460938 21.738281 13.378906 21.820312 13.324219 C 21.902344 13.242188 21.984375 13.1875 22.042969 13.132812 C 22.125 13.046875 22.207031 12.964844 22.261719 12.910156 C 22.34375 12.828125 22.425781 12.746094 22.484375 12.660156 C 22.539062 12.578125 22.59375 12.496094 22.648438 12.441406 C 22.730469 12.359375 22.785156 12.277344 22.839844 12.191406 C 22.925781 12.109375 22.980469 12.027344 23.035156 11.945312 C 23.089844 11.835938 23.117188 11.722656 23.171875 11.640625 C 23.226562 11.558594 23.28125 11.476562 23.339844 11.394531 C 23.367188 11.28125 23.421875 11.199219 23.449219 11.117188 C 23.503906 11.007812 23.53125 10.898438 23.585938 10.8125 C 23.613281 10.703125 23.667969 10.59375 23.695312 10.511719 C 23.722656 10.398438 23.75 10.316406 23.78125 10.234375 C 23.808594 10.125 23.835938 10.015625 23.863281 9.929688 C 23.890625 9.820312 23.890625 9.710938 23.917969 9.601562 C 23.917969 9.488281 23.945312 9.378906 23.945312 9.296875 C 23.945312 9.1875 23.972656 9.074219 23.972656 8.964844 C 23.972656 8.855469 23.972656 8.746094 23.972656 8.632812 C 23.972656 8.523438 23.972656 8.414062 23.972656 8.304688 C 23.972656 8.191406 23.945312 8.082031 23.945312 8 C 23.945312 7.890625 23.917969 7.78125 23.917969 7.667969 C 23.890625 7.558594 23.890625 7.449219 23.863281 7.367188 C 23.835938 7.253906 23.808594 7.144531 23.78125 7.0625 C 23.75 6.953125 23.722656 6.839844 23.695312 6.730469 C 23.667969 6.621094 23.640625 6.511719 23.613281 6.425781 C 23.558594 6.316406 23.53125 6.234375 23.476562 6.152344 C 23.421875 6.042969 23.394531 5.957031 23.339844 5.875 C 23.28125 5.765625 23.253906 5.683594 23.199219 5.601562 C 23.144531 5.515625 23.089844 5.40625 23.035156 5.324219 C 22.980469 5.242188 22.925781 5.160156 22.867188 5.074219 C 22.8125 4.992188 22.757812 4.910156 22.675781 4.828125 C 22.621094 4.746094 22.566406 4.691406 22.484375 4.605469 C 22.425781 4.523438 22.371094 4.441406 22.289062 4.359375 C 22.234375 4.277344 22.152344 4.191406 22.070312 4.109375 C 21.984375 4.054688 21.902344 3.972656 21.820312 3.917969 C 21.765625 3.863281 21.683594 3.78125 21.601562 3.722656 C 21.515625 3.667969 21.433594 3.585938 21.351562 3.53125 C 21.269531 3.476562 21.1875 3.394531 21.074219 3.339844 C 20.992188 3.28125 20.910156 3.226562 20.800781 3.171875 C 20.71875 3.117188 20.632812 3.0625 20.523438 3.007812 C 20.441406 2.953125 20.359375 2.925781 20.25 2.867188 C 20.164062 2.839844 20.054688 2.785156 19.945312 2.757812 C 19.863281 2.730469 19.75 2.675781 19.640625 2.648438 C 19.558594 2.621094 19.449219 2.566406 19.339844 2.539062 C 19.226562 2.511719 19.117188 2.484375 19.007812 2.457031 C 18.925781 2.425781 18.8125 2.398438 18.703125 2.371094 C 18.59375 2.34375 18.484375 2.34375 18.371094 2.316406 C 18.261719 2.316406 18.152344 2.289062 18.042969 2.289062 C 17.929688 2.289062 17.820312 2.261719 17.683594 2.261719 C 17.574219 2.261719 17.460938 2.234375 17.351562 2.234375 C 17.242188 2.234375 17.132812 2.234375 16.992188 2.234375 C 16.882812 2.234375 16.773438 2.261719 16.660156 2.261719 C 16.550781 2.289062 16.441406 2.289062 16.304688 2.316406 C 16.21875 2.34375 16.109375 2.34375 16.027344 2.371094 C 15.917969 2.398438 15.808594 2.425781 15.695312 2.457031 C 15.585938 2.484375 15.476562 2.484375 15.367188 2.511719 C 15.253906 2.539062 15.144531 2.59375 15.0625 2.621094 C 14.953125 2.648438 14.839844 2.703125 14.757812 2.730469 C 14.648438 2.785156 14.566406 2.8125 14.484375 2.867188 C 14.371094 2.925781 14.261719 2.953125 14.179688 3.007812 C 14.070312 3.0625 13.984375 3.089844 13.902344 3.144531 C 13.792969 3.199219 13.710938 3.253906 13.628906 3.308594 C 13.542969 3.367188 13.460938 3.449219 13.378906 3.503906 C 13.269531 3.558594 13.1875 3.640625 13.101562 3.695312 C 13.019531 3.75 12.9375 3.835938 12.882812 3.890625 C 12.800781 3.972656 12.71875 4.027344 12.632812 4.109375 C 12.550781 4.191406 12.46875 4.25 12.414062 4.332031 C 12.332031 4.414062 12.277344 4.46875 12.21875 4.550781 C 12.136719 4.632812 12.054688 4.71875 12 4.800781 C 11.917969 4.882812 11.863281 4.964844 11.808594 5.046875 C 11.75 5.132812 11.695312 5.214844 11.640625 5.296875 C 11.585938 5.378906 11.53125 5.488281 11.476562 5.574219 C 11.421875 5.65625 11.367188 5.738281 11.339844 5.847656 C 11.28125 5.929688 11.226562 6.015625 11.199219 6.125 C 11.144531 6.207031 11.117188 6.289062 11.089844 6.398438 C 11.035156 6.484375 11.007812 6.59375 10.980469 6.703125 C 10.953125 6.785156 10.925781 6.898438 10.898438 7.007812 C 10.867188 7.089844 10.839844 7.199219 10.8125 7.308594 C 10.785156 7.394531 10.785156 7.503906 10.785156 7.613281 C 10.757812 7.722656 10.730469 7.835938 10.730469 7.945312 C 10.703125 8.027344 10.703125 8.136719 10.703125 8.25 C 10.675781 8.359375 10.675781 8.46875 10.675781 8.578125 C 10.675781 8.691406 10.675781 8.800781 10.675781 8.9375 Z M 10.675781 8.9375 "/>
<path fill="none" stroke-width="1" stroke-linecap="butt" stroke-linejoin="miter" stroke="rgb(0%, 0%, 100%)" stroke-opacity="1" stroke-miterlimit="4" d="M 329.931641 312.939453 C 329.931641 307.983398 329.931641 303.027344 331.064453 297.929687 C 331.064453 292.973633 331.064453 288.017578 332.055664 283.061523 C 332.055664 277.963867 332.055664 273.007812 333.046875 269.042969 C 334.038086 263.945312 335.029297 258.989258 336.020508 255.024414 C 337.011719 250.068359 338.00293 244.970703 338.994141 241.005859 C 339.985352 236.049805 341.967773 230.952148 343.950195 226.987305 C 344.941406 222.03125 345.932617 218.066406 348.056641 213.959961 C 349.047852 209.003906 351.030273 205.039062 353.012695 200.932617 C 354.995117 195.976562 356.977539 192.011719 358.959961 187.055664 C 360.942383 182.949219 363.066406 178.984375 366.040039 175.019531 C 368.022461 171.054687 370.996094 166.948242 373.969727 162.983398 C 375.952148 159.018555 377.93457 155.053711 381.049805 150.947266 C 384.023437 146.982422 386.99707 144.008789 389.970703 140.043945 C 391.953125 135.9375 395.068359 132.963867 398.041992 128.999023 C 401.015625 126.025391 403.989258 122.060547 407.954102 118.945312 C 411.069336 114.980469 414.042969 112.006836 418.007812 108.041992 C 420.981445 105.068359 423.955078 101.953125 428.061523 98.979492 C 431.035156 96.005859 435 93.032227 438.964844 90.058594 C 441.938477 86.943359 446.044922 83.969727 450.009766 80.996094 C 453.974609 78.022461 457.939453 76.040039 462.045898 73.066406 C 466.010742 70.942383 469.975586 67.96875 473.94043 65.986328 C 478.046875 64.003906 482.011719 61.030273 485.976562 59.047852 C 489.941406 57.06543 494.047852 53.950195 499.003906 51.967773 C 502.96875 49.985352 506.933594 48.994141 512.03125 47.011719 C 515.996094 45.029297 520.952148 44.038086 526.049805 42.055664 C 530.014648 39.931641 533.979492 38.94043 538.935547 36.958008 C 544.033203 35.966797 548.989258 33.984375 553.945312 32.993164 C 559.042969 32.001953 563.999023 31.010742 568.955078 30.019531 C 573.061523 29.02832 578.017578 28.037109 582.973633 27.045898 C 586.938477 26.054687 592.036133 26.054687 596.992187 25.063477 C 601.948242 25.063477 607.045898 25.063477 612.001953 25.063477 C 616.958008 25.063477 622.055664 23.930664 627.011719 23.930664 C 632.958984 23.930664 638.056641 25.063477 643.012695 25.063477 C 647.96875 25.063477 653.066406 25.063477 657.03125 25.063477 C 662.978516 26.054687 667.93457 26.054687 673.032227 27.045898 C 677.988281 28.037109 682.944336 29.02832 687.050781 30.019531 C 692.006836 31.010742 696.962891 32.001953 702.060547 32.993164 C 707.016602 33.984375 711.972656 35.966797 715.9375 36.958008 C 721.035156 37.949219 725.991211 39.931641 729.956055 41.064453 C 735.053711 43.046875 740.009766 44.038086 743.974609 46.020508 C 747.939453 48.00293 752.045898 49.985352 756.010742 51.967773 C 760.966797 53.950195 764.931641 55.932617 769.038086 58.056641 C 773.994141 60.039062 777.958984 63.012695 782.06543 64.995117 C 786.030273 66.977539 789.995117 69.951172 793.959961 71.933594 C 798.066406 75.048828 802.03125 78.022461 805.996094 80.996094 C 809.960937 83.969727 814.067383 85.952148 817.041016 89.067383 C 821.005859 92.041016 824.970703 95.014648 827.944336 97.988281 C 832.050781 100.961914 835.024414 105.068359 837.998047 108.041992 C 841.962891 111.015625 844.936523 114.980469 849.042969 117.954102 C 852.016602 121.069336 854.990234 125.03418 857.963867 128.007812 C 860.9375 131.972656 864.052734 134.946289 867.026367 139.052734 C 870 143.017578 871.982422 145.991211 874.956055 149.956055 C 877.929687 154.0625 880.053711 158.027344 883.027344 161.992187 C 885.009766 165.957031 887.983398 168.930664 889.96582 173.037109 C 891.948242 177.001953 895.063477 181.958008 897.045898 186.064453 C 899.02832 190.029297 901.010742 194.985352 902.993164 198.950195 C 904.975586 203.056641 906.958008 207.021484 908.94043 211.977539 C 909.931641 215.942383 912.055664 221.040039 913.046875 225.996094 C 914.038086 229.960937 916.020508 234.067383 917.011719 239.023437 C 918.00293 242.988281 919.985352 247.944336 920.976562 253.041992 C 921.967773 257.006836 921.967773 261.962891 922.958984 267.060547 C 923.950195 272.016602 924.941406 276.972656 925.932617 282.070312 C 925.932617 287.026367 927.06543 291.982422 927.06543 296.938477 C 927.06543 301.044922 927.06543 306.000977 927.06543 310.957031 C 927.06543 316.054687 927.06543 321.010742 927.06543 326.958008 C 927.06543 331.064453 925.932617 336.020508 925.932617 340.976562 C 924.941406 345.932617 924.941406 351.030273 923.950195 355.986328 C 922.958984 359.951172 921.967773 365.048828 920.976562 370.004883 C 919.985352 373.969727 918.994141 379.067383 918.00293 384.023437 C 917.011719 387.988281 915.029297 392.944336 914.038086 398.041992 C 912.055664 402.006836 911.064453 405.97168 908.94043 411.069336 C 906.958008 415.03418 904.975586 418.999023 902.993164 423.955078 C 901.010742 428.061523 899.02832 432.026367 897.045898 436.982422 C 895.063477 440.947266 892.939453 445.053711 890.957031 450.009766 C 888.974609 453.974609 886.000977 457.939453 884.018555 462.045898 C 881.044922 466.010742 879.0625 469.975586 875.947266 473.94043 C 872.973633 477.055664 870.991211 481.020508 868.017578 484.985352 C 865.043945 487.958984 862.070312 490.932617 858.955078 495.039062 C 855.981445 498.012695 853.007812 501.977539 850.03418 505.942383 C 846.069336 509.057617 842.954102 512.03125 838.989258 515.996094 C 836.015625 518.969727 833.041992 521.943359 828.935547 526.049805 C 825.961914 528.032227 821.99707 531.005859 818.032227 533.979492 C 815.058594 536.953125 810.952148 540.068359 806.987305 543.041992 C 804.013672 546.015625 800.048828 548.989258 795.942383 551.962891 C 791.977539 553.945312 788.012695 556.069336 783.056641 559.042969 C 778.950195 561.025391 774.985352 563.007812 771.020508 565.981445 C 767.055664 567.963867 762.949219 569.946289 757.993164 572.070312 C 754.02832 574.052734 748.930664 576.035156 743.974609 578.017578 C 740.009766 579.008789 736.044922 580.991211 730.947266 582.973633 C 726.982422 583.964844 722.026367 584.956055 717.070312 586.938477 C 712.963867 587.929687 708.007812 590.053711 703.051758 591.044922 C 698.945312 592.036133 693.989258 593.027344 689.033203 594.018555 C 683.935547 595.009766 678.979492 596.000977 674.023437 596.992187 C 669.067383 597.983398 663.969727 597.983398 659.013672 597.983398 C 654.057617 598.974609 648.959961 598.974609 644.003906 598.974609 C 639.047852 598.974609 633.950195 598.974609 628.994141 598.974609 C 624.038086 598.974609 618.94043 598.974609 613.984375 598.974609 C 609.02832 598.974609 603.930664 598.974609 597.983398 597.983398 C 593.027344 597.983398 587.929687 597.983398 582.973633 596.992187 C 579.008789 596.000977 574.052734 595.009766 568.955078 594.018555 C 563.999023 593.027344 559.042969 592.036133 554.936523 591.044922 C 549.980469 590.053711 545.024414 589.0625 541.05957 587.929687 C 535.961914 585.947266 531.99707 583.964844 528.032227 582.973633 C 522.93457 580.991211 517.978516 580 514.013672 579.008789 C 509.057617 577.026367 503.959961 575.043945 499.995117 573.061523 C 495.039062 569.946289 490.932617 567.963867 486.967773 565.981445 C 483.00293 563.007812 479.038086 561.025391 474.931641 559.042969 C 470.966797 556.069336 467.001953 553.945312 463.037109 551.962891 C 458.930664 548.989258 454.96582 546.015625 451.000977 544.033203 C 447.036133 541.05957 442.929687 537.944336 438.964844 534.970703 C 435 531.99707 432.026367 529.023437 429.052734 527.041016 C 424.946289 522.93457 421.972656 518.969727 418.999023 515.996094 C 415.03418 513.022461 412.060547 510.048828 408.945312 506.933594 C 404.980469 502.96875 402.006836 499.995117 399.033203 497.021484 C 396.05957 493.056641 392.944336 488.950195 390.961914 485.976562 C 387.988281 482.011719 385.014648 478.046875 382.041016 474.931641 C 379.067383 470.966797 375.952148 467.001953 373.969727 463.037109 C 370.996094 458.930664 369.013672 454.96582 367.03125 451.000977 C 364.057617 447.036133 361.933594 442.929687 359.951172 438.964844 C 357.96875 434.008789 355.986328 430.043945 354.003906 425.9375 C 352.021484 420.981445 350.039062 416.025391 349.047852 412.060547 C 347.06543 406.962891 344.941406 402.998047 343.950195 399.033203 C 341.967773 393.935547 339.985352 389.970703 338.994141 386.005859 C 338.00293 381.049805 337.011719 375.952148 336.020508 370.996094 C 335.029297 366.040039 334.038086 360.942383 333.046875 356.977539 C 332.055664 352.021484 332.055664 347.06543 332.055664 342.958984 C 331.064453 338.00293 331.064453 333.046875 331.064453 327.949219 C 329.931641 322.993164 329.931641 318.037109 329.931641 312.939453 Z M 329.931641 312.939453 " transform="matrix(0.0275862, 0, 0, 0.0275862, 0, 0)"/>
<path fill="none" stroke-width="1" stroke-linecap="butt" stroke-linejoin="miter" stroke="rgb(0%, 0%, 100%)" stroke-opacity="1" stroke-miterlimit="4" d="M 386.99707 323.984375 C 386.99707 326.958008 386.99707 331.064453 387.988281 335.029297 C 387.988281 338.00293 388.979492 341.967773 389.970703 345.932617 C 389.970703 350.039062 390.961914 354.003906 391.953125 357.96875 C 392.944336 360.942383 393.935547 365.048828 395.068359 369.013672 C 396.05957 371.987305 397.050781 375.952148 398.041992 380.058594 C 399.033203 383.032227 400.024414 386.99707 402.006836 390.961914 C 402.998047 393.935547 403.989258 397.050781 405.97168 401.015625 C 406.962891 403.989258 407.954102 406.962891 409.936523 411.069336 C 412.060547 414.042969 414.042969 417.016602 416.025391 420.981445 C 418.007812 423.955078 419.990234 427.070312 421.972656 431.035156 C 423.955078 434.008789 425.9375 436.982422 428.061523 439.956055 C 430.043945 442.929687 432.026367 446.044922 434.008789 450.009766 C 435.991211 451.992187 438.964844 454.96582 441.938477 457.939453 C 444.0625 461.054687 446.044922 464.02832 449.018555 467.001953 C 451.000977 468.984375 453.974609 471.958008 456.948242 474.931641 C 458.930664 477.055664 462.045898 479.038086 465.019531 482.011719 C 467.993164 483.994141 470.966797 486.967773 474.931641 489.941406 C 477.055664 492.06543 480.029297 494.047852 483.00293 497.021484 C 485.976562 499.003906 488.950195 500.986328 493.056641 503.959961 C 496.030273 505.942383 499.003906 508.066406 502.96875 510.048828 C 505.942383 511.040039 509.057617 513.022461 513.022461 515.004883 C 515.996094 515.996094 518.969727 517.978516 522.93457 519.960937 C 526.049805 520.952148 530.014648 522.93457 533.979492 525.058594 C 536.953125 526.049805 541.05957 527.041016 545.024414 529.023437 C 547.998047 530.014648 551.962891 531.005859 556.069336 532.988281 C 560.03418 533.979492 563.999023 534.970703 567.963867 535.961914 C 572.070312 536.953125 576.035156 537.944336 580 538.935547 C 582.973633 538.935547 586.938477 538.935547 591.044922 540.068359 C 595.009766 540.068359 598.974609 541.05957 602.939453 542.050781 C 607.045898 542.050781 611.010742 542.050781 614.975586 543.041992 C 618.94043 543.041992 623.046875 543.041992 627.011719 543.041992 C 631.967773 543.041992 635.932617 543.041992 640.039062 543.041992 C 644.003906 542.050781 647.96875 542.050781 651.933594 542.050781 C 656.040039 541.05957 660.004883 540.068359 663.969727 540.068359 C 667.93457 538.935547 672.041016 538.935547 676.005859 538.935547 C 679.970703 537.944336 683.935547 536.953125 688.041992 535.961914 C 692.006836 534.970703 695.97168 533.979492 699.936523 532.988281 C 704.042969 531.005859 708.007812 530.014648 710.981445 529.023437 C 714.946289 527.041016 719.052734 526.049805 722.026367 525.058594 C 725.991211 522.93457 729.956055 521.943359 732.929687 520.952148 C 737.036133 518.969727 740.009766 516.987305 742.983398 515.996094 C 746.948242 514.013672 750.063477 512.03125 753.037109 510.048828 C 757.001953 508.066406 759.975586 505.942383 762.949219 503.959961 C 767.055664 501.977539 770.029297 499.995117 773.00293 498.012695 C 775.976562 495.039062 778.950195 493.056641 780.932617 490.932617 C 785.039062 487.958984 788.012695 484.985352 790.986328 483.00293 C 793.959961 480.029297 796.933594 478.046875 799.057617 476.064453 C 802.03125 472.949219 805.004883 469.975586 806.987305 467.993164 C 809.960937 465.019531 812.93457 462.045898 815.058594 458.930664 C 817.041016 455.957031 819.023437 452.983398 821.005859 451.000977 C 823.979492 448.027344 825.961914 445.053711 827.944336 441.938477 C 831.05957 438.964844 833.041992 435.991211 835.024414 433.017578 C 837.006836 429.052734 837.998047 424.946289 839.980469 421.972656 C 841.962891 418.999023 843.945312 416.025391 846.069336 413.051758 C 847.060547 408.945312 849.042969 405.97168 850.03418 402.998047 C 852.016602 399.033203 853.007812 395.068359 854.990234 391.953125 C 855.981445 387.988281 857.963867 384.023437 858.955078 381.049805 C 859.946289 376.943359 860.9375 373.969727 862.070312 370.996094 C 863.061523 367.03125 864.052734 363.066406 865.043945 359.951172 C 866.035156 355.986328 866.035156 352.021484 867.026367 348.056641 C 867.026367 343.950195 868.017578 339.985352 868.017578 337.011719 C 868.017578 333.046875 869.008789 328.94043 869.008789 324.975586 C 869.008789 321.010742 869.008789 317.045898 869.008789 312.939453 C 869.008789 308.974609 869.008789 305.009766 869.008789 301.044922 C 869.008789 296.938477 868.017578 292.973633 868.017578 290 C 868.017578 286.035156 867.026367 282.070312 867.026367 277.963867 C 866.035156 273.999023 866.035156 270.03418 865.043945 267.060547 C 864.052734 262.954102 863.061523 258.989258 862.070312 256.015625 C 860.9375 252.050781 859.946289 247.944336 858.955078 243.979492 C 857.963867 240.014648 856.972656 236.049805 855.981445 232.93457 C 853.999023 228.969727 853.007812 225.996094 851.025391 223.022461 C 849.042969 219.057617 848.051758 215.942383 846.069336 212.96875 C 843.945312 209.003906 842.954102 206.030273 840.97168 203.056641 C 838.989258 199.941406 837.006836 195.976562 835.024414 193.00293 C 833.041992 190.029297 831.05957 187.055664 828.935547 183.94043 C 826.953125 180.966797 824.970703 177.993164 821.99707 175.019531 C 820.014648 172.045898 818.032227 170.063477 815.058594 166.948242 C 812.93457 163.974609 810.952148 161.000977 807.978516 158.027344 C 805.996094 155.053711 803.022461 151.938477 800.048828 148.964844 C 796.933594 146.982422 793.959961 144.008789 790.986328 142.026367 C 789.003906 140.043945 786.030273 137.070312 783.056641 134.946289 C 779.941406 132.963867 776.967773 129.990234 773.994141 128.007812 C 771.020508 126.025391 768.046875 123.051758 763.94043 121.069336 C 760.966797 118.945312 757.993164 116.962891 754.02832 114.980469 C 751.054687 112.998047 747.939453 111.015625 743.974609 109.033203 C 741.000977 107.050781 738.027344 106.05957 734.0625 103.935547 C 730.947266 102.944336 726.982422 100.961914 723.017578 99.970703 C 720.043945 98.979492 715.9375 96.99707 711.972656 96.005859 C 708.999023 95.014648 705.03418 93.032227 701.069336 92.041016 C 696.962891 91.049805 692.998047 90.058594 689.033203 89.067383 C 686.05957 87.93457 681.953125 86.943359 677.988281 85.952148 C 674.023437 84.960937 670.058594 84.960937 665.952148 83.969727 C 661.987305 83.969727 658.022461 82.978516 654.057617 82.978516 C 649.951172 82.978516 645.986328 81.987305 641.030273 81.987305 C 637.06543 81.987305 632.958984 80.996094 628.994141 80.996094 C 625.029297 80.996094 621.064453 80.996094 615.966797 80.996094 C 612.001953 80.996094 608.037109 81.987305 603.930664 81.987305 C 599.96582 82.978516 596.000977 82.978516 591.044922 83.969727 C 587.929687 84.960937 583.964844 84.960937 580.991211 85.952148 C 577.026367 86.943359 573.061523 87.93457 568.955078 89.067383 C 564.990234 90.058594 561.025391 90.058594 557.060547 91.049805 C 552.954102 92.041016 548.989258 94.023437 546.015625 95.014648 C 542.050781 96.005859 537.944336 97.988281 534.970703 98.979492 C 531.005859 100.961914 528.032227 101.953125 525.058594 103.935547 C 520.952148 106.05957 516.987305 107.050781 514.013672 109.033203 C 510.048828 111.015625 506.933594 112.006836 503.959961 113.989258 C 499.995117 115.97168 497.021484 117.954102 494.047852 119.936523 C 490.932617 122.060547 487.958984 125.03418 484.985352 127.016602 C 481.020508 128.999023 478.046875 131.972656 474.931641 133.955078 C 471.958008 135.9375 468.984375 139.052734 467.001953 141.035156 C 464.02832 144.008789 461.054687 145.991211 457.939453 148.964844 C 454.96582 151.938477 451.992187 154.0625 450.009766 157.036133 C 447.036133 160.009766 445.053711 161.992187 442.929687 164.96582 C 439.956055 167.939453 436.982422 171.054687 435 174.02832 C 432.026367 177.001953 430.043945 179.975586 428.061523 182.949219 C 425.9375 186.064453 423.955078 189.038086 421.972656 192.011719 C 419.990234 194.985352 418.007812 198.950195 416.025391 202.06543 C 414.042969 205.039062 412.060547 208.012695 411.069336 211.977539 C 408.945312 214.951172 406.962891 218.066406 405.97168 222.03125 C 403.989258 225.004883 402.998047 227.978516 402.006836 231.943359 C 400.024414 235.058594 399.033203 239.023437 398.041992 242.988281 C 397.050781 245.961914 396.05957 250.068359 395.068359 254.033203 C 393.935547 257.006836 392.944336 260.97168 391.953125 264.936523 C 390.961914 268.051758 390.961914 272.016602 390.961914 275.981445 C 389.970703 279.946289 388.979492 284.052734 388.979492 288.017578 C 387.988281 290.991211 387.988281 294.956055 387.988281 299.0625 C 386.99707 303.027344 386.99707 306.992187 386.99707 310.957031 C 386.99707 315.063477 386.99707 319.02832 386.99707 323.984375 Z M 386.99707 323.984375 " transform="matrix(0.0275862, 0, 0, 0.0275862, 0, 0)"/>
<path fill-rule="nonzero" fill="rgb(0%, 0%, 100%)" fill-opacity="1" d="M 16.054688 10.59375 C 16.054688 9.296875 16.054688 8 16.054688 6.675781 C 16.9375 6.675781 17.820312 6.675781 18.703125 6.675781 C 18.703125 6.898438 18.703125 7.117188 18.703125 7.339844 C 18.070312 7.339844 17.460938 7.339844 16.828125 7.339844 C 16.828125 7.640625 16.828125 7.972656 16.828125 8.277344 C 17.378906 8.277344 17.902344 8.277344 18.425781 8.277344 C 18.425781 8.496094 18.425781 8.71875 18.425781 8.9375 C 17.902344 8.9375 17.378906 8.9375 16.828125 8.9375 C 16.828125 9.488281 16.828125 10.042969 16.828125 10.59375 Z M 16.054688 10.59375 "/>
<path fill-rule="nonzero" fill="rgb(0%, 0%, 100%)" fill-opacity="1" stroke-width="1" stroke-linecap="butt" stroke-linejoin="miter" stroke="rgb(0%, 0%, 100%)" stroke-opacity="1" stroke-miterlimit="4" d="M 274.990234 888.974609 C 342.958984 957.93457 411.069336 1026.044922 480.029297 1095.004883 C 466.010742 1109.023437 451.992187 1122.050781 438.964844 1136.069336 C 370.004883 1066.967773 302.036133 998.007812 234.067383 929.047852 C 247.944336 916.020508 260.97168 902.993164 274.990234 888.974609 Z M 274.990234 888.974609 " transform="matrix(0.0275862, 0, 0, 0.0275862, 0, 0)"/>
<path fill-rule="nonzero" fill="rgb(0%, 0%, 100%)" fill-opacity="1" stroke-width="1" stroke-linecap="butt" stroke-linejoin="miter" stroke="rgb(0%, 0%, 100%)" stroke-opacity="1" stroke-miterlimit="4" d="M 480.029297 930.039062 C 411.069336 998.999023 342.958984 1066.967773 274.990234 1136.069336 C 260.97168 1123.041992 247.944336 1109.023437 234.067383 1095.996094 C 302.036133 1027.036133 370.004883 959.067383 438.964844 889.96582 C 451.992187 903.984375 466.010742 917.011719 480.029297 930.039062 Z M 480.029297 930.039062 " transform="matrix(0.0275862, 0, 0, 0.0275862, 0, 0)"/>
</svg>
