<?xml version="1.0" encoding="UTF-8"?>
<svg xmlns="http://www.w3.org/2000/svg" xmlns:xlink="http://www.w3.org/1999/xlink" width="32" height="32" viewBox="0 0 32 32">
<path fill-rule="nonzero" fill="rgb(0%, 0%, 100%)" fill-opacity="1" stroke-width="1" stroke-linecap="butt" stroke-linejoin="miter" stroke="rgb(0%, 0%, 100%)" stroke-opacity="1" stroke-miterlimit="4" d="M 256.015625 727.973633 L 256.015625 710.981445 L 257.006836 694.980469 L 258.989258 678.979492 L 261.962891 662.978516 L 266.069336 647.96875 L 270.03418 632.958984 L 274.990234 616.958008 L 280.9375 602.939453 L 287.026367 589.0625 L 293.964844 575.043945 L 302.036133 562.016602 L 309.96582 548.989258 L 319.02832 535.961914 L 327.949219 524.067383 L 338.00293 512.03125 L 349.047852 500.986328 L 359.951172 490.932617 L 371.987305 481.020508 L 384.023437 470.966797 L 396.05957 462.045898 L 408.945312 453.974609 L 422.963867 446.044922 L 435.991211 438.964844 L 451.000977 433.017578 L 465.019531 427.070312 L 480.029297 421.972656 L 495.039062 417.016602 L 510.048828 414.042969 L 526.049805 411.069336 L 542.050781 408.945312 L 558.051758 407.954102 L 575.043945 406.962891 L 591.044922 407.954102 L 608.037109 408.945312 L 624.038086 411.069336 L 639.047852 413.051758 L 655.048828 417.016602 L 670.058594 420.981445 L 685.068359 425.9375 L 699.936523 432.026367 L 713.955078 437.973633 L 727.973633 445.053711 L 741.000977 452.983398 L 754.02832 461.054687 L 767.055664 469.975586 L 777.958984 479.038086 L 789.995117 489.941406 L 801.040039 499.995117 L 811.943359 511.040039 L 821.99707 522.93457 L 832.050781 534.970703 L 840.97168 547.006836 L 849.042969 560.03418 L 856.972656 573.061523 L 864.052734 586.938477 L 870 600.957031 L 875.947266 615.966797 L 881.044922 630.976562 L 888.974609 660.996094 L 891.948242 676.99707 L 893.930664 692.998047 L 895.063477 708.999023 L 896.054687 725.991211 L 895.063477 741.992187 L 893.930664 757.993164 L 889.96582 789.995117 L 886.000977 805.996094 L 882.036133 821.005859 L 876.938477 836.015625 L 865.043945 864.052734 L 857.963867 877.929687 L 850.03418 891.948242 L 841.962891 904.975586 L 833.041992 917.011719 L 822.988281 929.047852 L 812.93457 940.942383 L 803.022461 951.987305 L 790.986328 963.032227 L 779.941406 972.944336 L 768.046875 982.006836 L 756.010742 991.069336 L 742.983398 999.990234 L 728.964844 1007.070312 L 714.946289 1014.008789 L 701.069336 1020.947266 L 687.050781 1026.044922 L 672.041016 1031.992187 L 657.03125 1035.957031 L 641.030273 1038.930664 L 625.029297 1042.045898 L 609.02832 1045.019531 L 593.027344 1046.010742 L 560.03418 1046.010742 L 544.033203 1045.019531 L 528.032227 1043.037109 L 512.03125 1040.063477 L 497.021484 1036.948242 L 467.001953 1027.036133 L 451.992187 1020.947266 L 437.973633 1015 L 423.955078 1008.061523 L 411.069336 1000.981445 L 398.041992 992.060547 L 385.014648 982.998047 L 372.978516 973.935547 L 360.942383 964.023437 L 350.039062 952.978516 L 339.985352 941.933594 L 329.931641 931.030273 L 320.019531 918.994141 L 310.957031 905.966797 L 303.027344 892.939453 L 294.956055 880.053711 L 288.017578 866.035156 L 280.9375 852.016602 L 275.981445 837.998047 L 266.069336 807.978516 L 262.954102 791.977539 L 259.980469 775.976562 L 256.015625 743.974609 Z M 334.038086 738.027344 L 335.029297 750.063477 L 336.020508 761.958008 L 338.00293 773.994141 L 343.950195 798.066406 L 348.056641 808.969727 L 352.021484 820.014648 L 356.977539 830.068359 L 361.933594 840.97168 L 368.022461 851.025391 L 373.969727 860.9375 L 381.049805 870 L 387.988281 880.053711 L 396.05957 887.983398 L 403.989258 897.045898 L 412.060547 904.975586 L 420.981445 912.055664 L 430.043945 919.985352 L 439.956055 925.932617 L 449.018555 933.012695 L 458.930664 938.959961 L 469.975586 944.057617 L 481.020508 949.013672 L 492.06543 952.978516 L 502.96875 956.943359 L 514.013672 960.058594 L 526.049805 963.032227 L 537.944336 965.014648 L 549.980469 966.99707 L 562.016602 967.988281 L 586.938477 967.988281 L 599.96582 966.99707 L 612.001953 966.005859 L 624.038086 964.023437 L 635.932617 961.049805 L 646.977539 957.93457 L 669.067383 950.004883 L 679.970703 945.048828 L 691.015625 939.951172 L 701.069336 934.003906 L 710.981445 928.056641 L 720.043945 920.976562 L 728.964844 914.038086 L 738.027344 905.966797 L 746.948242 898.037109 L 755.019531 889.96582 L 761.958008 881.044922 L 770.029297 871.982422 L 775.976562 862.070312 L 783.056641 853.007812 L 789.003906 842.954102 L 793.959961 832.050781 L 799.057617 821.005859 L 803.022461 810.952148 L 806.987305 799.057617 L 809.960937 788.012695 L 812.93457 775.976562 L 815.058594 763.94043 L 817.041016 752.045898 L 818.032227 740.009766 L 818.032227 714.946289 L 817.041016 703.051758 L 815.058594 691.015625 L 812.93457 678.979492 L 810.952148 666.943359 L 806.987305 656.040039 L 804.013672 644.995117 L 799.057617 633.950195 L 794.951172 623.046875 L 789.003906 612.001953 L 784.047852 601.948242 L 776.967773 592.036133 L 771.020508 582.973633 L 763.94043 574.052734 L 756.010742 564.990234 L 747.939453 557.060547 L 739.018555 547.998047 L 730.947266 541.05957 L 722.026367 533.979492 L 711.972656 527.041016 L 702.060547 520.952148 L 681.953125 509.057617 L 671.049805 503.959961 L 648.959961 496.030273 L 637.06543 493.056641 L 626.020508 489.941406 L 601.948242 485.976562 L 589.0625 484.985352 L 563.999023 484.985352 L 551.962891 485.976562 L 540.068359 487.958984 L 528.032227 489.941406 L 515.996094 493.056641 L 504.951172 496.030273 L 493.056641 499.003906 L 482.011719 503.959961 L 471.958008 509.057617 L 461.054687 514.013672 L 451.000977 519.960937 L 440.947266 526.049805 L 432.026367 532.988281 L 421.972656 540.068359 L 413.051758 547.006836 L 404.980469 554.936523 L 397.050781 563.999023 L 388.979492 573.061523 L 382.041016 580.991211 L 374.960937 591.044922 L 369.013672 600.957031 L 363.066406 611.010742 L 357.96875 621.064453 L 353.012695 631.967773 L 349.047852 643.012695 L 344.941406 654.057617 L 341.967773 664.960937 L 336.020508 689.033203 L 335.029297 701.069336 L 334.038086 712.963867 Z M 334.038086 738.027344 " transform="matrix(0.0275862, 0, 0, 0.0275862, 0, 0)"/>
<path fill-rule="nonzero" fill="rgb(0%, 0%, 100%)" fill-opacity="1" stroke-width="1" stroke-linecap="butt" stroke-linejoin="miter" stroke="rgb(0%, 0%, 100%)" stroke-opacity="1" stroke-miterlimit="4" d="M 534.970703 437.973633 L 535.961914 98.979492 L 594.018555 99.970703 L 592.036133 437.973633 Z M 534.970703 437.973633 " transform="matrix(0.0275862, 0, 0, 0.0275862, 0, 0)"/>
<path fill-rule="nonzero" fill="rgb(0%, 0%, 100%)" fill-opacity="1" stroke-width="1" stroke-linecap="butt" stroke-linejoin="miter" stroke="rgb(0%, 0%, 100%)" stroke-opacity="1" stroke-miterlimit="4" d="M 715.9375 290 L 413.051758 290 L 413.051758 231.943359 L 715.9375 231.943359 Z M 715.9375 290 " transform="matrix(0.0275862, 0, 0, 0.0275862, 0, 0)"/>
</svg>
