<?xml version="1.0" encoding="UTF-8"?>
<svg xmlns="http://www.w3.org/2000/svg" xmlns:xlink="http://www.w3.org/1999/xlink" width="32" height="32" viewBox="0 0 32 32">
<path fill-rule="nonzero" fill="rgb(0%, 0%, 100%)" fill-opacity="1" stroke-width="1" stroke-linecap="butt" stroke-linejoin="miter" stroke="rgb(0%, 0%, 100%)" stroke-opacity="1" stroke-miterlimit="4" d="M 213.959961 32.001953 L 931.030273 32.001953 L 931.030273 1120.068359 L 213.959961 1120.068359 Z M 292.973633 1080.986328 L 254.033203 1042.045898 L 891.948242 1042.045898 L 853.007812 1080.986328 L 853.007812 70.942383 L 891.948242 110.024414 L 254.033203 110.024414 L 292.973633 70.942383 Z M 292.973633 1080.986328 " transform="matrix(0.0275862, 0, 0, 0.0275862, 0, 0)"/>
<path fill-rule="nonzero" fill="rgb(0%, 0%, 100%)" fill-opacity="1" stroke-width="1" stroke-linecap="butt" stroke-linejoin="miter" stroke="rgb(0%, 0%, 100%)" stroke-opacity="1" stroke-miterlimit="4" d="M 242.988281 557.060547 L 251.05957 541.05957 L 259.980469 524.067383 L 282.070312 494.047852 L 293.964844 480.029297 L 306.992187 466.010742 L 321.010742 452.983398 L 335.029297 441.938477 L 350.039062 431.035156 L 364.057617 420.981445 L 381.049805 412.060547 L 397.050781 403.989258 L 414.042969 397.050781 L 431.035156 389.970703 L 449.018555 385.014648 L 467.001953 381.049805 L 484.985352 376.943359 L 522.93457 372.978516 L 542.050781 371.987305 L 561.025391 371.987305 L 580.991211 372.978516 L 599.96582 375.952148 L 619.931641 377.93457 L 640.039062 382.041016 L 659.013672 386.005859 L 678.979492 392.944336 L 697.954102 400.024414 L 718.061523 406.962891 L 738.027344 416.025391 L 757.001953 424.946289 L 794.951172 447.036133 L 814.067383 460.063477 L 832.050781 473.94043 L 849.042969 487.958984 L 866.035156 502.96875 L 883.027344 518.969727 L 897.045898 533.979492 L 912.055664 551.962891 L 869.008789 589.0625 L 856.972656 573.061523 L 828.935547 545.024414 L 814.067383 531.99707 L 798.066406 518.969727 L 783.056641 506.933594 L 766.064453 495.039062 L 748.930664 485.976562 L 731.938477 476.064453 L 714.946289 467.001953 L 696.962891 460.063477 L 679.970703 451.992187 L 662.978516 447.036133 L 645.986328 441.938477 L 628.00293 437.973633 L 611.010742 433.017578 L 594.018555 431.035156 L 578.017578 429.052734 L 561.025391 428.061523 L 545.024414 428.061523 L 511.040039 430.043945 L 496.030273 433.017578 L 480.029297 435.991211 L 465.019531 438.964844 L 450.009766 444.0625 L 435.991211 449.018555 L 420.981445 454.96582 L 407.954102 462.045898 L 395.068359 468.984375 L 383.032227 477.055664 L 370.004883 485.976562 L 358.959961 495.039062 L 348.056641 504.951172 L 337.011719 515.996094 L 326.958008 528.032227 L 318.037109 540.068359 L 308.974609 551.962891 L 301.044922 566.972656 L 292.973633 581.982422 Z M 242.988281 557.060547 " transform="matrix(0.0275862, 0, 0, 0.0275862, 0, 0)"/>
<path fill-rule="nonzero" fill="rgb(0%, 0%, 100%)" fill-opacity="1" stroke-width="1" stroke-linecap="butt" stroke-linejoin="miter" stroke="rgb(0%, 0%, 100%)" stroke-opacity="1" stroke-miterlimit="4" d="M 277.963867 542.050781 L 290 557.060547 L 302.036133 570.9375 L 315.063477 585.947266 L 328.94043 597.983398 L 342.958984 610.019531 L 356.977539 621.064453 L 371.987305 631.967773 L 387.988281 641.030273 L 402.998047 649.951172 L 418.999023 657.03125 L 435 664.960937 L 451.992187 672.041016 L 468.984375 676.005859 L 485.976562 680.961914 L 502.96875 686.05957 L 520.952148 688.041992 L 537.944336 691.015625 L 556.069336 692.006836 L 592.036133 692.006836 L 609.02832 691.015625 L 626.020508 689.033203 L 644.995117 686.05957 L 661.987305 681.953125 L 678.979492 677.988281 L 696.962891 672.041016 L 712.963867 665.952148 L 729.956055 658.022461 L 745.957031 650.942383 L 762.949219 641.030273 L 777.958984 630.976562 L 793.959961 619.931641 L 814.067383 605.063477 L 833.041992 586.938477 L 850.03418 567.963867 L 867.026367 547.998047 L 909.931641 584.956055 L 891.948242 607.045898 L 870.991211 628.994141 L 849.042969 647.96875 L 825.961914 666.943359 L 789.995117 691.015625 L 772.011719 701.069336 L 752.045898 709.990234 L 732.929687 719.052734 L 692.998047 732.929687 L 673.032227 738.027344 L 654.057617 741.992187 L 632.958984 744.96582 L 612.993164 747.939453 L 592.036133 747.939453 L 572.070312 748.930664 L 550.97168 747.939453 L 531.005859 746.948242 L 511.040039 743.974609 L 490.932617 740.009766 L 470.966797 736.044922 L 451.000977 729.956055 L 432.026367 724.008789 L 412.060547 715.9375 L 393.935547 708.007812 L 374.960937 698.945312 L 357.96875 689.033203 L 339.985352 677.988281 L 322.001953 665.952148 L 306.000977 653.066406 L 290 639.047852 L 273.999023 624.038086 L 258.989258 609.02832 L 244.970703 592.036133 L 232.93457 576.035156 Z M 277.963867 542.050781 " transform="matrix(0.0275862, 0, 0, 0.0275862, 0, 0)"/>
<path fill-rule="nonzero" fill="rgb(0%, 0%, 100%)" fill-opacity="1" d="M 12.964844 15.503906 C 12.964844 14.042969 14.152344 12.855469 15.613281 12.855469 C 17.074219 12.855469 18.261719 14.042969 18.261719 15.503906 C 18.261719 16.964844 17.074219 18.152344 15.613281 18.152344 C 14.152344 18.152344 12.964844 16.964844 12.964844 15.503906 Z M 12.964844 15.503906 "/>
<path fill-rule="nonzero" fill="rgb(0%, 0%, 100%)" fill-opacity="1" stroke-width="1" stroke-linecap="butt" stroke-linejoin="miter" stroke="rgb(0%, 0%, 100%)" stroke-opacity="1" stroke-miterlimit="4" d="M 468.984375 562.016602 L 468.984375 551.962891 L 470.966797 543.041992 L 472.949219 532.988281 L 476.064453 524.067383 L 481.020508 515.004883 L 484.985352 506.933594 L 490.932617 499.995117 L 497.021484 493.056641 L 503.959961 485.976562 L 511.040039 481.020508 L 519.960937 476.064453 L 528.032227 471.958008 L 536.953125 467.993164 L 546.015625 466.010742 L 556.069336 465.019531 L 565.981445 464.02832 L 576.035156 465.019531 L 585.947266 466.010742 L 595.009766 467.993164 L 603.930664 470.966797 L 612.001953 476.064453 L 621.064453 481.020508 L 628.00293 485.976562 L 634.941406 493.056641 L 641.030273 499.995117 L 646.977539 506.933594 L 651.933594 515.004883 L 656.040039 524.067383 L 659.013672 532.988281 L 661.987305 542.050781 L 662.978516 551.962891 L 663.969727 562.016602 L 662.978516 570.9375 L 661.987305 580.991211 L 659.013672 591.044922 L 656.040039 599.96582 L 651.933594 609.02832 L 646.977539 615.966797 L 641.030273 624.038086 L 634.941406 630.976562 L 628.00293 637.06543 L 621.064453 643.012695 L 612.993164 647.96875 L 603.930664 651.933594 L 595.009766 655.048828 L 585.947266 657.03125 L 576.035156 659.013672 L 556.069336 659.013672 L 547.006836 657.03125 L 536.953125 655.048828 L 528.032227 651.933594 L 519.960937 647.96875 L 511.040039 643.012695 L 503.959961 637.06543 L 497.021484 630.976562 L 490.932617 624.038086 L 484.985352 615.966797 L 481.020508 609.02832 L 477.055664 599.96582 L 472.949219 591.044922 L 468.984375 570.9375 Z M 471.958008 570.9375 L 472.949219 580.991211 L 476.064453 590.053711 L 478.046875 598.974609 L 483.00293 607.045898 L 487.958984 613.984375 L 493.056641 622.055664 L 499.003906 628.994141 L 505.942383 634.941406 L 513.022461 640.039062 L 520.952148 644.995117 L 529.023437 648.959961 L 537.944336 653.066406 L 547.006836 655.048828 L 556.069336 656.040039 L 565.981445 657.03125 L 576.035156 657.03125 L 584.956055 655.048828 L 594.018555 653.066406 L 602.939453 648.959961 L 611.010742 644.995117 L 618.94043 640.039062 L 626.020508 634.941406 L 632.958984 628.994141 L 640.039062 622.055664 L 644.995117 614.975586 L 649.951172 607.045898 L 654.057617 598.974609 L 657.03125 590.053711 L 659.013672 580.991211 L 660.004883 570.9375 L 660.996094 562.016602 L 660.004883 551.962891 L 659.013672 543.041992 L 657.03125 532.988281 L 654.057617 525.058594 L 649.951172 516.987305 L 644.995117 509.057617 L 640.039062 500.986328 L 632.958984 495.039062 L 626.020508 488.950195 L 618.94043 483.00293 L 611.010742 478.046875 L 602.939453 473.94043 L 594.018555 470.966797 L 584.956055 468.984375 L 576.035156 467.001953 L 565.981445 466.010742 L 557.060547 467.001953 L 547.006836 468.984375 L 537.944336 470.966797 L 530.014648 473.94043 L 520.952148 478.046875 L 513.022461 483.00293 L 505.942383 488.950195 L 499.003906 495.039062 L 493.056641 500.986328 L 487.958984 509.057617 L 483.00293 515.996094 L 478.046875 524.067383 L 476.064453 532.988281 L 472.949219 543.041992 L 471.958008 551.962891 L 470.966797 562.016602 Z M 471.958008 570.9375 " transform="matrix(0.0275862, 0, 0, 0.0275862, 0, 0)"/>
</svg>
