<?xml version="1.0" encoding="UTF-8"?>
<svg xmlns="http://www.w3.org/2000/svg" xmlns:xlink="http://www.w3.org/1999/xlink" width="32" height="32" viewBox="0 0 32 32">
<path fill-rule="nonzero" fill="rgb(0%, 0%, 100%)" fill-opacity="1" stroke-width="1" stroke-linecap="butt" stroke-linejoin="miter" stroke="rgb(0%, 0%, 100%)" stroke-opacity="1" stroke-miterlimit="4" d="M 254.033203 574.052734 L 264.936523 558.051758 L 290.991211 526.049805 L 306.000977 512.03125 L 320.019531 499.003906 L 336.020508 485.976562 L 352.021484 473.94043 L 368.022461 463.037109 L 385.014648 451.992187 L 402.006836 442.929687 L 437.973633 427.070312 L 455.957031 420.981445 L 474.931641 415.03418 L 494.047852 409.936523 L 513.022461 405.97168 L 531.99707 402.998047 L 551.962891 401.015625 L 572.070312 400.024414 L 591.044922 400.024414 L 611.010742 401.015625 L 650.942383 404.980469 L 670.058594 407.954102 L 689.033203 413.051758 L 708.999023 418.999023 L 727.973633 424.946289 L 747.939453 433.017578 L 766.064453 440.947266 L 785.039062 451.000977 L 803.022461 461.054687 L 821.005859 472.949219 L 848.051758 493.056641 L 873.964844 516.987305 L 898.037109 541.05957 L 919.985352 567.963867 L 897.045898 586.938477 L 876.938477 562.016602 L 853.999023 538.935547 L 831.05957 516.987305 L 805.004883 498.012695 L 788.012695 486.967773 L 771.020508 477.055664 L 754.02832 467.993164 L 737.036133 460.063477 L 719.052734 452.983398 L 701.069336 447.036133 L 682.944336 440.947266 L 664.960937 436.982422 L 646.977539 434.008789 L 628.00293 431.035156 L 610.019531 429.052734 L 573.061523 429.052734 L 554.936523 430.043945 L 536.953125 432.026367 L 518.969727 435 L 483.00293 442.929687 L 466.010742 448.027344 L 449.018555 453.974609 L 432.026367 461.054687 L 416.025391 468.984375 L 400.024414 477.055664 L 384.023437 486.967773 L 369.013672 497.021484 L 354.995117 508.066406 L 339.985352 519.960937 L 326.958008 531.99707 L 312.939453 546.015625 L 301.044922 560.03418 L 289.008789 575.043945 L 276.972656 591.044922 Z M 254.033203 574.052734 " transform="matrix(0.0275862, 0, 0, 0.0275862, 0, 0)"/>
<path fill-rule="nonzero" fill="rgb(0%, 0%, 100%)" fill-opacity="1" stroke-width="1" stroke-linecap="butt" stroke-linejoin="miter" stroke="rgb(0%, 0%, 100%)" stroke-opacity="1" stroke-miterlimit="4" d="M 577.026367 23.930664 L 1123.041992 568.955078 L 578.017578 1114.970703 L 31.010742 568.955078 Z M 134.946289 602.939453 L 134.946289 534.970703 L 612.001953 1012.026367 L 543.041992 1012.026367 L 1018.964844 535.961914 L 1018.964844 603.930664 L 542.050781 126.025391 L 611.010742 126.025391 Z M 134.946289 602.939453 " transform="matrix(0.0275862, 0, 0, 0.0275862, 0, 0)"/>
<path fill-rule="nonzero" fill="rgb(0%, 0%, 100%)" fill-opacity="1" stroke-width="1" stroke-linecap="butt" stroke-linejoin="miter" stroke="rgb(0%, 0%, 100%)" stroke-opacity="1" stroke-miterlimit="4" d="M 274.990234 554.936523 L 290.991211 572.070312 L 307.983398 586.938477 L 324.975586 600.957031 L 342.958984 614.975586 L 360.942383 626.020508 L 379.067383 638.056641 L 398.041992 647.96875 L 417.016602 658.022461 L 435.991211 666.943359 L 455.957031 674.023437 L 474.931641 681.953125 L 494.047852 688.041992 L 533.979492 695.97168 L 552.954102 699.936523 L 573.061523 701.069336 L 593.027344 703.051758 L 612.001953 703.051758 L 630.976562 702.060547 L 650.942383 701.069336 L 669.067383 697.954102 L 689.033203 694.980469 L 706.025391 690.024414 L 725 685.068359 L 742.983398 677.988281 L 759.975586 670.058594 L 776.967773 661.987305 L 792.96875 653.066406 L 824.970703 630.976562 L 838.989258 618.94043 L 853.999023 605.063477 L 865.043945 593.027344 L 876.938477 580 L 886.992187 566.972656 L 897.045898 551.962891 L 920.976562 568.955078 L 909.931641 583.964844 L 899.02832 599.96582 L 886.000977 612.993164 L 873.964844 626.020508 L 857.963867 641.030273 L 841.962891 654.057617 L 824.970703 666.943359 L 806.987305 677.988281 L 789.995117 688.041992 L 771.020508 696.962891 L 753.037109 706.025391 L 732.929687 711.972656 L 713.955078 718.061523 L 693.989258 723.017578 L 674.023437 726.982422 L 653.066406 729.956055 L 631.967773 731.938477 L 591.044922 731.938477 L 569.946289 730.947266 L 528.032227 725 L 506.933594 721.035156 L 485.976562 715.9375 L 465.019531 708.999023 L 445.053711 702.060547 L 423.955078 693.989258 L 402.998047 685.068359 L 383.032227 674.023437 L 364.057617 662.978516 L 343.950195 650.942383 L 324.975586 637.06543 L 289.008789 609.02832 L 271.025391 592.036133 L 254.033203 576.035156 Z M 274.990234 554.936523 " transform="matrix(0.0275862, 0, 0, 0.0275862, 0, 0)"/>
<path fill-rule="nonzero" fill="rgb(0%, 0%, 100%)" fill-opacity="1" d="M 13.65625 15.558594 C 13.65625 14.152344 14.8125 13.019531 16.21875 13.019531 C 17.65625 13.019531 18.785156 14.152344 18.785156 15.558594 C 18.785156 16.992188 17.65625 18.152344 16.21875 18.152344 C 14.8125 18.152344 13.65625 16.992188 13.65625 15.558594 Z M 13.65625 15.558594 "/>
<path fill-rule="nonzero" fill="rgb(0%, 0%, 100%)" fill-opacity="1" stroke-width="1" stroke-linecap="butt" stroke-linejoin="miter" stroke="rgb(0%, 0%, 100%)" stroke-opacity="1" stroke-miterlimit="4" d="M 493.056641 564.990234 L 494.047852 554.936523 L 496.030273 546.015625 L 498.012695 535.961914 L 500.986328 528.032227 L 504.951172 519.960937 L 509.057617 512.03125 L 515.004883 503.959961 L 520.952148 498.012695 L 528.032227 492.06543 L 534.970703 485.976562 L 543.041992 482.011719 L 550.97168 477.055664 L 560.03418 473.94043 L 568.955078 471.958008 L 578.017578 470.966797 L 587.929687 469.975586 L 597.983398 469.975586 L 607.045898 471.958008 L 615.966797 473.94043 L 626.020508 477.055664 L 632.958984 482.011719 L 642.021484 485.976562 L 647.96875 492.06543 L 655.048828 498.012695 L 661.987305 503.959961 L 666.943359 511.040039 L 672.041016 519.960937 L 675.014648 528.032227 L 678.979492 535.961914 L 680.961914 546.015625 L 682.944336 554.936523 L 682.944336 574.052734 L 680.961914 583.964844 L 678.979492 593.027344 L 675.014648 600.957031 L 672.041016 610.019531 L 666.943359 616.958008 L 661.987305 625.029297 L 655.048828 631.967773 L 647.96875 637.06543 L 642.021484 643.012695 L 633.950195 647.96875 L 626.020508 651.933594 L 615.966797 655.048828 L 608.037109 658.022461 L 597.983398 658.022461 L 587.929687 659.013672 L 578.017578 658.022461 L 568.955078 658.022461 L 560.03418 655.048828 L 550.97168 651.933594 L 543.041992 647.96875 L 534.970703 643.012695 L 528.032227 637.06543 L 520.952148 631.967773 L 515.004883 625.029297 L 510.048828 617.949219 L 504.951172 610.019531 L 500.986328 600.957031 L 498.012695 593.027344 L 496.030273 583.964844 L 494.047852 574.052734 Z M 498.012695 574.052734 L 498.012695 582.973633 L 500.986328 592.036133 L 502.96875 599.96582 L 508.066406 608.037109 L 512.03125 615.966797 L 517.978516 623.046875 L 524.067383 628.994141 L 530.014648 635.932617 L 536.953125 641.030273 L 545.024414 644.995117 L 551.962891 648.959961 L 561.025391 651.933594 L 569.946289 654.057617 L 579.008789 656.040039 L 597.983398 656.040039 L 607.045898 654.057617 L 614.975586 651.933594 L 624.038086 648.959961 L 631.967773 644.995117 L 640.039062 641.030273 L 646.977539 635.932617 L 653.066406 629.985352 L 659.013672 623.046875 L 663.969727 615.966797 L 667.93457 608.037109 L 673.032227 599.96582 L 676.005859 592.036133 L 677.988281 583.964844 L 678.979492 574.052734 L 679.970703 564.990234 L 678.979492 554.936523 L 677.988281 546.015625 L 676.005859 536.953125 L 673.032227 529.023437 L 669.067383 520.952148 L 663.969727 514.013672 L 659.013672 505.942383 L 653.066406 499.995117 L 646.977539 493.056641 L 640.039062 487.958984 L 631.967773 483.994141 L 624.038086 480.029297 L 614.975586 477.055664 L 607.045898 474.931641 L 597.983398 472.949219 L 579.008789 472.949219 L 569.946289 474.931641 L 562.016602 477.055664 L 551.962891 480.029297 L 545.024414 483.994141 L 536.953125 487.958984 L 530.014648 493.056641 L 524.067383 499.003906 L 517.978516 505.942383 L 513.022461 514.013672 L 508.066406 519.960937 L 503.959961 529.023437 L 500.986328 536.953125 L 498.012695 546.015625 L 498.012695 554.936523 L 497.021484 563.999023 Z M 498.012695 574.052734 " transform="matrix(0.0275862, 0, 0, 0.0275862, 0, 0)"/>
</svg>
