<?xml version="1.0" encoding="UTF-8"?>
<svg xmlns="http://www.w3.org/2000/svg" xmlns:xlink="http://www.w3.org/1999/xlink" width="32" height="32" viewBox="0 0 32 32">
<path fill-rule="nonzero" fill="rgb(100%, 0%, 0%)" fill-opacity="1" d="M 12.21875 4.882812 C 12.21875 4.414062 12.605469 4.027344 13.074219 4.027344 C 13.542969 4.027344 13.902344 4.414062 13.902344 4.882812 C 13.902344 5.351562 13.542969 5.738281 13.074219 5.738281 C 12.605469 5.738281 12.21875 5.351562 12.21875 4.882812 Z M 12.21875 4.882812 "/>
<path fill-rule="nonzero" fill="rgb(100%, 0%, 0%)" fill-opacity="1" stroke-width="1" stroke-linecap="butt" stroke-linejoin="miter" stroke="rgb(100%, 0%, 0%)" stroke-opacity="1" stroke-miterlimit="4" d="M 438.964844 177.001953 L 439.956055 171.054687 C 439.956055 170.063477 439.956055 170.063477 439.956055 170.063477 L 441.938477 163.974609 C 442.929687 163.974609 442.929687 162.983398 442.929687 162.983398 L 450.009766 154.0625 C 450.009766 152.929687 450.009766 152.929687 451.000977 152.929687 L 460.063477 145.991211 C 461.054687 145.991211 461.054687 145.991211 461.054687 145 L 467.001953 144.008789 C 467.001953 144.008789 467.001953 144.008789 467.993164 144.008789 L 473.94043 143.017578 C 473.94043 143.017578 474.931641 143.017578 474.931641 143.017578 L 480.029297 144.008789 C 480.029297 144.008789 480.029297 144.008789 481.020508 144.008789 L 485.976562 145 C 486.967773 145.991211 486.967773 145.991211 486.967773 145.991211 L 498.012695 152.929687 C 498.012695 152.929687 498.012695 152.929687 498.012695 154.0625 L 504.951172 162.983398 C 504.951172 162.983398 504.951172 163.974609 504.951172 163.974609 L 506.933594 170.063477 C 506.933594 170.063477 506.933594 170.063477 506.933594 171.054687 L 508.066406 177.001953 L 506.933594 183.94043 C 506.933594 183.94043 506.933594 183.94043 506.933594 184.931641 L 504.951172 190.029297 C 504.951172 191.020508 504.951172 191.020508 504.951172 191.020508 L 498.012695 200.932617 C 498.012695 200.932617 498.012695 202.06543 498.012695 202.06543 L 486.967773 209.003906 C 486.967773 209.003906 486.967773 209.003906 485.976562 209.003906 L 481.020508 209.995117 C 480.029297 209.995117 480.029297 209.995117 480.029297 209.995117 L 474.931641 210.986328 C 474.931641 210.986328 473.94043 210.986328 473.94043 210.986328 L 467.993164 209.995117 C 467.001953 209.995117 467.001953 209.995117 467.001953 209.995117 L 461.054687 209.003906 C 461.054687 209.003906 461.054687 209.003906 460.063477 209.003906 L 451.000977 202.06543 C 450.009766 202.06543 450.009766 200.932617 450.009766 200.932617 L 442.929687 191.020508 C 442.929687 191.020508 442.929687 191.020508 441.938477 190.029297 L 439.956055 184.931641 C 439.956055 183.94043 439.956055 183.94043 439.956055 183.94043 Z M 446.044922 182.949219 L 448.027344 188.046875 L 448.027344 187.055664 L 454.96582 197.958984 L 453.974609 196.967773 L 463.037109 204.047852 L 463.037109 203.056641 L 468.984375 204.047852 L 467.993164 204.047852 L 474.931641 205.039062 L 473.94043 205.039062 L 480.029297 204.047852 L 485.976562 203.056641 L 484.985352 204.047852 L 494.047852 196.967773 L 493.056641 197.958984 L 499.995117 188.046875 L 499.003906 188.046875 L 501.977539 182.949219 L 501.977539 171.054687 L 501.977539 172.045898 L 499.003906 165.957031 L 499.995117 166.948242 L 493.056641 157.036133 L 494.047852 158.027344 L 483.994141 150.947266 L 485.976562 150.947266 L 480.029297 149.956055 L 473.94043 148.964844 L 474.931641 148.964844 L 467.993164 149.956055 L 468.984375 149.956055 L 463.037109 150.947266 L 453.974609 158.027344 L 454.96582 157.036133 L 448.027344 166.948242 L 448.027344 165.957031 L 446.044922 172.045898 L 446.044922 171.054687 L 445.053711 177.001953 Z M 446.044922 182.949219 " transform="matrix(0.0275862, 0, 0, 0.0275862, 0, 0)"/>
<path fill-rule="nonzero" fill="rgb(100%, 0%, 0%)" fill-opacity="1" stroke-width="1" stroke-linecap="butt" stroke-linejoin="miter" stroke="rgb(100%, 0%, 0%)" stroke-opacity="1" stroke-miterlimit="4" d="M 449.018555 225.996094 L 518.969727 295.947266 C 527.041016 304.018555 527.041016 316.054687 518.969727 322.001953 C 511.040039 331.064453 499.003906 331.064453 492.06543 322.001953 L 421.972656 253.041992 C 414.042969 244.970703 414.042969 234.067383 421.972656 225.996094 C 429.052734 218.066406 440.947266 218.066406 449.018555 225.996094 Z M 449.018555 225.996094 " transform="matrix(0.0275862, 0, 0, 0.0275862, 0, 0)"/>
<path fill-rule="nonzero" fill="rgb(100%, 0%, 0%)" fill-opacity="1" stroke-width="1" stroke-linecap="butt" stroke-linejoin="miter" stroke="rgb(100%, 0%, 0%)" stroke-opacity="1" stroke-miterlimit="4" d="M 596.000977 246.953125 L 526.049805 317.045898 C 517.978516 324.975586 505.942383 324.975586 499.003906 317.045898 C 490.932617 309.96582 490.932617 297.929687 499.003906 290 L 568.955078 220.048828 C 576.035156 211.977539 587.929687 211.977539 596.000977 220.048828 C 603.930664 227.978516 603.930664 239.023437 596.000977 246.953125 Z M 596.000977 246.953125 " transform="matrix(0.0275862, 0, 0, 0.0275862, 0, 0)"/>
<path fill-rule="nonzero" fill="rgb(100%, 0%, 0%)" fill-opacity="1" stroke-width="1" stroke-linecap="butt" stroke-linejoin="miter" stroke="rgb(100%, 0%, 0%)" stroke-opacity="1" stroke-miterlimit="4" d="M 354.003906 163.974609 L 297.929687 220.048828 C 290.991211 227.978516 278.955078 227.978516 271.025391 220.048828 C 262.954102 212.96875 262.954102 199.941406 271.025391 193.00293 L 326.958008 137.070312 C 334.038086 128.999023 345.932617 128.999023 354.003906 137.070312 C 361.933594 145 361.933594 157.036133 354.003906 163.974609 Z M 354.003906 163.974609 " transform="matrix(0.0275862, 0, 0, 0.0275862, 0, 0)"/>
<path fill-rule="nonzero" fill="rgb(100%, 0%, 0%)" fill-opacity="1" stroke-width="1" stroke-linecap="butt" stroke-linejoin="miter" stroke="rgb(100%, 0%, 0%)" stroke-opacity="1" stroke-miterlimit="4" d="M 361.933594 145 L 438.964844 209.995117 C 446.044922 215.942383 447.036133 227.978516 439.956055 236.049805 C 433.017578 244.970703 421.972656 244.970703 414.042969 239.023437 L 337.011719 175.019531 C 328.94043 167.939453 327.949219 156.044922 335.029297 146.982422 C 341.967773 139.052734 354.003906 138.061523 361.933594 145 Z M 361.933594 145 " transform="matrix(0.0275862, 0, 0, 0.0275862, 0, 0)"/>
<path fill-rule="nonzero" fill="rgb(100%, 0%, 0%)" fill-opacity="1" stroke-width="1" stroke-linecap="butt" stroke-linejoin="miter" stroke="rgb(100%, 0%, 0%)" stroke-opacity="1" stroke-miterlimit="4" d="M 441.938477 244.970703 L 337.011719 350.039062 C 325.966797 359.951172 307.983398 359.951172 297.929687 350.039062 C 286.035156 338.994141 286.035156 321.010742 297.929687 309.96582 L 402.006836 204.047852 C 413.051758 193.994141 431.035156 193.994141 441.938477 204.047852 C 451.992187 215.942383 451.992187 234.067383 441.938477 244.970703 Z M 441.938477 244.970703 " transform="matrix(0.0275862, 0, 0, 0.0275862, 0, 0)"/>
<path fill-rule="nonzero" fill="rgb(100%, 0%, 0%)" fill-opacity="1" stroke-width="1" stroke-linecap="butt" stroke-linejoin="miter" stroke="rgb(100%, 0%, 0%)" stroke-opacity="1" stroke-miterlimit="4" d="M 351.030273 313.930664 L 427.070312 377.93457 C 434.008789 385.014648 435.991211 397.050781 428.061523 403.989258 C 421.972656 413.051758 409.936523 414.042969 402.006836 406.962891 L 325.966797 342.958984 C 317.045898 336.020508 316.054687 323.984375 322.993164 316.054687 C 329.931641 307.983398 341.967773 306.000977 351.030273 313.930664 Z M 351.030273 313.930664 " transform="matrix(0.0275862, 0, 0, 0.0275862, 0, 0)"/>
<path fill-rule="nonzero" fill="rgb(100%, 0%, 0%)" fill-opacity="1" stroke-width="1" stroke-linecap="butt" stroke-linejoin="miter" stroke="rgb(100%, 0%, 0%)" stroke-opacity="1" stroke-miterlimit="4" d="M 433.017578 397.050781 L 428.061523 520.952148 C 428.061523 531.005859 418.999023 540.068359 407.954102 538.935547 C 398.041992 538.935547 388.979492 529.023437 389.970703 518.969727 L 393.935547 395.068359 C 395.068359 385.014648 403.989258 375.952148 415.03418 376.943359 C 424.946289 376.943359 433.017578 386.99707 433.017578 397.050781 Z M 433.017578 397.050781 " transform="matrix(0.0275862, 0, 0, 0.0275862, 0, 0)"/>
<path fill-rule="nonzero" fill="rgb(100%, 0%, 0%)" fill-opacity="1" stroke-width="1" stroke-linecap="butt" stroke-linejoin="miter" stroke="rgb(100%, 0%, 0%)" stroke-opacity="1" stroke-miterlimit="4" d="M 326.958008 374.960937 L 264.936523 432.026367 C 257.006836 439.956055 244.970703 439.956055 238.032227 432.026367 C 230.952148 422.963867 230.952148 411.069336 239.023437 403.989258 L 300.053711 347.06543 C 307.983398 339.985352 320.019531 339.985352 327.949219 347.06543 C 334.038086 354.995117 334.038086 368.022461 326.958008 374.960937 Z M 326.958008 374.960937 " transform="matrix(0.0275862, 0, 0, 0.0275862, 0, 0)"/>
<path fill-rule="nonzero" fill="rgb(100%, 0%, 0%)" fill-opacity="1" stroke-width="1" stroke-linecap="butt" stroke-linejoin="miter" stroke="rgb(100%, 0%, 0%)" stroke-opacity="1" stroke-miterlimit="4" d="M 240.014648 432.026367 L 160.009766 363.066406 C 150.947266 356.977539 150.947266 344.941406 157.036133 336.020508 C 163.974609 327.949219 176.010742 327.949219 184.931641 334.038086 L 264.936523 402.006836 C 273.999023 408.945312 274.990234 420.981445 268.051758 429.052734 C 260.97168 436.982422 248.935547 438.964844 240.014648 432.026367 Z M 240.014648 432.026367 " transform="matrix(0.0275862, 0, 0, 0.0275862, 0, 0)"/>
<path fill-rule="nonzero" fill="rgb(100%, 0%, 0%)" fill-opacity="1" stroke-width="1" stroke-linecap="butt" stroke-linejoin="miter" stroke="rgb(100%, 0%, 0%)" stroke-opacity="1" stroke-miterlimit="4" d="M 231.943359 499.003906 L 108.041992 498.012695 C 103.935547 498.012695 98.979492 494.047852 98.979492 488.950195 C 99.970703 483.994141 103.935547 481.020508 109.033203 481.020508 L 231.943359 481.020508 C 237.041016 482.011719 241.005859 485.976562 240.014648 490.932617 C 240.014648 496.030273 237.041016 499.995117 231.943359 499.003906 Z M 231.943359 499.003906 " transform="matrix(0.0275862, 0, 0, 0.0275862, 0, 0)"/>
<path fill-rule="nonzero" fill="rgb(100%, 0%, 0%)" fill-opacity="1" stroke-width="1" stroke-linecap="butt" stroke-linejoin="miter" stroke="rgb(100%, 0%, 0%)" stroke-opacity="1" stroke-miterlimit="4" d="M 231.943359 469.975586 L 108.041992 468.984375 C 103.935547 468.984375 98.979492 464.02832 98.979492 458.930664 C 99.970703 454.96582 103.935547 451.000977 109.033203 451.000977 L 231.943359 451.992187 C 237.041016 451.992187 241.005859 456.948242 240.014648 462.045898 C 240.014648 466.010742 237.041016 469.975586 231.943359 469.975586 Z M 231.943359 469.975586 " transform="matrix(0.0275862, 0, 0, 0.0275862, 0, 0)"/>
<path fill-rule="nonzero" fill="rgb(100%, 0%, 0%)" fill-opacity="1" d="M 24.691406 4.882812 C 24.691406 4.414062 25.074219 4.027344 25.542969 4.027344 C 26.015625 4.027344 26.398438 4.414062 26.398438 4.882812 C 26.398438 5.351562 26.015625 5.738281 25.542969 5.738281 C 25.074219 5.738281 24.691406 5.351562 24.691406 4.882812 Z M 24.691406 4.882812 "/>
<path fill-rule="nonzero" fill="rgb(100%, 0%, 0%)" fill-opacity="1" stroke-width="1" stroke-linecap="butt" stroke-linejoin="miter" stroke="rgb(100%, 0%, 0%)" stroke-opacity="1" stroke-miterlimit="4" d="M 891.948242 177.001953 L 891.948242 171.054687 C 891.948242 170.063477 891.948242 170.063477 891.948242 170.063477 L 893.930664 163.974609 C 895.063477 163.974609 895.063477 162.983398 895.063477 162.983398 L 902.001953 154.0625 C 902.001953 152.929687 902.001953 152.929687 902.993164 152.929687 L 912.055664 145.991211 C 912.055664 145.991211 913.046875 145.991211 913.046875 145 L 918.994141 144.008789 C 918.994141 144.008789 918.994141 144.008789 919.985352 144.008789 L 925.932617 143.017578 L 933.012695 144.008789 L 938.959961 145 C 938.959961 145.991211 938.959961 145.991211 938.959961 145.991211 L 950.004883 152.929687 C 950.004883 152.929687 950.004883 152.929687 950.996094 154.0625 L 956.943359 162.983398 C 956.943359 162.983398 956.943359 163.974609 956.943359 163.974609 L 959.067383 170.063477 C 959.067383 170.063477 959.067383 170.063477 959.067383 171.054687 L 960.058594 177.001953 L 959.067383 183.94043 C 959.067383 183.94043 959.067383 183.94043 959.067383 184.931641 L 956.943359 190.029297 C 956.943359 191.020508 956.943359 191.020508 956.943359 191.020508 L 950.996094 200.932617 C 950.004883 200.932617 950.004883 202.06543 950.004883 202.06543 L 938.959961 209.003906 L 933.012695 209.995117 L 925.932617 210.986328 L 919.985352 209.995117 C 918.994141 209.995117 918.994141 209.995117 918.994141 209.995117 L 913.046875 209.003906 C 913.046875 209.003906 912.055664 209.003906 912.055664 209.003906 L 902.993164 202.06543 C 902.001953 202.06543 902.001953 200.932617 902.001953 200.932617 L 895.063477 191.020508 C 895.063477 191.020508 895.063477 191.020508 893.930664 190.029297 L 891.948242 184.931641 C 891.948242 183.94043 891.948242 183.94043 891.948242 183.94043 Z M 898.037109 182.949219 L 900.019531 188.046875 L 900.019531 187.055664 L 905.966797 197.958984 L 904.975586 196.967773 L 916.020508 204.047852 L 915.029297 203.056641 L 920.976562 204.047852 L 919.985352 204.047852 L 925.932617 205.039062 L 932.021484 204.047852 L 931.030273 204.047852 L 936.977539 203.056641 L 935.986328 204.047852 L 946.040039 196.967773 L 945.048828 197.958984 L 951.987305 188.046875 L 950.996094 188.046875 L 952.978516 182.949219 L 953.969727 177.001953 L 952.978516 171.054687 L 952.978516 172.045898 L 950.996094 165.957031 L 951.987305 166.948242 L 945.048828 157.036133 L 946.040039 158.027344 L 935.986328 150.947266 L 936.977539 150.947266 L 931.030273 149.956055 L 932.021484 149.956055 L 925.932617 148.964844 L 919.985352 149.956055 L 920.976562 149.956055 L 915.029297 150.947266 L 916.020508 150.947266 L 904.975586 158.027344 L 905.966797 157.036133 L 900.019531 166.948242 L 900.019531 165.957031 L 898.037109 172.045898 L 898.037109 171.054687 Z M 898.037109 182.949219 " transform="matrix(0.0275862, 0, 0, 0.0275862, 0, 0)"/>
<path fill-rule="nonzero" fill="rgb(100%, 0%, 0%)" fill-opacity="1" stroke-width="1" stroke-linecap="butt" stroke-linejoin="miter" stroke="rgb(100%, 0%, 0%)" stroke-opacity="1" stroke-miterlimit="4" d="M 901.010742 225.996094 L 970.961914 295.947266 C 979.033203 304.018555 979.033203 316.054687 970.961914 322.001953 C 963.032227 331.064453 950.996094 331.064453 944.057617 322.001953 L 873.964844 253.041992 C 866.035156 244.970703 866.035156 234.067383 873.964844 225.996094 C 881.044922 218.066406 892.939453 218.066406 901.010742 225.996094 Z M 901.010742 225.996094 " transform="matrix(0.0275862, 0, 0, 0.0275862, 0, 0)"/>
<path fill-rule="nonzero" fill="rgb(100%, 0%, 0%)" fill-opacity="1" stroke-width="1" stroke-linecap="butt" stroke-linejoin="miter" stroke="rgb(100%, 0%, 0%)" stroke-opacity="1" stroke-miterlimit="4" d="M 1047.993164 246.953125 L 978.041992 317.045898 C 969.970703 324.975586 957.93457 324.975586 950.996094 317.045898 C 943.066406 309.96582 943.066406 297.929687 950.996094 290 L 1020.947266 220.048828 C 1028.027344 211.977539 1040.063477 211.977539 1047.993164 220.048828 C 1056.064453 227.978516 1056.064453 239.023437 1047.993164 246.953125 Z M 1047.993164 246.953125 " transform="matrix(0.0275862, 0, 0, 0.0275862, 0, 0)"/>
<path fill-rule="nonzero" fill="rgb(100%, 0%, 0%)" fill-opacity="1" stroke-width="1" stroke-linecap="butt" stroke-linejoin="miter" stroke="rgb(100%, 0%, 0%)" stroke-opacity="1" stroke-miterlimit="4" d="M 805.996094 163.974609 L 750.063477 220.048828 C 742.983398 227.978516 729.956055 227.978516 723.017578 220.048828 C 715.9375 212.96875 715.9375 199.941406 723.017578 193.00293 L 778.950195 137.070312 C 786.030273 128.999023 798.066406 128.999023 805.996094 137.070312 C 814.067383 145 814.067383 157.036133 805.996094 163.974609 Z M 805.996094 163.974609 " transform="matrix(0.0275862, 0, 0, 0.0275862, 0, 0)"/>
<path fill-rule="nonzero" fill="rgb(100%, 0%, 0%)" fill-opacity="1" stroke-width="1" stroke-linecap="butt" stroke-linejoin="miter" stroke="rgb(100%, 0%, 0%)" stroke-opacity="1" stroke-miterlimit="4" d="M 814.067383 145 L 889.96582 209.995117 C 898.037109 215.942383 899.02832 227.978516 891.948242 236.049805 C 886.000977 244.970703 873.964844 244.970703 865.043945 239.023437 L 789.003906 175.019531 C 780.932617 167.939453 779.941406 156.044922 787.021484 146.982422 C 792.96875 139.052734 805.996094 138.061523 814.067383 145 Z M 814.067383 145 " transform="matrix(0.0275862, 0, 0, 0.0275862, 0, 0)"/>
<path fill-rule="nonzero" fill="rgb(100%, 0%, 0%)" fill-opacity="1" stroke-width="1" stroke-linecap="butt" stroke-linejoin="miter" stroke="rgb(100%, 0%, 0%)" stroke-opacity="1" stroke-miterlimit="4" d="M 893.930664 244.970703 L 789.003906 350.039062 C 777.958984 359.951172 759.975586 359.951172 748.930664 350.039062 C 738.027344 338.994141 738.027344 321.010742 748.930664 309.96582 L 853.999023 204.047852 C 865.043945 193.994141 883.027344 193.994141 893.930664 204.047852 C 903.984375 215.942383 903.984375 234.067383 893.930664 244.970703 Z M 893.930664 244.970703 " transform="matrix(0.0275862, 0, 0, 0.0275862, 0, 0)"/>
<path fill-rule="nonzero" fill="rgb(100%, 0%, 0%)" fill-opacity="1" stroke-width="1" stroke-linecap="butt" stroke-linejoin="miter" stroke="rgb(100%, 0%, 0%)" stroke-opacity="1" stroke-miterlimit="4" d="M 802.03125 313.930664 L 877.929687 377.93457 C 886.000977 385.014648 886.992187 397.050781 881.044922 403.989258 C 873.964844 413.051758 862.070312 414.042969 853.007812 406.962891 L 776.967773 342.958984 C 769.038086 336.020508 768.046875 323.984375 774.985352 316.054687 C 782.06543 307.983398 793.959961 306.000977 802.03125 313.930664 Z M 802.03125 313.930664 " transform="matrix(0.0275862, 0, 0, 0.0275862, 0, 0)"/>
<path fill-rule="nonzero" fill="rgb(100%, 0%, 0%)" fill-opacity="1" stroke-width="1" stroke-linecap="butt" stroke-linejoin="miter" stroke="rgb(100%, 0%, 0%)" stroke-opacity="1" stroke-miterlimit="4" d="M 885.009766 397.050781 L 880.053711 520.952148 C 880.053711 531.005859 870 540.068359 859.946289 538.935547 C 850.03418 538.935547 840.97168 529.023437 841.962891 518.969727 L 846.069336 395.068359 C 847.060547 385.014648 856.972656 375.952148 867.026367 376.943359 C 876.938477 376.943359 886.000977 386.99707 885.009766 397.050781 Z M 885.009766 397.050781 " transform="matrix(0.0275862, 0, 0, 0.0275862, 0, 0)"/>
<path fill-rule="nonzero" fill="rgb(100%, 0%, 0%)" fill-opacity="1" stroke-width="1" stroke-linecap="butt" stroke-linejoin="miter" stroke="rgb(100%, 0%, 0%)" stroke-opacity="1" stroke-miterlimit="4" d="M 778.950195 374.960937 L 717.070312 432.026367 C 709.990234 439.956055 696.962891 439.956055 690.024414 432.026367 C 682.944336 422.963867 682.944336 411.069336 691.015625 403.989258 L 752.045898 347.06543 C 759.975586 339.985352 772.011719 339.985352 778.950195 347.06543 C 786.030273 354.995117 786.030273 368.022461 778.950195 374.960937 Z M 778.950195 374.960937 " transform="matrix(0.0275862, 0, 0, 0.0275862, 0, 0)"/>
<path fill-rule="nonzero" fill="rgb(100%, 0%, 0%)" fill-opacity="1" stroke-width="1" stroke-linecap="butt" stroke-linejoin="miter" stroke="rgb(100%, 0%, 0%)" stroke-opacity="1" stroke-miterlimit="4" d="M 692.006836 432.026367 L 611.010742 363.066406 C 603.930664 356.977539 602.939453 344.941406 610.019531 336.020508 C 615.966797 327.949219 628.00293 327.949219 635.932617 334.038086 L 717.070312 402.006836 C 725 408.945312 726.982422 420.981445 719.052734 429.052734 C 712.963867 436.982422 699.936523 438.964844 692.006836 432.026367 Z M 692.006836 432.026367 " transform="matrix(0.0275862, 0, 0, 0.0275862, 0, 0)"/>
<path fill-rule="nonzero" fill="rgb(100%, 0%, 0%)" fill-opacity="1" stroke-width="1" stroke-linecap="butt" stroke-linejoin="miter" stroke="rgb(100%, 0%, 0%)" stroke-opacity="1" stroke-miterlimit="4" d="M 683.935547 499.003906 L 560.03418 498.012695 C 556.069336 498.012695 550.97168 494.047852 550.97168 488.950195 C 550.97168 483.994141 556.069336 481.020508 561.025391 481.020508 L 683.935547 481.020508 C 689.033203 482.011719 692.998047 485.976562 692.006836 490.932617 C 692.006836 496.030273 688.041992 499.995117 683.935547 499.003906 Z M 683.935547 499.003906 " transform="matrix(0.0275862, 0, 0, 0.0275862, 0, 0)"/>
<path fill-rule="nonzero" fill="rgb(100%, 0%, 0%)" fill-opacity="1" stroke-width="1" stroke-linecap="butt" stroke-linejoin="miter" stroke="rgb(100%, 0%, 0%)" stroke-opacity="1" stroke-miterlimit="4" d="M 683.935547 469.975586 L 560.03418 468.984375 C 556.069336 468.984375 550.97168 464.02832 550.97168 458.930664 C 550.97168 454.96582 556.069336 451.000977 561.025391 451.000977 L 683.935547 451.992187 C 689.033203 451.992187 692.998047 456.948242 692.006836 462.045898 C 692.006836 466.010742 688.041992 469.975586 683.935547 469.975586 Z M 683.935547 469.975586 " transform="matrix(0.0275862, 0, 0, 0.0275862, 0, 0)"/>
<path fill-rule="nonzero" fill="rgb(100%, 0%, 0%)" fill-opacity="1" d="M 24.691406 18.125 C 24.691406 17.65625 25.074219 17.269531 25.542969 17.269531 C 26.015625 17.269531 26.398438 17.65625 26.398438 18.125 C 26.398438 18.621094 26.015625 18.980469 25.542969 18.980469 C 25.074219 18.980469 24.691406 18.621094 24.691406 18.125 Z M 24.691406 18.125 "/>
<path fill-rule="nonzero" fill="rgb(100%, 0%, 0%)" fill-opacity="1" stroke-width="1" stroke-linecap="butt" stroke-linejoin="miter" stroke="rgb(100%, 0%, 0%)" stroke-opacity="1" stroke-miterlimit="4" d="M 891.948242 658.022461 C 891.948242 658.022461 891.948242 657.03125 891.948242 657.03125 L 891.948242 650.942383 C 891.948242 649.951172 891.948242 649.951172 891.948242 649.951172 L 893.930664 644.003906 C 895.063477 644.003906 895.063477 644.003906 895.063477 643.012695 L 902.001953 633.950195 C 902.001953 633.950195 902.001953 632.958984 902.993164 632.958984 L 912.055664 626.020508 C 912.055664 626.020508 913.046875 626.020508 913.046875 625.029297 L 918.994141 623.046875 C 918.994141 623.046875 918.994141 623.046875 919.985352 623.046875 L 925.932617 622.055664 L 933.012695 623.046875 L 938.959961 625.029297 C 938.959961 626.020508 938.959961 626.020508 938.959961 626.020508 L 950.004883 632.958984 C 950.004883 632.958984 950.004883 633.950195 950.996094 633.950195 L 956.943359 643.012695 C 956.943359 644.003906 956.943359 644.003906 956.943359 644.003906 L 959.067383 649.951172 C 959.067383 649.951172 959.067383 649.951172 959.067383 650.942383 L 960.058594 657.03125 C 960.058594 657.03125 960.058594 658.022461 960.058594 658.022461 L 959.067383 662.978516 C 959.067383 662.978516 959.067383 662.978516 959.067383 663.969727 L 956.943359 669.067383 C 956.943359 670.058594 956.943359 670.058594 956.943359 670.058594 L 950.996094 680.961914 C 950.004883 680.961914 950.004883 680.961914 950.004883 680.961914 L 938.959961 688.041992 L 933.012695 691.015625 L 919.985352 691.015625 C 918.994141 691.015625 918.994141 691.015625 918.994141 691.015625 L 913.046875 688.041992 C 913.046875 688.041992 912.055664 688.041992 912.055664 688.041992 L 902.993164 680.961914 C 902.001953 680.961914 902.001953 680.961914 902.001953 680.961914 L 895.063477 670.058594 C 895.063477 670.058594 895.063477 670.058594 893.930664 669.067383 L 891.948242 663.969727 C 891.948242 662.978516 891.948242 662.978516 891.948242 662.978516 Z M 898.037109 662.978516 L 900.019531 669.067383 L 900.019531 666.943359 L 905.966797 676.99707 L 904.975586 676.005859 L 916.020508 682.944336 L 915.029297 681.953125 L 920.976562 685.068359 L 919.985352 685.068359 L 932.021484 685.068359 L 931.030273 685.068359 L 936.977539 681.953125 L 935.986328 682.944336 L 946.040039 676.005859 L 945.048828 676.99707 L 951.987305 667.93457 L 950.996094 669.067383 L 952.978516 662.978516 L 953.969727 657.03125 L 953.969727 658.022461 L 952.978516 650.942383 L 952.978516 651.933594 L 950.996094 645.986328 L 951.987305 645.986328 L 945.048828 637.06543 L 946.040039 638.056641 L 935.986328 630.976562 L 936.977539 630.976562 L 931.030273 628.994141 L 932.021484 628.994141 L 925.932617 628.00293 L 919.985352 628.994141 L 920.976562 628.994141 L 915.029297 630.976562 L 916.020508 630.976562 L 904.975586 638.056641 L 905.966797 637.06543 L 900.019531 646.977539 L 900.019531 645.986328 L 898.037109 651.933594 L 898.037109 650.942383 L 898.037109 658.022461 L 898.037109 657.03125 Z M 898.037109 662.978516 " transform="matrix(0.0275862, 0, 0, 0.0275862, 0, 0)"/>
<path fill-rule="nonzero" fill="rgb(100%, 0%, 0%)" fill-opacity="1" stroke-width="1" stroke-linecap="butt" stroke-linejoin="miter" stroke="rgb(100%, 0%, 0%)" stroke-opacity="1" stroke-miterlimit="4" d="M 901.010742 705.03418 L 970.961914 774.985352 C 979.033203 783.056641 979.033203 794.951172 970.961914 803.022461 C 963.032227 810.952148 950.996094 810.952148 944.057617 803.022461 L 873.964844 732.929687 C 866.035156 725 866.035156 712.963867 873.964844 705.03418 C 881.044922 697.954102 892.939453 697.954102 901.010742 705.03418 Z M 901.010742 705.03418 " transform="matrix(0.0275862, 0, 0, 0.0275862, 0, 0)"/>
<path fill-rule="nonzero" fill="rgb(100%, 0%, 0%)" fill-opacity="1" stroke-width="1" stroke-linecap="butt" stroke-linejoin="miter" stroke="rgb(100%, 0%, 0%)" stroke-opacity="1" stroke-miterlimit="4" d="M 1047.993164 726.982422 L 978.041992 796.933594 C 969.970703 805.004883 957.93457 805.004883 950.996094 796.933594 C 943.066406 789.003906 943.066406 776.967773 950.996094 769.038086 L 1020.947266 698.945312 C 1028.027344 692.006836 1040.063477 692.006836 1047.993164 698.945312 C 1056.064453 707.016602 1056.064453 719.052734 1047.993164 726.982422 Z M 1047.993164 726.982422 " transform="matrix(0.0275862, 0, 0, 0.0275862, 0, 0)"/>
<path fill-rule="nonzero" fill="rgb(100%, 0%, 0%)" fill-opacity="1" stroke-width="1" stroke-linecap="butt" stroke-linejoin="miter" stroke="rgb(100%, 0%, 0%)" stroke-opacity="1" stroke-miterlimit="4" d="M 805.996094 644.003906 L 750.063477 698.945312 C 742.983398 707.016602 729.956055 707.016602 723.017578 698.945312 C 715.9375 692.998047 715.9375 679.970703 723.017578 673.032227 L 778.950195 615.966797 C 786.030273 609.02832 798.066406 609.02832 805.996094 615.966797 C 814.067383 624.038086 814.067383 635.932617 805.996094 644.003906 Z M 805.996094 644.003906 " transform="matrix(0.0275862, 0, 0, 0.0275862, 0, 0)"/>
<path fill-rule="nonzero" fill="rgb(100%, 0%, 0%)" fill-opacity="1" stroke-width="1" stroke-linecap="butt" stroke-linejoin="miter" stroke="rgb(100%, 0%, 0%)" stroke-opacity="1" stroke-miterlimit="4" d="M 814.067383 625.029297 L 889.96582 689.033203 C 898.037109 695.97168 899.02832 708.007812 891.948242 715.9375 C 886.000977 724.008789 873.964844 725 865.043945 718.061523 L 789.003906 654.057617 C 780.932617 646.977539 779.941406 634.941406 787.021484 627.011719 C 792.96875 618.94043 805.996094 616.958008 814.067383 625.029297 Z M 814.067383 625.029297 " transform="matrix(0.0275862, 0, 0, 0.0275862, 0, 0)"/>
<path fill-rule="nonzero" fill="rgb(100%, 0%, 0%)" fill-opacity="1" stroke-width="1" stroke-linecap="butt" stroke-linejoin="miter" stroke="rgb(100%, 0%, 0%)" stroke-opacity="1" stroke-miterlimit="4" d="M 893.930664 724.008789 L 789.003906 828.935547 C 777.958984 839.980469 759.975586 839.980469 748.930664 828.935547 C 738.027344 818.032227 738.027344 800.048828 748.930664 789.003906 L 853.999023 685.068359 C 865.043945 674.023437 883.027344 674.023437 893.930664 685.068359 C 903.984375 694.980469 903.984375 712.963867 893.930664 724.008789 Z M 893.930664 724.008789 " transform="matrix(0.0275862, 0, 0, 0.0275862, 0, 0)"/>
<path fill-rule="nonzero" fill="rgb(100%, 0%, 0%)" fill-opacity="1" stroke-width="1" stroke-linecap="butt" stroke-linejoin="miter" stroke="rgb(100%, 0%, 0%)" stroke-opacity="1" stroke-miterlimit="4" d="M 802.03125 792.96875 L 877.929687 857.963867 C 886.000977 864.052734 886.992187 875.947266 881.044922 885.009766 C 873.964844 892.939453 862.070312 892.939453 853.007812 886.992187 L 776.967773 821.99707 C 769.038086 816.049805 768.046875 804.013672 774.985352 794.951172 C 782.06543 787.021484 793.959961 787.021484 802.03125 792.96875 Z M 802.03125 792.96875 " transform="matrix(0.0275862, 0, 0, 0.0275862, 0, 0)"/>
<path fill-rule="nonzero" fill="rgb(100%, 0%, 0%)" fill-opacity="1" stroke-width="1" stroke-linecap="butt" stroke-linejoin="miter" stroke="rgb(100%, 0%, 0%)" stroke-opacity="1" stroke-miterlimit="4" d="M 885.009766 875.947266 L 880.053711 999.990234 C 880.053711 1011.035156 870 1018.964844 859.946289 1017.973633 C 850.03418 1017.973633 840.97168 1009.052734 841.962891 998.999023 L 846.069336 874.956055 C 847.060547 864.052734 856.972656 855.981445 867.026367 856.972656 C 876.938477 857.963867 886.000977 866.035156 885.009766 875.947266 Z M 885.009766 875.947266 " transform="matrix(0.0275862, 0, 0, 0.0275862, 0, 0)"/>
<path fill-rule="nonzero" fill="rgb(100%, 0%, 0%)" fill-opacity="1" stroke-width="1" stroke-linecap="butt" stroke-linejoin="miter" stroke="rgb(100%, 0%, 0%)" stroke-opacity="1" stroke-miterlimit="4" d="M 778.950195 853.999023 L 717.070312 912.055664 C 709.990234 918.994141 696.962891 918.994141 690.024414 911.064453 C 682.944336 903.984375 682.944336 890.957031 691.015625 884.018555 L 752.045898 826.953125 C 759.975586 819.023437 772.011719 819.023437 778.950195 827.944336 C 786.030273 835.024414 786.030273 847.060547 778.950195 853.999023 Z M 778.950195 853.999023 " transform="matrix(0.0275862, 0, 0, 0.0275862, 0, 0)"/>
<path fill-rule="nonzero" fill="rgb(100%, 0%, 0%)" fill-opacity="1" stroke-width="1" stroke-linecap="butt" stroke-linejoin="miter" stroke="rgb(100%, 0%, 0%)" stroke-opacity="1" stroke-miterlimit="4" d="M 692.006836 911.064453 L 611.010742 842.954102 C 603.930664 836.015625 602.939453 823.979492 610.019531 817.041016 C 615.966797 807.978516 628.00293 806.987305 635.932617 814.067383 L 717.070312 882.036133 C 725 887.983398 726.982422 901.010742 719.052734 908.94043 C 712.963867 917.011719 699.936523 918.00293 692.006836 911.064453 Z M 692.006836 911.064453 " transform="matrix(0.0275862, 0, 0, 0.0275862, 0, 0)"/>
<path fill-rule="nonzero" fill="rgb(100%, 0%, 0%)" fill-opacity="1" stroke-width="1" stroke-linecap="butt" stroke-linejoin="miter" stroke="rgb(100%, 0%, 0%)" stroke-opacity="1" stroke-miterlimit="4" d="M 683.935547 979.033203 L 560.03418 978.041992 C 556.069336 978.041992 550.97168 973.935547 550.97168 968.979492 C 550.97168 964.023437 556.069336 960.058594 561.025391 960.058594 L 683.935547 961.049805 C 689.033203 962.041016 692.998047 965.014648 692.006836 969.970703 C 692.006836 976.05957 688.041992 980.024414 683.935547 979.033203 Z M 683.935547 979.033203 " transform="matrix(0.0275862, 0, 0, 0.0275862, 0, 0)"/>
<path fill-rule="nonzero" fill="rgb(100%, 0%, 0%)" fill-opacity="1" stroke-width="1" stroke-linecap="butt" stroke-linejoin="miter" stroke="rgb(100%, 0%, 0%)" stroke-opacity="1" stroke-miterlimit="4" d="M 683.935547 950.004883 L 560.03418 948.022461 C 556.069336 948.022461 550.97168 944.057617 550.97168 939.951172 C 550.97168 934.003906 556.069336 930.039062 561.025391 930.039062 L 683.935547 932.021484 C 689.033203 932.021484 692.998047 935.986328 692.006836 940.942383 C 692.006836 946.040039 688.041992 950.004883 683.935547 950.004883 Z M 683.935547 950.004883 " transform="matrix(0.0275862, 0, 0, 0.0275862, 0, 0)"/>
<path fill-rule="nonzero" fill="rgb(100%, 0%, 0%)" fill-opacity="1" d="M 12.21875 18.125 C 12.21875 17.65625 12.605469 17.269531 13.074219 17.269531 C 13.542969 17.269531 13.902344 17.65625 13.902344 18.125 C 13.902344 18.621094 13.542969 18.980469 13.074219 18.980469 C 12.605469 18.980469 12.21875 18.621094 12.21875 18.125 Z M 12.21875 18.125 "/>
<path fill-rule="nonzero" fill="rgb(100%, 0%, 0%)" fill-opacity="1" stroke-width="1" stroke-linecap="butt" stroke-linejoin="miter" stroke="rgb(100%, 0%, 0%)" stroke-opacity="1" stroke-miterlimit="4" d="M 438.964844 658.022461 C 438.964844 658.022461 438.964844 657.03125 438.964844 657.03125 L 439.956055 650.942383 C 439.956055 649.951172 439.956055 649.951172 439.956055 649.951172 L 441.938477 644.995117 C 442.929687 644.003906 442.929687 644.003906 442.929687 643.012695 L 450.009766 633.950195 C 450.009766 633.950195 450.009766 632.958984 451.000977 632.958984 L 460.063477 626.020508 C 461.054687 626.020508 461.054687 626.020508 461.054687 625.029297 L 467.001953 623.046875 C 467.001953 623.046875 467.001953 623.046875 467.993164 623.046875 L 473.94043 622.055664 C 473.94043 622.055664 474.931641 622.055664 474.931641 622.055664 L 480.029297 623.046875 C 480.029297 623.046875 480.029297 623.046875 481.020508 623.046875 L 485.976562 625.029297 C 486.967773 626.020508 486.967773 626.020508 486.967773 626.020508 L 498.012695 632.958984 C 498.012695 632.958984 498.012695 633.950195 498.012695 633.950195 L 504.951172 643.012695 C 504.951172 644.003906 504.951172 644.003906 504.951172 644.995117 L 506.933594 649.951172 C 506.933594 649.951172 506.933594 649.951172 506.933594 650.942383 L 508.066406 657.03125 C 508.066406 657.03125 508.066406 658.022461 508.066406 658.022461 L 506.933594 662.978516 C 506.933594 662.978516 506.933594 662.978516 506.933594 663.969727 L 504.951172 669.067383 C 504.951172 670.058594 504.951172 670.058594 504.951172 670.058594 L 498.012695 680.961914 L 486.967773 688.041992 C 486.967773 688.041992 486.967773 688.041992 485.976562 688.041992 L 481.020508 691.015625 C 480.029297 691.015625 480.029297 691.015625 480.029297 691.015625 L 474.931641 691.015625 C 474.931641 691.015625 473.94043 691.015625 473.94043 691.015625 L 467.993164 691.015625 C 467.001953 691.015625 467.001953 691.015625 467.001953 691.015625 L 461.054687 688.041992 C 461.054687 688.041992 461.054687 688.041992 460.063477 688.041992 L 451.000977 680.961914 C 450.009766 680.961914 450.009766 680.961914 450.009766 680.961914 L 442.929687 670.058594 C 442.929687 670.058594 442.929687 670.058594 441.938477 669.067383 L 439.956055 663.969727 C 439.956055 662.978516 439.956055 662.978516 439.956055 662.978516 Z M 446.044922 662.978516 L 448.027344 669.067383 L 448.027344 666.943359 L 454.96582 676.99707 L 453.974609 676.005859 L 463.037109 682.944336 L 468.984375 685.068359 L 467.993164 685.068359 L 474.931641 685.068359 L 473.94043 685.068359 L 480.029297 685.068359 L 485.976562 682.944336 L 484.985352 682.944336 L 494.047852 676.005859 L 493.056641 676.99707 L 499.995117 667.93457 L 499.003906 669.067383 L 501.977539 662.978516 L 501.977539 657.03125 L 501.977539 658.022461 L 501.977539 650.942383 L 501.977539 651.933594 L 499.003906 645.986328 L 499.995117 645.986328 L 493.056641 637.06543 L 494.047852 638.056641 L 483.994141 630.976562 L 485.976562 630.976562 L 480.029297 628.994141 L 473.94043 628.00293 L 474.931641 628.00293 L 467.993164 628.994141 L 468.984375 628.994141 L 463.037109 630.976562 L 453.974609 638.056641 L 454.96582 637.06543 L 448.027344 646.977539 L 448.027344 645.986328 L 446.044922 651.933594 L 446.044922 650.942383 L 445.053711 658.022461 L 445.053711 657.03125 Z M 446.044922 662.978516 " transform="matrix(0.0275862, 0, 0, 0.0275862, 0, 0)"/>
<path fill-rule="nonzero" fill="rgb(100%, 0%, 0%)" fill-opacity="1" stroke-width="1" stroke-linecap="butt" stroke-linejoin="miter" stroke="rgb(100%, 0%, 0%)" stroke-opacity="1" stroke-miterlimit="4" d="M 449.018555 705.03418 L 518.969727 774.985352 C 527.041016 783.056641 527.041016 794.951172 518.969727 803.022461 C 511.040039 810.952148 499.003906 810.952148 492.06543 803.022461 L 421.972656 732.929687 C 414.042969 725 414.042969 712.963867 421.972656 705.03418 C 429.052734 697.954102 440.947266 697.954102 449.018555 705.03418 Z M 449.018555 705.03418 " transform="matrix(0.0275862, 0, 0, 0.0275862, 0, 0)"/>
<path fill-rule="nonzero" fill="rgb(100%, 0%, 0%)" fill-opacity="1" stroke-width="1" stroke-linecap="butt" stroke-linejoin="miter" stroke="rgb(100%, 0%, 0%)" stroke-opacity="1" stroke-miterlimit="4" d="M 596.000977 726.982422 L 526.049805 796.933594 C 517.978516 805.004883 505.942383 805.004883 499.003906 796.933594 C 490.932617 789.003906 490.932617 776.967773 499.003906 769.038086 L 568.955078 698.945312 C 576.035156 692.006836 587.929687 692.006836 596.000977 698.945312 C 603.930664 707.016602 603.930664 719.052734 596.000977 726.982422 Z M 596.000977 726.982422 " transform="matrix(0.0275862, 0, 0, 0.0275862, 0, 0)"/>
<path fill-rule="nonzero" fill="rgb(100%, 0%, 0%)" fill-opacity="1" stroke-width="1" stroke-linecap="butt" stroke-linejoin="miter" stroke="rgb(100%, 0%, 0%)" stroke-opacity="1" stroke-miterlimit="4" d="M 354.003906 644.003906 L 297.929687 698.945312 C 290.991211 708.007812 278.955078 708.007812 271.025391 698.945312 C 262.954102 692.998047 262.954102 680.961914 271.025391 673.032227 L 326.958008 616.958008 C 334.038086 609.02832 345.932617 609.02832 354.003906 616.958008 C 361.933594 624.038086 361.933594 635.932617 354.003906 644.003906 Z M 354.003906 644.003906 " transform="matrix(0.0275862, 0, 0, 0.0275862, 0, 0)"/>
<path fill-rule="nonzero" fill="rgb(100%, 0%, 0%)" fill-opacity="1" stroke-width="1" stroke-linecap="butt" stroke-linejoin="miter" stroke="rgb(100%, 0%, 0%)" stroke-opacity="1" stroke-miterlimit="4" d="M 361.933594 625.029297 L 438.964844 689.033203 C 446.044922 695.97168 447.036133 708.007812 439.956055 715.9375 C 433.017578 724.008789 421.972656 725 414.042969 718.061523 L 337.011719 654.057617 C 328.94043 646.977539 327.949219 634.941406 335.029297 627.011719 C 341.967773 618.94043 354.003906 616.958008 361.933594 625.029297 Z M 361.933594 625.029297 " transform="matrix(0.0275862, 0, 0, 0.0275862, 0, 0)"/>
<path fill-rule="nonzero" fill="rgb(100%, 0%, 0%)" fill-opacity="1" stroke-width="1" stroke-linecap="butt" stroke-linejoin="miter" stroke="rgb(100%, 0%, 0%)" stroke-opacity="1" stroke-miterlimit="4" d="M 441.938477 724.008789 L 337.011719 828.935547 C 325.966797 839.980469 307.983398 839.980469 297.929687 828.935547 C 286.035156 818.032227 286.035156 800.048828 297.929687 789.003906 L 402.006836 685.068359 C 413.051758 674.023437 431.035156 674.023437 441.938477 685.068359 C 451.992187 694.980469 451.992187 712.963867 441.938477 724.008789 Z M 441.938477 724.008789 " transform="matrix(0.0275862, 0, 0, 0.0275862, 0, 0)"/>
<path fill-rule="nonzero" fill="rgb(100%, 0%, 0%)" fill-opacity="1" stroke-width="1" stroke-linecap="butt" stroke-linejoin="miter" stroke="rgb(100%, 0%, 0%)" stroke-opacity="1" stroke-miterlimit="4" d="M 351.030273 792.96875 L 427.070312 857.963867 C 434.008789 864.052734 435.991211 875.947266 428.061523 885.009766 C 421.972656 892.939453 409.936523 893.930664 402.006836 886.992187 L 325.966797 821.99707 C 317.045898 816.049805 316.054687 804.013672 322.993164 795.942383 C 329.931641 787.021484 341.967773 787.021484 351.030273 792.96875 Z M 351.030273 792.96875 " transform="matrix(0.0275862, 0, 0, 0.0275862, 0, 0)"/>
<path fill-rule="nonzero" fill="rgb(100%, 0%, 0%)" fill-opacity="1" stroke-width="1" stroke-linecap="butt" stroke-linejoin="miter" stroke="rgb(100%, 0%, 0%)" stroke-opacity="1" stroke-miterlimit="4" d="M 433.017578 876.938477 L 428.061523 999.990234 C 428.061523 1011.035156 418.999023 1018.964844 407.954102 1017.973633 C 398.041992 1017.973633 388.979492 1010.043945 389.970703 998.999023 L 393.935547 874.956055 C 395.068359 864.052734 403.989258 855.981445 415.03418 856.972656 C 424.946289 857.963867 433.017578 866.035156 433.017578 876.938477 Z M 433.017578 876.938477 " transform="matrix(0.0275862, 0, 0, 0.0275862, 0, 0)"/>
<path fill-rule="nonzero" fill="rgb(100%, 0%, 0%)" fill-opacity="1" stroke-width="1" stroke-linecap="butt" stroke-linejoin="miter" stroke="rgb(100%, 0%, 0%)" stroke-opacity="1" stroke-miterlimit="4" d="M 326.958008 853.999023 L 264.936523 912.055664 C 257.006836 918.994141 244.970703 918.994141 238.032227 911.064453 C 230.952148 903.984375 230.952148 891.948242 239.023437 884.018555 L 300.053711 826.953125 C 307.983398 819.023437 320.019531 820.014648 327.949219 827.944336 C 334.038086 835.024414 334.038086 847.060547 326.958008 853.999023 Z M 326.958008 853.999023 " transform="matrix(0.0275862, 0, 0, 0.0275862, 0, 0)"/>
<path fill-rule="nonzero" fill="rgb(100%, 0%, 0%)" fill-opacity="1" stroke-width="1" stroke-linecap="butt" stroke-linejoin="miter" stroke="rgb(100%, 0%, 0%)" stroke-opacity="1" stroke-miterlimit="4" d="M 240.014648 911.064453 L 160.009766 842.954102 C 150.947266 837.006836 150.947266 823.979492 157.036133 817.041016 C 163.974609 807.978516 176.010742 806.987305 184.931641 814.067383 L 264.936523 882.036133 C 273.999023 888.974609 274.990234 901.010742 268.051758 908.94043 C 260.97168 917.011719 248.935547 918.00293 240.014648 911.064453 Z M 240.014648 911.064453 " transform="matrix(0.0275862, 0, 0, 0.0275862, 0, 0)"/>
<path fill-rule="nonzero" fill="rgb(100%, 0%, 0%)" fill-opacity="1" stroke-width="1" stroke-linecap="butt" stroke-linejoin="miter" stroke="rgb(100%, 0%, 0%)" stroke-opacity="1" stroke-miterlimit="4" d="M 231.943359 980.024414 L 108.041992 978.041992 C 103.935547 978.041992 98.979492 973.935547 98.979492 968.979492 C 99.970703 964.023437 103.935547 960.058594 109.033203 960.058594 L 231.943359 962.041016 C 237.041016 962.041016 241.005859 966.005859 240.014648 970.961914 C 240.014648 976.05957 237.041016 980.024414 231.943359 980.024414 Z M 231.943359 980.024414 " transform="matrix(0.0275862, 0, 0, 0.0275862, 0, 0)"/>
<path fill-rule="nonzero" fill="rgb(100%, 0%, 0%)" fill-opacity="1" stroke-width="1" stroke-linecap="butt" stroke-linejoin="miter" stroke="rgb(100%, 0%, 0%)" stroke-opacity="1" stroke-miterlimit="4" d="M 231.943359 950.004883 L 108.041992 948.022461 C 103.935547 948.022461 98.979492 944.057617 98.979492 939.951172 C 99.970703 934.003906 103.935547 930.039062 109.033203 930.039062 L 231.943359 932.021484 C 237.041016 933.012695 241.005859 935.986328 240.014648 940.942383 C 240.014648 946.040039 237.041016 950.004883 231.943359 950.004883 Z M 231.943359 950.004883 " transform="matrix(0.0275862, 0, 0, 0.0275862, 0, 0)"/>
<path fill-rule="nonzero" fill="rgb(100%, 0%, 0%)" fill-opacity="1" stroke-width="1" stroke-linecap="butt" stroke-linejoin="miter" stroke="rgb(100%, 0%, 0%)" stroke-opacity="1" stroke-miterlimit="4" d="M 16.000977 16.992187 L 1134.936523 16.992187 L 1134.936523 1136.069336 L 16.000977 1136.069336 Z M 60.039062 1114.970703 L 38.94043 1093.022461 L 1113.979492 1093.022461 L 1092.03125 1114.970703 L 1092.03125 38.94043 L 1113.979492 61.030273 L 38.94043 61.030273 L 60.039062 38.94043 Z M 60.039062 1114.970703 " transform="matrix(0.0275862, 0, 0, 0.0275862, 0, 0)"/>
</svg>
