<?xml version="1.0" encoding="UTF-8"?>
<svg xmlns="http://www.w3.org/2000/svg" xmlns:xlink="http://www.w3.org/1999/xlink" width="32" height="32" viewBox="0 0 32 32">
<path fill-rule="nonzero" fill="rgb(0%, 0%, 100%)" fill-opacity="1" d="M 1.792969 16.054688 C 1.820312 15.558594 1.820312 15.0625 1.847656 14.59375 C 1.929688 14.125 1.984375 13.65625 2.070312 13.214844 C 2.179688 12.746094 2.289062 12.277344 2.398438 11.808594 C 2.566406 11.367188 2.730469 10.925781 2.898438 10.511719 C 3.089844 10.097656 3.28125 9.683594 3.476562 9.269531 C 3.695312 8.855469 3.945312 8.46875 4.164062 8.082031 C 4.441406 7.695312 4.71875 7.308594 4.992188 6.953125 C 5.296875 6.621094 5.628906 6.289062 5.929688 5.957031 C 6.261719 5.65625 6.59375 5.351562 6.925781 5.046875 C 7.28125 4.773438 7.640625 4.46875 8.027344 4.191406 C 8.414062 3.972656 8.800781 3.722656 9.1875 3.503906 C 9.601562 3.308594 10.015625 3.089844 10.425781 2.898438 C 10.839844 2.730469 11.28125 2.566406 11.722656 2.398438 C 12.164062 2.289062 12.632812 2.152344 13.101562 2.042969 C 13.574219 1.957031 14.042969 1.902344 14.511719 1.820312 C 14.980469 1.792969 15.449219 1.765625 15.945312 1.738281 C 16.414062 1.765625 16.910156 1.792969 17.378906 1.820312 C 17.847656 1.875 18.316406 1.957031 18.785156 2.015625 C 19.253906 2.125 19.722656 2.261719 20.164062 2.371094 C 20.605469 2.539062 21.046875 2.675781 21.460938 2.839844 C 21.875 3.035156 22.289062 3.226562 22.703125 3.421875 C 23.117188 3.667969 23.503906 3.890625 23.890625 4.136719 C 24.277344 4.414062 24.660156 4.691406 25.019531 4.964844 C 25.351562 5.269531 25.683594 5.601562 26.015625 5.902344 C 26.316406 6.234375 26.621094 6.566406 26.925781 6.898438 C 27.199219 7.253906 27.476562 7.613281 27.75 8 C 27.972656 8.386719 28.21875 8.773438 28.441406 9.160156 C 28.660156 9.574219 28.855469 9.984375 29.074219 10.398438 C 29.242188 10.839844 29.378906 11.28125 29.542969 11.722656 C 29.65625 12.164062 29.792969 12.632812 29.902344 13.101562 C 29.984375 13.574219 30.042969 14.042969 30.125 14.511719 C 30.152344 14.980469 30.179688 15.476562 30.207031 15.972656 C 30.179688 16.441406 30.152344 16.9375 30.125 17.40625 C 30.070312 17.875 29.984375 18.34375 29.929688 18.8125 C 29.820312 19.28125 29.710938 19.75 29.601562 20.191406 C 29.433594 20.632812 29.269531 21.074219 29.101562 21.515625 C 28.910156 21.929688 28.691406 22.34375 28.496094 22.757812 C 28.277344 23.171875 28.027344 23.558594 27.808594 23.945312 C 27.53125 24.332031 27.253906 24.691406 26.980469 25.046875 C 26.675781 25.40625 26.371094 25.738281 26.070312 26.070312 C 25.738281 26.371094 25.40625 26.675781 25.074219 26.980469 C 24.71875 27.253906 24.359375 27.53125 23.972656 27.808594 C 23.585938 28.054688 23.199219 28.277344 22.8125 28.523438 C 22.398438 28.71875 21.984375 28.9375 21.574219 29.132812 C 21.132812 29.296875 20.691406 29.460938 20.25 29.628906 C 19.808594 29.738281 19.367188 29.847656 18.898438 29.957031 C 18.425781 30.042969 17.957031 30.097656 17.488281 30.179688 C 17.019531 30.207031 16.523438 30.234375 16.054688 30.261719 C 15.558594 30.234375 15.0625 30.234375 14.59375 30.207031 C 14.125 30.125 13.65625 30.070312 13.1875 29.984375 C 12.71875 29.875 12.277344 29.765625 11.835938 29.65625 C 11.394531 29.488281 10.953125 29.324219 10.511719 29.160156 C 10.097656 28.964844 9.683594 28.773438 9.269531 28.578125 C 8.882812 28.332031 8.496094 28.109375 8.109375 27.863281 C 7.722656 27.585938 7.339844 27.308594 6.980469 27.035156 C 6.648438 26.730469 6.316406 26.425781 5.984375 26.125 C 5.683594 25.792969 5.378906 25.460938 5.074219 25.132812 C 4.800781 24.773438 4.523438 24.414062 4.25 24.027344 C 4 23.640625 3.78125 23.253906 3.53125 22.839844 C 3.339844 22.425781 3.117188 22.015625 2.925781 21.574219 C 2.757812 21.160156 2.59375 20.746094 2.425781 20.304688 C 2.316406 19.863281 2.179688 19.394531 2.070312 18.925781 C 1.984375 18.457031 1.929688 17.984375 1.847656 17.488281 C 1.820312 17.019531 1.820312 16.523438 1.792969 16.054688 Z M 3.78125 17.214844 C 3.835938 17.628906 3.890625 18.042969 3.945312 18.425781 C 4.054688 18.839844 4.136719 19.226562 4.25 19.613281 C 4.386719 20 4.523438 20.386719 4.660156 20.746094 C 4.828125 21.101562 5.019531 21.460938 5.1875 21.820312 C 5.378906 22.179688 5.601562 22.511719 5.792969 22.839844 C 6.015625 23.171875 6.234375 23.503906 6.484375 23.808594 C 6.730469 24.109375 7.007812 24.414062 7.28125 24.691406 C 7.558594 24.964844 7.863281 25.242188 8.164062 25.488281 C 8.46875 25.738281 8.773438 25.957031 9.074219 26.179688 C 9.40625 26.398438 9.738281 26.621094 10.097656 26.8125 C 10.457031 27.007812 10.8125 27.171875 11.171875 27.339844 C 11.53125 27.476562 11.917969 27.613281 12.304688 27.75 C 12.691406 27.863281 13.074219 27.945312 13.460938 28.054688 C 13.875 28.136719 14.289062 28.191406 14.703125 28.277344 C 15.117188 28.304688 15.53125 28.304688 15.945312 28.332031 C 16.359375 28.304688 16.773438 28.304688 17.1875 28.277344 C 17.601562 28.21875 18.015625 28.136719 18.425781 28.082031 C 18.8125 28 19.199219 27.890625 19.585938 27.808594 C 19.972656 27.667969 20.359375 27.53125 20.71875 27.394531 C 21.074219 27.226562 21.433594 27.0625 21.792969 26.867188 C 22.152344 26.675781 22.484375 26.484375 22.8125 26.261719 C 23.144531 26.042969 23.449219 25.792969 23.75 25.542969 C 24.054688 25.296875 24.359375 25.019531 24.632812 24.746094 C 24.910156 24.46875 25.1875 24.164062 25.433594 23.863281 C 25.683594 23.558594 25.929688 23.253906 26.152344 22.925781 C 26.371094 22.59375 26.59375 22.261719 26.785156 21.902344 C 26.953125 21.574219 27.144531 21.214844 27.308594 20.855469 C 27.449219 20.46875 27.558594 20.082031 27.695312 19.695312 C 27.808594 19.308594 27.890625 18.925781 28 18.539062 C 28.054688 18.125 28.136719 17.710938 28.191406 17.296875 C 28.21875 16.882812 28.25 16.46875 28.277344 16.054688 C 28.25 15.640625 28.25 15.226562 28.21875 14.8125 C 28.164062 14.398438 28.082031 13.984375 28.027344 13.574219 C 27.917969 13.160156 27.835938 12.773438 27.722656 12.386719 C 27.585938 12 27.476562 11.613281 27.339844 11.253906 C 27.171875 10.898438 26.980469 10.539062 26.8125 10.179688 C 26.621094 9.820312 26.425781 9.488281 26.207031 9.160156 C 25.984375 8.828125 25.738281 8.523438 25.488281 8.21875 C 25.242188 7.917969 24.964844 7.613281 24.691406 7.339844 C 24.414062 7.0625 24.136719 6.785156 23.835938 6.539062 C 23.53125 6.289062 23.226562 6.042969 22.898438 5.820312 C 22.566406 5.601562 22.234375 5.40625 21.875 5.1875 C 21.515625 5.019531 21.160156 4.828125 20.800781 4.660156 C 20.441406 4.523438 20.082031 4.386719 19.695312 4.25 C 19.308594 4.136719 18.925781 4.054688 18.511719 3.945312 C 18.097656 3.890625 17.683594 3.808594 17.269531 3.75 C 16.855469 3.722656 16.441406 3.695312 16.054688 3.667969 C 15.613281 3.695312 15.199219 3.695312 14.785156 3.722656 C 14.371094 3.78125 13.957031 3.863281 13.574219 3.917969 C 13.1875 4.027344 12.800781 4.136719 12.414062 4.25 C 12.027344 4.386719 11.640625 4.496094 11.253906 4.632812 C 10.898438 4.800781 10.539062 4.992188 10.207031 5.160156 C 9.847656 5.351562 9.488281 5.574219 9.160156 5.765625 C 8.828125 5.984375 8.523438 6.207031 8.21875 6.457031 C 7.917969 6.730469 7.613281 7.007812 7.339844 7.28125 C 7.0625 7.558594 6.8125 7.835938 6.566406 8.136719 C 6.316406 8.441406 6.070312 8.746094 5.820312 9.074219 C 5.628906 9.40625 5.40625 9.738281 5.214844 10.097656 C 5.046875 10.457031 4.855469 10.8125 4.691406 11.171875 C 4.550781 11.53125 4.414062 11.917969 4.277344 12.304688 C 4.164062 12.691406 4.082031 13.074219 3.972656 13.460938 C 3.917969 13.875 3.835938 14.289062 3.78125 14.703125 C 3.75 15.117188 3.75 15.53125 3.722656 15.972656 C 3.75 16.386719 3.75 16.800781 3.78125 17.214844 Z M 3.78125 17.214844 "/>
<path fill="none" stroke-width="1" stroke-linecap="butt" stroke-linejoin="miter" stroke="rgb(0%, 0%, 100%)" stroke-opacity="1" stroke-miterlimit="4" d="M 64.995117 581.982422 C 65.986328 563.999023 65.986328 546.015625 66.977539 529.023437 C 69.951172 512.03125 71.933594 495.039062 75.048828 479.038086 C 79.013672 462.045898 82.978516 445.053711 86.943359 428.061523 C 93.032227 412.060547 98.979492 396.05957 105.068359 381.049805 C 112.006836 366.040039 118.945312 351.030273 126.025391 336.020508 C 133.955078 321.010742 143.017578 306.992187 150.947266 292.973633 C 161.000977 278.955078 171.054687 264.936523 180.966797 252.050781 C 192.011719 240.014648 204.047852 227.978516 214.951172 215.942383 C 226.987305 205.039062 239.023437 193.994141 251.05957 182.949219 C 263.945312 173.037109 276.972656 161.992187 290.991211 151.938477 C 305.009766 144.008789 319.02832 134.946289 333.046875 127.016602 C 348.056641 119.936523 363.066406 112.006836 377.93457 105.068359 C 392.944336 98.979492 408.945312 93.032227 424.946289 86.943359 C 440.947266 82.978516 457.939453 78.022461 474.931641 74.057617 C 492.06543 70.942383 509.057617 68.959961 526.049805 65.986328 C 543.041992 64.995117 560.03418 64.003906 578.017578 63.012695 C 595.009766 64.003906 612.993164 64.995117 629.985352 65.986328 C 646.977539 67.96875 663.969727 70.942383 680.961914 73.066406 C 697.954102 77.03125 714.946289 81.987305 730.947266 85.952148 C 746.948242 92.041016 762.949219 96.99707 777.958984 102.944336 C 792.96875 110.024414 807.978516 116.962891 822.988281 124.042969 C 837.998047 132.963867 852.016602 141.035156 866.035156 149.956055 C 880.053711 160.009766 893.930664 170.063477 906.958008 179.975586 C 918.994141 191.020508 931.030273 203.056641 943.066406 213.959961 C 953.969727 225.996094 965.014648 238.032227 976.05957 250.068359 C 985.97168 262.954102 996.025391 275.981445 1005.9375 290 C 1014.008789 304.018555 1022.929687 318.037109 1031.000977 332.055664 C 1038.930664 347.06543 1046.010742 361.933594 1053.94043 376.943359 C 1060.029297 392.944336 1064.985352 408.945312 1070.932617 424.946289 C 1075.039062 440.947266 1079.995117 457.939453 1083.959961 474.931641 C 1086.933594 492.06543 1089.057617 509.057617 1092.03125 526.049805 C 1093.022461 543.041992 1094.013672 561.025391 1095.004883 579.008789 C 1094.013672 596.000977 1093.022461 613.984375 1092.03125 630.976562 C 1090.048828 647.96875 1086.933594 664.960937 1084.951172 681.953125 C 1080.986328 698.945312 1077.021484 715.9375 1073.056641 731.938477 C 1066.967773 747.939453 1061.020508 763.94043 1054.931641 779.941406 C 1047.993164 794.951172 1040.063477 809.960937 1032.983398 824.970703 C 1025.053711 839.980469 1015.991211 853.999023 1008.061523 868.017578 C 998.007812 882.036133 987.954102 895.063477 978.041992 907.949219 C 966.99707 920.976562 955.952148 933.012695 945.048828 945.048828 C 933.012695 955.952148 920.976562 966.99707 908.94043 978.041992 C 896.054687 987.954102 883.027344 998.007812 869.008789 1008.061523 C 854.990234 1016.982422 840.97168 1025.053711 826.953125 1033.974609 C 811.943359 1041.054687 796.933594 1048.984375 782.06543 1056.064453 C 766.064453 1062.011719 750.063477 1067.958984 734.0625 1074.047852 C 718.061523 1078.012695 702.060547 1081.977539 685.068359 1085.942383 C 667.93457 1089.057617 650.942383 1091.040039 633.950195 1094.013672 C 616.958008 1095.004883 598.974609 1095.996094 581.982422 1096.987305 C 563.999023 1095.996094 546.015625 1095.996094 529.023437 1095.004883 C 512.03125 1092.03125 495.039062 1090.048828 478.046875 1086.933594 C 461.054687 1082.96875 445.053711 1079.003906 429.052734 1075.039062 C 413.051758 1068.950195 397.050781 1063.00293 381.049805 1057.055664 C 366.040039 1049.975586 351.030273 1043.037109 336.020508 1035.957031 C 322.001953 1027.036133 307.983398 1018.964844 293.964844 1010.043945 C 279.946289 999.990234 266.069336 989.936523 253.041992 980.024414 C 241.005859 968.979492 228.969727 957.93457 216.933594 947.03125 C 206.030273 934.995117 194.985352 922.958984 183.94043 911.064453 C 174.02832 898.037109 163.974609 885.009766 154.0625 870.991211 C 145 856.972656 137.070312 842.954102 128.007812 827.944336 C 121.069336 812.93457 112.998047 798.066406 106.05957 782.06543 C 99.970703 767.055664 94.023437 752.045898 87.93457 736.044922 C 83.969727 720.043945 79.013672 703.051758 75.048828 686.05957 C 71.933594 669.067383 69.951172 651.933594 66.977539 633.950195 C 65.986328 616.958008 65.986328 598.974609 64.995117 581.982422 Z M 64.995117 581.982422 " transform="matrix(0.0275862, 0, 0, 0.0275862, 0, 0)"/>
<path fill="none" stroke-width="1" stroke-linecap="butt" stroke-linejoin="miter" stroke="rgb(0%, 0%, 100%)" stroke-opacity="1" stroke-miterlimit="4" d="M 137.070312 624.038086 C 139.052734 639.047852 141.035156 654.057617 143.017578 667.93457 C 146.982422 682.944336 149.956055 696.962891 154.0625 710.981445 C 159.018555 725 163.974609 739.018555 168.930664 752.045898 C 175.019531 764.931641 181.958008 777.958984 188.046875 790.986328 C 194.985352 804.013672 203.056641 816.049805 209.995117 827.944336 C 218.066406 839.980469 225.996094 852.016602 235.058594 863.061523 C 243.979492 873.964844 254.033203 885.009766 263.945312 895.063477 C 273.999023 904.975586 285.043945 915.029297 295.947266 923.950195 C 306.992187 933.012695 318.037109 940.942383 328.94043 949.013672 C 340.976562 956.943359 353.012695 965.014648 366.040039 971.953125 C 379.067383 979.033203 391.953125 984.980469 404.980469 991.069336 C 418.007812 996.025391 432.026367 1000.981445 446.044922 1005.9375 C 460.063477 1010.043945 473.94043 1013.017578 487.958984 1016.982422 C 502.96875 1019.956055 517.978516 1021.938477 532.988281 1025.053711 C 547.998047 1026.044922 563.007812 1026.044922 578.017578 1027.036133 C 593.027344 1026.044922 608.037109 1026.044922 623.046875 1025.053711 C 638.056641 1022.929687 653.066406 1019.956055 667.93457 1017.973633 C 681.953125 1015 695.97168 1011.035156 709.990234 1008.061523 C 724.008789 1002.963867 738.027344 998.007812 751.054687 993.051758 C 763.94043 986.962891 776.967773 981.015625 789.995117 973.935547 C 803.022461 966.99707 815.058594 960.058594 826.953125 951.987305 C 838.989258 944.057617 850.03418 934.995117 860.9375 925.932617 C 871.982422 917.011719 883.027344 906.958008 892.939453 897.045898 C 902.993164 886.992187 913.046875 875.947266 921.967773 865.043945 C 931.030273 853.999023 939.951172 842.954102 948.022461 831.05957 C 955.952148 819.023437 964.023437 806.987305 970.961914 793.959961 C 977.050781 782.06543 983.989258 769.038086 989.936523 756.010742 C 995.03418 741.992187 998.999023 727.973633 1003.955078 713.955078 C 1008.061523 699.936523 1011.035156 686.05957 1015 672.041016 C 1016.982422 657.03125 1019.956055 642.021484 1021.938477 627.011719 C 1022.929687 612.001953 1024.0625 596.992187 1025.053711 581.982422 C 1024.0625 566.972656 1024.0625 551.962891 1022.929687 536.953125 C 1020.947266 521.943359 1017.973633 506.933594 1015.991211 492.06543 C 1012.026367 477.055664 1009.052734 463.037109 1004.946289 449.018555 C 999.990234 435 996.025391 420.981445 991.069336 407.954102 C 984.980469 395.068359 978.041992 382.041016 971.953125 369.013672 C 965.014648 355.986328 957.93457 343.950195 950.004883 332.055664 C 941.933594 320.019531 933.012695 308.974609 923.950195 297.929687 C 915.029297 287.026367 904.975586 275.981445 895.063477 266.069336 C 885.009766 256.015625 874.956055 245.961914 864.052734 237.041016 C 853.007812 227.978516 841.962891 219.057617 830.068359 210.986328 C 818.032227 203.056641 805.996094 195.976562 792.96875 188.046875 C 779.941406 181.958008 767.055664 175.019531 754.02832 168.930664 C 741.000977 163.974609 727.973633 159.018555 713.955078 154.0625 C 699.936523 149.956055 686.05957 146.982422 671.049805 143.017578 C 656.040039 141.035156 641.030273 138.061523 626.020508 135.9375 C 611.010742 134.946289 596.000977 133.955078 581.982422 132.963867 C 565.981445 133.955078 550.97168 133.955078 535.961914 134.946289 C 520.952148 137.070312 505.942383 140.043945 492.06543 142.026367 C 478.046875 145.991211 464.02832 149.956055 450.009766 154.0625 C 435.991211 159.018555 421.972656 162.983398 407.954102 167.939453 C 395.068359 174.02832 382.041016 180.966797 370.004883 187.055664 C 356.977539 193.994141 343.950195 202.06543 332.055664 209.003906 C 320.019531 216.933594 308.974609 225.004883 297.929687 234.067383 C 287.026367 243.979492 275.981445 254.033203 266.069336 263.945312 C 256.015625 273.999023 246.953125 284.052734 238.032227 294.956055 C 228.969727 306.000977 220.048828 317.045898 210.986328 328.94043 C 204.047852 340.976562 195.976562 353.012695 189.038086 366.040039 C 182.949219 379.067383 176.010742 391.953125 170.063477 404.980469 C 164.96582 418.007812 160.009766 432.026367 155.053711 446.044922 C 150.947266 460.063477 147.973633 473.94043 144.008789 487.958984 C 142.026367 502.96875 139.052734 517.978516 137.070312 532.988281 C 135.9375 547.998047 135.9375 563.007812 134.946289 579.008789 C 135.9375 594.018555 135.9375 609.02832 137.070312 624.038086 Z M 137.070312 624.038086 " transform="matrix(0.0275862, 0, 0, 0.0275862, 0, 0)"/>
<path fill-rule="nonzero" fill="rgb(0%, 0%, 100%)" fill-opacity="1" d="M 12.605469 19.28125 C 12.605469 17.074219 12.605469 14.839844 12.605469 12.632812 C 13.269531 12.632812 13.929688 12.632812 14.621094 12.632812 C 15.007812 14.152344 15.421875 15.640625 15.835938 17.160156 C 16.21875 15.640625 16.605469 14.152344 17.019531 12.632812 C 17.683594 12.632812 18.371094 12.632812 19.035156 12.632812 C 19.035156 14.839844 19.035156 17.074219 19.035156 19.28125 C 18.621094 19.28125 18.207031 19.28125 17.792969 19.28125 C 17.792969 17.542969 17.792969 15.78125 17.792969 14.042969 C 17.351562 15.78125 16.910156 17.542969 16.46875 19.28125 C 16.027344 19.28125 15.585938 19.28125 15.171875 19.28125 C 14.730469 17.542969 14.289062 15.78125 13.847656 14.042969 C 13.847656 15.78125 13.847656 17.542969 13.847656 19.28125 Z M 12.605469 19.28125 "/>
</svg>
