<?xml version="1.0" encoding="UTF-8"?>
<svg xmlns="http://www.w3.org/2000/svg" xmlns:xlink="http://www.w3.org/1999/xlink" width="32" height="32" viewBox="0 0 32 32">
<path fill-rule="nonzero" fill="rgb(0%, 0%, 100%)" fill-opacity="1" stroke-width="1" stroke-linecap="butt" stroke-linejoin="miter" stroke="rgb(0%, 0%, 100%)" stroke-opacity="1" stroke-miterlimit="4" d="M 389.970703 318.037109 C 389.970703 533.979492 389.970703 748.930664 389.970703 965.014648 C 370.996094 965.014648 353.012695 965.014648 335.029297 965.014648 C 335.029297 748.930664 335.029297 533.979492 335.029297 318.037109 C 353.012695 318.037109 370.996094 318.037109 389.970703 318.037109 Z M 389.970703 318.037109 " transform="matrix(0.0275862, 0, 0, 0.0275862, 0, 0)"/>
<path fill-rule="nonzero" fill="rgb(0%, 0%, 100%)" fill-opacity="1" d="M 9.269531 8.746094 C 9.269531 8.605469 9.269531 8.46875 9.269531 8.359375 C 9.269531 8.21875 9.296875 8.082031 9.296875 7.945312 C 9.324219 7.808594 9.324219 7.667969 9.351562 7.558594 C 9.378906 7.421875 9.378906 7.28125 9.40625 7.171875 C 9.433594 7.035156 9.488281 6.898438 9.515625 6.785156 C 9.542969 6.648438 9.601562 6.539062 9.628906 6.425781 C 9.65625 6.289062 9.683594 6.152344 9.738281 6.042969 C 9.765625 5.929688 9.820312 5.820312 9.875 5.710938 C 9.929688 5.574219 9.984375 5.460938 10.042969 5.351562 C 10.097656 5.242188 10.152344 5.132812 10.234375 5.019531 C 10.289062 4.910156 10.34375 4.773438 10.425781 4.660156 C 10.484375 4.550781 10.539062 4.46875 10.621094 4.359375 C 10.703125 4.25 10.785156 4.164062 10.867188 4.054688 C 10.925781 3.945312 11.007812 3.863281 11.089844 3.75 C 11.171875 3.667969 11.253906 3.558594 11.339844 3.476562 C 11.421875 3.394531 11.503906 3.28125 11.613281 3.199219 C 11.695312 3.117188 11.808594 3.035156 11.917969 2.953125 C 12 2.867188 12.082031 2.757812 12.191406 2.675781 C 12.277344 2.59375 12.386719 2.539062 12.496094 2.457031 C 12.578125 2.371094 12.691406 2.316406 12.800781 2.234375 C 12.910156 2.179688 13.019531 2.097656 13.132812 2.042969 C 13.242188 1.984375 13.351562 1.902344 13.488281 1.847656 C 13.601562 1.792969 13.710938 1.710938 13.820312 1.65625 C 13.929688 1.601562 14.042969 1.574219 14.179688 1.515625 C 14.289062 1.460938 14.398438 1.40625 14.539062 1.351562 C 14.648438 1.324219 14.785156 1.269531 14.925781 1.242188 C 15.035156 1.214844 15.171875 1.1875 15.308594 1.160156 C 15.421875 1.132812 15.558594 1.074219 15.695312 1.046875 C 15.835938 1.019531 15.972656 1.019531 16.109375 0.992188 C 16.21875 0.964844 16.359375 0.964844 16.496094 0.9375 C 16.605469 0.9375 16.746094 0.910156 16.855469 0.910156 C 17.019531 0.910156 17.160156 0.910156 17.296875 0.910156 C 17.433594 0.910156 17.574219 0.910156 17.710938 0.910156 C 17.847656 0.910156 17.984375 0.910156 18.125 0.910156 C 18.261719 0.9375 18.398438 0.964844 18.511719 0.992188 C 18.648438 1.019531 18.785156 1.019531 18.898438 1.046875 C 19.035156 1.074219 19.171875 1.101562 19.308594 1.132812 C 19.449219 1.160156 19.585938 1.214844 19.695312 1.242188 C 19.835938 1.269531 19.972656 1.324219 20.082031 1.351562 C 20.21875 1.40625 20.332031 1.433594 20.441406 1.488281 C 20.578125 1.542969 20.691406 1.601562 20.800781 1.65625 C 20.910156 1.710938 21.019531 1.765625 21.132812 1.820312 C 21.269531 1.875 21.378906 1.957031 21.488281 2.015625 C 21.601562 2.097656 21.710938 2.152344 21.820312 2.234375 C 21.929688 2.289062 22.042969 2.371094 22.125 2.425781 C 22.234375 2.511719 22.34375 2.59375 22.425781 2.675781 C 22.539062 2.757812 22.621094 2.839844 22.703125 2.925781 C 22.8125 3.007812 22.925781 3.089844 23.007812 3.171875 C 23.117188 3.253906 23.199219 3.339844 23.28125 3.421875 C 23.367188 3.53125 23.449219 3.613281 23.53125 3.722656 C 23.613281 3.808594 23.667969 3.917969 23.75 4 C 23.835938 4.109375 23.917969 4.21875 24 4.332031 C 24.054688 4.441406 24.136719 4.523438 24.191406 4.632812 C 24.25 4.746094 24.332031 4.855469 24.386719 4.964844 C 24.441406 5.074219 24.523438 5.214844 24.578125 5.324219 C 24.632812 5.433594 24.691406 5.542969 24.746094 5.65625 C 24.800781 5.765625 24.855469 5.875 24.910156 6.015625 C 24.9375 6.125 24.992188 6.234375 25.019531 6.371094 C 25.046875 6.484375 25.101562 6.621094 25.132812 6.757812 C 25.160156 6.867188 25.1875 7.007812 25.214844 7.144531 C 25.242188 7.253906 25.269531 7.367188 25.296875 7.503906 C 25.324219 7.640625 25.324219 7.78125 25.351562 7.917969 C 25.351562 8.027344 25.378906 8.164062 25.378906 8.304688 C 25.378906 8.441406 25.378906 8.578125 25.378906 8.71875 C 25.378906 8.855469 25.378906 8.992188 25.378906 9.132812 C 25.378906 9.242188 25.351562 9.378906 25.351562 9.515625 C 25.324219 9.628906 25.324219 9.765625 25.296875 9.902344 C 25.269531 10.015625 25.242188 10.152344 25.214844 10.289062 C 25.1875 10.398438 25.160156 10.539062 25.132812 10.675781 C 25.101562 10.785156 25.074219 10.898438 25.046875 11.035156 C 24.992188 11.144531 24.964844 11.28125 24.910156 11.421875 C 24.855469 11.53125 24.800781 11.640625 24.746094 11.78125 C 24.691406 11.890625 24.660156 12 24.605469 12.136719 C 24.550781 12.25 24.46875 12.359375 24.414062 12.46875 C 24.359375 12.578125 24.277344 12.691406 24.21875 12.800781 C 24.164062 12.882812 24.082031 12.992188 24.027344 13.101562 C 23.945312 13.1875 23.863281 13.296875 23.78125 13.40625 C 23.695312 13.488281 23.640625 13.601562 23.558594 13.710938 C 23.476562 13.792969 23.394531 13.902344 23.28125 14.015625 C 23.199219 14.097656 23.117188 14.179688 23.007812 14.261719 C 22.925781 14.34375 22.839844 14.425781 22.730469 14.539062 C 22.648438 14.621094 22.566406 14.703125 22.457031 14.785156 C 22.34375 14.839844 22.234375 14.925781 22.125 15.007812 C 22.042969 15.0625 21.929688 15.144531 21.820312 15.226562 C 21.738281 15.28125 21.628906 15.367188 21.515625 15.449219 C 21.40625 15.503906 21.296875 15.558594 21.160156 15.613281 C 21.046875 15.667969 20.9375 15.722656 20.800781 15.808594 C 20.691406 15.835938 20.578125 15.890625 20.46875 15.945312 C 20.359375 16 20.21875 16.054688 20.082031 16.109375 C 19.972656 16.136719 19.863281 16.164062 19.722656 16.21875 C 19.613281 16.25 19.476562 16.277344 19.339844 16.304688 C 19.226562 16.332031 19.089844 16.359375 18.953125 16.386719 C 18.839844 16.414062 18.703125 16.441406 18.566406 16.441406 C 18.425781 16.46875 18.289062 16.496094 18.152344 16.496094 C 18.015625 16.523438 17.875 16.550781 17.738281 16.550781 C 17.601562 16.550781 17.460938 16.550781 17.324219 16.550781 C 17.1875 16.550781 17.046875 16.550781 16.910156 16.550781 C 16.800781 16.550781 16.660156 16.523438 16.550781 16.496094 C 16.414062 16.496094 16.277344 16.46875 16.136719 16.441406 C 16 16.441406 15.863281 16.441406 15.722656 16.414062 C 15.585938 16.386719 15.449219 16.359375 15.339844 16.304688 C 15.199219 16.277344 15.089844 16.25 14.980469 16.21875 C 14.839844 16.164062 14.703125 16.136719 14.59375 16.109375 C 14.457031 16.054688 14.34375 16 14.234375 15.972656 C 14.097656 15.917969 13.957031 15.863281 13.847656 15.808594 C 13.738281 15.75 13.628906 15.695312 13.515625 15.640625 C 13.40625 15.558594 13.296875 15.503906 13.1875 15.449219 C 13.074219 15.367188 12.964844 15.308594 12.855469 15.253906 C 12.746094 15.171875 12.632812 15.089844 12.523438 15.035156 C 12.414062 14.953125 12.304688 14.867188 12.21875 14.8125 C 12.109375 14.730469 12 14.648438 11.917969 14.566406 C 11.808594 14.457031 11.722656 14.371094 11.640625 14.289062 C 11.53125 14.207031 11.449219 14.125 11.367188 14.042969 C 11.28125 13.929688 11.199219 13.847656 11.144531 13.765625 C 11.035156 13.65625 10.953125 13.542969 10.867188 13.460938 C 10.785156 13.351562 10.703125 13.242188 10.648438 13.160156 C 10.566406 13.046875 10.511719 12.9375 10.457031 12.828125 C 10.371094 12.71875 10.316406 12.605469 10.261719 12.496094 C 10.179688 12.386719 10.125 12.277344 10.070312 12.164062 C 10.015625 12.027344 9.957031 11.917969 9.902344 11.808594 C 9.847656 11.695312 9.792969 11.585938 9.765625 11.476562 C 9.710938 11.339844 9.65625 11.199219 9.628906 11.089844 C 9.601562 10.953125 9.542969 10.839844 9.515625 10.730469 C 9.488281 10.59375 9.433594 10.457031 9.40625 10.34375 C 9.378906 10.207031 9.378906 10.070312 9.351562 9.957031 C 9.324219 9.820312 9.324219 9.683594 9.296875 9.574219 C 9.296875 9.433594 9.269531 9.296875 9.269531 9.160156 C 9.269531 9.019531 9.269531 8.882812 9.269531 8.746094 Z M 10.8125 9.046875 C 10.8125 9.132812 10.8125 9.242188 10.839844 9.351562 C 10.839844 9.460938 10.839844 9.574219 10.867188 9.683594 C 10.867188 9.765625 10.898438 9.875 10.925781 9.984375 C 10.953125 10.070312 10.980469 10.179688 11.007812 10.289062 C 11.035156 10.371094 11.0625 10.484375 11.089844 10.59375 C 11.117188 10.675781 11.144531 10.757812 11.171875 10.867188 C 11.199219 10.953125 11.253906 11.0625 11.308594 11.171875 C 11.339844 11.253906 11.394531 11.339844 11.449219 11.449219 C 11.476562 11.53125 11.53125 11.613281 11.585938 11.722656 C 11.640625 11.808594 11.695312 11.890625 11.75 11.972656 C 11.808594 12.054688 11.863281 12.136719 11.917969 12.21875 C 11.972656 12.304688 12.027344 12.386719 12.082031 12.496094 C 12.136719 12.550781 12.191406 12.632812 12.277344 12.71875 C 12.332031 12.773438 12.414062 12.855469 12.496094 12.9375 C 12.550781 12.992188 12.605469 13.074219 12.691406 13.160156 C 12.773438 13.214844 12.855469 13.296875 12.9375 13.378906 C 12.992188 13.433594 13.074219 13.488281 13.160156 13.574219 C 13.242188 13.628906 13.324219 13.683594 13.40625 13.765625 C 13.488281 13.820312 13.574219 13.875 13.65625 13.957031 C 13.738281 14.015625 13.820312 14.070312 13.929688 14.125 C 14.015625 14.152344 14.097656 14.207031 14.207031 14.261719 C 14.289062 14.289062 14.371094 14.34375 14.484375 14.398438 C 14.566406 14.425781 14.675781 14.484375 14.785156 14.539062 C 14.867188 14.566406 14.953125 14.59375 15.0625 14.648438 C 15.144531 14.675781 15.253906 14.703125 15.367188 14.730469 C 15.476562 14.757812 15.585938 14.785156 15.695312 14.839844 C 15.78125 14.839844 15.890625 14.867188 16 14.898438 C 16.082031 14.898438 16.191406 14.925781 16.304688 14.953125 C 16.414062 14.953125 16.523438 14.980469 16.632812 15.007812 C 16.746094 15.007812 16.855469 15.007812 16.964844 15.007812 C 17.074219 15.007812 17.1875 15.007812 17.296875 15.007812 C 17.40625 15.007812 17.515625 15.007812 17.628906 15.007812 C 17.738281 15.007812 17.847656 15.007812 17.957031 15.007812 C 18.070312 14.980469 18.179688 14.953125 18.289062 14.953125 C 18.398438 14.925781 18.511719 14.898438 18.621094 14.898438 C 18.730469 14.867188 18.839844 14.839844 18.925781 14.839844 C 19.035156 14.785156 19.144531 14.757812 19.226562 14.730469 C 19.339844 14.703125 19.449219 14.675781 19.53125 14.648438 C 19.640625 14.59375 19.75 14.566406 19.835938 14.539062 C 19.945312 14.484375 20.054688 14.425781 20.136719 14.398438 C 20.25 14.34375 20.332031 14.289062 20.414062 14.261719 C 20.523438 14.207031 20.605469 14.152344 20.691406 14.125 C 20.800781 14.070312 20.882812 14.015625 20.964844 13.957031 C 21.046875 13.902344 21.132812 13.847656 21.214844 13.792969 C 21.296875 13.710938 21.378906 13.65625 21.460938 13.601562 C 21.542969 13.515625 21.628906 13.433594 21.683594 13.378906 C 21.765625 13.296875 21.847656 13.242188 21.929688 13.1875 C 22.015625 13.101562 22.070312 13.019531 22.125 12.964844 C 22.207031 12.882812 22.289062 12.800781 22.34375 12.746094 C 22.425781 12.660156 22.484375 12.578125 22.539062 12.496094 C 22.59375 12.414062 22.648438 12.332031 22.703125 12.25 C 22.785156 12.164062 22.839844 12.082031 22.898438 12 C 22.953125 11.917969 23.007812 11.835938 23.035156 11.75 C 23.089844 11.640625 23.144531 11.558594 23.199219 11.476562 C 23.253906 11.367188 23.28125 11.253906 23.308594 11.171875 C 23.367188 11.0625 23.421875 10.980469 23.449219 10.898438 C 23.503906 10.785156 23.53125 10.675781 23.558594 10.59375 C 23.585938 10.484375 23.613281 10.398438 23.613281 10.316406 C 23.667969 10.207031 23.695312 10.097656 23.722656 10.015625 C 23.722656 9.902344 23.75 9.792969 23.75 9.710938 C 23.78125 9.601562 23.78125 9.488281 23.808594 9.40625 C 23.808594 9.296875 23.835938 9.1875 23.835938 9.074219 C 23.835938 8.964844 23.835938 8.855469 23.835938 8.746094 C 23.835938 8.632812 23.835938 8.523438 23.835938 8.441406 C 23.835938 8.332031 23.808594 8.21875 23.808594 8.109375 C 23.78125 8 23.78125 7.890625 23.75 7.808594 C 23.75 7.695312 23.722656 7.585938 23.722656 7.503906 C 23.695312 7.394531 23.667969 7.28125 23.640625 7.199219 C 23.613281 7.089844 23.585938 6.980469 23.558594 6.898438 C 23.53125 6.785156 23.503906 6.703125 23.449219 6.621094 C 23.421875 6.511719 23.394531 6.398438 23.339844 6.316406 C 23.308594 6.207031 23.253906 6.125 23.199219 6.042969 C 23.171875 5.929688 23.117188 5.847656 23.0625 5.765625 C 23.007812 5.65625 22.953125 5.574219 22.898438 5.488281 C 22.839844 5.40625 22.785156 5.324219 22.730469 5.242188 C 22.675781 5.160156 22.621094 5.101562 22.566406 5.019531 C 22.511719 4.9375 22.457031 4.828125 22.371094 4.746094 C 22.316406 4.660156 22.234375 4.605469 22.152344 4.523438 C 22.097656 4.441406 22.042969 4.386719 21.957031 4.304688 C 21.875 4.25 21.792969 4.164062 21.710938 4.109375 C 21.65625 4.027344 21.574219 3.972656 21.488281 3.890625 C 21.40625 3.835938 21.324219 3.75 21.242188 3.695312 C 21.160156 3.640625 21.074219 3.585938 20.964844 3.53125 C 20.882812 3.476562 20.800781 3.421875 20.71875 3.367188 C 20.632812 3.308594 20.550781 3.28125 20.441406 3.226562 C 20.359375 3.171875 20.277344 3.144531 20.164062 3.089844 C 20.082031 3.035156 20 3.007812 19.890625 2.953125 C 19.808594 2.898438 19.695312 2.867188 19.585938 2.8125 C 19.503906 2.785156 19.394531 2.757812 19.28125 2.730469 C 19.199219 2.703125 19.089844 2.675781 18.980469 2.648438 C 18.867188 2.621094 18.757812 2.59375 18.648438 2.566406 C 18.539062 2.539062 18.425781 2.539062 18.316406 2.511719 C 18.234375 2.511719 18.125 2.484375 18.015625 2.484375 C 17.902344 2.484375 17.792969 2.457031 17.65625 2.457031 C 17.542969 2.457031 17.433594 2.425781 17.324219 2.425781 C 17.214844 2.425781 17.101562 2.457031 16.992188 2.457031 C 16.882812 2.457031 16.773438 2.484375 16.660156 2.484375 C 16.578125 2.484375 16.46875 2.511719 16.359375 2.511719 C 16.25 2.539062 16.136719 2.539062 16.027344 2.566406 C 15.917969 2.59375 15.808594 2.621094 15.722656 2.648438 C 15.613281 2.675781 15.503906 2.703125 15.421875 2.730469 C 15.308594 2.757812 15.199219 2.785156 15.117188 2.8125 C 15.007812 2.867188 14.898438 2.898438 14.8125 2.953125 C 14.703125 2.980469 14.59375 3.035156 14.511719 3.0625 C 14.398438 3.117188 14.316406 3.144531 14.234375 3.199219 C 14.125 3.253906 14.042969 3.28125 13.957031 3.339844 C 13.847656 3.394531 13.765625 3.476562 13.683594 3.53125 C 13.601562 3.585938 13.515625 3.640625 13.433594 3.695312 C 13.351562 3.75 13.269531 3.808594 13.1875 3.863281 C 13.101562 3.945312 13.019531 4 12.9375 4.082031 C 12.855469 4.136719 12.773438 4.21875 12.71875 4.277344 C 12.632812 4.359375 12.550781 4.414062 12.496094 4.496094 C 12.414062 4.578125 12.359375 4.632812 12.304688 4.71875 C 12.21875 4.800781 12.164062 4.882812 12.109375 4.964844 C 12.027344 5.046875 11.972656 5.132812 11.917969 5.214844 C 11.863281 5.296875 11.808594 5.378906 11.75 5.460938 C 11.695312 5.542969 11.640625 5.628906 11.613281 5.738281 C 11.558594 5.820312 11.503906 5.902344 11.476562 6.015625 C 11.421875 6.097656 11.367188 6.179688 11.308594 6.289062 C 11.253906 6.371094 11.226562 6.457031 11.199219 6.566406 C 11.171875 6.648438 11.144531 6.730469 11.117188 6.839844 C 11.089844 6.925781 11.0625 7.035156 11.035156 7.144531 C 11.007812 7.226562 10.980469 7.339844 10.953125 7.449219 C 10.925781 7.558594 10.898438 7.667969 10.867188 7.78125 C 10.839844 7.863281 10.839844 7.972656 10.839844 8.082031 C 10.8125 8.164062 10.8125 8.277344 10.8125 8.386719 C 10.8125 8.496094 10.8125 8.605469 10.8125 8.71875 C 10.8125 8.828125 10.8125 8.9375 10.8125 9.046875 Z M 10.8125 9.046875 "/>
<path fill="none" stroke-width="1" stroke-linecap="butt" stroke-linejoin="miter" stroke="rgb(0%, 0%, 100%)" stroke-opacity="1" stroke-miterlimit="4" d="M 336.020508 317.045898 C 336.020508 311.948242 336.020508 306.992187 336.020508 303.027344 C 336.020508 297.929687 337.011719 292.973633 337.011719 288.017578 C 338.00293 283.061523 338.00293 277.963867 338.994141 273.999023 C 339.985352 269.042969 339.985352 263.945312 340.976562 259.980469 C 341.967773 255.024414 343.950195 250.068359 344.941406 245.961914 C 345.932617 241.005859 348.056641 237.041016 349.047852 232.93457 C 350.039062 227.978516 351.030273 223.022461 353.012695 219.057617 C 354.003906 214.951172 355.986328 210.986328 357.96875 207.021484 C 359.951172 202.06543 361.933594 197.958984 364.057617 193.994141 C 366.040039 190.029297 368.022461 186.064453 370.996094 181.958008 C 372.978516 177.993164 374.960937 173.037109 377.93457 168.930664 C 380.058594 164.96582 382.041016 161.992187 385.014648 158.027344 C 387.988281 154.0625 390.961914 150.947266 393.935547 146.982422 C 396.05957 143.017578 399.033203 140.043945 402.006836 135.9375 C 404.980469 132.963867 407.954102 128.999023 411.069336 126.025391 C 414.042969 123.051758 417.016602 118.945312 420.981445 115.97168 C 423.955078 112.998047 428.061523 110.024414 432.026367 107.050781 C 435 103.935547 437.973633 99.970703 441.938477 96.99707 C 445.053711 94.023437 449.018555 92.041016 452.983398 89.067383 C 455.957031 85.952148 460.063477 83.969727 464.02832 80.996094 C 467.993164 79.013672 471.958008 76.040039 476.064453 74.057617 C 480.029297 71.933594 483.994141 68.959961 488.950195 66.977539 C 493.056641 64.995117 497.021484 62.021484 500.986328 60.039062 C 504.951172 58.056641 509.057617 57.06543 514.013672 54.941406 C 517.978516 52.958984 521.943359 50.976562 527.041016 48.994141 C 531.005859 48.00293 535.961914 46.020508 541.05957 45.029297 C 545.024414 44.038086 549.980469 43.046875 554.936523 42.055664 C 559.042969 41.064453 563.999023 38.94043 568.955078 37.949219 C 574.052734 36.958008 579.008789 36.958008 583.964844 35.966797 C 587.929687 34.975586 593.027344 34.975586 597.983398 33.984375 C 601.948242 33.984375 607.045898 32.993164 611.010742 32.993164 C 616.958008 32.993164 622.055664 32.993164 627.011719 32.993164 C 631.967773 32.993164 637.06543 32.993164 642.021484 32.993164 C 646.977539 32.993164 651.933594 32.993164 657.03125 32.993164 C 661.987305 33.984375 666.943359 34.975586 671.049805 35.966797 C 676.005859 36.958008 680.961914 36.958008 685.068359 37.949219 C 690.024414 38.94043 694.980469 39.931641 699.936523 41.064453 C 705.03418 42.055664 709.990234 44.038086 713.955078 45.029297 C 719.052734 46.020508 724.008789 48.00293 727.973633 48.994141 C 732.929687 50.976562 737.036133 51.967773 741.000977 53.950195 C 745.957031 55.932617 750.063477 58.056641 754.02832 60.039062 C 757.993164 62.021484 761.958008 64.003906 766.064453 65.986328 C 771.020508 67.96875 774.985352 70.942383 778.950195 73.066406 C 783.056641 76.040039 787.021484 78.022461 790.986328 80.996094 C 794.951172 82.978516 799.057617 85.952148 802.03125 87.93457 C 805.996094 91.049805 809.960937 94.023437 812.93457 96.99707 C 817.041016 99.970703 820.014648 102.944336 822.988281 106.05957 C 826.953125 109.033203 831.05957 112.006836 834.033203 114.980469 C 837.998047 117.954102 840.97168 121.069336 843.945312 124.042969 C 847.060547 128.007812 850.03418 130.981445 853.007812 134.946289 C 855.981445 138.061523 857.963867 142.026367 860.9375 145 C 864.052734 148.964844 867.026367 152.929687 870 157.036133 C 871.982422 161.000977 874.956055 163.974609 876.938477 167.939453 C 879.0625 172.045898 882.036133 176.010742 884.018555 179.975586 C 886.000977 183.94043 888.974609 189.038086 890.957031 193.00293 C 892.939453 196.967773 895.063477 200.932617 897.045898 205.039062 C 899.02832 209.003906 901.010742 212.96875 902.993164 218.066406 C 903.984375 222.03125 905.966797 225.996094 906.958008 230.952148 C 907.949219 235.058594 909.931641 240.014648 911.064453 244.970703 C 912.055664 248.935547 913.046875 254.033203 914.038086 258.989258 C 915.029297 262.954102 916.020508 267.060547 917.011719 272.016602 C 918.00293 276.972656 918.00293 282.070312 918.994141 287.026367 C 918.994141 290.991211 919.985352 295.947266 919.985352 301.044922 C 919.985352 306.000977 919.985352 310.957031 919.985352 316.054687 C 919.985352 321.010742 919.985352 325.966797 919.985352 331.064453 C 919.985352 335.029297 918.994141 339.985352 918.994141 344.941406 C 918.00293 349.047852 918.00293 354.003906 917.011719 358.959961 C 916.020508 363.066406 915.029297 368.022461 914.038086 372.978516 C 913.046875 376.943359 912.055664 382.041016 911.064453 386.99707 C 909.931641 390.961914 908.94043 395.068359 907.949219 400.024414 C 905.966797 403.989258 904.975586 408.945312 902.993164 414.042969 C 901.010742 418.007812 899.02832 421.972656 897.045898 427.070312 C 895.063477 431.035156 893.930664 435 891.948242 439.956055 C 889.96582 444.0625 886.992187 448.027344 885.009766 451.992187 C 883.027344 455.957031 880.053711 460.063477 877.929687 464.02832 C 875.947266 467.001953 872.973633 470.966797 870.991211 474.931641 C 868.017578 478.046875 865.043945 482.011719 862.070312 485.976562 C 858.955078 488.950195 856.972656 493.056641 853.999023 497.021484 C 851.025391 499.995117 848.051758 503.959961 843.945312 508.066406 C 840.97168 511.040039 837.998047 514.013672 834.033203 516.987305 C 831.05957 519.960937 827.944336 522.93457 823.979492 527.041016 C 821.005859 530.014648 818.032227 532.988281 814.067383 535.961914 C 809.960937 537.944336 805.996094 541.05957 802.03125 544.033203 C 799.057617 546.015625 794.951172 548.989258 790.986328 551.962891 C 788.012695 553.945312 784.047852 557.060547 779.941406 560.03418 C 775.976562 562.016602 772.011719 563.999023 767.055664 565.981445 C 762.949219 567.963867 758.984375 569.946289 754.02832 573.061523 C 750.063477 574.052734 745.957031 576.035156 741.992187 578.017578 C 738.027344 580 732.929687 581.982422 727.973633 583.964844 C 724.008789 584.956055 720.043945 585.947266 714.946289 587.929687 C 710.981445 589.0625 706.025391 590.053711 701.069336 591.044922 C 696.962891 592.036133 692.006836 593.027344 687.050781 594.018555 C 682.944336 595.009766 677.988281 596.000977 673.032227 596.000977 C 667.93457 596.992187 662.978516 597.983398 658.022461 597.983398 C 653.066406 598.974609 647.96875 599.96582 643.012695 599.96582 C 638.056641 599.96582 632.958984 599.96582 628.00293 599.96582 C 623.046875 599.96582 617.949219 599.96582 612.993164 599.96582 C 609.02832 599.96582 603.930664 598.974609 599.96582 597.983398 C 595.009766 597.983398 590.053711 596.992187 584.956055 596.000977 C 580 596.000977 575.043945 596.000977 569.946289 595.009766 C 564.990234 594.018555 560.03418 593.027344 556.069336 591.044922 C 550.97168 590.053711 547.006836 589.0625 543.041992 587.929687 C 537.944336 585.947266 532.988281 584.956055 529.023437 583.964844 C 524.067383 581.982422 519.960937 580 515.996094 579.008789 C 511.040039 577.026367 505.942383 575.043945 501.977539 573.061523 C 498.012695 570.9375 494.047852 568.955078 489.941406 566.972656 C 485.976562 563.999023 482.011719 562.016602 478.046875 560.03418 C 473.94043 557.060547 469.975586 554.936523 466.010742 552.954102 C 462.045898 549.980469 457.939453 547.006836 453.974609 545.024414 C 450.009766 542.050781 446.044922 538.935547 442.929687 536.953125 C 438.964844 533.979492 435 531.005859 432.026367 528.032227 C 428.061523 524.067383 424.946289 520.952148 421.972656 517.978516 C 418.007812 515.004883 415.03418 512.03125 412.060547 509.057617 C 408.945312 504.951172 405.97168 501.977539 403.989258 499.003906 C 400.024414 495.039062 397.050781 490.932617 393.935547 487.958984 C 390.961914 483.994141 387.988281 480.029297 386.005859 477.055664 C 383.032227 472.949219 381.049805 468.984375 379.067383 465.019531 C 375.952148 461.054687 373.969727 456.948242 371.987305 452.983398 C 369.013672 449.018555 367.03125 445.053711 365.048828 440.947266 C 363.066406 435.991211 360.942383 432.026367 358.959961 428.061523 C 356.977539 423.955078 354.995117 419.990234 354.003906 416.025391 C 352.021484 411.069336 350.039062 405.97168 349.047852 402.006836 C 348.056641 397.050781 345.932617 392.944336 344.941406 388.979492 C 343.950195 384.023437 341.967773 379.067383 340.976562 374.960937 C 339.985352 370.004883 339.985352 365.048828 338.994141 360.942383 C 338.00293 355.986328 338.00293 351.030273 337.011719 347.06543 C 337.011719 341.967773 336.020508 337.011719 336.020508 332.055664 C 336.020508 326.958008 336.020508 322.001953 336.020508 317.045898 Z M 336.020508 317.045898 " transform="matrix(0.0275862, 0, 0, 0.0275862, 0, 0)"/>
<path fill="none" stroke-width="1" stroke-linecap="butt" stroke-linejoin="miter" stroke="rgb(0%, 0%, 100%)" stroke-opacity="1" stroke-miterlimit="4" d="M 391.953125 327.949219 C 391.953125 331.064453 391.953125 335.029297 392.944336 338.994141 C 392.944336 342.958984 392.944336 347.06543 393.935547 351.030273 C 393.935547 354.003906 395.068359 357.96875 396.05957 361.933594 C 397.050781 365.048828 398.041992 369.013672 399.033203 372.978516 C 400.024414 375.952148 401.015625 380.058594 402.006836 384.023437 C 402.998047 386.99707 403.989258 389.970703 404.980469 393.935547 C 405.97168 397.050781 407.954102 401.015625 409.936523 404.980469 C 411.069336 407.954102 413.051758 411.069336 415.03418 415.03418 C 416.025391 418.007812 418.007812 420.981445 419.990234 424.946289 C 421.972656 428.061523 423.955078 431.035156 425.9375 434.008789 C 428.061523 436.982422 430.043945 439.956055 432.026367 442.929687 C 434.008789 446.044922 435.991211 449.018555 437.973633 452.983398 C 439.956055 454.96582 441.938477 457.939453 445.053711 461.054687 C 447.036133 463.037109 450.009766 466.010742 452.983398 468.984375 C 454.96582 470.966797 456.948242 473.94043 460.063477 477.055664 C 463.037109 479.038086 466.010742 482.011719 468.984375 484.985352 C 470.966797 486.967773 473.94043 488.950195 477.055664 492.06543 C 480.029297 494.047852 483.00293 496.030273 485.976562 499.003906 C 488.950195 500.986328 492.06543 502.96875 495.039062 505.942383 C 498.012695 508.066406 500.986328 510.048828 504.951172 512.03125 C 508.066406 513.022461 511.040039 515.004883 515.004883 516.987305 C 517.978516 517.978516 520.952148 519.960937 525.058594 521.943359 C 528.032227 522.93457 531.99707 525.058594 535.961914 527.041016 C 538.935547 528.032227 542.050781 529.023437 546.015625 531.005859 C 548.989258 531.99707 552.954102 532.988281 557.060547 533.979492 C 561.025391 534.970703 564.990234 535.961914 568.955078 537.944336 C 572.070312 537.944336 576.035156 538.935547 580 540.068359 C 582.973633 540.068359 586.938477 541.05957 591.044922 542.050781 C 595.009766 542.050781 598.974609 543.041992 602.939453 544.033203 C 607.045898 544.033203 611.010742 544.033203 614.975586 544.033203 C 618.94043 544.033203 623.046875 544.033203 627.011719 544.033203 C 630.976562 544.033203 634.941406 544.033203 639.047852 544.033203 C 643.012695 544.033203 646.977539 544.033203 650.942383 544.033203 C 655.048828 543.041992 659.013672 542.050781 662.978516 542.050781 C 666.943359 541.05957 671.049805 540.068359 675.014648 540.068359 C 678.979492 538.935547 682.944336 537.944336 686.05957 537.944336 C 690.024414 535.961914 693.989258 534.970703 696.962891 533.979492 C 701.069336 532.988281 705.03418 531.99707 708.007812 531.005859 C 711.972656 529.023437 715.9375 528.032227 719.052734 527.041016 C 723.017578 525.058594 726.982422 522.93457 729.956055 521.943359 C 734.0625 519.960937 737.036133 517.978516 740.009766 516.987305 C 743.974609 515.004883 746.948242 513.022461 750.063477 512.03125 C 754.02832 510.048828 757.001953 508.066406 759.975586 505.942383 C 762.949219 503.959961 766.064453 501.977539 769.038086 499.995117 C 772.011719 497.021484 774.985352 495.039062 777.958984 493.056641 C 780.932617 489.941406 784.047852 486.967773 786.030273 484.985352 C 789.003906 482.011719 791.977539 480.029297 794.951172 478.046875 C 798.066406 474.931641 800.048828 471.958008 802.03125 469.975586 C 805.004883 467.001953 807.978516 464.02832 809.960937 462.045898 C 812.93457 458.930664 815.058594 455.957031 817.041016 452.983398 C 819.023437 450.009766 821.005859 447.036133 822.988281 444.0625 C 825.961914 440.947266 827.944336 437.973633 830.068359 435 C 832.050781 432.026367 834.033203 429.052734 835.024414 425.9375 C 837.006836 421.972656 838.989258 418.999023 840.97168 416.025391 C 842.954102 412.060547 843.945312 407.954102 844.936523 404.980469 C 847.060547 401.015625 849.042969 398.041992 850.03418 395.068359 C 852.016602 390.961914 853.007812 386.99707 853.999023 384.023437 C 854.990234 380.058594 855.981445 376.943359 855.981445 373.969727 C 857.963867 370.004883 858.955078 366.040039 859.946289 363.066406 C 859.946289 358.959961 860.9375 354.995117 860.9375 352.021484 C 862.070312 348.056641 862.070312 343.950195 863.061523 340.976562 C 863.061523 337.011719 864.052734 333.046875 864.052734 328.94043 C 864.052734 324.975586 864.052734 321.010742 864.052734 317.045898 C 864.052734 312.939453 864.052734 308.974609 864.052734 306.000977 C 864.052734 302.036133 863.061523 297.929687 863.061523 293.964844 C 862.070312 290 862.070312 286.035156 860.9375 283.061523 C 860.9375 278.955078 859.946289 274.990234 859.946289 272.016602 C 858.955078 268.051758 857.963867 263.945312 856.972656 260.97168 C 855.981445 257.006836 854.990234 253.041992 853.999023 250.068359 C 853.007812 245.961914 852.016602 242.988281 850.03418 240.014648 C 849.042969 236.049805 848.051758 231.943359 846.069336 228.969727 C 844.936523 225.004883 842.954102 222.03125 840.97168 219.057617 C 839.980469 214.951172 837.998047 211.977539 836.015625 209.003906 C 834.033203 205.039062 832.050781 202.06543 830.068359 198.950195 C 827.944336 195.976562 825.961914 193.00293 823.979492 190.029297 C 821.99707 187.055664 820.014648 184.931641 818.032227 181.958008 C 816.049805 178.984375 814.067383 175.019531 810.952148 172.045898 C 808.969727 168.930664 805.996094 166.948242 803.022461 163.974609 C 801.040039 161.000977 799.057617 159.018555 795.942383 156.044922 C 792.96875 154.0625 789.995117 150.947266 787.021484 148.964844 C 785.039062 145.991211 782.06543 144.008789 778.950195 141.035156 C 775.976562 139.052734 773.00293 135.9375 770.029297 133.955078 C 767.055664 131.972656 763.94043 129.990234 759.975586 128.007812 C 757.001953 126.025391 754.02832 124.042969 751.054687 122.060547 C 747.939453 119.936523 744.96582 118.945312 741.000977 116.962891 C 738.027344 114.980469 735.053711 113.989258 730.947266 112.006836 C 727.973633 110.024414 725 109.033203 721.035156 107.050781 C 718.061523 105.068359 713.955078 103.935547 709.990234 101.953125 C 707.016602 100.961914 703.051758 99.970703 698.945312 98.979492 C 695.97168 97.988281 692.006836 96.99707 688.041992 96.005859 C 683.935547 95.014648 679.970703 94.023437 676.005859 93.032227 C 672.041016 92.041016 667.93457 92.041016 663.969727 91.049805 C 660.996094 91.049805 657.03125 90.058594 653.066406 90.058594 C 648.959961 90.058594 644.995117 89.067383 640.039062 89.067383 C 635.932617 89.067383 631.967773 87.93457 628.00293 87.93457 C 624.038086 87.93457 619.931641 89.067383 615.966797 89.067383 C 612.001953 89.067383 608.037109 90.058594 603.930664 90.058594 C 600.957031 90.058594 596.992187 91.049805 593.027344 91.049805 C 589.0625 92.041016 584.956055 92.041016 580.991211 93.032227 C 577.026367 94.023437 573.061523 95.014648 569.946289 96.005859 C 565.981445 96.99707 562.016602 97.988281 559.042969 98.979492 C 554.936523 99.970703 550.97168 100.961914 547.998047 101.953125 C 544.033203 103.935547 540.068359 105.068359 536.953125 107.050781 C 532.988281 108.041992 529.023437 110.024414 526.049805 111.015625 C 521.943359 112.998047 518.969727 113.989258 515.996094 115.97168 C 512.03125 117.954102 509.057617 118.945312 505.942383 121.069336 C 501.977539 123.051758 499.003906 126.025391 496.030273 128.007812 C 493.056641 129.990234 489.941406 131.972656 486.967773 133.955078 C 483.994141 135.9375 481.020508 138.061523 478.046875 140.043945 C 474.931641 143.017578 471.958008 145 468.984375 147.973633 C 466.010742 149.956055 463.037109 152.929687 461.054687 155.053711 C 457.939453 158.027344 454.96582 160.009766 452.983398 162.983398 C 450.009766 165.957031 448.027344 167.939453 446.044922 171.054687 C 442.929687 174.02832 440.947266 177.001953 438.964844 179.975586 C 435.991211 182.949219 434.008789 186.064453 432.026367 189.038086 C 430.043945 192.011719 428.061523 194.985352 425.9375 197.958984 C 423.955078 200.932617 421.972656 204.047852 420.981445 208.012695 C 418.999023 210.986328 417.016602 213.959961 416.025391 218.066406 C 414.042969 221.040039 412.060547 224.013672 409.936523 227.978516 C 407.954102 230.952148 406.962891 234.067383 405.97168 238.032227 C 404.980469 241.005859 403.989258 243.979492 402.998047 247.944336 C 402.006836 251.05957 401.015625 255.024414 400.024414 258.989258 C 399.033203 261.962891 398.041992 266.069336 397.050781 270.03418 C 396.05957 273.999023 395.068359 277.963867 393.935547 282.070312 C 392.944336 285.043945 392.944336 289.008789 392.944336 292.973633 C 391.953125 295.947266 391.953125 300.053711 391.953125 304.018555 C 391.953125 307.983398 391.953125 311.948242 391.953125 316.054687 C 391.953125 320.019531 391.953125 323.984375 391.953125 327.949219 Z M 391.953125 327.949219 " transform="matrix(0.0275862, 0, 0, 0.0275862, 0, 0)"/>
<path fill-rule="nonzero" fill="rgb(0%, 0%, 100%)" fill-opacity="1" d="M 12 10.730469 C 12 9.433594 12 8.164062 12 6.867188 C 12.386719 6.867188 12.773438 6.867188 13.160156 6.867188 C 13.378906 7.75 13.628906 8.632812 13.847656 9.515625 C 14.097656 8.632812 14.316406 7.75 14.539062 6.867188 C 14.925781 6.867188 15.339844 6.867188 15.722656 6.867188 C 15.722656 8.164062 15.722656 9.433594 15.722656 10.730469 C 15.476562 10.730469 15.226562 10.730469 14.980469 10.730469 C 14.980469 9.710938 14.980469 8.71875 14.980469 7.695312 C 14.730469 8.71875 14.484375 9.710938 14.234375 10.730469 C 13.984375 10.730469 13.738281 10.730469 13.488281 10.730469 C 13.214844 9.710938 12.964844 8.71875 12.71875 7.695312 C 12.71875 8.71875 12.71875 9.710938 12.71875 10.730469 Z M 12 10.730469 "/>
<path fill-rule="nonzero" fill="rgb(0%, 0%, 100%)" fill-opacity="1" d="M 16.578125 10.730469 C 16.578125 9.433594 16.578125 8.164062 16.578125 6.867188 C 17.542969 6.867188 18.484375 6.867188 19.449219 6.867188 C 19.449219 7.089844 19.449219 7.308594 19.449219 7.53125 C 18.757812 7.53125 18.042969 7.53125 17.351562 7.53125 C 17.351562 7.808594 17.351562 8.109375 17.351562 8.386719 C 18.015625 8.386719 18.648438 8.386719 19.28125 8.386719 C 19.28125 8.605469 19.28125 8.828125 19.28125 9.019531 C 18.648438 9.019531 18.015625 9.019531 17.351562 9.019531 C 17.351562 9.378906 17.351562 9.738281 17.351562 10.070312 C 18.070312 10.070312 18.785156 10.070312 19.503906 10.070312 C 19.503906 10.289062 19.503906 10.511719 19.503906 10.730469 Z M 16.578125 10.730469 "/>
<path fill-rule="nonzero" fill="rgb(0%, 0%, 100%)" fill-opacity="1" d="M 19.917969 10.730469 C 19.917969 10.511719 19.917969 10.261719 19.917969 10.042969 C 20.605469 9.1875 21.269531 8.359375 21.929688 7.53125 C 21.351562 7.53125 20.746094 7.53125 20.136719 7.53125 C 20.136719 7.308594 20.136719 7.089844 20.136719 6.867188 C 21.074219 6.867188 22.015625 6.867188 22.980469 6.867188 C 22.980469 7.089844 22.980469 7.28125 22.980469 7.476562 C 22.261719 8.359375 21.574219 9.214844 20.855469 10.070312 C 21.601562 10.070312 22.316406 10.070312 23.035156 10.070312 C 23.035156 10.289062 23.035156 10.511719 23.035156 10.730469 Z M 19.917969 10.730469 "/>
<path fill-rule="nonzero" fill="rgb(0%, 0%, 100%)" fill-opacity="1" stroke-width="1" stroke-linecap="butt" stroke-linejoin="miter" stroke="rgb(0%, 0%, 100%)" stroke-opacity="1" stroke-miterlimit="4" d="M 280.9375 884.018555 C 348.056641 951.987305 415.03418 1018.964844 482.011719 1086.933594 C 467.993164 1099.960937 454.96582 1113.979492 441.938477 1127.006836 C 374.960937 1059.038086 307.983398 992.060547 241.005859 923.950195 C 254.033203 911.064453 268.051758 898.037109 280.9375 884.018555 Z M 280.9375 884.018555 " transform="matrix(0.0275862, 0, 0, 0.0275862, 0, 0)"/>
<path fill-rule="nonzero" fill="rgb(0%, 0%, 100%)" fill-opacity="1" stroke-width="1" stroke-linecap="butt" stroke-linejoin="miter" stroke="rgb(0%, 0%, 100%)" stroke-opacity="1" stroke-miterlimit="4" d="M 482.011719 924.941406 C 415.03418 993.051758 348.056641 1060.029297 280.9375 1127.998047 C 268.051758 1114.970703 254.033203 1100.952148 241.005859 1088.066406 C 307.983398 1019.956055 374.960937 952.978516 441.938477 885.009766 C 454.96582 899.02832 467.993164 912.055664 482.011719 924.941406 Z M 482.011719 924.941406 " transform="matrix(0.0275862, 0, 0, 0.0275862, 0, 0)"/>
</svg>
