<?xml version="1.0" encoding="UTF-8"?>
<svg xmlns="http://www.w3.org/2000/svg" xmlns:xlink="http://www.w3.org/1999/xlink" width="32" height="32" viewBox="0 0 32 32">
<path fill-rule="nonzero" fill="rgb(0%, 0%, 100%)" fill-opacity="1" stroke-width="1" stroke-linecap="butt" stroke-linejoin="miter" stroke="rgb(0%, 0%, 100%)" stroke-opacity="1" stroke-miterlimit="4" d="M 303.027344 860.9375 L 303.027344 833.041992 L 306.000977 819.023437 L 307.983398 805.996094 L 310.957031 792.96875 L 313.930664 778.950195 L 319.02832 767.055664 L 323.984375 755.019531 L 328.94043 741.992187 L 335.029297 730.947266 L 340.976562 720.043945 L 348.056641 708.999023 L 355.986328 697.954102 L 364.057617 688.041992 L 371.987305 676.99707 L 382.041016 667.93457 L 400.024414 649.951172 L 409.936523 642.021484 L 420.981445 633.950195 L 432.026367 628.00293 L 444.0625 621.064453 L 454.96582 614.975586 L 467.993164 609.02832 L 479.038086 603.930664 L 492.06543 599.96582 L 504.951172 596.992187 L 517.978516 593.027344 L 531.99707 591.044922 L 545.024414 589.0625 L 559.042969 587.929687 L 573.061523 586.938477 L 585.947266 587.929687 L 600.957031 589.0625 L 613.984375 591.044922 L 628.00293 593.027344 L 640.039062 596.000977 L 653.066406 599.96582 L 665.952148 603.930664 L 677.988281 608.037109 L 702.060547 619.931641 L 713.955078 627.011719 L 725 633.950195 L 735.053711 641.030273 L 745.957031 648.959961 L 755.019531 658.022461 L 764.931641 666.943359 L 773.00293 676.005859 L 782.06543 686.05957 L 789.995117 695.97168 L 798.066406 707.016602 L 805.004883 718.061523 L 810.952148 729.956055 L 817.041016 741.000977 L 822.988281 753.037109 L 827.944336 766.064453 L 832.050781 778.950195 L 836.015625 790.986328 L 838.989258 805.004883 L 841.962891 818.032227 L 842.954102 832.050781 L 843.945312 844.936523 L 843.945312 872.973633 L 841.962891 901.010742 L 838.989258 914.038086 L 837.006836 928.056641 L 832.050781 939.951172 L 827.944336 952.978516 L 823.979492 966.005859 L 818.032227 977.050781 L 811.943359 988.945312 L 805.004883 1000.981445 L 799.057617 1012.026367 L 790.986328 1022.929687 L 783.056641 1032.983398 L 774.985352 1043.037109 L 766.064453 1051.958008 L 757.001953 1062.011719 L 745.957031 1069.941406 L 736.044922 1078.012695 L 725 1085.942383 L 713.955078 1093.022461 L 703.051758 1099.960937 L 692.006836 1105.058594 L 679.970703 1110.014648 L 666.943359 1115.961914 L 655.048828 1120.068359 L 642.021484 1124.033203 L 628.994141 1126.015625 L 615.966797 1128.989258 L 601.948242 1130.97168 L 587.929687 1131.962891 L 547.006836 1131.962891 L 532.988281 1129.980469 L 519.960937 1127.006836 L 505.942383 1124.033203 L 494.047852 1121.05957 L 481.020508 1115.961914 L 467.993164 1111.005859 L 456.948242 1106.049805 L 445.053711 1099.960937 L 434.008789 1094.013672 L 422.963867 1086.933594 L 412.060547 1079.003906 L 402.006836 1070.932617 L 391.953125 1062.011719 L 383.032227 1052.949219 L 372.978516 1044.02832 L 365.048828 1033.974609 L 356.977539 1024.0625 L 349.047852 1013.017578 L 341.967773 1002.963867 L 335.029297 991.069336 L 328.94043 979.033203 L 319.02832 954.960937 L 315.063477 941.933594 L 310.957031 929.047852 L 307.983398 916.020508 L 306.000977 902.001953 L 304.018555 888.974609 L 303.027344 874.956055 Z M 368.022461 870 L 369.013672 880.053711 L 370.996094 890.957031 L 371.987305 901.010742 L 374.960937 911.064453 L 376.943359 920.976562 L 381.049805 930.039062 L 384.023437 938.959961 L 387.988281 949.013672 L 392.944336 957.93457 L 398.041992 966.005859 L 402.998047 975.068359 L 408.945312 982.006836 L 415.03418 991.069336 L 420.981445 998.007812 L 428.061523 1004.946289 L 435 1012.026367 L 441.938477 1018.964844 L 450.009766 1025.053711 L 457.939453 1030.009766 L 467.001953 1034.96582 L 474.931641 1041.054687 L 483.994141 1046.010742 L 493.056641 1049.975586 L 501.977539 1052.949219 L 511.040039 1057.055664 L 521.943359 1059.038086 L 531.99707 1062.011719 L 542.050781 1063.00293 L 551.962891 1064.985352 L 562.016602 1065.976562 L 582.973633 1065.976562 L 594.018555 1064.985352 L 603.930664 1063.994141 L 624.038086 1060.029297 L 633.950195 1057.055664 L 644.003906 1053.94043 L 653.066406 1050.966797 L 661.987305 1046.010742 L 671.049805 1041.054687 L 678.979492 1035.957031 L 687.050781 1031.000977 L 695.97168 1025.053711 L 703.051758 1018.964844 L 710.981445 1013.017578 L 725 998.999023 L 730.947266 992.060547 L 737.036133 983.989258 L 742.983398 976.05957 L 748.930664 966.99707 L 754.02832 959.067383 L 761.958008 940.942383 L 766.064453 932.021484 L 769.038086 921.967773 L 772.011719 912.055664 L 775.976562 891.948242 L 777.958984 882.036133 L 777.958984 839.980469 L 776.967773 828.935547 L 773.994141 819.023437 L 773.00293 809.960937 L 770.029297 800.048828 L 767.055664 789.995117 L 762.949219 779.941406 L 758.984375 772.011719 L 754.02832 762.949219 L 750.063477 754.02832 L 743.974609 745.957031 L 739.018555 737.036133 L 731.938477 729.956055 L 725.991211 722.026367 L 719.052734 714.946289 L 711.972656 708.007812 L 704.042969 702.060547 L 696.962891 694.980469 L 689.033203 689.033203 L 680.961914 683.935547 L 672.041016 678.979492 L 662.978516 675.014648 L 654.057617 671.049805 L 644.995117 666.943359 L 634.941406 663.969727 L 626.020508 660.996094 L 615.966797 658.022461 L 606.054687 656.040039 L 596.000977 656.040039 L 584.956055 654.057617 L 563.999023 654.057617 L 553.945312 655.048828 L 543.041992 656.040039 L 532.988281 658.022461 L 522.93457 660.996094 L 513.022461 662.978516 L 503.959961 666.943359 L 495.039062 670.058594 L 484.985352 674.023437 L 476.064453 677.988281 L 467.993164 682.944336 L 458.930664 688.041992 L 451.992187 693.989258 L 444.0625 699.936523 L 435.991211 707.016602 L 421.972656 721.035156 L 415.03418 728.964844 L 409.936523 736.044922 L 403.989258 743.974609 L 399.033203 752.045898 L 393.935547 760.966797 L 387.988281 770.029297 L 385.014648 778.950195 L 381.049805 789.003906 L 376.943359 798.066406 L 374.960937 807.978516 L 371.987305 817.041016 L 370.996094 827.944336 L 369.013672 837.998047 L 368.022461 848.051758 Z M 368.022461 870 " transform="matrix(0.0275862, 0, 0, 0.0275862, 0, 0)"/>
<path fill-rule="nonzero" fill="rgb(0%, 0%, 100%)" fill-opacity="1" stroke-width="1" stroke-linecap="butt" stroke-linejoin="miter" stroke="rgb(0%, 0%, 100%)" stroke-opacity="1" stroke-miterlimit="4" d="M 531.005859 612.993164 L 531.99707 32.001953 L 596.992187 32.001953 L 596.992187 612.993164 Z M 531.005859 612.993164 " transform="matrix(0.0275862, 0, 0, 0.0275862, 0, 0)"/>
<path fill-rule="nonzero" fill="rgb(0%, 0%, 100%)" fill-opacity="1" stroke-width="1" stroke-linecap="butt" stroke-linejoin="miter" stroke="rgb(0%, 0%, 100%)" stroke-opacity="1" stroke-miterlimit="4" d="M 536.953125 30.019531 L 741.000977 30.019531 L 741.000977 96.99707 L 536.953125 96.99707 Z M 536.953125 30.019531 " transform="matrix(0.0275862, 0, 0, 0.0275862, 0, 0)"/>
<path fill-rule="nonzero" fill="rgb(0%, 0%, 100%)" fill-opacity="1" stroke-width="1" stroke-linecap="butt" stroke-linejoin="miter" stroke="rgb(0%, 0%, 100%)" stroke-opacity="1" stroke-miterlimit="4" d="M 536.953125 165.957031 L 741.000977 165.957031 L 741.000977 232.93457 L 536.953125 232.93457 Z M 536.953125 165.957031 " transform="matrix(0.0275862, 0, 0, 0.0275862, 0, 0)"/>
</svg>
