<?xml version="1.0" encoding="UTF-8"?>
<svg xmlns="http://www.w3.org/2000/svg" xmlns:xlink="http://www.w3.org/1999/xlink" width="32" height="32" viewBox="0 0 32 32">
<path fill-rule="nonzero" fill="rgb(0%, 0%, 100%)" fill-opacity="1" stroke-width="1" stroke-linecap="butt" stroke-linejoin="miter" stroke="rgb(0%, 0%, 100%)" stroke-opacity="1" stroke-miterlimit="4" d="M 865.043945 547.006836 L 248.935547 547.006836 L 248.935547 499.995117 L 865.043945 499.995117 Z M 865.043945 547.006836 " transform="matrix(0.0275862, 0, 0, 0.0275862, 0, 0)"/>
<path fill-rule="nonzero" fill="rgb(0%, 0%, 100%)" fill-opacity="1" stroke-width="1" stroke-linecap="butt" stroke-linejoin="miter" stroke="rgb(0%, 0%, 100%)" stroke-opacity="1" stroke-miterlimit="4" d="M 208.012695 33.984375 L 903.984375 33.984375 L 903.984375 1088.066406 L 208.012695 1088.066406 Z M 290 1046.010742 L 248.935547 1004.946289 L 863.061523 1004.946289 L 821.005859 1046.010742 L 821.005859 76.040039 L 863.061523 116.962891 L 248.935547 116.962891 L 290 76.040039 Z M 290 1046.010742 " transform="matrix(0.0275862, 0, 0, 0.0275862, 0, 0)"/>
<path fill-rule="nonzero" fill="rgb(0%, 0%, 100%)" fill-opacity="1" stroke-width="1" stroke-linecap="butt" stroke-linejoin="miter" stroke="rgb(0%, 0%, 100%)" stroke-opacity="1" stroke-miterlimit="4" d="M 529.023437 76.040039 L 529.023437 1048.984375 L 483.00293 1048.984375 L 483.00293 76.040039 Z M 529.023437 76.040039 " transform="matrix(0.0275862, 0, 0, 0.0275862, 0, 0)"/>
<path fill-rule="nonzero" fill="rgb(0%, 0%, 100%)" fill-opacity="1" stroke-width="1" stroke-linecap="butt" stroke-linejoin="miter" stroke="rgb(0%, 0%, 100%)" stroke-opacity="1" stroke-miterlimit="4" d="M 853.999023 640.039062 L 238.032227 640.039062 L 238.032227 593.027344 L 853.999023 593.027344 Z M 853.999023 640.039062 " transform="matrix(0.0275862, 0, 0, 0.0275862, 0, 0)"/>
<path fill-rule="nonzero" fill="rgb(0%, 0%, 100%)" fill-opacity="1" stroke-width="1" stroke-linecap="butt" stroke-linejoin="miter" stroke="rgb(0%, 0%, 100%)" stroke-opacity="1" stroke-miterlimit="4" d="M 628.994141 76.040039 L 628.994141 1048.984375 L 581.982422 1048.984375 L 581.982422 76.040039 Z M 628.994141 76.040039 " transform="matrix(0.0275862, 0, 0, 0.0275862, 0, 0)"/>
</svg>
