<?xml version="1.0" encoding="UTF-8"?>
<svg xmlns="http://www.w3.org/2000/svg" xmlns:xlink="http://www.w3.org/1999/xlink" width="32" height="32" viewBox="0 0 32 32">
<path fill-rule="nonzero" fill="rgb(0%, 0%, 100%)" fill-opacity="1" d="M 16.546875 8.476562 C 15.207031 8.476562 14.105469 8.628906 13.242188 8.941406 C 12.378906 9.253906 11.734375 9.71875 11.3125 10.339844 C 10.890625 10.960938 10.679688 11.742188 10.679688 12.679688 C 10.679688 13.46875 10.839844 14.125 11.15625 14.648438 C 11.472656 15.171875 11.875 15.589844 12.363281 15.902344 C 12.851562 16.210938 13.367188 16.457031 13.90625 16.636719 L 9.488281 23.265625 L 11.855469 23.265625 L 15.757812 17.15625 L 18.960938 17.15625 L 18.960938 23.265625 L 20.992188 23.265625 L 20.992188 8.476562 Z M 16.660156 10.089844 L 18.960938 10.089844 L 18.960938 15.582031 L 16.546875 15.582031 C 15.238281 15.582031 14.285156 15.34375 13.683594 14.867188 C 13.082031 14.390625 12.78125 13.6875 12.78125 12.761719 C 12.78125 12.113281 12.917969 11.597656 13.195312 11.210938 C 13.476562 10.824219 13.898438 10.539062 14.472656 10.359375 C 15.042969 10.179688 15.773438 10.089844 16.660156 10.089844 Z M 23.179688 1.121094 "/>
<path fill-rule="nonzero" fill="rgb(0%, 0%, 100%)" fill-opacity="1" d="M 37.550781 12.054688 L 26.316406 12.054688 L 26.316406 20.59375 L 37.550781 20.59375 Z M 37.550781 12.054688 "/>
<path fill-rule="nonzero" fill="rgb(0%, 0%, 100%)" fill-opacity="1" d="M 5.488281 12.050781 L -5.75 12.050781 L -5.75 20.589844 L 5.488281 20.589844 Z M 5.488281 12.050781 "/>
</svg>
