<?xml version="1.0" encoding="UTF-8"?>
<svg xmlns="http://www.w3.org/2000/svg" xmlns:xlink="http://www.w3.org/1999/xlink" width="32" height="32" viewBox="0 0 32 32">
<path fill-rule="nonzero" fill="rgb(100%, 58.039216%, 8.235294%)" fill-opacity="1" d="M 31.449219 29.40625 L 0.773438 29.40625 L 16.136719 2.757812 Z M 27.640625 27.199219 L 16.136719 7.226562 L 4.632812 27.199219 Z M 13.351562 25.433594 L 13.1875 25.296875 L 13.046875 25.214844 L 12.882812 25.132812 L 12.71875 24.992188 L 12.578125 24.882812 L 12.414062 24.746094 L 12.304688 24.632812 L 12.164062 24.496094 L 12.027344 24.414062 L 11.890625 24.277344 L 11.808594 24.136719 L 11.695312 24 L 11.558594 23.863281 L 11.476562 23.722656 L 11.394531 23.585938 L 11.28125 23.421875 L 11.226562 23.28125 L 11.117188 23.117188 L 11.0625 22.953125 L 11.007812 22.8125 L 10.898438 22.484375 L 10.8125 22.289062 L 10.785156 22.125 L 10.757812 21.957031 L 10.703125 21.765625 L 10.675781 21.574219 L 10.648438 21.40625 L 10.621094 21.214844 L 10.621094 20.082031 L 10.648438 20 L 10.648438 19.917969 L 10.675781 19.808594 L 10.675781 19.722656 L 10.703125 19.640625 L 10.703125 19.476562 L 10.757812 19.394531 L 10.785156 19.28125 L 10.785156 19.226562 L 10.8125 19.117188 L 10.839844 19.0625 L 10.867188 18.953125 L 10.898438 18.898438 L 10.953125 18.785156 L 10.953125 18.703125 L 10.980469 18.621094 L 11.035156 18.539062 L 11.0625 18.457031 L 11.089844 18.371094 L 11.144531 18.289062 L 11.253906 18.070312 L 11.308594 17.984375 L 11.367188 17.902344 L 11.449219 17.738281 L 11.558594 17.542969 L 11.667969 17.378906 L 11.808594 17.242188 L 11.890625 17.101562 L 12.027344 16.964844 L 12.136719 16.828125 L 12.25 16.660156 L 12.414062 16.578125 L 12.496094 16.441406 L 12.660156 16.332031 L 12.773438 16.21875 L 13.046875 16 L 13.1875 15.890625 L 13.351562 15.808594 L 13.488281 15.75 L 13.65625 15.667969 L 13.820312 15.585938 L 13.957031 15.503906 L 14.125 15.449219 L 14.289062 15.421875 L 14.484375 15.367188 L 14.675781 15.308594 L 14.8125 15.28125 L 15.007812 15.199219 L 15.171875 15.199219 L 15.367188 15.171875 L 15.558594 15.144531 L 15.75 15.144531 L 15.917969 15.117188 L 16.304688 15.117188 L 16.386719 15.144531 L 16.660156 15.144531 L 16.773438 15.171875 L 16.855469 15.171875 L 16.9375 15.199219 L 17.101562 15.199219 L 17.214844 15.226562 L 17.269531 15.226562 L 17.378906 15.28125 L 17.433594 15.28125 L 17.542969 15.308594 L 17.628906 15.339844 L 17.710938 15.367188 L 17.792969 15.367188 L 17.847656 15.421875 L 17.957031 15.449219 L 18.015625 15.476562 L 18.125 15.503906 L 18.34375 15.613281 L 18.457031 15.667969 L 18.539062 15.722656 L 18.59375 15.75 L 18.703125 15.78125 L 18.757812 15.808594 L 18.867188 15.890625 L 19.007812 15.972656 L 19.171875 16.082031 L 19.339844 16.191406 L 19.476562 16.304688 L 19.640625 16.441406 L 19.78125 16.523438 L 19.917969 16.660156 L 20.054688 16.773438 L 20.191406 16.910156 L 20.277344 17.046875 L 20.414062 17.1875 L 20.523438 17.296875 L 20.660156 17.460938 L 20.71875 17.601562 L 20.828125 17.738281 L 20.9375 17.902344 L 20.992188 18.042969 L 21.074219 18.207031 L 21.160156 18.34375 L 21.1875 18.511719 L 21.269531 18.675781 L 21.324219 18.839844 L 21.40625 19.007812 L 21.433594 19.171875 L 21.460938 19.367188 L 21.515625 19.53125 L 21.542969 19.695312 L 21.574219 19.917969 L 21.574219 20.277344 L 21.601562 20.46875 L 21.601562 20.9375 L 21.574219 21.019531 L 21.574219 21.40625 L 21.542969 21.460938 L 21.542969 21.574219 L 21.515625 21.65625 L 21.488281 21.710938 L 21.488281 21.820312 L 21.433594 21.984375 L 21.433594 22.097656 L 21.40625 22.152344 L 21.378906 22.261719 L 21.351562 22.316406 L 21.324219 22.398438 L 21.269531 22.484375 L 21.269531 22.566406 L 21.1875 22.648438 L 21.1875 22.730469 L 21.160156 22.8125 L 21.101562 22.898438 L 21.074219 22.980469 L 21.046875 23.089844 L 20.992188 23.144531 L 20.964844 23.226562 L 20.882812 23.308594 L 20.855469 23.394531 L 20.746094 23.558594 L 20.660156 23.722656 L 20.550781 23.890625 L 20.46875 24.054688 L 20.332031 24.191406 L 20.21875 24.332031 L 20.109375 24.46875 L 19.972656 24.578125 L 19.863281 24.746094 L 19.722656 24.855469 L 19.613281 24.964844 L 19.476562 25.074219 L 19.339844 25.1875 L 19.171875 25.296875 L 19.035156 25.351562 L 18.898438 25.460938 L 18.757812 25.574219 L 18.59375 25.628906 L 18.457031 25.710938 L 18.289062 25.765625 L 18.125 25.847656 L 17.957031 25.902344 L 17.792969 25.929688 L 17.628906 25.984375 L 17.433594 26.042969 L 17.269531 26.070312 L 17.074219 26.097656 L 16.910156 26.097656 L 16.691406 26.125 L 16.523438 26.152344 L 15.667969 26.152344 L 15.585938 26.125 L 15.476562 26.125 L 15.421875 26.097656 L 15.308594 26.097656 L 15.226562 26.070312 L 15.035156 26.070312 L 14.980469 26.042969 L 14.867188 26.015625 L 14.785156 25.984375 L 14.703125 25.957031 L 14.59375 25.929688 L 14.511719 25.902344 L 14.425781 25.902344 L 14.261719 25.847656 L 14.207031 25.792969 L 14.097656 25.765625 L 14.042969 25.738281 L 13.929688 25.710938 L 13.847656 25.65625 L 13.683594 25.601562 L 13.628906 25.515625 L 13.515625 25.488281 L 13.460938 25.460938 Z M 11.75 20.691406 L 20.496094 20.691406 L 20.496094 20.054688 L 20.46875 19.917969 L 20.414062 19.78125 L 20.414062 19.613281 L 20.386719 19.476562 L 20.332031 19.367188 L 20.332031 19.226562 L 20.25 19.089844 L 20.21875 18.953125 L 20.136719 18.8125 L 20.109375 18.703125 L 20.027344 18.566406 L 19.972656 18.457031 L 19.917969 18.34375 L 19.808594 18.234375 L 19.75 18.097656 L 19.667969 18.015625 L 19.585938 17.902344 L 19.476562 17.792969 L 19.394531 17.683594 L 19.308594 17.601562 L 19.171875 17.488281 L 19.089844 17.378906 L 18.980469 17.296875 L 18.867188 17.214844 L 18.730469 17.101562 L 18.621094 17.046875 L 18.484375 16.9375 L 18.316406 16.882812 L 13.957031 24.496094 L 13.984375 24.496094 L 14.070312 24.578125 L 14.125 24.578125 L 14.207031 24.605469 L 14.261719 24.660156 L 14.34375 24.691406 L 14.371094 24.71875 L 14.425781 24.746094 L 14.511719 24.746094 L 14.59375 24.773438 L 14.648438 24.828125 L 14.703125 24.828125 L 14.785156 24.855469 L 14.839844 24.882812 L 14.898438 24.882812 L 14.980469 24.910156 L 15.035156 24.9375 L 15.117188 24.9375 L 15.171875 24.964844 L 15.253906 24.992188 L 15.308594 24.992188 L 15.394531 25.019531 L 15.53125 25.019531 L 15.613281 25.046875 L 16.605469 25.046875 L 16.691406 25.019531 L 16.773438 25.019531 L 16.855469 24.992188 L 16.910156 24.992188 L 17.074219 24.9375 L 17.132812 24.9375 L 17.214844 24.910156 L 17.269531 24.882812 L 17.351562 24.882812 L 17.40625 24.855469 L 17.488281 24.828125 L 17.542969 24.800781 L 17.628906 24.773438 L 17.710938 24.746094 L 17.738281 24.746094 L 17.820312 24.691406 L 17.875 24.660156 L 17.957031 24.632812 L 18.015625 24.578125 L 18.097656 24.578125 L 18.152344 24.496094 L 18.234375 24.496094 L 18.289062 24.441406 L 18.34375 24.414062 L 13.957031 16.855469 L 13.820312 16.9375 L 13.65625 17.019531 L 13.542969 17.101562 L 13.40625 17.214844 L 13.1875 17.378906 L 13.074219 17.488281 L 12.964844 17.601562 L 12.882812 17.683594 L 12.773438 17.765625 L 12.691406 17.902344 L 12.578125 17.984375 L 12.496094 18.097656 L 12.414062 18.234375 L 12.332031 18.34375 L 12.277344 18.425781 L 12.191406 18.566406 L 12.136719 18.703125 L 12.109375 18.8125 L 12.027344 18.953125 L 12 19.089844 L 11.945312 19.226562 L 11.890625 19.339844 L 11.863281 19.476562 L 11.863281 19.613281 L 11.808594 19.78125 L 11.808594 20.054688 L 11.75 20.21875 Z M 11.75 20.691406 "/>
</svg>
