<?xml version="1.0" encoding="UTF-8"?>
<svg xmlns="http://www.w3.org/2000/svg" xmlns:xlink="http://www.w3.org/1999/xlink" width="32" height="32" viewBox="0 0 32 32">
<path fill-rule="nonzero" fill="rgb(0%, 0%, 100%)" fill-opacity="1" stroke-width="1" stroke-linecap="butt" stroke-linejoin="miter" stroke="rgb(0%, 0%, 100%)" stroke-opacity="1" stroke-miterlimit="4" d="M 376.943359 319.02832 C 376.943359 542.050781 376.943359 764.931641 376.943359 987.954102 C 357.96875 987.954102 338.994141 987.954102 320.019531 987.954102 C 320.019531 764.931641 320.019531 542.050781 320.019531 319.02832 C 338.994141 319.02832 357.96875 319.02832 376.943359 319.02832 Z M 376.943359 319.02832 " transform="matrix(0.0275862, 0, 0, 0.0275862, 0, 0)"/>
<path fill-rule="nonzero" fill="rgb(0%, 0%, 100%)" fill-opacity="1" d="M 6.648438 28.304688 C 6.648438 26.703125 8 25.40625 9.683594 25.40625 C 11.339844 25.40625 12.660156 26.703125 12.660156 28.304688 C 12.660156 29.902344 11.339844 31.226562 9.683594 31.226562 C 8 31.226562 6.648438 29.902344 6.648438 28.304688 Z M 6.648438 28.304688 "/>
<path fill-rule="nonzero" fill="rgb(0%, 0%, 100%)" fill-opacity="1" d="M 6.566406 28.304688 C 6.566406 28.191406 6.59375 28.109375 6.59375 28 C 6.621094 27.890625 6.621094 27.808594 6.648438 27.695312 C 6.675781 27.613281 6.675781 27.503906 6.703125 27.421875 C 6.730469 27.339844 6.785156 27.226562 6.8125 27.144531 C 6.867188 27.0625 6.898438 26.980469 6.953125 26.898438 C 7.007812 26.8125 7.0625 26.730469 7.117188 26.621094 C 7.171875 26.566406 7.226562 26.484375 7.28125 26.398438 C 7.339844 26.34375 7.421875 26.261719 7.476562 26.179688 C 7.558594 26.125 7.613281 26.070312 7.695312 25.984375 C 7.78125 25.929688 7.863281 25.875 7.945312 25.820312 C 8.027344 25.765625 8.109375 25.710938 8.191406 25.65625 C 8.277344 25.628906 8.359375 25.601562 8.441406 25.542969 C 8.550781 25.515625 8.660156 25.488281 8.773438 25.433594 C 8.855469 25.433594 8.964844 25.40625 9.046875 25.378906 C 9.160156 25.378906 9.242188 25.351562 9.351562 25.324219 C 9.460938 25.324219 9.574219 25.324219 9.683594 25.296875 C 9.765625 25.324219 9.875 25.324219 9.984375 25.324219 C 10.070312 25.351562 10.179688 25.351562 10.289062 25.351562 C 10.371094 25.378906 10.484375 25.40625 10.59375 25.433594 C 10.675781 25.488281 10.757812 25.515625 10.867188 25.542969 C 10.953125 25.601562 11.035156 25.628906 11.144531 25.65625 C 11.226562 25.710938 11.308594 25.765625 11.394531 25.820312 C 11.476562 25.875 11.558594 25.929688 11.640625 25.984375 C 11.695312 26.070312 11.78125 26.125 11.863281 26.179688 C 11.917969 26.261719 11.972656 26.34375 12.054688 26.398438 C 12.109375 26.484375 12.164062 26.566406 12.25 26.621094 C 12.277344 26.703125 12.332031 26.785156 12.386719 26.867188 C 12.414062 26.953125 12.46875 27.035156 12.523438 27.117188 C 12.550781 27.199219 12.578125 27.308594 12.632812 27.394531 C 12.660156 27.503906 12.691406 27.585938 12.71875 27.695312 C 12.71875 27.808594 12.746094 27.890625 12.773438 28 C 12.773438 28.109375 12.773438 28.191406 12.773438 28.304688 C 12.773438 28.414062 12.773438 28.496094 12.773438 28.605469 C 12.746094 28.71875 12.71875 28.800781 12.71875 28.910156 C 12.691406 28.992188 12.660156 29.101562 12.632812 29.1875 C 12.578125 29.296875 12.550781 29.378906 12.523438 29.488281 C 12.46875 29.574219 12.414062 29.65625 12.386719 29.738281 C 12.332031 29.820312 12.277344 29.902344 12.25 29.984375 C 12.164062 30.070312 12.109375 30.125 12.054688 30.207031 C 11.972656 30.289062 11.917969 30.34375 11.863281 30.425781 C 11.78125 30.484375 11.722656 30.566406 11.667969 30.621094 C 11.558594 30.675781 11.476562 30.730469 11.394531 30.785156 C 11.308594 30.839844 11.226562 30.898438 11.171875 30.953125 C 11.0625 31.007812 10.953125 31.035156 10.867188 31.089844 C 10.757812 31.117188 10.675781 31.144531 10.59375 31.171875 C 10.484375 31.199219 10.371094 31.226562 10.289062 31.253906 C 10.179688 31.253906 10.070312 31.28125 9.984375 31.28125 C 9.875 31.28125 9.765625 31.308594 9.683594 31.308594 C 9.574219 31.308594 9.460938 31.28125 9.351562 31.28125 C 9.242188 31.28125 9.160156 31.253906 9.046875 31.253906 C 8.964844 31.226562 8.855469 31.199219 8.773438 31.171875 C 8.660156 31.144531 8.578125 31.117188 8.46875 31.089844 C 8.386719 31.035156 8.277344 31.007812 8.191406 30.953125 C 8.109375 30.898438 8.027344 30.839844 7.945312 30.785156 C 7.863281 30.730469 7.78125 30.675781 7.695312 30.621094 C 7.613281 30.566406 7.558594 30.511719 7.476562 30.457031 C 7.421875 30.371094 7.339844 30.316406 7.28125 30.234375 C 7.226562 30.152344 7.171875 30.070312 7.117188 29.984375 C 7.0625 29.902344 7.007812 29.820312 6.953125 29.738281 C 6.898438 29.65625 6.867188 29.574219 6.8125 29.488281 C 6.785156 29.378906 6.730469 29.296875 6.703125 29.1875 C 6.675781 29.101562 6.675781 28.992188 6.648438 28.910156 C 6.621094 28.828125 6.621094 28.71875 6.59375 28.632812 C 6.59375 28.523438 6.566406 28.414062 6.566406 28.304688 Z M 6.785156 28.578125 C 6.785156 28.660156 6.8125 28.773438 6.8125 28.855469 C 6.839844 28.9375 6.867188 29.046875 6.898438 29.132812 C 6.925781 29.214844 6.953125 29.296875 6.980469 29.378906 C 7.035156 29.460938 7.0625 29.574219 7.117188 29.65625 C 7.171875 29.738281 7.199219 29.792969 7.253906 29.875 C 7.308594 29.957031 7.367188 30.015625 7.421875 30.097656 C 7.476562 30.152344 7.558594 30.234375 7.613281 30.289062 C 7.667969 30.34375 7.75 30.398438 7.808594 30.457031 C 7.890625 30.511719 7.972656 30.566406 8.054688 30.621094 C 8.136719 30.675781 8.191406 30.730469 8.277344 30.785156 C 8.359375 30.8125 8.441406 30.867188 8.523438 30.898438 C 8.605469 30.925781 8.71875 30.953125 8.800781 30.980469 C 8.910156 31.007812 8.992188 31.035156 9.101562 31.0625 C 9.1875 31.089844 9.296875 31.089844 9.378906 31.117188 C 9.460938 31.117188 9.574219 31.117188 9.683594 31.117188 C 9.765625 31.117188 9.847656 31.117188 9.957031 31.117188 C 10.042969 31.089844 10.152344 31.089844 10.261719 31.0625 C 10.34375 31.035156 10.425781 31.007812 10.539062 30.980469 C 10.621094 30.953125 10.703125 30.925781 10.8125 30.898438 C 10.898438 30.867188 10.980469 30.8125 11.0625 30.785156 C 11.144531 30.730469 11.226562 30.675781 11.308594 30.621094 C 11.367188 30.566406 11.449219 30.511719 11.53125 30.457031 C 11.585938 30.398438 11.640625 30.34375 11.722656 30.289062 C 11.78125 30.234375 11.835938 30.152344 11.917969 30.097656 C 11.972656 30.015625 12.027344 29.957031 12.082031 29.875 C 12.109375 29.792969 12.164062 29.738281 12.21875 29.65625 C 12.25 29.574219 12.277344 29.488281 12.332031 29.40625 C 12.359375 29.324219 12.414062 29.242188 12.46875 29.160156 C 12.46875 29.074219 12.496094 28.964844 12.523438 28.882812 C 12.523438 28.800781 12.550781 28.691406 12.578125 28.605469 C 12.578125 28.496094 12.578125 28.414062 12.578125 28.304688 C 12.578125 28.21875 12.578125 28.109375 12.578125 28.027344 C 12.550781 27.945312 12.523438 27.835938 12.523438 27.75 C 12.496094 27.667969 12.46875 27.558594 12.46875 27.476562 C 12.414062 27.394531 12.386719 27.28125 12.359375 27.199219 C 12.304688 27.117188 12.25 27.0625 12.21875 26.980469 C 12.164062 26.898438 12.109375 26.8125 12.082031 26.730469 C 12.027344 26.675781 11.972656 26.621094 11.917969 26.539062 C 11.835938 26.484375 11.78125 26.398438 11.722656 26.316406 C 11.640625 26.261719 11.585938 26.207031 11.53125 26.125 C 11.449219 26.097656 11.367188 26.042969 11.308594 25.984375 C 11.226562 25.957031 11.144531 25.902344 11.0625 25.847656 C 10.980469 25.820312 10.898438 25.765625 10.8125 25.710938 C 10.730469 25.683594 10.648438 25.65625 10.566406 25.601562 C 10.457031 25.601562 10.34375 25.601562 10.261719 25.574219 C 10.152344 25.574219 10.070312 25.542969 9.984375 25.515625 C 9.875 25.515625 9.765625 25.515625 9.683594 25.488281 C 9.574219 25.515625 9.460938 25.515625 9.378906 25.515625 C 9.296875 25.542969 9.1875 25.542969 9.101562 25.542969 C 8.992188 25.574219 8.910156 25.601562 8.800781 25.601562 C 8.71875 25.65625 8.632812 25.683594 8.550781 25.710938 C 8.46875 25.765625 8.359375 25.792969 8.277344 25.820312 C 8.191406 25.875 8.136719 25.929688 8.054688 25.957031 C 7.972656 26.015625 7.890625 26.070312 7.808594 26.125 C 7.75 26.207031 7.695312 26.261719 7.640625 26.316406 C 7.585938 26.398438 7.503906 26.457031 7.449219 26.511719 C 7.394531 26.59375 7.308594 26.675781 7.253906 26.730469 C 7.199219 26.8125 7.171875 26.867188 7.117188 26.953125 C 7.0625 27.035156 7.035156 27.117188 6.980469 27.199219 C 6.953125 27.28125 6.925781 27.394531 6.898438 27.476562 C 6.867188 27.558594 6.839844 27.640625 6.8125 27.722656 C 6.8125 27.835938 6.785156 27.917969 6.785156 28.027344 C 6.785156 28.109375 6.757812 28.21875 6.757812 28.304688 C 6.757812 28.386719 6.785156 28.496094 6.785156 28.578125 Z M 6.785156 28.578125 "/>
<path fill="none" stroke-width="1" stroke-linecap="butt" stroke-linejoin="miter" stroke="rgb(0%, 0%, 100%)" stroke-opacity="1" stroke-miterlimit="4" d="M 238.032227 1026.044922 C 238.032227 1021.938477 239.023437 1018.964844 239.023437 1015 C 240.014648 1011.035156 240.014648 1008.061523 241.005859 1003.955078 C 241.99707 1000.981445 241.99707 997.016602 242.988281 994.042969 C 243.979492 991.069336 245.961914 986.962891 246.953125 983.989258 C 248.935547 981.015625 250.068359 978.041992 252.050781 975.068359 C 254.033203 971.953125 256.015625 968.979492 257.998047 965.014648 C 259.980469 963.032227 261.962891 960.058594 263.945312 956.943359 C 266.069336 954.960937 269.042969 951.987305 271.025391 949.013672 C 273.999023 947.03125 275.981445 945.048828 278.955078 941.933594 C 282.070312 939.951172 285.043945 937.96875 288.017578 935.986328 C 290.991211 934.003906 293.964844 932.021484 296.938477 930.039062 C 300.053711 929.047852 303.027344 928.056641 306.000977 925.932617 C 309.96582 924.941406 313.930664 923.950195 318.037109 921.967773 C 321.010742 921.967773 324.975586 920.976562 327.949219 919.985352 C 332.055664 919.985352 335.029297 918.994141 338.994141 918.00293 C 342.958984 918.00293 347.06543 918.00293 351.030273 917.011719 C 354.003906 918.00293 357.96875 918.00293 361.933594 918.00293 C 365.048828 918.994141 369.013672 918.994141 372.978516 918.994141 C 375.952148 919.985352 380.058594 920.976562 384.023437 921.967773 C 386.99707 923.950195 389.970703 924.941406 393.935547 925.932617 C 397.050781 928.056641 400.024414 929.047852 403.989258 930.039062 C 406.962891 932.021484 409.936523 934.003906 413.051758 935.986328 C 416.025391 937.96875 418.999023 939.951172 421.972656 941.933594 C 423.955078 945.048828 427.070312 947.03125 430.043945 949.013672 C 432.026367 951.987305 434.008789 954.960937 436.982422 956.943359 C 438.964844 960.058594 440.947266 963.032227 444.0625 965.014648 C 445.053711 967.988281 447.036133 970.961914 449.018555 973.935547 C 450.009766 977.050781 451.992187 980.024414 453.974609 982.998047 C 454.96582 985.97168 455.957031 989.936523 457.939453 993.051758 C 458.930664 997.016602 460.063477 999.990234 461.054687 1003.955078 C 461.054687 1008.061523 462.045898 1011.035156 463.037109 1015 C 463.037109 1018.964844 463.037109 1021.938477 463.037109 1026.044922 C 463.037109 1030.009766 463.037109 1032.983398 463.037109 1036.948242 C 462.045898 1041.054687 461.054687 1044.02832 461.054687 1047.993164 C 460.063477 1050.966797 458.930664 1054.931641 457.939453 1058.046875 C 455.957031 1062.011719 454.96582 1064.985352 453.974609 1068.950195 C 451.992187 1072.06543 450.009766 1075.039062 449.018555 1078.012695 C 447.036133 1080.986328 445.053711 1083.959961 444.0625 1086.933594 C 440.947266 1090.048828 438.964844 1092.03125 436.982422 1095.004883 C 434.008789 1097.978516 432.026367 1099.960937 430.043945 1102.93457 C 427.070312 1105.058594 424.946289 1108.032227 422.963867 1110.014648 C 418.999023 1111.99707 416.025391 1113.979492 413.051758 1115.961914 C 409.936523 1117.944336 406.962891 1120.068359 404.980469 1122.050781 C 401.015625 1124.033203 397.050781 1125.024414 393.935547 1127.006836 C 389.970703 1127.998047 386.99707 1128.989258 384.023437 1129.980469 C 380.058594 1130.97168 375.952148 1131.962891 372.978516 1132.954102 C 369.013672 1132.954102 365.048828 1133.945312 361.933594 1133.945312 C 357.96875 1133.945312 354.003906 1134.936523 351.030273 1134.936523 C 347.06543 1134.936523 342.958984 1133.945312 338.994141 1133.945312 C 335.029297 1133.945312 332.055664 1132.954102 327.949219 1132.954102 C 324.975586 1131.962891 321.010742 1130.97168 318.037109 1129.980469 C 313.930664 1128.989258 310.957031 1127.998047 306.992187 1127.006836 C 304.018555 1125.024414 300.053711 1124.033203 296.938477 1122.050781 C 293.964844 1120.068359 290.991211 1117.944336 288.017578 1115.961914 C 285.043945 1113.979492 282.070312 1111.99707 278.955078 1110.014648 C 275.981445 1108.032227 273.999023 1106.049805 271.025391 1104.067383 C 269.042969 1100.952148 266.069336 1098.969727 263.945312 1095.996094 C 261.962891 1093.022461 259.980469 1090.048828 257.998047 1086.933594 C 256.015625 1083.959961 254.033203 1080.986328 252.050781 1078.012695 C 250.068359 1075.039062 248.935547 1072.06543 246.953125 1068.950195 C 245.961914 1064.985352 243.979492 1062.011719 242.988281 1058.046875 C 241.99707 1054.931641 241.99707 1050.966797 241.005859 1047.993164 C 240.014648 1045.019531 240.014648 1041.054687 239.023437 1037.939453 C 239.023437 1033.974609 238.032227 1030.009766 238.032227 1026.044922 Z M 238.032227 1026.044922 " transform="matrix(0.0275862, 0, 0, 0.0275862, 0, 0)"/>
<path fill="none" stroke-width="1" stroke-linecap="butt" stroke-linejoin="miter" stroke="rgb(0%, 0%, 100%)" stroke-opacity="1" stroke-miterlimit="4" d="M 245.961914 1035.957031 C 245.961914 1038.930664 246.953125 1043.037109 246.953125 1046.010742 C 247.944336 1048.984375 248.935547 1052.949219 250.068359 1056.064453 C 251.05957 1059.038086 252.050781 1062.011719 253.041992 1064.985352 C 255.024414 1067.958984 256.015625 1072.06543 257.998047 1075.039062 C 259.980469 1078.012695 260.97168 1079.995117 262.954102 1082.96875 C 264.936523 1085.942383 267.060547 1088.066406 269.042969 1091.040039 C 271.025391 1093.022461 273.999023 1095.996094 275.981445 1097.978516 C 277.963867 1099.960937 280.9375 1101.943359 283.061523 1104.067383 C 286.035156 1106.049805 289.008789 1108.032227 291.982422 1110.014648 C 294.956055 1111.99707 296.938477 1113.979492 300.053711 1115.961914 C 303.027344 1116.953125 306.000977 1118.935547 308.974609 1120.068359 C 311.948242 1121.05957 316.054687 1122.050781 319.02832 1123.041992 C 322.993164 1124.033203 325.966797 1125.024414 329.931641 1126.015625 C 333.046875 1127.006836 337.011719 1127.006836 339.985352 1127.998047 C 342.958984 1127.998047 347.06543 1127.998047 351.030273 1127.998047 C 354.003906 1127.998047 356.977539 1127.998047 360.942383 1127.998047 C 364.057617 1127.006836 368.022461 1127.006836 371.987305 1126.015625 C 374.960937 1125.024414 377.93457 1124.033203 382.041016 1123.041992 C 385.014648 1122.050781 387.988281 1121.05957 391.953125 1120.068359 C 395.068359 1118.935547 398.041992 1116.953125 401.015625 1115.961914 C 403.989258 1113.979492 406.962891 1111.99707 409.936523 1110.014648 C 412.060547 1108.032227 415.03418 1106.049805 418.007812 1104.067383 C 419.990234 1101.943359 421.972656 1099.960937 424.946289 1097.978516 C 427.070312 1095.996094 429.052734 1093.022461 432.026367 1091.040039 C 434.008789 1088.066406 435.991211 1085.942383 437.973633 1082.96875 C 438.964844 1079.995117 440.947266 1078.012695 442.929687 1075.039062 C 444.0625 1072.06543 445.053711 1068.950195 447.036133 1065.976562 C 448.027344 1063.00293 450.009766 1060.029297 451.992187 1057.055664 C 451.992187 1053.94043 452.983398 1049.975586 453.974609 1047.001953 C 453.974609 1044.02832 454.96582 1040.063477 455.957031 1036.948242 C 455.957031 1032.983398 455.957031 1030.009766 455.957031 1026.044922 C 455.957031 1022.929687 455.957031 1018.964844 455.957031 1015.991211 C 454.96582 1013.017578 453.974609 1009.052734 453.974609 1005.9375 C 452.983398 1002.963867 451.992187 998.999023 451.992187 996.025391 C 450.009766 993.051758 449.018555 988.945312 448.027344 985.97168 C 446.044922 982.998047 444.0625 981.015625 442.929687 978.041992 C 440.947266 975.068359 438.964844 971.953125 437.973633 968.979492 C 435.991211 966.99707 434.008789 965.014648 432.026367 962.041016 C 429.052734 960.058594 427.070312 956.943359 424.946289 953.969727 C 421.972656 951.987305 419.990234 950.004883 418.007812 947.03125 C 415.03418 946.040039 412.060547 944.057617 409.936523 941.933594 C 406.962891 940.942383 403.989258 938.959961 401.015625 936.977539 C 398.041992 935.986328 395.068359 934.003906 391.953125 932.021484 C 388.979492 931.030273 386.005859 930.039062 383.032227 928.056641 C 379.067383 928.056641 374.960937 928.056641 371.987305 927.06543 C 368.022461 927.06543 365.048828 925.932617 361.933594 924.941406 C 357.96875 924.941406 354.003906 924.941406 351.030273 923.950195 C 347.06543 924.941406 342.958984 924.941406 339.985352 924.941406 C 337.011719 925.932617 333.046875 925.932617 329.931641 925.932617 C 325.966797 927.06543 322.993164 928.056641 319.02832 928.056641 C 316.054687 930.039062 312.939453 931.030273 309.96582 932.021484 C 306.992187 934.003906 303.027344 934.995117 300.053711 935.986328 C 296.938477 937.96875 294.956055 939.951172 291.982422 940.942383 C 289.008789 943.066406 286.035156 945.048828 283.061523 947.03125 C 280.9375 950.004883 278.955078 951.987305 276.972656 953.969727 C 274.990234 956.943359 272.016602 959.067383 270.03418 961.049805 C 268.051758 964.023437 264.936523 966.99707 262.954102 968.979492 C 260.97168 971.953125 259.980469 973.935547 257.998047 977.050781 C 256.015625 980.024414 255.024414 982.998047 253.041992 985.97168 C 252.050781 988.945312 251.05957 993.051758 250.068359 996.025391 C 248.935547 998.999023 247.944336 1001.972656 246.953125 1004.946289 C 246.953125 1009.052734 245.961914 1012.026367 245.961914 1015.991211 C 245.961914 1018.964844 244.970703 1022.929687 244.970703 1026.044922 C 244.970703 1029.018555 245.961914 1032.983398 245.961914 1035.957031 Z M 245.961914 1035.957031 " transform="matrix(0.0275862, 0, 0, 0.0275862, 0, 0)"/>
<path fill-rule="nonzero" fill="rgb(0%, 0%, 100%)" fill-opacity="1" d="M 8.855469 8.800781 C 8.855469 8.660156 8.882812 8.523438 8.882812 8.386719 C 8.882812 8.25 8.910156 8.109375 8.910156 7.972656 C 8.910156 7.835938 8.9375 7.695312 8.9375 7.585938 C 8.964844 7.449219 8.992188 7.308594 9.019531 7.171875 C 9.046875 7.035156 9.074219 6.898438 9.101562 6.785156 C 9.160156 6.648438 9.1875 6.511719 9.242188 6.398438 C 9.296875 6.261719 9.324219 6.125 9.378906 6.015625 C 9.433594 5.875 9.460938 5.765625 9.515625 5.65625 C 9.574219 5.515625 9.628906 5.40625 9.683594 5.296875 C 9.738281 5.1875 9.792969 5.074219 9.875 4.964844 C 9.929688 4.855469 9.984375 4.71875 10.070312 4.605469 C 10.125 4.496094 10.179688 4.386719 10.261719 4.277344 C 10.34375 4.164062 10.425781 4.082031 10.511719 3.972656 C 10.59375 3.863281 10.675781 3.78125 10.757812 3.667969 C 10.839844 3.558594 10.925781 3.476562 11.035156 3.367188 C 11.117188 3.28125 11.199219 3.171875 11.28125 3.089844 C 11.367188 3.007812 11.476562 2.898438 11.585938 2.8125 C 11.667969 2.730469 11.75 2.648438 11.863281 2.566406 C 11.972656 2.484375 12.082031 2.398438 12.191406 2.316406 C 12.277344 2.234375 12.386719 2.179688 12.496094 2.097656 C 12.605469 2.042969 12.71875 1.957031 12.855469 1.902344 C 12.964844 1.847656 13.074219 1.765625 13.1875 1.710938 C 13.296875 1.65625 13.433594 1.574219 13.574219 1.515625 C 13.683594 1.460938 13.792969 1.40625 13.929688 1.351562 C 14.042969 1.296875 14.152344 1.269531 14.289062 1.214844 C 14.398438 1.160156 14.539062 1.132812 14.675781 1.074219 C 14.8125 1.046875 14.953125 0.992188 15.089844 0.964844 C 15.199219 0.9375 15.339844 0.910156 15.476562 0.882812 C 15.613281 0.855469 15.75 0.828125 15.890625 0.800781 C 16.027344 0.800781 16.164062 0.773438 16.304688 0.773438 C 16.441406 0.773438 16.550781 0.746094 16.691406 0.746094 C 16.855469 0.746094 16.992188 0.71875 17.132812 0.71875 C 17.269531 0.71875 17.40625 0.746094 17.542969 0.746094 C 17.683594 0.746094 17.820312 0.773438 17.957031 0.773438 C 18.097656 0.773438 18.234375 0.800781 18.371094 0.800781 C 18.511719 0.828125 18.648438 0.855469 18.785156 0.882812 C 18.925781 0.910156 19.0625 0.9375 19.171875 0.964844 C 19.308594 0.992188 19.449219 1.046875 19.585938 1.074219 C 19.722656 1.132812 19.835938 1.160156 19.945312 1.214844 C 20.082031 1.269531 20.21875 1.296875 20.332031 1.351562 C 20.46875 1.40625 20.605469 1.460938 20.71875 1.515625 C 20.855469 1.574219 20.964844 1.628906 21.074219 1.683594 C 21.1875 1.738281 21.296875 1.820312 21.40625 1.875 C 21.515625 1.929688 21.628906 2.015625 21.738281 2.070312 C 21.847656 2.152344 21.957031 2.207031 22.070312 2.289062 C 22.179688 2.371094 22.289062 2.457031 22.371094 2.539062 C 22.484375 2.621094 22.59375 2.703125 22.703125 2.785156 C 22.8125 2.867188 22.898438 2.953125 22.980469 3.035156 C 23.089844 3.144531 23.171875 3.226562 23.253906 3.339844 C 23.339844 3.449219 23.421875 3.53125 23.503906 3.640625 C 23.585938 3.75 23.695312 3.835938 23.78125 3.945312 C 23.863281 4.054688 23.917969 4.136719 24 4.25 C 24.082031 4.359375 24.136719 4.46875 24.21875 4.578125 C 24.277344 4.691406 24.359375 4.800781 24.414062 4.910156 C 24.46875 5.019531 24.550781 5.160156 24.605469 5.269531 C 24.660156 5.378906 24.71875 5.515625 24.773438 5.628906 C 24.828125 5.738281 24.882812 5.847656 24.9375 5.984375 C 24.964844 6.097656 25.019531 6.234375 25.046875 6.371094 C 25.074219 6.484375 25.132812 6.621094 25.160156 6.757812 C 25.1875 6.867188 25.242188 7.007812 25.269531 7.144531 C 25.296875 7.253906 25.296875 7.394531 25.324219 7.53125 C 25.351562 7.667969 25.378906 7.808594 25.40625 7.945312 C 25.40625 8.082031 25.433594 8.21875 25.433594 8.359375 C 25.433594 8.496094 25.433594 8.632812 25.433594 8.773438 C 25.433594 8.910156 25.433594 9.046875 25.433594 9.1875 C 25.433594 9.324219 25.40625 9.460938 25.40625 9.601562 C 25.378906 9.738281 25.378906 9.875 25.351562 10.015625 C 25.324219 10.125 25.296875 10.261719 25.269531 10.398438 C 25.242188 10.511719 25.214844 10.648438 25.1875 10.785156 C 25.160156 10.898438 25.101562 11.035156 25.074219 11.171875 C 25.019531 11.28125 24.992188 11.421875 24.9375 11.558594 C 24.882812 11.667969 24.855469 11.78125 24.800781 11.917969 C 24.746094 12.027344 24.691406 12.136719 24.632812 12.277344 C 24.578125 12.386719 24.496094 12.496094 24.441406 12.605469 C 24.386719 12.71875 24.304688 12.828125 24.25 12.964844 C 24.164062 13.074219 24.082031 13.1875 24 13.296875 C 23.945312 13.378906 23.863281 13.488281 23.808594 13.601562 C 23.722656 13.710938 23.613281 13.820312 23.53125 13.929688 C 23.449219 14.015625 23.367188 14.125 23.28125 14.234375 C 23.199219 14.316406 23.117188 14.398438 23.007812 14.484375 C 22.925781 14.566406 22.8125 14.648438 22.703125 14.757812 C 22.621094 14.839844 22.511719 14.925781 22.398438 15.007812 C 22.316406 15.089844 22.207031 15.171875 22.097656 15.253906 C 21.984375 15.308594 21.875 15.394531 21.765625 15.476562 C 21.65625 15.53125 21.542969 15.613281 21.433594 15.695312 C 21.324219 15.75 21.214844 15.808594 21.101562 15.863281 C 20.992188 15.917969 20.882812 15.972656 20.746094 16.054688 C 20.632812 16.109375 20.523438 16.164062 20.386719 16.191406 C 20.277344 16.25 20.136719 16.304688 20 16.332031 C 19.890625 16.386719 19.75 16.441406 19.613281 16.46875 C 19.503906 16.523438 19.367188 16.550781 19.226562 16.578125 C 19.089844 16.605469 18.953125 16.632812 18.8125 16.660156 C 18.703125 16.691406 18.566406 16.71875 18.425781 16.746094 C 18.289062 16.773438 18.152344 16.800781 17.984375 16.800781 C 17.847656 16.828125 17.710938 16.828125 17.574219 16.828125 C 17.433594 16.828125 17.296875 16.828125 17.160156 16.828125 C 17.019531 16.828125 16.882812 16.828125 16.71875 16.828125 C 16.578125 16.828125 16.46875 16.828125 16.332031 16.800781 C 16.191406 16.800781 16.054688 16.773438 15.917969 16.746094 C 15.78125 16.71875 15.640625 16.691406 15.53125 16.660156 C 15.367188 16.632812 15.226562 16.605469 15.089844 16.578125 C 14.953125 16.550781 14.839844 16.523438 14.730469 16.496094 C 14.59375 16.441406 14.457031 16.386719 14.34375 16.332031 C 14.207031 16.304688 14.070312 16.25 13.957031 16.191406 C 13.820312 16.164062 13.710938 16.109375 13.601562 16.054688 C 13.460938 16 13.351562 15.945312 13.242188 15.890625 C 13.101562 15.808594 12.992188 15.75 12.882812 15.695312 C 12.773438 15.613281 12.660156 15.558594 12.550781 15.503906 C 12.441406 15.421875 12.332031 15.339844 12.21875 15.253906 C 12.109375 15.171875 12 15.089844 11.917969 15.035156 C 11.808594 14.953125 11.695312 14.867188 11.613281 14.785156 C 11.503906 14.675781 11.394531 14.59375 11.308594 14.511719 C 11.199219 14.398438 11.117188 14.316406 11.035156 14.234375 C 10.953125 14.125 10.867188 14.015625 10.785156 13.929688 C 10.703125 13.820312 10.621094 13.710938 10.539062 13.628906 C 10.457031 13.515625 10.371094 13.40625 10.289062 13.324219 C 10.207031 13.214844 10.125 13.101562 10.070312 12.992188 C 10.015625 12.882812 9.957031 12.773438 9.902344 12.660156 C 9.820312 12.523438 9.765625 12.414062 9.710938 12.304688 C 9.65625 12.191406 9.601562 12.082031 9.542969 11.972656 C 9.488281 11.835938 9.433594 11.695312 9.378906 11.585938 C 9.351562 11.449219 9.296875 11.308594 9.269531 11.199219 C 9.214844 11.0625 9.1875 10.953125 9.132812 10.839844 C 9.101562 10.703125 9.074219 10.566406 9.046875 10.457031 C 9.019531 10.316406 8.992188 10.179688 8.964844 10.042969 C 8.9375 9.902344 8.9375 9.765625 8.910156 9.628906 C 8.910156 9.488281 8.882812 9.351562 8.882812 9.214844 C 8.882812 9.074219 8.855469 8.9375 8.855469 8.800781 Z M 10.457031 9.101562 C 10.457031 9.214844 10.457031 9.324219 10.484375 9.433594 C 10.484375 9.515625 10.511719 9.628906 10.539062 9.738281 C 10.539062 9.847656 10.539062 9.957031 10.566406 10.070312 C 10.59375 10.152344 10.621094 10.261719 10.648438 10.371094 C 10.675781 10.457031 10.703125 10.566406 10.730469 10.675781 C 10.757812 10.785156 10.8125 10.898438 10.867188 11.007812 C 10.898438 11.089844 10.925781 11.171875 10.980469 11.28125 C 11.007812 11.367188 11.035156 11.449219 11.089844 11.558594 C 11.117188 11.640625 11.171875 11.722656 11.226562 11.835938 C 11.28125 11.917969 11.339844 12.027344 11.394531 12.136719 C 11.449219 12.21875 11.503906 12.304688 11.585938 12.386719 C 11.640625 12.46875 11.695312 12.550781 11.75 12.632812 C 11.808594 12.71875 11.890625 12.800781 11.972656 12.882812 C 12.027344 12.9375 12.109375 13.019531 12.191406 13.101562 C 12.25 13.1875 12.304688 13.269531 12.386719 13.351562 C 12.46875 13.40625 12.550781 13.488281 12.632812 13.574219 C 12.691406 13.628906 12.773438 13.683594 12.855469 13.765625 C 12.9375 13.820312 13.019531 13.875 13.132812 13.957031 C 13.214844 14.015625 13.296875 14.070312 13.378906 14.125 C 13.460938 14.179688 13.542969 14.234375 13.65625 14.316406 C 13.738281 14.34375 13.847656 14.398438 13.957031 14.457031 C 14.042969 14.484375 14.125 14.539062 14.234375 14.59375 C 14.316406 14.621094 14.398438 14.675781 14.511719 14.730469 C 14.59375 14.757812 14.703125 14.8125 14.8125 14.867188 C 14.925781 14.898438 15.035156 14.925781 15.144531 14.953125 C 15.226562 14.980469 15.339844 15.007812 15.449219 15.0625 C 15.558594 15.0625 15.667969 15.089844 15.78125 15.117188 C 15.890625 15.144531 16 15.171875 16.109375 15.199219 C 16.21875 15.199219 16.332031 15.199219 16.441406 15.226562 C 16.550781 15.226562 16.660156 15.226562 16.773438 15.253906 C 16.910156 15.253906 17.019531 15.253906 17.132812 15.253906 C 17.242188 15.253906 17.351562 15.253906 17.460938 15.253906 C 17.601562 15.226562 17.710938 15.226562 17.820312 15.226562 C 17.929688 15.199219 18.042969 15.199219 18.152344 15.199219 C 18.261719 15.171875 18.371094 15.144531 18.484375 15.117188 C 18.59375 15.089844 18.703125 15.0625 18.8125 15.0625 C 18.925781 15.035156 19.035156 15.007812 19.144531 14.980469 C 19.253906 14.925781 19.367188 14.898438 19.449219 14.867188 C 19.558594 14.8125 19.667969 14.785156 19.75 14.757812 C 19.863281 14.703125 19.972656 14.648438 20.054688 14.621094 C 20.164062 14.566406 20.25 14.511719 20.332031 14.484375 C 20.441406 14.425781 20.523438 14.371094 20.605469 14.316406 C 20.71875 14.261719 20.800781 14.207031 20.882812 14.152344 C 20.992188 14.097656 21.074219 14.042969 21.160156 13.984375 C 21.242188 13.902344 21.324219 13.820312 21.40625 13.765625 C 21.488281 13.710938 21.574219 13.65625 21.65625 13.601562 C 21.738281 13.515625 21.820312 13.433594 21.902344 13.378906 C 21.984375 13.296875 22.042969 13.214844 22.097656 13.132812 C 22.179688 13.046875 22.261719 12.964844 22.316406 12.910156 C 22.398438 12.828125 22.457031 12.746094 22.511719 12.660156 C 22.59375 12.578125 22.648438 12.496094 22.703125 12.414062 C 22.757812 12.304688 22.8125 12.21875 22.867188 12.136719 C 22.925781 12.027344 22.980469 11.945312 23.035156 11.863281 C 23.089844 11.78125 23.144531 11.695312 23.199219 11.613281 C 23.253906 11.503906 23.308594 11.394531 23.339844 11.308594 C 23.394531 11.199219 23.421875 11.089844 23.449219 11.007812 C 23.476562 10.898438 23.503906 10.8125 23.53125 10.730469 C 23.558594 10.621094 23.613281 10.511719 23.640625 10.425781 C 23.667969 10.316406 23.667969 10.207031 23.695312 10.097656 C 23.722656 9.984375 23.75 9.875 23.78125 9.792969 C 23.808594 9.683594 23.808594 9.574219 23.835938 9.460938 C 23.835938 9.351562 23.835938 9.242188 23.835938 9.132812 C 23.835938 9.019531 23.835938 8.910156 23.835938 8.800781 C 23.835938 8.691406 23.835938 8.578125 23.835938 8.46875 C 23.835938 8.359375 23.835938 8.25 23.835938 8.136719 C 23.808594 8.027344 23.808594 7.917969 23.78125 7.835938 C 23.75 7.722656 23.722656 7.613281 23.695312 7.503906 C 23.667969 7.394531 23.667969 7.28125 23.640625 7.199219 C 23.613281 7.089844 23.585938 6.980469 23.558594 6.898438 C 23.53125 6.785156 23.503906 6.675781 23.449219 6.59375 C 23.421875 6.484375 23.394531 6.371094 23.339844 6.289062 C 23.308594 6.179688 23.253906 6.097656 23.199219 6.015625 C 23.144531 5.902344 23.089844 5.820312 23.035156 5.738281 C 23.007812 5.628906 22.953125 5.542969 22.898438 5.460938 C 22.839844 5.378906 22.785156 5.269531 22.703125 5.1875 C 22.648438 5.101562 22.59375 5.019531 22.539062 4.9375 C 22.484375 4.855469 22.425781 4.773438 22.34375 4.691406 C 22.289062 4.605469 22.207031 4.550781 22.125 4.46875 C 22.070312 4.386719 21.984375 4.304688 21.902344 4.21875 C 21.847656 4.136719 21.765625 4.082031 21.683594 4 C 21.601562 3.945312 21.515625 3.890625 21.433594 3.835938 C 21.351562 3.75 21.269531 3.695312 21.1875 3.613281 C 21.101562 3.558594 21.019531 3.503906 20.910156 3.449219 C 20.828125 3.394531 20.746094 3.308594 20.632812 3.253906 C 20.550781 3.199219 20.46875 3.171875 20.359375 3.117188 C 20.277344 3.0625 20.191406 3.035156 20.082031 2.980469 C 20 2.925781 19.890625 2.898438 19.78125 2.839844 C 19.695312 2.785156 19.585938 2.757812 19.476562 2.703125 C 19.367188 2.675781 19.253906 2.648438 19.144531 2.621094 C 19.0625 2.59375 18.953125 2.566406 18.839844 2.539062 C 18.730469 2.511719 18.621094 2.484375 18.511719 2.457031 C 18.398438 2.425781 18.289062 2.398438 18.179688 2.371094 C 18.070312 2.371094 17.957031 2.371094 17.847656 2.371094 C 17.738281 2.34375 17.628906 2.34375 17.515625 2.316406 C 17.40625 2.316406 17.296875 2.316406 17.160156 2.316406 C 17.046875 2.316406 16.9375 2.316406 16.800781 2.316406 C 16.691406 2.316406 16.578125 2.34375 16.46875 2.34375 C 16.386719 2.34375 16.277344 2.371094 16.164062 2.371094 C 16.054688 2.398438 15.945312 2.398438 15.835938 2.425781 C 15.722656 2.457031 15.613281 2.511719 15.503906 2.539062 C 15.394531 2.566406 15.28125 2.566406 15.171875 2.59375 C 15.0625 2.621094 14.953125 2.675781 14.867188 2.703125 C 14.757812 2.730469 14.648438 2.785156 14.566406 2.8125 C 14.457031 2.867188 14.34375 2.898438 14.261719 2.953125 C 14.152344 3.007812 14.042969 3.035156 13.957031 3.089844 C 13.847656 3.144531 13.765625 3.199219 13.683594 3.253906 C 13.574219 3.308594 13.488281 3.367188 13.40625 3.421875 C 13.324219 3.476562 13.242188 3.53125 13.160156 3.585938 C 13.074219 3.640625 12.992188 3.722656 12.910156 3.78125 C 12.828125 3.863281 12.746094 3.917969 12.660156 4 C 12.578125 4.054688 12.496094 4.136719 12.414062 4.191406 C 12.332031 4.277344 12.25 4.359375 12.191406 4.441406 C 12.109375 4.523438 12.054688 4.578125 12 4.660156 C 11.917969 4.746094 11.863281 4.828125 11.808594 4.910156 C 11.722656 4.992188 11.667969 5.074219 11.613281 5.160156 C 11.53125 5.242188 11.476562 5.351562 11.421875 5.433594 C 11.367188 5.515625 11.308594 5.601562 11.253906 5.683594 C 11.199219 5.765625 11.144531 5.847656 11.117188 5.957031 C 11.0625 6.042969 11.007812 6.152344 10.980469 6.261719 C 10.925781 6.34375 10.898438 6.457031 10.867188 6.566406 C 10.8125 6.648438 10.785156 6.730469 10.757812 6.839844 C 10.730469 6.925781 10.703125 7.035156 10.675781 7.144531 C 10.648438 7.253906 10.621094 7.367188 10.59375 7.476562 C 10.566406 7.558594 10.539062 7.667969 10.539062 7.78125 C 10.511719 7.890625 10.484375 8 10.484375 8.109375 C 10.457031 8.21875 10.457031 8.332031 10.457031 8.441406 C 10.457031 8.550781 10.457031 8.660156 10.457031 8.773438 C 10.457031 8.882812 10.457031 8.992188 10.457031 9.101562 Z M 10.457031 9.101562 "/>
<path fill="none" stroke-width="1" stroke-linecap="butt" stroke-linejoin="miter" stroke="rgb(0%, 0%, 100%)" stroke-opacity="1" stroke-miterlimit="4" d="M 321.010742 319.02832 C 321.010742 313.930664 322.001953 308.974609 322.001953 304.018555 C 322.001953 299.0625 322.993164 293.964844 322.993164 289.008789 C 322.993164 284.052734 323.984375 278.955078 323.984375 274.990234 C 324.975586 270.03418 325.966797 264.936523 326.958008 259.980469 C 327.949219 255.024414 328.94043 250.068359 329.931641 245.961914 C 332.055664 241.005859 333.046875 236.049805 335.029297 231.943359 C 337.011719 226.987305 338.00293 222.03125 339.985352 218.066406 C 341.967773 212.96875 342.958984 209.003906 344.941406 205.039062 C 347.06543 199.941406 349.047852 195.976562 351.030273 192.011719 C 353.012695 188.046875 354.995117 183.94043 357.96875 179.975586 C 359.951172 176.010742 361.933594 171.054687 365.048828 166.948242 C 367.03125 162.983398 369.013672 159.018555 371.987305 155.053711 C 374.960937 150.947266 377.93457 147.973633 381.049805 144.008789 C 384.023437 140.043945 386.99707 137.070312 389.970703 132.963867 C 392.944336 128.999023 396.05957 126.025391 400.024414 122.060547 C 402.998047 118.945312 405.97168 114.980469 408.945312 112.006836 C 412.060547 109.033203 416.025391 105.068359 419.990234 101.953125 C 422.963867 98.979492 425.9375 96.005859 430.043945 93.032227 C 434.008789 90.058594 437.973633 86.943359 441.938477 83.969727 C 445.053711 80.996094 449.018555 79.013672 452.983398 76.040039 C 456.948242 74.057617 461.054687 70.942383 466.010742 68.959961 C 469.975586 66.977539 473.94043 64.003906 478.046875 62.021484 C 482.011719 60.039062 486.967773 57.06543 492.06543 54.941406 C 496.030273 52.958984 499.995117 50.976562 504.951172 48.994141 C 509.057617 47.011719 513.022461 46.020508 517.978516 44.038086 C 521.943359 42.055664 527.041016 41.064453 531.99707 38.94043 C 536.953125 37.949219 542.050781 35.966797 547.006836 34.975586 C 550.97168 33.984375 556.069336 32.993164 561.025391 32.001953 C 565.981445 31.010742 570.9375 30.019531 576.035156 29.02832 C 580.991211 29.02832 585.947266 28.037109 591.044922 28.037109 C 596.000977 28.037109 599.96582 27.045898 605.063477 27.045898 C 611.010742 27.045898 615.966797 26.054687 621.064453 26.054687 C 626.020508 26.054687 630.976562 27.045898 635.932617 27.045898 C 641.030273 27.045898 645.986328 28.037109 650.942383 28.037109 C 656.040039 28.037109 660.996094 29.02832 665.952148 29.02832 C 671.049805 30.019531 676.005859 31.010742 680.961914 32.001953 C 686.05957 32.993164 691.015625 33.984375 694.980469 34.975586 C 699.936523 35.966797 705.03418 37.949219 709.990234 38.94043 C 714.946289 41.064453 719.052734 42.055664 723.017578 44.038086 C 727.973633 46.020508 732.929687 47.011719 737.036133 48.994141 C 741.992187 50.976562 746.948242 52.958984 751.054687 54.941406 C 756.010742 57.06543 759.975586 59.047852 763.94043 61.030273 C 768.046875 63.012695 772.011719 65.986328 775.976562 67.96875 C 779.941406 69.951172 784.047852 73.066406 788.012695 75.048828 C 791.977539 78.022461 795.942383 80.004883 800.048828 82.978516 C 804.013672 85.952148 807.978516 89.067383 810.952148 92.041016 C 815.058594 95.014648 819.023437 97.988281 822.988281 100.961914 C 826.953125 103.935547 830.068359 107.050781 833.041992 110.024414 C 837.006836 113.989258 839.980469 116.962891 842.954102 121.069336 C 846.069336 125.03418 849.042969 128.007812 852.016602 131.972656 C 854.990234 135.9375 858.955078 139.052734 862.070312 143.017578 C 865.043945 146.982422 867.026367 149.956055 870 154.0625 C 872.973633 158.027344 874.956055 161.992187 877.929687 165.957031 C 880.053711 170.063477 883.027344 174.02832 885.009766 177.993164 C 886.992187 181.958008 889.96582 187.055664 891.948242 191.020508 C 893.930664 194.985352 896.054687 199.941406 898.037109 204.047852 C 900.019531 208.012695 902.001953 211.977539 903.984375 216.933594 C 904.975586 221.040039 906.958008 225.996094 907.949219 230.952148 C 908.94043 235.058594 911.064453 240.014648 912.055664 244.970703 C 913.046875 248.935547 915.029297 254.033203 916.020508 258.989258 C 917.011719 262.954102 917.011719 268.051758 918.00293 273.007812 C 918.994141 277.963867 919.985352 283.061523 920.976562 288.017578 C 920.976562 292.973633 921.967773 297.929687 921.967773 303.027344 C 921.967773 307.983398 921.967773 312.939453 921.967773 318.037109 C 921.967773 322.993164 921.967773 327.949219 921.967773 333.046875 C 921.967773 338.00293 920.976562 342.958984 920.976562 348.056641 C 919.985352 353.012695 919.985352 357.96875 918.994141 363.066406 C 918.00293 367.03125 917.011719 371.987305 916.020508 376.943359 C 915.029297 381.049805 914.038086 386.005859 913.046875 390.961914 C 912.055664 395.068359 909.931641 400.024414 908.94043 404.980469 C 906.958008 408.945312 905.966797 414.042969 903.984375 418.999023 C 902.001953 422.963867 901.010742 427.070312 899.02832 432.026367 C 897.045898 435.991211 895.063477 439.956055 892.939453 445.053711 C 890.957031 449.018555 887.983398 452.983398 886.000977 456.948242 C 884.018555 461.054687 881.044922 465.019531 879.0625 469.975586 C 875.947266 473.94043 872.973633 478.046875 870 482.011719 C 868.017578 484.985352 865.043945 488.950195 863.061523 493.056641 C 859.946289 497.021484 855.981445 500.986328 853.007812 504.951172 C 850.03418 508.066406 847.060547 512.03125 843.945312 515.996094 C 840.97168 518.969727 837.998047 521.943359 834.033203 525.058594 C 831.05957 528.032227 826.953125 531.005859 822.988281 534.970703 C 820.014648 537.944336 816.049805 541.05957 811.943359 544.033203 C 808.969727 547.006836 805.004883 549.980469 801.040039 552.954102 C 796.933594 554.936523 792.96875 558.051758 789.003906 561.025391 C 785.039062 563.007812 780.932617 565.981445 776.967773 568.955078 C 773.00293 570.9375 769.038086 573.061523 764.931641 575.043945 C 760.966797 577.026367 757.001953 579.008789 752.045898 581.982422 C 747.939453 583.964844 743.974609 585.947266 739.018555 586.938477 C 735.053711 589.0625 729.956055 591.044922 725 592.036133 C 721.035156 594.018555 715.9375 596.000977 710.981445 596.992187 C 707.016602 598.974609 702.060547 599.96582 696.962891 600.957031 C 692.006836 601.948242 687.050781 602.939453 681.953125 603.930664 C 677.988281 605.063477 673.032227 606.054687 667.93457 607.045898 C 662.978516 608.037109 658.022461 609.02832 651.933594 609.02832 C 646.977539 610.019531 642.021484 610.019531 637.06543 610.019531 C 631.967773 610.019531 627.011719 610.019531 622.055664 610.019531 C 616.958008 610.019531 612.001953 610.019531 606.054687 610.019531 C 600.957031 610.019531 596.992187 610.019531 592.036133 609.02832 C 586.938477 609.02832 581.982422 608.037109 577.026367 607.045898 C 572.070312 606.054687 566.972656 605.063477 563.007812 603.930664 C 557.060547 602.939453 551.962891 601.948242 547.006836 600.957031 C 542.050781 599.96582 537.944336 598.974609 533.979492 597.983398 C 529.023437 596.000977 524.067383 594.018555 519.960937 592.036133 C 515.004883 591.044922 510.048828 589.0625 505.942383 586.938477 C 500.986328 585.947266 497.021484 583.964844 493.056641 581.982422 C 487.958984 580 483.994141 578.017578 480.029297 576.035156 C 474.931641 573.061523 470.966797 570.9375 467.001953 568.955078 C 463.037109 565.981445 458.930664 563.999023 454.96582 562.016602 C 451.000977 559.042969 447.036133 556.069336 442.929687 552.954102 C 438.964844 549.980469 435 547.006836 432.026367 545.024414 C 428.061523 542.050781 423.955078 538.935547 420.981445 535.961914 C 417.016602 531.99707 413.051758 529.023437 409.936523 526.049805 C 405.97168 521.943359 402.998047 518.969727 400.024414 515.996094 C 397.050781 512.03125 393.935547 508.066406 390.961914 504.951172 C 387.988281 500.986328 385.014648 497.021484 382.041016 494.047852 C 379.067383 489.941406 375.952148 485.976562 372.978516 483.00293 C 370.004883 479.038086 367.03125 474.931641 365.048828 470.966797 C 363.066406 467.001953 360.942383 463.037109 358.959961 458.930664 C 355.986328 453.974609 354.003906 450.009766 352.021484 446.044922 C 350.039062 441.938477 348.056641 437.973633 345.932617 434.008789 C 343.950195 429.052734 341.967773 423.955078 339.985352 419.990234 C 338.994141 415.03418 337.011719 409.936523 336.020508 405.97168 C 334.038086 401.015625 333.046875 397.050781 331.064453 392.944336 C 329.931641 387.988281 328.94043 383.032227 327.949219 379.067383 C 326.958008 373.969727 325.966797 369.013672 324.975586 364.057617 C 323.984375 358.959961 323.984375 354.003906 322.993164 349.047852 C 322.993164 343.950195 322.001953 338.994141 322.001953 334.038086 C 322.001953 328.94043 321.010742 323.984375 321.010742 319.02832 Z M 321.010742 319.02832 " transform="matrix(0.0275862, 0, 0, 0.0275862, 0, 0)"/>
<path fill="none" stroke-width="1" stroke-linecap="butt" stroke-linejoin="miter" stroke="rgb(0%, 0%, 100%)" stroke-opacity="1" stroke-miterlimit="4" d="M 379.067383 329.931641 C 379.067383 334.038086 379.067383 338.00293 380.058594 341.967773 C 380.058594 344.941406 381.049805 349.047852 382.041016 353.012695 C 382.041016 356.977539 382.041016 360.942383 383.032227 365.048828 C 384.023437 368.022461 385.014648 371.987305 386.005859 375.952148 C 386.99707 379.067383 387.988281 383.032227 388.979492 386.99707 C 389.970703 390.961914 391.953125 395.068359 393.935547 399.033203 C 395.068359 402.006836 396.05957 404.980469 398.041992 408.945312 C 399.033203 412.060547 400.024414 415.03418 402.006836 418.999023 C 402.998047 421.972656 404.980469 424.946289 406.962891 429.052734 C 408.945312 432.026367 411.069336 435.991211 413.051758 439.956055 C 415.03418 442.929687 417.016602 446.044922 419.990234 449.018555 C 421.972656 451.992187 423.955078 454.96582 425.9375 457.939453 C 428.061523 461.054687 431.035156 464.02832 434.008789 467.001953 C 435.991211 468.984375 438.964844 471.958008 441.938477 474.931641 C 444.0625 478.046875 446.044922 481.020508 449.018555 483.994141 C 451.992187 485.976562 454.96582 488.950195 457.939453 492.06543 C 460.063477 494.047852 463.037109 496.030273 466.010742 499.003906 C 468.984375 500.986328 471.958008 502.96875 476.064453 505.942383 C 479.038086 508.066406 482.011719 510.048828 484.985352 512.03125 C 487.958984 514.013672 490.932617 515.996094 495.039062 518.969727 C 498.012695 519.960937 501.977539 521.943359 505.942383 524.067383 C 509.057617 525.058594 512.03125 527.041016 515.996094 529.023437 C 518.969727 530.014648 521.943359 531.99707 526.049805 533.979492 C 529.023437 534.970703 532.988281 536.953125 536.953125 538.935547 C 541.05957 540.068359 545.024414 541.05957 548.989258 542.050781 C 551.962891 543.041992 556.069336 544.033203 560.03418 546.015625 C 563.999023 546.015625 567.963867 547.006836 572.070312 547.998047 C 576.035156 548.989258 580 549.980469 583.964844 550.97168 C 587.929687 550.97168 592.036133 550.97168 596.000977 551.962891 C 599.96582 551.962891 603.930664 551.962891 608.037109 552.954102 C 612.993164 552.954102 616.958008 552.954102 621.064453 552.954102 C 625.029297 552.954102 628.994141 552.954102 632.958984 552.954102 C 638.056641 551.962891 642.021484 551.962891 645.986328 551.962891 C 649.951172 550.97168 654.057617 550.97168 658.022461 550.97168 C 661.987305 549.980469 665.952148 548.989258 670.058594 547.998047 C 674.023437 547.006836 677.988281 546.015625 681.953125 546.015625 C 686.05957 545.024414 690.024414 544.033203 693.989258 543.041992 C 697.954102 541.05957 702.060547 540.068359 705.03418 538.935547 C 708.999023 536.953125 712.963867 535.961914 715.9375 534.970703 C 720.043945 532.988281 724.008789 531.005859 726.982422 530.014648 C 730.947266 528.032227 734.0625 526.049805 737.036133 525.058594 C 741.000977 522.93457 743.974609 520.952148 746.948242 518.969727 C 751.054687 516.987305 754.02832 515.004883 757.001953 513.022461 C 760.966797 511.040039 763.94043 509.057617 767.055664 506.933594 C 770.029297 503.959961 773.00293 500.986328 775.976562 499.003906 C 778.950195 497.021484 782.06543 495.039062 785.039062 493.056641 C 788.012695 489.941406 790.986328 486.967773 793.959961 484.985352 C 796.933594 482.011719 799.057617 479.038086 801.040039 476.064453 C 804.013672 472.949219 806.987305 469.975586 808.969727 467.993164 C 811.943359 465.019531 814.067383 462.045898 816.049805 458.930664 C 819.023437 455.957031 821.005859 452.983398 822.988281 450.009766 C 824.970703 446.044922 826.953125 442.929687 828.935547 439.956055 C 831.05957 435.991211 833.041992 433.017578 835.024414 430.043945 C 837.006836 427.070312 838.989258 423.955078 840.97168 420.981445 C 842.954102 417.016602 844.936523 413.051758 846.069336 409.936523 C 848.051758 405.97168 849.042969 402.006836 850.03418 399.033203 C 851.025391 395.068359 852.016602 391.953125 853.007812 388.979492 C 853.999023 385.014648 855.981445 381.049805 856.972656 377.93457 C 857.963867 373.969727 857.963867 370.004883 858.955078 366.040039 C 859.946289 361.933594 860.9375 357.96875 862.070312 354.995117 C 863.061523 351.030273 863.061523 347.06543 864.052734 342.958984 C 864.052734 338.994141 864.052734 335.029297 864.052734 331.064453 C 864.052734 326.958008 864.052734 322.993164 864.052734 319.02832 C 864.052734 315.063477 864.052734 310.957031 864.052734 306.992187 C 864.052734 303.027344 864.052734 299.0625 864.052734 294.956055 C 863.061523 290.991211 863.061523 287.026367 862.070312 284.052734 C 860.9375 279.946289 859.946289 275.981445 858.955078 272.016602 C 857.963867 268.051758 857.963867 263.945312 856.972656 260.97168 C 855.981445 257.006836 854.990234 253.041992 853.999023 250.068359 C 853.007812 245.961914 852.016602 241.99707 850.03418 239.023437 C 849.042969 235.058594 848.051758 230.952148 846.069336 227.978516 C 844.936523 224.013672 842.954102 221.040039 840.97168 218.066406 C 838.989258 213.959961 837.006836 210.986328 835.024414 208.012695 C 834.033203 204.047852 832.050781 200.932617 830.068359 197.958984 C 827.944336 194.985352 825.961914 191.020508 822.988281 188.046875 C 821.005859 184.931641 819.023437 181.958008 817.041016 178.984375 C 815.058594 176.010742 812.93457 173.037109 809.960937 170.063477 C 807.978516 166.948242 805.004883 164.96582 802.03125 161.992187 C 800.048828 159.018555 796.933594 156.044922 793.959961 152.929687 C 791.977539 149.956055 789.003906 147.973633 786.030273 145 C 783.056641 143.017578 779.941406 141.035156 776.967773 139.052734 C 773.994141 135.9375 771.020508 133.955078 768.046875 130.981445 C 764.931641 128.999023 761.958008 127.016602 757.993164 125.03418 C 755.019531 123.051758 752.045898 119.936523 747.939453 117.954102 C 744.96582 115.97168 741.992187 114.980469 738.027344 112.998047 C 735.053711 111.015625 731.938477 110.024414 727.973633 108.041992 C 725 106.05957 721.035156 105.068359 717.070312 102.944336 C 713.955078 100.961914 709.990234 99.970703 706.025391 97.988281 C 702.060547 96.99707 697.954102 96.005859 693.989258 95.014648 C 691.015625 94.023437 687.050781 93.032227 682.944336 92.041016 C 678.979492 91.049805 675.014648 90.058594 671.049805 89.067383 C 666.943359 87.93457 662.978516 86.943359 659.013672 85.952148 C 655.048828 85.952148 650.942383 85.952148 646.977539 85.952148 C 643.012695 84.960937 639.047852 84.960937 634.941406 83.969727 C 630.976562 83.969727 627.011719 83.969727 622.055664 83.969727 C 617.949219 83.969727 613.984375 83.969727 609.02832 83.969727 C 605.063477 83.969727 600.957031 84.960937 596.992187 84.960937 C 594.018555 84.960937 590.053711 85.952148 585.947266 85.952148 C 581.982422 86.943359 578.017578 86.943359 574.052734 87.93457 C 569.946289 89.067383 565.981445 91.049805 562.016602 92.041016 C 558.051758 93.032227 553.945312 93.032227 549.980469 94.023437 C 546.015625 95.014648 542.050781 96.99707 538.935547 97.988281 C 534.970703 98.979492 531.005859 100.961914 528.032227 101.953125 C 524.067383 103.935547 519.960937 105.068359 516.987305 107.050781 C 513.022461 109.033203 509.057617 110.024414 505.942383 112.006836 C 501.977539 113.989258 499.003906 115.97168 496.030273 117.954102 C 492.06543 119.936523 488.950195 122.060547 485.976562 124.042969 C 483.00293 126.025391 480.029297 128.007812 477.055664 129.990234 C 473.94043 131.972656 470.966797 134.946289 467.993164 137.070312 C 465.019531 140.043945 462.045898 142.026367 458.930664 145 C 455.957031 146.982422 452.983398 149.956055 450.009766 151.938477 C 447.036133 155.053711 444.0625 158.027344 441.938477 161.000977 C 438.964844 163.974609 436.982422 165.957031 435 168.930664 C 432.026367 172.045898 430.043945 175.019531 428.061523 177.993164 C 424.946289 180.966797 422.963867 183.94043 420.981445 187.055664 C 418.007812 190.029297 416.025391 193.994141 414.042969 196.967773 C 412.060547 199.941406 409.936523 203.056641 407.954102 206.030273 C 405.97168 209.003906 403.989258 211.977539 402.998047 215.942383 C 401.015625 219.057617 399.033203 223.022461 398.041992 226.987305 C 396.05957 229.960937 395.068359 234.067383 393.935547 238.032227 C 391.953125 241.005859 390.961914 243.979492 389.970703 247.944336 C 388.979492 251.05957 387.988281 255.024414 386.99707 258.989258 C 386.005859 262.954102 385.014648 267.060547 384.023437 271.025391 C 383.032227 273.999023 382.041016 277.963867 382.041016 282.070312 C 381.049805 286.035156 380.058594 290 380.058594 293.964844 C 379.067383 297.929687 379.067383 302.036133 379.067383 306.000977 C 379.067383 309.96582 379.067383 313.930664 379.067383 318.037109 C 379.067383 322.001953 379.067383 325.966797 379.067383 329.931641 Z M 379.067383 329.931641 " transform="matrix(0.0275862, 0, 0, 0.0275862, 0, 0)"/>
<path fill-rule="nonzero" fill="rgb(0%, 0%, 100%)" fill-opacity="1" d="M 11.722656 10.8125 L 11.722656 6.8125 L 13.378906 6.8125 C 13.820312 6.8125 14.125 6.839844 14.316406 6.925781 C 14.511719 6.980469 14.648438 7.117188 14.757812 7.308594 C 14.898438 7.476562 14.953125 7.695312 14.953125 7.917969 C 14.953125 8.21875 14.867188 8.46875 14.675781 8.660156 C 14.511719 8.882812 14.261719 8.992188 13.902344 9.046875 C 14.070312 9.160156 14.207031 9.269531 14.316406 9.378906 C 14.425781 9.488281 14.59375 9.710938 14.785156 10.042969 L 15.253906 10.8125 L 14.316406 10.8125 L 13.738281 9.929688 C 13.515625 9.628906 13.378906 9.433594 13.324219 9.351562 C 13.242188 9.269531 13.160156 9.214844 13.074219 9.1875 C 12.992188 9.160156 12.855469 9.132812 12.660156 9.132812 L 12.523438 9.132812 L 12.523438 10.8125 Z M 12.523438 8.496094 L 13.101562 8.496094 C 13.488281 8.496094 13.710938 8.496094 13.820312 8.441406 C 13.902344 8.414062 13.984375 8.359375 14.042969 8.277344 C 14.097656 8.191406 14.125 8.109375 14.125 7.972656 C 14.125 7.835938 14.097656 7.722656 14.015625 7.640625 C 13.957031 7.558594 13.847656 7.53125 13.710938 7.503906 C 13.65625 7.476562 13.460938 7.476562 13.132812 7.476562 L 12.523438 7.476562 Z M 12.523438 8.496094 "/>
<path fill-rule="nonzero" fill="rgb(0%, 0%, 100%)" fill-opacity="1" d="M 15.640625 10.8125 C 15.640625 9.488281 15.640625 8.136719 15.640625 6.8125 C 16.523438 6.8125 17.433594 6.8125 18.34375 6.8125 C 18.34375 7.035156 18.34375 7.253906 18.34375 7.476562 C 17.710938 7.476562 17.074219 7.476562 16.441406 7.476562 C 16.441406 7.808594 16.441406 8.109375 16.441406 8.441406 C 16.964844 8.441406 17.515625 8.441406 18.070312 8.441406 C 18.070312 8.660156 18.070312 8.882812 18.070312 9.101562 C 17.515625 9.101562 16.964844 9.101562 16.441406 9.101562 C 16.441406 9.683594 16.441406 10.234375 16.441406 10.8125 Z M 15.640625 10.8125 "/>
<path fill-rule="nonzero" fill="rgb(0%, 0%, 100%)" fill-opacity="1" d="M 18.8125 8.828125 C 18.8125 8.414062 18.867188 8.082031 18.980469 7.808594 C 19.089844 7.613281 19.199219 7.421875 19.367188 7.253906 C 19.503906 7.089844 19.667969 6.980469 19.863281 6.898438 C 20.109375 6.785156 20.386719 6.730469 20.71875 6.730469 C 21.296875 6.730469 21.765625 6.925781 22.125 7.28125 C 22.457031 7.640625 22.648438 8.164062 22.648438 8.828125 C 22.648438 9.460938 22.457031 9.957031 22.125 10.34375 C 21.765625 10.703125 21.296875 10.867188 20.71875 10.867188 C 20.136719 10.867188 19.667969 10.703125 19.339844 10.34375 C 18.980469 9.984375 18.8125 9.460938 18.8125 8.828125 Z M 19.640625 8.800781 C 19.640625 9.269531 19.722656 9.601562 19.945312 9.847656 C 20.136719 10.070312 20.414062 10.179688 20.71875 10.179688 C 21.046875 10.179688 21.296875 10.070312 21.515625 9.847656 C 21.710938 9.601562 21.820312 9.269531 21.820312 8.800781 C 21.820312 8.332031 21.710938 8 21.515625 7.78125 C 21.324219 7.53125 21.046875 7.421875 20.71875 7.421875 C 20.386719 7.421875 20.136719 7.53125 19.917969 7.78125 C 19.722656 8 19.640625 8.359375 19.640625 8.800781 Z M 19.640625 8.800781 "/>
</svg>
