<?xml version="1.0" encoding="UTF-8"?>
<svg xmlns="http://www.w3.org/2000/svg" xmlns:xlink="http://www.w3.org/1999/xlink" width="32" height="22.131667" viewBox="0 0 32 22.131667">
<path fill-rule="evenodd" fill="rgb(100%, 7.843137%, 8.235294%)" fill-opacity="1" d="M 26.71875 10.316406 L 27.386719 12.1875 L 27.453125 12.1875 L 27.503906 12.171875 L 27.710938 12.171875 L 27.761719 12.1875 L 28.105469 12.1875 L 28.105469 10.179688 L 28.894531 10.179688 L 28.894531 12.1875 L 29.679688 12.1875 L 29.679688 10.179688 L 30.46875 10.179688 L 30.46875 12.1875 L 31.222656 12.1875 L 31.222656 12.945312 L 27.675781 12.945312 L 27.589844 12.960938 L 27.523438 12.976562 L 27.453125 12.976562 L 27.367188 12.996094 L 27.300781 13.03125 L 27.230469 13.046875 L 27.164062 13.0625 L 27.113281 13.097656 L 27.042969 13.132812 L 26.992188 13.167969 L 26.941406 13.199219 L 26.890625 13.234375 L 26.835938 13.285156 L 26.785156 13.339844 L 26.734375 13.390625 L 26.699219 13.441406 L 26.648438 13.496094 L 26.613281 13.546875 L 26.578125 13.613281 L 26.546875 13.683594 L 26.511719 13.75 L 26.476562 13.820312 L 26.460938 13.890625 L 26.441406 13.976562 L 26.410156 14.042969 L 26.390625 14.128906 L 26.375 14.214844 L 26.355469 14.300781 L 26.355469 14.402344 L 26.339844 14.488281 L 26.324219 14.679688 L 26.304688 14.867188 L 26.269531 15.039062 L 26.238281 15.230469 L 26.1875 15.402344 L 26.152344 15.570312 L 26.101562 15.742188 L 26.03125 15.914062 L 25.980469 16.089844 L 25.910156 16.242188 L 25.84375 16.414062 L 25.773438 16.570312 L 25.6875 16.742188 L 25.601562 16.894531 L 25.515625 17.050781 L 25.414062 17.203125 L 25.3125 17.34375 L 25.210938 17.496094 L 25.105469 17.652344 L 24.988281 17.789062 L 24.746094 18.0625 L 24.335938 18.472656 L 24.199219 18.613281 L 24.042969 18.734375 L 23.890625 18.871094 L 23.71875 18.992188 L 23.5625 19.109375 L 23.394531 19.230469 L 23.222656 19.351562 L 23.03125 19.472656 L 22.863281 19.589844 L 22.671875 19.695312 L 22.296875 19.898438 L 22.105469 20.003906 L 21.917969 20.089844 L 21.710938 20.175781 L 21.523438 20.261719 L 21.320312 20.347656 L 21.113281 20.433594 L 20.90625 20.503906 L 20.703125 20.570312 L 20.496094 20.640625 L 20.289062 20.707031 L 20.066406 20.777344 L 19.84375 20.828125 L 19.640625 20.878906 L 19.398438 20.929688 L 19.175781 20.984375 L 18.953125 21.015625 L 18.730469 21.050781 L 18.492188 21.085938 L 18.25 21.121094 L 18.027344 21.152344 L 17.789062 21.171875 L 17.550781 21.1875 L 17.292969 21.207031 L 17.050781 21.222656 L 16.796875 21.238281 L 15.902344 21.238281 L 15.765625 21.222656 L 15.375 21.222656 L 15.253906 21.207031 L 15.117188 21.207031 L 14.996094 21.1875 L 14.859375 21.171875 L 14.738281 21.15625 L 14.601562 21.15625 L 14.480469 21.136719 L 14.363281 21.121094 L 14.222656 21.101562 L 14.105469 21.085938 L 13.984375 21.070312 L 13.863281 21.050781 L 13.726562 21.035156 L 13.609375 21 L 13.488281 20.984375 L 13.367188 20.964844 L 13.25 20.929688 L 13.128906 20.914062 L 12.886719 20.84375 L 12.769531 20.828125 L 12.648438 20.792969 L 12.527344 20.761719 L 12.40625 20.726562 L 12.289062 20.691406 L 12.132812 20.65625 L 11.996094 20.605469 L 11.84375 20.554688 L 11.707031 20.503906 L 11.550781 20.449219 L 11.140625 20.296875 L 10.984375 20.226562 L 10.867188 20.175781 L 10.730469 20.125 L 10.589844 20.054688 L 10.453125 19.988281 L 10.335938 19.933594 L 10.195312 19.867188 L 10.078125 19.796875 L 9.941406 19.730469 L 9.820312 19.660156 L 9.703125 19.589844 L 9.582031 19.503906 L 9.460938 19.4375 L 9.339844 19.367188 L 9.222656 19.28125 L 9.117188 19.195312 L 8.996094 19.128906 L 8.878906 19.042969 L 8.773438 18.957031 L 8.671875 18.871094 L 8.550781 18.785156 L 8.347656 18.613281 L 8.242188 18.507812 L 8.125 18.40625 L 8.019531 18.304688 L 7.902344 18.183594 L 7.800781 18.0625 L 7.695312 17.960938 L 7.59375 17.839844 L 7.507812 17.71875 L 7.40625 17.597656 L 7.320312 17.496094 L 7.148438 17.253906 L 7.078125 17.136719 L 6.992188 17.015625 L 6.925781 16.878906 L 6.855469 16.757812 L 6.804688 16.636719 L 6.734375 16.5 L 6.683594 16.378906 L 6.632812 16.261719 L 6.582031 16.121094 L 6.53125 16 L 6.425781 15.589844 L 6.394531 15.46875 L 6.375 15.332031 L 6.339844 15.195312 L 6.324219 15.058594 L 6.308594 14.917969 L 6.308594 14.78125 L 6.289062 14.644531 L 6.289062 8.855469 L 6.273438 8.683594 L 6.273438 8.53125 L 6.253906 8.375 L 6.238281 8.222656 L 6.222656 8.066406 L 6.203125 7.910156 L 6.171875 7.773438 L 6.152344 7.621094 L 6.117188 7.480469 L 6.066406 7.328125 L 6.03125 7.191406 L 6 7.035156 L 5.949219 6.898438 L 5.898438 6.757812 L 5.84375 6.621094 L 5.777344 6.503906 L 5.726562 6.363281 L 5.65625 6.226562 L 5.589844 6.109375 L 5.519531 5.96875 L 5.449219 5.851562 L 5.367188 5.730469 L 5.28125 5.59375 L 5.109375 5.351562 L 5.023438 5.25 L 4.917969 5.128906 L 4.816406 5.007812 L 4.714844 4.90625 L 4.609375 4.785156 L 4.386719 4.5625 L 4.269531 4.460938 L 4.164062 4.375 L 4.046875 4.269531 L 3.925781 4.183594 L 3.804688 4.082031 L 3.6875 3.996094 L 3.566406 3.910156 L 3.445312 3.839844 L 3.324219 3.753906 L 3.1875 3.6875 L 3.070312 3.617188 L 2.933594 3.546875 L 2.8125 3.496094 L 2.675781 3.429688 L 2.535156 3.378906 L 2.417969 3.324219 L 2.144531 3.222656 L 1.871094 3.152344 L 1.714844 3.101562 L 1.578125 3.085938 L 1.441406 3.050781 L 1.285156 3.015625 L 1.148438 3 L 0.996094 2.984375 L 0.859375 2.964844 L 0.703125 2.949219 L 0.242188 2.949219 L 0.242188 2.105469 L 0.875 2.105469 L 1.199219 0.214844 L 1.988281 0.335938 L 1.527344 2.191406 L 1.5625 2.191406 L 1.59375 2.207031 L 1.664062 2.226562 L 1.75 2.242188 L 1.871094 2.277344 L 1.988281 2.328125 L 2.144531 2.378906 L 2.332031 2.429688 L 3 0.628906 L 3.738281 0.886719 L 3 2.601562 L 3.050781 2.621094 L 3.121094 2.65625 L 3.1875 2.6875 L 3.273438 2.722656 L 3.359375 2.773438 L 3.445312 2.828125 L 3.550781 2.878906 L 3.667969 2.949219 L 4.746094 1.382812 L 5.449219 1.8125 L 4.25 3.359375 L 4.320312 3.410156 L 4.386719 3.460938 L 4.457031 3.515625 L 4.542969 3.582031 L 4.609375 3.632812 L 4.679688 3.703125 L 4.746094 3.753906 L 4.832031 3.824219 L 6.410156 2.570312 L 6.957031 3.1875 L 5.332031 4.238281 L 5.363281 4.289062 L 5.417969 4.339844 L 5.46875 4.40625 L 5.519531 4.492188 L 5.605469 4.597656 L 5.675781 4.699219 L 5.777344 4.820312 L 5.878906 4.957031 L 7.660156 4.0625 L 8.070312 4.734375 L 6.238281 5.542969 L 6.339844 5.714844 L 6.394531 5.800781 L 6.445312 5.886719 L 6.496094 5.988281 L 6.53125 6.089844 L 6.582031 6.195312 L 6.617188 6.296875 L 8.671875 5.78125 L 8.828125 6.589844 L 6.871094 6.96875 L 6.890625 7.019531 L 6.90625 7.105469 L 6.941406 7.191406 L 6.957031 7.277344 L 6.976562 7.394531 L 6.992188 7.5 L 7.027344 7.621094 L 7.042969 7.757812 L 9.117188 7.636719 L 9.203125 8.460938 L 7.199219 8.460938 L 7.199219 9.421875 L 9.203125 9.421875 L 9.203125 10.179688 L 7.199219 10.179688 L 7.199219 11.019531 L 9.203125 11.019531 L 9.203125 11.808594 L 7.199219 11.808594 L 7.199219 12.617188 L 9.203125 12.617188 L 9.203125 13.410156 L 7.199219 13.410156 L 7.199219 14.335938 L 9.082031 14.199219 L 9.203125 15.003906 L 7.199219 15.125 L 7.199219 15.230469 L 7.179688 15.28125 L 7.179688 15.382812 L 7.199219 15.433594 L 7.199219 15.589844 L 7.214844 15.640625 L 7.234375 15.691406 L 7.234375 15.742188 L 7.25 15.796875 L 7.265625 15.847656 L 7.285156 15.898438 L 7.300781 15.949219 L 7.320312 16 L 7.351562 16.054688 L 7.371094 16.105469 L 7.40625 16.15625 L 7.421875 16.207031 L 7.457031 16.261719 L 7.492188 16.3125 L 7.523438 16.363281 L 7.628906 16.515625 L 7.679688 16.550781 L 7.714844 16.601562 L 7.765625 16.652344 L 7.796875 16.707031 L 7.851562 16.757812 L 9.617188 15.675781 L 10.078125 16.398438 L 8.414062 17.460938 L 8.484375 17.546875 L 8.550781 17.632812 L 8.707031 17.789062 L 8.773438 17.875 L 8.84375 17.941406 L 9.050781 18.148438 L 9.136719 18.21875 L 9.203125 18.269531 L 9.273438 18.320312 L 9.339844 18.371094 L 9.410156 18.421875 L 9.476562 18.472656 L 9.546875 18.507812 L 10.710938 16.964844 L 11.378906 17.460938 L 10.28125 18.972656 L 10.351562 19.042969 L 10.417969 19.09375 L 10.488281 19.144531 L 10.558594 19.179688 L 10.625 19.230469 L 10.695312 19.28125 L 10.78125 19.316406 L 10.847656 19.351562 L 10.933594 19.386719 L 11.019531 19.417969 L 11.089844 19.453125 L 11.175781 19.488281 L 11.261719 19.503906 L 11.347656 19.523438 L 11.449219 19.558594 L 11.535156 19.574219 L 12.289062 17.839844 L 13.042969 18.148438 L 12.339844 19.867188 L 12.460938 19.882812 L 12.578125 19.917969 L 12.734375 19.96875 L 12.886719 20.003906 L 13.058594 20.054688 L 13.230469 20.089844 L 13.417969 20.140625 L 13.625 20.191406 L 13.96875 18.355469 L 14.789062 18.472656 L 14.464844 20.3125 L 14.550781 20.347656 L 14.652344 20.363281 L 14.738281 20.382812 L 14.824219 20.398438 L 14.925781 20.417969 L 15.097656 20.449219 L 15.183594 20.449219 L 15.269531 20.46875 L 15.714844 20.46875 L 15.800781 20.449219 L 15.886719 20.449219 L 15.886719 18.507812 L 16.761719 18.507812 L 16.761719 20.449219 L 16.847656 20.449219 L 16.933594 20.46875 L 17.378906 20.46875 L 17.464844 20.449219 L 17.550781 20.449219 L 17.632812 20.433594 L 17.738281 20.417969 L 17.824219 20.398438 L 17.910156 20.382812 L 17.992188 20.363281 L 18.078125 20.347656 L 18.164062 20.3125 L 17.839844 18.472656 L 18.714844 18.355469 L 19.039062 20.195312 L 19.160156 20.175781 L 19.28125 20.140625 L 19.433594 20.109375 L 19.585938 20.074219 L 19.757812 20.023438 L 19.949219 19.96875 L 20.152344 19.917969 L 20.375 19.867188 L 19.640625 18.148438 L 20.425781 17.839844 L 21.183594 19.574219 L 21.25 19.558594 L 21.320312 19.523438 L 21.386719 19.503906 L 21.472656 19.472656 L 21.539062 19.453125 L 21.625 19.417969 L 21.695312 19.386719 L 21.78125 19.351562 L 21.851562 19.300781 L 21.9375 19.265625 L 22.019531 19.214844 L 22.089844 19.164062 L 22.175781 19.109375 L 22.261719 19.058594 L 22.347656 18.992188 L 22.433594 18.9375 L 21.300781 17.460938 L 21.96875 16.964844 L 23.171875 18.507812 L 23.238281 18.476562 L 23.308594 18.421875 L 23.375 18.355469 L 23.441406 18.304688 L 23.511719 18.25 L 23.582031 18.183594 L 23.648438 18.132812 L 23.71875 18.0625 L 23.785156 17.992188 L 23.855469 17.925781 L 23.921875 17.839844 L 23.992188 17.769531 L 24.0625 17.703125 L 24.128906 17.617188 L 24.199219 17.53125 L 24.265625 17.445312 L 22.636719 16.378906 L 23.050781 15.65625 L 24.765625 16.757812 L 24.796875 16.722656 L 24.832031 16.671875 L 24.867188 16.636719 L 24.902344 16.585938 L 24.933594 16.535156 L 24.96875 16.5 L 25.039062 16.398438 L 25.054688 16.363281 L 25.125 16.261719 L 25.140625 16.207031 L 25.15625 16.15625 L 25.191406 16.105469 L 25.210938 16.054688 L 25.226562 16 L 25.242188 15.949219 L 25.261719 15.898438 L 25.277344 15.847656 L 25.296875 15.796875 L 25.3125 15.742188 L 25.328125 15.675781 L 25.328125 15.625 L 25.347656 15.570312 L 25.347656 15.503906 L 25.363281 15.453125 L 25.363281 15.382812 L 25.378906 15.332031 L 25.378906 15.089844 L 23.257812 14.917969 L 23.339844 14.078125 L 23.582031 14.078125 L 23.71875 14.09375 L 24.027344 14.09375 L 24.199219 14.113281 L 24.386719 14.128906 L 24.59375 14.144531 L 24.761719 14.164062 L 24.917969 14.164062 L 25.074219 14.179688 L 25.191406 14.179688 L 25.3125 14.199219 L 25.585938 14.199219 L 25.601562 14.148438 L 25.601562 13.992188 L 25.621094 13.90625 L 25.636719 13.820312 L 25.671875 13.71875 L 25.6875 13.613281 L 25.722656 13.511719 L 23.804688 12.480469 L 24.214844 11.777344 L 26.015625 12.859375 L 26.101562 12.789062 L 26.1875 12.703125 L 26.269531 12.636719 L 26.355469 12.582031 L 26.425781 12.53125 L 26.511719 12.480469 L 26.5625 12.445312 L 26.632812 12.414062 L 25.84375 10.609375 Z M 13.453125 15.003906 L 14.121094 11.894531 L 15.011719 12.789062 L 27.46875 0.214844 L 28.105469 0.921875 L 15.628906 13.441406 L 16.539062 14.335938 Z M 13.453125 15.003906 "/>
</svg>
