<?xml version="1.0" encoding="UTF-8"?>
<svg xmlns="http://www.w3.org/2000/svg" xmlns:xlink="http://www.w3.org/1999/xlink" width="32" height="32" viewBox="0 0 32 32">
<path fill-rule="nonzero" fill="rgb(0%, 0%, 100%)" fill-opacity="1" stroke-width="1" stroke-linecap="butt" stroke-linejoin="miter" stroke="rgb(0%, 0%, 100%)" stroke-opacity="1" stroke-miterlimit="4" d="M 221.040039 20.957031 L 937.96875 20.957031 L 937.96875 1110.014648 L 221.040039 1110.014648 Z M 306.000977 1067.958984 L 263.945312 1025.053711 L 896.054687 1025.053711 L 853.999023 1067.958984 L 853.999023 63.012695 L 896.054687 106.05957 L 263.945312 106.05957 L 306.000977 63.012695 Z M 306.000977 1067.958984 " transform="matrix(0.0275862, 0, 0, 0.0275862, 0, 0)"/>
<path fill-rule="nonzero" fill="rgb(0%, 0%, 100%)" fill-opacity="1" stroke-width="1" stroke-linecap="butt" stroke-linejoin="miter" stroke="rgb(0%, 0%, 100%)" stroke-opacity="1" stroke-miterlimit="4" d="M 286.035156 589.0625 L 867.026367 589.0625 L 867.026367 644.995117 L 286.035156 644.995117 Z M 286.035156 589.0625 " transform="matrix(0.0275862, 0, 0, 0.0275862, 0, 0)"/>
<path fill-rule="nonzero" fill="rgb(0%, 0%, 100%)" fill-opacity="1" stroke-width="1" stroke-linecap="butt" stroke-linejoin="miter" stroke="rgb(0%, 0%, 100%)" stroke-opacity="1" stroke-miterlimit="4" d="M 289.008789 461.054687 L 870 461.054687 L 870 515.004883 L 289.008789 515.004883 Z M 289.008789 461.054687 " transform="matrix(0.0275862, 0, 0, 0.0275862, 0, 0)"/>
</svg>
