<?xml version="1.0" encoding="UTF-8"?>
<svg xmlns="http://www.w3.org/2000/svg" xmlns:xlink="http://www.w3.org/1999/xlink" width="32" height="32" viewBox="0 0 32 32">
<path fill-rule="nonzero" fill="rgb(0%, 0%, 100%)" fill-opacity="1" stroke-width="1" stroke-linecap="butt" stroke-linejoin="miter" stroke="rgb(0%, 0%, 100%)" stroke-opacity="1" stroke-miterlimit="4" d="M 853.007812 534.970703 L 251.05957 534.970703 L 251.05957 487.958984 L 853.007812 487.958984 Z M 853.007812 534.970703 " transform="matrix(0.0275862, 0, 0, 0.0275862, 0, 0)"/>
<path fill-rule="nonzero" fill="rgb(0%, 0%, 100%)" fill-opacity="1" stroke-width="1" stroke-linecap="butt" stroke-linejoin="miter" stroke="rgb(0%, 0%, 100%)" stroke-opacity="1" stroke-miterlimit="4" d="M 209.995117 28.037109 L 911.064453 28.037109 L 911.064453 1077.021484 L 209.995117 1077.021484 Z M 291.982422 1035.957031 L 251.05957 996.025391 L 870 996.025391 L 828.935547 1035.957031 L 828.935547 68.959961 L 870 110.024414 L 251.05957 110.024414 L 291.982422 68.959961 Z M 291.982422 1035.957031 " transform="matrix(0.0275862, 0, 0, 0.0275862, 0, 0)"/>
<path fill-rule="nonzero" fill="rgb(0%, 0%, 100%)" fill-opacity="1" stroke-width="1" stroke-linecap="butt" stroke-linejoin="miter" stroke="rgb(0%, 0%, 100%)" stroke-opacity="1" stroke-miterlimit="4" d="M 575.043945 68.959961 L 575.043945 1038.930664 L 528.032227 1038.930664 L 528.032227 68.959961 Z M 575.043945 68.959961 " transform="matrix(0.0275862, 0, 0, 0.0275862, 0, 0)"/>
<path fill-rule="nonzero" fill="rgb(0%, 0%, 100%)" fill-opacity="1" stroke-width="1" stroke-linecap="butt" stroke-linejoin="miter" stroke="rgb(0%, 0%, 100%)" stroke-opacity="1" stroke-miterlimit="4" d="M 841.962891 638.056641 L 240.014648 638.056641 L 240.014648 592.036133 L 841.962891 592.036133 Z M 841.962891 638.056641 " transform="matrix(0.0275862, 0, 0, 0.0275862, 0, 0)"/>
</svg>
