<?xml version="1.0" encoding="UTF-8"?>
<svg xmlns="http://www.w3.org/2000/svg" xmlns:xlink="http://www.w3.org/1999/xlink" width="32" height="32" viewBox="0 0 32 32">
<path fill-rule="nonzero" fill="rgb(0%, 0%, 100%)" fill-opacity="1" stroke-width="1" stroke-linecap="butt" stroke-linejoin="miter" stroke="rgb(0%, 0%, 100%)" stroke-opacity="1" stroke-miterlimit="4" d="M 857.963867 564.990234 L 258.989258 564.990234 L 258.989258 519.960937 L 857.963867 519.960937 Z M 857.963867 564.990234 " transform="matrix(0.0275862, 0, 0, 0.0275862, 0, 0)"/>
<path fill-rule="nonzero" fill="rgb(0%, 0%, 100%)" fill-opacity="1" stroke-width="1" stroke-linecap="butt" stroke-linejoin="miter" stroke="rgb(0%, 0%, 100%)" stroke-opacity="1" stroke-miterlimit="4" d="M 220.048828 36.958008 L 896.054687 36.958008 L 896.054687 1068.950195 L 220.048828 1068.950195 Z M 300.053711 1029.018555 L 258.989258 988.945312 L 855.981445 988.945312 L 817.041016 1029.018555 L 817.041016 77.03125 L 855.981445 116.962891 L 258.989258 116.962891 L 300.053711 77.03125 Z M 300.053711 1029.018555 " transform="matrix(0.0275862, 0, 0, 0.0275862, 0, 0)"/>
<path fill-rule="nonzero" fill="rgb(0%, 0%, 100%)" fill-opacity="1" stroke-width="1" stroke-linecap="butt" stroke-linejoin="miter" stroke="rgb(0%, 0%, 100%)" stroke-opacity="1" stroke-miterlimit="4" d="M 531.99707 77.03125 L 531.99707 1028.027344 L 486.967773 1028.027344 L 486.967773 77.03125 Z M 531.99707 77.03125 " transform="matrix(0.0275862, 0, 0, 0.0275862, 0, 0)"/>
<path fill-rule="nonzero" fill="rgb(0%, 0%, 100%)" fill-opacity="1" stroke-width="1" stroke-linecap="butt" stroke-linejoin="miter" stroke="rgb(0%, 0%, 100%)" stroke-opacity="1" stroke-miterlimit="4" d="M 628.994141 77.03125 L 628.994141 1028.027344 L 583.964844 1028.027344 L 583.964844 77.03125 Z M 628.994141 77.03125 " transform="matrix(0.0275862, 0, 0, 0.0275862, 0, 0)"/>
</svg>
