<?xml version="1.0" encoding="UTF-8"?>
<svg xmlns="http://www.w3.org/2000/svg" xmlns:xlink="http://www.w3.org/1999/xlink" width="32" height="17.586511" viewBox="0 0 32 17.586511">
<path fill-rule="nonzero" fill="rgb(100%, 0%, 0%)" fill-opacity="1" stroke-width="0.020009" stroke-linecap="butt" stroke-linejoin="round" stroke="rgb(100%, 0%, 0%)" stroke-opacity="1" stroke-miterlimit="4" d="M 46.131616 45.200709 C 45.982211 45.223694 45.867284 45.200709 45.729372 45.177723 L 45.005333 44.982348 L 44.384728 44.924884 L 43.649197 44.924884 L 42.810231 45.005333 L 41.90231 45.166231 L 40.902447 45.361606 L 38.707345 45.959226 L 36.259404 46.70625 L 33.662058 47.545215 L 30.88083 48.361196 L 27.996167 49.142698 L 24.996578 49.797781 L 23.456559 50.039127 L 21.91654 50.245995 L 20.353535 50.337936 L 18.790531 50.360922 L 17.239019 50.303458 L 15.676015 50.142561 L 14.11301 49.843751 L 12.550006 49.441507 L 11.032972 48.901352 L 9.515939 48.223283 L 8.033383 47.384318 L 6.573813 46.361469 L 5.14872 45.200709 L 3.792584 43.856065 L 3.309892 43.396358 C 3.263921 43.36188 3.229443 43.315909 3.183472 43.258446 L 2.792721 42.741275 C 2.769736 42.695305 2.723765 42.637841 2.712272 42.580378 L 2.390477 41.994251 L 2.091668 41.235734 C 2.068682 41.178271 2.045697 41.120807 2.022712 41.063344 L 1.884799 40.373783 L 1.769873 39.534818 L 1.746887 38.661374 L 1.781365 37.753452 L 2.045697 35.937609 L 2.52839 33.972361 L 3.183472 31.99562 L 3.98796 29.972908 L 4.884389 27.950197 L 5.849774 25.95047 L 6.872622 23.996715 L 7.883978 22.111915 L 8.895334 20.33055 L 9.849226 18.687097 L 10.711177 17.204541 L 11.446709 15.905869 L 12.13627 14.745108 L 12.848816 13.630318 L 13.572855 12.550006 L 14.354357 11.527158 L 15.894376 9.699822 L 17.595292 8.079354 L 19.434121 6.68874 L 21.479818 5.482008 L 23.697905 4.516623 L 26.122861 3.758106 L 27.478997 3.482282 L 28.904089 3.298399 L 30.340674 3.240936 L 31.857708 3.263921 L 33.397727 3.378848 L 34.937746 3.51676 L 38.144203 3.941989 L 41.419617 4.447667 L 44.741002 4.918867 L 48.050893 5.240662 L 49.648376 5.344096 L 51.245858 5.344096 L 52.854833 5.286633 L 54.509779 5.125735 L 56.233681 4.884389 L 57.969076 4.562594 L 61.58927 3.86154 L 65.255435 3.126009 L 67.117249 2.804214 L 68.933092 2.516897 L 70.760428 2.321521 L 72.576271 2.218087 L 74.357637 2.218087 L 76.104524 2.355999 L 77.805441 2.643316 L 79.460386 3.126009 C 79.621284 3.183472 79.747703 3.240936 79.86263 3.34437 L 81.287722 4.447667 L 82.701322 5.826789 L 83.965517 7.366808 L 85.080307 8.998768 L 86.091663 10.745655 L 87.011077 12.550006 L 87.804072 14.423313 L 88.528111 16.308112 L 89.171701 18.192912 L 89.746335 20.066219 L 90.286491 21.893555 L 90.746198 23.651935 L 91.18292 25.329866 L 91.585163 26.89287 L 91.964422 28.317962 L 92.34368 29.570664 L 92.688461 31.156654 L 92.952792 32.593239 L 93.148168 33.914897 L 93.274587 35.133121 L 93.309065 36.259404 L 93.28608 37.316731 L 93.194139 38.282116 L 93.010256 39.178545 L 92.734431 39.994525 L 92.366666 40.764534 L 91.929944 41.442602 C 91.906958 41.500066 91.87248 41.534544 91.82651 41.580515 L 91.389788 42.063207 L 90.792168 42.580378 L 90.091115 43.040085 L 89.344091 43.396358 L 88.528111 43.695168 L 87.71213 43.959499 L 86.804209 44.154875 L 85.884794 44.315772 L 84.861946 44.442192 L 83.862083 44.557119 L 82.758785 44.660553 L 81.62101 44.741002 L 80.448757 44.82145 L 77.897382 45.005333 L 75.139139 45.246679 L 72.162535 45.556982 L 68.979063 46.005196 L 67.898751 46.143108 L 66.657541 46.200572 L 65.381854 46.200572 L 64.071689 46.166094 L 61.336431 45.959226 L 58.41729 45.660416 L 55.406208 45.361606 L 52.32617 45.143245 L 49.188668 45.062797 L 47.671635 45.097275 Z M 47.602679 42.695305 L 49.246132 42.660827 L 52.487068 42.741275 L 55.647554 42.982622 L 58.670129 43.258446 L 61.508821 43.557256 L 64.175123 43.764124 L 65.370361 43.798602 L 66.531122 43.821587 L 67.599941 43.764124 L 68.634282 43.637704 L 71.921189 43.155012 L 74.943763 42.844709 L 77.724992 42.614856 L 80.264874 42.442466 L 81.44862 42.362017 L 82.56341 42.258583 L 83.586258 42.178134 L 84.563136 42.063207 L 85.471058 41.959773 L 86.287038 41.798876 L 87.02257 41.637978 L 87.723623 41.454095 L 88.286764 41.25872 L 88.803935 40.994388 L 89.229164 40.764534 L 89.631408 40.442739 L 90.045144 39.960047 L 89.953203 40.120944 L 90.206042 39.718701 L 90.470373 39.236008 L 90.642764 38.672867 L 90.803661 38.017784 L 90.88411 37.236282 L 90.930081 36.374331 L 90.872617 35.374468 L 90.769183 34.259678 L 90.5853 33.029961 L 90.343954 31.673825 L 90.022159 30.23724 L 89.642901 28.938567 L 89.263642 27.490489 L 88.861398 25.927485 L 88.447662 24.295525 L 87.964969 22.548637 L 87.470784 20.767272 L 86.907643 18.974414 L 86.287038 17.147078 L 85.60897 15.365713 L 84.850453 13.630318 L 83.999995 11.940894 L 83.103566 10.343412 L 82.080717 8.860856 L 81.000406 7.527705 L 79.828152 6.343959 L 78.40306 5.217677 L 78.805304 5.44753 L 77.403197 5.022301 L 75.920641 4.746477 L 74.334651 4.620057 L 72.714184 4.597072 L 71.036252 4.700506 L 69.300858 4.907374 L 67.519492 5.160213 L 65.715142 5.482008 L 62.048977 6.206047 L 58.394305 6.941578 L 56.555476 7.240388 L 54.751125 7.50472 L 52.946775 7.688603 L 51.234365 7.746066 L 49.533449 7.723081 L 47.786562 7.642632 L 44.407714 7.286359 L 41.063344 6.826652 L 37.822408 6.320974 L 34.719385 5.91873 L 33.225337 5.757832 L 31.800244 5.665891 L 30.455601 5.642906 L 29.156928 5.700369 L 27.961689 5.826789 L 26.812421 6.045149 L 24.640305 6.723218 L 22.675057 7.562183 L 20.893691 8.585032 L 19.250238 9.826241 L 17.710219 11.262826 L 16.250649 12.986728 L 15.572581 13.883157 L 14.871527 14.906005 L 14.216445 15.963332 L 13.526884 17.124093 L 12.768367 18.411273 L 11.906416 19.893828 L 10.975509 21.514296 L 9.987139 23.272676 L 8.987275 25.111505 L 8.010398 26.996304 L 7.067998 28.938567 L 6.206047 30.857845 L 5.470515 32.754137 L 4.872896 34.581473 L 4.424682 36.282389 L 4.183335 37.879872 L 4.148857 38.592418 L 4.171843 39.258993 L 4.229306 39.879598 L 4.390204 40.557666 L 4.33274 40.373783 L 4.50513 40.879461 L 4.80394 41.454095 L 4.711999 41.30469 L 5.10275 41.821861 L 4.964838 41.683949 L 5.470515 42.143656 L 6.68874 43.36188 L 7.929949 44.396221 L 9.205636 45.281157 L 10.515802 46.016689 L 11.825967 46.637294 L 13.170611 47.119986 L 14.549732 47.487752 L 15.928854 47.740591 L 17.330961 47.924474 L 18.779038 47.958952 L 20.192638 47.958952 L 21.640716 47.844025 L 23.077301 47.683127 L 24.502393 47.441781 L 27.352577 46.844162 L 30.202762 46.085645 L 32.93802 45.246679 L 35.558351 44.396221 L 38.063755 43.637704 L 40.408261 43.0171 L 41.523051 42.775753 L 42.603363 42.614856 L 43.649197 42.522914 L 44.64906 42.534407 L 45.602952 42.660827 L 46.349977 42.844709 L 45.947733 42.821724 Z M 47.602679 42.695305 " transform="matrix(0.33989, 0, 0, 0.33989, 0, 0)"/>
</svg>
