<?xml version="1.0" encoding="UTF-8"?>
<svg xmlns="http://www.w3.org/2000/svg" xmlns:xlink="http://www.w3.org/1999/xlink" width="32" height="32" viewBox="0 0 32 32">
<path fill-rule="nonzero" fill="rgb(0%, 0%, 100%)" fill-opacity="1" stroke-width="1" stroke-linecap="butt" stroke-linejoin="miter" stroke="rgb(0%, 0%, 100%)" stroke-opacity="1" stroke-miterlimit="4" d="M 156.044922 745.957031 C 156.044922 743.974609 156.044922 741.992187 156.044922 741.000977 L 159.018555 719.052734 C 159.018555 717.070312 159.018555 715.9375 159.018555 714.946289 L 164.96582 692.998047 C 164.96582 692.006836 165.957031 691.015625 165.957031 689.033203 L 176.010742 669.067383 C 177.001953 667.93457 177.001953 665.952148 177.993164 664.960937 L 191.020508 645.986328 L 209.995117 624.038086 L 230.952148 605.063477 L 256.015625 585.947266 L 282.070312 569.946289 L 311.948242 554.936523 L 342.958984 542.050781 L 376.943359 530.014648 L 412.060547 519.960937 L 450.009766 513.022461 L 487.958984 506.933594 L 528.032227 503.959961 L 569.946289 501.977539 L 611.010742 502.96875 L 650.942383 506.933594 L 689.033203 513.022461 L 725.991211 519.960937 L 761.958008 530.014648 L 794.951172 541.05957 L 826.953125 553.945312 L 855.981445 567.963867 L 883.027344 584.956055 L 906.958008 602.939453 L 929.047852 623.046875 L 947.03125 643.012695 L 962.041016 664.960937 C 963.032227 665.952148 963.032227 667.93457 964.023437 669.067383 L 973.935547 689.033203 C 973.935547 691.015625 975.068359 692.006836 975.068359 692.998047 L 981.015625 714.946289 C 981.015625 715.9375 981.015625 717.070312 981.015625 719.052734 L 983.989258 741.000977 C 983.989258 741.992187 983.989258 743.974609 983.989258 745.957031 L 981.015625 768.046875 C 981.015625 769.038086 981.015625 770.029297 981.015625 771.020508 L 975.068359 792.96875 C 975.068359 793.959961 973.935547 795.942383 973.935547 796.933594 L 964.023437 818.032227 C 963.032227 819.023437 963.032227 820.014648 962.041016 821.005859 L 949.013672 840.97168 L 931.030273 862.070312 L 908.94043 882.036133 L 885.009766 901.010742 L 857.963867 917.011719 L 828.935547 932.021484 L 796.933594 945.048828 L 763.94043 955.952148 L 727.973633 966.005859 L 691.015625 972.944336 L 651.933594 979.033203 L 612.001953 982.998047 L 570.9375 983.989258 L 530.014648 982.998047 L 489.941406 979.033203 L 451.000977 973.935547 L 414.042969 966.005859 L 379.067383 956.943359 L 344.941406 945.048828 L 312.939453 933.012695 L 284.052734 918.00293 L 257.006836 902.001953 L 232.93457 884.018555 L 210.986328 864.052734 L 193.00293 843.945312 L 177.993164 821.005859 C 177.001953 820.014648 177.001953 819.023437 176.010742 818.032227 L 165.957031 796.933594 C 165.957031 795.942383 164.96582 793.959961 164.96582 792.96875 L 159.018555 771.020508 C 159.018555 770.029297 159.018555 769.038086 159.018555 768.046875 Z M 208.012695 762.949219 L 207.021484 758.984375 L 212.96875 779.941406 L 211.977539 775.976562 L 222.03125 796.933594 L 220.048828 793.959961 L 230.952148 810.952148 L 244.970703 827.944336 L 262.954102 844.936523 L 283.061523 859.946289 L 306.000977 873.964844 L 333.046875 886.992187 L 360.942383 900.019531 L 390.961914 908.94043 L 423.955078 918.00293 L 457.939453 924.941406 L 494.047852 931.030273 L 531.005859 933.012695 L 569.946289 934.995117 L 608.037109 934.003906 L 644.995117 931.030273 L 679.970703 924.941406 L 714.946289 918.994141 L 746.948242 909.931641 L 777.958984 900.019531 L 805.996094 887.983398 L 831.05957 874.956055 L 854.990234 860.9375 L 874.956055 846.069336 L 892.939453 830.068359 L 906.958008 814.067383 L 919.985352 793.959961 L 918.00293 796.933594 L 928.056641 775.976562 L 927.06543 779.941406 L 933.012695 758.984375 L 932.021484 762.949219 L 934.003906 741.000977 L 934.003906 745.957031 L 932.021484 723.017578 L 933.012695 727.973633 L 927.06543 706.025391 L 928.056641 709.990234 L 918.00293 689.033203 L 919.985352 692.998047 L 908.94043 675.014648 L 895.063477 658.022461 L 876.938477 642.021484 L 856.972656 626.020508 L 834.033203 612.001953 L 807.978516 598.974609 L 778.950195 587.929687 L 748.930664 577.026367 L 715.9375 567.963867 L 681.953125 561.025391 L 645.986328 556.069336 L 609.02832 552.954102 L 570.9375 550.97168 L 532.988281 552.954102 L 495.039062 556.069336 L 460.063477 561.025391 L 424.946289 567.963867 L 392.944336 577.026367 L 361.933594 586.938477 L 334.038086 598.974609 L 308.974609 612.001953 L 285.043945 626.020508 L 264.936523 641.030273 L 246.953125 657.03125 L 232.93457 673.032227 L 220.048828 692.998047 L 222.03125 689.033203 L 211.977539 709.990234 L 212.96875 706.025391 L 207.021484 727.973633 L 208.012695 723.017578 L 206.030273 745.957031 L 206.030273 741.000977 Z M 208.012695 762.949219 " transform="matrix(0.0275862, 0, 0, 0.0275862, 0, 0)"/>
<path fill-rule="nonzero" fill="rgb(0%, 0%, 100%)" fill-opacity="1" stroke-width="1" stroke-linecap="butt" stroke-linejoin="miter" stroke="rgb(0%, 0%, 100%)" stroke-opacity="1" stroke-miterlimit="4" d="M 586.938477 413.051758 L 586.938477 531.99707 L 549.980469 531.99707 L 549.980469 413.051758 Z M 586.938477 413.051758 " transform="matrix(0.0275862, 0, 0, 0.0275862, 0, 0)"/>
<path fill-rule="nonzero" fill="rgb(0%, 0%, 100%)" fill-opacity="1" stroke-width="1" stroke-linecap="butt" stroke-linejoin="miter" stroke="rgb(0%, 0%, 100%)" stroke-opacity="1" stroke-miterlimit="4" d="M 593.027344 951.987305 L 593.027344 1082.96875 L 544.033203 1082.96875 L 544.033203 951.987305 Z M 593.027344 951.987305 " transform="matrix(0.0275862, 0, 0, 0.0275862, 0, 0)"/>
<path fill-rule="nonzero" fill="rgb(0%, 0%, 100%)" fill-opacity="1" stroke-width="1" stroke-linecap="butt" stroke-linejoin="miter" stroke="rgb(0%, 0%, 100%)" stroke-opacity="1" stroke-miterlimit="4" d="M 948.022461 725.991211 L 1069.941406 725.991211 L 1069.941406 762.949219 L 948.022461 762.949219 Z M 948.022461 725.991211 " transform="matrix(0.0275862, 0, 0, 0.0275862, 0, 0)"/>
<path fill-rule="nonzero" fill="rgb(0%, 0%, 100%)" fill-opacity="1" stroke-width="1" stroke-linecap="butt" stroke-linejoin="miter" stroke="rgb(0%, 0%, 100%)" stroke-opacity="1" stroke-miterlimit="4" d="M 70.942383 725.991211 L 193.00293 725.991211 L 193.00293 762.949219 L 70.942383 762.949219 Z M 70.942383 725.991211 " transform="matrix(0.0275862, 0, 0, 0.0275862, 0, 0)"/>
<path fill-rule="nonzero" fill="rgb(0%, 0%, 100%)" fill-opacity="1" stroke-width="1" stroke-linecap="butt" stroke-linejoin="miter" stroke="rgb(0%, 0%, 100%)" stroke-opacity="1" stroke-miterlimit="4" d="M 840.97168 897.045898 L 916.020508 1002.963867 L 875.947266 1031.000977 L 801.040039 924.941406 Z M 840.97168 897.045898 " transform="matrix(0.0275862, 0, 0, 0.0275862, 0, 0)"/>
<path fill-rule="nonzero" fill="rgb(0%, 0%, 100%)" fill-opacity="1" stroke-width="1" stroke-linecap="butt" stroke-linejoin="miter" stroke="rgb(0%, 0%, 100%)" stroke-opacity="1" stroke-miterlimit="4" d="M 261.962891 463.037109 L 332.055664 560.03418 L 301.044922 581.982422 L 230.952148 484.985352 Z M 261.962891 463.037109 " transform="matrix(0.0275862, 0, 0, 0.0275862, 0, 0)"/>
<path fill-rule="nonzero" fill="rgb(0%, 0%, 100%)" fill-opacity="1" stroke-width="1" stroke-linecap="butt" stroke-linejoin="miter" stroke="rgb(0%, 0%, 100%)" stroke-opacity="1" stroke-miterlimit="4" d="M 327.949219 913.046875 L 253.041992 1018.964844 L 212.96875 992.060547 L 288.017578 885.009766 Z M 327.949219 913.046875 " transform="matrix(0.0275862, 0, 0, 0.0275862, 0, 0)"/>
<path fill-rule="nonzero" fill="rgb(0%, 0%, 100%)" fill-opacity="1" stroke-width="1" stroke-linecap="butt" stroke-linejoin="miter" stroke="rgb(0%, 0%, 100%)" stroke-opacity="1" stroke-miterlimit="4" d="M 902.993164 488.950195 L 835.024414 584.956055 L 805.004883 564.990234 L 872.973633 467.993164 Z M 902.993164 488.950195 " transform="matrix(0.0275862, 0, 0, 0.0275862, 0, 0)"/>
<path fill-rule="nonzero" fill="rgb(0%, 0%, 100%)" fill-opacity="1" stroke-width="1" stroke-linecap="butt" stroke-linejoin="miter" stroke="rgb(0%, 0%, 100%)" stroke-opacity="1" stroke-miterlimit="4" d="M 453.974609 947.03125 L 421.972656 1072.06543 L 374.960937 1060.029297 L 405.97168 934.995117 Z M 453.974609 947.03125 " transform="matrix(0.0275862, 0, 0, 0.0275862, 0, 0)"/>
<path fill-rule="nonzero" fill="rgb(0%, 0%, 100%)" fill-opacity="1" stroke-width="1" stroke-linecap="butt" stroke-linejoin="miter" stroke="rgb(0%, 0%, 100%)" stroke-opacity="1" stroke-miterlimit="4" d="M 750.063477 431.035156 L 721.035156 545.024414 L 686.05957 536.953125 L 714.946289 421.972656 Z M 750.063477 431.035156 " transform="matrix(0.0275862, 0, 0, 0.0275862, 0, 0)"/>
<path fill-rule="nonzero" fill="rgb(0%, 0%, 100%)" fill-opacity="1" stroke-width="1" stroke-linecap="butt" stroke-linejoin="miter" stroke="rgb(0%, 0%, 100%)" stroke-opacity="1" stroke-miterlimit="4" d="M 727.973633 935.986328 L 758.984375 1062.011719 L 711.972656 1074.047852 L 679.970703 948.022461 Z M 727.973633 935.986328 " transform="matrix(0.0275862, 0, 0, 0.0275862, 0, 0)"/>
<path fill-rule="nonzero" fill="rgb(0%, 0%, 100%)" fill-opacity="1" stroke-width="1" stroke-linecap="butt" stroke-linejoin="miter" stroke="rgb(0%, 0%, 100%)" stroke-opacity="1" stroke-miterlimit="4" d="M 422.963867 423.955078 L 451.992187 537.944336 L 416.025391 547.006836 L 386.99707 432.026367 Z M 422.963867 423.955078 " transform="matrix(0.0275862, 0, 0, 0.0275862, 0, 0)"/>
<path fill-rule="nonzero" fill="rgb(0%, 0%, 100%)" fill-opacity="1" stroke-width="1" stroke-linecap="butt" stroke-linejoin="miter" stroke="rgb(0%, 0%, 100%)" stroke-opacity="1" stroke-miterlimit="4" d="M 928.056641 826.953125 L 1038.930664 898.037109 L 1012.026367 938.959961 L 902.001953 868.017578 Z M 928.056641 826.953125 " transform="matrix(0.0275862, 0, 0, 0.0275862, 0, 0)"/>
<path fill-rule="nonzero" fill="rgb(0%, 0%, 100%)" fill-opacity="1" stroke-width="1" stroke-linecap="butt" stroke-linejoin="miter" stroke="rgb(0%, 0%, 100%)" stroke-opacity="1" stroke-miterlimit="4" d="M 126.025391 566.972656 L 226.987305 631.967773 L 206.030273 661.987305 L 106.05957 597.983398 Z M 126.025391 566.972656 " transform="matrix(0.0275862, 0, 0, 0.0275862, 0, 0)"/>
<path fill-rule="nonzero" fill="rgb(0%, 0%, 100%)" fill-opacity="1" stroke-width="1" stroke-linecap="butt" stroke-linejoin="miter" stroke="rgb(0%, 0%, 100%)" stroke-opacity="1" stroke-miterlimit="4" d="M 1031.992187 589.0625 L 932.021484 654.057617 L 912.055664 623.046875 L 1013.017578 559.042969 Z M 1031.992187 589.0625 " transform="matrix(0.0275862, 0, 0, 0.0275862, 0, 0)"/>
<path fill-rule="nonzero" fill="rgb(0%, 0%, 100%)" fill-opacity="1" stroke-width="1" stroke-linecap="butt" stroke-linejoin="miter" stroke="rgb(0%, 0%, 100%)" stroke-opacity="1" stroke-miterlimit="4" d="M 229.960937 857.963867 L 119.936523 930.039062 L 94.023437 888.974609 L 204.047852 818.032227 Z M 229.960937 857.963867 " transform="matrix(0.0275862, 0, 0, 0.0275862, 0, 0)"/>
</svg>
