<?xml version="1.0" encoding="UTF-8"?>
<svg xmlns="http://www.w3.org/2000/svg" xmlns:xlink="http://www.w3.org/1999/xlink" width="32" height="32" viewBox="0 0 32 32">
<path fill-rule="nonzero" fill="rgb(100%, 0%, 0%)" fill-opacity="1" d="M 3.863281 3.476562 C 11.945312 3.476562 20.054688 3.476562 28.136719 3.476562 C 28.136719 11.835938 28.136719 20.164062 28.136719 28.523438 C 20.054688 28.523438 11.945312 28.523438 3.863281 28.523438 C 3.863281 20.164062 3.863281 11.835938 3.863281 3.476562 Z M 4.882812 28 C 4.71875 27.835938 4.523438 27.667969 4.359375 27.503906 C 12.109375 27.503906 19.890625 27.503906 27.640625 27.503906 C 27.476562 27.667969 27.308594 27.835938 27.144531 28 C 27.144531 20 27.144531 12 27.144531 4 C 27.308594 4.164062 27.476562 4.332031 27.640625 4.496094 C 19.890625 4.496094 12.109375 4.496094 4.359375 4.496094 C 4.523438 4.332031 4.71875 4.164062 4.882812 4 C 4.882812 12 4.882812 20 4.882812 28 Z M 4.882812 28 "/>
<path fill="none" stroke-width="1" stroke-linecap="butt" stroke-linejoin="miter" stroke="rgb(100%, 0%, 0%)" stroke-opacity="1" stroke-miterlimit="4" d="M 140.043945 126.025391 C 433.017578 126.025391 726.982422 126.025391 1019.956055 126.025391 C 1019.956055 429.052734 1019.956055 730.947266 1019.956055 1033.974609 C 726.982422 1033.974609 433.017578 1033.974609 140.043945 1033.974609 C 140.043945 730.947266 140.043945 429.052734 140.043945 126.025391 Z M 140.043945 126.025391 " transform="matrix(0.0275862, 0, 0, 0.0275862, 0, 0)"/>
<path fill="none" stroke-width="1" stroke-linecap="butt" stroke-linejoin="miter" stroke="rgb(100%, 0%, 0%)" stroke-opacity="1" stroke-miterlimit="4" d="M 177.001953 1015 C 171.054687 1009.052734 163.974609 1002.963867 158.027344 997.016602 C 438.964844 997.016602 721.035156 997.016602 1001.972656 997.016602 C 996.025391 1002.963867 989.936523 1009.052734 983.989258 1015 C 983.989258 725 983.989258 435 983.989258 145 C 989.936523 150.947266 996.025391 157.036133 1001.972656 162.983398 C 721.035156 162.983398 438.964844 162.983398 158.027344 162.983398 C 163.974609 157.036133 171.054687 150.947266 177.001953 145 C 177.001953 435 177.001953 725 177.001953 1015 Z M 177.001953 1015 " transform="matrix(0.0275862, 0, 0, 0.0275862, 0, 0)"/>
<path fill-rule="nonzero" fill="rgb(100%, 0%, 0%)" fill-opacity="1" d="M 6.097656 10.457031 L 7.199219 10.34375 C 7.28125 10.730469 7.421875 11.007812 7.613281 11.171875 C 7.808594 11.339844 8.082031 11.421875 8.441406 11.421875 C 8.800781 11.421875 9.074219 11.339844 9.269531 11.199219 C 9.460938 11.035156 9.542969 10.867188 9.542969 10.648438 C 9.542969 10.539062 9.515625 10.425781 9.433594 10.316406 C 9.351562 10.234375 9.214844 10.152344 9.019531 10.070312 C 8.882812 10.042969 8.578125 9.957031 8.109375 9.847656 C 7.503906 9.683594 7.0625 9.515625 6.8125 9.296875 C 6.484375 8.992188 6.316406 8.605469 6.316406 8.164062 C 6.316406 7.890625 6.398438 7.613281 6.566406 7.367188 C 6.703125 7.117188 6.953125 6.925781 7.253906 6.8125 C 7.558594 6.675781 7.917969 6.621094 8.359375 6.621094 C 9.074219 6.621094 9.601562 6.757812 9.957031 7.0625 C 10.316406 7.367188 10.511719 7.78125 10.511719 8.304688 L 9.378906 8.359375 C 9.324219 8.054688 9.242188 7.863281 9.074219 7.722656 C 8.910156 7.613281 8.660156 7.53125 8.359375 7.53125 C 8.027344 7.53125 7.75 7.613281 7.585938 7.75 C 7.449219 7.835938 7.394531 7.945312 7.394531 8.082031 C 7.394531 8.21875 7.449219 8.332031 7.558594 8.441406 C 7.695312 8.550781 8.054688 8.660156 8.605469 8.800781 C 9.160156 8.9375 9.574219 9.074219 9.820312 9.214844 C 10.097656 9.351562 10.316406 9.515625 10.457031 9.765625 C 10.59375 10.015625 10.675781 10.289062 10.675781 10.648438 C 10.675781 10.980469 10.59375 11.28125 10.398438 11.558594 C 10.234375 11.835938 9.984375 12.027344 9.65625 12.164062 C 9.324219 12.304688 8.910156 12.386719 8.414062 12.386719 C 7.722656 12.386719 7.171875 12.21875 6.785156 11.890625 C 6.398438 11.558594 6.179688 11.089844 6.097656 10.457031 Z M 6.097656 10.457031 "/>
<path fill-rule="nonzero" fill="rgb(100%, 0%, 0%)" fill-opacity="1" d="M 12.910156 12.277344 C 12.910156 10.730469 12.910156 9.1875 12.910156 7.640625 C 12.332031 7.640625 11.78125 7.640625 11.226562 7.640625 C 11.226562 7.339844 11.226562 7.035156 11.226562 6.703125 C 12.71875 6.703125 14.207031 6.703125 15.695312 6.703125 C 15.695312 7.035156 15.695312 7.339844 15.695312 7.640625 C 15.144531 7.640625 14.59375 7.640625 14.042969 7.640625 C 14.042969 9.1875 14.042969 10.730469 14.042969 12.277344 Z M 12.910156 12.277344 "/>
<path fill-rule="nonzero" fill="rgb(100%, 0%, 0%)" fill-opacity="1" d="M 21.515625 12.277344 C 21.101562 12.277344 20.691406 12.277344 20.277344 12.277344 C 20.109375 11.863281 19.945312 11.421875 19.78125 11.007812 C 19.035156 11.007812 18.289062 11.007812 17.515625 11.007812 C 17.378906 11.421875 17.214844 11.863281 17.074219 12.277344 C 16.660156 12.277344 16.25 12.277344 15.863281 12.277344 C 16.578125 10.425781 17.324219 8.550781 18.042969 6.703125 C 18.457031 6.703125 18.839844 6.703125 19.253906 6.703125 Z M 19.421875 10.070312 C 19.144531 9.378906 18.898438 8.691406 18.648438 8 C 18.371094 8.691406 18.125 9.378906 17.875 10.070312 Z M 19.421875 10.070312 "/>
<path fill-rule="nonzero" fill="rgb(100%, 0%, 0%)" fill-opacity="1" d="M 22.097656 6.703125 L 23.253906 6.703125 L 23.253906 9.710938 C 23.253906 10.207031 23.253906 10.511719 23.28125 10.648438 C 23.339844 10.867188 23.449219 11.0625 23.640625 11.199219 C 23.808594 11.339844 24.054688 11.421875 24.386719 11.421875 C 24.71875 11.421875 24.9375 11.339844 25.101562 11.226562 C 25.269531 11.089844 25.378906 10.925781 25.40625 10.730469 C 25.433594 10.539062 25.460938 10.234375 25.460938 9.792969 L 25.460938 6.703125 L 26.59375 6.703125 L 26.59375 9.628906 C 26.59375 10.289062 26.566406 10.785156 26.511719 11.0625 C 26.457031 11.339844 26.316406 11.558594 26.152344 11.75 C 25.984375 11.945312 25.765625 12.082031 25.488281 12.191406 C 25.214844 12.304688 24.855469 12.359375 24.414062 12.359375 C 23.890625 12.359375 23.476562 12.304688 23.199219 12.191406 C 22.925781 12.054688 22.703125 11.917969 22.539062 11.695312 C 22.371094 11.503906 22.261719 11.308594 22.207031 11.089844 C 22.152344 10.757812 22.097656 10.289062 22.097656 9.683594 Z M 22.097656 6.703125 "/>
<path fill-rule="nonzero" fill="rgb(100%, 0%, 0%)" fill-opacity="1" d="M 14.398438 14.621094 C 15.476562 14.621094 16.550781 14.621094 17.628906 14.621094 C 17.628906 15.476562 17.628906 16.304688 17.628906 17.160156 C 17.40625 18.867188 17.214844 20.578125 16.992188 22.289062 C 16.332031 22.289062 15.667969 22.289062 15.007812 22.289062 C 14.8125 20.578125 14.621094 18.867188 14.398438 17.160156 Z M 14.511719 23.0625 C 15.53125 23.0625 16.523438 23.0625 17.515625 23.0625 C 17.515625 23.972656 17.515625 24.882812 17.515625 25.792969 C 16.523438 25.792969 15.53125 25.792969 14.511719 25.792969 Z M 14.511719 23.0625 "/>
</svg>
