<?xml version="1.0" encoding="UTF-8"?>
<svg xmlns="http://www.w3.org/2000/svg" xmlns:xlink="http://www.w3.org/1999/xlink" width="32" height="32" viewBox="0 0 32 32">
<path fill-rule="nonzero" fill="rgb(100%, 0%, 0%)" fill-opacity="1" stroke-width="1" stroke-linecap="butt" stroke-linejoin="miter" stroke="rgb(100%, 0%, 0%)" stroke-opacity="1" stroke-miterlimit="4" d="M 39.931641 423.955078 L 290.991211 678.979492 L 269.042969 701.069336 L 16.992187 446.044922 Z M 39.931641 423.955078 " transform="matrix(0.0275862, 0, 0, 0.0275862, 0, 0)"/>
<path fill-rule="nonzero" fill="rgb(100%, 0%, 0%)" fill-opacity="1" stroke-width="1" stroke-linecap="butt" stroke-linejoin="miter" stroke="rgb(100%, 0%, 0%)" stroke-opacity="1" stroke-miterlimit="4" d="M 290 449.018555 L 35.966797 701.069336 L 14.018555 678.979492 L 268.051758 427.070312 Z M 290 449.018555 " transform="matrix(0.0275862, 0, 0, 0.0275862, 0, 0)"/>
<path fill-rule="nonzero" fill="rgb(100%, 0%, 0%)" fill-opacity="1" stroke-width="1" stroke-linecap="butt" stroke-linejoin="miter" stroke="rgb(100%, 0%, 0%)" stroke-opacity="1" stroke-miterlimit="4" d="M 257.006836 558.051758 L 288.017578 557.060547 L 288.017578 587.929687 L 257.006836 587.929687 Z M 319.02832 557.060547 L 350.039062 557.060547 L 350.039062 587.929687 L 319.02832 587.929687 Z M 380.058594 557.060547 L 411.069336 556.069336 L 411.069336 586.938477 L 381.049805 587.929687 Z M 441.938477 556.069336 L 472.949219 556.069336 L 472.949219 586.938477 L 442.929687 586.938477 Z M 503.959961 556.069336 L 534.970703 556.069336 L 534.970703 585.947266 L 503.959961 586.938477 Z M 565.981445 554.936523 L 596.992187 554.936523 L 596.992187 585.947266 L 565.981445 585.947266 Z M 628.00293 554.936523 L 658.022461 554.936523 L 659.013672 585.947266 L 628.00293 585.947266 Z M 689.033203 554.936523 L 720.043945 553.945312 L 721.035156 584.956055 L 690.024414 585.947266 Z M 751.054687 553.945312 L 782.06543 553.945312 L 782.06543 584.956055 L 751.054687 584.956055 Z M 812.93457 553.945312 L 843.945312 553.945312 L 843.945312 583.964844 L 812.93457 584.956055 Z M 874.956055 552.954102 L 905.966797 552.954102 L 905.966797 583.964844 L 874.956055 583.964844 Z M 874.956055 552.954102 " transform="matrix(0.0275862, 0, 0, 0.0275862, 0, 0)"/>
<path fill-rule="nonzero" fill="rgb(100%, 0%, 0%)" fill-opacity="1" stroke-width="1" stroke-linecap="butt" stroke-linejoin="miter" stroke="rgb(100%, 0%, 0%)" stroke-opacity="1" stroke-miterlimit="4" d="M 873.964844 428.061523 L 1125.024414 682.944336 L 1102.93457 705.03418 L 852.016602 450.009766 Z M 873.964844 428.061523 " transform="matrix(0.0275862, 0, 0, 0.0275862, 0, 0)"/>
<path fill-rule="nonzero" fill="rgb(100%, 0%, 0%)" fill-opacity="1" stroke-width="1" stroke-linecap="butt" stroke-linejoin="miter" stroke="rgb(100%, 0%, 0%)" stroke-opacity="1" stroke-miterlimit="4" d="M 1124.033203 451.992187 L 870 705.03418 L 848.051758 682.944336 L 1101.943359 430.043945 Z M 1124.033203 451.992187 " transform="matrix(0.0275862, 0, 0, 0.0275862, 0, 0)"/>
</svg>
