<?xml version="1.0" encoding="UTF-8"?>
<svg xmlns="http://www.w3.org/2000/svg" xmlns:xlink="http://www.w3.org/1999/xlink" width="32" height="32" viewBox="0 0 32 32">
<path fill-rule="nonzero" fill="rgb(0%, 0%, 100%)" fill-opacity="1" stroke-width="1" stroke-linecap="butt" stroke-linejoin="miter" stroke="rgb(0%, 0%, 100%)" stroke-opacity="1" stroke-miterlimit="4" d="M 207.021484 37.949219 L 914.038086 37.949219 L 914.038086 1086.933594 L 207.021484 1086.933594 Z M 290.991211 1045.019531 L 248.935547 1003.955078 L 871.982422 1003.955078 L 831.05957 1045.019531 L 831.05957 80.004883 L 871.982422 122.060547 L 248.935547 122.060547 L 290.991211 80.004883 Z M 290.991211 1045.019531 " transform="matrix(0.0275862, 0, 0, 0.0275862, 0, 0)"/>
<path fill-rule="nonzero" fill="rgb(0%, 0%, 100%)" fill-opacity="1" stroke-width="1" stroke-linecap="butt" stroke-linejoin="miter" stroke="rgb(0%, 0%, 100%)" stroke-opacity="1" stroke-miterlimit="4" d="M 377.93457 735.053711 L 736.044922 735.053711 L 736.044922 960.058594 L 377.93457 960.058594 Z M 414.042969 941.933594 L 396.05957 923.950195 L 718.061523 923.950195 L 699.936523 941.933594 L 699.936523 753.037109 L 718.061523 772.011719 L 396.05957 772.011719 L 414.042969 753.037109 Z M 414.042969 941.933594 " transform="matrix(0.0275862, 0, 0, 0.0275862, 0, 0)"/>
<path fill-rule="nonzero" fill="rgb(0%, 0%, 100%)" fill-opacity="1" stroke-width="1" stroke-linecap="butt" stroke-linejoin="miter" stroke="rgb(0%, 0%, 100%)" stroke-opacity="1" stroke-miterlimit="4" d="M 428.061523 741.000977 L 435.991211 719.052734 C 435.991211 719.052734 436.982422 717.070312 437.973633 715.9375 L 450.009766 696.962891 C 451.000977 695.97168 451.992187 694.980469 452.983398 693.989258 L 467.001953 677.988281 C 467.993164 676.99707 468.984375 676.005859 470.966797 675.014648 L 487.958984 661.987305 C 488.950195 661.987305 489.941406 660.996094 492.06543 660.996094 L 511.040039 651.933594 C 511.040039 649.951172 514.013672 648.959961 515.004883 648.959961 L 535.961914 644.995117 C 536.953125 644.995117 538.935547 644.003906 541.05957 644.003906 L 563.007812 642.021484 C 563.007812 642.021484 564.990234 642.021484 566.972656 642.021484 L 589.0625 645.986328 C 590.053711 645.986328 591.044922 646.977539 593.027344 646.977539 L 607.045898 653.066406 L 624.038086 660.004883 L 639.047852 670.058594 C 640.039062 671.049805 641.030273 671.049805 642.021484 672.041016 L 653.066406 681.953125 L 663.969727 695.97168 L 675.014648 710.981445 C 676.005859 711.972656 676.005859 712.963867 676.99707 713.955078 L 682.944336 727.973633 L 687.050781 745.957031 L 644.003906 758.984375 L 641.030273 745.957031 L 634.941406 732.929687 L 637.06543 735.053711 L 629.985352 725 L 622.055664 715.9375 L 612.001953 705.03418 L 613.984375 708.007812 L 603.930664 701.069336 L 593.027344 694.980469 L 579.008789 689.033203 L 581.982422 690.024414 L 559.042969 688.041992 L 563.999023 688.041992 L 542.050781 689.033203 L 547.006836 688.041992 L 526.049805 692.998047 L 530.014648 692.998047 L 511.040039 702.060547 L 515.004883 697.954102 L 498.012695 710.981445 L 500.986328 708.999023 L 484.985352 725 L 487.958984 721.035156 L 476.064453 741.000977 L 478.046875 736.044922 L 470.966797 757.001953 Z M 428.061523 741.000977 " transform="matrix(0.0275862, 0, 0, 0.0275862, 0, 0)"/>
<path fill-rule="nonzero" fill="rgb(0%, 0%, 100%)" fill-opacity="1" stroke-width="1" stroke-linecap="butt" stroke-linejoin="miter" stroke="rgb(0%, 0%, 100%)" stroke-opacity="1" stroke-miterlimit="4" d="M 897.045898 495.039062 L 289.008789 495.039062 L 289.008789 448.027344 L 897.045898 448.027344 Z M 897.045898 495.039062 " transform="matrix(0.0275862, 0, 0, 0.0275862, 0, 0)"/>
<path fill-rule="nonzero" fill="rgb(0%, 0%, 100%)" fill-opacity="1" stroke-width="1" stroke-linecap="butt" stroke-linejoin="miter" stroke="rgb(0%, 0%, 100%)" stroke-opacity="1" stroke-miterlimit="4" d="M 886.992187 600.957031 L 277.963867 600.957031 L 277.963867 552.954102 L 886.992187 552.954102 Z M 886.992187 600.957031 " transform="matrix(0.0275862, 0, 0, 0.0275862, 0, 0)"/>
</svg>
