<?xml version="1.0" encoding="UTF-8"?>
<svg xmlns="http://www.w3.org/2000/svg" xmlns:xlink="http://www.w3.org/1999/xlink" width="32" height="32" viewBox="0 0 32 32">
<path fill-rule="nonzero" fill="rgb(100%, 0%, 0%)" fill-opacity="1" stroke-width="1" stroke-linecap="butt" stroke-linejoin="miter" stroke="rgb(100%, 0%, 0%)" stroke-opacity="1" stroke-miterlimit="4" d="M 134.946289 415.03418 L 316.054687 611.010742 L 297.929687 627.011719 L 117.954102 430.043945 Z M 134.946289 415.03418 " transform="matrix(0.0275862, 0, 0, 0.0275862, 0, 0)"/>
<path fill-rule="nonzero" fill="rgb(100%, 0%, 0%)" fill-opacity="1" stroke-width="1" stroke-linecap="butt" stroke-linejoin="miter" stroke="rgb(100%, 0%, 0%)" stroke-opacity="1" stroke-miterlimit="4" d="M 80.996094 467.993164 L 260.97168 664.960937 L 243.979492 679.970703 L 64.003906 483.994141 Z M 80.996094 467.993164 " transform="matrix(0.0275862, 0, 0, 0.0275862, 0, 0)"/>
<path fill-rule="nonzero" fill="rgb(100%, 0%, 0%)" fill-opacity="1" stroke-width="1" stroke-linecap="butt" stroke-linejoin="miter" stroke="rgb(100%, 0%, 0%)" stroke-opacity="1" stroke-miterlimit="4" d="M 273.007812 490.932617 L 78.022461 673.032227 L 62.021484 656.040039 L 257.006836 473.94043 Z M 273.007812 490.932617 " transform="matrix(0.0275862, 0, 0, 0.0275862, 0, 0)"/>
<path fill-rule="nonzero" fill="rgb(100%, 0%, 0%)" fill-opacity="1" stroke-width="1" stroke-linecap="butt" stroke-linejoin="miter" stroke="rgb(100%, 0%, 0%)" stroke-opacity="1" stroke-miterlimit="4" d="M 224.013672 440.947266 L 28.037109 623.046875 L 12.036133 606.054687 L 208.012695 424.946289 Z M 224.013672 440.947266 " transform="matrix(0.0275862, 0, 0, 0.0275862, 0, 0)"/>
<path fill-rule="nonzero" fill="rgb(100%, 0%, 0%)" fill-opacity="1" stroke-width="1" stroke-linecap="butt" stroke-linejoin="miter" stroke="rgb(100%, 0%, 0%)" stroke-opacity="1" stroke-miterlimit="4" d="M 320.019531 540.068359 L 124.042969 721.035156 L 108.041992 704.042969 L 304.018555 522.93457 Z M 320.019531 540.068359 " transform="matrix(0.0275862, 0, 0, 0.0275862, 0, 0)"/>
<path fill-rule="nonzero" fill="rgb(100%, 0%, 0%)" fill-opacity="1" stroke-width="1" stroke-linecap="butt" stroke-linejoin="miter" stroke="rgb(100%, 0%, 0%)" stroke-opacity="1" stroke-miterlimit="4" d="M 30.019531 517.978516 L 210.986328 714.946289 L 193.994141 729.956055 L 13.027344 533.979492 Z M 30.019531 517.978516 " transform="matrix(0.0275862, 0, 0, 0.0275862, 0, 0)"/>
<path fill-rule="nonzero" fill="rgb(100%, 0%, 0%)" fill-opacity="1" d="M 8.828125 15.722656 C 8.855469 15.117188 9.324219 14.621094 9.875 14.648438 C 10.457031 14.675781 10.898438 15.199219 10.867188 15.808594 L 10.34375 15.78125 C 10.371094 15.449219 10.152344 15.144531 9.875 15.144531 C 9.601562 15.144531 9.351562 15.421875 9.351562 15.75 Z M 8.828125 15.722656 "/>
<path fill-rule="nonzero" fill="rgb(100%, 0%, 0%)" fill-opacity="1" stroke-width="1" stroke-linecap="butt" stroke-linejoin="miter" stroke="rgb(100%, 0%, 0%)" stroke-opacity="1" stroke-miterlimit="4" d="M 320.019531 573.061523 C 320.019531 573.061523 319.02832 573.061523 319.02832 572.070312 C 318.037109 572.070312 318.037109 570.9375 318.037109 569.946289 L 318.037109 565.981445 L 319.02832 561.025391 L 321.010742 553.945312 C 321.010742 553.945312 321.010742 552.954102 321.010742 552.954102 L 324.975586 547.006836 C 324.975586 547.006836 324.975586 546.015625 324.975586 546.015625 L 329.931641 540.068359 L 336.020508 534.970703 L 342.958984 531.005859 L 345.932617 530.014648 L 350.039062 529.023437 L 354.003906 528.032227 L 361.933594 528.032227 L 366.040039 529.023437 L 370.004883 531.005859 L 373.969727 531.99707 L 380.058594 535.961914 C 380.058594 535.961914 381.049805 535.961914 381.049805 535.961914 L 386.005859 542.050781 L 390.961914 547.998047 C 390.961914 547.998047 390.961914 548.989258 390.961914 548.989258 L 393.935547 556.069336 L 396.05957 563.999023 L 396.05957 573.061523 C 396.05957 574.052734 396.05957 574.052734 396.05957 575.043945 C 395.068359 576.035156 393.935547 576.035156 393.935547 576.035156 L 374.960937 575.043945 C 373.969727 575.043945 372.978516 574.052734 372.978516 572.070312 L 372.978516 567.963867 L 370.996094 563.999023 L 371.987305 564.990234 L 370.004883 561.025391 L 368.022461 558.051758 L 369.013672 558.051758 L 366.040039 554.936523 L 366.040039 556.069336 L 363.066406 552.954102 L 364.057617 553.945312 L 359.951172 551.962891 L 360.942383 552.954102 L 356.977539 551.962891 L 357.96875 551.962891 L 354.003906 551.962891 L 354.995117 551.962891 L 352.021484 552.954102 L 349.047852 554.936523 L 345.932617 557.060547 L 347.06543 557.060547 L 344.941406 560.03418 L 342.958984 563.999023 L 342.958984 563.007812 L 340.976562 570.9375 C 340.976562 573.061523 339.985352 574.052734 338.00293 574.052734 Z M 338.994141 567.963867 L 336.020508 570.9375 L 338.00293 561.025391 L 339.985352 557.060547 L 341.967773 553.945312 C 341.967773 553.945312 341.967773 552.954102 342.958984 552.954102 L 344.941406 550.97168 C 345.932617 550.97168 345.932617 550.97168 345.932617 549.980469 L 349.047852 547.998047 C 349.047852 547.998047 349.047852 547.998047 350.039062 547.998047 L 353.012695 547.006836 C 353.012695 547.006836 354.003906 547.006836 354.003906 547.006836 L 361.933594 547.006836 C 361.933594 547.006836 361.933594 547.006836 363.066406 547.006836 L 366.040039 548.989258 C 366.040039 548.989258 366.040039 548.989258 367.03125 548.989258 L 370.004883 550.97168 L 372.978516 553.945312 C 372.978516 553.945312 372.978516 554.936523 372.978516 554.936523 L 374.960937 558.051758 C 374.960937 558.051758 374.960937 558.051758 374.960937 559.042969 L 376.943359 563.007812 L 377.93457 566.972656 C 377.93457 566.972656 377.93457 567.963867 377.93457 567.963867 L 377.93457 572.070312 L 374.960937 568.955078 L 393.935547 569.946289 L 390.961914 573.061523 L 390.961914 564.990234 L 388.979492 558.051758 L 386.005859 550.97168 L 382.041016 545.024414 L 382.041016 546.015625 L 376.943359 540.068359 L 376.943359 541.05957 L 370.996094 536.953125 L 369.013672 535.961914 L 365.048828 534.970703 L 361.933594 533.979492 L 352.021484 533.979492 L 349.047852 534.970703 L 344.941406 535.961914 L 338.994141 540.068359 L 339.985352 538.935547 L 334.038086 544.033203 L 329.931641 548.989258 L 326.958008 556.069336 L 326.958008 554.936523 L 323.984375 563.007812 L 322.993164 565.981445 L 322.993164 569.946289 L 320.019531 567.963867 Z M 338.994141 567.963867 " transform="matrix(0.0275862, 0, 0, 0.0275862, 0, 0)"/>
<path fill-rule="nonzero" fill="rgb(100%, 0%, 0%)" fill-opacity="1" d="M 12.386719 15.78125 C 12.359375 16.386719 11.890625 16.882812 11.339844 16.855469 C 10.785156 16.855469 10.34375 16.332031 10.371094 15.695312 L 10.867188 15.722656 C 10.867188 16.054688 11.0625 16.359375 11.367188 16.359375 C 11.640625 16.386719 11.863281 16.109375 11.863281 15.75 Z M 12.386719 15.78125 "/>
<path fill-rule="nonzero" fill="rgb(100%, 0%, 0%)" fill-opacity="1" stroke-width="1" stroke-linecap="butt" stroke-linejoin="miter" stroke="rgb(100%, 0%, 0%)" stroke-opacity="1" stroke-miterlimit="4" d="M 449.018555 568.955078 C 449.018555 568.955078 450.009766 568.955078 451.000977 569.946289 C 451.000977 569.946289 451.000977 570.9375 451.000977 572.070312 L 451.000977 576.035156 L 448.027344 587.929687 C 448.027344 589.0625 447.036133 589.0625 447.036133 589.0625 L 444.0625 596.000977 L 438.964844 601.948242 L 433.017578 607.045898 C 433.017578 607.045898 433.017578 608.037109 433.017578 608.037109 L 425.9375 611.010742 L 422.963867 612.001953 L 418.999023 613.984375 L 406.962891 613.984375 L 402.998047 612.993164 L 400.024414 612.001953 L 396.05957 610.019531 C 396.05957 610.019531 396.05957 610.019531 395.068359 610.019531 L 388.979492 606.054687 L 384.023437 600.957031 C 384.023437 600.957031 384.023437 599.96582 383.032227 599.96582 L 379.067383 594.018555 C 379.067383 594.018555 379.067383 593.027344 379.067383 593.027344 L 375.952148 585.947266 L 373.969727 578.017578 L 373.969727 568.955078 C 373.969727 567.963867 373.969727 567.963867 373.969727 566.972656 C 374.960937 565.981445 374.960937 565.981445 375.952148 565.981445 L 393.935547 566.972656 C 396.05957 566.972656 397.050781 567.963867 397.050781 568.955078 L 397.050781 574.052734 L 398.041992 578.017578 L 400.024414 581.982422 L 399.033203 580.991211 L 401.015625 584.956055 L 401.015625 583.964844 L 403.989258 586.938477 L 402.998047 586.938477 L 405.97168 589.0625 L 408.945312 590.053711 L 407.954102 590.053711 L 412.060547 591.044922 L 411.069336 591.044922 L 415.03418 590.053711 L 414.042969 590.053711 L 418.007812 589.0625 L 417.016602 590.053711 L 419.990234 586.938477 L 419.990234 587.929687 L 421.972656 584.956055 L 421.972656 585.947266 L 424.946289 581.982422 L 423.955078 582.973633 L 425.9375 579.008789 L 427.070312 575.043945 L 428.061523 570.9375 C 428.061523 568.955078 429.052734 567.963867 430.043945 567.963867 Z M 430.043945 574.052734 L 433.017578 570.9375 L 433.017578 576.035156 L 432.026367 580.991211 C 432.026367 580.991211 431.035156 580.991211 431.035156 580.991211 L 429.052734 584.956055 L 427.070312 589.0625 C 427.070312 589.0625 427.070312 589.0625 425.9375 589.0625 L 423.955078 592.036133 C 423.955078 592.036133 423.955078 592.036133 422.963867 592.036133 L 419.990234 594.018555 L 416.025391 596.000977 C 416.025391 596.000977 416.025391 596.000977 415.03418 596.000977 L 412.060547 596.000977 C 412.060547 596.000977 411.069336 596.000977 411.069336 596.000977 L 406.962891 596.000977 C 406.962891 595.009766 406.962891 595.009766 406.962891 595.009766 L 403.989258 594.018555 C 402.998047 594.018555 402.998047 594.018555 402.998047 593.027344 L 400.024414 591.044922 L 397.050781 587.929687 C 397.050781 587.929687 397.050781 587.929687 396.05957 586.938477 L 395.068359 583.964844 C 393.935547 583.964844 393.935547 583.964844 393.935547 583.964844 L 392.944336 580 C 392.944336 580 392.944336 579.008789 392.944336 579.008789 L 391.953125 575.043945 C 391.953125 575.043945 391.953125 575.043945 391.953125 574.052734 L 391.953125 569.946289 L 393.935547 572.070312 L 375.952148 572.070312 L 379.067383 568.955078 L 379.067383 577.026367 L 381.049805 584.956055 L 381.049805 583.964844 L 384.023437 591.044922 L 387.988281 596.992187 L 392.944336 601.948242 L 392.944336 600.957031 L 399.033203 605.063477 L 398.041992 605.063477 L 401.015625 607.045898 L 403.989258 608.037109 L 418.007812 608.037109 L 423.955078 606.054687 L 430.043945 602.939453 L 429.052734 602.939453 L 435 597.983398 L 435 598.974609 L 438.964844 593.027344 L 442.929687 585.947266 L 441.938477 585.947266 L 445.053711 579.008789 L 446.044922 576.035156 L 446.044922 572.070312 L 449.018555 574.052734 Z M 430.043945 574.052734 " transform="matrix(0.0275862, 0, 0, 0.0275862, 0, 0)"/>
<path fill-rule="nonzero" fill="rgb(100%, 0%, 0%)" fill-opacity="1" d="M 15.394531 15.890625 C 15.367188 16.496094 14.898438 16.992188 14.34375 16.964844 C 13.792969 16.964844 13.351562 16.414062 13.378906 15.808594 L 13.875 15.808594 C 13.847656 16.164062 14.070312 16.46875 14.371094 16.46875 C 14.648438 16.46875 14.867188 16.191406 14.867188 15.863281 Z M 15.394531 15.890625 "/>
<path fill-rule="nonzero" fill="rgb(100%, 0%, 0%)" fill-opacity="1" stroke-width="1" stroke-linecap="butt" stroke-linejoin="miter" stroke="rgb(100%, 0%, 0%)" stroke-opacity="1" stroke-miterlimit="4" d="M 558.051758 573.061523 C 559.042969 573.061523 560.03418 573.061523 560.03418 573.061523 C 561.025391 574.052734 561.025391 575.043945 561.025391 576.035156 L 560.03418 580 L 560.03418 583.964844 L 557.060547 592.036133 C 557.060547 592.036133 557.060547 593.027344 557.060547 593.027344 L 553.945312 598.974609 C 553.945312 599.96582 552.954102 599.96582 552.954102 599.96582 L 547.998047 606.054687 L 543.041992 611.010742 C 542.050781 611.010742 542.050781 611.010742 542.050781 611.010742 L 535.961914 614.975586 C 534.970703 614.975586 534.970703 614.975586 534.970703 614.975586 L 531.99707 615.966797 L 528.032227 617.949219 L 515.996094 617.949219 L 508.066406 615.966797 L 504.951172 613.984375 C 504.951172 613.984375 503.959961 613.984375 503.959961 613.984375 L 498.012695 610.019531 L 492.06543 603.930664 L 487.958984 597.983398 C 487.958984 596.992187 487.958984 596.992187 487.958984 596.992187 L 483.994141 590.053711 L 483.00293 581.982422 L 482.011719 577.026367 L 482.011719 573.061523 C 482.011719 572.070312 482.011719 572.070312 483.00293 570.9375 C 483.00293 569.946289 483.994141 569.946289 484.985352 569.946289 L 502.96875 570.9375 C 504.951172 570.9375 505.942383 572.070312 505.942383 573.061523 L 505.942383 578.017578 L 506.933594 581.982422 L 506.933594 580.991211 L 508.066406 584.956055 L 510.048828 587.929687 L 513.022461 591.044922 L 512.03125 590.053711 L 515.004883 593.027344 L 514.013672 593.027344 L 517.978516 594.018555 L 516.987305 594.018555 L 524.067383 594.018555 L 522.93457 594.018555 L 527.041016 593.027344 L 526.049805 593.027344 L 531.99707 589.0625 L 531.005859 589.0625 L 533.979492 585.947266 L 534.970703 581.982422 L 534.970703 582.973633 L 535.961914 579.008789 L 536.953125 574.052734 C 536.953125 573.061523 537.944336 572.070312 540.068359 572.070312 Z M 538.935547 577.026367 L 543.041992 575.043945 L 542.050781 580 L 540.068359 583.964844 C 540.068359 584.956055 540.068359 584.956055 540.068359 584.956055 L 538.935547 589.0625 C 538.935547 589.0625 538.935547 589.0625 537.944336 589.0625 L 535.961914 592.036133 C 535.961914 593.027344 535.961914 593.027344 534.970703 593.027344 L 532.988281 595.009766 C 532.988281 596.000977 532.988281 596.000977 531.99707 596.000977 L 529.023437 597.983398 L 525.058594 598.974609 C 525.058594 598.974609 525.058594 598.974609 524.067383 598.974609 L 520.952148 599.96582 C 520.952148 599.96582 520.952148 599.96582 519.960937 599.96582 L 516.987305 598.974609 C 515.996094 598.974609 515.996094 598.974609 515.996094 598.974609 L 513.022461 596.992187 C 512.03125 596.992187 512.03125 596.992187 512.03125 596.992187 L 509.057617 595.009766 C 509.057617 595.009766 509.057617 595.009766 508.066406 594.018555 L 505.942383 592.036133 C 505.942383 591.044922 505.942383 591.044922 505.942383 591.044922 L 502.96875 587.929687 C 502.96875 587.929687 502.96875 586.938477 502.96875 586.938477 L 501.977539 583.964844 C 501.977539 582.973633 500.986328 582.973633 500.986328 582.973633 L 499.995117 579.008789 C 499.995117 579.008789 499.995117 578.017578 499.995117 578.017578 L 499.995117 574.052734 L 502.96875 576.035156 L 483.994141 576.035156 L 487.958984 573.061523 L 487.958984 580.991211 L 489.941406 587.929687 L 488.950195 587.929687 L 493.056641 595.009766 L 492.06543 594.018555 L 497.021484 600.957031 L 496.030273 600.957031 L 501.977539 606.054687 L 500.986328 605.063477 L 506.933594 609.02832 L 510.048828 610.019531 L 513.022461 611.010742 L 516.987305 612.001953 L 527.041016 612.001953 L 532.988281 610.019531 L 538.935547 607.045898 L 548.989258 596.992187 L 547.998047 596.992187 L 551.962891 590.053711 L 553.945312 582.973633 L 554.936523 579.008789 L 554.936523 575.043945 L 558.051758 578.017578 Z M 538.935547 577.026367 " transform="matrix(0.0275862, 0, 0, 0.0275862, 0, 0)"/>
<path fill-rule="nonzero" fill="rgb(100%, 0%, 0%)" fill-opacity="1" d="M 11.890625 15.808594 C 11.917969 15.171875 12.386719 14.675781 12.910156 14.703125 C 13.460938 14.730469 13.902344 15.253906 13.875 15.890625 L 13.378906 15.863281 C 13.378906 15.503906 13.1875 15.199219 12.910156 15.199219 C 12.632812 15.199219 12.386719 15.476562 12.386719 15.808594 Z M 11.890625 15.808594 "/>
<path fill-rule="nonzero" fill="rgb(100%, 0%, 0%)" fill-opacity="1" stroke-width="1" stroke-linecap="butt" stroke-linejoin="miter" stroke="rgb(100%, 0%, 0%)" stroke-opacity="1" stroke-miterlimit="4" d="M 431.035156 576.035156 C 430.043945 576.035156 429.052734 575.043945 429.052734 575.043945 C 428.061523 574.052734 428.061523 573.061523 428.061523 573.061523 L 429.052734 568.955078 L 429.052734 563.999023 L 432.026367 556.069336 L 435 548.989258 C 435 548.989258 435 547.998047 435.991211 547.998047 L 439.956055 543.041992 C 439.956055 542.050781 439.956055 542.050781 440.947266 542.050781 L 446.044922 536.953125 C 446.044922 536.953125 446.044922 536.953125 447.036133 536.953125 L 452.983398 532.988281 L 456.948242 531.99707 L 460.063477 531.005859 L 464.02832 530.014648 L 471.958008 530.014648 L 476.064453 531.005859 L 480.029297 532.988281 L 483.994141 533.979492 L 489.941406 537.944336 C 489.941406 538.935547 489.941406 538.935547 490.932617 538.935547 L 496.030273 544.033203 L 499.995117 550.97168 L 503.959961 558.051758 C 503.959961 558.051758 503.959961 558.051758 503.959961 559.042969 L 505.942383 565.981445 C 505.942383 565.981445 505.942383 565.981445 505.942383 566.972656 L 505.942383 576.035156 C 505.942383 576.035156 505.942383 577.026367 504.951172 577.026367 C 504.951172 578.017578 503.959961 578.017578 502.96875 578.017578 L 484.985352 577.026367 C 483.994141 577.026367 482.011719 576.035156 482.011719 575.043945 L 482.011719 569.946289 L 482.011719 570.9375 L 481.020508 565.981445 L 481.020508 566.972656 L 480.029297 563.007812 L 476.064453 557.060547 L 472.949219 554.936523 L 473.94043 556.069336 L 469.975586 553.945312 L 470.966797 553.945312 L 467.001953 553.945312 L 467.993164 553.945312 L 464.02832 553.945312 L 465.019531 553.945312 L 462.045898 554.936523 L 458.930664 557.060547 L 456.948242 559.042969 L 454.96582 562.016602 L 452.983398 565.981445 L 452.983398 564.990234 L 451.992187 568.955078 L 451.992187 574.052734 C 451.000977 575.043945 450.009766 576.035156 449.018555 576.035156 Z M 449.018555 570.9375 L 446.044922 573.061523 L 447.036133 568.955078 C 447.036133 567.963867 447.036133 567.963867 447.036133 567.963867 L 448.027344 563.999023 C 448.027344 563.999023 448.027344 563.999023 448.027344 563.007812 L 450.009766 560.03418 C 450.009766 559.042969 450.009766 559.042969 450.009766 559.042969 L 452.983398 556.069336 C 452.983398 556.069336 452.983398 554.936523 452.983398 554.936523 L 455.957031 552.954102 C 455.957031 551.962891 455.957031 551.962891 455.957031 551.962891 L 458.930664 549.980469 C 458.930664 549.980469 458.930664 549.980469 460.063477 549.980469 L 463.037109 548.989258 C 463.037109 548.989258 464.02832 547.998047 464.02832 547.998047 L 467.993164 547.998047 L 471.958008 548.989258 C 471.958008 548.989258 471.958008 548.989258 472.949219 548.989258 L 476.064453 550.97168 C 476.064453 550.97168 476.064453 550.97168 477.055664 550.97168 L 480.029297 552.954102 L 483.00293 556.069336 C 483.00293 556.069336 483.00293 557.060547 483.00293 557.060547 L 484.985352 560.03418 C 484.985352 560.03418 484.985352 561.025391 484.985352 561.025391 L 486.967773 564.990234 L 487.958984 568.955078 C 487.958984 569.946289 487.958984 569.946289 487.958984 569.946289 L 487.958984 575.043945 L 484.985352 572.070312 L 502.96875 573.061523 L 499.995117 576.035156 L 499.995117 566.972656 L 499.995117 567.963867 L 498.012695 560.03418 L 495.039062 552.954102 L 495.039062 553.945312 L 490.932617 547.006836 L 492.06543 547.998047 L 486.967773 543.041992 L 481.020508 538.935547 L 478.046875 537.944336 L 474.931641 536.953125 L 471.958008 535.961914 L 462.045898 535.961914 L 458.930664 536.953125 L 454.96582 537.944336 L 449.018555 542.050781 L 450.009766 541.05957 L 444.0625 546.015625 L 445.053711 546.015625 L 439.956055 551.962891 L 439.956055 550.97168 L 436.982422 558.051758 L 435 564.990234 L 434.008789 568.955078 L 434.008789 573.061523 L 431.035156 569.946289 Z M 449.018555 570.9375 " transform="matrix(0.0275862, 0, 0, 0.0275862, 0, 0)"/>
<path fill-rule="nonzero" fill="rgb(100%, 0%, 0%)" fill-opacity="1" d="M 14.867188 15.917969 C 14.898438 15.308594 15.367188 14.8125 15.917969 14.839844 C 16.46875 14.839844 16.910156 15.367188 16.910156 16 L 16.386719 15.972656 C 16.414062 15.640625 16.191406 15.339844 15.917969 15.339844 C 15.640625 15.339844 15.394531 15.585938 15.394531 15.945312 Z M 14.867188 15.917969 "/>
<path fill-rule="nonzero" fill="rgb(100%, 0%, 0%)" fill-opacity="1" stroke-width="1" stroke-linecap="butt" stroke-linejoin="miter" stroke="rgb(100%, 0%, 0%)" stroke-opacity="1" stroke-miterlimit="4" d="M 538.935547 580 C 538.935547 580 537.944336 580 536.953125 579.008789 C 536.953125 579.008789 536.953125 578.017578 536.953125 577.026367 L 536.953125 573.061523 L 537.944336 568.955078 L 540.068359 561.025391 C 540.068359 561.025391 540.068359 561.025391 540.068359 560.03418 L 544.033203 552.954102 L 548.989258 547.006836 L 554.936523 542.050781 L 562.016602 537.944336 L 564.990234 535.961914 L 568.955078 535.961914 L 573.061523 534.970703 L 580.991211 534.970703 L 584.956055 535.961914 L 589.0625 536.953125 L 593.027344 538.935547 L 598.974609 543.041992 C 598.974609 543.041992 598.974609 543.041992 598.974609 544.033203 L 605.063477 548.989258 L 609.02832 554.936523 C 610.019531 554.936523 610.019531 556.069336 610.019531 556.069336 L 612.993164 563.007812 L 614.975586 570.9375 C 614.975586 570.9375 614.975586 572.070312 614.975586 572.070312 L 614.975586 580 C 614.975586 580.991211 614.975586 581.982422 614.975586 581.982422 C 613.984375 582.973633 612.993164 582.973633 612.993164 582.973633 L 594.018555 581.982422 C 593.027344 581.982422 592.036133 580.991211 592.036133 580 L 591.044922 575.043945 L 591.044922 576.035156 L 590.053711 570.9375 L 590.053711 572.070312 L 589.0625 567.963867 L 586.938477 564.990234 L 584.956055 562.016602 L 581.982422 560.03418 L 582.973633 561.025391 L 579.008789 559.042969 L 580 559.042969 L 576.035156 559.042969 L 577.026367 559.042969 L 573.061523 559.042969 L 574.052734 559.042969 L 570.9375 560.03418 L 567.963867 562.016602 L 567.963867 561.025391 L 564.990234 563.999023 L 565.981445 563.999023 L 562.016602 569.946289 L 561.025391 574.052734 L 560.03418 578.017578 C 560.03418 580 559.042969 580.991211 558.051758 580.991211 Z M 558.051758 576.035156 L 554.936523 578.017578 L 554.936523 573.061523 C 554.936523 573.061523 554.936523 573.061523 556.069336 573.061523 L 557.060547 568.955078 C 557.060547 568.955078 557.060547 567.963867 557.060547 567.963867 L 559.042969 563.999023 L 561.025391 561.025391 C 561.025391 560.03418 561.025391 560.03418 561.025391 560.03418 L 564.990234 557.060547 L 567.963867 554.936523 L 572.070312 553.945312 C 572.070312 553.945312 572.070312 552.954102 573.061523 552.954102 L 576.035156 552.954102 C 577.026367 552.954102 577.026367 552.954102 577.026367 552.954102 L 580.991211 553.945312 C 580.991211 553.945312 580.991211 553.945312 581.982422 553.945312 L 584.956055 554.936523 C 584.956055 556.069336 584.956055 556.069336 584.956055 556.069336 L 589.0625 558.051758 L 592.036133 561.025391 L 596.000977 568.955078 C 596.000977 568.955078 596.000977 569.946289 596.000977 569.946289 L 596.992187 574.052734 C 596.992187 574.052734 596.992187 574.052734 596.992187 575.043945 L 596.992187 579.008789 L 594.018555 577.026367 L 612.993164 577.026367 L 610.019531 580 L 610.019531 576.035156 L 609.02832 572.070312 L 608.037109 564.990234 L 605.063477 558.051758 L 600.957031 551.962891 L 600.957031 552.954102 L 596.000977 547.006836 L 596.000977 547.998047 L 590.053711 544.033203 L 586.938477 543.041992 L 580.991211 541.05957 L 577.026367 540.068359 L 574.052734 540.068359 L 570.9375 541.05957 L 567.963867 542.050781 L 563.999023 543.041992 L 558.051758 547.006836 L 559.042969 546.015625 L 552.954102 550.97168 L 553.945312 550.97168 L 548.989258 556.069336 L 545.024414 563.007812 L 546.015625 563.007812 L 543.041992 569.946289 L 543.041992 573.061523 L 542.050781 578.017578 L 538.935547 575.043945 Z M 558.051758 576.035156 " transform="matrix(0.0275862, 0, 0, 0.0275862, 0, 0)"/>
<path fill-rule="nonzero" fill="rgb(100%, 0%, 0%)" fill-opacity="1" d="M 18.371094 15.972656 C 18.371094 16.605469 17.902344 17.101562 17.324219 17.074219 C 16.773438 17.046875 16.332031 16.523438 16.359375 15.917969 L 16.882812 15.917969 C 16.855469 16.277344 17.074219 16.578125 17.351562 16.578125 C 17.628906 16.578125 17.875 16.304688 17.875 15.945312 Z M 18.371094 15.972656 "/>
<path fill-rule="nonzero" fill="rgb(100%, 0%, 0%)" fill-opacity="1" stroke-width="1" stroke-linecap="butt" stroke-linejoin="miter" stroke="rgb(100%, 0%, 0%)" stroke-opacity="1" stroke-miterlimit="4" d="M 666.943359 576.035156 C 666.943359 576.035156 667.93457 577.026367 669.067383 577.026367 C 669.067383 578.017578 669.067383 579.008789 669.067383 579.008789 L 669.067383 583.964844 L 667.93457 587.929687 L 665.952148 596.000977 C 665.952148 596.000977 665.952148 596.000977 664.960937 596.992187 L 661.987305 602.939453 C 661.987305 602.939453 661.987305 603.930664 661.987305 603.930664 L 657.03125 610.019531 C 657.03125 610.019531 657.03125 610.019531 656.040039 610.019531 L 650.942383 614.975586 L 644.003906 618.94043 L 640.039062 619.931641 L 637.06543 621.064453 L 631.967773 622.055664 L 624.038086 622.055664 L 621.064453 621.064453 L 616.958008 618.94043 L 612.993164 617.949219 L 607.045898 613.984375 C 606.054687 613.984375 606.054687 612.993164 606.054687 612.993164 L 600.957031 608.037109 L 596.000977 600.957031 L 593.027344 594.018555 C 593.027344 594.018555 593.027344 593.027344 593.027344 593.027344 L 591.044922 585.947266 C 591.044922 585.947266 591.044922 584.956055 591.044922 584.956055 L 590.053711 580.991211 L 590.053711 577.026367 C 590.053711 576.035156 591.044922 575.043945 591.044922 575.043945 C 592.036133 574.052734 593.027344 574.052734 593.027344 574.052734 L 612.001953 574.052734 C 612.993164 574.052734 613.984375 576.035156 613.984375 577.026367 L 614.975586 581.982422 L 613.984375 580.991211 L 614.975586 585.947266 L 614.975586 584.956055 L 616.958008 589.0625 L 618.94043 592.036133 L 617.949219 592.036133 L 621.064453 595.009766 L 621.064453 594.018555 L 623.046875 596.992187 L 623.046875 596.000977 L 627.011719 597.983398 L 626.020508 596.992187 L 629.985352 597.983398 L 628.994141 597.983398 L 631.967773 597.983398 L 634.941406 596.992187 L 638.056641 595.009766 L 640.039062 593.027344 L 642.021484 590.053711 L 644.003906 585.947266 L 644.995117 581.982422 L 644.995117 582.973633 L 644.995117 578.017578 C 644.995117 577.026367 646.977539 576.035156 647.96875 576.035156 Z M 647.96875 580.991211 L 650.942383 579.008789 L 649.951172 583.964844 L 648.959961 587.929687 C 648.959961 587.929687 648.959961 589.0625 648.959961 589.0625 L 646.977539 593.027344 L 644.995117 596.000977 C 644.003906 596.000977 644.003906 596.992187 644.003906 596.992187 L 641.030273 598.974609 C 641.030273 598.974609 641.030273 598.974609 641.030273 599.96582 L 638.056641 601.948242 C 638.056641 601.948242 638.056641 601.948242 637.06543 601.948242 L 633.950195 602.939453 C 633.950195 602.939453 632.958984 602.939453 632.958984 602.939453 L 628.994141 603.930664 C 628.994141 603.930664 628.994141 603.930664 628.00293 603.930664 L 625.029297 602.939453 C 625.029297 602.939453 624.038086 602.939453 624.038086 602.939453 L 621.064453 600.957031 C 621.064453 600.957031 621.064453 600.957031 619.931641 600.957031 L 616.958008 598.974609 C 616.958008 598.974609 616.958008 597.983398 616.958008 597.983398 L 613.984375 595.009766 L 612.001953 591.044922 L 610.019531 586.938477 L 609.02832 582.973633 C 609.02832 581.982422 609.02832 581.982422 609.02832 581.982422 L 609.02832 577.026367 L 611.010742 580 L 593.027344 579.008789 L 596.000977 577.026367 L 596.000977 580.991211 L 596.992187 584.956055 L 596.000977 583.964844 L 597.983398 592.036133 L 597.983398 591.044922 L 600.957031 598.974609 L 600.957031 597.983398 L 605.063477 605.063477 L 605.063477 603.930664 L 610.019531 609.02832 L 615.966797 612.993164 L 614.975586 612.993164 L 617.949219 613.984375 L 622.055664 614.975586 L 625.029297 615.966797 L 634.941406 615.966797 L 638.056641 614.975586 L 642.021484 613.984375 L 641.030273 613.984375 L 647.96875 610.019531 L 646.977539 611.010742 L 653.066406 606.054687 L 651.933594 606.054687 L 657.03125 599.96582 L 657.03125 600.957031 L 660.996094 594.018555 L 660.004883 594.018555 L 662.978516 586.938477 L 662.978516 582.973633 L 663.969727 579.008789 L 665.952148 581.982422 Z M 647.96875 580.991211 " transform="matrix(0.0275862, 0, 0, 0.0275862, 0, 0)"/>
<path fill-rule="nonzero" fill="rgb(100%, 0%, 0%)" fill-opacity="1" d="M 17.875 16.027344 C 17.902344 15.421875 18.371094 14.925781 18.925781 14.953125 C 19.476562 14.953125 19.917969 15.476562 19.890625 16.109375 L 19.394531 16.082031 C 19.394531 15.722656 19.171875 15.449219 18.898438 15.449219 C 18.621094 15.421875 18.398438 15.695312 18.371094 16.054688 Z M 17.875 16.027344 "/>
<path fill-rule="nonzero" fill="rgb(100%, 0%, 0%)" fill-opacity="1" stroke-width="1" stroke-linecap="butt" stroke-linejoin="miter" stroke="rgb(100%, 0%, 0%)" stroke-opacity="1" stroke-miterlimit="4" d="M 647.96875 583.964844 C 646.977539 583.964844 645.986328 583.964844 645.986328 582.973633 C 644.995117 582.973633 644.995117 581.982422 644.995117 580.991211 L 644.995117 577.026367 L 645.986328 572.070312 L 648.959961 564.990234 C 648.959961 563.999023 648.959961 563.999023 648.959961 563.999023 L 651.933594 557.060547 C 651.933594 557.060547 651.933594 557.060547 653.066406 557.060547 L 657.03125 550.97168 C 657.03125 550.97168 658.022461 550.97168 658.022461 550.97168 L 662.978516 546.015625 C 662.978516 545.024414 663.969727 545.024414 663.969727 545.024414 L 670.058594 542.050781 C 670.058594 542.050781 670.058594 542.050781 671.049805 542.050781 L 674.023437 540.068359 L 677.988281 538.935547 L 690.024414 538.935547 L 693.989258 540.068359 L 697.954102 541.05957 L 701.069336 543.041992 C 701.069336 543.041992 702.060547 543.041992 702.060547 543.041992 L 708.007812 547.006836 L 712.963867 551.962891 C 713.955078 552.954102 713.955078 552.954102 713.955078 552.954102 L 718.061523 559.042969 C 718.061523 559.042969 718.061523 559.042969 718.061523 560.03418 L 721.035156 565.981445 C 721.035156 566.972656 721.035156 566.972656 721.035156 566.972656 L 723.017578 575.043945 L 724.008789 579.008789 L 724.008789 583.964844 C 724.008789 584.956055 724.008789 584.956055 723.017578 585.947266 C 722.026367 585.947266 722.026367 586.938477 721.035156 585.947266 L 703.051758 585.947266 C 701.069336 585.947266 699.936523 584.956055 699.936523 582.973633 L 699.936523 579.008789 L 698.945312 575.043945 L 697.954102 572.070312 L 695.97168 567.963867 L 695.97168 568.955078 L 692.998047 565.981445 L 693.989258 565.981445 L 691.015625 563.999023 L 688.041992 563.007812 L 689.033203 563.007812 L 681.953125 563.007812 L 678.979492 563.999023 L 679.970703 563.999023 L 676.005859 564.990234 L 676.99707 564.990234 L 674.023437 567.963867 L 672.041016 570.9375 L 672.041016 569.946289 L 670.058594 574.052734 L 671.049805 574.052734 L 669.067383 578.017578 L 669.067383 581.982422 C 669.067383 583.964844 666.943359 584.956055 665.952148 584.956055 Z M 665.952148 579.008789 L 662.978516 581.982422 L 664.960937 572.070312 L 666.943359 567.963867 L 670.058594 563.999023 L 673.032227 561.025391 L 680.961914 557.060547 L 685.068359 557.060547 C 685.068359 557.060547 685.068359 557.060547 686.05957 557.060547 L 689.033203 558.051758 C 690.024414 558.051758 690.024414 558.051758 690.024414 558.051758 L 692.998047 559.042969 C 693.989258 559.042969 693.989258 559.042969 693.989258 560.03418 L 696.962891 562.016602 L 699.936523 564.990234 L 703.051758 568.955078 L 704.042969 573.061523 C 704.042969 573.061523 704.042969 573.061523 704.042969 574.052734 L 705.03418 578.017578 L 706.025391 582.973633 L 703.051758 580 L 721.035156 580.991211 L 718.061523 583.964844 L 718.061523 576.035156 L 715.9375 568.955078 L 712.963867 562.016602 L 708.999023 556.069336 L 709.990234 556.069336 L 704.042969 550.97168 L 698.945312 547.006836 L 698.945312 547.998047 L 695.97168 546.015625 L 692.998047 545.024414 L 689.033203 544.033203 L 681.953125 544.033203 L 678.979492 545.024414 L 676.005859 545.024414 L 673.032227 547.006836 L 666.943359 549.980469 L 660.996094 554.936523 L 661.987305 553.945312 L 657.03125 560.03418 L 654.057617 566.972656 L 654.057617 565.981445 L 651.933594 573.061523 L 650.942383 577.026367 L 650.942383 581.982422 L 647.96875 579.008789 Z M 665.952148 579.008789 " transform="matrix(0.0275862, 0, 0, 0.0275862, 0, 0)"/>
<path fill-rule="nonzero" fill="rgb(100%, 0%, 0%)" fill-opacity="1" d="M 21.40625 16.054688 C 21.378906 16.660156 20.910156 17.160156 20.359375 17.132812 C 19.808594 17.101562 19.367188 16.578125 19.394531 15.972656 L 19.890625 16 C 19.890625 16.332031 20.082031 16.605469 20.386719 16.632812 C 20.660156 16.632812 20.882812 16.359375 20.910156 16.027344 Z M 21.40625 16.054688 "/>
<path fill-rule="nonzero" fill="rgb(100%, 0%, 0%)" fill-opacity="1" stroke-width="1" stroke-linecap="butt" stroke-linejoin="miter" stroke="rgb(100%, 0%, 0%)" stroke-opacity="1" stroke-miterlimit="4" d="M 775.976562 579.008789 C 776.967773 579.008789 777.958984 579.008789 777.958984 580 C 778.950195 580 778.950195 580.991211 778.950195 581.982422 L 777.958984 585.947266 L 777.958984 590.053711 L 774.985352 597.983398 C 774.985352 597.983398 774.985352 597.983398 774.985352 598.974609 L 771.020508 605.063477 C 771.020508 606.054687 771.020508 606.054687 771.020508 606.054687 L 766.064453 612.001953 L 760.966797 616.958008 C 759.975586 616.958008 759.975586 616.958008 759.975586 616.958008 L 754.02832 621.064453 C 754.02832 621.064453 753.037109 621.064453 753.037109 621.064453 L 750.063477 622.055664 L 745.957031 623.046875 L 741.992187 624.038086 L 738.027344 624.038086 L 734.0625 623.046875 L 729.956055 623.046875 L 725.991211 622.055664 L 723.017578 619.931641 C 722.026367 619.931641 722.026367 619.931641 722.026367 619.931641 L 715.9375 615.966797 C 715.9375 614.975586 715.9375 614.975586 715.9375 614.975586 L 710.981445 610.019531 C 709.990234 610.019531 709.990234 610.019531 709.990234 610.019531 L 706.025391 603.930664 C 706.025391 602.939453 706.025391 602.939453 706.025391 602.939453 L 703.051758 596.000977 C 702.060547 596.000977 702.060547 596.000977 702.060547 596.000977 L 701.069336 587.929687 L 699.936523 583.964844 L 699.936523 579.008789 C 699.936523 578.017578 699.936523 578.017578 701.069336 577.026367 C 701.069336 577.026367 702.060547 576.035156 703.051758 576.035156 L 721.035156 577.026367 C 723.017578 577.026367 724.008789 578.017578 724.008789 580 L 724.008789 583.964844 L 725 587.929687 L 725 586.938477 L 725.991211 591.044922 L 727.973633 594.018555 L 730.947266 596.992187 L 729.956055 596.000977 L 732.929687 597.983398 L 736.044922 599.96582 L 735.053711 598.974609 L 739.018555 599.96582 L 738.027344 599.96582 L 741.992187 599.96582 L 741.000977 599.96582 L 744.96582 598.974609 L 743.974609 598.974609 L 746.948242 596.992187 L 750.063477 595.009766 L 748.930664 595.009766 L 752.045898 592.036133 L 753.037109 589.0625 L 754.02832 584.956055 L 755.019531 580.991211 C 755.019531 579.008789 756.010742 578.017578 757.993164 578.017578 Z M 757.993164 583.964844 L 759.975586 580.991211 L 759.975586 585.947266 L 757.993164 590.053711 C 757.993164 590.053711 757.993164 591.044922 757.993164 591.044922 L 757.001953 595.009766 C 757.001953 595.009766 756.010742 595.009766 756.010742 595.009766 L 754.02832 597.983398 C 754.02832 597.983398 754.02832 597.983398 754.02832 598.974609 L 751.054687 600.957031 C 751.054687 600.957031 751.054687 601.948242 750.063477 601.948242 L 746.948242 603.930664 L 742.983398 605.063477 C 742.983398 605.063477 742.983398 605.063477 741.992187 605.063477 L 739.018555 606.054687 C 739.018555 606.054687 738.027344 606.054687 738.027344 606.054687 L 735.053711 605.063477 C 734.0625 605.063477 734.0625 605.063477 734.0625 605.063477 L 729.956055 602.939453 L 726.982422 600.957031 C 726.982422 600.957031 726.982422 600.957031 725.991211 600.957031 L 724.008789 597.983398 C 724.008789 596.992187 724.008789 596.992187 723.017578 596.992187 L 721.035156 594.018555 C 721.035156 594.018555 721.035156 593.027344 721.035156 593.027344 L 720.043945 590.053711 C 719.052734 589.0625 719.052734 589.0625 719.052734 589.0625 L 718.061523 584.956055 C 718.061523 584.956055 718.061523 584.956055 718.061523 583.964844 L 718.061523 580 L 721.035156 581.982422 L 703.051758 581.982422 L 706.025391 579.008789 L 706.025391 585.947266 L 708.007812 594.018555 L 707.016602 594.018555 L 710.981445 600.957031 L 714.946289 607.045898 L 714.946289 606.054687 L 720.043945 611.010742 L 719.052734 611.010742 L 725 614.975586 L 730.947266 616.958008 L 735.053711 617.949219 L 744.96582 617.949219 L 747.939453 616.958008 L 751.054687 615.966797 L 757.001953 612.001953 L 761.958008 608.037109 L 767.055664 601.948242 L 766.064453 602.939453 L 770.029297 596.000977 L 770.029297 596.992187 L 772.011719 589.0625 L 773.00293 585.947266 L 773.00293 580.991211 L 775.976562 583.964844 Z M 757.993164 583.964844 " transform="matrix(0.0275862, 0, 0, 0.0275862, 0, 0)"/>
<path fill-rule="nonzero" fill="rgb(100%, 0%, 0%)" fill-opacity="1" d="M 20.882812 16.109375 C 20.910156 15.476562 21.378906 15.007812 21.929688 15.007812 C 22.511719 15.035156 22.953125 15.558594 22.925781 16.164062 L 22.398438 16.164062 C 22.425781 15.808594 22.207031 15.53125 21.929688 15.53125 C 21.65625 15.503906 21.40625 15.78125 21.40625 16.109375 Z M 20.882812 16.109375 "/>
<path fill-rule="nonzero" fill="rgb(100%, 0%, 0%)" fill-opacity="1" stroke-width="1" stroke-linecap="butt" stroke-linejoin="miter" stroke="rgb(100%, 0%, 0%)" stroke-opacity="1" stroke-miterlimit="4" d="M 757.001953 585.947266 C 756.010742 585.947266 756.010742 585.947266 755.019531 585.947266 C 755.019531 584.956055 755.019531 583.964844 755.019531 583.964844 L 755.019531 579.008789 L 756.010742 575.043945 L 757.993164 566.972656 L 761.958008 560.03418 C 761.958008 560.03418 761.958008 560.03418 761.958008 559.042969 L 767.055664 553.945312 C 767.055664 552.954102 767.055664 552.954102 767.055664 552.954102 L 773.00293 547.998047 L 779.941406 544.033203 L 783.056641 543.041992 L 787.021484 542.050781 L 799.057617 542.050781 L 810.952148 545.024414 C 810.952148 545.024414 810.952148 545.024414 810.952148 546.015625 L 817.041016 549.980469 L 822.988281 554.936523 C 822.988281 554.936523 822.988281 554.936523 822.988281 556.069336 L 827.944336 562.016602 L 831.05957 568.955078 C 831.05957 568.955078 831.05957 568.955078 831.05957 569.946289 L 833.041992 577.026367 L 833.041992 585.947266 C 833.041992 586.938477 833.041992 587.929687 833.041992 587.929687 C 832.050781 589.0625 831.05957 589.0625 830.068359 589.0625 L 811.943359 587.929687 C 810.952148 587.929687 809.960937 586.938477 808.969727 585.947266 L 808.969727 580.991211 L 808.969727 581.982422 L 807.978516 577.026367 L 808.969727 578.017578 L 806.987305 574.052734 L 805.004883 570.9375 L 805.004883 572.070312 L 803.022461 568.955078 L 800.048828 566.972656 L 801.040039 566.972656 L 796.933594 565.981445 L 798.066406 565.981445 L 793.959961 564.990234 L 794.951172 564.990234 L 790.986328 565.981445 L 791.977539 564.990234 L 788.012695 566.972656 L 789.003906 565.981445 L 786.030273 568.955078 L 786.030273 567.963867 L 784.047852 570.9375 L 784.047852 569.946289 L 782.06543 574.052734 L 782.06543 573.061523 L 779.941406 577.026367 L 779.941406 576.035156 L 778.950195 580.991211 L 778.950195 580 L 777.958984 584.956055 C 777.958984 585.947266 776.967773 586.938477 775.976562 586.938477 Z M 775.976562 581.982422 L 773.00293 583.964844 L 773.00293 580 C 773.00293 579.008789 773.00293 579.008789 773.00293 579.008789 L 774.985352 575.043945 C 774.985352 575.043945 774.985352 575.043945 774.985352 574.052734 L 776.967773 570.9375 C 776.967773 569.946289 776.967773 569.946289 776.967773 569.946289 L 778.950195 566.972656 C 778.950195 566.972656 779.941406 566.972656 779.941406 566.972656 L 782.06543 563.999023 C 783.056641 563.999023 783.056641 563.999023 783.056641 563.999023 L 786.030273 562.016602 C 786.030273 561.025391 787.021484 561.025391 787.021484 561.025391 L 789.995117 560.03418 C 789.995117 560.03418 790.986328 560.03418 790.986328 560.03418 L 799.057617 560.03418 C 799.057617 561.025391 799.057617 561.025391 799.057617 561.025391 L 803.022461 562.016602 L 805.996094 564.990234 C 806.987305 564.990234 806.987305 564.990234 806.987305 564.990234 L 809.960937 567.963867 L 811.943359 572.070312 L 814.067383 576.035156 L 815.058594 580.991211 L 815.058594 585.947266 L 811.943359 582.973633 L 831.05957 583.964844 L 827.944336 585.947266 L 827.944336 579.008789 L 824.970703 570.9375 L 825.961914 572.070312 L 822.988281 564.990234 L 819.023437 559.042969 L 812.93457 553.945312 L 814.067383 553.945312 L 807.978516 550.97168 L 805.004883 548.989258 L 799.057617 547.006836 L 789.003906 547.006836 L 785.039062 547.998047 L 782.06543 549.980469 L 782.06543 548.989258 L 775.976562 552.954102 L 776.967773 552.954102 L 771.020508 557.060547 L 766.064453 563.007812 L 767.055664 563.007812 L 762.949219 568.955078 L 763.94043 568.955078 L 760.966797 576.035156 L 759.975586 580 L 759.975586 583.964844 L 757.001953 580.991211 Z M 775.976562 581.982422 " transform="matrix(0.0275862, 0, 0, 0.0275862, 0, 0)"/>
<path fill-rule="nonzero" fill="rgb(100%, 0%, 0%)" fill-opacity="1" stroke-width="1" stroke-linecap="butt" stroke-linejoin="miter" stroke="rgb(100%, 0%, 0%)" stroke-opacity="1" stroke-miterlimit="4" d="M 954.960937 418.007812 L 1134.936523 614.975586 L 1117.944336 629.985352 L 937.96875 434.008789 Z M 954.960937 418.007812 " transform="matrix(0.0275862, 0, 0, 0.0275862, 0, 0)"/>
<path fill-rule="nonzero" fill="rgb(100%, 0%, 0%)" fill-opacity="1" stroke-width="1" stroke-linecap="butt" stroke-linejoin="miter" stroke="rgb(100%, 0%, 0%)" stroke-opacity="1" stroke-miterlimit="4" d="M 902.001953 471.958008 L 1081.977539 667.93457 L 1064.985352 683.935547 L 885.009766 487.958984 Z M 902.001953 471.958008 " transform="matrix(0.0275862, 0, 0, 0.0275862, 0, 0)"/>
<path fill-rule="nonzero" fill="rgb(100%, 0%, 0%)" fill-opacity="1" stroke-width="1" stroke-linecap="butt" stroke-linejoin="miter" stroke="rgb(100%, 0%, 0%)" stroke-opacity="1" stroke-miterlimit="4" d="M 1093.022461 495.039062 L 897.045898 676.005859 L 882.036133 659.013672 L 1077.021484 478.046875 Z M 1093.022461 495.039062 " transform="matrix(0.0275862, 0, 0, 0.0275862, 0, 0)"/>
<path fill-rule="nonzero" fill="rgb(100%, 0%, 0%)" fill-opacity="1" stroke-width="1" stroke-linecap="butt" stroke-linejoin="miter" stroke="rgb(100%, 0%, 0%)" stroke-opacity="1" stroke-miterlimit="4" d="M 1044.02832 445.053711 L 849.042969 626.020508 L 833.041992 609.02832 L 1029.018555 428.061523 Z M 1044.02832 445.053711 " transform="matrix(0.0275862, 0, 0, 0.0275862, 0, 0)"/>
<path fill-rule="nonzero" fill="rgb(100%, 0%, 0%)" fill-opacity="1" stroke-width="1" stroke-linecap="butt" stroke-linejoin="miter" stroke="rgb(100%, 0%, 0%)" stroke-opacity="1" stroke-miterlimit="4" d="M 1140.03418 544.033203 L 944.057617 725 L 928.056641 708.007812 L 1124.033203 527.041016 Z M 1140.03418 544.033203 " transform="matrix(0.0275862, 0, 0, 0.0275862, 0, 0)"/>
<path fill-rule="nonzero" fill="rgb(100%, 0%, 0%)" fill-opacity="1" stroke-width="1" stroke-linecap="butt" stroke-linejoin="miter" stroke="rgb(100%, 0%, 0%)" stroke-opacity="1" stroke-miterlimit="4" d="M 850.03418 521.943359 L 1030.009766 718.061523 L 1013.017578 734.0625 L 833.041992 537.944336 Z M 850.03418 521.943359 " transform="matrix(0.0275862, 0, 0, 0.0275862, 0, 0)"/>
</svg>
