<?xml version="1.0" encoding="UTF-8"?>
<svg xmlns="http://www.w3.org/2000/svg" xmlns:xlink="http://www.w3.org/1999/xlink" width="32" height="32" viewBox="0 0 32 32">
<path fill-rule="nonzero" fill="rgb(0%, 0%, 100%)" fill-opacity="1" stroke-width="1" stroke-linecap="butt" stroke-linejoin="miter" stroke="rgb(0%, 0%, 100%)" stroke-opacity="1" stroke-miterlimit="4" d="M 151.938477 566.972656 C 150.947266 565.981445 150.947266 563.999023 151.938477 563.007812 L 152.929687 540.068359 C 154.0625 538.935547 154.0625 536.953125 154.0625 535.961914 L 160.009766 513.022461 C 161.000977 512.03125 161.000977 511.040039 161.992187 509.057617 L 171.054687 486.967773 C 172.045898 486.967773 173.037109 484.985352 173.037109 484.985352 L 186.064453 463.037109 L 205.039062 440.947266 L 225.996094 419.990234 L 251.05957 401.015625 L 277.963867 384.023437 L 307.983398 368.022461 L 339.985352 354.003906 L 373.969727 341.967773 L 409.936523 333.046875 L 447.036133 323.984375 L 486.967773 318.037109 L 527.041016 315.063477 L 569.946289 312.939453 L 610.019531 315.063477 L 650.942383 318.037109 L 690.024414 323.984375 L 727.973633 332.055664 L 762.949219 341.967773 L 798.066406 353.012695 L 830.068359 368.022461 L 859.946289 383.032227 L 886.000977 400.024414 L 911.064453 418.999023 L 933.012695 438.964844 L 950.996094 461.054687 L 966.005859 484.985352 C 966.99707 484.985352 966.99707 486.967773 967.988281 486.967773 L 978.041992 509.057617 C 978.041992 511.040039 978.041992 512.03125 979.033203 513.022461 L 984.980469 535.961914 C 984.980469 536.953125 984.980469 538.935547 985.97168 540.068359 L 986.962891 563.007812 C 988.945312 563.999023 988.945312 565.981445 986.962891 566.972656 L 985.97168 591.044922 C 984.980469 592.036133 984.980469 593.027344 984.980469 595.009766 L 979.033203 616.958008 C 978.041992 618.94043 978.041992 619.931641 978.041992 621.064453 L 967.988281 643.012695 C 966.99707 644.003906 966.99707 644.995117 966.005859 645.986328 L 952.978516 666.943359 L 934.995117 690.024414 L 913.046875 709.990234 L 887.983398 728.964844 L 860.9375 746.948242 L 831.05957 761.958008 L 799.057617 776.967773 L 764.931641 788.012695 L 728.964844 798.066406 L 691.015625 806.987305 L 653.066406 811.943359 L 612.993164 816.049805 L 569.946289 817.041016 L 529.023437 816.049805 L 487.958984 811.943359 L 449.018555 806.987305 L 411.069336 799.057617 L 375.952148 788.012695 L 341.967773 776.967773 L 309.96582 762.949219 L 279.946289 748.930664 L 253.041992 730.947266 L 227.978516 711.972656 L 207.021484 692.006836 L 188.046875 670.058594 L 173.037109 645.986328 C 173.037109 644.995117 172.045898 644.003906 171.054687 643.012695 L 161.992187 621.064453 C 161.000977 619.931641 161.000977 618.94043 160.009766 616.958008 L 154.0625 595.009766 C 154.0625 593.027344 154.0625 592.036133 152.929687 591.044922 Z M 204.047852 585.947266 L 203.056641 581.982422 L 209.003906 603.930664 L 208.012695 600.957031 L 216.933594 622.055664 L 215.942383 618.94043 L 226.987305 637.06543 L 241.99707 655.048828 L 259.980469 672.041016 L 279.946289 688.041992 L 304.018555 703.051758 L 329.931641 717.070312 L 357.96875 728.964844 L 388.979492 740.009766 L 421.972656 748.930664 L 455.957031 757.001953 L 493.056641 761.958008 L 530.014648 766.064453 L 607.045898 766.064453 L 644.995117 761.958008 L 681.953125 757.001953 L 715.9375 750.063477 L 747.939453 741.000977 L 778.950195 728.964844 L 807.978516 718.061523 L 834.033203 704.042969 L 857.963867 690.024414 L 877.929687 674.023437 L 896.054687 658.022461 L 909.931641 640.039062 L 923.950195 618.94043 L 921.967773 622.055664 L 932.021484 600.957031 L 930.039062 603.930664 L 935.986328 581.982422 L 934.995117 585.947266 L 936.977539 563.007812 L 936.977539 566.972656 L 934.995117 544.033203 L 935.986328 548.989258 L 930.039062 526.049805 L 932.021484 530.014648 L 921.967773 508.066406 L 923.950195 511.040039 L 912.055664 493.056641 L 897.045898 476.064453 L 879.0625 458.930664 L 859.946289 442.929687 L 836.015625 428.061523 L 809.960937 413.051758 L 780.932617 402.006836 L 750.063477 390.961914 L 718.061523 382.041016 L 681.953125 373.969727 L 646.977539 369.013672 L 609.02832 365.048828 L 569.946289 364.057617 L 531.99707 365.048828 L 494.047852 368.022461 L 457.939453 373.969727 L 423.955078 381.049805 L 390.961914 389.970703 L 359.951172 401.015625 L 331.064453 413.051758 L 305.009766 425.9375 L 282.070312 440.947266 L 260.97168 456.948242 L 242.988281 473.94043 L 228.969727 490.932617 L 215.942383 511.040039 L 216.933594 508.066406 L 208.012695 530.014648 L 209.003906 526.049805 L 203.056641 548.989258 L 204.047852 544.033203 L 202.06543 566.972656 L 202.06543 563.007812 Z M 204.047852 585.947266 " transform="matrix(0.0275862, 0, 0, 0.0275862, 0, 0)"/>
<path fill-rule="nonzero" fill="rgb(0%, 0%, 100%)" fill-opacity="1" stroke-width="1" stroke-linecap="butt" stroke-linejoin="miter" stroke="rgb(0%, 0%, 100%)" stroke-opacity="1" stroke-miterlimit="4" d="M 589.0625 221.040039 L 589.0625 343.950195 L 549.980469 343.950195 L 549.980469 221.040039 Z M 589.0625 221.040039 " transform="matrix(0.0275862, 0, 0, 0.0275862, 0, 0)"/>
<path fill-rule="nonzero" fill="rgb(0%, 0%, 100%)" fill-opacity="1" stroke-width="1" stroke-linecap="butt" stroke-linejoin="miter" stroke="rgb(0%, 0%, 100%)" stroke-opacity="1" stroke-miterlimit="4" d="M 589.0625 787.021484 L 589.0625 911.064453 L 549.980469 911.064453 L 549.980469 787.021484 Z M 589.0625 787.021484 " transform="matrix(0.0275862, 0, 0, 0.0275862, 0, 0)"/>
<path fill-rule="nonzero" fill="rgb(0%, 0%, 100%)" fill-opacity="1" stroke-width="1" stroke-linecap="butt" stroke-linejoin="miter" stroke="rgb(0%, 0%, 100%)" stroke-opacity="1" stroke-miterlimit="4" d="M 951.987305 545.024414 L 1075.039062 545.024414 L 1075.039062 583.964844 L 951.987305 583.964844 Z M 951.987305 545.024414 " transform="matrix(0.0275862, 0, 0, 0.0275862, 0, 0)"/>
<path fill-rule="nonzero" fill="rgb(0%, 0%, 100%)" fill-opacity="1" stroke-width="1" stroke-linecap="butt" stroke-linejoin="miter" stroke="rgb(0%, 0%, 100%)" stroke-opacity="1" stroke-miterlimit="4" d="M 62.021484 545.024414 L 184.931641 545.024414 L 184.931641 583.964844 L 62.021484 583.964844 Z M 62.021484 545.024414 " transform="matrix(0.0275862, 0, 0, 0.0275862, 0, 0)"/>
<path fill-rule="nonzero" fill="rgb(0%, 0%, 100%)" fill-opacity="1" stroke-width="1" stroke-linecap="butt" stroke-linejoin="miter" stroke="rgb(0%, 0%, 100%)" stroke-opacity="1" stroke-miterlimit="4" d="M 842.954102 734.0625 L 912.055664 834.033203 L 882.036133 854.990234 L 811.943359 756.010742 Z M 842.954102 734.0625 " transform="matrix(0.0275862, 0, 0, 0.0275862, 0, 0)"/>
<path fill-rule="nonzero" fill="rgb(0%, 0%, 100%)" fill-opacity="1" stroke-width="1" stroke-linecap="butt" stroke-linejoin="miter" stroke="rgb(0%, 0%, 100%)" stroke-opacity="1" stroke-miterlimit="4" d="M 261.962891 275.981445 L 333.046875 376.943359 L 301.044922 400.024414 L 229.960937 297.929687 Z M 261.962891 275.981445 " transform="matrix(0.0275862, 0, 0, 0.0275862, 0, 0)"/>
<path fill-rule="nonzero" fill="rgb(0%, 0%, 100%)" fill-opacity="1" stroke-width="1" stroke-linecap="butt" stroke-linejoin="miter" stroke="rgb(0%, 0%, 100%)" stroke-opacity="1" stroke-miterlimit="4" d="M 316.054687 742.983398 L 245.961914 842.954102 L 214.951172 821.99707 L 285.043945 722.026367 Z M 316.054687 742.983398 " transform="matrix(0.0275862, 0, 0, 0.0275862, 0, 0)"/>
<path fill-rule="nonzero" fill="rgb(0%, 0%, 100%)" fill-opacity="1" stroke-width="1" stroke-linecap="butt" stroke-linejoin="miter" stroke="rgb(0%, 0%, 100%)" stroke-opacity="1" stroke-miterlimit="4" d="M 907.949219 301.044922 L 837.998047 400.024414 L 807.978516 379.067383 L 876.938477 278.955078 Z M 907.949219 301.044922 " transform="matrix(0.0275862, 0, 0, 0.0275862, 0, 0)"/>
<path fill-rule="nonzero" fill="rgb(0%, 0%, 100%)" fill-opacity="1" stroke-width="1" stroke-linecap="butt" stroke-linejoin="miter" stroke="rgb(0%, 0%, 100%)" stroke-opacity="1" stroke-miterlimit="4" d="M 442.929687 780.932617 L 415.03418 899.02832 L 377.93457 889.96582 L 407.954102 772.011719 Z M 442.929687 780.932617 " transform="matrix(0.0275862, 0, 0, 0.0275862, 0, 0)"/>
<path fill-rule="nonzero" fill="rgb(0%, 0%, 100%)" fill-opacity="1" stroke-width="1" stroke-linecap="butt" stroke-linejoin="miter" stroke="rgb(0%, 0%, 100%)" stroke-opacity="1" stroke-miterlimit="4" d="M 752.045898 240.014648 L 723.017578 358.959961 L 687.050781 350.039062 L 715.9375 230.952148 Z M 752.045898 240.014648 " transform="matrix(0.0275862, 0, 0, 0.0275862, 0, 0)"/>
<path fill-rule="nonzero" fill="rgb(0%, 0%, 100%)" fill-opacity="1" stroke-width="1" stroke-linecap="butt" stroke-linejoin="miter" stroke="rgb(0%, 0%, 100%)" stroke-opacity="1" stroke-miterlimit="4" d="M 725 773.994141 L 754.02832 891.948242 L 718.061523 901.010742 L 688.041992 783.056641 Z M 725 773.994141 " transform="matrix(0.0275862, 0, 0, 0.0275862, 0, 0)"/>
<path fill-rule="nonzero" fill="rgb(0%, 0%, 100%)" fill-opacity="1" stroke-width="1" stroke-linecap="butt" stroke-linejoin="miter" stroke="rgb(0%, 0%, 100%)" stroke-opacity="1" stroke-miterlimit="4" d="M 420.981445 227.978516 L 450.009766 345.932617 L 415.03418 354.995117 L 385.014648 237.041016 Z M 420.981445 227.978516 " transform="matrix(0.0275862, 0, 0, 0.0275862, 0, 0)"/>
<path fill-rule="nonzero" fill="rgb(0%, 0%, 100%)" fill-opacity="1" stroke-width="1" stroke-linecap="butt" stroke-linejoin="miter" stroke="rgb(0%, 0%, 100%)" stroke-opacity="1" stroke-miterlimit="4" d="M 934.003906 660.996094 L 1035.957031 726.982422 L 1015.991211 758.984375 L 914.038086 692.006836 Z M 934.003906 660.996094 " transform="matrix(0.0275862, 0, 0, 0.0275862, 0, 0)"/>
<path fill-rule="nonzero" fill="rgb(0%, 0%, 100%)" fill-opacity="1" stroke-width="1" stroke-linecap="butt" stroke-linejoin="miter" stroke="rgb(0%, 0%, 100%)" stroke-opacity="1" stroke-miterlimit="4" d="M 118.945312 383.032227 L 220.048828 449.018555 L 199.941406 480.029297 L 97.988281 413.051758 Z M 118.945312 383.032227 " transform="matrix(0.0275862, 0, 0, 0.0275862, 0, 0)"/>
<path fill-rule="nonzero" fill="rgb(0%, 0%, 100%)" fill-opacity="1" stroke-width="1" stroke-linecap="butt" stroke-linejoin="miter" stroke="rgb(0%, 0%, 100%)" stroke-opacity="1" stroke-miterlimit="4" d="M 1037.939453 404.980469 L 935.986328 470.966797 L 916.020508 439.956055 L 1017.973633 373.969727 Z M 1037.939453 404.980469 " transform="matrix(0.0275862, 0, 0, 0.0275862, 0, 0)"/>
<path fill-rule="nonzero" fill="rgb(0%, 0%, 100%)" fill-opacity="1" stroke-width="1" stroke-linecap="butt" stroke-linejoin="miter" stroke="rgb(0%, 0%, 100%)" stroke-opacity="1" stroke-miterlimit="4" d="M 215.942383 682.944336 L 113.989258 748.930664 L 94.023437 718.061523 L 195.976562 651.933594 Z M 215.942383 682.944336 " transform="matrix(0.0275862, 0, 0, 0.0275862, 0, 0)"/>
</svg>
