<?xml version="1.0" encoding="UTF-8"?>
<svg xmlns="http://www.w3.org/2000/svg" xmlns:xlink="http://www.w3.org/1999/xlink" width="32" height="32" viewBox="0 0 32 32">
<path fill-rule="nonzero" fill="rgb(0%, 0%, 100%)" fill-opacity="1" d="M 31.558594 7.890625 C 31.558594 13.296875 31.558594 18.703125 31.558594 24.109375 C 21.1875 24.109375 10.839844 24.109375 0.46875 24.109375 C 0.46875 18.703125 0.46875 13.296875 0.46875 7.890625 C 10.839844 7.890625 21.1875 7.890625 31.558594 7.890625 Z M 1.160156 9.242188 C 1.378906 9.019531 1.574219 8.800781 1.792969 8.578125 C 1.792969 13.542969 1.792969 18.484375 1.792969 23.449219 C 1.574219 23.226562 1.378906 23.007812 1.160156 22.785156 C 11.0625 22.785156 20.992188 22.785156 30.898438 22.785156 C 30.675781 23.007812 30.457031 23.226562 30.234375 23.449219 C 30.234375 18.484375 30.234375 13.542969 30.234375 8.578125 C 30.457031 8.800781 30.675781 9.019531 30.898438 9.242188 C 20.992188 9.242188 11.0625 9.242188 1.160156 9.242188 Z M 1.160156 9.242188 "/>
<path fill="none" stroke-width="1" stroke-linecap="butt" stroke-linejoin="miter" stroke="rgb(0%, 0%, 100%)" stroke-opacity="1" stroke-miterlimit="4" d="M 1143.999023 286.035156 C 1143.999023 482.011719 1143.999023 677.988281 1143.999023 873.964844 C 768.046875 873.964844 392.944336 873.964844 16.992187 873.964844 C 16.992187 677.988281 16.992187 482.011719 16.992187 286.035156 C 392.944336 286.035156 768.046875 286.035156 1143.999023 286.035156 Z M 1143.999023 286.035156 " transform="matrix(0.0275862, 0, 0, 0.0275862, 0, 0)"/>
<path fill="none" stroke-width="1" stroke-linecap="butt" stroke-linejoin="miter" stroke="rgb(0%, 0%, 100%)" stroke-opacity="1" stroke-miterlimit="4" d="M 42.055664 335.029297 C 49.985352 326.958008 57.06543 319.02832 64.995117 310.957031 C 64.995117 490.932617 64.995117 670.058594 64.995117 850.03418 C 57.06543 841.962891 49.985352 834.033203 42.055664 825.961914 C 401.015625 825.961914 760.966797 825.961914 1120.068359 825.961914 C 1111.99707 834.033203 1104.067383 841.962891 1095.996094 850.03418 C 1095.996094 670.058594 1095.996094 490.932617 1095.996094 310.957031 C 1104.067383 319.02832 1111.99707 326.958008 1120.068359 335.029297 C 760.966797 335.029297 401.015625 335.029297 42.055664 335.029297 Z M 42.055664 335.029297 " transform="matrix(0.0275862, 0, 0, 0.0275862, 0, 0)"/>
<path fill-rule="nonzero" fill="rgb(0%, 0%, 100%)" fill-opacity="1" d="M 20.605469 8.660156 C 23.890625 11.144531 27.144531 13.65625 30.425781 16.164062 C 27.144531 18.621094 23.890625 21.101562 20.605469 23.585938 C 20.605469 18.621094 20.605469 13.628906 20.605469 8.660156 Z M 21.929688 22.261719 C 21.574219 22.070312 21.214844 21.902344 20.855469 21.710938 C 23.53125 19.667969 26.207031 17.628906 28.882812 15.613281 C 28.882812 15.972656 28.882812 16.304688 28.882812 16.660156 C 26.207031 14.648438 23.53125 12.605469 20.855469 10.566406 C 21.214844 10.371094 21.574219 10.207031 21.929688 10.015625 C 21.929688 14.097656 21.929688 18.179688 21.929688 22.261719 Z M 21.929688 22.261719 "/>
<path fill="none" stroke-width="1" stroke-linecap="butt" stroke-linejoin="miter" stroke="rgb(0%, 0%, 100%)" stroke-opacity="1" stroke-miterlimit="4" d="M 746.948242 313.930664 C 866.035156 403.989258 983.989258 495.039062 1102.93457 585.947266 C 983.989258 675.014648 866.035156 764.931641 746.948242 854.990234 C 746.948242 675.014648 746.948242 494.047852 746.948242 313.930664 Z M 746.948242 313.930664 " transform="matrix(0.0275862, 0, 0, 0.0275862, 0, 0)"/>
<path fill="none" stroke-width="1" stroke-linecap="butt" stroke-linejoin="miter" stroke="rgb(0%, 0%, 100%)" stroke-opacity="1" stroke-miterlimit="4" d="M 794.951172 806.987305 C 782.06543 800.048828 769.038086 793.959961 756.010742 787.021484 C 853.007812 712.963867 950.004883 639.047852 1047.001953 565.981445 C 1047.001953 579.008789 1047.001953 591.044922 1047.001953 603.930664 C 950.004883 531.005859 853.007812 456.948242 756.010742 383.032227 C 769.038086 375.952148 782.06543 370.004883 794.951172 363.066406 C 794.951172 511.040039 794.951172 659.013672 794.951172 806.987305 Z M 794.951172 806.987305 " transform="matrix(0.0275862, 0, 0, 0.0275862, 0, 0)"/>
<path fill-rule="nonzero" fill="rgb(0%, 0%, 100%)" fill-opacity="1" d="M 7.476562 18.015625 C 7.476562 16.882812 7.476562 15.75 7.476562 14.621094 C 7.0625 14.621094 6.648438 14.621094 6.234375 14.621094 C 6.234375 14.398438 6.234375 14.179688 6.234375 13.957031 C 7.339844 13.957031 8.441406 13.957031 9.515625 13.957031 C 9.515625 14.179688 9.515625 14.398438 9.515625 14.621094 C 9.132812 14.621094 8.71875 14.621094 8.304688 14.621094 C 8.304688 15.75 8.304688 16.882812 8.304688 18.015625 Z M 7.476562 18.015625 "/>
<path fill-rule="nonzero" fill="rgb(0%, 0%, 100%)" fill-opacity="1" d="M 10.070312 18.015625 C 10.070312 16.660156 10.070312 15.308594 10.070312 13.984375 C 10.34375 13.984375 10.621094 13.984375 10.898438 13.984375 C 10.898438 15.089844 10.898438 16.21875 10.898438 17.324219 C 11.585938 17.324219 12.277344 17.324219 12.964844 17.324219 C 12.964844 17.542969 12.964844 17.792969 12.964844 18.015625 Z M 10.070312 18.015625 "/>
<path fill-rule="nonzero" fill="rgb(0%, 0%, 100%)" fill-opacity="1" d="M 13.574219 18.015625 C 13.574219 16.660156 13.574219 15.308594 13.574219 13.957031 C 14.511719 13.957031 15.449219 13.957031 16.414062 13.957031 C 16.414062 14.179688 16.414062 14.398438 16.414062 14.621094 C 15.75 14.621094 15.0625 14.621094 14.398438 14.621094 C 14.398438 14.953125 14.398438 15.28125 14.398438 15.585938 C 14.980469 15.585938 15.558594 15.585938 16.136719 15.585938 C 16.136719 15.835938 16.136719 16.054688 16.136719 16.277344 C 15.558594 16.277344 14.980469 16.277344 14.398438 16.277344 C 14.398438 16.855469 14.398438 17.433594 14.398438 18.015625 Z M 13.574219 18.015625 "/>
</svg>
