<?xml version="1.0" encoding="UTF-8"?>
<svg xmlns="http://www.w3.org/2000/svg" xmlns:xlink="http://www.w3.org/1999/xlink" width="32" height="32" viewBox="0 0 32 32">
<path fill-rule="nonzero" fill="rgb(100%, 0%, 0%)" fill-opacity="1" stroke-width="1" stroke-linecap="butt" stroke-linejoin="miter" stroke="rgb(100%, 0%, 0%)" stroke-opacity="1" stroke-miterlimit="4" d="M 27.045898 30.019531 L 1126.015625 30.019531 L 1126.015625 1129.980469 L 27.045898 1129.980469 Z M 73.066406 1107.041016 L 50.976562 1083.959961 L 1104.067383 1083.959961 L 1079.995117 1107.041016 L 1079.995117 52.958984 L 1104.067383 76.040039 L 50.976562 76.040039 L 73.066406 52.958984 Z M 73.066406 1107.041016 " transform="matrix(0.0275862, 0, 0, 0.0275862, 0, 0)"/>
<path fill-rule="nonzero" fill="rgb(100%, 0%, 0%)" fill-opacity="1" d="M 4.496094 15.613281 C 4.496094 14.539062 5.351562 13.683594 6.398438 13.683594 C 7.449219 13.683594 8.332031 14.539062 8.332031 15.613281 C 8.332031 16.691406 7.449219 17.542969 6.398438 17.542969 C 5.351562 17.542969 4.496094 16.691406 4.496094 15.613281 Z M 4.496094 15.613281 "/>
<path fill-rule="nonzero" fill="rgb(100%, 0%, 0%)" fill-opacity="1" stroke-width="1" stroke-linecap="butt" stroke-linejoin="miter" stroke="rgb(100%, 0%, 0%)" stroke-opacity="1" stroke-miterlimit="4" d="M 161.000977 565.981445 L 161.992187 558.051758 L 162.983398 551.962891 L 163.974609 545.024414 L 166.948242 537.944336 L 168.930664 531.99707 L 173.037109 525.058594 L 177.001953 519.960937 L 181.958008 515.004883 L 187.055664 510.048828 L 192.011719 506.933594 L 197.958984 502.96875 L 204.047852 499.995117 L 210.986328 498.012695 L 216.933594 496.030273 L 225.004883 495.039062 L 231.943359 494.047852 L 239.023437 494.047852 L 245.961914 496.030273 L 253.041992 498.012695 L 258.989258 499.995117 L 264.936523 502.96875 L 271.025391 506.933594 L 276.972656 510.048828 L 282.070312 515.004883 L 286.035156 519.960937 L 290.991211 525.058594 L 293.964844 531.005859 L 296.938477 537.944336 L 299.0625 545.024414 L 302.036133 551.962891 L 302.036133 580 L 299.0625 586.938477 L 296.938477 594.018555 L 293.964844 599.96582 L 290.991211 605.063477 L 286.035156 611.010742 L 282.070312 615.966797 L 276.972656 621.064453 L 271.025391 625.029297 L 264.936523 628.00293 L 258.989258 631.967773 L 253.041992 633.950195 L 245.961914 635.932617 L 239.023437 637.06543 L 225.004883 637.06543 L 216.933594 635.932617 L 205.039062 631.967773 L 197.958984 628.00293 L 192.011719 625.029297 L 187.055664 621.064453 L 177.001953 611.010742 L 174.02832 605.063477 L 168.930664 599.96582 L 166.948242 594.018555 L 163.974609 586.938477 L 161.992187 573.061523 Z M 162.983398 573.061523 L 164.96582 579.008789 L 166.948242 585.947266 L 168.930664 593.027344 L 172.045898 598.974609 L 175.019531 605.063477 L 178.984375 610.019531 L 183.94043 614.975586 L 189.038086 618.94043 L 193.994141 623.046875 L 198.950195 626.020508 L 206.030273 628.994141 L 210.986328 631.967773 L 218.066406 632.958984 L 231.943359 634.941406 L 238.032227 633.950195 L 244.970703 632.958984 L 252.050781 631.967773 L 258.989258 628.994141 L 263.945312 626.020508 L 270.03418 623.046875 L 274.990234 618.94043 L 279.946289 614.975586 L 285.043945 610.019531 L 288.017578 605.063477 L 290.991211 598.974609 L 294.956055 593.027344 L 296.938477 585.947266 L 299.0625 579.008789 L 300.053711 573.061523 L 300.053711 559.042969 L 299.0625 551.962891 L 296.938477 546.015625 L 294.956055 538.935547 L 289.008789 527.041016 L 285.043945 521.943359 L 279.946289 516.987305 L 270.03418 509.057617 L 263.945312 504.951172 L 258.989258 501.977539 L 252.050781 499.995117 L 245.961914 499.003906 L 239.023437 497.021484 L 225.004883 497.021484 L 218.066406 499.003906 L 210.986328 499.995117 L 206.030273 501.977539 L 199.941406 504.951172 L 193.994141 509.057617 L 189.038086 513.022461 L 183.94043 516.987305 L 178.984375 521.943359 L 175.019531 527.041016 L 172.045898 532.988281 L 168.930664 538.935547 L 166.948242 545.024414 L 164.96582 551.962891 L 162.983398 558.051758 Z M 162.983398 573.061523 " transform="matrix(0.0275862, 0, 0, 0.0275862, 0, 0)"/>
<path fill-rule="nonzero" fill="rgb(100%, 0%, 0%)" fill-opacity="1" d="M 23.640625 15.503906 C 23.640625 14.484375 24.496094 13.601562 25.574219 13.601562 C 26.648438 13.601562 27.476562 14.484375 27.476562 15.503906 C 27.476562 16.578125 26.648438 17.433594 25.574219 17.433594 C 24.496094 17.433594 23.640625 16.578125 23.640625 15.503906 Z M 23.640625 15.503906 "/>
<path fill-rule="nonzero" fill="rgb(100%, 0%, 0%)" fill-opacity="1" stroke-width="1" stroke-linecap="butt" stroke-linejoin="miter" stroke="rgb(100%, 0%, 0%)" stroke-opacity="1" stroke-miterlimit="4" d="M 855.981445 562.016602 L 855.981445 556.069336 L 857.963867 547.998047 L 859.946289 541.05957 L 860.9375 535.961914 L 865.043945 529.023437 L 868.017578 522.93457 L 875.947266 513.022461 L 882.036133 508.066406 L 886.992187 503.959961 L 892.939453 499.995117 L 899.02832 498.012695 L 905.966797 495.039062 L 913.046875 493.056641 L 918.994141 493.056641 L 927.06543 492.06543 L 934.003906 493.056641 L 940.942383 493.056641 L 948.022461 495.039062 L 954.960937 498.012695 L 961.049805 499.995117 L 966.99707 503.959961 L 971.953125 508.066406 L 977.050781 513.022461 L 982.006836 517.978516 L 985.97168 522.93457 L 988.945312 529.023437 L 992.060547 534.970703 L 994.042969 541.05957 L 996.025391 547.998047 L 997.016602 556.069336 L 998.007812 562.016602 L 997.016602 569.946289 L 996.025391 577.026367 L 994.042969 583.964844 L 992.060547 590.053711 L 988.945312 596.000977 L 985.97168 601.948242 L 982.006836 608.037109 L 977.050781 612.993164 L 971.953125 616.958008 L 966.99707 621.064453 L 961.049805 625.029297 L 954.960937 628.00293 L 948.022461 629.985352 L 940.942383 631.967773 L 934.995117 632.958984 L 918.994141 632.958984 L 913.046875 631.967773 L 905.966797 629.985352 L 899.02832 628.00293 L 892.939453 625.029297 L 886.992187 621.064453 L 882.036133 616.958008 L 876.938477 612.993164 L 871.982422 608.037109 L 868.017578 601.948242 L 865.043945 596.000977 L 860.9375 590.053711 L 859.946289 583.964844 L 857.963867 577.026367 L 855.981445 569.946289 Z M 858.955078 568.955078 L 859.946289 576.035156 L 860.9375 582.973633 L 864.052734 589.0625 L 867.026367 595.009766 L 870.991211 599.96582 L 873.964844 606.054687 L 879.0625 611.010742 L 883.027344 615.966797 L 888.974609 618.94043 L 893.930664 622.055664 L 900.019531 626.020508 L 906.958008 628.00293 L 914.038086 629.985352 L 919.985352 630.976562 L 934.003906 630.976562 L 939.951172 629.985352 L 947.03125 628.00293 L 952.978516 626.020508 L 959.067383 623.046875 L 965.014648 618.94043 L 969.970703 615.966797 L 975.068359 611.010742 L 980.024414 606.054687 L 982.998047 600.957031 L 986.962891 595.009766 L 989.936523 589.0625 L 992.060547 582.973633 L 993.051758 577.026367 L 995.03418 569.946289 L 995.03418 556.069336 L 993.051758 548.989258 L 992.060547 542.050781 L 989.936523 535.961914 L 986.962891 530.014648 L 982.998047 525.058594 L 980.024414 519.960937 L 975.068359 514.013672 L 970.961914 510.048828 L 965.014648 505.942383 L 960.058594 502.96875 L 953.969727 499.995117 L 947.03125 498.012695 L 939.951172 496.030273 L 934.003906 494.047852 L 919.985352 494.047852 L 914.038086 496.030273 L 906.958008 498.012695 L 900.019531 499.003906 L 893.930664 502.96875 L 888.974609 505.942383 L 883.027344 510.048828 L 879.0625 514.013672 L 873.964844 519.960937 L 870.991211 525.058594 L 867.026367 530.014648 L 864.052734 535.961914 L 860.9375 542.050781 L 859.946289 548.989258 L 858.955078 556.069336 Z M 858.955078 568.955078 " transform="matrix(0.0275862, 0, 0, 0.0275862, 0, 0)"/>
<path fill-rule="nonzero" fill="rgb(100%, 0%, 0%)" fill-opacity="1" stroke-width="1" stroke-linecap="butt" stroke-linejoin="miter" stroke="rgb(100%, 0%, 0%)" stroke-opacity="1" stroke-miterlimit="4" d="M 392.944336 595.009766 L 418.007812 551.962891 L 605.063477 841.962891 L 558.051758 840.97168 L 761.958008 550.97168 L 785.039062 595.009766 Z M 838.989258 538.935547 L 580.991211 907.949219 L 340.976562 538.935547 Z M 838.989258 538.935547 " transform="matrix(0.0275862, 0, 0, 0.0275862, 0, 0)"/>
<path fill-rule="nonzero" fill="rgb(100%, 0%, 0%)" fill-opacity="1" stroke-width="1" stroke-linecap="butt" stroke-linejoin="miter" stroke="rgb(100%, 0%, 0%)" stroke-opacity="1" stroke-miterlimit="4" d="M 321.010742 512.03125 L 206.030273 341.967773 L 252.050781 309.96582 L 368.022461 480.029297 Z M 321.010742 512.03125 " transform="matrix(0.0275862, 0, 0, 0.0275862, 0, 0)"/>
<path fill-rule="nonzero" fill="rgb(100%, 0%, 0%)" fill-opacity="1" stroke-width="1" stroke-linecap="butt" stroke-linejoin="miter" stroke="rgb(100%, 0%, 0%)" stroke-opacity="1" stroke-miterlimit="4" d="M 799.057617 484.985352 L 905.966797 309.96582 L 953.969727 338.994141 L 847.060547 514.013672 Z M 799.057617 484.985352 " transform="matrix(0.0275862, 0, 0, 0.0275862, 0, 0)"/>
<path fill-rule="nonzero" fill="rgb(100%, 0%, 0%)" fill-opacity="1" stroke-width="1" stroke-linecap="butt" stroke-linejoin="miter" stroke="rgb(100%, 0%, 0%)" stroke-opacity="1" stroke-miterlimit="4" d="M 323.984375 455.957031 L 843.945312 454.96582 L 844.936523 511.040039 L 324.975586 513.022461 Z M 323.984375 455.957031 " transform="matrix(0.0275862, 0, 0, 0.0275862, 0, 0)"/>
</svg>
