<?xml version="1.0" encoding="UTF-8"?>
<svg xmlns="http://www.w3.org/2000/svg" xmlns:xlink="http://www.w3.org/1999/xlink" width="32" height="32" viewBox="0 0 32 32">
<path fill-rule="nonzero" fill="rgb(100%, 0%, 0%)" fill-opacity="1" stroke-width="1" stroke-linecap="butt" stroke-linejoin="miter" stroke="rgb(100%, 0%, 0%)" stroke-opacity="1" stroke-miterlimit="4" d="M 760.966797 85.952148 L 108.041992 738.027344 L 50.976562 679.970703 L 703.051758 28.037109 Z M 760.966797 85.952148 " transform="matrix(0.0275862, 0, 0, 0.0275862, 0, 0)"/>
<path fill-rule="nonzero" fill="rgb(100%, 0%, 0%)" fill-opacity="1" stroke-width="1" stroke-linecap="butt" stroke-linejoin="miter" stroke="rgb(100%, 0%, 0%)" stroke-opacity="1" stroke-miterlimit="4" d="M 929.047852 254.033203 L 275.981445 906.958008 L 219.057617 849.042969 L 870.991211 196.967773 Z M 929.047852 254.033203 " transform="matrix(0.0275862, 0, 0, 0.0275862, 0, 0)"/>
<path fill-rule="nonzero" fill="rgb(100%, 0%, 0%)" fill-opacity="1" stroke-width="1" stroke-linecap="butt" stroke-linejoin="miter" stroke="rgb(100%, 0%, 0%)" stroke-opacity="1" stroke-miterlimit="4" d="M 1101.943359 427.070312 L 449.018555 1079.003906 L 390.961914 1021.938477 L 1045.019531 369.013672 Z M 1101.943359 427.070312 " transform="matrix(0.0275862, 0, 0, 0.0275862, 0, 0)"/>
<path fill-rule="nonzero" fill="rgb(100%, 0%, 0%)" fill-opacity="1" stroke-width="1" stroke-linecap="butt" stroke-linejoin="miter" stroke="rgb(100%, 0%, 0%)" stroke-opacity="1" stroke-miterlimit="4" d="M 1042.045898 731.938477 L 387.988281 79.013672 L 446.044922 20.957031 L 1099.960937 674.023437 Z M 1042.045898 731.938477 " transform="matrix(0.0275862, 0, 0, 0.0275862, 0, 0)"/>
<path fill-rule="nonzero" fill="rgb(100%, 0%, 0%)" fill-opacity="1" stroke-width="1" stroke-linecap="butt" stroke-linejoin="miter" stroke="rgb(100%, 0%, 0%)" stroke-opacity="1" stroke-miterlimit="4" d="M 872.973633 901.010742 L 220.048828 246.953125 L 277.963867 190.029297 L 931.030273 841.962891 Z M 872.973633 901.010742 " transform="matrix(0.0275862, 0, 0, 0.0275862, 0, 0)"/>
<path fill-rule="nonzero" fill="rgb(100%, 0%, 0%)" fill-opacity="1" stroke-width="1" stroke-linecap="butt" stroke-linejoin="miter" stroke="rgb(100%, 0%, 0%)" stroke-opacity="1" stroke-miterlimit="4" d="M 701.069336 1072.06543 L 48.00293 418.999023 L 105.068359 361.933594 L 757.993164 1015 Z M 701.069336 1072.06543 " transform="matrix(0.0275862, 0, 0, 0.0275862, 0, 0)"/>
</svg>
