<?xml version="1.0" encoding="UTF-8"?>
<svg xmlns="http://www.w3.org/2000/svg" xmlns:xlink="http://www.w3.org/1999/xlink" width="32" height="32" viewBox="0 0 32 32">
<path fill-rule="nonzero" fill="rgb(0%, 0%, 100%)" fill-opacity="1" stroke-width="1" stroke-linecap="butt" stroke-linejoin="miter" stroke="rgb(0%, 0%, 100%)" stroke-opacity="1" stroke-miterlimit="4" d="M 219.057617 36.958008 L 900.019531 36.958008 L 900.019531 1080.986328 L 219.057617 1080.986328 Z M 300.053711 1041.054687 L 258.989258 999.990234 L 858.955078 999.990234 L 819.023437 1041.054687 L 819.023437 78.022461 L 858.955078 118.945312 L 258.989258 118.945312 L 300.053711 78.022461 Z M 300.053711 1041.054687 " transform="matrix(0.0275862, 0, 0, 0.0275862, 0, 0)"/>
<path fill-rule="nonzero" fill="rgb(0%, 0%, 100%)" fill-opacity="1" stroke-width="1" stroke-linecap="butt" stroke-linejoin="miter" stroke="rgb(0%, 0%, 100%)" stroke-opacity="1" stroke-miterlimit="4" d="M 593.027344 215.942383 L 593.027344 919.985352 L 546.015625 919.985352 L 546.015625 215.942383 Z M 593.027344 215.942383 " transform="matrix(0.0275862, 0, 0, 0.0275862, 0, 0)"/>
<path fill-rule="nonzero" fill="rgb(0%, 0%, 100%)" fill-opacity="1" stroke-width="1" stroke-linecap="butt" stroke-linejoin="miter" stroke="rgb(0%, 0%, 100%)" stroke-opacity="1" stroke-miterlimit="4" d="M 407.954102 372.978516 L 721.035156 372.978516 L 721.035156 418.999023 L 407.954102 418.999023 Z M 407.954102 372.978516 " transform="matrix(0.0275862, 0, 0, 0.0275862, 0, 0)"/>
</svg>
