<?xml version="1.0" encoding="UTF-8"?>
<svg xmlns="http://www.w3.org/2000/svg" xmlns:xlink="http://www.w3.org/1999/xlink" width="32" height="32" viewBox="0 0 32 32">
<path fill-rule="nonzero" fill="rgb(0%, 0%, 100%)" fill-opacity="1" stroke-width="1" stroke-linecap="butt" stroke-linejoin="miter" stroke="rgb(0%, 0%, 100%)" stroke-opacity="1" stroke-miterlimit="4" d="M 204.047852 19.96582 L 908.94043 19.96582 L 908.94043 1085.942383 L 204.047852 1085.942383 Z M 288.017578 1045.019531 L 245.961914 1002.963867 L 868.017578 1002.963867 L 825.961914 1045.019531 L 825.961914 62.021484 L 868.017578 102.944336 L 245.961914 102.944336 L 288.017578 62.021484 Z M 288.017578 1045.019531 " transform="matrix(0.0275862, 0, 0, 0.0275862, 0, 0)"/>
<path fill-rule="nonzero" fill="rgb(0%, 0%, 100%)" fill-opacity="1" stroke-width="1" stroke-linecap="butt" stroke-linejoin="miter" stroke="rgb(0%, 0%, 100%)" stroke-opacity="1" stroke-miterlimit="4" d="M 495.039062 418.999023 L 610.019531 418.999023 C 625.029297 418.999023 637.06543 431.035156 637.06543 446.044922 C 637.06543 462.045898 625.029297 472.949219 610.019531 472.949219 L 495.039062 472.949219 C 480.029297 472.949219 467.993164 462.045898 467.993164 446.044922 C 467.993164 431.035156 480.029297 418.999023 495.039062 418.999023 Z M 495.039062 418.999023 " transform="matrix(0.0275862, 0, 0, 0.0275862, 0, 0)"/>
<path fill-rule="nonzero" fill="rgb(0%, 0%, 100%)" fill-opacity="1" stroke-width="1" stroke-linecap="butt" stroke-linejoin="miter" stroke="rgb(0%, 0%, 100%)" stroke-opacity="1" stroke-miterlimit="4" d="M 580 446.044922 L 580 562.016602 C 580 576.035156 568.955078 589.0625 552.954102 589.0625 C 537.944336 589.0625 526.049805 576.035156 526.049805 562.016602 L 526.049805 446.044922 C 526.049805 431.035156 537.944336 418.999023 552.954102 418.999023 C 568.955078 418.999023 580 431.035156 580 446.044922 Z M 580 446.044922 " transform="matrix(0.0275862, 0, 0, 0.0275862, 0, 0)"/>
<path fill-rule="nonzero" fill="rgb(0%, 0%, 100%)" fill-opacity="1" stroke-width="1" stroke-linecap="butt" stroke-linejoin="miter" stroke="rgb(0%, 0%, 100%)" stroke-opacity="1" stroke-miterlimit="4" d="M 342.958984 538.935547 L 625.029297 538.935547 C 640.039062 538.935547 651.933594 550.97168 651.933594 565.981445 C 651.933594 580.991211 640.039062 593.027344 625.029297 593.027344 L 342.958984 593.027344 C 328.94043 593.027344 316.054687 580.991211 316.054687 565.981445 C 316.054687 550.97168 328.94043 538.935547 342.958984 538.935547 Z M 342.958984 538.935547 " transform="matrix(0.0275862, 0, 0, 0.0275862, 0, 0)"/>
<path fill-rule="nonzero" fill="rgb(0%, 0%, 100%)" fill-opacity="1" stroke-width="1" stroke-linecap="butt" stroke-linejoin="miter" stroke="rgb(0%, 0%, 100%)" stroke-opacity="1" stroke-miterlimit="4" d="M 628.00293 538.935547 L 655.048828 541.05957 C 656.040039 541.05957 658.022461 542.050781 660.004883 542.050781 L 683.935547 548.989258 C 686.05957 548.989258 687.050781 549.980469 688.041992 549.980469 L 711.972656 561.025391 C 712.963867 562.016602 713.955078 563.007812 715.9375 563.007812 L 736.044922 577.026367 C 737.036133 579.008789 738.027344 580 740.009766 580.991211 L 756.010742 597.983398 C 757.001953 598.974609 758.984375 599.96582 758.984375 601.948242 L 772.011719 622.055664 C 773.00293 623.046875 773.00293 625.029297 773.994141 626.020508 L 782.06543 647.96875 C 782.06543 648.959961 783.056641 650.942383 783.056641 653.066406 L 785.039062 662.978516 L 786.030273 678.979492 C 787.021484 693.989258 775.976562 706.025391 760.966797 708.007812 C 745.957031 708.007812 732.929687 696.962891 731.938477 681.953125 L 731.938477 674.023437 L 729.956055 662.978516 L 730.947266 666.943359 L 723.017578 644.995117 L 725.991211 649.951172 L 713.955078 630.976562 L 717.070312 635.932617 L 699.936523 617.949219 L 705.03418 622.055664 L 683.935547 608.037109 L 689.033203 610.019531 L 665.952148 599.96582 L 670.058594 600.957031 L 644.995117 595.009766 L 650.942383 595.009766 L 623.046875 593.027344 C 608.037109 592.036133 596.992187 579.008789 598.974609 563.007812 C 599.96582 548.989258 612.993164 537.944336 628.00293 538.935547 Z M 628.00293 538.935547 " transform="matrix(0.0275862, 0, 0, 0.0275862, 0, 0)"/>
</svg>
