<?xml version="1.0" encoding="UTF-8"?>
<svg xmlns="http://www.w3.org/2000/svg" xmlns:xlink="http://www.w3.org/1999/xlink" width="32" height="32" viewBox="0 0 32 32">
<path fill-rule="nonzero" fill="rgb(100%, 0%, 0%)" fill-opacity="1" stroke-width="1" stroke-linecap="butt" stroke-linejoin="miter" stroke="rgb(100%, 0%, 0%)" stroke-opacity="1" stroke-miterlimit="4" d="M 21.948242 236.049805 L 66.977539 204.047852 L 116.962891 175.019531 L 170.063477 150.947266 L 225.996094 129.990234 L 283.061523 113.989258 L 341.967773 102.944336 L 402.006836 96.005859 L 462.045898 93.032227 L 521.943359 94.023437 L 581.982422 98.979492 L 641.030273 108.041992 L 699.936523 121.069336 L 756.010742 139.052734 L 811.943359 161.000977 L 864.052734 188.046875 L 912.055664 219.057617 L 935.986328 236.049805 L 957.93457 253.041992 L 979.033203 271.025391 L 997.016602 290.991211 L 1015 309.96582 L 1031.992187 329.931641 L 1046.010742 351.030273 L 1060.029297 370.996094 L 1070.932617 392.944336 L 1081.977539 415.03418 L 1090.048828 435.991211 L 1097.978516 457.939453 L 1104.067383 481.020508 L 1109.023437 502.96875 L 1111.99707 527.041016 L 1112.988281 549.980469 L 1112.988281 573.061523 L 1111.99707 596.000977 L 1110.014648 617.949219 L 1105.058594 641.030273 L 1098.969727 663.969727 L 1091.040039 686.05957 L 1081.977539 708.007812 L 1072.06543 729.956055 L 1060.029297 752.045898 L 1047.001953 773.00293 L 1031.992187 792.96875 L 1015 814.067383 L 998.007812 833.041992 L 980.024414 853.007812 L 957.93457 870 L 935.986328 887.983398 L 889.96582 920.976562 L 839.980469 950.004883 L 787.021484 973.935547 L 729.956055 995.03418 L 674.023437 1010.043945 L 614.975586 1021.938477 L 554.936523 1029.018555 L 495.039062 1031.992187 L 435 1031.000977 L 373.969727 1026.044922 L 315.063477 1016.982422 L 257.006836 1002.963867 L 199.941406 984.980469 L 145.991211 963.032227 L 94.023437 936.977539 L 44.038086 905.966797 L 19.96582 887.983398 L 47.011719 852.016602 L 67.96875 868.017578 L 113.989258 896.054687 L 161.992187 920.976562 L 213.959961 941.933594 L 267.060547 960.058594 L 322.001953 971.953125 L 377.93457 982.006836 L 435 985.97168 L 492.06543 986.962891 L 549.980469 983.989258 L 605.063477 977.050781 L 660.996094 966.005859 L 714.946289 950.996094 L 767.055664 933.012695 L 817.041016 909.931641 L 864.052734 884.018555 L 907.949219 853.007812 L 928.056641 837.006836 L 947.03125 820.014648 L 964.023437 803.022461 L 981.015625 785.039062 L 995.03418 767.055664 L 1009.052734 748.930664 L 1019.956055 729.956055 L 1031.000977 709.990234 L 1040.063477 691.015625 L 1047.993164 672.041016 L 1054.931641 653.066406 L 1060.029297 631.967773 L 1063.994141 612.993164 L 1066.967773 593.027344 L 1066.967773 532.988281 L 1063.994141 513.022461 L 1060.029297 493.056641 L 1054.931641 472.949219 L 1048.984375 453.974609 L 1040.063477 434.008789 L 1031.992187 415.03418 L 1020.947266 396.05957 L 1009.052734 376.943359 L 996.025391 357.96875 L 982.006836 340.976562 L 966.005859 322.993164 L 930.039062 289.008789 L 909.931641 272.016602 L 888.974609 257.006836 L 841.962891 228.969727 L 793.959961 204.047852 L 741.992187 182.949219 L 690.024414 165.957031 L 634.941406 152.929687 L 578.017578 144.008789 L 520.952148 139.052734 L 464.02832 138.061523 L 406.962891 141.035156 L 351.030273 147.973633 L 294.956055 159.018555 L 241.005859 174.02832 L 190.029297 191.020508 L 140.043945 214.951172 L 93.032227 241.005859 L 47.011719 272.016602 Z M 21.948242 236.049805 " transform="matrix(0.0275862, 0, 0, 0.0275862, 0, 0)"/>
</svg>
