<?xml version="1.0" encoding="UTF-8"?>
<svg xmlns="http://www.w3.org/2000/svg" xmlns:xlink="http://www.w3.org/1999/xlink" width="32" height="32" viewBox="0 0 32 32">
<path fill-rule="nonzero" fill="rgb(0%, 0%, 100%)" fill-opacity="1" stroke-width="1" stroke-linecap="butt" stroke-linejoin="miter" stroke="rgb(0%, 0%, 100%)" stroke-opacity="1" stroke-miterlimit="4" d="M 246.953125 678.979492 L 246.953125 662.978516 L 248.935547 645.986328 L 251.05957 629.985352 L 253.041992 613.984375 L 257.006836 598.974609 L 260.97168 582.973633 L 266.069336 567.963867 L 272.016602 552.954102 L 278.955078 538.935547 L 286.035156 525.058594 L 292.973633 512.03125 L 302.036133 499.003906 L 310.957031 485.976562 L 320.019531 473.94043 L 329.931641 462.045898 L 352.021484 439.956055 L 364.057617 430.043945 L 375.952148 419.990234 L 388.979492 411.069336 L 402.006836 402.998047 L 416.025391 395.068359 L 430.043945 387.988281 L 444.0625 381.049805 L 458.930664 375.952148 L 473.94043 370.004883 L 488.950195 366.040039 L 504.951172 361.933594 L 520.952148 358.959961 L 536.953125 356.977539 L 552.954102 355.986328 L 585.947266 355.986328 L 602.939453 356.977539 L 618.94043 358.959961 L 634.941406 361.933594 L 650.942383 365.048828 L 680.961914 374.960937 L 695.97168 381.049805 L 709.990234 386.99707 L 724.008789 393.935547 L 738.027344 402.006836 L 751.054687 409.936523 L 763.94043 418.999023 L 775.976562 429.052734 L 788.012695 438.964844 L 799.057617 449.018555 L 809.960937 461.054687 L 820.014648 471.958008 L 828.935547 483.994141 L 838.989258 497.021484 L 847.060547 510.048828 L 854.990234 524.067383 L 862.070312 536.953125 L 869.008789 551.962891 L 873.964844 565.981445 L 880.053711 580.991211 L 884.018555 596.992187 L 887.983398 612.001953 L 890.957031 628.00293 L 892.939453 644.003906 L 893.930664 660.996094 L 893.930664 693.989258 L 892.939453 709.990234 L 890.957031 725.991211 L 887.983398 741.992187 L 884.018555 757.993164 L 880.053711 773.00293 L 874.956055 788.012695 L 869.008789 803.022461 L 863.061523 817.041016 L 855.981445 831.05957 L 848.051758 844.936523 L 839.980469 857.963867 L 831.05957 870.991211 L 821.005859 883.027344 L 810.952148 893.930664 L 800.048828 905.966797 L 789.003906 916.020508 L 776.967773 927.06543 L 764.931641 935.986328 L 752.045898 945.048828 L 739.018555 953.969727 L 725.991211 961.049805 L 711.972656 968.979492 L 697.954102 975.068359 L 682.944336 981.015625 L 667.93457 985.97168 L 651.933594 989.936523 L 637.06543 994.042969 L 621.064453 997.016602 L 605.063477 998.999023 L 587.929687 999.990234 L 572.070312 1000.981445 L 554.936523 999.990234 L 538.935547 998.999023 L 521.943359 997.016602 L 505.942383 994.042969 L 490.932617 991.069336 L 474.931641 986.962891 L 460.063477 981.015625 L 446.044922 976.05957 L 431.035156 968.979492 L 417.016602 962.041016 L 403.989258 954.960937 L 390.961914 946.040039 L 377.93457 936.977539 L 365.048828 928.056641 L 354.003906 918.00293 L 332.055664 896.054687 L 321.010742 884.018555 L 311.948242 871.982422 L 303.027344 858.955078 L 293.964844 846.069336 L 287.026367 833.041992 L 278.955078 819.023437 L 273.007812 805.004883 L 267.060547 789.995117 L 261.962891 774.985352 L 257.006836 759.975586 L 251.05957 727.973633 L 248.935547 711.972656 L 246.953125 695.97168 Z M 325.966797 690.024414 L 326.958008 702.060547 L 327.949219 713.955078 L 331.064453 725.991211 L 333.046875 738.027344 L 336.020508 750.063477 L 339.985352 760.966797 L 344.941406 772.011719 L 349.047852 783.056641 L 354.995117 793.959961 L 360.942383 804.013672 L 367.03125 814.067383 L 373.969727 823.979492 L 381.049805 833.041992 L 388.979492 841.962891 L 404.980469 857.963867 L 414.042969 866.035156 L 422.963867 872.973633 L 433.017578 880.053711 L 442.929687 886.000977 L 452.983398 891.948242 L 464.02832 898.037109 L 473.94043 902.993164 L 485.976562 906.958008 L 497.021484 911.064453 L 508.066406 914.038086 L 519.960937 917.011719 L 531.99707 918.994141 L 545.024414 920.976562 L 557.060547 921.967773 L 581.982422 921.967773 L 595.009766 920.976562 L 607.045898 919.985352 L 618.94043 917.011719 L 630.976562 915.029297 L 643.012695 912.055664 L 654.057617 907.949219 L 664.960937 902.993164 L 676.005859 899.02832 L 687.050781 892.939453 L 696.962891 886.992187 L 707.016602 881.044922 L 717.070312 873.964844 L 725.991211 867.026367 L 735.053711 858.955078 L 751.054687 842.954102 L 758.984375 834.033203 L 767.055664 824.970703 L 773.00293 815.058594 L 779.941406 805.004883 L 786.030273 794.951172 L 790.986328 785.039062 L 795.942383 773.994141 L 800.048828 762.949219 L 804.013672 752.045898 L 807.978516 740.009766 L 810.952148 727.973633 L 812.93457 715.9375 L 814.067383 704.042969 L 815.058594 692.006836 L 816.049805 678.979492 L 815.058594 666.943359 L 814.067383 654.057617 L 812.93457 642.021484 L 810.952148 629.985352 L 807.978516 617.949219 L 805.004883 607.045898 L 801.040039 595.009766 L 796.933594 583.964844 L 791.977539 573.061523 L 787.021484 563.007812 L 780.932617 552.954102 L 773.994141 543.041992 L 768.046875 532.988281 L 759.975586 524.067383 L 753.037109 515.004883 L 744.96582 505.942383 L 736.044922 498.012695 L 726.982422 490.932617 L 718.061523 483.00293 L 708.007812 476.064453 L 698.945312 469.975586 L 688.041992 464.02832 L 677.988281 458.930664 L 666.943359 453.974609 L 656.040039 449.018555 L 644.003906 445.053711 L 632.958984 441.938477 L 621.064453 438.964844 L 609.02832 436.982422 L 596.992187 435.991211 L 583.964844 434.008789 L 559.042969 434.008789 L 547.006836 435 L 533.979492 436.982422 L 521.943359 438.964844 L 511.040039 441.938477 L 499.003906 445.053711 L 486.967773 449.018555 L 476.064453 452.983398 L 465.019531 457.939453 L 454.96582 463.037109 L 445.053711 468.984375 L 434.008789 474.931641 L 424.946289 482.011719 L 416.025391 488.950195 L 406.962891 497.021484 L 398.041992 504.951172 L 389.970703 513.022461 L 382.041016 521.943359 L 374.960937 531.99707 L 368.022461 541.05957 L 361.933594 550.97168 L 355.986328 561.025391 L 350.039062 572.070312 L 344.941406 581.982422 L 340.976562 593.027344 L 337.011719 605.063477 L 334.038086 615.966797 L 331.064453 628.00293 L 328.94043 640.039062 L 326.958008 651.933594 L 325.966797 664.960937 Z M 325.966797 690.024414 " transform="matrix(0.0275862, 0, 0, 0.0275862, 0, 0)"/>
<path fill-rule="nonzero" fill="rgb(0%, 0%, 100%)" fill-opacity="1" stroke-width="1" stroke-linecap="butt" stroke-linejoin="miter" stroke="rgb(0%, 0%, 100%)" stroke-opacity="1" stroke-miterlimit="4" d="M 532.988281 371.987305 L 661.987305 145 L 712.963867 174.02832 L 583.964844 400.024414 Z M 532.988281 371.987305 " transform="matrix(0.0275862, 0, 0, 0.0275862, 0, 0)"/>
</svg>
