<?xml version="1.0" encoding="UTF-8"?>
<svg xmlns="http://www.w3.org/2000/svg" xmlns:xlink="http://www.w3.org/1999/xlink" width="32" height="32" viewBox="0 0 32 32">
<path fill-rule="nonzero" fill="rgb(100%, 0%, 0%)" fill-opacity="1" stroke-width="1" stroke-linecap="butt" stroke-linejoin="miter" stroke="rgb(100%, 0%, 0%)" stroke-opacity="1" stroke-miterlimit="4" d="M 208.012695 643.012695 L 191.020508 626.020508 L 161.000977 592.036133 L 146.982422 574.052734 L 133.955078 556.069336 L 121.069336 537.944336 L 109.033203 519.960937 L 97.988281 501.977539 L 87.93457 483.00293 L 78.022461 465.019531 L 68.959961 446.044922 L 62.021484 428.061523 L 53.950195 409.936523 L 48.00293 390.961914 L 42.055664 373.969727 L 37.949219 355.986328 L 33.984375 338.00293 L 31.010742 320.019531 L 29.02832 302.036133 L 27.045898 285.043945 L 27.045898 252.050781 L 29.02832 236.049805 L 32.001953 220.048828 L 34.975586 205.039062 L 39.931641 190.029297 L 44.038086 175.019531 L 50.976562 161.000977 L 58.056641 147.973633 L 66.977539 134.946289 L 76.040039 123.051758 L 86.943359 111.015625 L 97.988281 100.961914 L 110.024414 92.041016 L 122.060547 83.969727 L 135.9375 76.040039 L 149.956055 69.951172 L 163.974609 64.003906 L 179.975586 60.039062 L 194.985352 57.06543 L 210.986328 53.950195 L 227.978516 52.958984 L 260.97168 52.958984 L 277.963867 53.950195 L 294.956055 57.06543 L 312.939453 60.039062 L 331.064453 64.003906 L 349.047852 68.959961 L 367.03125 74.057617 L 385.014648 80.996094 L 403.989258 87.93457 L 421.972656 96.005859 L 439.956055 105.068359 L 458.930664 114.980469 L 477.055664 125.03418 L 495.039062 135.9375 L 514.013672 147.973633 L 531.005859 161.000977 L 566.972656 189.038086 L 583.964844 204.047852 L 617.949219 236.049805 L 633.950195 252.050781 L 649.951172 270.03418 L 664.960937 287.026367 L 692.998047 322.993164 L 717.070312 358.959961 L 727.973633 376.943359 L 738.027344 396.05957 L 746.948242 414.042969 L 757.001953 433.017578 L 764.931641 450.009766 L 772.011719 468.984375 L 777.958984 487.958984 L 784.047852 504.951172 L 788.012695 522.93457 L 791.977539 541.05957 L 794.951172 559.042969 L 796.933594 577.026367 L 798.066406 593.027344 L 799.057617 610.019531 L 798.066406 626.020508 L 796.933594 643.012695 L 794.951172 659.013672 L 787.021484 689.033203 L 782.06543 703.051758 L 774.985352 718.061523 L 768.046875 730.947266 L 759.975586 743.974609 L 750.063477 756.010742 L 740.009766 767.055664 L 727.973633 776.967773 L 715.9375 787.021484 L 703.051758 794.951172 L 690.024414 802.03125 L 676.005859 808.969727 L 660.996094 815.058594 L 645.986328 819.023437 L 630.976562 821.99707 L 614.975586 824.970703 L 597.983398 825.961914 L 564.990234 825.961914 L 547.998047 824.970703 L 531.005859 821.99707 L 513.022461 819.023437 L 495.039062 815.058594 L 477.055664 809.960937 L 458.930664 805.004883 L 439.956055 798.066406 L 421.972656 790.986328 L 403.989258 782.06543 L 385.014648 773.994141 L 367.03125 763.94043 L 349.047852 754.02832 L 329.931641 742.983398 L 312.939453 729.956055 L 294.956055 718.061523 L 258.989258 690.024414 L 241.99707 675.014648 Z M 247.944336 634.941406 L 262.954102 649.951172 L 296.938477 677.988281 L 313.930664 691.015625 L 331.064453 703.051758 L 348.056641 713.955078 L 365.048828 725 L 383.032227 735.053711 L 400.024414 743.974609 L 417.016602 752.045898 L 434.008789 759.975586 L 451.992187 767.055664 L 468.984375 773.00293 L 485.976562 776.967773 L 501.977539 782.06543 L 518.969727 786.030273 L 534.970703 789.003906 L 550.97168 790.986328 L 565.981445 791.977539 L 596.000977 791.977539 L 610.019531 790.986328 L 624.038086 789.003906 L 637.06543 786.030273 L 649.951172 783.056641 L 662.978516 777.958984 L 685.068359 768.046875 L 694.980469 759.975586 L 705.03418 753.037109 L 714.946289 744.96582 L 724.008789 735.053711 L 731.938477 725 L 739.018555 714.946289 L 744.96582 704.042969 L 750.063477 692.006836 L 755.019531 679.970703 L 757.993164 666.943359 L 761.958008 654.057617 L 763.94043 640.039062 L 764.931641 626.020508 L 764.931641 596.000977 L 763.94043 580 L 759.975586 547.998047 L 756.010742 531.99707 L 752.045898 515.004883 L 745.957031 498.012695 L 734.0625 464.02832 L 725.991211 447.036133 L 718.061523 429.052734 L 708.999023 412.060547 L 698.945312 395.068359 L 689.033203 376.943359 L 677.988281 359.951172 L 664.960937 342.958984 L 653.066406 325.966797 L 625.029297 291.982422 L 611.010742 275.981445 L 579.008789 243.979492 L 562.016602 228.969727 L 546.015625 214.951172 L 529.023437 200.932617 L 512.03125 188.046875 L 495.039062 176.010742 L 478.046875 164.96582 L 460.063477 154.0625 L 442.929687 144.008789 L 425.9375 134.946289 L 408.945312 127.016602 L 390.961914 118.945312 L 373.969727 112.006836 L 356.977539 106.05957 L 339.985352 100.961914 L 323.984375 96.005859 L 307.983398 93.032227 L 290.991211 90.058594 L 274.990234 87.93457 L 259.980469 85.952148 L 229.960937 85.952148 L 215.942383 87.93457 L 202.06543 90.058594 L 189.038086 92.041016 L 176.010742 96.005859 L 163.974609 100.961914 L 151.938477 106.05957 L 141.035156 111.015625 L 129.990234 117.954102 L 119.936523 126.025391 L 111.015625 133.955078 L 101.953125 143.017578 L 94.023437 152.929687 L 86.943359 163.974609 L 81.987305 175.019531 L 76.040039 187.055664 L 71.933594 198.950195 L 66.977539 211.977539 L 64.003906 225.004883 L 62.021484 239.023437 L 61.030273 253.041992 L 61.030273 283.061523 L 62.021484 299.0625 L 64.003906 313.930664 L 66.977539 331.064453 L 69.951172 347.06543 L 74.057617 364.057617 L 79.013672 381.049805 L 85.952148 398.041992 L 92.041016 415.03418 L 98.979492 432.026367 L 108.041992 450.009766 L 116.962891 467.001953 L 126.025391 483.994141 L 137.070312 501.977539 L 148.964844 518.969727 L 161.000977 535.961914 L 174.02832 552.954102 L 186.064453 569.946289 L 200.932617 586.938477 L 230.952148 618.94043 Z M 247.944336 634.941406 " transform="matrix(0.0275862, 0, 0, 0.0275862, 0, 0)"/>
<path fill-rule="nonzero" fill="rgb(100%, 0%, 0%)" fill-opacity="1" stroke-width="1" stroke-linecap="butt" stroke-linejoin="miter" stroke="rgb(100%, 0%, 0%)" stroke-opacity="1" stroke-miterlimit="4" d="M 757.001953 729.956055 L 938.959961 884.018555 L 908.94043 918.00293 L 727.973633 762.949219 Z M 950.996094 835.024414 L 1009.052734 972.944336 L 864.052734 937.96875 Z M 950.996094 835.024414 " transform="matrix(0.0275862, 0, 0, 0.0275862, 0, 0)"/>
<path fill-rule="nonzero" fill="rgb(100%, 0%, 0%)" fill-opacity="1" stroke-width="1" stroke-linecap="butt" stroke-linejoin="miter" stroke="rgb(100%, 0%, 0%)" stroke-opacity="1" stroke-miterlimit="4" d="M 798.066406 467.993164 L 802.03125 477.055664 L 805.996094 484.985352 L 809.960937 494.047852 L 812.93457 502.96875 L 815.058594 512.03125 L 818.032227 521.943359 L 821.99707 540.068359 L 823.979492 549.980469 L 823.979492 559.042969 L 824.970703 567.963867 L 825.961914 577.026367 L 826.953125 586.938477 L 826.953125 605.063477 L 825.961914 614.975586 L 821.99707 650.942383 L 818.032227 667.93457 L 812.93457 685.068359 L 807.978516 701.069336 L 802.03125 717.070312 L 799.057617 725 L 794.951172 731.938477 L 791.977539 739.018555 L 788.012695 744.96582 L 780.932617 755.019531 L 774.985352 761.958008 L 768.046875 770.029297 L 760.966797 776.967773 L 754.02832 783.056641 L 746.948242 789.995117 L 739.018555 795.942383 L 730.947266 802.03125 L 723.017578 806.987305 L 714.946289 812.93457 L 706.025391 818.032227 L 697.954102 821.99707 L 689.033203 826.953125 L 679.970703 831.05957 L 671.049805 834.033203 L 661.987305 837.998047 L 653.066406 840.97168 L 643.012695 843.945312 L 632.958984 846.069336 L 624.038086 848.051758 L 613.984375 849.042969 L 605.063477 851.025391 L 595.009766 852.016602 L 556.069336 852.016602 L 546.015625 851.025391 L 535.961914 849.042969 L 526.049805 848.051758 L 516.987305 846.069336 L 508.066406 843.945312 L 515.004883 814.067383 L 524.067383 816.049805 L 531.99707 818.032227 L 541.05957 820.014648 L 548.989258 820.014648 L 558.051758 821.005859 L 565.981445 821.99707 L 582.973633 821.99707 L 592.036133 821.005859 L 600.957031 820.014648 L 609.02832 820.014648 L 617.949219 818.032227 L 626.020508 816.049805 L 634.941406 814.067383 L 643.012695 811.943359 L 650.942383 808.969727 L 659.013672 805.996094 L 667.93457 802.03125 L 675.014648 799.057617 L 682.944336 794.951172 L 691.015625 790.986328 L 697.954102 787.021484 L 705.03418 782.06543 L 712.963867 776.967773 L 720.043945 773.00293 L 726.982422 767.055664 L 732.929687 760.966797 L 739.018555 755.019531 L 744.96582 748.930664 L 751.054687 742.983398 L 757.001953 736.044922 L 760.966797 729.956055 L 764.931641 724.008789 L 767.055664 718.061523 L 771.020508 711.972656 L 773.994141 706.025391 L 778.950195 692.006836 L 784.047852 677.988281 L 788.012695 661.987305 L 793.959961 629.985352 L 794.951172 612.993164 L 795.942383 605.063477 L 795.942383 579.008789 L 794.951172 570.9375 L 794.951172 562.016602 L 792.96875 553.945312 L 791.977539 546.015625 L 789.995117 536.953125 L 788.012695 530.014648 L 786.030273 520.952148 L 784.047852 513.022461 L 780.932617 504.951172 L 777.958984 498.012695 L 774.985352 489.941406 L 771.020508 482.011719 Z M 798.066406 467.993164 " transform="matrix(0.0275862, 0, 0, 0.0275862, 0, 0)"/>
</svg>
