<?xml version="1.0" encoding="UTF-8"?>
<svg xmlns="http://www.w3.org/2000/svg" xmlns:xlink="http://www.w3.org/1999/xlink" width="32" height="32" viewBox="0 0 32 32">
<path fill-rule="nonzero" fill="rgb(0%, 0%, 100%)" fill-opacity="1" stroke-width="1" stroke-linecap="butt" stroke-linejoin="miter" stroke="rgb(0%, 0%, 100%)" stroke-opacity="1" stroke-miterlimit="4" d="M 197.958984 573.061523 L 179.975586 569.946289 L 161.992187 568.955078 L 122.060547 564.990234 L 102.944336 563.999023 L 84.960937 562.016602 L 70.942383 561.025391 L 59.047852 560.03418 L 53.950195 560.03418 L 51.967773 559.042969 L 48.994141 558.051758 C 46.020508 558.051758 44.038086 556.069336 42.055664 554.936523 C 38.94043 550.97168 36.958008 546.015625 38.94043 541.05957 C 39.931641 535.961914 44.038086 531.99707 48.994141 531.005859 L 50.976562 531.005859 C 51.967773 531.005859 51.967773 531.005859 52.958984 531.005859 L 99.970703 531.005859 L 113.989258 531.99707 L 131.972656 531.99707 L 151.938477 533.979492 L 199.941406 533.979492 L 327.949219 536.953125 L 455.957031 541.05957 L 712.963867 546.015625 C 714.946289 546.015625 717.070312 546.015625 718.061523 547.006836 L 728.964844 550.97168 L 739.018555 554.936523 L 746.948242 558.051758 L 754.02832 560.03418 L 762.949219 564.990234 L 770.029297 567.963867 L 775.976562 568.955078 L 783.056641 570.9375 L 789.003906 573.061523 L 793.959961 575.043945 L 802.03125 578.017578 L 811.943359 580 C 815.058594 580.991211 816.049805 580.991211 818.032227 582.973633 L 831.05957 597.983398 L 842.954102 609.02832 L 852.016602 616.958008 L 859.946289 624.038086 L 870.991211 631.967773 L 881.044922 643.012695 L 891.948242 656.040039 L 898.037109 664.960937 L 904.975586 675.014648 C 905.966797 676.005859 906.958008 677.988281 906.958008 679.970703 L 911.064453 703.051758 L 914.038086 712.963867 L 916.020508 723.017578 L 916.020508 721.035156 L 919.985352 729.956055 C 920.976562 730.947266 920.976562 732.929687 920.976562 734.0625 L 925.932617 763.94043 L 900.019531 768.046875 L 895.063477 739.018555 L 895.063477 741.992187 L 890.957031 734.0625 C 890.957031 732.929687 889.96582 730.947266 889.96582 730.947266 L 886.992187 719.052734 L 884.018555 708.007812 L 880.053711 685.068359 L 882.036133 690.024414 L 876.938477 680.961914 L 871.982422 674.023437 L 860.9375 660.996094 L 853.007812 653.066406 L 842.954102 644.995117 L 834.033203 637.06543 L 822.988281 628.00293 L 810.952148 616.958008 L 799.057617 601.948242 L 804.013672 606.054687 L 793.959961 602.939453 L 786.030273 600.957031 L 780.932617 598.974609 L 766.064453 594.018555 L 759.975586 593.027344 L 753.037109 590.053711 L 743.974609 585.947266 L 737.036133 582.973633 L 728.964844 580 L 719.052734 576.035156 L 708.007812 573.061523 L 712.963867 573.061523 L 455.957031 567.963867 L 326.958008 564.990234 L 198.950195 561.025391 L 174.02832 560.03418 L 113.989258 560.03418 L 98.979492 559.042969 L 75.048828 559.042969 L 66.977539 558.051758 L 52.958984 558.051758 L 53.950195 558.051758 L 62.021484 534.970703 L 62.021484 535.961914 L 53.950195 531.005859 L 55.932617 531.99707 L 57.06543 531.99707 L 62.021484 533.979492 L 71.933594 533.979492 L 87.93457 534.970703 L 106.05957 535.961914 L 124.042969 538.935547 L 163.974609 542.050781 L 183.94043 544.033203 L 200.932617 546.015625 Z M 993.051758 725.991211 L 931.030273 904.975586 L 824.970703 748.930664 Z M 993.051758 725.991211 " transform="matrix(0.0275862, 0, 0, 0.0275862, 0, 0)"/>
<path fill-rule="nonzero" fill="rgb(0%, 0%, 100%)" fill-opacity="1" stroke-width="1" stroke-linecap="butt" stroke-linejoin="miter" stroke="rgb(0%, 0%, 100%)" stroke-opacity="1" stroke-miterlimit="4" d="M 212.96875 562.016602 L 196.967773 563.999023 L 177.993164 565.981445 L 138.061523 568.955078 L 118.945312 569.946289 L 101.953125 573.061523 L 86.943359 573.061523 L 76.040039 574.052734 L 71.933594 575.043945 L 67.96875 575.043945 L 76.040039 570.9375 L 67.96875 548.989258 L 69.951172 548.989258 L 66.977539 548.989258 L 99.970703 548.989258 L 112.006836 547.006836 L 163.974609 547.006836 L 187.055664 546.015625 L 211.977539 545.024414 L 337.011719 542.050781 L 464.02832 540.068359 L 715.9375 534.970703 L 711.972656 535.961914 L 724.008789 531.005859 L 732.929687 528.032227 L 741.992187 526.049805 L 746.948242 522.93457 L 756.010742 519.960937 L 762.949219 516.987305 L 770.029297 515.004883 L 777.958984 513.022461 L 782.06543 511.040039 L 789.003906 510.048828 L 796.933594 506.933594 L 806.987305 504.951172 L 800.048828 508.066406 L 814.067383 495.039062 L 824.970703 483.994141 L 835.024414 476.064453 L 844.936523 468.984375 L 853.999023 461.054687 L 863.061523 452.983398 L 871.982422 441.938477 L 876.938477 435 L 883.027344 427.070312 L 881.044922 433.017578 L 885.009766 411.069336 L 886.992187 400.024414 L 895.063477 365.048828 L 920.976562 370.004883 L 914.038086 405.97168 L 912.055664 416.025391 L 907.949219 437.973633 C 906.958008 438.964844 905.966797 439.956055 904.975586 442.929687 L 900.019531 451.992187 L 891.948242 458.930664 L 882.036133 471.958008 L 871.982422 482.011719 L 862.070312 489.941406 L 853.007812 497.021484 L 842.954102 504.951172 L 833.041992 513.022461 L 820.014648 527.041016 C 819.023437 529.023437 816.049805 530.014648 814.067383 531.005859 L 804.013672 533.979492 L 795.942383 535.961914 L 789.995117 536.953125 L 785.039062 538.935547 L 777.958984 541.05957 L 772.011719 542.050781 L 766.064453 545.024414 L 757.001953 548.989258 L 750.063477 550.97168 L 741.992187 553.945312 L 732.929687 557.060547 L 721.035156 561.025391 C 720.043945 562.016602 719.052734 562.016602 717.070312 562.016602 L 464.02832 567.963867 L 338.00293 568.955078 L 211.977539 573.061523 L 187.055664 573.061523 L 164.96582 574.052734 L 145 574.052734 L 128.007812 575.043945 L 66.977539 575.043945 C 66.977539 575.043945 65.986328 575.043945 65.986328 575.043945 L 64.003906 575.043945 C 59.047852 575.043945 53.950195 569.946289 52.958984 565.981445 C 51.967773 561.025391 52.958984 556.069336 57.06543 551.962891 C 59.047852 549.980469 62.021484 548.989258 64.995117 548.989258 L 65.986328 547.006836 L 74.057617 547.006836 L 84.960937 546.015625 L 99.970703 545.024414 L 115.97168 544.033203 L 134.946289 542.050781 L 174.02832 538.935547 L 193.00293 536.953125 L 209.995117 534.970703 Z M 820.014648 381.049805 L 931.030273 226.987305 L 986.962891 408.945312 Z M 820.014648 381.049805 " transform="matrix(0.0275862, 0, 0, 0.0275862, 0, 0)"/>
</svg>
