<?xml version="1.0" encoding="UTF-8"?>
<svg xmlns="http://www.w3.org/2000/svg" xmlns:xlink="http://www.w3.org/1999/xlink" width="32" height="32" viewBox="0 0 32 32">
<path fill-rule="nonzero" fill="rgb(100%, 60%, 0%)" fill-opacity="1" d="M 31.226562 28.992188 C 21.074219 28.992188 10.953125 28.992188 0.800781 28.992188 C 5.875 20.332031 10.953125 11.695312 16.054688 3.035156 C 21.101562 11.695312 26.179688 20.332031 31.226562 28.992188 Z M 27.421875 27.117188 C 23.640625 20.550781 19.835938 14.015625 16.054688 7.449219 C 12.25 14.015625 8.441406 20.550781 4.632812 27.117188 C 12.21875 27.117188 19.835938 27.117188 27.421875 27.117188 Z M 27.421875 27.117188 "/>
<path fill-rule="nonzero" fill="rgb(100%, 60%, 0%)" fill-opacity="1" d="M 13.765625 18.59375 L 14.898438 18.59375 L 14.898438 21.601562 C 14.898438 22.097656 14.925781 22.398438 14.953125 22.539062 C 14.980469 22.757812 15.089844 22.953125 15.28125 23.089844 C 15.476562 23.226562 15.722656 23.308594 16.027344 23.308594 C 16.332031 23.308594 16.578125 23.226562 16.746094 23.117188 C 16.910156 22.980469 16.992188 22.8125 17.046875 22.621094 C 17.074219 22.425781 17.074219 22.125 17.074219 21.683594 L 17.074219 18.59375 L 18.207031 18.59375 L 18.207031 21.515625 C 18.207031 22.179688 18.179688 22.675781 18.125 22.953125 C 18.070312 23.226562 17.957031 23.449219 17.792969 23.640625 C 17.628906 23.835938 17.40625 23.972656 17.132812 24.082031 C 16.855469 24.191406 16.496094 24.25 16.054688 24.25 C 15.53125 24.25 15.117188 24.191406 14.839844 24.082031 C 14.566406 23.945312 14.34375 23.808594 14.207031 23.585938 C 14.042969 23.394531 13.929688 23.199219 13.875 22.980469 C 13.820312 22.648438 13.765625 22.179688 13.765625 21.574219 Z M 13.765625 18.59375 "/>
</svg>
