<?xml version="1.0" encoding="UTF-8"?>
<svg xmlns="http://www.w3.org/2000/svg" xmlns:xlink="http://www.w3.org/1999/xlink" width="32" height="32" viewBox="0 0 32 32">
<path fill-rule="nonzero" fill="rgb(0%, 0%, 100%)" fill-opacity="1" stroke-width="1" stroke-linecap="butt" stroke-linejoin="miter" stroke="rgb(0%, 0%, 100%)" stroke-opacity="1" stroke-miterlimit="4" d="M 288.017578 254.033203 L 836.015625 254.033203 L 836.015625 1064.985352 L 288.017578 1064.985352 Z M 353.012695 1032.983398 L 320.019531 999.990234 L 803.022461 999.990234 L 771.020508 1032.983398 L 771.020508 287.026367 L 803.022461 319.02832 L 320.019531 319.02832 L 353.012695 287.026367 Z M 353.012695 1032.983398 " transform="matrix(0.0275862, 0, 0, 0.0275862, 0, 0)"/>
<path fill-rule="nonzero" fill="rgb(0%, 0%, 100%)" fill-opacity="1" d="M 12.910156 3.945312 C 12.910156 2.566406 14.070312 1.460938 15.421875 1.460938 C 16.800781 1.460938 17.902344 2.566406 17.902344 3.945312 C 17.902344 5.351562 16.800781 6.457031 15.421875 6.457031 C 14.070312 6.457031 12.910156 5.351562 12.910156 3.945312 Z M 12.910156 3.945312 "/>
<path fill-rule="nonzero" fill="rgb(0%, 0%, 100%)" fill-opacity="1" d="M 12.910156 13.738281 C 12.910156 12.359375 14.070312 11.226562 15.421875 11.226562 C 16.800781 11.226562 17.902344 12.359375 17.902344 13.738281 C 17.902344 15.117188 16.800781 16.21875 15.421875 16.21875 C 14.070312 16.21875 12.910156 15.117188 12.910156 13.738281 Z M 12.910156 13.738281 "/>
<path fill-rule="nonzero" fill="rgb(0%, 0%, 100%)" fill-opacity="1" d="M 12.910156 22.648438 C 12.910156 21.296875 14.070312 20.164062 15.421875 20.164062 C 16.800781 20.164062 17.902344 21.296875 17.902344 22.648438 C 17.902344 24.054688 16.800781 25.160156 15.421875 25.160156 C 14.070312 25.160156 12.910156 24.054688 12.910156 22.648438 Z M 12.910156 22.648438 "/>
</svg>
