<?xml version="1.0" encoding="UTF-8"?>
<svg xmlns="http://www.w3.org/2000/svg" xmlns:xlink="http://www.w3.org/1999/xlink" width="32" height="32" viewBox="0 0 32 32">
<path fill-rule="nonzero" fill="rgb(0%, 0%, 100%)" fill-opacity="1" stroke-width="1" stroke-linecap="butt" stroke-linejoin="miter" stroke="rgb(0%, 0%, 100%)" stroke-opacity="1" stroke-miterlimit="4" d="M 209.003906 28.037109 L 908.94043 28.037109 L 908.94043 1083.959961 L 209.003906 1083.959961 Z M 290.991211 1043.037109 L 250.068359 1000.981445 L 868.017578 1000.981445 L 826.953125 1043.037109 L 826.953125 68.959961 L 868.017578 110.024414 L 250.068359 110.024414 L 290.991211 68.959961 Z M 290.991211 1043.037109 " transform="matrix(0.0275862, 0, 0, 0.0275862, 0, 0)"/>
<path fill-rule="nonzero" fill="rgb(0%, 0%, 100%)" fill-opacity="1" stroke-width="1" stroke-linecap="butt" stroke-linejoin="miter" stroke="rgb(0%, 0%, 100%)" stroke-opacity="1" stroke-miterlimit="4" d="M 577.026367 73.066406 L 577.026367 1047.993164 L 531.005859 1047.993164 L 531.005859 73.066406 Z M 577.026367 73.066406 " transform="matrix(0.0275862, 0, 0, 0.0275862, 0, 0)"/>
<path fill-rule="nonzero" fill="rgb(0%, 0%, 100%)" fill-opacity="1" stroke-width="1" stroke-linecap="butt" stroke-linejoin="miter" stroke="rgb(0%, 0%, 100%)" stroke-opacity="1" stroke-miterlimit="4" d="M 860.9375 580.991211 L 263.945312 580.991211 L 263.945312 534.970703 L 860.9375 534.970703 Z M 860.9375 580.991211 " transform="matrix(0.0275862, 0, 0, 0.0275862, 0, 0)"/>
</svg>
