<?xml version="1.0" encoding="UTF-8"?>
<svg xmlns="http://www.w3.org/2000/svg" xmlns:xlink="http://www.w3.org/1999/xlink" width="32" height="32" viewBox="0 0 32 32">
<path fill-rule="nonzero" fill="rgb(100%, 0%, 0%)" fill-opacity="1" d="M 1.351562 23.035156 L 1.351562 8.746094 L 5.957031 8.746094 C 7.722656 8.746094 8.855469 8.828125 9.40625 8.964844 C 10.207031 9.1875 10.898438 9.65625 11.449219 10.371094 C 12 11.089844 12.277344 12 12.277344 13.160156 C 12.277344 14.015625 12.109375 14.757812 11.808594 15.367188 C 11.476562 15.945312 11.089844 16.414062 10.59375 16.773438 C 10.097656 17.101562 9.601562 17.324219 9.101562 17.433594 C 8.414062 17.574219 7.421875 17.65625 6.097656 17.65625 L 4.21875 17.65625 L 4.21875 23.035156 Z M 4.21875 11.171875 L 4.21875 15.226562 L 5.792969 15.226562 C 6.925781 15.226562 7.695312 15.144531 8.082031 15.007812 C 8.46875 14.839844 8.773438 14.621094 8.992188 14.289062 C 9.1875 13.984375 9.296875 13.601562 9.296875 13.1875 C 9.296875 12.660156 9.160156 12.25 8.855469 11.890625 C 8.550781 11.558594 8.164062 11.367188 7.695312 11.28125 C 7.339844 11.199219 6.648438 11.171875 5.628906 11.171875 Z M 4.21875 11.171875 "/>
<path fill-rule="nonzero" fill="rgb(100%, 0%, 0%)" fill-opacity="1" d="M 16.660156 15.835938 L 14.179688 15.394531 C 14.457031 14.398438 14.953125 13.65625 15.613281 13.1875 C 16.304688 12.691406 17.324219 12.46875 18.648438 12.46875 C 19.890625 12.46875 20.800781 12.605469 21.378906 12.882812 C 21.984375 13.1875 22.398438 13.542969 22.648438 13.984375 C 22.898438 14.425781 23.007812 15.253906 23.007812 16.441406 L 22.980469 19.640625 C 22.980469 20.550781 23.035156 21.214844 23.117188 21.65625 C 23.199219 22.070312 23.367188 22.539062 23.613281 23.035156 L 20.910156 23.035156 C 20.828125 22.839844 20.746094 22.59375 20.632812 22.234375 C 20.578125 22.070312 20.550781 21.957031 20.550781 21.902344 C 20.082031 22.371094 19.558594 22.703125 19.035156 22.925781 C 18.511719 23.144531 17.929688 23.253906 17.324219 23.253906 C 16.277344 23.253906 15.421875 22.980469 14.8125 22.398438 C 14.207031 21.820312 13.902344 21.101562 13.902344 20.21875 C 13.902344 19.613281 14.042969 19.117188 14.316406 18.648438 C 14.59375 18.179688 14.980469 17.847656 15.476562 17.601562 C 16 17.351562 16.71875 17.132812 17.65625 16.964844 C 18.953125 16.71875 19.835938 16.496094 20.332031 16.277344 L 20.332031 16 C 20.332031 15.476562 20.191406 15.117188 19.945312 14.898438 C 19.667969 14.675781 19.171875 14.566406 18.457031 14.566406 C 17.984375 14.566406 17.601562 14.648438 17.324219 14.839844 C 17.046875 15.035156 16.828125 15.367188 16.660156 15.835938 Z M 20.332031 18.070312 C 19.972656 18.179688 19.421875 18.316406 18.648438 18.484375 C 17.902344 18.648438 17.40625 18.8125 17.160156 18.953125 C 16.800781 19.226562 16.632812 19.53125 16.632812 19.917969 C 16.632812 20.304688 16.773438 20.632812 17.074219 20.910156 C 17.351562 21.214844 17.710938 21.351562 18.152344 21.351562 C 18.648438 21.351562 19.117188 21.1875 19.558594 20.855469 C 19.890625 20.605469 20.109375 20.304688 20.21875 19.945312 C 20.277344 19.722656 20.332031 19.253906 20.332031 18.621094 Z M 20.332031 18.070312 "/>
<path fill-rule="nonzero" fill="rgb(100%, 0%, 0%)" fill-opacity="1" d="M 30.457031 12.691406 L 30.457031 14.867188 L 28.578125 14.867188 L 28.578125 19.035156 C 28.578125 19.890625 28.605469 20.386719 28.632812 20.523438 C 28.660156 20.660156 28.746094 20.773438 28.882812 20.855469 C 28.992188 20.964844 29.160156 20.992188 29.351562 20.992188 C 29.601562 20.992188 29.957031 20.910156 30.425781 20.746094 L 30.675781 22.867188 C 30.042969 23.144531 29.324219 23.253906 28.523438 23.253906 C 28.027344 23.253906 27.585938 23.171875 27.171875 23.007812 C 26.785156 22.839844 26.484375 22.648438 26.316406 22.371094 C 26.125 22.125 25.984375 21.765625 25.929688 21.324219 C 25.875 20.992188 25.820312 20.359375 25.820312 19.394531 L 25.820312 14.867188 L 24.578125 14.867188 L 24.578125 12.691406 L 25.820312 12.691406 L 25.820312 10.648438 L 28.578125 9.046875 L 28.578125 12.691406 Z M 30.457031 12.691406 "/>
</svg>
