<?xml version="1.0" encoding="UTF-8"?>
<svg xmlns="http://www.w3.org/2000/svg" xmlns:xlink="http://www.w3.org/1999/xlink" width="32" height="32" viewBox="0 0 32 32">
<path fill-rule="nonzero" fill="rgb(100%, 0%, 0%)" fill-opacity="1" d="M 18.097656 22.398438 L 13.628906 22.398438 C 13.601562 21.738281 13.601562 21.351562 13.601562 21.214844 C 13.601562 19.75 13.847656 18.566406 14.316406 17.628906 C 14.8125 16.691406 15.75 15.613281 17.214844 14.457031 C 18.648438 13.269531 19.503906 12.523438 19.808594 12.136719 C 20.21875 11.558594 20.441406 10.953125 20.441406 10.234375 C 20.441406 9.296875 20.054688 8.46875 19.28125 7.78125 C 18.511719 7.089844 17.488281 6.730469 16.191406 6.730469 C 14.925781 6.730469 13.875 7.089844 13.019531 7.808594 C 12.191406 8.523438 11.613281 9.628906 11.28125 11.089844 L 6.757812 10.539062 C 6.867188 8.414062 7.78125 6.648438 9.433594 5.1875 C 11.089844 3.695312 13.269531 2.980469 15.972656 2.980469 C 18.8125 2.980469 21.074219 3.722656 22.757812 5.214844 C 24.441406 6.675781 25.269531 8.414062 25.269531 10.398438 C 25.269531 11.476562 24.964844 12.523438 24.359375 13.488281 C 23.722656 14.457031 22.398438 15.78125 20.386719 17.460938 C 19.339844 18.34375 18.703125 19.035156 18.457031 19.558594 C 18.207031 20.082031 18.070312 21.019531 18.097656 22.398438 Z M 13.628906 29.046875 L 13.628906 24.109375 L 18.566406 24.109375 L 18.566406 29.046875 Z M 13.628906 29.046875 "/>
</svg>
