<?xml version="1.0" encoding="UTF-8"?>
<svg xmlns="http://www.w3.org/2000/svg" xmlns:xlink="http://www.w3.org/1999/xlink" width="32" height="32" viewBox="0 0 32 32">
<path fill-rule="nonzero" fill="rgb(0%, 0%, 100%)" fill-opacity="1" d="M 31.53125 7.917969 C 31.53125 13.296875 31.53125 18.703125 31.53125 24.082031 C 21.1875 24.082031 10.839844 24.082031 0.496094 24.082031 C 0.496094 18.703125 0.496094 13.296875 0.496094 7.917969 C 10.839844 7.917969 21.1875 7.917969 31.53125 7.917969 Z M 1.160156 9.269531 C 1.378906 9.046875 1.601562 8.828125 1.820312 8.605469 C 1.820312 13.542969 1.820312 18.484375 1.820312 23.421875 C 1.601562 23.199219 1.378906 22.980469 1.160156 22.757812 C 11.0625 22.757812 20.964844 22.757812 30.867188 22.757812 C 30.648438 22.980469 30.398438 23.199219 30.179688 23.421875 C 30.179688 18.484375 30.179688 13.542969 30.179688 8.605469 C 30.398438 8.828125 30.648438 9.046875 30.867188 9.269531 C 20.964844 9.269531 11.0625 9.269531 1.160156 9.269531 Z M 1.160156 9.269531 "/>
<path fill="none" stroke-width="1" stroke-linecap="butt" stroke-linejoin="miter" stroke="rgb(0%, 0%, 100%)" stroke-opacity="1" stroke-miterlimit="4" d="M 1143.007812 287.026367 C 1143.007812 482.011719 1143.007812 677.988281 1143.007812 872.973633 C 768.046875 872.973633 392.944336 872.973633 17.983398 872.973633 C 17.983398 677.988281 17.983398 482.011719 17.983398 287.026367 C 392.944336 287.026367 768.046875 287.026367 1143.007812 287.026367 Z M 1143.007812 287.026367 " transform="matrix(0.0275862, 0, 0, 0.0275862, 0, 0)"/>
<path fill="none" stroke-width="1" stroke-linecap="butt" stroke-linejoin="miter" stroke="rgb(0%, 0%, 100%)" stroke-opacity="1" stroke-miterlimit="4" d="M 42.055664 336.020508 C 49.985352 327.949219 58.056641 320.019531 65.986328 311.948242 C 65.986328 490.932617 65.986328 670.058594 65.986328 849.042969 C 58.056641 840.97168 49.985352 833.041992 42.055664 824.970703 C 401.015625 824.970703 759.975586 824.970703 1118.935547 824.970703 C 1111.005859 833.041992 1101.943359 840.97168 1094.013672 849.042969 C 1094.013672 670.058594 1094.013672 490.932617 1094.013672 311.948242 C 1101.943359 320.019531 1111.005859 327.949219 1118.935547 336.020508 C 759.975586 336.020508 401.015625 336.020508 42.055664 336.020508 Z M 42.055664 336.020508 " transform="matrix(0.0275862, 0, 0, 0.0275862, 0, 0)"/>
<path fill-rule="nonzero" fill="rgb(0%, 0%, 100%)" fill-opacity="1" d="M 20.578125 8.691406 C 23.863281 11.171875 27.117188 13.65625 30.371094 16.136719 C 27.117188 18.621094 23.863281 21.101562 20.578125 23.585938 C 20.578125 18.621094 20.578125 13.65625 20.578125 8.691406 Z M 21.929688 22.234375 C 21.574219 22.070312 21.214844 21.875 20.855469 21.710938 C 23.53125 19.667969 26.207031 17.628906 28.855469 15.613281 C 28.855469 15.972656 28.855469 16.304688 28.855469 16.660156 C 26.207031 14.648438 23.53125 12.605469 20.855469 10.566406 C 21.214844 10.398438 21.574219 10.207031 21.929688 10.042969 C 21.929688 14.097656 21.929688 18.179688 21.929688 22.234375 Z M 21.929688 22.234375 "/>
<path fill="none" stroke-width="1" stroke-linecap="butt" stroke-linejoin="miter" stroke="rgb(0%, 0%, 100%)" stroke-opacity="1" stroke-miterlimit="4" d="M 745.957031 315.063477 C 865.043945 404.980469 982.998047 495.039062 1100.952148 584.956055 C 982.998047 675.014648 865.043945 764.931641 745.957031 854.990234 C 745.957031 675.014648 745.957031 495.039062 745.957031 315.063477 Z M 745.957031 315.063477 " transform="matrix(0.0275862, 0, 0, 0.0275862, 0, 0)"/>
<path fill="none" stroke-width="1" stroke-linecap="butt" stroke-linejoin="miter" stroke="rgb(0%, 0%, 100%)" stroke-opacity="1" stroke-miterlimit="4" d="M 794.951172 805.996094 C 782.06543 800.048828 769.038086 792.96875 756.010742 787.021484 C 853.007812 712.963867 950.004883 639.047852 1046.010742 565.981445 C 1046.010742 579.008789 1046.010742 591.044922 1046.010742 603.930664 C 950.004883 531.005859 853.007812 456.948242 756.010742 383.032227 C 769.038086 376.943359 782.06543 370.004883 794.951172 364.057617 C 794.951172 511.040039 794.951172 659.013672 794.951172 805.996094 Z M 794.951172 805.996094 " transform="matrix(0.0275862, 0, 0, 0.0275862, 0, 0)"/>
<path fill-rule="nonzero" fill="rgb(0%, 0%, 100%)" fill-opacity="1" d="M 5.542969 17.765625 C 5.214844 16.414062 4.882812 15.0625 4.578125 13.710938 C 4.855469 13.710938 5.132812 13.710938 5.40625 13.710938 C 5.601562 14.621094 5.820312 15.558594 6.015625 16.496094 C 6.261719 15.558594 6.511719 14.621094 6.757812 13.710938 C 7.0625 13.710938 7.394531 13.710938 7.722656 13.710938 C 7.945312 14.648438 8.191406 15.585938 8.414062 16.550781 C 8.632812 15.585938 8.828125 14.648438 9.046875 13.710938 C 9.324219 13.710938 9.574219 13.710938 9.847656 13.710938 C 9.542969 15.0625 9.214844 16.414062 8.882812 17.765625 C 8.578125 17.765625 8.304688 17.765625 8.027344 17.765625 C 7.75 16.746094 7.476562 15.75 7.226562 14.730469 C 6.953125 15.75 6.675781 16.746094 6.425781 17.765625 Z M 5.542969 17.765625 "/>
<path fill-rule="nonzero" fill="rgb(0%, 0%, 100%)" fill-opacity="1" d="M 13.792969 15.035156 C 16.027344 15.035156 18.234375 15.035156 20.46875 15.035156 C 20.46875 15.667969 20.46875 16.332031 20.46875 16.964844 C 18.234375 16.964844 16.027344 16.964844 13.792969 16.964844 C 13.792969 16.332031 13.792969 15.667969 13.792969 15.035156 Z M 19.503906 13.074219 C 20.828125 14.042969 22.125 15.035156 23.421875 16.027344 C 22.125 16.992188 20.828125 17.957031 19.503906 18.925781 C 19.503906 16.964844 19.503906 15.035156 19.503906 13.074219 Z M 19.503906 13.074219 "/>
<path fill="none" stroke-width="1" stroke-linecap="butt" stroke-linejoin="miter" stroke="rgb(0%, 0%, 100%)" stroke-opacity="1" stroke-miterlimit="4" d="M 499.995117 545.024414 C 580.991211 545.024414 660.996094 545.024414 741.992187 545.024414 C 741.992187 567.963867 741.992187 592.036133 741.992187 614.975586 C 660.996094 614.975586 580.991211 614.975586 499.995117 614.975586 C 499.995117 592.036133 499.995117 567.963867 499.995117 545.024414 Z M 499.995117 545.024414 " transform="matrix(0.0275862, 0, 0, 0.0275862, 0, 0)"/>
<path fill="none" stroke-width="1" stroke-linecap="butt" stroke-linejoin="miter" stroke="rgb(0%, 0%, 100%)" stroke-opacity="1" stroke-miterlimit="4" d="M 707.016602 473.94043 C 755.019531 509.057617 802.03125 545.024414 849.042969 580.991211 C 802.03125 615.966797 755.019531 650.942383 707.016602 686.05957 C 707.016602 614.975586 707.016602 545.024414 707.016602 473.94043 Z M 707.016602 473.94043 " transform="matrix(0.0275862, 0, 0, 0.0275862, 0, 0)"/>
<path fill-rule="nonzero" fill="rgb(0%, 0%, 100%)" fill-opacity="1" d="M 10.867188 16.027344 C 10.867188 15.308594 11.449219 14.730469 12.164062 14.730469 C 12.882812 14.730469 13.460938 15.308594 13.460938 16.027344 C 13.460938 16.71875 12.882812 17.296875 12.164062 17.296875 C 11.449219 17.296875 10.867188 16.71875 10.867188 16.027344 Z M 10.867188 16.027344 "/>
</svg>
