<?xml version="1.0" encoding="UTF-8"?>
<svg xmlns="http://www.w3.org/2000/svg" xmlns:xlink="http://www.w3.org/1999/xlink" width="32" height="32" viewBox="0 0 32 32">
<path fill-rule="nonzero" fill="rgb(0%, 0%, 100%)" fill-opacity="1" stroke-width="1" stroke-linecap="butt" stroke-linejoin="miter" stroke="rgb(0%, 0%, 100%)" stroke-opacity="1" stroke-miterlimit="4" d="M 377.93457 318.037109 C 377.93457 541.05957 377.93457 764.931641 377.93457 987.954102 C 357.96875 987.954102 338.994141 987.954102 320.019531 987.954102 C 320.019531 764.931641 320.019531 541.05957 320.019531 318.037109 C 338.994141 318.037109 357.96875 318.037109 377.93457 318.037109 Z M 377.93457 318.037109 " transform="matrix(0.0275862, 0, 0, 0.0275862, 0, 0)"/>
<path fill-rule="nonzero" fill="rgb(0%, 0%, 100%)" fill-opacity="1" d="M 6.621094 28.277344 C 6.621094 26.675781 7.972656 25.378906 9.601562 25.378906 C 11.28125 25.378906 12.632812 26.675781 12.632812 28.277344 C 12.632812 29.902344 11.28125 31.199219 9.601562 31.199219 C 7.972656 31.199219 6.621094 29.902344 6.621094 28.277344 Z M 6.621094 28.277344 "/>
<path fill-rule="nonzero" fill="rgb(0%, 0%, 100%)" fill-opacity="1" d="M 6.511719 28.304688 C 6.511719 28.191406 6.511719 28.109375 6.511719 28 C 6.539062 27.890625 6.539062 27.808594 6.566406 27.695312 C 6.59375 27.613281 6.648438 27.503906 6.675781 27.421875 C 6.703125 27.308594 6.730469 27.226562 6.757812 27.117188 C 6.8125 27.035156 6.839844 26.953125 6.898438 26.867188 C 6.953125 26.785156 6.980469 26.703125 7.035156 26.621094 C 7.089844 26.566406 7.171875 26.484375 7.226562 26.398438 C 7.28125 26.316406 7.367188 26.234375 7.421875 26.152344 C 7.503906 26.097656 7.585938 26.042969 7.667969 25.957031 C 7.75 25.902344 7.808594 25.847656 7.890625 25.792969 C 7.972656 25.765625 8.054688 25.710938 8.136719 25.65625 C 8.21875 25.628906 8.332031 25.574219 8.414062 25.515625 C 8.496094 25.488281 8.605469 25.460938 8.691406 25.433594 C 8.800781 25.40625 8.882812 25.378906 8.992188 25.351562 C 9.101562 25.351562 9.1875 25.351562 9.296875 25.324219 C 9.378906 25.324219 9.488281 25.324219 9.601562 25.296875 C 9.710938 25.324219 9.820312 25.324219 9.929688 25.324219 C 10.042969 25.351562 10.152344 25.351562 10.261719 25.351562 C 10.34375 25.378906 10.425781 25.40625 10.539062 25.433594 C 10.621094 25.460938 10.730469 25.488281 10.839844 25.515625 C 10.925781 25.574219 11.007812 25.601562 11.089844 25.628906 C 11.171875 25.683594 11.253906 25.738281 11.367188 25.792969 C 11.421875 25.847656 11.503906 25.902344 11.585938 25.957031 C 11.640625 26.042969 11.722656 26.097656 11.808594 26.152344 C 11.863281 26.234375 11.945312 26.316406 12.027344 26.371094 C 12.082031 26.457031 12.136719 26.539062 12.191406 26.621094 C 12.25 26.703125 12.304688 26.785156 12.359375 26.867188 C 12.386719 26.953125 12.441406 27.035156 12.496094 27.117188 C 12.523438 27.199219 12.550781 27.308594 12.578125 27.394531 C 12.605469 27.503906 12.632812 27.585938 12.660156 27.695312 C 12.660156 27.78125 12.660156 27.890625 12.691406 27.972656 C 12.691406 28.082031 12.691406 28.164062 12.71875 28.277344 C 12.691406 28.386719 12.691406 28.46875 12.691406 28.578125 C 12.691406 28.691406 12.691406 28.773438 12.691406 28.882812 C 12.632812 28.992188 12.605469 29.074219 12.578125 29.1875 C 12.550781 29.269531 12.523438 29.378906 12.496094 29.460938 C 12.441406 29.542969 12.386719 29.628906 12.359375 29.710938 C 12.304688 29.792969 12.25 29.902344 12.191406 29.984375 C 12.136719 30.070312 12.082031 30.125 12.027344 30.207031 C 11.945312 30.289062 11.890625 30.34375 11.835938 30.425781 C 11.75 30.484375 11.667969 30.566406 11.585938 30.621094 C 11.503906 30.675781 11.421875 30.730469 11.367188 30.785156 C 11.253906 30.839844 11.171875 30.867188 11.089844 30.925781 C 11.007812 30.980469 10.925781 31.007812 10.839844 31.0625 C 10.730469 31.089844 10.648438 31.144531 10.566406 31.171875 C 10.457031 31.199219 10.34375 31.199219 10.261719 31.226562 C 10.152344 31.253906 10.042969 31.253906 9.929688 31.28125 C 9.820312 31.28125 9.710938 31.308594 9.628906 31.308594 C 9.515625 31.308594 9.40625 31.28125 9.296875 31.28125 C 9.1875 31.253906 9.101562 31.253906 8.992188 31.226562 C 8.910156 31.199219 8.800781 31.199219 8.71875 31.171875 C 8.605469 31.144531 8.523438 31.089844 8.414062 31.0625 C 8.332031 31.035156 8.21875 30.980469 8.136719 30.953125 C 8.054688 30.898438 7.972656 30.839844 7.890625 30.785156 C 7.808594 30.730469 7.75 30.675781 7.667969 30.621094 C 7.585938 30.566406 7.503906 30.484375 7.421875 30.425781 C 7.367188 30.34375 7.28125 30.289062 7.226562 30.207031 C 7.171875 30.125 7.089844 30.070312 7.035156 29.984375 C 6.980469 29.902344 6.953125 29.792969 6.898438 29.710938 C 6.839844 29.628906 6.8125 29.542969 6.757812 29.460938 C 6.730469 29.378906 6.703125 29.296875 6.675781 29.214844 C 6.648438 29.101562 6.621094 28.992188 6.59375 28.882812 C 6.566406 28.800781 6.539062 28.691406 6.511719 28.605469 C 6.511719 28.496094 6.511719 28.414062 6.511719 28.304688 Z M 6.703125 28.550781 C 6.730469 28.660156 6.730469 28.746094 6.757812 28.855469 C 6.785156 28.9375 6.8125 29.046875 6.839844 29.132812 C 6.867188 29.214844 6.898438 29.296875 6.925781 29.378906 C 6.980469 29.460938 7.007812 29.542969 7.0625 29.628906 C 7.117188 29.710938 7.144531 29.792969 7.199219 29.875 C 7.253906 29.929688 7.308594 30.015625 7.367188 30.070312 C 7.421875 30.152344 7.503906 30.207031 7.558594 30.289062 C 7.613281 30.34375 7.695312 30.398438 7.75 30.457031 C 7.835938 30.511719 7.890625 30.566406 7.972656 30.621094 C 8.054688 30.675781 8.136719 30.703125 8.21875 30.757812 C 8.304688 30.785156 8.386719 30.839844 8.46875 30.867188 C 8.550781 30.898438 8.660156 30.953125 8.746094 30.980469 C 8.828125 31.007812 8.9375 31.007812 9.019531 31.035156 C 9.132812 31.0625 9.214844 31.0625 9.324219 31.089844 C 9.40625 31.089844 9.488281 31.117188 9.601562 31.117188 C 9.710938 31.117188 9.820312 31.089844 9.929688 31.089844 C 10.015625 31.0625 10.097656 31.0625 10.207031 31.035156 C 10.289062 31.007812 10.371094 31.007812 10.484375 30.980469 C 10.566406 30.953125 10.648438 30.925781 10.730469 30.898438 C 10.8125 30.839844 10.898438 30.8125 11.007812 30.757812 C 11.0625 30.703125 11.144531 30.675781 11.226562 30.621094 C 11.308594 30.566406 11.394531 30.539062 11.476562 30.484375 C 11.53125 30.425781 11.613281 30.34375 11.695312 30.289062 C 11.75 30.207031 11.808594 30.152344 11.890625 30.070312 C 11.917969 30.015625 11.972656 29.929688 12.027344 29.875 C 12.082031 29.792969 12.136719 29.710938 12.191406 29.628906 C 12.21875 29.542969 12.25 29.460938 12.304688 29.378906 C 12.332031 29.296875 12.359375 29.214844 12.386719 29.132812 C 12.414062 29.046875 12.441406 28.964844 12.46875 28.882812 C 12.46875 28.773438 12.496094 28.691406 12.523438 28.578125 C 12.523438 28.496094 12.523438 28.386719 12.523438 28.304688 C 12.523438 28.191406 12.523438 28.109375 12.523438 28 C 12.496094 27.917969 12.496094 27.835938 12.496094 27.75 C 12.46875 27.640625 12.441406 27.558594 12.414062 27.449219 C 12.359375 27.367188 12.332031 27.28125 12.304688 27.199219 C 12.25 27.117188 12.21875 27.035156 12.191406 26.953125 C 12.136719 26.867188 12.082031 26.8125 12.027344 26.730469 C 11.972656 26.675781 11.917969 26.59375 11.890625 26.511719 C 11.808594 26.457031 11.75 26.371094 11.695312 26.289062 C 11.613281 26.234375 11.53125 26.179688 11.476562 26.125 C 11.394531 26.070312 11.308594 26.015625 11.253906 25.957031 C 11.171875 25.929688 11.089844 25.875 11.035156 25.820312 C 10.925781 25.792969 10.839844 25.765625 10.757812 25.710938 C 10.675781 25.683594 10.59375 25.65625 10.511719 25.601562 C 10.398438 25.601562 10.316406 25.574219 10.234375 25.542969 C 10.125 25.542969 10.015625 25.515625 9.929688 25.488281 C 9.820312 25.488281 9.710938 25.488281 9.628906 25.488281 C 9.515625 25.488281 9.40625 25.488281 9.324219 25.488281 C 9.214844 25.515625 9.132812 25.542969 9.046875 25.542969 C 8.964844 25.574219 8.855469 25.601562 8.773438 25.601562 C 8.660156 25.628906 8.578125 25.65625 8.46875 25.683594 C 8.386719 25.738281 8.332031 25.765625 8.25 25.792969 C 8.164062 25.847656 8.054688 25.902344 7.972656 25.957031 C 7.917969 26.015625 7.835938 26.070312 7.78125 26.125 C 7.695312 26.179688 7.640625 26.234375 7.558594 26.289062 C 7.503906 26.371094 7.421875 26.425781 7.367188 26.484375 C 7.308594 26.566406 7.253906 26.648438 7.199219 26.730469 C 7.144531 26.8125 7.117188 26.867188 7.0625 26.953125 C 7.035156 27.035156 6.980469 27.117188 6.953125 27.199219 C 6.925781 27.28125 6.867188 27.367188 6.839844 27.449219 C 6.8125 27.53125 6.785156 27.640625 6.757812 27.722656 C 6.730469 27.808594 6.730469 27.917969 6.703125 28 C 6.703125 28.082031 6.703125 28.191406 6.703125 28.277344 C 6.703125 28.359375 6.703125 28.46875 6.703125 28.550781 Z M 6.703125 28.550781 "/>
<path fill="none" stroke-width="1" stroke-linecap="butt" stroke-linejoin="miter" stroke="rgb(0%, 0%, 100%)" stroke-opacity="1" stroke-miterlimit="4" d="M 236.049805 1026.044922 C 236.049805 1021.938477 236.049805 1018.964844 236.049805 1015 C 237.041016 1011.035156 237.041016 1008.061523 238.032227 1003.955078 C 239.023437 1000.981445 241.005859 997.016602 241.99707 994.042969 C 242.988281 989.936523 243.979492 986.962891 244.970703 982.998047 C 246.953125 980.024414 247.944336 977.050781 250.068359 973.935547 C 252.050781 970.961914 253.041992 967.988281 255.024414 965.014648 C 257.006836 963.032227 259.980469 960.058594 261.962891 956.943359 C 263.945312 953.969727 267.060547 950.996094 269.042969 948.022461 C 272.016602 946.040039 274.990234 944.057617 277.963867 940.942383 C 280.9375 938.959961 283.061523 936.977539 286.035156 934.995117 C 289.008789 934.003906 291.982422 932.021484 294.956055 930.039062 C 297.929687 929.047852 302.036133 927.06543 305.009766 924.941406 C 307.983398 923.950195 311.948242 922.958984 315.063477 921.967773 C 319.02832 920.976562 322.001953 919.985352 325.966797 918.994141 C 329.931641 918.994141 333.046875 918.994141 337.011719 918.00293 C 339.985352 918.00293 343.950195 918.00293 348.056641 917.011719 C 352.021484 918.00293 355.986328 918.00293 359.951172 918.00293 C 364.057617 918.994141 368.022461 918.994141 371.987305 918.994141 C 374.960937 919.985352 377.93457 920.976562 382.041016 921.967773 C 385.014648 922.958984 388.979492 923.950195 392.944336 924.941406 C 396.05957 927.06543 399.033203 928.056641 402.006836 929.047852 C 404.980469 931.030273 407.954102 933.012695 412.060547 934.995117 C 414.042969 936.977539 417.016602 938.959961 419.990234 940.942383 C 421.972656 944.057617 424.946289 946.040039 428.061523 948.022461 C 430.043945 950.996094 433.017578 953.969727 435.991211 955.952148 C 437.973633 959.067383 439.956055 962.041016 441.938477 965.014648 C 444.0625 967.988281 446.044922 970.961914 448.027344 973.935547 C 449.018555 977.050781 451.000977 980.024414 452.983398 982.998047 C 453.974609 985.97168 454.96582 989.936523 455.957031 993.051758 C 456.948242 997.016602 457.939453 999.990234 458.930664 1003.955078 C 458.930664 1007.070312 458.930664 1011.035156 460.063477 1014.008789 C 460.063477 1017.973633 460.063477 1020.947266 461.054687 1025.053711 C 460.063477 1029.018555 460.063477 1031.992187 460.063477 1035.957031 C 460.063477 1040.063477 460.063477 1043.037109 460.063477 1047.001953 C 457.939453 1050.966797 456.948242 1053.94043 455.957031 1058.046875 C 454.96582 1061.020508 453.974609 1064.985352 452.983398 1067.958984 C 451.000977 1070.932617 449.018555 1074.047852 448.027344 1077.021484 C 446.044922 1079.995117 444.0625 1083.959961 441.938477 1086.933594 C 439.956055 1090.048828 437.973633 1092.03125 435.991211 1095.004883 C 433.017578 1097.978516 431.035156 1099.960937 429.052734 1102.93457 C 425.9375 1105.058594 422.963867 1108.032227 419.990234 1110.014648 C 417.016602 1111.99707 414.042969 1113.979492 412.060547 1115.961914 C 407.954102 1117.944336 404.980469 1118.935547 402.006836 1121.05957 C 399.033203 1123.041992 396.05957 1124.033203 392.944336 1126.015625 C 388.979492 1127.006836 386.005859 1128.989258 383.032227 1129.980469 C 379.067383 1130.97168 374.960937 1130.97168 371.987305 1131.962891 C 368.022461 1132.954102 364.057617 1132.954102 359.951172 1133.945312 C 355.986328 1133.945312 352.021484 1134.936523 349.047852 1134.936523 C 344.941406 1134.936523 340.976562 1133.945312 337.011719 1133.945312 C 333.046875 1132.954102 329.931641 1132.954102 325.966797 1131.962891 C 322.993164 1130.97168 319.02832 1130.97168 316.054687 1129.980469 C 311.948242 1128.989258 308.974609 1127.006836 305.009766 1126.015625 C 302.036133 1125.024414 297.929687 1123.041992 294.956055 1122.050781 C 291.982422 1120.068359 289.008789 1117.944336 286.035156 1115.961914 C 283.061523 1113.979492 280.9375 1111.99707 277.963867 1110.014648 C 274.990234 1108.032227 272.016602 1105.058594 269.042969 1102.93457 C 267.060547 1099.960937 263.945312 1097.978516 261.962891 1095.004883 C 259.980469 1092.03125 257.006836 1090.048828 255.024414 1086.933594 C 253.041992 1083.959961 252.050781 1079.995117 250.068359 1077.021484 C 247.944336 1074.047852 246.953125 1070.932617 244.970703 1067.958984 C 243.979492 1064.985352 242.988281 1062.011719 241.99707 1059.038086 C 241.005859 1054.931641 240.014648 1050.966797 239.023437 1047.001953 C 238.032227 1044.02832 237.041016 1040.063477 236.049805 1036.948242 C 236.049805 1032.983398 236.049805 1030.009766 236.049805 1026.044922 Z M 236.049805 1026.044922 " transform="matrix(0.0275862, 0, 0, 0.0275862, 0, 0)"/>
<path fill="none" stroke-width="1" stroke-linecap="butt" stroke-linejoin="miter" stroke="rgb(0%, 0%, 100%)" stroke-opacity="1" stroke-miterlimit="4" d="M 242.988281 1034.96582 C 243.979492 1038.930664 243.979492 1042.045898 244.970703 1046.010742 C 245.961914 1048.984375 246.953125 1052.949219 247.944336 1056.064453 C 248.935547 1059.038086 250.068359 1062.011719 251.05957 1064.985352 C 253.041992 1067.958984 254.033203 1070.932617 256.015625 1074.047852 C 257.998047 1077.021484 258.989258 1079.995117 260.97168 1082.96875 C 262.954102 1084.951172 264.936523 1088.066406 267.060547 1090.048828 C 269.042969 1093.022461 272.016602 1095.004883 273.999023 1097.978516 C 275.981445 1099.960937 278.955078 1101.943359 280.9375 1104.067383 C 284.052734 1106.049805 286.035156 1108.032227 289.008789 1110.014648 C 291.982422 1111.99707 294.956055 1112.988281 297.929687 1114.970703 C 301.044922 1115.961914 304.018555 1117.944336 306.992187 1118.935547 C 309.96582 1120.068359 313.930664 1122.050781 317.045898 1123.041992 C 320.019531 1124.033203 323.984375 1124.033203 326.958008 1125.024414 C 331.064453 1126.015625 334.038086 1126.015625 338.00293 1127.006836 C 340.976562 1127.006836 343.950195 1127.998047 348.056641 1127.998047 C 352.021484 1127.998047 355.986328 1127.006836 359.951172 1127.006836 C 363.066406 1126.015625 366.040039 1126.015625 370.004883 1125.024414 C 372.978516 1124.033203 375.952148 1124.033203 380.058594 1123.041992 C 383.032227 1122.050781 386.005859 1121.05957 388.979492 1120.068359 C 391.953125 1117.944336 395.068359 1116.953125 399.033203 1114.970703 C 401.015625 1112.988281 403.989258 1111.99707 406.962891 1110.014648 C 409.936523 1108.032227 413.051758 1107.041016 416.025391 1105.058594 C 418.007812 1102.93457 420.981445 1099.960937 423.955078 1097.978516 C 425.9375 1095.004883 428.061523 1093.022461 431.035156 1090.048828 C 432.026367 1088.066406 434.008789 1084.951172 435.991211 1082.96875 C 437.973633 1079.995117 439.956055 1077.021484 441.938477 1074.047852 C 442.929687 1070.932617 444.0625 1067.958984 446.044922 1064.985352 C 447.036133 1062.011719 448.027344 1059.038086 449.018555 1056.064453 C 450.009766 1052.949219 451.000977 1049.975586 451.992187 1047.001953 C 451.992187 1043.037109 452.983398 1040.063477 453.974609 1035.957031 C 453.974609 1032.983398 453.974609 1029.018555 453.974609 1026.044922 C 453.974609 1021.938477 453.974609 1018.964844 453.974609 1015 C 452.983398 1012.026367 452.983398 1009.052734 452.983398 1005.9375 C 451.992187 1001.972656 451.000977 998.999023 450.009766 995.03418 C 448.027344 992.060547 447.036133 988.945312 446.044922 985.97168 C 444.0625 982.998047 442.929687 980.024414 441.938477 977.050781 C 439.956055 973.935547 437.973633 971.953125 435.991211 968.979492 C 434.008789 966.99707 432.026367 964.023437 431.035156 961.049805 C 428.061523 959.067383 425.9375 955.952148 423.955078 952.978516 C 420.981445 950.996094 418.007812 949.013672 416.025391 947.03125 C 413.051758 945.048828 409.936523 943.066406 407.954102 940.942383 C 404.980469 939.951172 402.006836 937.96875 400.024414 935.986328 C 396.05957 934.995117 392.944336 934.003906 389.970703 932.021484 C 386.99707 931.030273 384.023437 930.039062 381.049805 928.056641 C 376.943359 928.056641 373.969727 927.06543 370.996094 925.932617 C 367.03125 925.932617 363.066406 924.941406 359.951172 923.950195 C 355.986328 923.950195 352.021484 923.950195 349.047852 923.950195 C 344.941406 923.950195 340.976562 923.950195 338.00293 923.950195 C 334.038086 924.941406 331.064453 925.932617 327.949219 925.932617 C 324.975586 927.06543 321.010742 928.056641 318.037109 928.056641 C 313.930664 929.047852 310.957031 930.039062 306.992187 931.030273 C 304.018555 933.012695 302.036133 934.003906 299.0625 934.995117 C 295.947266 936.977539 291.982422 938.959961 289.008789 940.942383 C 287.026367 943.066406 284.052734 945.048828 282.070312 947.03125 C 278.955078 949.013672 276.972656 950.996094 273.999023 952.978516 C 272.016602 955.952148 269.042969 957.93457 267.060547 960.058594 C 264.936523 963.032227 262.954102 966.005859 260.97168 968.979492 C 258.989258 971.953125 257.998047 973.935547 256.015625 977.050781 C 255.024414 980.024414 253.041992 982.998047 252.050781 985.97168 C 251.05957 988.945312 248.935547 992.060547 247.944336 995.03418 C 246.953125 998.007812 245.961914 1001.972656 244.970703 1004.946289 C 243.979492 1008.061523 243.979492 1012.026367 242.988281 1015 C 242.988281 1017.973633 242.988281 1021.938477 242.988281 1025.053711 C 242.988281 1028.027344 242.988281 1031.992187 242.988281 1034.96582 Z M 242.988281 1034.96582 " transform="matrix(0.0275862, 0, 0, 0.0275862, 0, 0)"/>
<path fill-rule="nonzero" fill="rgb(0%, 0%, 100%)" fill-opacity="1" d="M 8.882812 8.773438 C 8.882812 8.632812 8.882812 8.496094 8.882812 8.386719 C 8.882812 8.25 8.910156 8.109375 8.910156 7.972656 C 8.9375 7.835938 8.9375 7.695312 8.964844 7.558594 C 8.992188 7.421875 9.019531 7.28125 9.046875 7.144531 C 9.074219 7.007812 9.101562 6.867188 9.132812 6.757812 C 9.160156 6.621094 9.1875 6.484375 9.242188 6.371094 C 9.269531 6.234375 9.324219 6.125 9.378906 6.015625 C 9.40625 5.875 9.460938 5.765625 9.515625 5.65625 C 9.574219 5.515625 9.628906 5.40625 9.683594 5.269531 C 9.738281 5.160156 9.792969 5.019531 9.875 4.910156 C 9.929688 4.800781 10.015625 4.691406 10.097656 4.578125 C 10.152344 4.46875 10.207031 4.359375 10.289062 4.25 C 10.371094 4.136719 10.457031 4.054688 10.539062 3.945312 C 10.59375 3.835938 10.675781 3.75 10.757812 3.640625 C 10.839844 3.53125 10.925781 3.449219 11.035156 3.339844 C 11.117188 3.253906 11.199219 3.171875 11.308594 3.089844 C 11.394531 2.980469 11.476562 2.898438 11.585938 2.785156 C 11.667969 2.703125 11.78125 2.621094 11.890625 2.539062 C 11.972656 2.457031 12.082031 2.371094 12.191406 2.289062 C 12.304688 2.234375 12.414062 2.152344 12.523438 2.097656 C 12.632812 2.015625 12.746094 1.957031 12.855469 1.875 C 12.964844 1.820312 13.074219 1.738281 13.214844 1.683594 C 13.324219 1.628906 13.433594 1.542969 13.574219 1.488281 C 13.683594 1.433594 13.820312 1.378906 13.957031 1.324219 C 14.070312 1.269531 14.179688 1.242188 14.316406 1.1875 C 14.425781 1.160156 14.566406 1.101562 14.703125 1.074219 C 14.839844 1.046875 14.980469 0.992188 15.117188 0.964844 C 15.226562 0.9375 15.367188 0.882812 15.503906 0.855469 C 15.640625 0.828125 15.78125 0.828125 15.917969 0.800781 C 16.054688 0.773438 16.164062 0.773438 16.304688 0.746094 C 16.441406 0.746094 16.578125 0.71875 16.71875 0.71875 C 16.855469 0.71875 16.992188 0.691406 17.132812 0.691406 C 17.269531 0.691406 17.40625 0.71875 17.542969 0.71875 C 17.710938 0.71875 17.847656 0.746094 17.984375 0.746094 C 18.125 0.773438 18.261719 0.773438 18.398438 0.800781 C 18.539062 0.828125 18.675781 0.828125 18.8125 0.855469 C 18.953125 0.882812 19.089844 0.9375 19.199219 0.964844 C 19.339844 0.992188 19.476562 1.019531 19.613281 1.046875 C 19.75 1.074219 19.863281 1.132812 19.972656 1.160156 C 20.109375 1.214844 20.25 1.269531 20.359375 1.324219 C 20.496094 1.378906 20.632812 1.40625 20.746094 1.460938 C 20.882812 1.515625 20.992188 1.601562 21.101562 1.65625 C 21.214844 1.710938 21.324219 1.792969 21.433594 1.847656 C 21.542969 1.929688 21.65625 1.984375 21.765625 2.070312 C 21.875 2.125 21.984375 2.207031 22.097656 2.261719 C 22.207031 2.34375 22.316406 2.425781 22.398438 2.511719 C 22.511719 2.59375 22.621094 2.675781 22.730469 2.757812 C 22.839844 2.839844 22.925781 2.953125 23.007812 3.035156 C 23.117188 3.117188 23.199219 3.226562 23.28125 3.308594 C 23.367188 3.421875 23.449219 3.503906 23.53125 3.613281 C 23.613281 3.695312 23.722656 3.808594 23.808594 3.890625 C 23.890625 4 23.945312 4.109375 24.027344 4.21875 C 24.109375 4.332031 24.164062 4.441406 24.25 4.550781 C 24.332031 4.660156 24.386719 4.773438 24.46875 4.882812 C 24.523438 4.992188 24.578125 5.132812 24.632812 5.242188 C 24.691406 5.351562 24.773438 5.460938 24.828125 5.601562 C 24.882812 5.710938 24.910156 5.847656 24.964844 5.984375 C 25.019531 6.097656 25.046875 6.207031 25.101562 6.34375 C 25.132812 6.457031 25.160156 6.59375 25.1875 6.730469 C 25.214844 6.839844 25.269531 6.980469 25.296875 7.117188 C 25.324219 7.226562 25.351562 7.367188 25.378906 7.503906 C 25.40625 7.640625 25.40625 7.78125 25.433594 7.917969 C 25.433594 8.054688 25.460938 8.191406 25.460938 8.332031 C 25.460938 8.46875 25.488281 8.605469 25.488281 8.773438 C 25.488281 8.882812 25.460938 9.019531 25.460938 9.160156 C 25.460938 9.296875 25.433594 9.433594 25.433594 9.574219 C 25.40625 9.710938 25.40625 9.847656 25.378906 9.984375 C 25.351562 10.125 25.351562 10.261719 25.324219 10.398438 C 25.296875 10.511719 25.242188 10.621094 25.214844 10.757812 C 25.1875 10.898438 25.132812 11.035156 25.101562 11.171875 C 25.074219 11.28125 25.019531 11.394531 24.992188 11.53125 C 24.9375 11.640625 24.882812 11.75 24.828125 11.890625 C 24.773438 12 24.71875 12.109375 24.660156 12.25 C 24.605469 12.359375 24.523438 12.46875 24.46875 12.605469 C 24.414062 12.71875 24.332031 12.828125 24.277344 12.964844 C 24.191406 13.074219 24.136719 13.1875 24.054688 13.296875 C 23.972656 13.378906 23.917969 13.488281 23.835938 13.601562 C 23.75 13.683594 23.640625 13.792969 23.558594 13.902344 C 23.476562 13.984375 23.394531 14.070312 23.308594 14.179688 C 23.226562 14.261719 23.144531 14.34375 23.0625 14.457031 C 22.980469 14.539062 22.867188 14.648438 22.757812 14.757812 C 22.675781 14.8125 22.566406 14.898438 22.457031 14.980469 C 22.34375 15.0625 22.234375 15.144531 22.125 15.253906 C 22.015625 15.308594 21.902344 15.367188 21.792969 15.449219 C 21.683594 15.503906 21.574219 15.585938 21.460938 15.667969 C 21.351562 15.722656 21.242188 15.78125 21.132812 15.863281 C 21.019531 15.917969 20.910156 15.972656 20.773438 16.054688 C 20.660156 16.082031 20.550781 16.136719 20.414062 16.191406 C 20.304688 16.25 20.164062 16.304688 20.027344 16.332031 C 19.917969 16.386719 19.78125 16.414062 19.640625 16.441406 C 19.53125 16.496094 19.394531 16.523438 19.253906 16.550781 C 19.117188 16.605469 18.980469 16.632812 18.839844 16.660156 C 18.703125 16.691406 18.566406 16.71875 18.425781 16.71875 C 18.289062 16.746094 18.152344 16.773438 18.015625 16.773438 C 17.875 16.800781 17.738281 16.800781 17.601562 16.800781 C 17.460938 16.828125 17.324219 16.828125 17.1875 16.828125 C 17.046875 16.828125 16.910156 16.828125 16.746094 16.800781 C 16.605469 16.800781 16.46875 16.800781 16.332031 16.773438 C 16.191406 16.773438 16.082031 16.746094 15.945312 16.71875 C 15.808594 16.71875 15.667969 16.691406 15.53125 16.660156 C 15.394531 16.632812 15.253906 16.605469 15.117188 16.550781 C 14.980469 16.523438 14.839844 16.496094 14.730469 16.46875 C 14.59375 16.441406 14.457031 16.386719 14.34375 16.332031 C 14.207031 16.304688 14.097656 16.25 13.984375 16.191406 C 13.847656 16.136719 13.710938 16.082031 13.601562 16.054688 C 13.460938 16 13.351562 15.945312 13.242188 15.890625 C 13.101562 15.808594 12.992188 15.75 12.882812 15.695312 C 12.773438 15.613281 12.660156 15.53125 12.550781 15.476562 C 12.441406 15.394531 12.332031 15.308594 12.21875 15.253906 C 12.109375 15.171875 12 15.089844 11.917969 15.007812 C 11.808594 14.925781 11.695312 14.839844 11.613281 14.785156 C 11.503906 14.675781 11.421875 14.566406 11.339844 14.484375 C 11.226562 14.398438 11.144531 14.316406 11.0625 14.234375 C 10.953125 14.125 10.867188 14.015625 10.785156 13.929688 C 10.703125 13.820312 10.621094 13.710938 10.566406 13.628906 C 10.484375 13.515625 10.398438 13.40625 10.316406 13.324219 C 10.234375 13.214844 10.152344 13.101562 10.097656 12.992188 C 10.015625 12.882812 9.957031 12.773438 9.902344 12.660156 C 9.820312 12.523438 9.765625 12.414062 9.710938 12.304688 C 9.65625 12.164062 9.601562 12.054688 9.542969 11.945312 C 9.488281 11.808594 9.433594 11.667969 9.40625 11.558594 C 9.351562 11.421875 9.296875 11.308594 9.269531 11.199219 C 9.214844 11.0625 9.160156 10.925781 9.132812 10.8125 C 9.101562 10.675781 9.074219 10.539062 9.046875 10.425781 C 9.019531 10.289062 8.992188 10.152344 8.964844 10.015625 C 8.964844 9.875 8.9375 9.738281 8.9375 9.601562 C 8.910156 9.460938 8.910156 9.324219 8.882812 9.214844 C 8.882812 9.046875 8.882812 8.910156 8.882812 8.773438 Z M 10.457031 9.101562 C 10.457031 9.1875 10.484375 9.296875 10.511719 9.40625 C 10.511719 9.515625 10.511719 9.628906 10.539062 9.738281 C 10.539062 9.847656 10.566406 9.957031 10.59375 10.070312 C 10.621094 10.152344 10.648438 10.261719 10.675781 10.371094 C 10.703125 10.457031 10.730469 10.566406 10.757812 10.675781 C 10.785156 10.757812 10.8125 10.867188 10.867188 10.980469 C 10.898438 11.0625 10.925781 11.144531 10.980469 11.253906 C 11.007812 11.339844 11.0625 11.421875 11.117188 11.53125 C 11.144531 11.613281 11.199219 11.722656 11.253906 11.835938 C 11.308594 11.917969 11.367188 12 11.421875 12.109375 C 11.476562 12.191406 11.53125 12.277344 11.585938 12.359375 C 11.640625 12.441406 11.695312 12.523438 11.78125 12.632812 C 11.835938 12.691406 11.890625 12.773438 11.972656 12.855469 C 12.027344 12.9375 12.109375 13.019531 12.191406 13.101562 C 12.25 13.160156 12.332031 13.242188 12.414062 13.324219 C 12.46875 13.378906 12.550781 13.460938 12.632812 13.542969 C 12.71875 13.601562 12.800781 13.65625 12.882812 13.738281 C 12.964844 13.792969 13.046875 13.875 13.160156 13.957031 C 13.242188 14.015625 13.324219 14.070312 13.40625 14.125 C 13.488281 14.179688 13.574219 14.234375 13.65625 14.289062 C 13.738281 14.34375 13.847656 14.398438 13.957031 14.457031 C 14.042969 14.484375 14.152344 14.539062 14.261719 14.59375 C 14.34375 14.621094 14.425781 14.675781 14.539062 14.730469 C 14.621094 14.757812 14.730469 14.785156 14.839844 14.839844 C 14.925781 14.867188 15.035156 14.898438 15.144531 14.953125 C 15.253906 14.980469 15.367188 15.007812 15.476562 15.035156 C 15.585938 15.0625 15.695312 15.089844 15.808594 15.117188 C 15.917969 15.117188 16.027344 15.144531 16.136719 15.171875 C 16.21875 15.171875 16.332031 15.171875 16.441406 15.199219 C 16.578125 15.199219 16.691406 15.226562 16.800781 15.253906 C 16.910156 15.253906 17.019531 15.253906 17.132812 15.253906 C 17.269531 15.253906 17.378906 15.253906 17.488281 15.253906 C 17.628906 15.226562 17.738281 15.226562 17.847656 15.226562 C 17.957031 15.199219 18.070312 15.171875 18.179688 15.171875 C 18.289062 15.144531 18.398438 15.117188 18.511719 15.117188 C 18.621094 15.089844 18.730469 15.0625 18.839844 15.035156 C 18.953125 15.007812 19.0625 14.980469 19.144531 14.953125 C 19.253906 14.898438 19.367188 14.867188 19.476562 14.839844 C 19.585938 14.8125 19.695312 14.785156 19.78125 14.757812 C 19.890625 14.703125 20 14.648438 20.082031 14.621094 C 20.191406 14.566406 20.277344 14.511719 20.359375 14.457031 C 20.46875 14.398438 20.550781 14.34375 20.632812 14.289062 C 20.746094 14.234375 20.828125 14.179688 20.910156 14.125 C 21.019531 14.070312 21.101562 14.015625 21.1875 13.957031 C 21.269531 13.875 21.351562 13.820312 21.433594 13.765625 C 21.515625 13.683594 21.601562 13.628906 21.683594 13.574219 C 21.765625 13.488281 21.847656 13.40625 21.902344 13.351562 C 21.984375 13.269531 22.070312 13.1875 22.125 13.132812 C 22.207031 13.046875 22.289062 12.964844 22.34375 12.882812 C 22.425781 12.800781 22.484375 12.71875 22.539062 12.660156 C 22.621094 12.550781 22.675781 12.46875 22.730469 12.386719 C 22.785156 12.304688 22.839844 12.21875 22.898438 12.136719 C 22.953125 12.027344 23.007812 11.945312 23.0625 11.863281 C 23.117188 11.75 23.171875 11.667969 23.199219 11.585938 C 23.253906 11.476562 23.308594 11.394531 23.367188 11.308594 C 23.394531 11.199219 23.449219 11.089844 23.476562 11.007812 C 23.503906 10.898438 23.53125 10.8125 23.558594 10.730469 C 23.585938 10.621094 23.640625 10.511719 23.667969 10.398438 C 23.695312 10.289062 23.695312 10.179688 23.722656 10.070312 C 23.75 9.957031 23.78125 9.847656 23.808594 9.765625 C 23.835938 9.65625 23.835938 9.542969 23.863281 9.433594 C 23.863281 9.324219 23.863281 9.214844 23.863281 9.101562 C 23.863281 8.992188 23.863281 8.882812 23.863281 8.773438 C 23.863281 8.660156 23.863281 8.550781 23.863281 8.441406 C 23.863281 8.332031 23.863281 8.21875 23.863281 8.109375 C 23.835938 8 23.835938 7.890625 23.808594 7.808594 C 23.78125 7.695312 23.78125 7.585938 23.75 7.476562 C 23.722656 7.367188 23.722656 7.253906 23.695312 7.171875 C 23.667969 7.0625 23.613281 6.953125 23.585938 6.867188 C 23.558594 6.757812 23.503906 6.648438 23.476562 6.566406 C 23.449219 6.457031 23.394531 6.371094 23.367188 6.289062 C 23.308594 6.179688 23.28125 6.097656 23.226562 6.015625 C 23.199219 5.902344 23.144531 5.792969 23.089844 5.710938 C 23.035156 5.601562 22.980469 5.515625 22.925781 5.433594 C 22.867188 5.351562 22.8125 5.269531 22.730469 5.1875 C 22.675781 5.101562 22.621094 4.992188 22.566406 4.910156 C 22.511719 4.828125 22.457031 4.773438 22.371094 4.691406 C 22.316406 4.605469 22.234375 4.523438 22.152344 4.441406 C 22.097656 4.359375 22.015625 4.304688 21.929688 4.21875 C 21.875 4.136719 21.792969 4.082031 21.710938 4 C 21.628906 3.917969 21.542969 3.863281 21.460938 3.78125 C 21.378906 3.722656 21.296875 3.640625 21.214844 3.585938 C 21.132812 3.53125 21.046875 3.476562 20.9375 3.421875 C 20.855469 3.367188 20.773438 3.308594 20.660156 3.253906 C 20.578125 3.199219 20.496094 3.144531 20.386719 3.089844 C 20.304688 3.035156 20.21875 2.980469 20.109375 2.925781 C 20.027344 2.898438 19.917969 2.839844 19.808594 2.8125 C 19.695312 2.785156 19.585938 2.730469 19.476562 2.703125 C 19.394531 2.675781 19.28125 2.621094 19.171875 2.59375 C 19.089844 2.566406 18.980469 2.539062 18.867188 2.511719 C 18.757812 2.484375 18.648438 2.457031 18.539062 2.425781 C 18.425781 2.398438 18.316406 2.398438 18.207031 2.371094 C 18.097656 2.34375 17.984375 2.34375 17.847656 2.316406 C 17.765625 2.316406 17.65625 2.289062 17.542969 2.289062 C 17.433594 2.289062 17.324219 2.289062 17.1875 2.289062 C 17.074219 2.289062 16.964844 2.289062 16.828125 2.289062 C 16.71875 2.289062 16.605469 2.316406 16.496094 2.316406 C 16.386719 2.34375 16.277344 2.34375 16.164062 2.371094 C 16.054688 2.398438 15.945312 2.398438 15.835938 2.425781 C 15.722656 2.457031 15.613281 2.457031 15.503906 2.484375 C 15.394531 2.511719 15.28125 2.566406 15.199219 2.59375 C 15.089844 2.621094 14.980469 2.648438 14.898438 2.675781 C 14.785156 2.703125 14.675781 2.757812 14.59375 2.785156 C 14.484375 2.839844 14.371094 2.867188 14.289062 2.925781 C 14.179688 2.980469 14.070312 3.035156 13.984375 3.089844 C 13.875 3.144531 13.792969 3.171875 13.710938 3.226562 C 13.601562 3.28125 13.515625 3.367188 13.433594 3.421875 C 13.351562 3.476562 13.269531 3.53125 13.1875 3.585938 C 13.074219 3.640625 12.992188 3.695312 12.910156 3.75 C 12.828125 3.835938 12.746094 3.890625 12.691406 3.972656 C 12.605469 4.054688 12.523438 4.109375 12.441406 4.191406 C 12.359375 4.277344 12.277344 4.332031 12.191406 4.414062 C 12.109375 4.496094 12.054688 4.578125 12 4.660156 C 11.917969 4.746094 11.863281 4.800781 11.808594 4.882812 C 11.722656 4.964844 11.667969 5.074219 11.613281 5.160156 C 11.558594 5.242188 11.503906 5.324219 11.449219 5.40625 C 11.394531 5.488281 11.339844 5.574219 11.28125 5.683594 C 11.226562 5.765625 11.171875 5.847656 11.117188 5.957031 C 11.0625 6.042969 11.035156 6.125 11.007812 6.234375 C 10.953125 6.316406 10.925781 6.425781 10.898438 6.539062 C 10.839844 6.621094 10.785156 6.703125 10.757812 6.8125 C 10.730469 6.925781 10.703125 7.035156 10.675781 7.144531 C 10.648438 7.226562 10.621094 7.339844 10.59375 7.449219 C 10.566406 7.558594 10.566406 7.667969 10.566406 7.78125 C 10.539062 7.890625 10.511719 8 10.511719 8.109375 C 10.484375 8.191406 10.484375 8.304688 10.484375 8.414062 C 10.457031 8.523438 10.457031 8.632812 10.457031 8.773438 C 10.457031 8.882812 10.457031 8.992188 10.457031 9.101562 Z M 10.457031 9.101562 "/>
<path fill="none" stroke-width="1" stroke-linecap="butt" stroke-linejoin="miter" stroke="rgb(0%, 0%, 100%)" stroke-opacity="1" stroke-miterlimit="4" d="M 322.001953 318.037109 C 322.001953 312.939453 322.001953 307.983398 322.001953 304.018555 C 322.001953 299.0625 322.993164 293.964844 322.993164 289.008789 C 323.984375 284.052734 323.984375 278.955078 324.975586 273.999023 C 325.966797 269.042969 326.958008 263.945312 327.949219 258.989258 C 328.94043 254.033203 329.931641 248.935547 331.064453 244.970703 C 332.055664 240.014648 333.046875 235.058594 335.029297 230.952148 C 336.020508 225.996094 338.00293 222.03125 339.985352 218.066406 C 340.976562 212.96875 342.958984 209.003906 344.941406 205.039062 C 347.06543 199.941406 349.047852 195.976562 351.030273 191.020508 C 353.012695 187.055664 354.995117 181.958008 357.96875 177.993164 C 359.951172 174.02832 363.066406 170.063477 366.040039 165.957031 C 368.022461 161.992187 370.004883 158.027344 372.978516 154.0625 C 375.952148 149.956055 379.067383 146.982422 382.041016 143.017578 C 384.023437 139.052734 386.99707 135.9375 389.970703 131.972656 C 392.944336 128.007812 396.05957 125.03418 400.024414 121.069336 C 402.998047 117.954102 405.97168 114.980469 409.936523 112.006836 C 413.051758 108.041992 416.025391 105.068359 419.990234 100.961914 C 422.963867 97.988281 427.070312 95.014648 431.035156 92.041016 C 434.008789 89.067383 437.973633 85.952148 441.938477 82.978516 C 446.044922 80.996094 450.009766 78.022461 453.974609 76.040039 C 457.939453 73.066406 462.045898 70.942383 466.010742 67.96875 C 469.975586 65.986328 473.94043 63.012695 479.038086 61.030273 C 483.00293 59.047852 486.967773 55.932617 492.06543 53.950195 C 496.030273 51.967773 500.986328 49.985352 505.942383 48.00293 C 510.048828 46.020508 514.013672 45.029297 518.969727 43.046875 C 522.93457 42.055664 528.032227 39.931641 532.988281 38.94043 C 537.944336 37.949219 543.041992 35.966797 547.998047 34.975586 C 551.962891 33.984375 557.060547 32.001953 562.016602 31.010742 C 566.972656 30.019531 572.070312 30.019531 577.026367 29.02832 C 581.982422 28.037109 585.947266 28.037109 591.044922 27.045898 C 596.000977 27.045898 600.957031 26.054687 606.054687 26.054687 C 611.010742 26.054687 615.966797 25.063477 621.064453 25.063477 C 626.020508 25.063477 630.976562 26.054687 635.932617 26.054687 C 642.021484 26.054687 646.977539 27.045898 651.933594 27.045898 C 657.03125 28.037109 661.987305 28.037109 666.943359 29.02832 C 672.041016 30.019531 676.99707 30.019531 681.953125 31.010742 C 687.050781 32.001953 692.006836 33.984375 695.97168 34.975586 C 701.069336 35.966797 706.025391 36.958008 710.981445 37.949219 C 715.9375 38.94043 720.043945 41.064453 724.008789 42.055664 C 728.964844 44.038086 734.0625 46.020508 738.027344 48.00293 C 742.983398 49.985352 747.939453 50.976562 752.045898 52.958984 C 757.001953 54.941406 760.966797 58.056641 764.931641 60.039062 C 769.038086 62.021484 773.00293 64.995117 776.967773 66.977539 C 780.932617 69.951172 785.039062 71.933594 789.003906 75.048828 C 792.96875 77.03125 796.933594 80.004883 801.040039 81.987305 C 805.004883 84.960937 808.969727 87.93457 811.943359 91.049805 C 816.049805 94.023437 820.014648 96.99707 823.979492 99.970703 C 827.944336 102.944336 831.05957 107.050781 834.033203 110.024414 C 837.998047 112.998047 840.97168 116.962891 843.945312 119.936523 C 847.060547 124.042969 850.03418 127.016602 853.007812 130.981445 C 855.981445 133.955078 859.946289 138.061523 863.061523 141.035156 C 866.035156 145 868.017578 148.964844 870.991211 152.929687 C 873.964844 157.036133 875.947266 161.000977 879.0625 164.96582 C 882.036133 168.930664 884.018555 173.037109 886.992187 177.001953 C 888.974609 180.966797 890.957031 186.064453 892.939453 190.029297 C 895.063477 193.994141 898.037109 197.958984 900.019531 203.056641 C 902.001953 207.021484 902.993164 211.977539 904.975586 216.933594 C 906.958008 221.040039 907.949219 225.004883 909.931641 229.960937 C 911.064453 234.067383 912.055664 239.023437 913.046875 243.979492 C 914.038086 247.944336 916.020508 253.041992 917.011719 257.998047 C 918.00293 261.962891 918.994141 267.060547 919.985352 272.016602 C 920.976562 276.972656 920.976562 282.070312 921.967773 287.026367 C 921.967773 291.982422 922.958984 296.938477 922.958984 302.036133 C 922.958984 306.992187 923.950195 311.948242 923.950195 318.037109 C 923.950195 322.001953 922.958984 326.958008 922.958984 332.055664 C 922.958984 337.011719 921.967773 341.967773 921.967773 347.06543 C 920.976562 352.021484 920.976562 356.977539 919.985352 361.933594 C 918.994141 367.03125 918.994141 371.987305 918.00293 376.943359 C 917.011719 381.049805 915.029297 385.014648 914.038086 389.970703 C 913.046875 395.068359 911.064453 400.024414 909.931641 404.980469 C 908.94043 408.945312 906.958008 413.051758 905.966797 418.007812 C 903.984375 421.972656 902.001953 425.9375 900.019531 431.035156 C 898.037109 435 896.054687 438.964844 893.930664 444.0625 C 891.948242 448.027344 888.974609 451.992187 886.992187 456.948242 C 885.009766 461.054687 882.036133 465.019531 880.053711 469.975586 C 876.938477 473.94043 874.956055 478.046875 871.982422 482.011719 C 869.008789 484.985352 867.026367 488.950195 864.052734 493.056641 C 860.9375 496.030273 856.972656 499.995117 853.999023 503.959961 C 851.025391 506.933594 848.051758 510.048828 844.936523 514.013672 C 841.962891 516.987305 838.989258 519.960937 836.015625 524.067383 C 833.041992 527.041016 828.935547 531.005859 824.970703 534.970703 C 821.99707 536.953125 818.032227 540.068359 814.067383 543.041992 C 809.960937 546.015625 805.996094 548.989258 802.03125 552.954102 C 798.066406 554.936523 793.959961 557.060547 789.995117 560.03418 C 786.030273 562.016602 782.06543 564.990234 777.958984 567.963867 C 773.994141 569.946289 770.029297 572.070312 766.064453 575.043945 C 761.958008 577.026367 757.993164 579.008789 753.037109 581.982422 C 748.930664 582.973633 744.96582 584.956055 740.009766 586.938477 C 736.044922 589.0625 730.947266 591.044922 725.991211 592.036133 C 722.026367 594.018555 717.070312 595.009766 711.972656 596.000977 C 708.007812 597.983398 703.051758 598.974609 697.954102 599.96582 C 692.998047 601.948242 688.041992 602.939453 682.944336 603.930664 C 677.988281 605.063477 673.032227 606.054687 667.93457 606.054687 C 662.978516 607.045898 658.022461 608.037109 653.066406 608.037109 C 647.96875 609.02832 643.012695 609.02832 638.056641 609.02832 C 632.958984 610.019531 628.00293 610.019531 623.046875 610.019531 C 617.949219 610.019531 612.993164 610.019531 607.045898 609.02832 C 601.948242 609.02832 596.992187 609.02832 592.036133 608.037109 C 586.938477 608.037109 582.973633 607.045898 578.017578 606.054687 C 573.061523 606.054687 567.963867 605.063477 563.007812 603.930664 C 558.051758 602.939453 552.954102 601.948242 547.998047 599.96582 C 543.041992 598.974609 537.944336 597.983398 533.979492 596.992187 C 529.023437 596.000977 524.067383 594.018555 519.960937 592.036133 C 515.004883 591.044922 511.040039 589.0625 506.933594 586.938477 C 501.977539 584.956055 497.021484 582.973633 493.056641 581.982422 C 487.958984 580 483.994141 578.017578 480.029297 576.035156 C 474.931641 573.061523 470.966797 570.9375 467.001953 568.955078 C 463.037109 565.981445 458.930664 563.007812 454.96582 561.025391 C 451.000977 558.051758 447.036133 554.936523 442.929687 552.954102 C 438.964844 549.980469 435 547.006836 432.026367 544.033203 C 428.061523 541.05957 423.955078 537.944336 420.981445 535.961914 C 417.016602 531.99707 414.042969 528.032227 411.069336 525.058594 C 406.962891 521.943359 403.989258 518.969727 401.015625 515.996094 C 397.050781 512.03125 393.935547 508.066406 390.961914 504.951172 C 387.988281 500.986328 385.014648 497.021484 383.032227 494.047852 C 380.058594 489.941406 376.943359 485.976562 373.969727 483.00293 C 370.996094 479.038086 368.022461 474.931641 366.040039 470.966797 C 363.066406 467.001953 360.942383 463.037109 358.959961 458.930664 C 355.986328 453.974609 354.003906 450.009766 352.021484 446.044922 C 350.039062 440.947266 348.056641 436.982422 345.932617 433.017578 C 343.950195 428.061523 341.967773 422.963867 340.976562 418.999023 C 338.994141 414.042969 337.011719 409.936523 336.020508 405.97168 C 334.038086 401.015625 332.055664 396.05957 331.064453 391.953125 C 329.931641 386.99707 328.94043 382.041016 327.949219 377.93457 C 326.958008 372.978516 325.966797 368.022461 324.975586 363.066406 C 324.975586 357.96875 323.984375 353.012695 323.984375 348.056641 C 322.993164 342.958984 322.993164 338.00293 322.001953 334.038086 C 322.001953 327.949219 322.001953 322.993164 322.001953 318.037109 Z M 322.001953 318.037109 " transform="matrix(0.0275862, 0, 0, 0.0275862, 0, 0)"/>
<path fill="none" stroke-width="1" stroke-linecap="butt" stroke-linejoin="miter" stroke="rgb(0%, 0%, 100%)" stroke-opacity="1" stroke-miterlimit="4" d="M 379.067383 329.931641 C 379.067383 333.046875 380.058594 337.011719 381.049805 340.976562 C 381.049805 344.941406 381.049805 349.047852 382.041016 353.012695 C 382.041016 356.977539 383.032227 360.942383 384.023437 365.048828 C 385.014648 368.022461 386.005859 371.987305 386.99707 375.952148 C 387.988281 379.067383 388.979492 383.032227 389.970703 386.99707 C 390.961914 389.970703 391.953125 393.935547 393.935547 398.041992 C 395.068359 401.015625 396.05957 403.989258 398.041992 407.954102 C 399.033203 411.069336 401.015625 414.042969 402.998047 418.007812 C 403.989258 420.981445 405.97168 424.946289 407.954102 429.052734 C 409.936523 432.026367 412.060547 435 414.042969 438.964844 C 416.025391 441.938477 418.007812 445.053711 419.990234 448.027344 C 421.972656 451.000977 423.955078 453.974609 427.070312 457.939453 C 429.052734 460.063477 431.035156 463.037109 434.008789 466.010742 C 435.991211 468.984375 438.964844 471.958008 441.938477 474.931641 C 444.0625 477.055664 447.036133 480.029297 450.009766 483.00293 C 451.992187 484.985352 454.96582 487.958984 457.939453 490.932617 C 461.054687 493.056641 464.02832 495.039062 467.001953 498.012695 C 469.975586 499.995117 472.949219 502.96875 477.055664 505.942383 C 480.029297 508.066406 483.00293 510.048828 485.976562 512.03125 C 488.950195 514.013672 492.06543 515.996094 495.039062 517.978516 C 498.012695 519.960937 501.977539 521.943359 505.942383 524.067383 C 509.057617 525.058594 513.022461 527.041016 516.987305 529.023437 C 519.960937 530.014648 522.93457 531.99707 527.041016 533.979492 C 530.014648 534.970703 533.979492 535.961914 537.944336 537.944336 C 541.05957 538.935547 545.024414 540.068359 548.989258 542.050781 C 552.954102 543.041992 557.060547 544.033203 561.025391 545.024414 C 564.990234 546.015625 568.955078 547.006836 573.061523 547.998047 C 577.026367 547.998047 580.991211 548.989258 584.956055 549.980469 C 587.929687 549.980469 592.036133 549.980469 596.000977 550.97168 C 600.957031 550.97168 605.063477 551.962891 609.02832 552.954102 C 612.993164 552.954102 616.958008 552.954102 621.064453 552.954102 C 626.020508 552.954102 629.985352 552.954102 633.950195 552.954102 C 639.047852 551.962891 643.012695 551.962891 646.977539 551.962891 C 650.942383 550.97168 655.048828 549.980469 659.013672 549.980469 C 662.978516 548.989258 666.943359 547.998047 671.049805 547.998047 C 675.014648 547.006836 678.979492 546.015625 682.944336 545.024414 C 687.050781 544.033203 691.015625 543.041992 693.989258 542.050781 C 697.954102 540.068359 702.060547 538.935547 706.025391 537.944336 C 709.990234 536.953125 713.955078 535.961914 717.070312 534.970703 C 721.035156 532.988281 725 531.005859 727.973633 530.014648 C 731.938477 528.032227 735.053711 526.049805 738.027344 524.067383 C 741.992187 521.943359 744.96582 519.960937 747.939453 517.978516 C 752.045898 515.996094 755.019531 514.013672 757.993164 512.03125 C 761.958008 510.048828 764.931641 508.066406 768.046875 505.942383 C 771.020508 502.96875 773.994141 500.986328 776.967773 499.003906 C 779.941406 496.030273 783.056641 494.047852 786.030273 492.06543 C 789.003906 488.950195 791.977539 485.976562 793.959961 483.994141 C 796.933594 481.020508 800.048828 478.046875 802.03125 476.064453 C 805.004883 472.949219 807.978516 469.975586 809.960937 467.001953 C 812.93457 464.02832 815.058594 461.054687 817.041016 458.930664 C 820.014648 454.96582 821.99707 451.992187 823.979492 449.018555 C 825.961914 446.044922 827.944336 442.929687 830.068359 439.956055 C 832.050781 435.991211 834.033203 433.017578 836.015625 430.043945 C 837.998047 425.9375 839.980469 422.963867 840.97168 419.990234 C 842.954102 416.025391 844.936523 413.051758 847.060547 409.936523 C 848.051758 405.97168 850.03418 402.006836 851.025391 399.033203 C 852.016602 395.068359 853.007812 391.953125 853.999023 388.979492 C 854.990234 385.014648 856.972656 381.049805 857.963867 376.943359 C 858.955078 372.978516 858.955078 369.013672 859.946289 365.048828 C 860.9375 360.942383 862.070312 356.977539 863.061523 354.003906 C 864.052734 350.039062 864.052734 345.932617 865.043945 341.967773 C 865.043945 338.00293 865.043945 334.038086 865.043945 329.931641 C 865.043945 325.966797 865.043945 322.001953 865.043945 318.037109 C 865.043945 313.930664 865.043945 309.96582 865.043945 306.000977 C 865.043945 302.036133 865.043945 297.929687 865.043945 293.964844 C 864.052734 290 864.052734 286.035156 863.061523 283.061523 C 862.070312 278.955078 862.070312 274.990234 860.9375 271.025391 C 859.946289 267.060547 859.946289 262.954102 858.955078 259.980469 C 857.963867 256.015625 855.981445 252.050781 854.990234 248.935547 C 853.999023 244.970703 852.016602 241.005859 851.025391 238.032227 C 850.03418 234.067383 848.051758 230.952148 847.060547 227.978516 C 844.936523 224.013672 843.945312 221.040039 841.962891 218.066406 C 840.97168 213.959961 838.989258 209.995117 837.006836 207.021484 C 835.024414 203.056641 833.041992 199.941406 831.05957 196.967773 C 828.935547 193.994141 826.953125 191.020508 823.979492 188.046875 C 821.99707 184.931641 820.014648 180.966797 818.032227 177.993164 C 816.049805 175.019531 814.067383 173.037109 810.952148 170.063477 C 808.969727 166.948242 805.996094 163.974609 803.022461 161.000977 C 801.040039 158.027344 798.066406 156.044922 794.951172 152.929687 C 792.96875 149.956055 789.995117 147.973633 787.021484 145 C 784.047852 142.026367 780.932617 140.043945 777.958984 137.070312 C 774.985352 134.946289 772.011719 131.972656 769.038086 129.990234 C 766.064453 128.007812 762.949219 126.025391 758.984375 124.042969 C 756.010742 122.060547 753.037109 119.936523 748.930664 117.954102 C 745.957031 115.97168 742.983398 113.989258 739.018555 112.006836 C 736.044922 110.024414 732.929687 108.041992 728.964844 106.05957 C 725.991211 105.068359 722.026367 102.944336 718.061523 101.953125 C 713.955078 100.961914 709.990234 98.979492 706.025391 97.988281 C 703.051758 96.99707 698.945312 95.014648 694.980469 94.023437 C 692.006836 93.032227 688.041992 92.041016 683.935547 91.049805 C 679.970703 90.058594 676.005859 89.067383 672.041016 87.93457 C 667.93457 86.943359 663.969727 86.943359 660.004883 85.952148 C 656.040039 84.960937 651.933594 84.960937 646.977539 83.969727 C 644.003906 83.969727 640.039062 82.978516 635.932617 82.978516 C 631.967773 82.978516 628.00293 82.978516 623.046875 82.978516 C 618.94043 82.978516 614.975586 82.978516 610.019531 82.978516 C 606.054687 82.978516 601.948242 83.969727 597.983398 83.969727 C 594.018555 84.960937 590.053711 84.960937 585.947266 85.952148 C 581.982422 86.943359 578.017578 86.943359 574.052734 87.93457 C 569.946289 89.067383 565.981445 89.067383 562.016602 90.058594 C 558.051758 91.049805 553.945312 93.032227 550.97168 94.023437 C 547.006836 95.014648 543.041992 96.005859 540.068359 96.99707 C 535.961914 97.988281 531.99707 99.970703 529.023437 100.961914 C 525.058594 102.944336 520.952148 103.935547 517.978516 106.05957 C 514.013672 108.041992 510.048828 110.024414 506.933594 112.006836 C 502.96875 113.989258 499.995117 114.980469 497.021484 116.962891 C 493.056641 118.945312 489.941406 122.060547 486.967773 124.042969 C 483.994141 126.025391 481.020508 128.007812 478.046875 129.990234 C 473.94043 131.972656 470.966797 133.955078 467.993164 135.9375 C 465.019531 139.052734 462.045898 141.035156 460.063477 144.008789 C 456.948242 146.982422 453.974609 148.964844 451.000977 151.938477 C 448.027344 155.053711 445.053711 157.036133 441.938477 160.009766 C 438.964844 162.983398 436.982422 165.957031 435 168.930664 C 432.026367 172.045898 430.043945 174.02832 428.061523 177.001953 C 424.946289 179.975586 422.963867 183.94043 420.981445 187.055664 C 418.999023 190.029297 417.016602 193.00293 415.03418 195.976562 C 413.051758 198.950195 411.069336 202.06543 408.945312 206.030273 C 406.962891 209.003906 404.980469 211.977539 402.998047 215.942383 C 401.015625 219.057617 400.024414 222.03125 399.033203 225.996094 C 397.050781 228.969727 396.05957 232.93457 395.068359 237.041016 C 392.944336 240.014648 390.961914 242.988281 389.970703 246.953125 C 388.979492 251.05957 387.988281 255.024414 386.99707 258.989258 C 386.005859 261.962891 385.014648 266.069336 384.023437 270.03418 C 383.032227 273.999023 383.032227 277.963867 383.032227 282.070312 C 382.041016 286.035156 381.049805 290 381.049805 293.964844 C 380.058594 296.938477 380.058594 301.044922 380.058594 305.009766 C 379.067383 308.974609 379.067383 312.939453 379.067383 318.037109 C 379.067383 322.001953 379.067383 325.966797 379.067383 329.931641 Z M 379.067383 329.931641 " transform="matrix(0.0275862, 0, 0, 0.0275862, 0, 0)"/>
<path fill-rule="nonzero" fill="rgb(0%, 0%, 100%)" fill-opacity="1" d="M 11.695312 10.8125 C 11.695312 10.566406 11.695312 10.316406 11.695312 10.097656 C 12.386719 9.214844 13.074219 8.359375 13.765625 7.476562 C 13.160156 7.476562 12.550781 7.476562 11.945312 7.476562 C 11.945312 7.253906 11.945312 7.035156 11.945312 6.8125 C 12.882812 6.8125 13.847656 6.8125 14.785156 6.8125 C 14.785156 7.007812 14.785156 7.226562 14.785156 7.421875 C 14.070312 8.332031 13.378906 9.242188 12.660156 10.152344 C 13.40625 10.152344 14.125 10.152344 14.867188 10.152344 C 14.867188 10.371094 14.867188 10.59375 14.867188 10.8125 Z M 11.695312 10.8125 "/>
<path fill-rule="nonzero" fill="rgb(0%, 0%, 100%)" fill-opacity="1" d="M 15.394531 10.8125 C 15.394531 9.488281 15.394531 8.136719 15.394531 6.8125 C 16.277344 6.8125 17.160156 6.8125 18.070312 6.8125 C 18.070312 7.035156 18.070312 7.253906 18.070312 7.476562 C 17.433594 7.476562 16.800781 7.476562 16.164062 7.476562 C 16.164062 7.808594 16.164062 8.109375 16.164062 8.441406 C 16.71875 8.441406 17.269531 8.441406 17.792969 8.441406 C 17.792969 8.660156 17.792969 8.882812 17.792969 9.101562 C 17.269531 9.101562 16.71875 9.101562 16.164062 9.101562 C 16.164062 9.683594 16.164062 10.234375 16.164062 10.8125 Z M 15.394531 10.8125 "/>
<path fill-rule="nonzero" fill="rgb(0%, 0%, 100%)" fill-opacity="1" d="M 18.675781 8.828125 C 18.675781 8.414062 18.730469 8.082031 18.839844 7.808594 C 18.925781 7.613281 19.0625 7.421875 19.199219 7.253906 C 19.367188 7.089844 19.53125 6.980469 19.722656 6.898438 C 19.945312 6.785156 20.25 6.730469 20.550781 6.730469 C 21.132812 6.730469 21.601562 6.925781 21.929688 7.28125 C 22.289062 7.640625 22.457031 8.164062 22.457031 8.828125 C 22.457031 9.460938 22.289062 9.957031 21.929688 10.34375 C 21.601562 10.703125 21.132812 10.867188 20.578125 10.867188 C 19.972656 10.867188 19.53125 10.703125 19.171875 10.34375 C 18.839844 9.984375 18.675781 9.460938 18.675781 8.828125 Z M 19.476562 8.800781 C 19.476562 9.269531 19.585938 9.601562 19.78125 9.847656 C 20 10.070312 20.25 10.179688 20.550781 10.179688 C 20.882812 10.179688 21.132812 10.070312 21.351562 9.847656 C 21.542969 9.601562 21.628906 9.269531 21.628906 8.800781 C 21.628906 8.332031 21.542969 8 21.351562 7.78125 C 21.160156 7.53125 20.882812 7.421875 20.550781 7.421875 C 20.25 7.421875 19.972656 7.53125 19.78125 7.78125 C 19.585938 8 19.476562 8.359375 19.476562 8.800781 Z M 19.476562 8.800781 "/>
</svg>
