<?xml version="1.0" encoding="UTF-8"?>
<svg xmlns="http://www.w3.org/2000/svg" xmlns:xlink="http://www.w3.org/1999/xlink" width="32" height="32" viewBox="0 0 32 32">
<path fill-rule="nonzero" fill="rgb(0%, 0%, 100%)" fill-opacity="1" stroke-width="1" stroke-linecap="butt" stroke-linejoin="miter" stroke="rgb(0%, 0%, 100%)" stroke-opacity="1" stroke-miterlimit="4" d="M 257.006836 681.953125 L 257.006836 665.952148 L 257.998047 649.951172 L 259.980469 633.950195 L 262.954102 617.949219 L 267.060547 602.939453 L 271.025391 587.929687 L 275.981445 573.061523 L 280.9375 559.042969 L 288.017578 544.033203 L 294.956055 531.005859 L 302.036133 516.987305 L 310.957031 503.959961 L 319.02832 492.06543 L 328.94043 480.029297 L 338.994141 467.993164 L 350.039062 456.948242 L 360.942383 447.036133 L 371.987305 436.982422 L 384.023437 427.070312 L 397.050781 418.007812 L 408.945312 409.936523 L 422.963867 402.006836 L 436.982422 395.068359 L 450.009766 388.979492 L 465.019531 383.032227 L 480.029297 377.93457 L 495.039062 373.969727 L 511.040039 370.004883 L 526.049805 367.03125 L 542.050781 365.048828 L 558.051758 364.057617 L 591.044922 364.057617 L 607.045898 365.048828 L 623.046875 367.03125 L 639.047852 370.004883 L 654.057617 372.978516 L 670.058594 377.93457 L 683.935547 383.032227 L 698.945312 387.988281 L 712.963867 395.068359 L 726.982422 401.015625 L 740.009766 408.945312 L 753.037109 417.016602 L 766.064453 425.9375 L 777.958984 435.991211 L 789.003906 445.053711 L 801.040039 455.957031 L 810.952148 467.001953 L 821.005859 478.046875 L 831.05957 489.941406 L 839.980469 502.96875 L 848.051758 515.996094 L 855.981445 529.023437 L 863.061523 543.041992 L 869.008789 557.060547 L 874.956055 570.9375 L 880.053711 585.947266 L 887.983398 615.966797 L 890.957031 631.967773 L 892.939453 647.96875 L 893.930664 663.969727 L 895.063477 679.970703 L 893.930664 696.962891 L 892.939453 712.963867 L 890.957031 728.964844 L 887.983398 743.974609 L 885.009766 759.975586 L 881.044922 774.985352 L 875.947266 789.995117 L 864.052734 818.032227 L 856.972656 832.050781 L 849.042969 844.936523 L 840.97168 857.963867 L 832.050781 870.991211 L 822.988281 883.027344 L 811.943359 893.930664 L 802.03125 904.975586 L 790.986328 916.020508 L 778.950195 925.932617 L 767.055664 934.995117 L 755.019531 944.057617 L 741.992187 952.978516 L 727.973633 960.058594 L 714.946289 966.99707 L 701.069336 973.935547 L 686.05957 979.033203 L 656.040039 988.945312 L 641.030273 992.060547 L 625.029297 995.03418 L 609.02832 997.016602 L 577.026367 998.999023 L 560.03418 998.999023 L 544.033203 998.007812 L 528.032227 996.025391 L 512.03125 993.051758 L 497.021484 988.945312 L 482.011719 984.980469 L 467.001953 980.024414 L 452.983398 975.068359 L 437.973633 967.988281 L 423.955078 961.049805 L 411.069336 952.978516 L 398.041992 945.048828 L 385.014648 936.977539 L 372.978516 927.06543 L 361.933594 917.011719 L 351.030273 906.958008 L 339.985352 896.054687 L 329.931641 884.018555 L 321.010742 871.982422 L 311.948242 859.946289 L 303.027344 847.060547 L 295.947266 834.033203 L 288.017578 820.014648 L 282.070312 805.996094 L 275.981445 790.986328 L 271.025391 776.967773 L 267.060547 761.958008 L 262.954102 745.957031 L 259.980469 730.947266 L 257.998047 714.946289 L 257.006836 697.954102 Z M 334.038086 692.998047 L 335.029297 705.03418 L 337.011719 717.070312 L 338.994141 728.964844 L 341.967773 740.009766 L 344.941406 752.045898 L 348.056641 762.949219 L 357.96875 785.039062 L 363.066406 794.951172 L 374.960937 815.058594 L 382.041016 823.979492 L 388.979492 833.041992 L 396.05957 841.962891 L 403.989258 851.025391 L 413.051758 858.955078 L 421.972656 866.035156 L 430.043945 872.973633 L 439.956055 880.053711 L 460.063477 891.948242 L 469.975586 898.037109 L 481.020508 902.001953 L 492.06543 906.958008 L 502.96875 911.064453 L 514.013672 914.038086 L 526.049805 917.011719 L 537.944336 918.994141 L 562.016602 920.976562 L 575.043945 921.967773 L 586.938477 920.976562 L 599.96582 919.985352 L 612.001953 918.994141 L 623.046875 917.011719 L 634.941406 914.038086 L 646.977539 911.064453 L 658.022461 906.958008 L 669.067383 902.993164 L 679.970703 898.037109 L 690.024414 892.939453 L 699.936523 886.992187 L 709.990234 881.044922 L 719.052734 873.964844 L 727.973633 867.026367 L 737.036133 859.946289 L 745.957031 852.016602 L 754.02832 843.945312 L 760.966797 835.024414 L 769.038086 825.961914 L 775.976562 816.049805 L 782.06543 806.987305 L 788.012695 796.933594 L 792.96875 786.030273 L 798.066406 775.976562 L 802.03125 764.931641 L 805.996094 754.02832 L 808.969727 741.992187 L 811.943359 730.947266 L 814.067383 719.052734 L 816.049805 707.016602 L 817.041016 694.980469 L 817.041016 670.058594 L 815.058594 645.986328 L 811.943359 633.950195 L 809.960937 622.055664 L 806.987305 611.010742 L 803.022461 598.974609 L 799.057617 589.0625 L 793.959961 578.017578 L 789.003906 567.963867 L 783.056641 558.051758 L 775.976562 547.998047 L 770.029297 537.944336 L 761.958008 529.023437 L 755.019531 519.960937 L 746.948242 512.03125 L 739.018555 503.959961 L 729.956055 496.030273 L 721.035156 488.950195 L 710.981445 482.011719 L 702.060547 476.064453 L 692.006836 469.975586 L 680.961914 465.019531 L 671.049805 460.063477 L 660.004883 455.957031 L 647.96875 451.992187 L 637.06543 449.018555 L 625.029297 446.044922 L 612.993164 444.0625 L 600.957031 441.938477 L 589.0625 440.947266 L 563.999023 440.947266 L 551.962891 441.938477 L 540.068359 444.0625 L 515.996094 448.027344 L 504.951172 451.992187 L 493.056641 454.96582 L 483.00293 458.930664 L 471.958008 464.02832 L 461.054687 469.975586 L 451.000977 474.931641 L 440.947266 482.011719 L 432.026367 487.958984 L 422.963867 495.039062 L 414.042969 502.96875 L 398.041992 518.969727 L 389.970703 528.032227 L 383.032227 536.953125 L 375.952148 546.015625 L 370.004883 556.069336 L 364.057617 565.981445 L 357.96875 576.035156 L 353.012695 586.938477 L 349.047852 597.983398 L 344.941406 609.02832 L 341.967773 619.931641 L 338.994141 631.967773 L 335.029297 656.040039 L 335.029297 667.93457 L 334.038086 679.970703 Z M 334.038086 692.998047 " transform="matrix(0.0275862, 0, 0, 0.0275862, 0, 0)"/>
<path fill-rule="nonzero" fill="rgb(0%, 0%, 100%)" fill-opacity="1" stroke-width="1" stroke-linecap="butt" stroke-linejoin="miter" stroke="rgb(0%, 0%, 100%)" stroke-opacity="1" stroke-miterlimit="4" d="M 372.978516 455.957031 L 547.006836 145 L 596.992187 173.037109 L 423.955078 483.994141 Z M 372.978516 455.957031 " transform="matrix(0.0275862, 0, 0, 0.0275862, 0, 0)"/>
<path fill-rule="nonzero" fill="rgb(0%, 0%, 100%)" fill-opacity="1" stroke-width="1" stroke-linecap="butt" stroke-linejoin="miter" stroke="rgb(0%, 0%, 100%)" stroke-opacity="1" stroke-miterlimit="4" d="M 648.959961 379.067383 L 773.994141 146.982422 L 824.970703 175.019531 L 698.945312 405.97168 Z M 648.959961 379.067383 " transform="matrix(0.0275862, 0, 0, 0.0275862, 0, 0)"/>
<path fill-rule="nonzero" fill="rgb(0%, 0%, 100%)" fill-opacity="1" stroke-width="1" stroke-linecap="butt" stroke-linejoin="miter" stroke="rgb(0%, 0%, 100%)" stroke-opacity="1" stroke-miterlimit="4" d="M 531.99707 379.067383 L 657.03125 146.982422 L 708.007812 175.019531 L 582.973633 405.97168 Z M 531.99707 379.067383 " transform="matrix(0.0275862, 0, 0, 0.0275862, 0, 0)"/>
</svg>
