<?xml version="1.0" encoding="UTF-8"?>

<svg version="1.2" width="150px" height="150px" viewBox="0 0 1160 1160" xmlns="http://www.w3.org/2000/svg" xmlns:xlink="http://www.w3.org/1999/xlink">
 <g visibility="visible" id="MasterSlide_1_Standard">
  <g id="Drawing_1">
  <path fill="rgb(0,0,255)" stroke="rgb(0,0,255)" d="M 497,313 L 56,557 36,522 478,278 Z"/>
  <path fill="rgb(0,0,255)" stroke="rgb(0,0,255)" d="M 950,450 L 469,317 481,278 961,411 Z"/>
  <path fill="rgb(0,0,255)" stroke="rgb(0,0,255)" d="M 1085,607 L 615,978 589,946 1060,575 Z"/>
  <path fill="rgb(0,0,255)" stroke="rgb(0,0,255)" d="M 1070,615 L 929,435 961,410 1102,590 Z"/>
  <path fill="rgb(0,0,255)" stroke="rgb(0,0,255)" d="M 568,250 L 584,224 733,476 702,476 850,224 866,250 568,250 Z M 897,215 L 717,520 537,215 897,215 Z"/>
  <path fill="rgb(0,0,255)" stroke="rgb(0,0,255)" d="M 77,512 L 248,781 213,803 43,534 Z"/>
  <path fill="rgb(0,0,255)" stroke="rgb(0,0,255)" d="M 616,979 L 425,912 439,873 629,940 Z"/>
  <path fill="rgb(0,0,255)" stroke="rgb(0,0,255)" d="M 172,909 L 397,653 427,680 203,935 Z"/>
  <path fill="rgb(0,0,255)" stroke="rgb(0,0,255)" d="M 236,969 L 460,713 490,739 266,995 Z"/>
  <path fill="rgb(0,0,255)" stroke="rgb(0,0,255)" d="M 466,705 L 551,780 524,810 439,735 Z"/>
  <path fill="rgb(0,0,255)" stroke="rgb(0,0,255)" d="M 345,602 L 430,677 403,707 318,632 Z"/>
  <path fill="rgb(0,0,255)" stroke="rgb(0,0,255)" d="M 258,945 L 343,1020 316,1050 231,975 Z"/>
  <path fill="rgb(0,0,255)" stroke="rgb(0,0,255)" d="M 137,839 L 222,914 195,944 110,869 Z"/>
  </g>
 </g>
</svg>