<?xml version="1.0" encoding="UTF-8"?>

<svg version="1.2" width="150px" height="150px" viewBox="0 0 1160 1160" xmlns="http://www.w3.org/2000/svg" xmlns:xlink="http://www.w3.org/1999/xlink">
 <g visibility="visible" id="MasterSlide_1_Standard">
  <g id="DrawingGroup_1">
   <g>
   <path fill="rgb(0,0,0)" stroke="none" d="M 575,169 L 575,169 C 572,169 569,170 566,170 562,170 558,170 555,170 551,170 547,171 543,171 538,171 534,172 530,172 525,172 520,173 516,173 511,173 506,174 502,174 492,175 482,176 472,177 462,178 452,180 442,181 432,182 422,184 412,185 407,186 402,186 398,187 393,188 389,189 385,190 381,191 377,191 373,192 369,193 365,194 361,195 355,197 349,198 343,200 336,202 330,205 324,207 317,209 311,212 305,214 298,216 292,218 286,220 282,221 279,222 276,223 272,224 269,225 266,226 263,227 260,228 257,229 255,230 254,230 253,231 252,232 251,232 250,233 225,250 200,267 175,284 176,283 177,282 178,281 153,320 127,359 102,398 100,401 97,404 95,408 92,411 90,414 87,418 85,421 83,424 81,427 80,428 80,429 79,431 78,432 78,433 77,435 69,461 60,487 52,513 52,511 53,510 53,509 53,513 54,517 54,522 55,526 55,530 56,534 56,537 57,541 57,545 57,548 58,551 58,555 58,558 59,561 59,565 59,568 60,571 60,574 61,579 61,585 62,591 63,596 64,601 65,606 66,612 67,618 68,623 69,626 69,629 70,631 71,635 71,638 72,641 73,645 74,648 75,651 76,655 77,659 78,662 80,669 81,676 83,682 85,689 86,696 88,703 89,706 90,709 91,712 92,715 93,718 94,721 95,724 97,727 98,730 99,733 101,735 102,737 104,741 106,744 108,747 110,751 112,755 114,759 118,766 121,773 125,780 127,784 128,787 130,790 132,793 134,796 136,799 138,802 141,805 143,807 142,807 142,806 141,805 144,808 147,810 150,812 188,838 226,864 264,890 267,893 270,895 273,897 276,900 279,903 283,905 285,907 288,909 291,911 292,912 293,912 295,913 296,914 297,914 299,915 337,928 375,941 413,954 425,958 438,962 451,966 457,969 463,971 470,974 473,975 476,976 479,977 482,978 485,979 488,980 509,984 530,988 551,992 550,992 549,992 548,992 559,991 571,990 583,989 594,988 606,988 617,987 629,986 641,985 652,984 658,983 664,983 669,982 675,981 681,980 686,979 689,978 692,978 695,977 698,976 701,976 704,975 710,973 716,970 722,968 729,966 735,963 741,961 748,959 754,956 760,954 763,953 766,951 769,950 773,949 776,948 779,947 782,946 785,944 788,943 792,942 796,941 799,940 809,938 818,937 827,935 837,933 847,931 856,929 866,927 876,924 885,922 895,919 904,917 913,914 920,912 926,911 932,909 939,907 946,906 952,904 955,903 958,902 961,901 964,900 967,899 970,898 973,897 976,896 978,894 981,893 983,892 986,890 998,882 1011,873 1023,864 1022,865 1021,866 1020,867 1037,841 1054,815 1071,789 1073,786 1076,783 1078,779 1081,776 1083,773 1086,769 1088,766 1090,763 1092,760 1093,759 1093,758 1094,756 1095,755 1095,754 1096,752 1100,739 1104,726 1108,713 1108,715 1108,717 1108,718 1108,715 1107,712 1107,708 1107,705 1106,702 1106,698 1105,692 1105,686 1104,680 1104,675 1103,670 1103,664 1103,660 1103,656 1103,651 1103,647 1102,643 1102,638 1102,635 1101,631 1101,627 1101,624 1100,621 1100,617 1100,614 1099,611 1099,608 1099,602 1098,596 1098,591 1097,588 1097,585 1096,583 1095,579 1095,576 1094,573 1093,569 1093,566 1092,563 1091,559 1090,555 1089,552 1088,547 1087,543 1086,539 1085,534 1084,530 1083,526 1081,519 1079,512 1077,505 1076,502 1075,499 1074,496 1073,493 1071,490 1070,488 1068,484 1067,480 1065,477 1063,473 1062,469 1060,466 1059,461 1057,457 1056,453 1054,449 1053,446 1051,443 1049,439 1047,436 1045,433 1043,430 1041,427 1039,424 1039,424 1040,425 1040,426 1037,423 1035,421 1032,419 1033,419 1033,419 1034,420 1032,419 1031,418 1029,417 1028,416 1026,415 1025,415 1013,411 1000,407 988,403 L 988,403 C 985,401 982,399 981,396 L 981,396 C 980,393 979,390 978,387 978,384 977,382 976,380 976,377 975,375 974,373 974,371 973,369 972,368 972,366 972,365 971,364 971,362 971,361 970,360 970,359 970,358 970,358 970,357 970,356 969,356 969,355 969,355 969,355 L 969,355 C 969,354 968,354 968,353 L 968,353 C 968,352 968,352 968,352 974,354 980,356 986,359 L 986,359 C 987,356 988,353 989,350 989,350 989,351 989,352 989,353 989,354 989,355 989,356 989,357 989,359 L 989,359 C 988,360 988,361 987,362 987,362 986,363 986,364 L 986,364 C 985,366 984,368 981,369 980,369 980,369 979,370 L 979,370 C 977,371 975,371 972,370 971,369 970,369 969,369 L 969,369 C 968,369 968,369 967,369 967,368 966,368 965,368 L 965,368 C 964,368 964,367 963,367 L 963,367 C 963,366 962,365 961,365 960,364 959,363 957,362 956,360 955,359 953,358 952,356 950,355 948,354 947,352 946,350 944,348 943,346 941,344 939,342 937,339 935,336 932,334 L 932,334 C 932,333 932,333 932,333 931,331 930,330 929,329 L 929,329 C 929,328 928,327 928,326 928,324 927,323 926,322 L 926,322 C 926,321 926,321 926,320 L 926,320 C 926,316 926,312 925,309 925,307 925,305 924,304 924,302 923,301 922,300 922,299 922,298 921,297 922,297 922,298 922,299 922,297 921,296 920,295 920,295 920,295 920,296 917,293 914,290 911,287 909,285 906,282 903,280 900,278 897,275 894,273 892,271 889,269 886,267 884,265 881,263 878,261 875,259 872,258 869,256 864,253 858,251 852,248 846,246 840,243 834,241 828,239 822,237 816,235 809,233 802,230 795,228 788,226 781,223 773,221 771,220 769,220 766,219 765,218 763,218 761,217 758,216 755,214 751,213 749,212 746,211 743,210 741,209 739,209 737,208 736,208 734,207 732,207 731,206 730,206 728,205 725,204 722,204 719,203 718,203 717,202 715,202 714,201 712,201 710,200 708,200 706,199 703,199 700,198 697,198 694,197 693,197 691,196 689,196 687,195 685,195 683,194 681,194 679,193 677,193 675,192 673,192 670,191 668,190 665,190 662,189 660,188 657,188 654,187 651,186 648,186 644,185 641,184 638,183 634,182 631,181 628,180 625,179 623,178 620,178 617,177 615,176 613,176 611,175 610,174 609,174 607,173 606,173 604,172 602,172 602,171 601,171 600,170 600,170 599,169 598,169 598,169 597,168 596,168 597,168 598,169 598,169 598,169 597,168 596,168 597,168 598,168 598,168 598,168 597,168 596,168 596,168 596,168 595,168 594,168 594,168 593,168 591,168 590,168 589,168 587,168 585,169 583,169 580,169 577,169 575,169 Z M 581,148 L 581,148 C 583,148 585,147 588,147 589,147 590,147 592,147 593,147 595,147 596,147 597,147 598,147 599,147 600,147 601,148 601,148 L 601,148 C 602,148 602,148 603,148 604,148 605,149 605,149 L 605,149 C 606,149 607,149 607,150 L 607,150 C 608,150 608,150 608,150 609,150 610,151 610,151 611,151 612,152 612,152 613,152 614,153 614,153 616,154 617,154 618,155 620,156 622,156 623,157 626,158 628,158 630,159 634,160 637,160 640,161 643,162 646,163 649,164 653,165 656,165 659,166 662,167 665,167 668,168 671,169 673,169 675,170 678,171 680,171 682,172 684,173 686,173 688,174 690,174 692,175 694,175 696,176 698,176 699,177 702,177 705,178 708,178 711,179 713,179 715,180 717,180 719,181 720,181 722,182 724,182 725,183 728,184 731,184 734,185 736,185 737,186 738,186 740,187 742,187 744,188 746,189 748,190 750,191 753,192 756,192 758,193 761,194 764,195 767,196 769,197 771,197 773,198 775,199 777,199 779,200 787,203 795,205 802,208 809,210 816,212 822,214 829,216 836,219 842,221 849,224 855,226 861,229 868,232 874,235 880,238 883,240 886,241 889,243 892,245 895,248 898,250 902,252 905,254 908,256 911,259 914,261 917,264 920,267 923,269 926,272 929,275 932,278 935,281 L 935,281 C 936,281 936,282 937,282 938,283 939,285 939,286 L 939,286 C 940,287 940,288 941,289 L 941,289 C 942,291 943,293 943,295 944,297 944,299 944,301 945,302 945,304 945,306 946,309 947,313 947,317 947,316 947,315 947,315 948,316 948,318 948,320 948,319 948,318 947,318 948,319 949,320 950,322 950,321 950,321 949,321 951,323 953,325 955,328 957,330 959,332 960,334 962,335 963,337 964,339 965,340 966,341 967,343 969,344 970,345 971,346 972,346 973,347 973,348 974,348 975,349 976,350 976,349 975,349 974,349 975,349 976,349 977,350 976,349 975,349 974,349 976,349 977,349 978,350 976,350 974,350 971,350 972,350 973,350 973,350 972,351 970,352 968,354 969,353 969,352 969,352 969,353 969,354 968,355 968,354 968,354 968,354 968,353 968,353 968,353 968,352 968,352 968,352 L 968,352 C 968,349 969,346 971,344 L 971,344 971,344 C 974,340 978,340 982,341 986,342 989,345 989,350 L 989,350 989,350 C 989,349 989,348 989,348 989,348 990,349 990,350 990,350 990,351 990,352 990,352 991,353 991,354 991,355 991,356 991,358 992,359 992,360 993,362 994,363 994,365 995,367 995,369 996,371 996,373 997,375 998,378 999,381 1000,383 1000,386 1001,389 999,386 997,384 995,382 1008,386 1021,391 1034,396 1036,397 1038,398 1040,399 1042,400 1043,401 1045,402 L 1045,402 C 1046,402 1046,402 1047,403 1050,405 1052,407 1055,410 L 1055,410 C 1055,411 1056,411 1056,412 L 1056,412 C 1059,415 1061,418 1064,422 1066,426 1068,430 1070,434 1072,438 1073,442 1075,446 1076,449 1078,453 1079,457 1081,460 1082,464 1084,468 1086,471 1088,475 1090,479 1091,482 1093,486 1094,490 1095,493 1097,496 1098,500 1100,506 1101,513 1103,520 1104,524 1106,529 1107,534 1108,538 1109,542 1110,547 1111,551 1112,555 1113,559 1114,562 1114,565 1115,569 1116,572 1116,575 1117,579 1117,582 1118,585 1118,589 1119,595 1120,600 1121,606 1121,610 1122,613 1122,616 1122,620 1122,623 1122,626 1122,630 1123,634 1123,637 1123,641 1124,645 1124,649 1124,654 1125,659 1125,663 1125,668 1126,673 1126,678 1126,684 1127,690 1127,696 1127,699 1128,702 1128,705 1128,709 1129,713 1129,716 L 1129,716 C 1129,717 1129,718 1128,720 L 1128,720 C 1124,734 1119,747 1115,760 1114,762 1113,764 1112,766 1111,768 1110,770 1109,772 1107,776 1105,779 1103,782 1100,785 1098,788 1095,791 1093,794 1091,797 1089,800 1072,826 1055,852 1038,878 L 1038,878 C 1037,880 1037,881 1035,881 L 1035,881 C 1022,890 1010,899 997,908 994,910 990,912 987,914 984,915 980,917 977,918 974,919 971,921 967,922 964,923 961,923 957,924 951,926 945,928 938,930 932,932 925,933 918,935 909,937 900,940 890,942 880,944 870,947 860,949 851,951 842,954 832,956 823,958 814,959 804,961 801,962 798,962 795,963 792,964 789,965 786,966 783,967 780,969 776,970 773,971 770,973 767,974 761,976 755,978 748,980 742,983 736,985 729,988 723,990 717,993 710,995 707,996 704,997 700,998 697,999 693,999 689,1000 683,1001 677,1002 671,1003 666,1004 660,1004 654,1005 643,1006 631,1007 619,1008 608,1009 596,1010 585,1011 573,1012 561,1012 550,1013 L 550,1013 C 549,1013 548,1013 547,1013 L 547,1013 C 525,1009 504,1004 483,1000 479,999 475,998 472,997 469,996 466,995 463,994 456,992 450,989 444,987 431,983 418,978 406,974 368,961 330,947 292,934 289,933 287,933 285,932 283,931 281,929 279,928 275,926 272,923 269,921 266,919 263,916 261,914 258,912 255,909 252,907 213,881 175,855 137,829 134,827 131,824 128,821 L 128,821 C 128,821 127,821 127,821 L 127,821 C 124,818 121,815 118,811 116,808 114,804 112,800 110,797 108,794 106,790 102,783 99,776 95,768 93,765 92,762 90,758 88,755 86,752 84,748 82,745 80,742 78,738 77,735 75,732 74,728 73,725 71,722 70,718 69,715 68,712 67,708 65,701 64,694 62,687 60,681 59,674 57,667 56,664 55,660 54,656 53,653 52,650 51,646 50,643 50,640 49,636 48,633 48,630 47,627 46,621 44,615 43,609 42,604 42,598 41,593 40,587 40,581 39,576 39,573 38,570 38,567 38,564 37,561 37,558 37,554 36,550 36,547 36,543 35,539 35,536 34,532 34,528 33,524 33,519 32,515 32,511 L 32,511 C 32,509 32,508 32,506 L 32,506 C 41,480 49,454 58,428 59,425 59,423 60,421 61,419 63,417 64,415 66,411 68,408 70,405 72,402 75,399 77,396 79,393 82,390 84,387 109,348 135,309 160,270 L 160,270 C 161,269 162,268 163,267 L 163,267 C 188,249 213,232 239,214 241,213 243,212 245,211 247,210 249,210 251,209 254,208 257,206 261,205 264,204 267,204 270,203 273,202 276,201 279,200 285,198 291,196 298,194 304,192 310,189 317,187 323,185 330,182 337,180 343,178 349,176 356,174 360,173 364,173 368,172 372,171 376,170 381,169 385,168 390,168 395,167 399,166 404,165 409,164 419,163 429,161 439,160 449,159 459,157 470,156 480,155 490,154 500,153 504,153 509,152 514,152 519,152 524,151 529,151 533,151 537,150 541,150 545,150 549,149 553,149 556,149 560,149 564,149 567,149 570,148 574,148 576,148 578,148 581,148 Z"/>
   <path fill="none" stroke="rgb(0,0,0)" id="Drawing_1_0" d="M 575,169 L 575,169 C 572,169 569,170 566,170 562,170 558,170 555,170 551,170 547,171 543,171 538,171 534,172 530,172 525,172 520,173 516,173 511,173 506,174 502,174 492,175 482,176 472,177 462,178 452,180 442,181 432,182 422,184 412,185 407,186 402,186 398,187 393,188 389,189 385,190 381,191 377,191 373,192 369,193 365,194 361,195 355,197 349,198 343,200 336,202 330,205 324,207 317,209 311,212 305,214 298,216 292,218 286,220 282,221 279,222 276,223 272,224 269,225 266,226 263,227 260,228 257,229 255,230 254,230 253,231 252,232 251,232 250,233 225,250 200,267 175,284 176,283 177,282 178,281 153,320 127,359 102,398 100,401 97,404 95,408 92,411 90,414 87,418 85,421 83,424 81,427 80,428 80,429 79,431 78,432 78,433 77,435 69,461 60,487 52,513 52,511 53,510 53,509 53,513 54,517 54,522 55,526 55,530 56,534 56,537 57,541 57,545 57,548 58,551 58,555 58,558 59,561 59,565 59,568 60,571 60,574 61,579 61,585 62,591 63,596 64,601 65,606 66,612 67,618 68,623 69,626 69,629 70,631 71,635 71,638 72,641 73,645 74,648 75,651 76,655 77,659 78,662 80,669 81,676 83,682 85,689 86,696 88,703 89,706 90,709 91,712 92,715 93,718 94,721 95,724 97,727 98,730 99,733 101,735 102,737 104,741 106,744 108,747 110,751 112,755 114,759 118,766 121,773 125,780 127,784 128,787 130,790 132,793 134,796 136,799 138,802 141,805 143,807 142,807 142,806 141,805 144,808 147,810 150,812 188,838 226,864 264,890 267,893 270,895 273,897 276,900 279,903 283,905 285,907 288,909 291,911 292,912 293,912 295,913 296,914 297,914 299,915 337,928 375,941 413,954 425,958 438,962 451,966 457,969 463,971 470,974 473,975 476,976 479,977 482,978 485,979 488,980 509,984 530,988 551,992 550,992 549,992 548,992 559,991 571,990 583,989 594,988 606,988 617,987 629,986 641,985 652,984 658,983 664,983 669,982 675,981 681,980 686,979 689,978 692,978 695,977 698,976 701,976 704,975 710,973 716,970 722,968 729,966 735,963 741,961 748,959 754,956 760,954 763,953 766,951 769,950 773,949 776,948 779,947 782,946 785,944 788,943 792,942 796,941 799,940 809,938 818,937 827,935 837,933 847,931 856,929 866,927 876,924 885,922 895,919 904,917 913,914 920,912 926,911 932,909 939,907 946,906 952,904 955,903 958,902 961,901 964,900 967,899 970,898 973,897 976,896 978,894 981,893 983,892 986,890 998,882 1011,873 1023,864 1022,865 1021,866 1020,867 1037,841 1054,815 1071,789 1073,786 1076,783 1078,779 1081,776 1083,773 1086,769 1088,766 1090,763 1092,760 1093,759 1093,758 1094,756 1095,755 1095,754 1096,752 1100,739 1104,726 1108,713 1108,715 1108,717 1108,718 1108,715 1107,712 1107,708 1107,705 1106,702 1106,698 1105,692 1105,686 1104,680 1104,675 1103,670 1103,664 1103,660 1103,656 1103,651 1103,647 1102,643 1102,638 1102,635 1101,631 1101,627 1101,624 1100,621 1100,617 1100,614 1099,611 1099,608 1099,602 1098,596 1098,591 1097,588 1097,585 1096,583 1095,579 1095,576 1094,573 1093,569 1093,566 1092,563 1091,559 1090,555 1089,552 1088,547 1087,543 1086,539 1085,534 1084,530 1083,526 1081,519 1079,512 1077,505 1076,502 1075,499 1074,496 1073,493 1071,490 1070,488 1068,484 1067,480 1065,477 1063,473 1062,469 1060,466 1059,461 1057,457 1056,453 1054,449 1053,446 1051,443 1049,439 1047,436 1045,433 1043,430 1041,427 1039,424 1039,424 1040,425 1040,426 1037,423 1035,421 1032,419 1033,419 1033,419 1034,420 1032,419 1031,418 1029,417 1028,416 1026,415 1025,415 1013,411 1000,407 988,403 L 988,403 C 985,401 982,399 981,396 L 981,396 C 980,393 979,390 978,387 978,384 977,382 976,380 976,377 975,375 974,373 974,371 973,369 972,368 972,366 972,365 971,364 971,362 971,361 970,360 970,359 970,358 970,358 970,357 970,356 969,356 969,355 969,355 969,355 L 969,355 C 969,354 968,354 968,353 L 968,353 C 968,352 968,352 968,352 974,354 980,356 986,359 L 986,359 C 987,356 988,353 989,350 989,350 989,351 989,352 989,353 989,354 989,355 989,356 989,357 989,359 L 989,359 C 988,360 988,361 987,362 987,362 986,363 986,364 L 986,364 C 985,366 984,368 981,369 980,369 980,369 979,370 L 979,370 C 977,371 975,371 972,370 971,369 970,369 969,369 L 969,369 C 968,369 968,369 967,369 967,368 966,368 965,368 L 965,368 C 964,368 964,367 963,367 L 963,367 C 963,366 962,365 961,365 960,364 959,363 957,362 956,360 955,359 953,358 952,356 950,355 948,354 947,352 946,350 944,348 943,346 941,344 939,342 937,339 935,336 932,334 L 932,334 C 932,333 932,333 932,333 931,331 930,330 929,329 L 929,329 C 929,328 928,327 928,326 928,324 927,323 926,322 L 926,322 C 926,321 926,321 926,320 L 926,320 C 926,316 926,312 925,309 925,307 925,305 924,304 924,302 923,301 922,300 922,299 922,298 921,297 922,297 922,298 922,299 922,297 921,296 920,295 920,295 920,295 920,296 917,293 914,290 911,287 909,285 906,282 903,280 900,278 897,275 894,273 892,271 889,269 886,267 884,265 881,263 878,261 875,259 872,258 869,256 864,253 858,251 852,248 846,246 840,243 834,241 828,239 822,237 816,235 809,233 802,230 795,228 788,226 781,223 773,221 771,220 769,220 766,219 765,218 763,218 761,217 758,216 755,214 751,213 749,212 746,211 743,210 741,209 739,209 737,208 736,208 734,207 732,207 731,206 730,206 728,205 725,204 722,204 719,203 718,203 717,202 715,202 714,201 712,201 710,200 708,200 706,199 703,199 700,198 697,198 694,197 693,197 691,196 689,196 687,195 685,195 683,194 681,194 679,193 677,193 675,192 673,192 670,191 668,190 665,190 662,189 660,188 657,188 654,187 651,186 648,186 644,185 641,184 638,183 634,182 631,181 628,180 625,179 623,178 620,178 617,177 615,176 613,176 611,175 610,174 609,174 607,173 606,173 604,172 602,172 602,171 601,171 600,170 600,170 599,169 598,169 598,169 597,168 596,168 597,168 598,169 598,169 598,169 597,168 596,168 597,168 598,168 598,168 598,168 597,168 596,168 596,168 596,168 595,168 594,168 594,168 593,168 591,168 590,168 589,168 587,168 585,169 583,169 580,169 577,169 575,169 Z"/>
   <path fill="none" stroke="rgb(0,0,0)" id="Drawing_1_1" d="M 581,148 L 581,148 C 583,148 585,147 588,147 589,147 590,147 592,147 593,147 595,147 596,147 597,147 598,147 599,147 600,147 601,148 601,148 L 601,148 C 602,148 602,148 603,148 604,148 605,149 605,149 L 605,149 C 606,149 607,149 607,150 L 607,150 C 608,150 608,150 608,150 609,150 610,151 610,151 611,151 612,152 612,152 613,152 614,153 614,153 616,154 617,154 618,155 620,156 622,156 623,157 626,158 628,158 630,159 634,160 637,160 640,161 643,162 646,163 649,164 653,165 656,165 659,166 662,167 665,167 668,168 671,169 673,169 675,170 678,171 680,171 682,172 684,173 686,173 688,174 690,174 692,175 694,175 696,176 698,176 699,177 702,177 705,178 708,178 711,179 713,179 715,180 717,180 719,181 720,181 722,182 724,182 725,183 728,184 731,184 734,185 736,185 737,186 738,186 740,187 742,187 744,188 746,189 748,190 750,191 753,192 756,192 758,193 761,194 764,195 767,196 769,197 771,197 773,198 775,199 777,199 779,200 787,203 795,205 802,208 809,210 816,212 822,214 829,216 836,219 842,221 849,224 855,226 861,229 868,232 874,235 880,238 883,240 886,241 889,243 892,245 895,248 898,250 902,252 905,254 908,256 911,259 914,261 917,264 920,267 923,269 926,272 929,275 932,278 935,281 L 935,281 C 936,281 936,282 937,282 938,283 939,285 939,286 L 939,286 C 940,287 940,288 941,289 L 941,289 C 942,291 943,293 943,295 944,297 944,299 944,301 945,302 945,304 945,306 946,309 947,313 947,317 947,316 947,315 947,315 948,316 948,318 948,320 948,319 948,318 947,318 948,319 949,320 950,322 950,321 950,321 949,321 951,323 953,325 955,328 957,330 959,332 960,334 962,335 963,337 964,339 965,340 966,341 967,343 969,344 970,345 971,346 972,346 973,347 973,348 974,348 975,349 976,350 976,349 975,349 974,349 975,349 976,349 977,350 976,349 975,349 974,349 976,349 977,349 978,350 976,350 974,350 971,350 972,350 973,350 973,350 972,351 970,352 968,354 969,353 969,352 969,352 969,353 969,354 968,355 968,354 968,354 968,354 968,353 968,353 968,353 968,352 968,352 968,352 L 968,352 C 968,349 969,346 971,344 L 971,344 971,344 C 974,340 978,340 982,341 986,342 989,345 989,350 L 989,350 989,350 C 989,349 989,348 989,348 989,348 990,349 990,350 990,350 990,351 990,352 990,352 991,353 991,354 991,355 991,356 991,358 992,359 992,360 993,362 994,363 994,365 995,367 995,369 996,371 996,373 997,375 998,378 999,381 1000,383 1000,386 1001,389 999,386 997,384 995,382 1008,386 1021,391 1034,396 1036,397 1038,398 1040,399 1042,400 1043,401 1045,402 L 1045,402 C 1046,402 1046,402 1047,403 1050,405 1052,407 1055,410 L 1055,410 C 1055,411 1056,411 1056,412 L 1056,412 C 1059,415 1061,418 1064,422 1066,426 1068,430 1070,434 1072,438 1073,442 1075,446 1076,449 1078,453 1079,457 1081,460 1082,464 1084,468 1086,471 1088,475 1090,479 1091,482 1093,486 1094,490 1095,493 1097,496 1098,500 1100,506 1101,513 1103,520 1104,524 1106,529 1107,534 1108,538 1109,542 1110,547 1111,551 1112,555 1113,559 1114,562 1114,565 1115,569 1116,572 1116,575 1117,579 1117,582 1118,585 1118,589 1119,595 1120,600 1121,606 1121,610 1122,613 1122,616 1122,620 1122,623 1122,626 1122,630 1123,634 1123,637 1123,641 1124,645 1124,649 1124,654 1125,659 1125,663 1125,668 1126,673 1126,678 1126,684 1127,690 1127,696 1127,699 1128,702 1128,705 1128,709 1129,713 1129,716 L 1129,716 C 1129,717 1129,718 1128,720 L 1128,720 C 1124,734 1119,747 1115,760 1114,762 1113,764 1112,766 1111,768 1110,770 1109,772 1107,776 1105,779 1103,782 1100,785 1098,788 1095,791 1093,794 1091,797 1089,800 1072,826 1055,852 1038,878 L 1038,878 C 1037,880 1037,881 1035,881 L 1035,881 C 1022,890 1010,899 997,908 994,910 990,912 987,914 984,915 980,917 977,918 974,919 971,921 967,922 964,923 961,923 957,924 951,926 945,928 938,930 932,932 925,933 918,935 909,937 900,940 890,942 880,944 870,947 860,949 851,951 842,954 832,956 823,958 814,959 804,961 801,962 798,962 795,963 792,964 789,965 786,966 783,967 780,969 776,970 773,971 770,973 767,974 761,976 755,978 748,980 742,983 736,985 729,988 723,990 717,993 710,995 707,996 704,997 700,998 697,999 693,999 689,1000 683,1001 677,1002 671,1003 666,1004 660,1004 654,1005 643,1006 631,1007 619,1008 608,1009 596,1010 585,1011 573,1012 561,1012 550,1013 L 550,1013 C 549,1013 548,1013 547,1013 L 547,1013 C 525,1009 504,1004 483,1000 479,999 475,998 472,997 469,996 466,995 463,994 456,992 450,989 444,987 431,983 418,978 406,974 368,961 330,947 292,934 289,933 287,933 285,932 283,931 281,929 279,928 275,926 272,923 269,921 266,919 263,916 261,914 258,912 255,909 252,907 213,881 175,855 137,829 134,827 131,824 128,821 L 128,821 C 128,821 127,821 127,821 L 127,821 C 124,818 121,815 118,811 116,808 114,804 112,800 110,797 108,794 106,790 102,783 99,776 95,768 93,765 92,762 90,758 88,755 86,752 84,748 82,745 80,742 78,738 77,735 75,732 74,728 73,725 71,722 70,718 69,715 68,712 67,708 65,701 64,694 62,687 60,681 59,674 57,667 56,664 55,660 54,656 53,653 52,650 51,646 50,643 50,640 49,636 48,633 48,630 47,627 46,621 44,615 43,609 42,604 42,598 41,593 40,587 40,581 39,576 39,573 38,570 38,567 38,564 37,561 37,558 37,554 36,550 36,547 36,543 35,539 35,536 34,532 34,528 33,524 33,519 32,515 32,511 L 32,511 C 32,509 32,508 32,506 L 32,506 C 41,480 49,454 58,428 59,425 59,423 60,421 61,419 63,417 64,415 66,411 68,408 70,405 72,402 75,399 77,396 79,393 82,390 84,387 109,348 135,309 160,270 L 160,270 C 161,269 162,268 163,267 L 163,267 C 188,249 213,232 239,214 241,213 243,212 245,211 247,210 249,210 251,209 254,208 257,206 261,205 264,204 267,204 270,203 273,202 276,201 279,200 285,198 291,196 298,194 304,192 310,189 317,187 323,185 330,182 337,180 343,178 349,176 356,174 360,173 364,173 368,172 372,171 376,170 381,169 385,168 390,168 395,167 399,166 404,165 409,164 419,163 429,161 439,160 449,159 459,157 470,156 480,155 490,154 500,153 504,153 509,152 514,152 519,152 524,151 529,151 533,151 537,150 541,150 545,150 549,149 553,149 556,149 560,149 564,149 567,149 570,148 574,148 576,148 578,148 581,148 Z"/>
   </g>
   <g>
   <path fill="rgb(0,0,0)" stroke="none" d="M 276,211 C 201,302 127,393 52,484 50,482 49,481 47,480 122,389 196,298 271,207 272,208 274,210 276,211 Z"/>
   <path fill="none" stroke="rgb(0,0,0)" id="Drawing_2_0" d="M 276,211 C 201,302 127,393 52,484 50,482 49,481 47,480 122,389 196,298 271,207 272,208 274,210 276,211 Z"/>
   </g>
   <g>
   <path fill="rgb(0,0,0)" stroke="none" d="M 357,186 C 253,308 150,431 47,554 45,552 44,551 42,550 145,427 248,304 352,181 353,183 355,184 357,186 Z"/>
   <path fill="none" stroke="rgb(0,0,0)" id="Drawing_3_0" d="M 357,186 C 253,308 150,431 47,554 45,552 44,551 42,550 145,427 248,304 352,181 353,183 355,184 357,186 Z"/>
   </g>
   <g>
   <path fill="rgb(0,0,0)" stroke="none" d="M 434,169 C 307,321 181,473 55,624 53,623 52,622 50,620 176,469 302,317 429,165 430,166 432,168 434,169 Z"/>
   <path fill="none" stroke="rgb(0,0,0)" id="Drawing_4_0" d="M 434,169 C 307,321 181,473 55,624 53,623 52,622 50,620 176,469 302,317 429,165 430,166 432,168 434,169 Z"/>
   </g>
   <g>
   <path fill="rgb(0,0,0)" stroke="none" d="M 494,163 C 352,332 211,502 70,671 68,670 67,668 65,666 206,497 347,327 488,158 490,160 492,161 494,163 Z"/>
   <path fill="none" stroke="rgb(0,0,0)" id="Drawing_5_0" d="M 494,163 C 352,332 211,502 70,671 68,670 67,668 65,666 206,497 347,327 488,158 490,160 492,161 494,163 Z"/>
   </g>
   <g>
   <path fill="rgb(0,0,0)" stroke="none" d="M 662,179 C 487,390 311,602 135,813 133,812 132,811 130,809 306,598 482,386 657,175 659,176 661,178 662,179 Z"/>
   <path fill="none" stroke="rgb(0,0,0)" id="Drawing_6_0" d="M 662,179 C 487,390 311,602 135,813 133,812 132,811 130,809 306,598 482,386 657,175 659,176 661,178 662,179 Z"/>
   </g>
   <g>
   <path fill="rgb(0,0,0)" stroke="none" d="M 711,192 C 532,408 352,623 173,839 171,838 170,837 168,835 347,619 527,404 706,188 708,189 710,191 711,192 Z"/>
   <path fill="none" stroke="rgb(0,0,0)" id="Drawing_7_0" d="M 711,192 C 532,408 352,623 173,839 171,838 170,837 168,835 347,619 527,404 706,188 708,189 710,191 711,192 Z"/>
   </g>
   <g>
   <path fill="rgb(0,0,0)" stroke="none" d="M 557,156 C 399,345 241,534 84,723 82,722 81,721 79,719 236,530 394,341 552,152 553,153 555,155 557,156 Z"/>
   <path fill="none" stroke="rgb(0,0,0)" id="Drawing_8_0" d="M 557,156 C 399,345 241,534 84,723 82,722 81,721 79,719 236,530 394,341 552,152 553,153 555,155 557,156 Z"/>
   </g>
   <g>
   <path fill="rgb(0,0,0)" stroke="none" d="M 613,164 C 445,365 277,567 109,768 107,767 106,766 104,764 272,563 440,361 608,160 610,161 612,163 613,164 Z"/>
   <path fill="none" stroke="rgb(0,0,0)" id="Drawing_9_0" d="M 613,164 C 445,365 277,567 109,768 107,767 106,766 104,764 272,563 440,361 608,160 610,161 612,163 613,164 Z"/>
   </g>
   <g>
   <path fill="rgb(0,0,0)" stroke="none" d="M 763,205 C 579,426 394,647 210,868 208,867 207,865 205,863 389,642 574,422 758,201 760,202 762,204 763,205 Z"/>
   <path fill="none" stroke="rgb(0,0,0)" id="Drawing_10_0" d="M 763,205 C 579,426 394,647 210,868 208,867 207,865 205,863 389,642 574,422 758,201 760,202 762,204 763,205 Z"/>
   </g>
   <g>
   <path fill="rgb(0,0,0)" stroke="none" d="M 810,221 C 623,445 436,670 249,894 247,893 245,892 244,890 431,666 618,441 805,217 807,218 809,220 810,221 Z"/>
   <path fill="none" stroke="rgb(0,0,0)" id="Drawing_11_0" d="M 810,221 C 623,445 436,670 249,894 247,893 245,892 244,890 431,666 618,441 805,217 807,218 809,220 810,221 Z"/>
   </g>
   <g>
   <path fill="rgb(0,0,0)" stroke="none" d="M 855,241 C 666,469 477,696 288,924 286,923 284,921 283,920 472,692 661,465 850,237 852,238 854,240 855,241 Z"/>
   <path fill="none" stroke="rgb(0,0,0)" id="Drawing_12_0" d="M 855,241 C 666,469 477,696 288,924 286,923 284,921 283,920 472,692 661,465 850,237 852,238 854,240 855,241 Z"/>
   </g>
   <g>
   <path fill="rgb(0,0,0)" stroke="none" d="M 894,262 C 706,487 519,712 331,937 329,936 327,934 326,933 514,708 701,483 889,258 891,259 893,261 894,262 Z"/>
   <path fill="none" stroke="rgb(0,0,0)" id="Drawing_13_0" d="M 894,262 C 706,487 519,712 331,937 329,936 327,934 326,933 514,708 701,483 889,258 891,259 893,261 894,262 Z"/>
   </g>
   <g>
   <path fill="rgb(0,0,0)" stroke="none" d="M 932,285 C 745,509 558,732 371,956 369,955 367,953 366,952 553,728 740,504 927,280 929,282 931,283 932,285 Z"/>
   <path fill="none" stroke="rgb(0,0,0)" id="Drawing_14_0" d="M 932,285 C 745,509 558,732 371,956 369,955 367,953 366,952 553,728 740,504 927,280 929,282 931,283 932,285 Z"/>
   </g>
   <g>
   <path fill="rgb(0,0,0)" stroke="none" d="M 948,340 C 773,550 597,760 422,970 420,969 418,967 417,966 592,756 768,546 943,336 945,337 947,338 948,340 Z"/>
   <path fill="none" stroke="rgb(0,0,0)" id="Drawing_15_0" d="M 948,340 C 773,550 597,760 422,970 420,969 418,967 417,966 592,756 768,546 943,336 945,337 947,338 948,340 Z"/>
   </g>
   <g>
   <path fill="rgb(0,0,0)" stroke="none" d="M 985,371 C 813,578 641,784 469,991 467,990 465,988 464,987 636,780 808,574 980,367 982,368 983,369 985,371 Z"/>
   <path fill="none" stroke="rgb(0,0,0)" id="Drawing_16_0" d="M 985,371 C 813,578 641,784 469,991 467,990 465,988 464,987 636,780 808,574 980,367 982,368 983,369 985,371 Z"/>
   </g>
   <g>
   <path fill="rgb(0,0,0)" stroke="none" d="M 1016,404 C 850,603 684,802 518,1001 516,1000 514,998 513,997 679,798 845,599 1011,400 1013,401 1014,402 1016,404 Z"/>
   <path fill="none" stroke="rgb(0,0,0)" id="Drawing_17_0" d="M 1016,404 C 850,603 684,802 518,1001 516,1000 514,998 513,997 679,798 845,599 1011,400 1013,401 1014,402 1016,404 Z"/>
   </g>
   <g>
   <path fill="rgb(0,0,0)" stroke="none" d="M 1056,428 C 896,619 735,811 575,1003 573,1002 571,1000 570,999 730,807 891,615 1051,424 1053,425 1054,426 1056,428 Z"/>
   <path fill="none" stroke="rgb(0,0,0)" id="Drawing_18_0" d="M 1056,428 C 896,619 735,811 575,1003 573,1002 571,1000 570,999 730,807 891,615 1051,424 1053,425 1054,426 1056,428 Z"/>
   </g>
   <g>
   <path fill="rgb(0,0,0)" stroke="none" d="M 1076,479 C 931,651 786,824 641,997 640,996 638,994 636,993 781,820 926,647 1071,475 1073,476 1074,477 1076,479 Z"/>
   <path fill="none" stroke="rgb(0,0,0)" id="Drawing_19_0" d="M 1076,479 C 931,651 786,824 641,997 640,996 638,994 636,993 781,820 926,647 1071,475 1073,476 1074,477 1076,479 Z"/>
   </g>
   <g>
   <path fill="rgb(0,0,0)" stroke="none" d="M 1096,526 C 968,680 840,835 711,989 710,988 708,986 706,985 835,831 963,676 1091,522 1093,523 1094,524 1096,526 Z"/>
   <path fill="none" stroke="rgb(0,0,0)" id="Drawing_20_0" d="M 1096,526 C 968,680 840,835 711,989 710,988 708,986 706,985 835,831 963,676 1091,522 1093,523 1094,524 1096,526 Z"/>
   </g>
   <g>
   <path fill="rgb(0,0,0)" stroke="none" d="M 1107,583 C 1003,707 899,831 795,955 794,954 792,952 790,951 894,827 998,703 1102,579 1104,580 1105,581 1107,583 Z"/>
   <path fill="none" stroke="rgb(0,0,0)" id="Drawing_21_0" d="M 1107,583 C 1003,707 899,831 795,955 794,954 792,952 790,951 894,827 998,703 1102,579 1104,580 1105,581 1107,583 Z"/>
   </g>
   <g>
   <path fill="rgb(0,0,0)" stroke="none" d="M 1113,642 C 1031,741 949,840 867,939 866,938 864,936 862,935 944,836 1026,737 1108,638 1110,640 1111,641 1113,642 Z"/>
   <path fill="none" stroke="rgb(0,0,0)" id="Drawing_22_0" d="M 1113,642 C 1031,741 949,840 867,939 866,938 864,936 862,935 944,836 1026,737 1108,638 1110,640 1111,641 1113,642 Z"/>
   </g>
   <g>
   <path fill="rgb(0,0,0)" stroke="none" d="M 1118,712 C 1059,784 999,855 940,926 939,925 937,923 935,922 994,851 1053,780 1112,708 1114,710 1116,711 1118,712 Z"/>
   <path fill="none" stroke="rgb(0,0,0)" id="Drawing_23_0" d="M 1118,712 C 1059,784 999,855 940,926 939,925 937,923 935,922 994,851 1053,780 1112,708 1114,710 1116,711 1118,712 Z"/>
   </g>
   <g>
   <path fill="rgb(0,0,0)" stroke="none" d="M 278,482 L 300,482 C 305,482 308,482 310,482 313,483 315,483 316,485 318,486 319,487 321,489 322,491 322,494 322,496 322,499 322,501 320,504 319,506 317,507 314,509 318,510 321,511 322,514 324,516 325,519 325,522 325,525 325,528 323,530 322,532 321,534 318,536 316,537 314,538 311,539 309,539 304,539 297,539 L 278,539 278,482 Z M 289,491 L 289,505 297,505 C 301,505 304,504 305,504 307,504 308,503 310,502 311,501 311,500 311,498 311,496 311,495 310,493 309,492 307,492 306,491 304,491 301,491 296,491 L 289,491 Z M 289,514 L 289,529 300,529 C 304,529 306,529 308,529 309,529 311,528 312,527 313,526 313,524 313,522 313,520 313,519 312,517 311,516 310,515 309,515 307,514 304,514 298,514 L 289,514 Z"/>
    <rect fill="none" stroke="none" x="277" y="481" width="50" height="60"/>
   </g>
   <g>
   <path fill="rgb(0,0,0)" stroke="none" d="M 332,539 C 332,520 332,501 332,482 336,482 339,482 343,482 343,501 343,520 343,539 L 332,539 Z"/>
    <rect fill="none" stroke="none" x="331" y="481" width="14" height="60"/>
   </g>
   <g>
   <path fill="rgb(0,0,0)" stroke="none" d="M 349,511 C 349,505 349,500 351,496 352,493 354,490 356,488 359,486 361,484 364,483 367,482 371,481 376,481 384,481 391,483 396,489 401,494 403,501 403,510 403,520 401,527 396,532 391,537 384,540 376,540 368,540 361,537 356,532 351,527 349,520 349,511 Z M 360,510 C 360,517 362,522 365,525 368,528 371,530 376,530 381,530 384,528 387,525 390,522 392,517 392,510 392,504 390,499 387,495 384,492 381,491 376,491 371,491 367,492 365,496 362,499 360,504 360,510 Z"/>
    <rect fill="none" stroke="none" x="348" y="480" width="57" height="61"/>
   </g>
   <g>
   <path fill="rgb(255,255,102)" stroke="none" d="M 392,760 C 452,626 512,492 572,358 629,492 687,626 744,760 627,760 509,760 392,760 Z"/>
    <rect fill="none" stroke="none" x="391" y="357" width="355" height="405"/>
   </g>
   <g>
   <path fill="rgb(0,0,0)" stroke="none" d="M 392,769 L 392,769 C 389,769 386,767 385,765 384,763 383,760 384,757 444,623 504,488 565,354 L 565,354 C 566,351 569,350 572,350 576,350 579,351 580,354 637,488 695,623 752,757 L 752,757 C 753,760 752,763 751,765 749,767 747,769 744,769 627,769 509,769 392,769 Z M 744,752 L 744,752 C 742,756 740,760 737,764 680,630 622,495 565,361 570,361 575,361 580,361 519,495 459,630 399,764 396,760 394,756 392,752 509,752 627,752 744,752 Z"/>
   <path fill="none" stroke="rgb(0,0,0)" id="Drawing_28_0" d="M 392,769 L 392,769 C 389,769 386,767 385,765 384,763 383,760 384,757 444,623 504,488 565,354 L 565,354 C 566,351 569,350 572,350 576,350 579,351 580,354 637,488 695,623 752,757 L 752,757 C 753,760 752,763 751,765 749,767 747,769 744,769 627,769 509,769 392,769 Z"/>
   <path fill="none" stroke="rgb(0,0,0)" id="Drawing_28_1" d="M 744,752 L 744,752 C 742,756 740,760 737,764 680,630 622,495 565,361 570,361 575,361 580,361 519,495 459,630 399,764 396,760 394,756 392,752 509,752 627,752 744,752 Z"/>
   </g>
   <g>
   <path fill="rgb(255,255,102)" stroke="none" d="M 494,313 C 494,387 494,462 494,537 545,537 595,537 646,537 646,462 646,387 646,313 595,313 545,313 494,313 Z"/>
    <rect fill="none" stroke="none" x="493" y="312" width="155" height="226"/>
   </g>
   <g>
   <path fill="rgb(0,0,0)" stroke="none" d="M 486,313 L 486,313 C 486,309 490,305 494,305 545,305 595,305 646,305 L 646,305 C 651,305 654,309 654,313 654,387 654,462 654,537 L 654,537 C 654,541 651,545 646,545 595,545 545,545 494,545 L 494,545 C 490,545 486,541 486,537 486,462 486,387 486,313 Z M 502,537 L 502,537 C 499,534 496,531 494,529 545,529 595,529 646,529 644,531 641,534 638,537 638,462 638,387 638,313 641,316 644,319 646,322 595,322 545,322 494,322 496,319 499,316 502,313 502,387 502,462 502,537 Z"/>
   <path fill="none" stroke="rgb(0,0,0)" id="Drawing_30_0" d="M 486,313 L 486,313 C 486,309 490,305 494,305 545,305 595,305 646,305 L 646,305 C 651,305 654,309 654,313 654,387 654,462 654,537 L 654,537 C 654,541 651,545 646,545 595,545 545,545 494,545 L 494,545 C 490,545 486,541 486,537 486,462 486,387 486,313 Z"/>
   <path fill="none" stroke="rgb(0,0,0)" id="Drawing_30_1" d="M 502,537 L 502,537 C 499,534 496,531 494,529 545,529 595,529 646,529 644,531 641,534 638,537 638,462 638,387 638,313 641,316 644,319 646,322 595,322 545,322 494,322 496,319 499,316 502,313 502,387 502,462 502,537 Z"/>
   </g>
   <g>
   <path fill="rgb(255,255,102)" stroke="none" d="M 504,385 C 504,462 504,539 504,615 550,615 595,615 641,615 641,539 641,462 641,385 595,385 550,385 504,385 Z"/>
    <rect fill="none" stroke="none" x="503" y="384" width="140" height="233"/>
   </g>
   <g>
   <path fill="rgb(0,0,0)" stroke="none" d="M 527,588 L 572,588 C 581,588 587,588 592,589 596,590 600,591 604,594 607,596 610,599 612,603 615,607 616,612 616,617 616,622 614,627 611,632 609,636 605,640 600,642 607,644 612,647 616,652 619,657 621,663 621,670 621,675 620,680 618,685 615,690 612,694 608,697 604,700 599,702 593,702 589,703 580,703 565,703 L 527,703 527,588 Z M 549,607 L 549,634 564,634 C 573,634 579,633 581,633 585,633 588,631 590,629 592,627 594,624 594,620 594,616 593,614 591,611 589,609 586,608 582,607 580,607 573,607 563,607 L 549,607 Z M 549,653 L 549,684 571,684 C 579,684 584,683 586,683 590,682 592,681 595,678 597,676 598,673 598,668 598,665 597,662 595,660 594,657 591,656 588,654 585,653 578,653 568,653 L 549,653 Z"/>
    <rect fill="none" stroke="none" x="526" y="587" width="97" height="117"/>
   </g>
   <g>
   <path fill="rgb(0,0,0)" stroke="none" d="M 647,314 C 647,388 647,462 646,537 643,537 640,537 636,537 637,462 637,387 637,313 641,313 644,313 647,314 Z"/>
   <path fill="none" stroke="rgb(0,0,0)" id="Drawing_33_0" d="M 647,314 C 647,388 647,462 646,537 643,537 640,537 636,537 637,462 637,387 637,313 641,313 644,313 647,314 Z"/>
   </g>
   <g>
   <path fill="rgb(255,255,102)" stroke="none" d="M 602,568 C 610,542 618,516 626,491 634,516 642,542 649,568 634,568 618,568 602,568 Z"/>
    <rect fill="none" stroke="none" x="602" y="490" width="49" height="79"/>
   </g>
   <g>
   <path fill="rgb(255,255,102)" stroke="none" d="M 489,571 C 497,545 505,520 514,495 522,520 530,545 538,571 521,571 505,571 489,571 Z"/>
    <rect fill="none" stroke="none" x="488" y="494" width="51" height="78"/>
   </g>
  </g>
 </g>
</svg>