<?xml version="1.0" encoding="UTF-8"?>

<svg version="1.2" width="150px" height="150px" viewBox="0 0 1160 1160" xmlns="http://www.w3.org/2000/svg" xmlns:xlink="http://www.w3.org/1999/xlink">
 <g visibility="visible" id="MasterSlide_1_Standard">
  <g id="Drawing_1">
  <path fill="rgb(255,0,0)" stroke="none" d="M 637,222 L 637,222 C 744,235 822,313 813,398 803,483 708,541 601,528 601,528 601,528 601,528 L 601,528 601,528 C 712,505 774,414 739,324 723,282 686,245 637,222 Z"/>
  <path fill="rgb(255,0,0)" stroke="none" d="M 653,633 L 653,633 C 705,536 808,488 881,529 955,568 972,680 920,778 920,778 920,778 920,778 L 920,778 920,778 C 945,666 890,571 798,567 748,565 695,589 653,633 Z"/>
  <path fill="rgb(255,0,0)" stroke="none" d="M 712,483 L 712,483 C 733,456 788,451 841,480 865,493 883,512 904,540 944,584 945,644 924,671 927,632 892,561 856,529 821,498 750,471 712,483 L 712,483 Z"/>
  <path fill="rgb(255,0,0)" stroke="none" d="M 742,561 L 742,561 C 776,562 816,529 829,476 835,451 833,427 827,396 819,341 773,269 740,267 771,288 803,386 803,435 803,483 776,543 742,561 L 742,561 Z"/>
  <path fill="rgb(255,0,0)" stroke="none" d="M 615,535 L 802,426 851,512 657,616 615,535 Z"/>
  <path fill="rgb(255,0,0)" stroke="none" d="M 630,621 C 640,615 651,600 650,588 649,576 644,565 634,559 623,552 610,551 600,557 612,560 624,570 629,580 634,591 634,608 630,621 Z"/>
  <path fill="rgb(255,0,0)" stroke="none" d="M 601,557 L 601,557 C 601,547 602,538 602,529 L 602,529 649,519 641,558 601,557 Z"/>
  <path fill="rgb(255,0,0)" stroke="none" d="M 630,620 L 630,620 C 637,624 646,629 653,633 L 653,633 685,596 651,586 630,620 Z"/>
  <path fill="rgb(255,0,0)" stroke="none" d="M 234,730 L 234,730 C 196,628 230,522 309,492 389,462 484,520 522,621 522,621 522,621 522,621 L 522,621 522,621 C 450,532 342,519 278,591 247,626 231,675 234,730 Z"/>
  <path fill="rgb(255,0,0)" stroke="none" d="M 591,527 L 591,527 C 480,525 392,455 394,371 395,287 486,221 596,223 596,223 596,223 596,223 L 596,223 596,223 C 485,251 427,344 465,428 486,473 532,509 591,527 Z"/>
  <path fill="rgb(255,0,0)" stroke="none" d="M 430,543 L 430,543 C 397,536 367,489 368,429 370,402 379,377 392,345 414,290 467,261 500,268 464,283 417,347 405,393 394,439 402,515 430,543 L 430,543 Z"/>
  <path fill="rgb(255,0,0)" stroke="none" d="M 485,481 L 485,481 C 472,450 423,429 370,442 345,448 326,461 300,480 256,512 213,587 226,617 231,579 303,507 346,484 389,461 454,459 485,481 L 485,481 Z"/>
  <path fill="rgb(255,0,0)" stroke="none" d="M 521,605 L 339,489 392,406 574,531 521,605 Z"/>
  <path fill="rgb(255,0,0)" stroke="none" d="M 590,553 C 580,546 562,544 551,551 542,557 535,567 533,578 532,590 537,603 547,610 544,597 548,582 554,572 562,562 577,556 590,553 Z"/>
  <path fill="rgb(255,0,0)" stroke="none" d="M 547,609 L 547,609 C 538,613 529,616 521,620 L 521,620 491,582 530,572 547,609 Z"/>
  <path fill="rgb(255,0,0)" stroke="none" d="M 590,553 L 590,553 C 590,546 590,535 590,527 L 590,527 543,515 549,550 590,553 Z"/>
  <path fill="rgb(255,0,0)" stroke="none" d="M 884,839 L 884,839 C 816,923 708,947 642,894 576,840 578,729 645,645 645,645 645,645 645,645 L 645,645 645,645 C 605,751 649,853 743,871 788,880 839,868 884,839 Z"/>
  <path fill="rgb(255,0,0)" stroke="none" d="M 529,632 L 529,632 C 584,729 568,841 496,882 422,924 320,878 265,781 265,781 265,781 265,781 L 265,781 265,781 C 346,864 454,868 508,791 536,750 544,692 529,632 Z"/>
  <path fill="rgb(255,0,0)" stroke="none" d="M 624,764 L 624,764 C 635,796 611,845 559,874 533,887 509,892 474,897 416,906 364,875 353,843 384,866 464,874 508,861 554,848 615,802 624,764 L 624,764 Z"/>
  <path fill="rgb(255,0,0)" stroke="none" d="M 543,747 L 543,747 C 523,775 530,828 568,866 586,886 607,896 636,908 686,930 772,930 792,902 756,917 658,892 617,866 575,840 540,786 543,747 L 543,747 Z"/>
  <path fill="rgb(255,0,0)" stroke="none" d="M 632,653 L 624,870 526,866 542,645 632,653 Z"/>
  <path fill="rgb(255,0,0)" stroke="none" d="M 553,621 C 552,632 558,648 570,655 579,660 591,661 602,657 614,652 622,641 623,629 612,637 598,642 586,641 575,640 561,630 553,621 Z"/>
  <path fill="rgb(255,0,0)" stroke="none" d="M 622,629 L 622,629 C 629,635 637,640 644,646 L 644,646 627,691 598,663 622,629 Z"/>
  <path fill="rgb(255,0,0)" stroke="none" d="M 553,621 L 553,621 C 546,625 537,629 530,633 L 530,633 543,679 570,657 553,621 Z"/>
  <path fill="rgb(255,0,0)" stroke="none" d="M 659,796 L 635,737 635,737 C 641,741 695,701 711,675 728,650 740,583 733,584 L 799,582 799,582 C 805,585 802,658 778,697 772,707 765,717 758,727 732,765 665,804 659,796 Z"/>
  <path fill="rgb(255,0,0)" stroke="none" d="M 726,435 L 687,484 687,484 C 687,477 625,450 596,448 565,447 501,469 506,475 L 471,418 471,418 C 471,411 536,378 581,379 593,380 606,381 618,381 662,386 730,424 726,435 Z"/>
  <path fill="rgb(255,0,0)" stroke="none" d="M 382,559 L 445,568 445,568 C 438,572 447,638 460,665 474,692 526,736 528,729 L 497,788 497,788 C 491,791 430,752 408,712 402,701 397,690 391,679 372,638 371,561 382,559 Z"/>
  <path fill="rgb(255,0,0)" stroke="rgb(255,0,0)" d="M 80,449 L 161,770 118,781 37,460 Z"/>
  <path fill="rgb(255,0,0)" stroke="rgb(255,0,0)" d="M 346,84 L 779,83 780,127 346,129 Z"/>
  <path fill="rgb(255,0,0)" stroke="rgb(255,0,0)" d="M 783,159 L 1127,26 1089,390 1045,386 1079,57 1109,80 798,201 Z"/>
  <path fill="rgb(255,0,0)" stroke="rgb(255,0,0)" d="M 1110,533 L 1059,1105 516,1017 522,973 1042,1058 1017,1078 1066,529 Z"/>
  <path fill="rgb(255,0,0)" stroke="rgb(255,0,0)" d="M 420,1129 L 122,1055 61,880 103,865 160,1029 144,1015 431,1086 Z"/>
  <path fill="rgb(255,0,0)" stroke="rgb(255,0,0)" d="M 74,391 L 55,67 355,18 362,62 82,107 99,83 118,388 Z"/>
  </g>
 </g>
</svg>