<?xml version="1.0" encoding="UTF-8"?>

<svg version="1.2" width="150px" height="150px" viewBox="0 0 1160 1160" xmlns="http://www.w3.org/2000/svg" xmlns:xlink="http://www.w3.org/1999/xlink">
 <g visibility="visible" id="MasterSlide_1_Standard">
  <g id="DrawingGroup_1">
   <g>
   <path fill="rgb(255,0,0)" stroke="none" d="M 544,134 C 573,103 602,73 630,42 635,47 640,51 645,56 617,87 588,117 559,148 554,143 549,139 544,134 Z"/>
   <path fill="none" stroke="rgb(255,0,0)" id="Drawing_1_0" d="M 544,134 C 573,103 602,73 630,42 635,47 640,51 645,56 617,87 588,117 559,148 554,143 549,139 544,134 Z"/>
   </g>
   <g>
   <path fill="rgb(255,0,0)" stroke="none" d="M 590,224 C 648,162 706,99 763,37 768,42 773,46 777,51 720,113 662,175 604,237 600,232 595,228 590,224 Z"/>
   <path fill="none" stroke="rgb(255,0,0)" id="Drawing_2_0" d="M 590,224 C 648,162 706,99 763,37 768,42 773,46 777,51 720,113 662,175 604,237 600,232 595,228 590,224 Z"/>
   </g>
   <g>
   <path fill="rgb(255,0,0)" stroke="none" d="M 710,220 C 766,161 822,103 878,44 883,49 888,53 893,58 837,117 781,175 725,234 720,229 715,224 710,220 Z"/>
   <path fill="none" stroke="rgb(255,0,0)" id="Drawing_3_0" d="M 710,220 C 766,161 822,103 878,44 883,49 888,53 893,58 837,117 781,175 725,234 720,229 715,224 710,220 Z"/>
   </g>
   <g>
   <path fill="rgb(255,0,0)" stroke="none" d="M 837,224 C 893,165 949,105 1005,46 1010,51 1015,55 1020,60 964,119 907,179 851,238 847,233 842,228 837,224 Z"/>
   <path fill="none" stroke="rgb(255,0,0)" id="Drawing_4_0" d="M 837,224 C 893,165 949,105 1005,46 1010,51 1015,55 1020,60 964,119 907,179 851,238 847,233 842,228 837,224 Z"/>
   </g>
   <g>
   <path fill="rgb(255,0,0)" stroke="none" d="M 967,223 C 980,208 992,194 1005,179 1010,183 1016,188 1021,192 1008,206 995,221 982,236 977,231 972,227 967,223 Z"/>
   <path fill="none" stroke="rgb(255,0,0)" id="Drawing_5_0" d="M 967,223 C 980,208 992,194 1005,179 1010,183 1016,188 1021,192 1008,206 995,221 982,236 977,231 972,227 967,223 Z"/>
   </g>
   <g>
   <path fill="rgb(255,0,0)" stroke="none" d="M 133,600 C 162,570 191,539 220,508 225,512 230,517 235,522 206,552 177,583 148,613 143,609 138,605 133,600 Z"/>
   <path fill="none" stroke="rgb(255,0,0)" id="Drawing_6_0" d="M 133,600 C 162,570 191,539 220,508 225,512 230,517 235,522 206,552 177,583 148,613 143,609 138,605 133,600 Z"/>
   </g>
   <g>
   <path fill="rgb(255,0,0)" stroke="none" d="M 134,800 C 226,702 318,604 410,507 415,511 420,516 425,521 333,618 241,716 149,813 144,809 139,805 134,800 Z"/>
   <path fill="none" stroke="rgb(255,0,0)" id="Drawing_7_0" d="M 134,800 C 226,702 318,604 410,507 415,511 420,516 425,521 333,618 241,716 149,813 144,809 139,805 134,800 Z"/>
   </g>
   <g>
   <path fill="rgb(255,0,0)" stroke="none" d="M 134,989 C 287,828 440,667 593,506 598,510 603,514 608,519 455,680 302,842 149,1004 144,999 139,994 134,989 Z"/>
   <path fill="none" stroke="rgb(255,0,0)" id="Drawing_8_0" d="M 134,989 C 287,828 440,667 593,506 598,510 603,514 608,519 455,680 302,842 149,1004 144,999 139,994 134,989 Z"/>
   </g>
   <g>
   <path fill="rgb(255,0,0)" stroke="none" d="M 211,1103 C 400,904 588,705 777,506 782,510 787,514 792,519 603,718 414,918 225,1117 220,1112 215,1108 211,1103 Z"/>
   <path fill="none" stroke="rgb(255,0,0)" id="Drawing_9_0" d="M 211,1103 C 400,904 588,705 777,506 782,510 787,514 792,519 603,718 414,918 225,1117 220,1112 215,1108 211,1103 Z"/>
   </g>
   <g>
   <path fill="rgb(255,0,0)" stroke="none" d="M 401,1096 C 588,899 775,702 962,506 967,510 971,514 976,519 789,716 602,914 416,1111 411,1106 406,1101 401,1096 Z"/>
   <path fill="none" stroke="rgb(255,0,0)" id="Drawing_10_0" d="M 401,1096 C 588,899 775,702 962,506 967,510 971,514 976,519 789,716 602,914 416,1111 411,1106 406,1101 401,1096 Z"/>
   </g>
   <g>
   <path fill="rgb(255,0,0)" stroke="none" d="M 936,1104 C 960,1079 985,1053 1009,1028 1014,1033 1019,1037 1024,1042 1000,1067 975,1093 951,1118 946,1113 941,1109 936,1104 Z"/>
   <path fill="none" stroke="rgb(255,0,0)" id="Drawing_11_0" d="M 936,1104 C 960,1079 985,1053 1009,1028 1014,1033 1019,1037 1024,1042 1000,1067 975,1093 951,1118 946,1113 941,1109 936,1104 Z"/>
   </g>
   <g>
   <path fill="rgb(255,0,0)" stroke="none" d="M 591,1105 C 731,951 870,797 1009,642 1014,647 1019,652 1024,656 885,810 746,964 606,1118 601,1114 596,1109 591,1105 Z"/>
   <path fill="none" stroke="rgb(255,0,0)" id="Drawing_12_0" d="M 591,1105 C 731,951 870,797 1009,642 1014,647 1019,652 1024,656 885,810 746,964 606,1118 601,1114 596,1109 591,1105 Z"/>
   </g>
   <g>
   <path fill="rgb(255,0,0)" stroke="none" d="M 753,1111 C 841,1019 928,927 1015,835 1020,840 1025,845 1030,849 943,942 856,1034 768,1126 763,1121 758,1116 753,1111 Z"/>
   <path fill="none" stroke="rgb(255,0,0)" id="Drawing_13_0" d="M 753,1111 C 841,1019 928,927 1015,835 1020,840 1025,845 1030,849 943,942 856,1034 768,1126 763,1121 758,1116 753,1111 Z"/>
   </g>
   <g>
   <path fill="rgb(0,0,0)" stroke="none" d="M 130,500 C 429,500 727,500 1026,500 1026,707 1026,915 1026,1122 727,1122 429,1122 130,1122 130,915 130,707 130,500 Z M 154,1110 C 150,1106 146,1102 142,1098 433,1098 724,1098 1015,1098 1011,1102 1006,1106 1002,1110 1002,911 1002,711 1002,512 1006,516 1011,520 1015,524 724,524 433,524 142,524 146,520 150,516 154,512 154,711 154,911 154,1110 Z"/>
   <path fill="none" stroke="rgb(0,0,0)" id="Drawing_14_0" d="M 130,500 C 429,500 727,500 1026,500 1026,707 1026,915 1026,1122 727,1122 429,1122 130,1122 130,915 130,707 130,500 Z"/>
   <path fill="none" stroke="rgb(0,0,0)" id="Drawing_14_1" d="M 154,1110 C 150,1106 146,1102 142,1098 433,1098 724,1098 1015,1098 1011,1102 1006,1106 1002,1110 1002,911 1002,711 1002,512 1006,516 1011,520 1015,524 724,524 433,524 142,524 146,520 150,516 154,512 154,711 154,911 154,1110 Z"/>
   </g>
   <g>
   <path fill="rgb(0,0,0)" stroke="none" d="M 286,1060 L 263,1060 263,916 C 258,921 251,926 242,932 233,937 225,941 218,943 L 218,921 C 231,916 242,908 251,900 261,891 267,883 271,875 L 286,875 286,1060 Z"/>
    <rect fill="none" stroke="none" x="217" y="875" width="70" height="186"/>
   </g>
   <g>
   <path fill="rgb(0,0,0)" stroke="none" d="M 337,1011 L 359,1008 C 362,1021 366,1030 373,1036 379,1042 386,1045 395,1045 406,1045 415,1041 422,1034 430,1026 433,1017 433,1006 433,996 430,987 423,981 416,974 408,970 397,970 393,970 388,971 381,973 L 384,953 C 385,953 387,953 387,953 397,953 406,951 413,946 421,941 425,933 425,923 425,914 422,907 417,902 411,897 404,894 395,894 386,894 379,897 373,902 367,908 363,916 362,927 L 339,923 C 342,908 348,896 358,888 368,879 380,875 394,875 404,875 414,877 422,882 431,886 437,892 442,899 446,907 448,915 448,923 448,931 446,938 442,945 438,951 431,957 423,960 434,963 442,968 448,976 454,984 457,994 457,1006 457,1022 451,1035 440,1047 428,1058 413,1063 395,1063 379,1063 366,1058 355,1049 344,1039 338,1027 337,1011 Z"/>
    <rect fill="none" stroke="none" x="336" y="875" width="123" height="190"/>
   </g>
   <g>
   <path fill="rgb(255,0,0)" stroke="none" d="M 541,507 C 609,430 677,353 745,277 751,281 756,285 761,290 693,367 625,444 556,521 551,516 546,511 541,507 Z M 708,257 C 735,253 761,249 787,245 786,271 785,298 784,325 759,302 734,279 708,257 Z"/>
   <path fill="none" stroke="rgb(255,0,0)" id="Drawing_17_0" d="M 541,507 C 609,430 677,353 745,277 751,281 756,285 761,290 693,367 625,444 556,521 551,516 546,511 541,507 Z"/>
   <path fill="none" stroke="rgb(255,0,0)" id="Drawing_17_1" d="M 708,257 C 735,253 761,249 787,245 786,271 785,298 784,325 759,302 734,279 708,257 Z"/>
   </g>
   <g>
   <path fill="rgb(0,0,0)" stroke="none" d="M 541,34 C 703,34 864,34 1025,34 1025,104 1025,173 1025,243 864,243 703,243 541,243 541,173 541,104 541,34 Z M 565,230 C 561,226 557,222 553,218 706,218 859,218 1012,218 1008,222 1004,226 1000,230 1000,169 1000,107 1000,46 1004,50 1008,55 1012,59 859,59 706,59 553,59 557,55 561,50 565,46 565,107 565,169 565,230 Z"/>
   <path fill="none" stroke="rgb(0,0,0)" id="Drawing_18_0" d="M 541,34 C 703,34 864,34 1025,34 1025,104 1025,173 1025,243 864,243 703,243 541,243 541,173 541,104 541,34 Z"/>
   <path fill="none" stroke="rgb(0,0,0)" id="Drawing_18_1" d="M 565,230 C 561,226 557,222 553,218 706,218 859,218 1012,218 1008,222 1004,226 1000,230 1000,169 1000,107 1000,46 1004,50 1008,55 1012,59 859,59 706,59 553,59 557,55 561,50 565,46 565,107 565,169 565,230 Z"/>
   </g>
  </g>
 </g>
</svg>