<?xml version="1.0" encoding="UTF-8"?>

<svg version="1.2" width="150px" height="150px" viewBox="0 0 1160 1160" xmlns="http://www.w3.org/2000/svg" xmlns:xlink="http://www.w3.org/1999/xlink">
 <g visibility="visible" id="MasterSlide_1_Standard">
  <g id="DrawingGroup_1">
   <g>
   <path fill="rgb(255,0,0)" stroke="none" d="M 129,600 C 158,570 187,539 217,508 222,512 227,517 232,522 203,552 174,583 145,613 140,609 134,605 129,600 Z"/>
   <path fill="none" stroke="rgb(255,0,0)" id="Drawing_1_0" d="M 129,600 C 158,570 187,539 217,508 222,512 227,517 232,522 203,552 174,583 145,613 140,609 134,605 129,600 Z"/>
   </g>
   <g>
   <path fill="rgb(255,0,0)" stroke="none" d="M 131,799 C 224,701 317,603 410,506 415,510 420,515 425,520 332,618 239,716 146,814 141,809 136,804 131,799 Z"/>
   <path fill="none" stroke="rgb(255,0,0)" id="Drawing_2_0" d="M 131,799 C 224,701 317,603 410,506 415,510 420,515 425,520 332,618 239,716 146,814 141,809 136,804 131,799 Z"/>
   </g>
   <g>
   <path fill="rgb(255,0,0)" stroke="none" d="M 132,991 C 286,829 441,667 595,505 600,509 605,514 610,519 456,681 301,844 146,1006 141,1001 137,996 132,991 Z"/>
   <path fill="none" stroke="rgb(255,0,0)" id="Drawing_3_0" d="M 132,991 C 286,829 441,667 595,505 600,509 605,514 610,519 456,681 301,844 146,1006 141,1001 137,996 132,991 Z"/>
   </g>
   <g>
   <path fill="rgb(255,0,0)" stroke="none" d="M 207,1106 C 398,906 588,705 779,505 784,509 789,514 793,519 603,719 412,919 222,1119 217,1115 212,1110 207,1106 Z"/>
   <path fill="none" stroke="rgb(255,0,0)" id="Drawing_4_0" d="M 207,1106 C 398,906 588,705 779,505 784,509 789,514 793,519 603,719 412,919 222,1119 217,1115 212,1110 207,1106 Z"/>
   </g>
   <g>
   <path fill="rgb(255,0,0)" stroke="none" d="M 400,1098 C 588,900 777,702 965,505 970,509 974,514 979,519 791,716 603,914 415,1112 410,1107 405,1103 400,1098 Z"/>
   <path fill="none" stroke="rgb(255,0,0)" id="Drawing_5_0" d="M 400,1098 C 588,900 777,702 965,505 970,509 974,514 979,519 791,716 603,914 415,1112 410,1107 405,1103 400,1098 Z"/>
   </g>
   <g>
   <path fill="rgb(255,0,0)" stroke="none" d="M 939,1106 C 963,1080 988,1055 1012,1029 1017,1034 1022,1039 1027,1044 1003,1069 978,1095 954,1120 949,1115 944,1111 939,1106 Z"/>
   <path fill="none" stroke="rgb(255,0,0)" id="Drawing_6_0" d="M 939,1106 C 963,1080 988,1055 1012,1029 1017,1034 1022,1039 1027,1044 1003,1069 978,1095 954,1120 949,1115 944,1111 939,1106 Z"/>
   </g>
   <g>
   <path fill="rgb(255,0,0)" stroke="none" d="M 590,1107 C 731,952 872,797 1012,642 1017,647 1023,652 1028,656 887,811 746,966 605,1120 600,1116 595,1111 590,1107 Z"/>
   <path fill="none" stroke="rgb(255,0,0)" id="Drawing_7_0" d="M 590,1107 C 731,952 872,797 1012,642 1017,647 1023,652 1028,656 887,811 746,966 605,1120 600,1116 595,1111 590,1107 Z"/>
   </g>
   <g>
   <path fill="rgb(255,0,0)" stroke="none" d="M 754,1113 C 842,1021 930,929 1018,836 1023,841 1029,846 1034,850 946,943 858,1035 769,1128 764,1123 759,1118 754,1113 Z"/>
   <path fill="none" stroke="rgb(255,0,0)" id="Drawing_8_0" d="M 754,1113 C 842,1021 930,929 1018,836 1023,841 1029,846 1034,850 946,943 858,1035 769,1128 764,1123 759,1118 754,1113 Z"/>
   </g>
   <g>
   <path fill="rgb(0,0,0)" stroke="none" d="M 127,500 C 428,500 730,500 1031,500 1031,708 1031,916 1031,1124 730,1124 428,1124 127,1124 127,916 127,708 127,500 Z M 151,1112 C 147,1108 143,1104 139,1100 432,1100 725,1100 1018,1100 1014,1104 1011,1108 1007,1112 1007,912 1007,712 1007,512 1011,516 1014,520 1018,524 725,524 432,524 139,524 143,520 147,516 151,512 151,712 151,912 151,1112 Z"/>
   <path fill="none" stroke="rgb(0,0,0)" id="Drawing_9_0" d="M 127,500 C 428,500 730,500 1031,500 1031,708 1031,916 1031,1124 730,1124 428,1124 127,1124 127,916 127,708 127,500 Z"/>
   <path fill="none" stroke="rgb(0,0,0)" id="Drawing_9_1" d="M 151,1112 C 147,1108 143,1104 139,1100 432,1100 725,1100 1018,1100 1014,1104 1011,1108 1007,1112 1007,912 1007,712 1007,512 1011,516 1014,520 1018,524 725,524 432,524 139,524 143,520 147,516 151,512 151,712 151,912 151,1112 Z"/>
   </g>
   <g>
   <path fill="rgb(0,0,0)" stroke="none" d="M 284,1061 L 261,1061 261,917 C 256,922 249,927 240,932 231,937 223,941 216,944 L 216,922 C 229,916 240,909 249,900 259,892 266,884 270,876 L 284,876 284,1061 Z"/>
    <rect fill="none" stroke="none" x="216" y="875" width="70" height="188"/>
   </g>
   <g>
   <path fill="rgb(0,0,0)" stroke="none" d="M 342,1012 L 365,1009 C 367,1022 372,1031 378,1037 384,1043 392,1046 401,1046 411,1046 420,1042 428,1034 435,1027 439,1018 439,1007 439,997 435,988 429,981 422,974 413,971 403,971 398,971 393,972 387,974 L 389,954 C 391,954 392,954 393,954 402,954 411,951 419,946 427,941 430,934 430,923 430,915 428,908 422,902 416,897 409,894 400,894 391,894 384,897 378,903 372,908 368,916 367,927 L 344,923 C 347,908 353,896 363,888 373,880 385,876 400,876 410,876 419,878 427,882 436,886 442,892 447,900 451,907 454,915 454,924 454,932 452,939 447,945 443,952 437,957 428,961 439,963 448,969 454,977 460,985 463,995 463,1006 463,1023 457,1036 445,1047 433,1059 419,1064 401,1064 384,1064 371,1059 360,1050 349,1040 343,1028 342,1012 Z"/>
    <rect fill="none" stroke="none" x="341" y="875" width="123" height="191"/>
   </g>
   <g>
   <path fill="rgb(0,0,0)" stroke="none" d="M 541,32 C 704,32 867,32 1029,32 1029,102 1029,171 1029,241 867,241 704,241 541,241 541,171 541,102 541,32 Z M 565,230 C 561,225 557,221 553,217 708,217 863,217 1017,217 1013,221 1008,225 1004,230 1004,168 1004,106 1004,44 1008,48 1013,52 1017,56 863,56 708,56 553,56 557,52 561,48 565,44 565,106 565,168 565,230 Z"/>
   <path fill="none" stroke="rgb(0,0,0)" id="Drawing_12_0" d="M 541,32 C 704,32 867,32 1029,32 1029,102 1029,171 1029,241 867,241 704,241 541,241 541,171 541,102 541,32 Z"/>
   <path fill="none" stroke="rgb(0,0,0)" id="Drawing_12_1" d="M 565,230 C 561,225 557,221 553,217 708,217 863,217 1017,217 1013,221 1008,225 1004,230 1004,168 1004,106 1004,44 1008,48 1013,52 1017,56 863,56 708,56 553,56 557,52 561,48 565,44 565,106 565,168 565,230 Z"/>
   </g>
   <g>
   <path fill="rgb(255,0,0)" stroke="none" d="M 542,507 C 558,489 574,471 589,453 595,457 600,461 605,466 589,484 573,502 557,520 552,515 547,511 542,507 Z M 603,437 C 617,421 631,406 644,391 649,395 654,400 659,405 646,420 632,435 618,451 613,446 608,441 603,437 Z M 658,376 C 672,360 686,345 699,330 704,334 709,338 714,343 701,358 687,373 673,389 668,384 663,380 658,376 Z M 712,315 C 724,301 736,288 748,275 753,279 758,283 763,288 751,301 739,314 727,328 722,323 717,319 712,315 Z M 710,255 C 737,251 763,247 789,243 789,269 788,296 787,323 762,300 736,277 710,255 Z"/>
   <path fill="none" stroke="rgb(255,0,0)" id="Drawing_13_0" d="M 542,507 C 558,489 574,471 589,453 595,457 600,461 605,466 589,484 573,502 557,520 552,515 547,511 542,507 Z"/>
   <path fill="none" stroke="rgb(255,0,0)" id="Drawing_13_1" d="M 603,437 C 617,421 631,406 644,391 649,395 654,400 659,405 646,420 632,435 618,451 613,446 608,441 603,437 Z"/>
   <path fill="none" stroke="rgb(255,0,0)" id="Drawing_13_2" d="M 658,376 C 672,360 686,345 699,330 704,334 709,338 714,343 701,358 687,373 673,389 668,384 663,380 658,376 Z"/>
   <path fill="none" stroke="rgb(255,0,0)" id="Drawing_13_3" d="M 712,315 C 724,301 736,288 748,275 753,279 758,283 763,288 751,301 739,314 727,328 722,323 717,319 712,315 Z"/>
   <path fill="none" stroke="rgb(255,0,0)" id="Drawing_13_4" d="M 710,255 C 737,251 763,247 789,243 789,269 788,296 787,323 762,300 736,277 710,255 Z"/>
   </g>
  </g>
 </g>
</svg>