<?xml version="1.0" encoding="UTF-8"?>

<svg version="1.2" width="150px" height="150px" viewBox="0 0 1160 1160" xmlns="http://www.w3.org/2000/svg" xmlns:xlink="http://www.w3.org/1999/xlink">
 <g visibility="visible" id="MasterSlide_1_Standard">
  <g id="Drawing_1">
  <path fill="rgb(255,0,0)" stroke="rgb(255,0,0)" d="M 23,340 L 130,242 147,260 40,359 Z"/>
  <path fill="rgb(255,0,0)" stroke="rgb(255,0,0)" d="M 25,552 L 364,240 382,258 43,570 Z"/>
  <path fill="rgb(255,0,0)" stroke="none" d="M 25,755 L 591,238 608,256 43,774 25,755 Z"/>
  <path stroke-width="1" fill="none" stroke="rgb(255,0,0)" d="M 25,755 L 591,238 608,256 43,774 25,755 Z"/>
  <path fill="rgb(255,0,0)" stroke="none" d="M 117,876 L 816,238 833,256 135,895 117,876 Z"/>
  <path stroke-width="1" fill="none" stroke="rgb(255,0,0)" d="M 117,876 L 816,238 833,256 135,895 117,876 Z"/>
  <path fill="rgb(255,0,0)" stroke="none" d="M 352,869 L 1043,238 1059,256 369,888 352,869 Z"/>
  <path stroke-width="1" fill="none" stroke="rgb(255,0,0)" d="M 352,869 L 1043,238 1059,256 369,888 352,869 Z"/>
  <path fill="rgb(255,0,0)" stroke="none" d="M 1011,878 L 1101,796 1118,815 1028,896 1011,878 Z"/>
  <path stroke-width="1" fill="none" stroke="rgb(255,0,0)" d="M 1011,878 L 1101,796 1118,815 1028,896 1011,878 Z"/>
  <path fill="rgb(255,0,0)" stroke="none" d="M 587,878 L 1101,385 1118,403 604,896 587,878 Z"/>
  <path stroke-width="1" fill="none" stroke="rgb(255,0,0)" d="M 587,878 L 1101,385 1118,403 604,896 587,878 Z"/>
  <path fill="rgb(255,0,0)" stroke="none" d="M 786,885 L 1108,591 1126,609 804,903 786,885 Z"/>
  <path stroke-width="1" fill="none" stroke="rgb(255,0,0)" d="M 786,885 L 1108,591 1126,609 804,903 786,885 Z"/>
  </g>
 </g>
</svg>