<?xml version="1.0" encoding="UTF-8"?>

<svg version="1.2" width="150px" height="150px" viewBox="0 0 1160 1160" xmlns="http://www.w3.org/2000/svg" xmlns:xlink="http://www.w3.org/1999/xlink">
 <g visibility="visible" id="MasterSlide_1_Standard">
  <g id="Drawing_1">
  <path fill="rgb(255,0,0)" stroke="none" d="M 578,878 L 1126,302 1106,282 558,858 578,878 Z"/>
  <path fill="none" stroke="rgb(255,0,0)" d="M 578,878 L 1126,302 1106,282 558,858 578,878 Z"/>
  <path fill="rgb(255,0,0)" stroke="none" d="M 398,878 L 946,302 926,282 378,858 398,878 Z"/>
  <path fill="none" stroke="rgb(255,0,0)" d="M 398,878 L 946,302 926,282 378,858 398,878 Z"/>
  <path fill="rgb(255,0,0)" stroke="none" d="M 219,878 L 766,302 746,282 198,858 219,878 Z"/>
  <path fill="none" stroke="rgb(255,0,0)" d="M 219,878 L 766,302 746,282 198,858 219,878 Z"/>
  <path fill="rgb(255,0,0)" stroke="none" d="M 39,878 L 587,302 567,282 19,858 39,878 Z"/>
  <path fill="none" stroke="rgb(255,0,0)" d="M 39,878 L 587,302 567,282 19,858 39,878 Z"/>
  </g>
 </g>
</svg>