<?xml version="1.0" encoding="UTF-8"?>

<svg version="1.2" width="150px" height="150px" viewBox="0 0 1160 1160" xmlns="http://www.w3.org/2000/svg" xmlns:xlink="http://www.w3.org/1999/xlink">
 <g visibility="visible" id="MasterSlide_1_Standard">
  <g id="Drawing_1">
  <path fill="rgb(255,0,0)" stroke="rgb(255,0,0)" d="M 51,541 L 315,243 331,257 66,556 Z"/>
  <path fill="rgb(255,0,0)" stroke="rgb(255,0,0)" d="M 82,652 L 401,289 418,304 98,667 Z"/>
  <path fill="rgb(255,0,0)" stroke="rgb(255,0,0)" d="M 225,654 L 688,130 705,145 241,669 Z"/>
  <path fill="rgb(255,0,0)" stroke="rgb(255,0,0)" d="M 357,653 L 797,152 813,166 373,667 Z"/>
  <path fill="rgb(255,0,0)" stroke="rgb(255,0,0)" d="M 462,686 L 887,205 903,219 478,700 Z"/>
  <path fill="rgb(255,0,0)" stroke="rgb(255,0,0)" d="M 418,877 L 966,258 982,273 435,891 Z"/>
  <path fill="rgb(255,0,0)" stroke="none" d="M 474,976 L 1057,317 1073,331 490,990 474,976 Z"/>
  <path stroke-width="1" fill="none" stroke="rgb(255,0,0)" d="M 474,976 L 1057,317 1073,331 490,990 474,976 Z"/>
  <path fill="rgb(255,0,0)" stroke="rgb(255,0,0)" d="M 579,1005 L 790,765 806,780 595,1019 Z"/>
  <path fill="rgb(255,0,0)" stroke="rgb(255,0,0)" d="M 690,1004 L 802,877 819,891 707,1018 Z"/>
  <path fill="rgb(255,0,0)" stroke="rgb(255,0,0)" d="M 243,302 L 243,302 238,308 232,315 226,323 219,331 212,341 204,350 188,372 171,395 154,419 136,445 119,470 103,496 89,520 77,544 71,555 67,567 63,577 60,587 58,595 57,604 56,611 57,617 56,615 58,622 58,620 61,626 58,623 63,628 61,626 67,631 65,630 72,634 79,637 88,639 97,641 108,642 121,644 133,645 147,646 162,646 177,646 209,646 243,644 275,643 309,642 341,640 357,639 371,639 386,639 399,640 413,642 425,642 435,644 446,646 455,649 463,653 463,653 C 464,653 464,654 465,654 L 465,654 470,658 476,663 476,663 C 476,663 477,664 478,664 L 481,668 481,668 C 481,669 482,670 483,670 L 485,674 485,674 C 485,675 486,676 486,677 L 488,681 488,681 C 489,681 489,683 489,684 L 489,684 490,688 492,695 492,702 492,702 C 492,703 492,704 492,705 L 492,705 490,716 486,730 481,744 475,758 468,772 462,785 455,798 449,811 445,823 441,834 439,844 440,842 439,847 441,851 443,871 448,892 454,912 461,931 465,940 470,948 476,956 483,963 489,968 497,974 505,979 514,983 526,987 539,990 555,994 572,996 591,999 611,1001 631,1003 651,1003 671,1003 691,1002 709,1000 726,997 742,994 756,988 768,983 772,980 776,977 779,973 781,970 780,972 786,959 785,962 789,948 791,934 791,918 791,901 790,882 789,863 785,824 784,805 782,786 782,768 784,751 787,735 787,735 C 787,734 787,733 787,733 L 792,720 792,720 C 792,719 792,719 793,718 L 793,718 799,707 807,696 817,686 827,677 838,670 849,662 873,651 896,640 918,630 927,626 936,621 944,617 951,611 963,602 974,593 983,584 991,576 998,568 1004,558 1007,553 1010,547 1014,540 1017,532 1022,523 1029,513 1036,502 1043,492 1059,469 1066,458 1073,447 1078,435 1083,424 1085,413 1087,401 1087,404 1086,391 1086,393 1085,387 1083,381 1081,376 1078,371 1075,366 1071,361 1066,355 1059,348 1052,341 1043,334 1034,326 1024,317 1014,309 1003,301 978,283 952,265 924,247 895,230 866,213 837,198 809,184 781,171 755,161 743,156 731,154 720,150 709,148 700,147 691,146 684,146 677,147 670,149 664,152 658,156 651,159 645,165 639,170 626,183 614,198 604,215 593,232 582,250 572,268 562,285 551,301 541,317 535,324 530,329 524,335 518,340 511,344 511,344 C 511,345 510,345 509,345 L 509,345 504,348 497,350 490,351 490,351 C 490,352 489,352 488,352 L 478,352 478,352 C 476,352 476,352 474,352 L 464,350 464,350 C 463,350 462,350 462,350 L 462,350 452,346 440,341 428,335 418,327 408,320 388,303 378,295 370,288 362,282 354,278 347,274 349,275 341,273 326,269 312,266 300,263 295,263 291,264 286,264 288,264 282,266 277,268 272,272 266,278 259,284 251,292 243,302 Z M 231,273 L 231,273 240,263 248,255 257,248 265,243 273,239 280,237 280,237 C 280,237 281,236 282,236 L 282,236 289,236 297,235 305,236 319,238 332,242 348,245 357,247 357,247 C 357,247 358,248 359,249 L 359,249 369,253 378,259 388,266 397,273 406,282 425,297 434,304 443,310 452,315 460,320 471,323 469,322 479,324 476,324 487,324 485,324 489,323 492,322 498,320 496,320 500,318 504,315 509,310 513,306 518,300 527,287 537,271 547,254 558,236 569,217 581,198 593,181 606,163 620,149 628,142 636,136 644,131 653,126 663,122 673,119 683,118 693,118 704,119 715,121 727,123 739,126 752,130 765,135 792,145 821,159 851,173 880,189 910,205 939,224 968,242 995,260 1020,278 1031,287 1043,296 1053,304 1063,313 1071,321 1080,329 1087,336 1093,343 1099,350 1104,359 1107,366 1111,373 1113,381 1114,388 1114,388 C 1114,388 1114,390 1114,390 L 1115,403 1115,403 C 1115,404 1115,404 1115,405 L 1115,405 1113,420 1109,434 1104,448 1097,461 1090,474 1083,485 1066,508 1059,518 1052,527 1048,536 1043,544 1039,553 1036,560 1031,567 1028,574 1020,586 1011,596 1002,605 992,614 981,623 967,635 959,641 950,646 939,652 929,657 908,666 885,676 864,686 854,692 845,699 838,705 830,713 824,721 817,732 819,730 814,742 814,740 812,753 811,768 811,784 812,803 813,821 817,861 818,881 819,901 820,919 819,938 816,955 812,970 812,970 C 812,971 812,971 811,972 L 805,984 805,984 C 805,985 805,985 804,986 L 804,986 799,993 793,999 787,1003 780,1008 765,1015 749,1021 731,1025 712,1028 692,1030 671,1031 650,1031 629,1031 608,1029 588,1027 568,1024 549,1021 532,1018 516,1014 503,1009 491,1003 480,997 470,989 461,981 453,972 446,963 440,952 435,942 426,920 420,898 415,876 412,854 411,847 411,842 411,842 C 411,840 411,840 411,840 L 411,840 414,826 418,813 423,800 429,786 436,772 443,759 449,747 455,734 459,723 462,712 464,701 463,703 463,699 463,695 462,691 462,693 460,688 461,690 459,685 460,686 456,683 458,684 455,681 449,677 450,679 446,677 439,674 431,672 422,670 411,670 399,669 386,668 372,668 357,668 343,668 310,670 277,671 243,672 210,674 177,674 161,674 146,674 131,673 117,672 104,671 91,669 79,666 68,663 58,658 51,654 51,654 C 50,654 49,653 49,653 L 43,648 43,648 C 42,648 42,646 41,646 L 37,640 37,640 C 36,639 35,639 35,637 L 32,631 32,631 C 32,630 31,630 31,629 L 29,622 29,622 C 29,621 29,620 29,619 L 29,619 28,610 29,600 30,589 33,579 36,567 40,556 45,544 51,532 64,506 79,481 96,455 112,428 131,403 148,378 166,355 182,334 189,324 197,314 204,306 210,298 216,290 221,284 231,273 Z"/>
  <path fill="rgb(255,0,0)" stroke="none" d="M 903,639 L 1074,446 1090,461 919,654 903,639 Z"/>
  <path stroke-width="1" fill="none" stroke="rgb(255,0,0)" d="M 903,639 L 1074,446 1090,461 919,654 903,639 Z"/>
  </g>
 </g>
</svg>