<?xml version="1.0" encoding="UTF-8"?>

<svg version="1.2" width="150px" height="150px" viewBox="0 0 1160 1160" xmlns="http://www.w3.org/2000/svg" xmlns:xlink="http://www.w3.org/1999/xlink">
 <g visibility="visible" id="MasterSlide_1_Standard">
  <g id="DrawingGroup_1">
   <g>
   <path fill="rgb(0,0,0)" stroke="none" d="M 576,170 L 576,170 C 572,170 569,170 566,170 562,170 558,171 555,171 551,171 547,172 544,172 539,172 535,173 531,173 526,173 521,174 517,174 512,174 507,175 502,175 492,176 482,177 473,178 462,179 452,181 442,182 432,183 422,185 412,186 407,187 402,187 398,188 393,189 389,190 385,191 381,192 377,192 373,193 369,194 365,195 362,196 355,198 349,199 343,201 337,203 331,205 325,207 318,210 312,212 306,215 299,217 293,219 287,221 283,222 280,223 277,224 273,225 269,226 266,227 263,228 260,229 257,230 256,230 255,231 254,231 252,232 251,233 250,234 225,251 200,268 175,285 176,284 177,283 178,282 153,321 127,360 102,399 99,402 97,405 94,409 92,412 89,415 87,419 85,422 83,425 81,428 80,429 80,430 79,432 78,433 78,434 77,436 69,462 60,488 52,514 52,512 53,510 53,509 53,513 54,517 54,522 54,526 55,530 55,534 56,538 56,542 57,546 57,549 58,552 58,556 58,559 59,562 59,566 59,569 60,572 60,575 61,580 61,585 62,591 63,596 63,602 64,607 65,613 67,618 68,623 68,626 69,629 69,632 70,635 71,638 72,641 73,645 73,648 74,651 75,655 77,659 78,662 80,669 81,676 83,683 85,690 86,697 88,703 89,706 89,709 90,712 91,715 93,718 94,721 95,724 96,727 97,730 99,733 100,736 102,738 104,742 106,745 108,748 110,752 112,756 114,759 118,767 121,774 125,781 127,784 128,787 130,790 132,793 134,796 136,799 138,802 141,805 143,807 143,807 142,807 142,806 145,809 147,811 150,813 188,839 226,865 264,890 267,893 270,896 273,898 276,901 279,903 283,905 286,907 289,909 292,911 293,912 294,913 296,914 297,914 298,915 300,915 338,928 376,941 414,954 426,958 439,963 452,967 458,969 464,972 471,974 474,975 477,976 480,977 483,978 486,979 489,980 510,984 531,989 552,993 551,993 550,992 549,992 560,991 572,991 584,990 595,989 607,988 618,987 630,986 642,985 653,984 659,983 665,983 670,982 676,981 681,981 686,980 690,979 693,979 696,978 699,977 702,976 705,975 711,973 717,970 723,968 730,966 736,963 742,961 749,959 755,956 761,954 764,953 767,952 770,951 774,950 777,948 780,947 784,946 787,944 790,943 794,942 797,942 800,941 810,939 819,937 828,935 838,933 848,931 857,929 867,927 877,925 886,923 896,920 905,918 914,915 921,913 927,911 933,909 940,908 947,906 953,905 956,904 959,903 962,902 965,901 968,900 971,898 974,897 977,896 980,895 982,894 985,892 987,890 1000,882 1012,873 1025,864 1024,865 1023,866 1022,867 1039,841 1056,815 1073,789 1075,786 1078,783 1080,780 1082,777 1085,774 1087,770 1089,767 1092,764 1094,761 1094,760 1095,759 1095,757 1096,756 1096,754 1097,752 1101,740 1105,727 1109,714 1109,716 1109,717 1109,718 1109,715 1108,712 1108,708 1108,705 1108,702 1108,698 1107,693 1107,687 1106,681 1106,676 1105,671 1105,665 1105,661 1104,656 1104,651 1104,647 1104,643 1104,639 1104,636 1103,632 1103,628 1103,625 1102,622 1102,618 1102,615 1101,612 1101,608 1100,603 1100,597 1099,591 1099,589 1098,586 1098,583 1097,580 1097,577 1096,574 1095,570 1095,567 1094,564 1093,560 1092,556 1091,552 1090,548 1089,544 1088,540 1087,535 1085,530 1084,526 1082,519 1081,512 1079,506 1078,503 1077,500 1076,497 1075,494 1073,491 1072,489 1070,485 1069,481 1067,478 1065,474 1064,470 1062,466 1060,462 1059,458 1057,454 1055,450 1054,446 1052,443 1050,439 1049,436 1047,433 1045,430 1043,427 1041,425 1041,425 1042,426 1042,427 1039,424 1037,421 1034,419 1034,419 1035,419 1035,420 1034,419 1032,418 1031,418 1030,417 1028,416 1027,416 1015,411 1002,407 990,403 L 990,403 C 986,402 984,400 983,396 L 983,396 C 982,393 981,390 980,388 979,385 979,383 978,381 977,378 977,376 976,374 975,372 975,370 974,369 974,367 973,365 973,364 973,363 973,362 972,361 972,360 972,359 971,358 971,357 971,356 971,356 971,356 971,356 970,356 L 970,356 C 970,355 970,354 970,354 L 970,354 C 970,353 970,353 970,353 976,355 982,357 988,359 L 988,359 C 989,356 990,353 991,351 991,351 991,352 991,353 991,354 991,355 991,356 991,357 990,358 990,360 L 990,360 C 990,361 990,362 989,363 989,363 988,364 988,365 L 988,365 C 987,367 985,368 983,370 982,370 982,370 981,370 L 981,370 C 979,372 976,372 974,371 973,370 972,370 971,370 L 971,370 C 970,370 969,370 968,369 968,368 967,368 966,368 L 966,368 C 966,367 965,368 965,367 L 965,367 C 964,366 963,366 962,366 961,364 960,363 959,362 958,361 957,360 955,359 954,357 952,355 950,354 949,352 947,350 945,349 944,346 942,344 940,342 938,339 936,337 934,335 L 934,335 C 933,334 934,334 933,334 933,332 932,330 931,329 L 931,329 C 930,329 930,328 929,327 929,325 929,323 928,322 L 928,322 C 928,321 928,321 928,321 L 928,321 C 928,317 927,313 926,310 926,308 926,306 925,305 925,303 925,302 924,301 924,299 924,298 923,297 924,298 924,299 924,300 923,298 922,297 921,296 922,296 922,296 922,297 919,294 916,291 913,288 910,285 907,282 904,280 901,278 898,275 895,273 893,271 890,270 887,268 885,266 882,264 879,262 877,260 874,259 871,257 865,254 859,252 853,249 848,247 842,244 836,242 830,240 824,237 817,235 810,233 803,231 796,229 789,226 782,224 774,221 772,220 770,220 767,219 766,218 764,218 762,217 759,216 756,215 752,214 750,213 747,212 744,211 742,210 740,210 738,209 737,208 735,208 733,207 732,207 731,206 729,206 727,205 724,205 721,204 720,204 718,203 716,203 714,203 712,202 710,202 708,201 706,201 704,200 701,199 698,198 695,197 694,197 692,197 690,197 688,196 686,196 684,195 682,194 680,194 678,193 676,193 674,192 671,192 669,191 666,191 663,190 660,189 657,188 654,187 651,186 648,186 645,185 642,184 639,184 635,183 632,182 629,181 625,180 623,179 621,179 618,178 616,177 614,177 612,176 611,175 609,175 607,174 606,173 605,173 604,172 603,172 602,171 600,171 600,171 600,170 599,170 599,170 598,169 597,169 598,169 599,170 599,170 598,170 597,169 596,169 597,169 598,169 599,169 599,169 598,169 597,169 597,169 597,169 596,169 595,169 594,169 593,169 592,169 590,169 588,169 586,169 585,169 583,169 580,169 578,170 576,170 Z M 582,149 L 582,149 C 584,149 586,148 588,148 590,148 591,148 592,148 594,148 595,148 596,148 598,148 599,148 600,148 601,148 601,148 601,148 L 601,148 C 602,148 603,149 604,149 605,149 606,150 606,150 L 606,150 C 607,150 608,150 608,151 L 608,151 C 609,151 609,151 609,151 610,151 611,152 611,152 612,152 612,153 612,153 613,153 614,154 615,154 617,155 618,155 619,156 621,157 623,157 624,158 627,159 629,159 631,160 634,161 637,161 640,162 644,163 647,163 650,164 654,165 657,166 660,167 663,168 666,168 668,169 671,170 674,170 676,171 679,172 681,172 683,173 686,173 688,174 690,174 692,175 694,175 695,176 697,176 699,177 700,177 703,178 706,178 709,179 712,180 714,180 716,181 718,182 720,182 721,183 723,183 725,183 727,183 730,184 733,185 735,186 737,186 738,187 739,187 741,188 743,188 745,189 747,190 749,190 751,191 754,192 757,193 759,194 763,195 766,196 769,197 771,198 773,198 774,199 777,200 779,200 781,201 789,204 796,206 803,209 810,211 817,213 824,215 831,217 837,220 843,222 850,225 856,227 862,230 869,233 875,236 881,239 884,241 887,242 890,244 894,246 897,248 900,250 903,252 906,255 909,257 912,259 915,262 918,264 922,267 925,270 928,273 931,276 934,279 937,282 L 937,282 C 938,282 938,282 938,283 939,284 940,285 941,287 L 941,287 C 942,288 942,289 942,290 L 942,290 C 943,292 944,294 945,296 946,297 946,299 946,301 947,303 947,305 947,307 948,310 948,313 948,317 948,316 948,315 948,315 949,316 950,318 950,320 950,319 950,319 949,319 950,320 951,321 952,323 952,322 952,322 951,322 953,324 955,326 956,329 958,331 960,333 961,335 963,336 965,338 966,340 967,341 968,342 969,343 970,344 971,345 972,346 973,346 974,347 975,348 976,348 976,349 977,350 977,349 976,349 976,349 977,349 977,349 978,350 977,350 977,350 976,350 977,350 978,350 979,351 977,351 974,351 972,351 973,350 973,350 974,350 973,351 971,353 969,355 970,354 970,353 970,353 970,354 970,355 969,356 970,355 970,355 970,355 970,354 970,354 970,354 970,353 970,353 970,353 L 970,353 C 969,349 971,346 972,344 973,344 973,344 973,344 L 973,344 C 976,341 980,340 984,342 987,343 990,346 991,350 L 991,350 C 991,350 991,350 991,351 991,350 990,349 990,349 990,349 991,350 991,351 991,351 991,352 991,353 991,353 992,354 992,355 992,356 993,357 993,358 994,359 994,360 995,362 995,364 996,366 996,368 997,370 997,372 998,374 999,376 999,378 1000,381 1001,384 1002,387 1003,390 1001,387 998,385 996,383 1009,387 1022,392 1035,397 1037,398 1040,399 1042,400 1044,400 1045,401 1047,402 L 1047,402 C 1047,403 1047,403 1048,404 1051,406 1053,408 1056,411 L 1056,411 C 1057,411 1057,412 1057,413 L 1057,413 C 1060,416 1062,419 1065,423 1067,426 1069,430 1071,434 1073,438 1074,442 1076,446 1078,450 1079,454 1081,458 1083,461 1084,465 1086,469 1088,472 1089,476 1091,480 1093,483 1094,486 1096,490 1097,493 1098,497 1099,501 1101,507 1103,513 1105,520 1106,525 1108,530 1109,535 1110,539 1111,543 1112,548 1113,551 1113,555 1114,559 1115,562 1116,566 1117,570 1117,573 1118,576 1118,580 1119,583 1119,586 1120,589 1121,595 1121,601 1122,607 1122,610 1123,613 1123,616 1123,620 1124,624 1124,627 1124,631 1124,635 1124,638 1124,642 1125,646 1125,650 1125,655 1126,660 1126,664 1126,669 1127,674 1127,679 1127,685 1128,691 1128,697 1128,700 1129,703 1129,706 1129,710 1130,713 1130,716 L 1130,716 C 1130,718 1130,719 1130,720 L 1130,720 C 1126,734 1121,747 1117,760 1116,762 1115,764 1114,766 1113,768 1112,770 1111,772 1109,776 1106,780 1104,783 1102,786 1099,789 1097,792 1095,795 1092,798 1090,801 1073,827 1057,853 1040,879 L 1040,879 C 1039,880 1038,881 1037,882 L 1037,882 C 1024,891 1011,900 998,908 995,910 992,912 989,914 986,916 982,917 979,919 976,920 973,921 969,922 966,923 963,924 959,925 953,927 946,928 939,930 933,932 926,933 919,935 910,938 901,940 891,943 882,945 872,948 862,950 853,952 843,954 833,956 824,958 815,959 805,961 802,962 799,963 796,964 793,965 790,966 787,967 784,968 781,970 777,971 774,972 771,973 768,974 762,976 756,979 750,981 744,984 737,986 730,989 724,991 717,993 710,995 707,996 704,997 700,998 697,999 694,999 690,1000 684,1001 678,1002 672,1003 666,1004 660,1004 654,1005 643,1006 631,1008 619,1009 608,1010 596,1010 585,1011 573,1012 561,1012 550,1013 L 550,1013 C 549,1013 549,1013 548,1013 L 548,1013 C 526,1009 504,1004 483,1000 479,999 476,998 473,997 469,996 466,995 463,994 457,992 451,989 445,987 432,983 419,978 406,974 368,961 330,948 292,935 290,934 288,933 286,932 283,931 281,930 279,929 275,927 272,924 269,922 266,919 263,917 261,914 258,912 255,910 252,908 213,882 175,856 137,829 134,827 131,825 128,822 L 128,822 C 128,822 127,822 127,821 L 127,821 C 124,818 121,815 118,811 116,808 114,805 112,801 110,798 108,794 106,790 102,783 99,776 95,768 93,765 92,762 90,758 88,755 85,752 83,748 81,745 80,742 78,739 77,736 75,733 74,729 73,726 71,722 70,718 69,715 68,712 67,708 65,702 64,695 62,688 60,682 59,675 57,668 56,665 55,661 54,657 53,654 52,650 51,646 50,643 50,640 49,637 48,634 48,631 47,627 46,622 44,616 43,610 42,605 42,599 41,593 40,588 40,582 39,577 39,574 38,571 38,568 38,564 37,561 37,558 37,554 36,551 36,548 35,544 35,540 34,537 34,533 33,529 33,525 32,520 32,515 31,511 L 31,511 C 31,510 31,509 32,507 L 32,507 C 41,480 49,454 58,428 59,426 59,424 60,422 61,420 63,418 64,416 66,412 68,408 70,405 73,402 75,399 78,397 80,393 82,390 84,387 109,348 135,309 160,271 L 160,271 C 161,269 162,268 163,268 L 163,268 C 189,250 214,233 240,215 241,214 243,213 245,212 247,211 249,211 251,210 254,209 257,207 261,206 264,205 267,205 270,204 273,203 276,203 279,202 285,200 291,197 298,195 304,192 310,190 317,187 323,185 330,183 337,181 343,179 350,177 357,175 361,174 365,173 369,172 373,171 377,171 382,170 386,169 390,168 395,167 400,166 405,166 410,165 420,164 430,162 440,161 450,160 460,158 471,157 481,156 491,155 501,154 505,154 510,153 515,153 519,153 524,152 529,152 533,152 537,151 542,151 546,151 550,150 554,150 557,150 561,150 565,150 568,150 571,149 574,149 576,149 579,149 582,149 Z"/>
   <path fill="none" stroke="rgb(0,0,0)" id="Drawing_1_0" d="M 576,170 L 576,170 C 572,170 569,170 566,170 562,170 558,171 555,171 551,171 547,172 544,172 539,172 535,173 531,173 526,173 521,174 517,174 512,174 507,175 502,175 492,176 482,177 473,178 462,179 452,181 442,182 432,183 422,185 412,186 407,187 402,187 398,188 393,189 389,190 385,191 381,192 377,192 373,193 369,194 365,195 362,196 355,198 349,199 343,201 337,203 331,205 325,207 318,210 312,212 306,215 299,217 293,219 287,221 283,222 280,223 277,224 273,225 269,226 266,227 263,228 260,229 257,230 256,230 255,231 254,231 252,232 251,233 250,234 225,251 200,268 175,285 176,284 177,283 178,282 153,321 127,360 102,399 99,402 97,405 94,409 92,412 89,415 87,419 85,422 83,425 81,428 80,429 80,430 79,432 78,433 78,434 77,436 69,462 60,488 52,514 52,512 53,510 53,509 53,513 54,517 54,522 54,526 55,530 55,534 56,538 56,542 57,546 57,549 58,552 58,556 58,559 59,562 59,566 59,569 60,572 60,575 61,580 61,585 62,591 63,596 63,602 64,607 65,613 67,618 68,623 68,626 69,629 69,632 70,635 71,638 72,641 73,645 73,648 74,651 75,655 77,659 78,662 80,669 81,676 83,683 85,690 86,697 88,703 89,706 89,709 90,712 91,715 93,718 94,721 95,724 96,727 97,730 99,733 100,736 102,738 104,742 106,745 108,748 110,752 112,756 114,759 118,767 121,774 125,781 127,784 128,787 130,790 132,793 134,796 136,799 138,802 141,805 143,807 143,807 142,807 142,806 145,809 147,811 150,813 188,839 226,865 264,890 267,893 270,896 273,898 276,901 279,903 283,905 286,907 289,909 292,911 293,912 294,913 296,914 297,914 298,915 300,915 338,928 376,941 414,954 426,958 439,963 452,967 458,969 464,972 471,974 474,975 477,976 480,977 483,978 486,979 489,980 510,984 531,989 552,993 551,993 550,992 549,992 560,991 572,991 584,990 595,989 607,988 618,987 630,986 642,985 653,984 659,983 665,983 670,982 676,981 681,981 686,980 690,979 693,979 696,978 699,977 702,976 705,975 711,973 717,970 723,968 730,966 736,963 742,961 749,959 755,956 761,954 764,953 767,952 770,951 774,950 777,948 780,947 784,946 787,944 790,943 794,942 797,942 800,941 810,939 819,937 828,935 838,933 848,931 857,929 867,927 877,925 886,923 896,920 905,918 914,915 921,913 927,911 933,909 940,908 947,906 953,905 956,904 959,903 962,902 965,901 968,900 971,898 974,897 977,896 980,895 982,894 985,892 987,890 1000,882 1012,873 1025,864 1024,865 1023,866 1022,867 1039,841 1056,815 1073,789 1075,786 1078,783 1080,780 1082,777 1085,774 1087,770 1089,767 1092,764 1094,761 1094,760 1095,759 1095,757 1096,756 1096,754 1097,752 1101,740 1105,727 1109,714 1109,716 1109,717 1109,718 1109,715 1108,712 1108,708 1108,705 1108,702 1108,698 1107,693 1107,687 1106,681 1106,676 1105,671 1105,665 1105,661 1104,656 1104,651 1104,647 1104,643 1104,639 1104,636 1103,632 1103,628 1103,625 1102,622 1102,618 1102,615 1101,612 1101,608 1100,603 1100,597 1099,591 1099,589 1098,586 1098,583 1097,580 1097,577 1096,574 1095,570 1095,567 1094,564 1093,560 1092,556 1091,552 1090,548 1089,544 1088,540 1087,535 1085,530 1084,526 1082,519 1081,512 1079,506 1078,503 1077,500 1076,497 1075,494 1073,491 1072,489 1070,485 1069,481 1067,478 1065,474 1064,470 1062,466 1060,462 1059,458 1057,454 1055,450 1054,446 1052,443 1050,439 1049,436 1047,433 1045,430 1043,427 1041,425 1041,425 1042,426 1042,427 1039,424 1037,421 1034,419 1034,419 1035,419 1035,420 1034,419 1032,418 1031,418 1030,417 1028,416 1027,416 1015,411 1002,407 990,403 L 990,403 C 986,402 984,400 983,396 L 983,396 C 982,393 981,390 980,388 979,385 979,383 978,381 977,378 977,376 976,374 975,372 975,370 974,369 974,367 973,365 973,364 973,363 973,362 972,361 972,360 972,359 971,358 971,357 971,356 971,356 971,356 971,356 970,356 L 970,356 C 970,355 970,354 970,354 L 970,354 C 970,353 970,353 970,353 976,355 982,357 988,359 L 988,359 C 989,356 990,353 991,351 991,351 991,352 991,353 991,354 991,355 991,356 991,357 990,358 990,360 L 990,360 C 990,361 990,362 989,363 989,363 988,364 988,365 L 988,365 C 987,367 985,368 983,370 982,370 982,370 981,370 L 981,370 C 979,372 976,372 974,371 973,370 972,370 971,370 L 971,370 C 970,370 969,370 968,369 968,368 967,368 966,368 L 966,368 C 966,367 965,368 965,367 L 965,367 C 964,366 963,366 962,366 961,364 960,363 959,362 958,361 957,360 955,359 954,357 952,355 950,354 949,352 947,350 945,349 944,346 942,344 940,342 938,339 936,337 934,335 L 934,335 C 933,334 934,334 933,334 933,332 932,330 931,329 L 931,329 C 930,329 930,328 929,327 929,325 929,323 928,322 L 928,322 C 928,321 928,321 928,321 L 928,321 C 928,317 927,313 926,310 926,308 926,306 925,305 925,303 925,302 924,301 924,299 924,298 923,297 924,298 924,299 924,300 923,298 922,297 921,296 922,296 922,296 922,297 919,294 916,291 913,288 910,285 907,282 904,280 901,278 898,275 895,273 893,271 890,270 887,268 885,266 882,264 879,262 877,260 874,259 871,257 865,254 859,252 853,249 848,247 842,244 836,242 830,240 824,237 817,235 810,233 803,231 796,229 789,226 782,224 774,221 772,220 770,220 767,219 766,218 764,218 762,217 759,216 756,215 752,214 750,213 747,212 744,211 742,210 740,210 738,209 737,208 735,208 733,207 732,207 731,206 729,206 727,205 724,205 721,204 720,204 718,203 716,203 714,203 712,202 710,202 708,201 706,201 704,200 701,199 698,198 695,197 694,197 692,197 690,197 688,196 686,196 684,195 682,194 680,194 678,193 676,193 674,192 671,192 669,191 666,191 663,190 660,189 657,188 654,187 651,186 648,186 645,185 642,184 639,184 635,183 632,182 629,181 625,180 623,179 621,179 618,178 616,177 614,177 612,176 611,175 609,175 607,174 606,173 605,173 604,172 603,172 602,171 600,171 600,171 600,170 599,170 599,170 598,169 597,169 598,169 599,170 599,170 598,170 597,169 596,169 597,169 598,169 599,169 599,169 598,169 597,169 597,169 597,169 596,169 595,169 594,169 593,169 592,169 590,169 588,169 586,169 585,169 583,169 580,169 578,170 576,170 Z"/>
   <path fill="none" stroke="rgb(0,0,0)" id="Drawing_1_1" d="M 582,149 L 582,149 C 584,149 586,148 588,148 590,148 591,148 592,148 594,148 595,148 596,148 598,148 599,148 600,148 601,148 601,148 601,148 L 601,148 C 602,148 603,149 604,149 605,149 606,150 606,150 L 606,150 C 607,150 608,150 608,151 L 608,151 C 609,151 609,151 609,151 610,151 611,152 611,152 612,152 612,153 612,153 613,153 614,154 615,154 617,155 618,155 619,156 621,157 623,157 624,158 627,159 629,159 631,160 634,161 637,161 640,162 644,163 647,163 650,164 654,165 657,166 660,167 663,168 666,168 668,169 671,170 674,170 676,171 679,172 681,172 683,173 686,173 688,174 690,174 692,175 694,175 695,176 697,176 699,177 700,177 703,178 706,178 709,179 712,180 714,180 716,181 718,182 720,182 721,183 723,183 725,183 727,183 730,184 733,185 735,186 737,186 738,187 739,187 741,188 743,188 745,189 747,190 749,190 751,191 754,192 757,193 759,194 763,195 766,196 769,197 771,198 773,198 774,199 777,200 779,200 781,201 789,204 796,206 803,209 810,211 817,213 824,215 831,217 837,220 843,222 850,225 856,227 862,230 869,233 875,236 881,239 884,241 887,242 890,244 894,246 897,248 900,250 903,252 906,255 909,257 912,259 915,262 918,264 922,267 925,270 928,273 931,276 934,279 937,282 L 937,282 C 938,282 938,282 938,283 939,284 940,285 941,287 L 941,287 C 942,288 942,289 942,290 L 942,290 C 943,292 944,294 945,296 946,297 946,299 946,301 947,303 947,305 947,307 948,310 948,313 948,317 948,316 948,315 948,315 949,316 950,318 950,320 950,319 950,319 949,319 950,320 951,321 952,323 952,322 952,322 951,322 953,324 955,326 956,329 958,331 960,333 961,335 963,336 965,338 966,340 967,341 968,342 969,343 970,344 971,345 972,346 973,346 974,347 975,348 976,348 976,349 977,350 977,349 976,349 976,349 977,349 977,349 978,350 977,350 977,350 976,350 977,350 978,350 979,351 977,351 974,351 972,351 973,350 973,350 974,350 973,351 971,353 969,355 970,354 970,353 970,353 970,354 970,355 969,356 970,355 970,355 970,355 970,354 970,354 970,354 970,353 970,353 970,353 L 970,353 C 969,349 971,346 972,344 973,344 973,344 973,344 L 973,344 C 976,341 980,340 984,342 987,343 990,346 991,350 L 991,350 C 991,350 991,350 991,351 991,350 990,349 990,349 990,349 991,350 991,351 991,351 991,352 991,353 991,353 992,354 992,355 992,356 993,357 993,358 994,359 994,360 995,362 995,364 996,366 996,368 997,370 997,372 998,374 999,376 999,378 1000,381 1001,384 1002,387 1003,390 1001,387 998,385 996,383 1009,387 1022,392 1035,397 1037,398 1040,399 1042,400 1044,400 1045,401 1047,402 L 1047,402 C 1047,403 1047,403 1048,404 1051,406 1053,408 1056,411 L 1056,411 C 1057,411 1057,412 1057,413 L 1057,413 C 1060,416 1062,419 1065,423 1067,426 1069,430 1071,434 1073,438 1074,442 1076,446 1078,450 1079,454 1081,458 1083,461 1084,465 1086,469 1088,472 1089,476 1091,480 1093,483 1094,486 1096,490 1097,493 1098,497 1099,501 1101,507 1103,513 1105,520 1106,525 1108,530 1109,535 1110,539 1111,543 1112,548 1113,551 1113,555 1114,559 1115,562 1116,566 1117,570 1117,573 1118,576 1118,580 1119,583 1119,586 1120,589 1121,595 1121,601 1122,607 1122,610 1123,613 1123,616 1123,620 1124,624 1124,627 1124,631 1124,635 1124,638 1124,642 1125,646 1125,650 1125,655 1126,660 1126,664 1126,669 1127,674 1127,679 1127,685 1128,691 1128,697 1128,700 1129,703 1129,706 1129,710 1130,713 1130,716 L 1130,716 C 1130,718 1130,719 1130,720 L 1130,720 C 1126,734 1121,747 1117,760 1116,762 1115,764 1114,766 1113,768 1112,770 1111,772 1109,776 1106,780 1104,783 1102,786 1099,789 1097,792 1095,795 1092,798 1090,801 1073,827 1057,853 1040,879 L 1040,879 C 1039,880 1038,881 1037,882 L 1037,882 C 1024,891 1011,900 998,908 995,910 992,912 989,914 986,916 982,917 979,919 976,920 973,921 969,922 966,923 963,924 959,925 953,927 946,928 939,930 933,932 926,933 919,935 910,938 901,940 891,943 882,945 872,948 862,950 853,952 843,954 833,956 824,958 815,959 805,961 802,962 799,963 796,964 793,965 790,966 787,967 784,968 781,970 777,971 774,972 771,973 768,974 762,976 756,979 750,981 744,984 737,986 730,989 724,991 717,993 710,995 707,996 704,997 700,998 697,999 694,999 690,1000 684,1001 678,1002 672,1003 666,1004 660,1004 654,1005 643,1006 631,1008 619,1009 608,1010 596,1010 585,1011 573,1012 561,1012 550,1013 L 550,1013 C 549,1013 549,1013 548,1013 L 548,1013 C 526,1009 504,1004 483,1000 479,999 476,998 473,997 469,996 466,995 463,994 457,992 451,989 445,987 432,983 419,978 406,974 368,961 330,948 292,935 290,934 288,933 286,932 283,931 281,930 279,929 275,927 272,924 269,922 266,919 263,917 261,914 258,912 255,910 252,908 213,882 175,856 137,829 134,827 131,825 128,822 L 128,822 C 128,822 127,822 127,821 L 127,821 C 124,818 121,815 118,811 116,808 114,805 112,801 110,798 108,794 106,790 102,783 99,776 95,768 93,765 92,762 90,758 88,755 85,752 83,748 81,745 80,742 78,739 77,736 75,733 74,729 73,726 71,722 70,718 69,715 68,712 67,708 65,702 64,695 62,688 60,682 59,675 57,668 56,665 55,661 54,657 53,654 52,650 51,646 50,643 50,640 49,637 48,634 48,631 47,627 46,622 44,616 43,610 42,605 42,599 41,593 40,588 40,582 39,577 39,574 38,571 38,568 38,564 37,561 37,558 37,554 36,551 36,548 35,544 35,540 34,537 34,533 33,529 33,525 32,520 32,515 31,511 L 31,511 C 31,510 31,509 32,507 L 32,507 C 41,480 49,454 58,428 59,426 59,424 60,422 61,420 63,418 64,416 66,412 68,408 70,405 73,402 75,399 78,397 80,393 82,390 84,387 109,348 135,309 160,271 L 160,271 C 161,269 162,268 163,268 L 163,268 C 189,250 214,233 240,215 241,214 243,213 245,212 247,211 249,211 251,210 254,209 257,207 261,206 264,205 267,205 270,204 273,203 276,203 279,202 285,200 291,197 298,195 304,192 310,190 317,187 323,185 330,183 337,181 343,179 350,177 357,175 361,174 365,173 369,172 373,171 377,171 382,170 386,169 390,168 395,167 400,166 405,166 410,165 420,164 430,162 440,161 450,160 460,158 471,157 481,156 491,155 501,154 505,154 510,153 515,153 519,153 524,152 529,152 533,152 537,151 542,151 546,151 550,150 554,150 557,150 561,150 565,150 568,150 571,149 574,149 576,149 579,149 582,149 Z"/>
   </g>
   <g>
   <path fill="rgb(0,0,0)" stroke="none" d="M 276,212 C 201,303 127,394 52,485 50,483 49,481 47,480 122,389 196,298 271,208 272,209 274,211 276,212 Z"/>
   <path fill="none" stroke="rgb(0,0,0)" id="Drawing_2_0" d="M 276,212 C 201,303 127,394 52,485 50,483 49,481 47,480 122,389 196,298 271,208 272,209 274,211 276,212 Z"/>
   </g>
   <g>
   <path fill="rgb(0,0,0)" stroke="none" d="M 357,184 C 253,307 150,430 47,553 45,551 44,550 42,549 145,426 248,303 352,180 353,181 355,183 357,184 Z"/>
   <path fill="none" stroke="rgb(0,0,0)" id="Drawing_3_0" d="M 357,184 C 253,307 150,430 47,553 45,551 44,550 42,549 145,426 248,303 352,180 353,181 355,183 357,184 Z"/>
   </g>
   <g>
   <path fill="rgb(0,0,0)" stroke="none" d="M 435,168 C 308,320 182,472 55,623 53,622 52,621 50,619 177,468 303,316 430,164 431,165 433,167 435,168 Z"/>
   <path fill="none" stroke="rgb(0,0,0)" id="Drawing_4_0" d="M 435,168 C 308,320 182,472 55,623 53,622 52,621 50,619 177,468 303,316 430,164 431,165 433,167 435,168 Z"/>
   </g>
   <g>
   <path fill="rgb(0,0,0)" stroke="none" d="M 494,163 C 352,332 211,502 70,671 68,670 67,669 65,667 206,498 347,328 489,159 490,160 492,162 494,163 Z"/>
   <path fill="none" stroke="rgb(0,0,0)" id="Drawing_5_0" d="M 494,163 C 352,332 211,502 70,671 68,670 67,669 65,667 206,498 347,328 489,159 490,160 492,162 494,163 Z"/>
   </g>
   <g>
   <path fill="rgb(0,0,0)" stroke="none" d="M 662,179 C 487,391 311,602 135,814 133,813 132,812 130,810 306,598 482,387 657,175 659,176 661,178 662,179 Z"/>
   <path fill="none" stroke="rgb(0,0,0)" id="Drawing_6_0" d="M 662,179 C 487,391 311,602 135,814 133,813 132,812 130,810 306,598 482,387 657,175 659,176 661,178 662,179 Z"/>
   </g>
   <g>
   <path fill="rgb(0,0,0)" stroke="none" d="M 710,191 C 531,406 351,622 171,837 169,836 168,835 166,833 346,618 526,402 705,187 707,188 709,190 710,191 Z"/>
   <path fill="none" stroke="rgb(0,0,0)" id="Drawing_7_0" d="M 710,191 C 531,406 351,622 171,837 169,836 168,835 166,833 346,618 526,402 705,187 707,188 709,190 710,191 Z"/>
   </g>
   <g>
   <path fill="rgb(0,0,0)" stroke="none" d="M 558,157 C 400,346 242,535 84,724 82,723 81,722 79,720 237,531 395,342 553,153 554,154 556,156 558,157 Z"/>
   <path fill="none" stroke="rgb(0,0,0)" id="Drawing_8_0" d="M 558,157 C 400,346 242,535 84,724 82,723 81,722 79,720 237,531 395,342 553,153 554,154 556,156 558,157 Z"/>
   </g>
   <g>
   <path fill="rgb(0,0,0)" stroke="none" d="M 614,165 C 446,366 277,567 109,768 107,767 106,766 104,764 272,563 441,362 609,161 611,162 613,164 614,165 Z"/>
   <path fill="none" stroke="rgb(0,0,0)" id="Drawing_9_0" d="M 614,165 C 446,366 277,567 109,768 107,767 106,766 104,764 272,563 441,362 609,161 611,162 613,164 614,165 Z"/>
   </g>
   <g>
   <path fill="rgb(0,0,0)" stroke="none" d="M 764,206 C 580,427 395,647 210,868 208,867 206,866 205,864 390,643 575,423 759,202 761,203 763,205 764,206 Z"/>
   <path fill="none" stroke="rgb(0,0,0)" id="Drawing_10_0" d="M 764,206 C 580,427 395,647 210,868 208,867 206,866 205,864 390,643 575,423 759,202 761,203 763,205 764,206 Z"/>
   </g>
   <g>
   <path fill="rgb(0,0,0)" stroke="none" d="M 811,222 C 624,446 436,671 249,895 247,894 245,893 244,891 431,667 619,442 806,218 808,219 810,221 811,222 Z"/>
   <path fill="none" stroke="rgb(0,0,0)" id="Drawing_11_0" d="M 811,222 C 624,446 436,671 249,895 247,894 245,893 244,891 431,667 619,442 806,218 808,219 810,221 811,222 Z"/>
   </g>
   <g>
   <path fill="rgb(0,0,0)" stroke="none" d="M 857,240 C 667,468 478,695 288,923 286,922 284,920 283,919 473,691 662,463 852,235 854,237 856,238 857,240 Z"/>
   <path fill="none" stroke="rgb(0,0,0)" id="Drawing_12_0" d="M 857,240 C 667,468 478,695 288,923 286,922 284,920 283,919 473,691 662,463 852,235 854,237 856,238 857,240 Z"/>
   </g>
   <g>
   <path fill="rgb(0,0,0)" stroke="none" d="M 895,263 C 707,488 519,713 331,938 329,936 327,935 326,933 514,708 702,483 890,258 892,260 894,261 895,263 Z"/>
   <path fill="none" stroke="rgb(0,0,0)" id="Drawing_13_0" d="M 895,263 C 707,488 519,713 331,938 329,936 327,935 326,933 514,708 702,483 890,258 892,260 894,261 895,263 Z"/>
   </g>
   <g>
   <path fill="rgb(0,0,0)" stroke="none" d="M 934,286 C 747,509 559,733 372,956 370,955 368,953 367,952 554,728 741,505 928,281 930,282 932,284 934,286 Z"/>
   <path fill="none" stroke="rgb(0,0,0)" id="Drawing_14_0" d="M 934,286 C 747,509 559,733 372,956 370,955 368,953 367,952 554,728 741,505 928,281 930,282 932,284 934,286 Z"/>
   </g>
   <g>
   <path fill="rgb(0,0,0)" stroke="none" d="M 950,339 C 774,549 598,759 422,969 420,968 418,966 417,965 593,755 769,545 945,335 947,336 949,337 950,339 Z"/>
   <path fill="none" stroke="rgb(0,0,0)" id="Drawing_15_0" d="M 950,339 C 774,549 598,759 422,969 420,968 418,966 417,965 593,755 769,545 945,335 947,336 949,337 950,339 Z"/>
   </g>
   <g>
   <path fill="rgb(0,0,0)" stroke="none" d="M 987,370 C 814,577 641,783 469,990 467,989 465,987 464,986 636,779 809,573 982,366 984,367 985,368 987,370 Z"/>
   <path fill="none" stroke="rgb(0,0,0)" id="Drawing_16_0" d="M 987,370 C 814,577 641,783 469,990 467,989 465,987 464,986 636,779 809,573 982,366 984,367 985,368 987,370 Z"/>
   </g>
   <g>
   <path fill="rgb(0,0,0)" stroke="none" d="M 1017,403 C 851,602 685,801 519,1000 517,999 515,997 514,996 680,797 846,598 1012,399 1014,400 1015,401 1017,403 Z"/>
   <path fill="none" stroke="rgb(0,0,0)" id="Drawing_17_0" d="M 1017,403 C 851,602 685,801 519,1000 517,999 515,997 514,996 680,797 846,598 1012,399 1014,400 1015,401 1017,403 Z"/>
   </g>
   <g>
   <path fill="rgb(0,0,0)" stroke="none" d="M 1058,427 C 897,618 736,810 576,1002 574,1001 572,999 571,998 731,806 892,614 1053,423 1055,424 1056,425 1058,427 Z"/>
   <path fill="none" stroke="rgb(0,0,0)" id="Drawing_18_0" d="M 1058,427 C 897,618 736,810 576,1002 574,1001 572,999 571,998 731,806 892,614 1053,423 1055,424 1056,425 1058,427 Z"/>
   </g>
   <g>
   <path fill="rgb(0,0,0)" stroke="none" d="M 1078,478 C 933,650 788,823 642,996 641,994 639,993 637,991 783,818 928,645 1073,473 1075,474 1076,476 1078,478 Z"/>
   <path fill="none" stroke="rgb(0,0,0)" id="Drawing_19_0" d="M 1078,478 C 933,650 788,823 642,996 641,994 639,993 637,991 783,818 928,645 1073,473 1075,474 1076,476 1078,478 Z"/>
   </g>
   <g>
   <path fill="rgb(0,0,0)" stroke="none" d="M 1097,525 C 969,679 841,834 712,988 711,987 709,985 707,984 836,830 964,675 1092,521 1094,522 1095,523 1097,525 Z"/>
   <path fill="none" stroke="rgb(0,0,0)" id="Drawing_20_0" d="M 1097,525 C 969,679 841,834 712,988 711,987 709,985 707,984 836,830 964,675 1092,521 1094,522 1095,523 1097,525 Z"/>
   </g>
   <g>
   <path fill="rgb(0,0,0)" stroke="none" d="M 1109,582 C 1005,705 901,829 797,953 795,952 793,950 791,949 896,825 1000,701 1104,578 1106,579 1107,580 1109,582 Z"/>
   <path fill="none" stroke="rgb(0,0,0)" id="Drawing_21_0" d="M 1109,582 C 1005,705 901,829 797,953 795,952 793,950 791,949 896,825 1000,701 1104,578 1106,579 1107,580 1109,582 Z"/>
   </g>
   <g>
   <path fill="rgb(0,0,0)" stroke="none" d="M 1115,643 C 1033,742 951,841 868,940 867,939 865,937 863,936 946,837 1028,738 1110,639 1112,641 1113,642 1115,643 Z"/>
   <path fill="none" stroke="rgb(0,0,0)" id="Drawing_22_0" d="M 1115,643 C 1033,742 951,841 868,940 867,939 865,937 863,936 946,837 1028,738 1110,639 1112,641 1113,642 1115,643 Z"/>
   </g>
   <g>
   <path fill="rgb(0,0,0)" stroke="none" d="M 1119,711 C 1060,783 1001,854 942,925 941,924 939,922 937,921 996,850 1055,779 1114,707 1116,709 1117,710 1119,711 Z"/>
   <path fill="none" stroke="rgb(0,0,0)" id="Drawing_23_0" d="M 1119,711 C 1060,783 1001,854 942,925 941,924 939,922 937,921 996,850 1055,779 1114,707 1116,709 1117,710 1119,711 Z"/>
   </g>
   <g>
   <path fill="rgb(0,0,0)" stroke="none" d="M 278,576 L 290,580 C 288,586 285,590 281,593 277,596 272,598 266,598 258,598 252,595 247,590 242,585 240,578 240,569 240,559 242,552 247,547 252,541 259,539 267,539 274,539 279,541 284,545 286,547 288,551 290,556 L 278,558 C 277,555 276,553 274,551 272,550 269,549 266,549 262,549 258,550 256,553 253,556 252,561 252,568 252,575 253,580 256,583 258,587 262,588 266,588 269,588 271,587 274,585 276,583 277,580 278,576 Z"/>
    <rect fill="none" stroke="none" x="239" y="538" width="52" height="61"/>
   </g>
   <g>
   <path fill="rgb(0,0,0)" stroke="none" d="M 299,597 C 299,578 299,559 299,540 304,540 310,540 316,540 319,553 323,566 326,579 330,566 333,553 337,540 342,540 348,540 354,540 354,559 354,578 354,597 350,597 347,597 343,597 343,582 343,567 343,552 339,567 336,582 332,597 328,597 324,597 321,597 317,582 313,567 309,552 309,567 309,582 309,597 L 299,597 Z"/>
    <rect fill="none" stroke="none" x="298" y="539" width="57" height="60"/>
   </g>
   <g>
   <path fill="rgb(0,0,0)" stroke="none" d="M 366,597 C 366,578 366,559 366,540 370,540 374,540 378,540 378,556 378,572 378,587 387,587 397,587 406,587 406,591 406,594 406,597 L 366,597 Z"/>
    <rect fill="none" stroke="none" x="366" y="540" width="42" height="58"/>
   </g>
   <g>
   <path fill="rgb(255,255,102)" stroke="none" d="M 426,666 L 426,666 C 426,582 495,513 581,513 L 581,513 581,513 581,513 C 665,513 733,582 733,666 L 733,666 733,666 733,666 C 733,751 665,820 581,820 L 581,820 581,820 581,820 C 495,820 426,751 426,666 Z"/>
    <rect fill="none" stroke="none" x="425" y="512" width="310" height="310"/>
   </g>
   <g>
   <path fill="rgb(0,0,0)" stroke="none" d="M 418,666 C 418,661 418,656 419,650 419,645 420,640 421,634 422,629 423,624 425,618 427,613 429,608 431,603 433,599 435,594 438,590 440,585 442,581 445,577 448,572 451,568 455,564 458,560 461,556 465,552 469,548 473,545 477,542 481,538 485,535 489,532 493,529 498,526 503,524 507,522 512,520 517,518 522,516 527,514 532,512 537,510 542,509 547,508 552,507 557,506 563,506 568,505 574,505 580,505 585,505 591,505 596,506 602,506 607,507 612,508 617,509 622,510 627,512 633,514 638,516 643,518 648,520 653,522 657,524 662,526 666,529 670,532 674,535 678,538 682,542 686,545 690,548 694,552 698,555 702,559 705,563 708,567 711,571 714,576 717,580 720,584 722,589 725,593 727,598 729,602 731,607 733,612 734,617 736,623 737,628 738,633 739,639 740,644 741,649 742,655 742,660 742,665 742,671 742,677 741,682 740,688 739,693 738,698 737,704 736,709 735,714 733,719 731,724 729,729 727,734 725,739 723,743 720,748 717,752 714,756 711,760 708,764 705,768 702,772 699,776 695,780 691,784 687,788 683,791 679,794 675,797 671,800 667,803 662,806 657,808 653,811 648,813 643,815 638,817 633,819 628,820 623,822 618,823 613,824 608,825 602,826 596,827 591,828 586,828 581,828 575,828 569,828 564,827 558,826 553,825 548,824 543,823 538,822 533,821 528,819 523,817 518,815 513,813 508,811 503,809 498,807 494,804 490,801 486,798 482,795 478,791 474,788 470,785 466,781 462,777 458,773 455,769 452,765 449,761 446,757 443,753 440,749 438,744 435,739 433,734 431,729 429,725 427,720 425,715 423,710 422,705 421,699 420,694 419,689 419,683 418,678 418,672 418,666 Z M 435,680 C 435,685 436,690 437,695 438,700 439,705 441,709 442,714 444,718 446,722 448,727 450,731 452,735 454,739 456,743 459,747 462,751 465,755 468,758 471,762 474,766 477,769 480,772 483,775 487,778 490,781 494,784 498,787 502,790 506,792 511,794 515,796 519,798 523,800 527,802 532,804 537,805 541,807 546,808 551,809 555,810 560,811 565,811 570,811 575,811 580,811 585,811 589,811 594,811 599,811 604,810 609,809 614,808 619,807 623,805 628,804 632,802 636,800 641,798 645,796 649,794 653,792 657,790 661,787 665,784 669,781 672,778 676,775 679,772 682,769 686,766 689,763 692,759 695,756 698,752 700,748 703,744 706,740 708,736 710,732 712,728 714,723 716,719 718,715 719,710 721,706 722,701 723,696 724,691 725,686 725,681 726,676 726,671 726,666 726,661 726,656 725,651 725,647 724,642 723,637 722,633 721,628 719,623 718,619 716,614 714,609 712,605 710,601 708,597 706,593 704,590 701,586 698,582 695,578 692,575 689,571 686,567 683,564 680,561 677,558 673,555 670,552 666,549 662,546 658,543 654,541 649,539 645,536 641,534 637,532 633,530 629,529 624,528 620,526 615,525 610,524 605,523 600,522 595,522 590,521 586,521 581,521 576,521 571,521 566,522 561,522 556,523 551,524 546,525 541,526 537,528 532,529 528,530 524,532 519,534 515,536 511,538 507,540 503,543 499,546 495,548 491,551 488,554 484,557 481,560 478,563 474,566 471,570 468,574 465,577 462,581 459,585 456,589 454,592 452,596 450,601 448,605 446,609 444,614 442,618 441,622 440,627 439,632 438,636 437,641 436,646 435,650 435,655 435,660 435,665 435,670 435,675 435,680 Z"/>
   <path fill="none" stroke="rgb(0,0,0)" id="Drawing_28_0" d="M 418,666 C 418,661 418,656 419,650 419,645 420,640 421,634 422,629 423,624 425,618 427,613 429,608 431,603 433,599 435,594 438,590 440,585 442,581 445,577 448,572 451,568 455,564 458,560 461,556 465,552 469,548 473,545 477,542 481,538 485,535 489,532 493,529 498,526 503,524 507,522 512,520 517,518 522,516 527,514 532,512 537,510 542,509 547,508 552,507 557,506 563,506 568,505 574,505 580,505 585,505 591,505 596,506 602,506 607,507 612,508 617,509 622,510 627,512 633,514 638,516 643,518 648,520 653,522 657,524 662,526 666,529 670,532 674,535 678,538 682,542 686,545 690,548 694,552 698,555 702,559 705,563 708,567 711,571 714,576 717,580 720,584 722,589 725,593 727,598 729,602 731,607 733,612 734,617 736,623 737,628 738,633 739,639 740,644 741,649 742,655 742,660 742,665 742,671 742,677 741,682 740,688 739,693 738,698 737,704 736,709 735,714 733,719 731,724 729,729 727,734 725,739 723,743 720,748 717,752 714,756 711,760 708,764 705,768 702,772 699,776 695,780 691,784 687,788 683,791 679,794 675,797 671,800 667,803 662,806 657,808 653,811 648,813 643,815 638,817 633,819 628,820 623,822 618,823 613,824 608,825 602,826 596,827 591,828 586,828 581,828 575,828 569,828 564,827 558,826 553,825 548,824 543,823 538,822 533,821 528,819 523,817 518,815 513,813 508,811 503,809 498,807 494,804 490,801 486,798 482,795 478,791 474,788 470,785 466,781 462,777 458,773 455,769 452,765 449,761 446,757 443,753 440,749 438,744 435,739 433,734 431,729 429,725 427,720 425,715 423,710 422,705 421,699 420,694 419,689 419,683 418,678 418,672 418,666 Z"/>
   <path fill="none" stroke="rgb(0,0,0)" id="Drawing_28_1" d="M 435,680 C 435,685 436,690 437,695 438,700 439,705 441,709 442,714 444,718 446,722 448,727 450,731 452,735 454,739 456,743 459,747 462,751 465,755 468,758 471,762 474,766 477,769 480,772 483,775 487,778 490,781 494,784 498,787 502,790 506,792 511,794 515,796 519,798 523,800 527,802 532,804 537,805 541,807 546,808 551,809 555,810 560,811 565,811 570,811 575,811 580,811 585,811 589,811 594,811 599,811 604,810 609,809 614,808 619,807 623,805 628,804 632,802 636,800 641,798 645,796 649,794 653,792 657,790 661,787 665,784 669,781 672,778 676,775 679,772 682,769 686,766 689,763 692,759 695,756 698,752 700,748 703,744 706,740 708,736 710,732 712,728 714,723 716,719 718,715 719,710 721,706 722,701 723,696 724,691 725,686 725,681 726,676 726,671 726,666 726,661 726,656 725,651 725,647 724,642 723,637 722,633 721,628 719,623 718,619 716,614 714,609 712,605 710,601 708,597 706,593 704,590 701,586 698,582 695,578 692,575 689,571 686,567 683,564 680,561 677,558 673,555 670,552 666,549 662,546 658,543 654,541 649,539 645,536 641,534 637,532 633,530 629,529 624,528 620,526 615,525 610,524 605,523 600,522 595,522 590,521 586,521 581,521 576,521 571,521 566,522 561,522 556,523 551,524 546,525 541,526 537,528 532,529 528,530 524,532 519,534 515,536 511,538 507,540 503,543 499,546 495,548 491,551 488,554 484,557 481,560 478,563 474,566 471,570 468,574 465,577 462,581 459,585 456,589 454,592 452,596 450,601 448,605 446,609 444,614 442,618 441,622 440,627 439,632 438,636 437,641 436,646 435,650 435,655 435,660 435,665 435,670 435,675 435,680 Z"/>
   </g>
   <g>
   <path fill="rgb(0,0,0)" stroke="none" d="M 641,639 L 609,645 C 608,638 605,633 601,630 597,627 592,625 586,625 578,625 571,628 566,634 561,639 559,649 559,662 559,677 562,688 566,694 571,700 578,704 587,704 593,704 598,702 602,698 606,695 609,688 610,680 L 643,685 C 640,700 633,712 623,719 614,727 601,731 585,731 567,731 552,725 541,713 530,702 525,686 525,665 525,644 530,628 541,616 552,604 567,599 586,599 601,599 613,602 622,609 631,615 637,625 641,639 Z"/>
    <rect fill="none" stroke="none" x="525" y="598" width="119" height="134"/>
   </g>
   <g>
   <path fill="rgb(255,255,102)" stroke="none" d="M 495,309 C 495,386 495,463 495,541 552,541 610,541 667,541 667,463 667,386 667,309 610,309 552,309 495,309 Z"/>
    <rect fill="none" stroke="none" x="494" y="308" width="175" height="234"/>
   </g>
   <g>
   <path fill="rgb(0,0,0)" stroke="none" d="M 487,309 L 487,309 C 487,305 490,301 495,301 552,301 610,301 667,301 L 667,301 C 672,301 675,305 675,309 675,386 675,463 675,541 L 675,541 C 675,545 672,549 667,549 610,549 552,549 495,549 L 495,549 C 490,549 487,545 487,541 487,463 487,386 487,309 Z M 503,541 L 503,541 C 500,538 497,535 495,532 552,532 610,532 667,532 664,535 661,538 658,541 658,463 658,386 658,309 661,311 664,314 667,317 610,317 552,317 495,317 497,314 500,311 503,309 503,386 503,463 503,541 Z"/>
   <path fill="none" stroke="rgb(0,0,0)" id="Drawing_31_0" d="M 487,309 L 487,309 C 487,305 490,301 495,301 552,301 610,301 667,301 L 667,301 C 672,301 675,305 675,309 675,386 675,463 675,541 L 675,541 C 675,545 672,549 667,549 610,549 552,549 495,549 L 495,549 C 490,549 487,545 487,541 487,463 487,386 487,309 Z"/>
   <path fill="none" stroke="rgb(0,0,0)" id="Drawing_31_1" d="M 503,541 L 503,541 C 500,538 497,535 495,532 552,532 610,532 667,532 664,535 661,538 658,541 658,463 658,386 658,309 661,311 664,314 667,317 610,317 552,317 495,317 497,314 500,311 503,309 503,386 503,463 503,541 Z"/>
   </g>
   <g>
   <path fill="rgb(255,255,102)" stroke="none" d="M 505,472 C 505,511 505,551 505,591 556,591 606,591 657,591 657,551 657,511 657,472 606,472 556,472 505,472 Z"/>
    <rect fill="none" stroke="none" x="504" y="471" width="155" height="121"/>
   </g>
   <g>
   <path fill="rgb(255,255,102)" stroke="none" d="M 493,560 C 501,534 509,509 518,484 526,509 534,534 542,560 525,560 509,560 493,560 Z"/>
    <rect fill="none" stroke="none" x="492" y="483" width="51" height="78"/>
   </g>
   <g>
   <path fill="rgb(255,255,102)" stroke="none" d="M 665,570 C 662,544 658,518 654,493 637,518 619,544 601,570 623,570 644,570 665,570 Z"/>
    <rect fill="none" stroke="none" x="601" y="492" width="66" height="79"/>
   </g>
  </g>
 </g>
</svg>