<?xml version="1.0" encoding="UTF-8"?>

<svg version="1.2" width="150px" height="150px" viewBox="0 0 1160 1160" xmlns="http://www.w3.org/2000/svg" xmlns:xlink="http://www.w3.org/1999/xlink">
 <g visibility="visible" id="MasterSlide_1_Standard">
  <g id="DrawingGroup_1">
   <g>
   <path fill="rgb(0,0,0)" stroke="none" d="M 574,169 L 574,169 C 571,169 568,169 565,169 561,169 557,170 554,170 550,170 546,171 542,171 537,171 533,172 529,172 524,172 520,173 516,173 511,173 506,174 501,174 491,175 481,177 471,178 461,179 451,180 441,181 431,182 421,184 411,185 406,186 401,186 397,187 392,188 388,189 384,190 379,191 375,191 371,192 367,193 363,194 360,195 353,197 347,198 341,200 335,202 329,205 323,207 316,209 310,212 304,214 297,216 291,219 285,221 281,222 277,222 274,223 270,224 267,225 264,226 261,227 258,228 255,229 254,230 253,230 252,231 251,232 250,232 249,233 223,250 198,267 173,284 174,283 175,282 176,281 151,320 125,359 100,398 98,401 95,404 93,408 90,411 88,414 85,418 83,421 81,424 79,427 78,428 78,429 77,431 76,432 76,433 75,435 67,461 58,487 50,513 50,511 50,509 50,508 51,512 51,516 52,521 53,525 53,529 54,534 54,537 55,541 55,545 55,548 56,551 56,555 56,558 57,561 57,565 57,568 58,571 58,574 59,579 59,585 60,591 61,596 61,601 62,606 63,612 64,618 65,623 66,626 67,629 68,631 69,635 69,638 70,641 71,645 72,648 73,651 74,655 74,659 75,662 77,669 79,676 81,682 83,689 84,696 86,702 87,706 87,709 88,712 89,715 91,718 92,721 93,724 95,727 96,729 97,732 99,735 100,737 102,741 104,744 106,747 108,751 110,755 112,758 116,766 119,773 123,780 125,784 126,787 128,790 130,793 132,796 134,799 136,802 139,804 141,806 141,806 140,806 140,805 143,808 145,810 148,812 186,838 224,864 262,890 265,893 268,895 272,897 275,900 278,902 281,905 284,907 287,909 290,911 291,912 292,912 294,913 295,913 296,914 298,914 336,927 374,940 412,953 424,957 437,962 450,966 456,969 463,971 470,974 473,975 476,976 479,977 482,978 485,979 488,980 509,984 530,988 551,992 549,992 548,992 547,992 559,991 571,991 583,990 594,989 606,988 617,987 629,986 640,985 651,984 657,983 663,983 669,982 675,981 680,980 685,979 689,978 692,978 695,977 698,976 701,976 704,975 710,973 716,970 722,968 729,966 735,963 741,961 748,958 754,956 760,953 764,952 767,951 770,950 773,949 776,948 779,947 783,946 786,944 789,943 793,942 796,941 799,940 809,938 819,937 828,935 838,933 848,931 857,929 867,927 877,924 886,922 895,919 904,917 913,914 920,912 927,911 933,909 940,907 947,906 953,904 956,903 959,902 962,901 965,900 968,899 971,898 974,897 976,896 979,894 982,893 984,892 987,890 999,882 1012,873 1024,864 1023,865 1023,866 1022,867 1039,841 1055,815 1072,789 1075,786 1077,783 1080,779 1082,776 1085,773 1087,769 1089,766 1091,763 1093,760 1094,759 1094,758 1095,756 1096,755 1096,754 1097,752 1101,739 1105,726 1109,713 1109,715 1109,717 1109,718 1109,715 1108,711 1108,707 1108,704 1107,701 1107,698 1107,692 1106,686 1106,680 1105,675 1105,670 1104,665 1104,661 1104,656 1104,651 1104,647 1103,643 1103,639 1103,635 1102,631 1102,627 1102,624 1101,621 1101,617 1101,614 1101,611 1101,608 1100,602 1100,596 1099,591 1098,588 1098,585 1097,582 1096,579 1096,576 1095,573 1094,569 1094,566 1093,563 1092,559 1091,555 1090,552 1089,548 1089,544 1088,540 1087,535 1085,530 1084,525 1082,518 1080,511 1078,505 1077,502 1076,499 1075,496 1074,493 1073,490 1072,488 1070,484 1068,481 1066,478 1064,473 1063,469 1061,465 1059,461 1058,457 1056,454 1054,450 1053,446 1051,443 1049,439 1048,435 1046,432 1044,429 1042,427 1040,425 1040,425 1041,425 1041,426 1038,423 1036,421 1033,419 1034,419 1034,419 1035,420 1033,419 1032,418 1030,417 1029,416 1027,415 1026,415 1014,410 1001,406 989,402 L 989,402 C 985,402 983,399 982,396 L 982,396 C 981,393 980,390 979,387 978,384 978,382 977,380 976,377 976,375 975,373 974,371 974,369 973,368 973,366 973,365 972,364 972,362 972,361 971,360 971,359 971,358 970,358 970,357 970,356 970,355 L 970,355 C 970,354 970,354 969,354 976,353 983,352 990,351 L 990,351 C 990,351 990,352 990,353 990,353 990,354 990,355 L 990,355 C 990,355 990,356 990,357 990,357 989,358 989,359 L 989,359 C 989,360 989,361 989,362 988,362 988,363 987,364 L 987,364 C 986,366 985,368 982,369 981,369 981,369 980,370 L 980,370 C 978,371 975,371 973,370 972,370 971,370 970,370 L 970,370 C 969,369 969,369 968,369 L 968,369 C 968,368 967,368 966,368 965,367 964,366 962,365 961,364 960,363 958,362 957,360 956,359 954,358 953,356 951,355 949,354 948,352 947,350 945,348 943,345 941,343 939,341 937,338 935,336 933,334 L 933,334 C 933,333 933,333 932,333 932,331 931,330 930,329 L 930,329 C 929,328 929,327 929,326 929,324 928,322 927,321 L 927,321 C 927,320 927,321 927,320 L 927,320 C 927,316 926,312 925,309 925,307 925,305 924,304 924,302 924,301 923,300 923,298 923,297 922,296 923,297 923,298 923,299 922,297 921,296 920,295 921,295 921,295 921,296 918,293 915,290 912,287 909,284 906,282 903,279 901,277 898,275 895,273 893,271 890,269 887,267 884,265 881,263 878,261 876,259 873,258 870,256 864,253 858,251 852,248 847,246 841,243 835,241 829,239 823,237 816,235 809,233 802,230 795,228 788,226 781,223 773,221 771,220 769,219 766,218 765,218 763,217 761,217 758,216 755,214 751,213 749,212 746,211 743,210 741,209 739,209 737,208 736,208 734,207 732,207 731,206 729,206 727,205 725,204 723,204 720,203 719,203 717,202 715,202 714,202 712,201 710,201 708,200 706,200 703,199 700,198 697,198 694,197 693,197 691,196 689,196 687,195 685,195 683,194 681,194 679,193 677,193 675,192 673,192 670,191 668,190 665,190 662,189 660,188 657,188 654,187 651,186 648,185 644,184 641,183 638,183 634,182 631,181 628,180 624,179 622,178 620,178 617,177 615,176 613,176 611,175 610,174 608,174 606,173 605,173 604,172 602,172 601,171 600,171 599,170 599,170 599,169 598,169 598,169 597,168 596,168 597,168 598,169 598,169 597,169 596,168 595,168 596,168 597,169 598,169 598,169 597,168 596,168 596,168 595,168 594,168 594,168 593,168 592,168 591,168 589,169 587,169 586,169 584,169 582,169 579,169 576,169 574,169 Z M 581,148 L 581,148 C 583,148 585,147 587,147 588,147 590,147 591,147 593,147 594,147 595,147 596,147 597,147 598,147 599,147 600,147 600,147 L 600,147 C 601,147 602,148 603,148 604,148 605,149 605,149 L 605,149 C 606,149 607,150 607,150 L 607,150 607,150 C 608,150 609,151 609,151 610,151 611,152 611,152 612,152 613,153 613,153 615,154 616,154 617,155 619,156 621,156 623,157 626,158 628,158 630,159 633,160 636,160 639,161 643,162 646,163 649,164 653,165 656,165 659,166 662,167 665,168 667,169 670,169 673,170 675,170 678,171 680,171 682,172 685,173 687,173 689,174 691,174 693,175 694,175 696,175 698,176 699,176 702,177 705,178 708,179 711,179 713,180 715,180 717,181 719,181 720,182 722,182 724,183 726,183 729,184 732,184 734,185 736,186 738,186 739,187 741,187 743,188 744,188 746,189 748,189 750,190 753,191 756,192 758,193 762,194 765,195 768,196 770,197 772,197 773,198 775,199 777,199 779,200 787,203 795,205 802,208 809,210 816,212 822,214 829,216 836,219 842,221 849,224 856,226 862,229 868,232 874,235 880,238 884,240 887,241 890,243 893,245 896,248 899,250 902,252 905,254 908,256 912,259 915,261 918,264 921,267 924,269 927,272 930,275 933,278 936,281 L 936,281 C 937,281 937,282 937,282 938,283 939,285 940,286 L 940,286 C 941,287 941,288 942,289 L 942,289 C 943,291 944,293 944,295 945,297 945,299 945,301 946,302 946,304 946,306 947,309 948,312 948,316 948,315 948,315 947,315 948,316 949,318 949,320 949,319 949,318 948,318 949,319 950,320 951,322 951,321 951,321 950,321 952,323 954,325 956,328 958,330 959,332 960,334 962,335 964,337 965,339 967,340 968,341 969,343 970,343 971,344 971,345 972,346 973,347 974,348 974,348 975,348 975,349 976,349 976,349 977,350 976,349 976,349 975,349 976,349 978,349 979,350 976,350 974,350 971,350 972,350 973,350 974,350 973,351 971,352 969,354 970,353 970,352 970,352 970,353 970,354 969,355 969,354 969,353 969,353 969,353 969,354 969,355 969,354 969,353 969,353 969,352 969,351 969,351 L 969,351 969,351 C 969,345 973,341 978,340 983,340 988,343 989,348 L 989,348 989,348 C 989,348 990,349 990,350 990,350 991,351 991,352 991,352 991,353 991,354 992,355 992,356 993,358 993,359 994,360 994,362 994,363 995,365 995,367 996,369 996,371 997,373 998,375 998,378 999,381 1000,383 1001,386 1002,389 1000,387 997,385 995,383 1008,387 1022,391 1035,396 1037,397 1039,398 1041,399 1043,400 1044,401 1046,402 L 1046,402 C 1047,402 1047,402 1047,403 1050,405 1053,408 1056,411 L 1056,411 C 1056,411 1056,411 1057,412 L 1057,412 C 1060,415 1062,418 1065,422 1067,426 1069,430 1071,434 1073,437 1074,441 1076,445 1078,449 1079,453 1081,457 1082,460 1084,464 1085,468 1087,471 1089,475 1091,479 1092,482 1094,486 1095,490 1096,493 1098,496 1099,500 1101,506 1102,513 1104,520 1105,524 1107,529 1108,534 1109,538 1110,542 1111,547 1112,551 1113,555 1114,559 1115,562 1115,565 1116,569 1117,572 1117,575 1118,579 1119,582 1119,585 1120,589 1121,594 1121,600 1122,606 1122,610 1123,613 1123,616 1123,620 1123,623 1123,626 1123,630 1124,634 1124,637 1124,641 1125,645 1125,649 1125,654 1126,659 1126,663 1126,668 1127,673 1127,678 1127,684 1128,690 1128,696 1128,699 1129,702 1129,705 1129,709 1130,713 1130,716 L 1130,716 C 1130,717 1130,719 1129,720 L 1129,720 C 1125,733 1121,746 1117,759 1116,762 1115,764 1114,766 1113,768 1112,770 1111,772 1109,776 1106,779 1104,782 1102,785 1099,788 1097,791 1095,794 1092,797 1090,800 1073,826 1056,852 1039,878 L 1039,878 C 1038,880 1038,880 1037,881 L 1037,881 C 1024,890 1011,899 998,908 995,910 991,912 988,914 985,915 981,917 978,918 975,919 972,921 968,922 965,923 962,924 958,925 952,926 945,928 938,929 932,931 926,933 919,935 910,938 900,940 890,943 881,945 871,947 861,949 852,951 842,953 832,955 823,957 814,959 804,961 801,962 798,962 795,963 792,964 789,965 786,966 783,967 780,969 776,970 773,971 770,973 767,974 761,976 755,979 749,981 743,983 736,986 729,988 723,990 717,993 710,995 707,996 703,997 699,998 696,999 693,999 689,1000 683,1001 677,1002 671,1003 665,1004 659,1004 653,1005 642,1006 630,1007 618,1008 607,1009 595,1009 584,1010 572,1011 560,1012 549,1013 L 549,1013 C 548,1013 547,1013 546,1013 L 546,1013 C 524,1009 503,1004 482,1000 478,999 475,998 472,997 468,996 465,995 462,994 455,991 449,989 443,986 430,982 417,978 405,974 366,961 328,947 290,934 288,933 286,933 284,932 282,931 280,929 278,928 274,926 271,923 268,921 265,919 262,916 259,914 256,912 253,909 250,907 211,881 173,855 135,829 132,827 129,825 126,822 L 126,822 C 126,821 125,821 125,820 L 125,820 C 122,817 120,814 117,810 115,807 112,804 110,800 108,797 105,794 103,790 100,783 96,776 93,768 91,765 90,762 88,758 86,755 84,752 82,748 80,745 78,742 76,738 75,735 73,732 72,728 71,725 69,722 68,718 67,715 66,711 65,707 63,701 62,694 60,687 58,681 57,674 55,667 54,664 53,660 52,656 51,653 50,650 49,646 48,643 48,640 47,636 46,633 46,630 45,627 44,621 42,615 41,609 40,604 40,598 39,592 38,587 38,581 37,576 37,573 36,570 36,567 36,564 35,561 35,558 35,554 34,550 34,547 33,543 33,539 32,536 32,532 31,528 31,524 31,519 30,515 30,511 L 30,511 C 29,509 30,508 30,506 L 30,506 C 38,480 47,454 55,428 56,425 57,423 58,421 59,419 60,417 61,415 64,411 66,408 69,405 71,402 73,399 75,396 77,393 80,390 82,387 107,348 133,309 158,270 L 158,270 C 159,269 160,268 161,267 L 161,267 C 187,249 212,232 238,214 239,213 241,213 243,212 245,211 247,210 249,209 252,208 255,207 259,206 262,205 265,204 269,203 272,202 275,202 278,201 284,199 290,196 297,194 303,192 309,189 316,187 322,185 329,182 336,180 342,178 348,176 355,174 359,173 363,173 367,172 371,171 375,170 380,169 384,168 389,167 394,166 398,165 403,165 408,164 418,163 428,161 438,160 448,159 458,157 469,156 479,155 489,154 499,153 504,153 509,152 514,152 518,152 523,151 528,151 532,151 536,150 541,150 545,150 549,149 553,149 556,149 560,149 564,149 567,149 570,148 573,148 575,148 578,148 581,148 Z"/>
   <path fill="none" stroke="rgb(0,0,0)" id="Drawing_1_0" d="M 574,169 L 574,169 C 571,169 568,169 565,169 561,169 557,170 554,170 550,170 546,171 542,171 537,171 533,172 529,172 524,172 520,173 516,173 511,173 506,174 501,174 491,175 481,177 471,178 461,179 451,180 441,181 431,182 421,184 411,185 406,186 401,186 397,187 392,188 388,189 384,190 379,191 375,191 371,192 367,193 363,194 360,195 353,197 347,198 341,200 335,202 329,205 323,207 316,209 310,212 304,214 297,216 291,219 285,221 281,222 277,222 274,223 270,224 267,225 264,226 261,227 258,228 255,229 254,230 253,230 252,231 251,232 250,232 249,233 223,250 198,267 173,284 174,283 175,282 176,281 151,320 125,359 100,398 98,401 95,404 93,408 90,411 88,414 85,418 83,421 81,424 79,427 78,428 78,429 77,431 76,432 76,433 75,435 67,461 58,487 50,513 50,511 50,509 50,508 51,512 51,516 52,521 53,525 53,529 54,534 54,537 55,541 55,545 55,548 56,551 56,555 56,558 57,561 57,565 57,568 58,571 58,574 59,579 59,585 60,591 61,596 61,601 62,606 63,612 64,618 65,623 66,626 67,629 68,631 69,635 69,638 70,641 71,645 72,648 73,651 74,655 74,659 75,662 77,669 79,676 81,682 83,689 84,696 86,702 87,706 87,709 88,712 89,715 91,718 92,721 93,724 95,727 96,729 97,732 99,735 100,737 102,741 104,744 106,747 108,751 110,755 112,758 116,766 119,773 123,780 125,784 126,787 128,790 130,793 132,796 134,799 136,802 139,804 141,806 141,806 140,806 140,805 143,808 145,810 148,812 186,838 224,864 262,890 265,893 268,895 272,897 275,900 278,902 281,905 284,907 287,909 290,911 291,912 292,912 294,913 295,913 296,914 298,914 336,927 374,940 412,953 424,957 437,962 450,966 456,969 463,971 470,974 473,975 476,976 479,977 482,978 485,979 488,980 509,984 530,988 551,992 549,992 548,992 547,992 559,991 571,991 583,990 594,989 606,988 617,987 629,986 640,985 651,984 657,983 663,983 669,982 675,981 680,980 685,979 689,978 692,978 695,977 698,976 701,976 704,975 710,973 716,970 722,968 729,966 735,963 741,961 748,958 754,956 760,953 764,952 767,951 770,950 773,949 776,948 779,947 783,946 786,944 789,943 793,942 796,941 799,940 809,938 819,937 828,935 838,933 848,931 857,929 867,927 877,924 886,922 895,919 904,917 913,914 920,912 927,911 933,909 940,907 947,906 953,904 956,903 959,902 962,901 965,900 968,899 971,898 974,897 976,896 979,894 982,893 984,892 987,890 999,882 1012,873 1024,864 1023,865 1023,866 1022,867 1039,841 1055,815 1072,789 1075,786 1077,783 1080,779 1082,776 1085,773 1087,769 1089,766 1091,763 1093,760 1094,759 1094,758 1095,756 1096,755 1096,754 1097,752 1101,739 1105,726 1109,713 1109,715 1109,717 1109,718 1109,715 1108,711 1108,707 1108,704 1107,701 1107,698 1107,692 1106,686 1106,680 1105,675 1105,670 1104,665 1104,661 1104,656 1104,651 1104,647 1103,643 1103,639 1103,635 1102,631 1102,627 1102,624 1101,621 1101,617 1101,614 1101,611 1101,608 1100,602 1100,596 1099,591 1098,588 1098,585 1097,582 1096,579 1096,576 1095,573 1094,569 1094,566 1093,563 1092,559 1091,555 1090,552 1089,548 1089,544 1088,540 1087,535 1085,530 1084,525 1082,518 1080,511 1078,505 1077,502 1076,499 1075,496 1074,493 1073,490 1072,488 1070,484 1068,481 1066,478 1064,473 1063,469 1061,465 1059,461 1058,457 1056,454 1054,450 1053,446 1051,443 1049,439 1048,435 1046,432 1044,429 1042,427 1040,425 1040,425 1041,425 1041,426 1038,423 1036,421 1033,419 1034,419 1034,419 1035,420 1033,419 1032,418 1030,417 1029,416 1027,415 1026,415 1014,410 1001,406 989,402 L 989,402 C 985,402 983,399 982,396 L 982,396 C 981,393 980,390 979,387 978,384 978,382 977,380 976,377 976,375 975,373 974,371 974,369 973,368 973,366 973,365 972,364 972,362 972,361 971,360 971,359 971,358 970,358 970,357 970,356 970,355 L 970,355 C 970,354 970,354 969,354 976,353 983,352 990,351 L 990,351 C 990,351 990,352 990,353 990,353 990,354 990,355 L 990,355 C 990,355 990,356 990,357 990,357 989,358 989,359 L 989,359 C 989,360 989,361 989,362 988,362 988,363 987,364 L 987,364 C 986,366 985,368 982,369 981,369 981,369 980,370 L 980,370 C 978,371 975,371 973,370 972,370 971,370 970,370 L 970,370 C 969,369 969,369 968,369 L 968,369 C 968,368 967,368 966,368 965,367 964,366 962,365 961,364 960,363 958,362 957,360 956,359 954,358 953,356 951,355 949,354 948,352 947,350 945,348 943,345 941,343 939,341 937,338 935,336 933,334 L 933,334 C 933,333 933,333 932,333 932,331 931,330 930,329 L 930,329 C 929,328 929,327 929,326 929,324 928,322 927,321 L 927,321 C 927,320 927,321 927,320 L 927,320 C 927,316 926,312 925,309 925,307 925,305 924,304 924,302 924,301 923,300 923,298 923,297 922,296 923,297 923,298 923,299 922,297 921,296 920,295 921,295 921,295 921,296 918,293 915,290 912,287 909,284 906,282 903,279 901,277 898,275 895,273 893,271 890,269 887,267 884,265 881,263 878,261 876,259 873,258 870,256 864,253 858,251 852,248 847,246 841,243 835,241 829,239 823,237 816,235 809,233 802,230 795,228 788,226 781,223 773,221 771,220 769,219 766,218 765,218 763,217 761,217 758,216 755,214 751,213 749,212 746,211 743,210 741,209 739,209 737,208 736,208 734,207 732,207 731,206 729,206 727,205 725,204 723,204 720,203 719,203 717,202 715,202 714,202 712,201 710,201 708,200 706,200 703,199 700,198 697,198 694,197 693,197 691,196 689,196 687,195 685,195 683,194 681,194 679,193 677,193 675,192 673,192 670,191 668,190 665,190 662,189 660,188 657,188 654,187 651,186 648,185 644,184 641,183 638,183 634,182 631,181 628,180 624,179 622,178 620,178 617,177 615,176 613,176 611,175 610,174 608,174 606,173 605,173 604,172 602,172 601,171 600,171 599,170 599,170 599,169 598,169 598,169 597,168 596,168 597,168 598,169 598,169 597,169 596,168 595,168 596,168 597,169 598,169 598,169 597,168 596,168 596,168 595,168 594,168 594,168 593,168 592,168 591,168 589,169 587,169 586,169 584,169 582,169 579,169 576,169 574,169 Z"/>
   <path fill="none" stroke="rgb(0,0,0)" id="Drawing_1_1" d="M 581,148 L 581,148 C 583,148 585,147 587,147 588,147 590,147 591,147 593,147 594,147 595,147 596,147 597,147 598,147 599,147 600,147 600,147 L 600,147 C 601,147 602,148 603,148 604,148 605,149 605,149 L 605,149 C 606,149 607,150 607,150 L 607,150 607,150 C 608,150 609,151 609,151 610,151 611,152 611,152 612,152 613,153 613,153 615,154 616,154 617,155 619,156 621,156 623,157 626,158 628,158 630,159 633,160 636,160 639,161 643,162 646,163 649,164 653,165 656,165 659,166 662,167 665,168 667,169 670,169 673,170 675,170 678,171 680,171 682,172 685,173 687,173 689,174 691,174 693,175 694,175 696,175 698,176 699,176 702,177 705,178 708,179 711,179 713,180 715,180 717,181 719,181 720,182 722,182 724,183 726,183 729,184 732,184 734,185 736,186 738,186 739,187 741,187 743,188 744,188 746,189 748,189 750,190 753,191 756,192 758,193 762,194 765,195 768,196 770,197 772,197 773,198 775,199 777,199 779,200 787,203 795,205 802,208 809,210 816,212 822,214 829,216 836,219 842,221 849,224 856,226 862,229 868,232 874,235 880,238 884,240 887,241 890,243 893,245 896,248 899,250 902,252 905,254 908,256 912,259 915,261 918,264 921,267 924,269 927,272 930,275 933,278 936,281 L 936,281 C 937,281 937,282 937,282 938,283 939,285 940,286 L 940,286 C 941,287 941,288 942,289 L 942,289 C 943,291 944,293 944,295 945,297 945,299 945,301 946,302 946,304 946,306 947,309 948,312 948,316 948,315 948,315 947,315 948,316 949,318 949,320 949,319 949,318 948,318 949,319 950,320 951,322 951,321 951,321 950,321 952,323 954,325 956,328 958,330 959,332 960,334 962,335 964,337 965,339 967,340 968,341 969,343 970,343 971,344 971,345 972,346 973,347 974,348 974,348 975,348 975,349 976,349 976,349 977,350 976,349 976,349 975,349 976,349 978,349 979,350 976,350 974,350 971,350 972,350 973,350 974,350 973,351 971,352 969,354 970,353 970,352 970,352 970,353 970,354 969,355 969,354 969,353 969,353 969,353 969,354 969,355 969,354 969,353 969,353 969,352 969,351 969,351 L 969,351 969,351 C 969,345 973,341 978,340 983,340 988,343 989,348 L 989,348 989,348 C 989,348 990,349 990,350 990,350 991,351 991,352 991,352 991,353 991,354 992,355 992,356 993,358 993,359 994,360 994,362 994,363 995,365 995,367 996,369 996,371 997,373 998,375 998,378 999,381 1000,383 1001,386 1002,389 1000,387 997,385 995,383 1008,387 1022,391 1035,396 1037,397 1039,398 1041,399 1043,400 1044,401 1046,402 L 1046,402 C 1047,402 1047,402 1047,403 1050,405 1053,408 1056,411 L 1056,411 C 1056,411 1056,411 1057,412 L 1057,412 C 1060,415 1062,418 1065,422 1067,426 1069,430 1071,434 1073,437 1074,441 1076,445 1078,449 1079,453 1081,457 1082,460 1084,464 1085,468 1087,471 1089,475 1091,479 1092,482 1094,486 1095,490 1096,493 1098,496 1099,500 1101,506 1102,513 1104,520 1105,524 1107,529 1108,534 1109,538 1110,542 1111,547 1112,551 1113,555 1114,559 1115,562 1115,565 1116,569 1117,572 1117,575 1118,579 1119,582 1119,585 1120,589 1121,594 1121,600 1122,606 1122,610 1123,613 1123,616 1123,620 1123,623 1123,626 1123,630 1124,634 1124,637 1124,641 1125,645 1125,649 1125,654 1126,659 1126,663 1126,668 1127,673 1127,678 1127,684 1128,690 1128,696 1128,699 1129,702 1129,705 1129,709 1130,713 1130,716 L 1130,716 C 1130,717 1130,719 1129,720 L 1129,720 C 1125,733 1121,746 1117,759 1116,762 1115,764 1114,766 1113,768 1112,770 1111,772 1109,776 1106,779 1104,782 1102,785 1099,788 1097,791 1095,794 1092,797 1090,800 1073,826 1056,852 1039,878 L 1039,878 C 1038,880 1038,880 1037,881 L 1037,881 C 1024,890 1011,899 998,908 995,910 991,912 988,914 985,915 981,917 978,918 975,919 972,921 968,922 965,923 962,924 958,925 952,926 945,928 938,929 932,931 926,933 919,935 910,938 900,940 890,943 881,945 871,947 861,949 852,951 842,953 832,955 823,957 814,959 804,961 801,962 798,962 795,963 792,964 789,965 786,966 783,967 780,969 776,970 773,971 770,973 767,974 761,976 755,979 749,981 743,983 736,986 729,988 723,990 717,993 710,995 707,996 703,997 699,998 696,999 693,999 689,1000 683,1001 677,1002 671,1003 665,1004 659,1004 653,1005 642,1006 630,1007 618,1008 607,1009 595,1009 584,1010 572,1011 560,1012 549,1013 L 549,1013 C 548,1013 547,1013 546,1013 L 546,1013 C 524,1009 503,1004 482,1000 478,999 475,998 472,997 468,996 465,995 462,994 455,991 449,989 443,986 430,982 417,978 405,974 366,961 328,947 290,934 288,933 286,933 284,932 282,931 280,929 278,928 274,926 271,923 268,921 265,919 262,916 259,914 256,912 253,909 250,907 211,881 173,855 135,829 132,827 129,825 126,822 L 126,822 C 126,821 125,821 125,820 L 125,820 C 122,817 120,814 117,810 115,807 112,804 110,800 108,797 105,794 103,790 100,783 96,776 93,768 91,765 90,762 88,758 86,755 84,752 82,748 80,745 78,742 76,738 75,735 73,732 72,728 71,725 69,722 68,718 67,715 66,711 65,707 63,701 62,694 60,687 58,681 57,674 55,667 54,664 53,660 52,656 51,653 50,650 49,646 48,643 48,640 47,636 46,633 46,630 45,627 44,621 42,615 41,609 40,604 40,598 39,592 38,587 38,581 37,576 37,573 36,570 36,567 36,564 35,561 35,558 35,554 34,550 34,547 33,543 33,539 32,536 32,532 31,528 31,524 31,519 30,515 30,511 L 30,511 C 29,509 30,508 30,506 L 30,506 C 38,480 47,454 55,428 56,425 57,423 58,421 59,419 60,417 61,415 64,411 66,408 69,405 71,402 73,399 75,396 77,393 80,390 82,387 107,348 133,309 158,270 L 158,270 C 159,269 160,268 161,267 L 161,267 C 187,249 212,232 238,214 239,213 241,213 243,212 245,211 247,210 249,209 252,208 255,207 259,206 262,205 265,204 269,203 272,202 275,202 278,201 284,199 290,196 297,194 303,192 309,189 316,187 322,185 329,182 336,180 342,178 348,176 355,174 359,173 363,173 367,172 371,171 375,170 380,169 384,168 389,167 394,166 398,165 403,165 408,164 418,163 428,161 438,160 448,159 458,157 469,156 479,155 489,154 499,153 504,153 509,152 514,152 518,152 523,151 528,151 532,151 536,150 541,150 545,150 549,149 553,149 556,149 560,149 564,149 567,149 570,148 573,148 575,148 578,148 581,148 Z"/>
   </g>
   <g>
   <path fill="rgb(0,0,0)" stroke="none" d="M 274,212 C 199,302 125,393 50,484 48,482 47,481 45,480 120,389 194,298 269,207 270,209 272,210 274,212 Z"/>
   <path fill="none" stroke="rgb(0,0,0)" id="Drawing_2_0" d="M 274,212 C 199,302 125,393 50,484 48,482 47,481 45,480 120,389 194,298 269,207 270,209 272,210 274,212 Z"/>
   </g>
   <g>
   <path fill="rgb(0,0,0)" stroke="none" d="M 357,184 C 253,306 150,429 46,552 44,550 43,549 41,548 144,425 247,302 351,179 353,181 355,182 357,184 Z"/>
   <path fill="none" stroke="rgb(0,0,0)" id="Drawing_3_0" d="M 357,184 C 253,306 150,429 46,552 44,550 43,549 41,548 144,425 247,302 351,179 353,181 355,182 357,184 Z"/>
   </g>
   <g>
   <path fill="rgb(0,0,0)" stroke="none" d="M 434,167 C 307,319 181,471 55,623 53,622 52,620 50,618 176,467 302,315 429,163 430,164 432,166 434,167 Z"/>
   <path fill="none" stroke="rgb(0,0,0)" id="Drawing_4_0" d="M 434,167 C 307,319 181,471 55,623 53,622 52,620 50,618 176,467 302,315 429,163 430,164 432,166 434,167 Z"/>
   </g>
   <g>
   <path fill="rgb(0,0,0)" stroke="none" d="M 492,163 C 350,332 209,502 68,671 66,670 65,669 63,667 204,498 345,328 487,158 488,160 490,161 492,163 Z"/>
   <path fill="none" stroke="rgb(0,0,0)" id="Drawing_5_0" d="M 492,163 C 350,332 209,502 68,671 66,670 65,669 63,667 204,498 345,328 487,158 488,160 490,161 492,163 Z"/>
   </g>
   <g>
   <path fill="rgb(0,0,0)" stroke="none" d="M 660,179 C 485,390 309,602 133,813 131,812 130,811 128,809 304,597 480,386 655,174 657,176 659,177 660,179 Z"/>
   <path fill="none" stroke="rgb(0,0,0)" id="Drawing_6_0" d="M 660,179 C 485,390 309,602 133,813 131,812 130,811 128,809 304,597 480,386 655,174 657,176 659,177 660,179 Z"/>
   </g>
   <g>
   <path fill="rgb(0,0,0)" stroke="none" d="M 710,190 C 530,406 350,621 170,837 168,836 167,835 165,833 345,617 525,402 705,186 707,187 709,189 710,190 Z"/>
   <path fill="none" stroke="rgb(0,0,0)" id="Drawing_7_0" d="M 710,190 C 530,406 350,621 170,837 168,836 167,835 165,833 345,617 525,402 705,186 707,187 709,189 710,190 Z"/>
   </g>
   <g>
   <path fill="rgb(0,0,0)" stroke="none" d="M 556,156 C 398,345 240,534 83,723 81,722 79,721 77,719 235,530 393,341 551,152 552,153 554,155 556,156 Z"/>
   <path fill="none" stroke="rgb(0,0,0)" id="Drawing_8_0" d="M 556,156 C 398,345 240,534 83,723 81,722 79,721 77,719 235,530 393,341 551,152 552,153 554,155 556,156 Z"/>
   </g>
   <g>
   <path fill="rgb(0,0,0)" stroke="none" d="M 612,164 C 444,365 275,567 107,768 105,767 104,766 102,764 270,563 439,361 607,160 609,161 611,163 612,164 Z"/>
   <path fill="none" stroke="rgb(0,0,0)" id="Drawing_9_0" d="M 612,164 C 444,365 275,567 107,768 105,767 104,766 102,764 270,563 439,361 607,160 609,161 611,163 612,164 Z"/>
   </g>
   <g>
   <path fill="rgb(0,0,0)" stroke="none" d="M 764,205 C 580,426 395,647 210,868 208,867 206,865 205,863 390,642 575,422 759,201 761,202 763,204 764,205 Z"/>
   <path fill="none" stroke="rgb(0,0,0)" id="Drawing_10_0" d="M 764,205 C 580,426 395,647 210,868 208,867 206,865 205,863 390,642 575,422 759,201 761,202 763,204 764,205 Z"/>
   </g>
   <g>
   <path fill="rgb(0,0,0)" stroke="none" d="M 809,221 C 622,445 434,670 247,894 245,893 243,892 242,890 429,666 617,441 804,217 806,218 808,220 809,221 Z"/>
   <path fill="none" stroke="rgb(0,0,0)" id="Drawing_11_0" d="M 809,221 C 622,445 434,670 247,894 245,893 243,892 242,890 429,666 617,441 804,217 806,218 808,220 809,221 Z"/>
   </g>
   <g>
   <path fill="rgb(0,0,0)" stroke="none" d="M 855,239 C 665,467 476,695 286,923 284,921 282,920 281,918 471,690 660,463 850,235 852,236 854,238 855,239 Z"/>
   <path fill="none" stroke="rgb(0,0,0)" id="Drawing_12_0" d="M 855,239 C 665,467 476,695 286,923 284,921 282,920 281,918 471,690 660,463 850,235 852,236 854,238 855,239 Z"/>
   </g>
   <g>
   <path fill="rgb(0,0,0)" stroke="none" d="M 893,262 C 705,487 517,712 329,937 327,936 325,934 324,933 512,708 700,483 888,258 890,259 892,261 893,262 Z"/>
   <path fill="none" stroke="rgb(0,0,0)" id="Drawing_13_0" d="M 893,262 C 705,487 517,712 329,937 327,936 325,934 324,933 512,708 700,483 888,258 890,259 892,261 893,262 Z"/>
   </g>
   <g>
   <path fill="rgb(0,0,0)" stroke="none" d="M 932,285 C 745,509 557,732 370,956 368,955 366,953 365,952 552,728 740,504 927,280 929,282 931,283 932,285 Z"/>
   <path fill="none" stroke="rgb(0,0,0)" id="Drawing_14_0" d="M 932,285 C 745,509 557,732 370,956 368,955 366,953 365,952 552,728 740,504 927,280 929,282 931,283 932,285 Z"/>
   </g>
   <g>
   <path fill="rgb(0,0,0)" stroke="none" d="M 949,339 C 773,549 597,759 422,969 420,968 418,966 417,965 592,755 768,544 944,334 946,335 948,337 949,339 Z"/>
   <path fill="none" stroke="rgb(0,0,0)" id="Drawing_15_0" d="M 949,339 C 773,549 597,759 422,969 420,968 418,966 417,965 592,755 768,544 944,334 946,335 948,337 949,339 Z"/>
   </g>
   <g>
   <path fill="rgb(0,0,0)" stroke="none" d="M 985,369 C 813,576 640,783 468,990 466,988 464,987 462,985 634,778 807,572 980,365 982,366 983,367 985,369 Z"/>
   <path fill="none" stroke="rgb(0,0,0)" id="Drawing_16_0" d="M 985,369 C 813,576 640,783 468,990 466,988 464,987 462,985 634,778 807,572 980,365 982,366 983,367 985,369 Z"/>
   </g>
   <g>
   <path fill="rgb(0,0,0)" stroke="none" d="M 1015,402 C 849,601 683,801 517,1000 515,998 513,997 512,995 678,796 844,597 1010,398 1012,399 1013,400 1015,402 Z"/>
   <path fill="none" stroke="rgb(0,0,0)" id="Drawing_17_0" d="M 1015,402 C 849,601 683,801 517,1000 515,998 513,997 512,995 678,796 844,597 1010,398 1012,399 1013,400 1015,402 Z"/>
   </g>
   <g>
   <path fill="rgb(0,0,0)" stroke="none" d="M 1056,426 C 895,618 734,810 574,1002 572,1001 570,999 569,998 729,806 890,614 1051,422 1053,423 1054,424 1056,426 Z"/>
   <path fill="none" stroke="rgb(0,0,0)" id="Drawing_18_0" d="M 1056,426 C 895,618 734,810 574,1002 572,1001 570,999 569,998 729,806 890,614 1051,422 1053,423 1054,424 1056,426 Z"/>
   </g>
   <g>
   <path fill="rgb(0,0,0)" stroke="none" d="M 1078,477 C 933,649 787,822 641,995 640,994 638,992 636,991 782,818 928,645 1073,473 1075,474 1076,475 1078,477 Z"/>
   <path fill="none" stroke="rgb(0,0,0)" id="Drawing_19_0" d="M 1078,477 C 933,649 787,822 641,995 640,994 638,992 636,991 782,818 928,645 1073,473 1075,474 1076,475 1078,477 Z"/>
   </g>
   <g>
   <path fill="rgb(0,0,0)" stroke="none" d="M 1095,524 C 967,678 839,833 710,988 709,986 707,985 705,983 834,829 962,674 1090,520 1092,521 1093,522 1095,524 Z"/>
   <path fill="none" stroke="rgb(0,0,0)" id="Drawing_20_0" d="M 1095,524 C 967,678 839,833 710,988 709,986 707,985 705,983 834,829 962,674 1090,520 1092,521 1093,522 1095,524 Z"/>
   </g>
   <g>
   <path fill="rgb(0,0,0)" stroke="none" d="M 1109,581 C 1005,705 901,829 796,953 795,952 793,950 791,949 895,825 999,701 1103,577 1105,578 1107,579 1109,581 Z"/>
   <path fill="none" stroke="rgb(0,0,0)" id="Drawing_21_0" d="M 1109,581 C 1005,705 901,829 796,953 795,952 793,950 791,949 895,825 999,701 1103,577 1105,578 1107,579 1109,581 Z"/>
   </g>
   <g>
   <path fill="rgb(0,0,0)" stroke="none" d="M 1113,642 C 1031,741 949,840 866,939 865,938 863,936 861,935 944,836 1026,737 1108,638 1110,640 1111,641 1113,642 Z"/>
   <path fill="none" stroke="rgb(0,0,0)" id="Drawing_22_0" d="M 1113,642 C 1031,741 949,840 866,939 865,938 863,936 861,935 944,836 1026,737 1108,638 1110,640 1111,641 1113,642 Z"/>
   </g>
   <g>
   <path fill="rgb(0,0,0)" stroke="none" d="M 1118,710 C 1059,782 999,853 940,924 939,923 937,921 935,920 994,849 1053,778 1112,706 1114,708 1116,709 1118,710 Z"/>
   <path fill="none" stroke="rgb(0,0,0)" id="Drawing_23_0" d="M 1118,710 C 1059,782 999,853 940,924 939,923 937,921 935,920 994,849 1053,778 1112,706 1114,708 1116,709 1118,710 Z"/>
   </g>
   <g>
   <path fill="rgb(0,0,0)" stroke="none" d="M 277,575 L 289,579 C 287,585 284,589 280,592 276,595 271,597 265,597 257,597 251,594 246,589 241,584 239,577 239,568 239,558 241,551 246,546 251,540 258,538 266,538 273,538 278,540 283,544 285,546 287,550 289,555 L 277,557 C 276,554 275,552 273,550 271,549 268,548 265,548 261,548 257,549 255,552 252,555 251,560 251,567 251,574 252,579 255,582 257,586 261,587 265,587 268,587 270,586 273,584 275,582 276,579 277,575 Z"/>
    <rect fill="none" stroke="none" x="238" y="537" width="52" height="61"/>
   </g>
   <g>
   <path fill="rgb(0,0,0)" stroke="none" d="M 298,596 C 298,577 298,558 298,539 303,539 309,539 315,539 318,552 322,565 325,578 329,565 332,552 336,539 341,539 347,539 353,539 353,558 353,577 353,596 349,596 346,596 342,596 342,581 342,566 342,551 338,566 335,581 331,596 327,596 323,596 320,596 316,581 312,566 308,551 308,566 308,581 308,596 L 298,596 Z"/>
    <rect fill="none" stroke="none" x="297" y="538" width="57" height="59"/>
   </g>
   <g>
   <path fill="rgb(0,0,0)" stroke="none" d="M 365,596 C 365,577 365,558 365,539 369,539 373,539 377,539 377,555 377,571 377,586 386,586 396,586 405,586 405,590 405,593 405,596 L 365,596 Z"/>
    <rect fill="none" stroke="none" x="365" y="539" width="42" height="58"/>
   </g>
   <g>
   <path fill="rgb(255,255,102)" stroke="none" d="M 426,665 L 426,665 C 426,581 495,512 580,512 L 580,512 580,512 580,512 C 664,512 733,581 733,665 L 733,665 733,665 733,665 C 733,750 664,819 580,819 L 580,819 580,819 580,819 C 495,819 426,750 426,665 Z"/>
    <rect fill="none" stroke="none" x="425" y="511" width="310" height="310"/>
   </g>
   <g>
   <path fill="rgb(0,0,0)" stroke="none" d="M 418,666 C 418,661 418,655 419,649 419,644 420,639 421,633 422,628 423,623 425,618 426,613 428,608 430,602 432,598 434,593 437,589 439,584 442,580 445,576 448,571 451,567 455,563 458,559 461,555 465,552 468,548 472,544 476,541 480,538 484,535 489,532 493,529 497,526 502,524 507,521 512,519 517,517 522,515 527,513 532,511 537,509 542,508 547,507 552,506 557,505 563,505 568,504 574,504 580,504 585,504 590,504 595,505 601,505 607,506 612,507 617,508 622,509 627,511 632,513 637,515 642,517 647,519 652,521 656,524 661,526 666,528 670,531 674,534 678,537 682,541 686,544 690,547 693,551 697,555 701,559 704,563 708,567 711,571 714,575 717,579 720,583 722,588 724,592 726,597 728,602 730,607 732,612 734,617 736,622 737,627 738,632 739,638 740,643 741,648 741,654 741,660 741,665 741,671 741,676 741,681 740,687 739,693 738,698 737,703 736,708 734,713 733,718 731,723 729,728 727,733 725,738 722,742 720,747 717,752 714,756 711,760 708,764 705,768 702,772 698,776 694,780 691,784 687,787 683,790 679,794 675,797 670,800 666,803 662,806 657,808 653,810 648,812 643,814 638,816 633,818 628,820 623,822 618,823 612,824 607,825 602,826 596,827 591,827 585,827 580,827 574,827 569,827 564,827 558,826 553,825 548,824 542,823 537,822 532,820 527,819 522,817 517,815 512,813 507,811 503,808 498,806 493,803 489,800 485,797 481,794 477,791 473,788 469,784 465,780 461,777 458,773 455,769 452,765 449,761 446,756 443,752 440,748 437,743 435,739 433,734 431,729 429,724 427,719 425,714 423,709 422,704 421,698 420,693 419,688 419,682 418,677 418,672 418,666 Z M 435,680 C 435,685 436,690 437,694 438,699 439,704 441,708 442,713 444,718 446,722 447,726 449,730 451,734 453,739 456,743 459,747 461,751 464,755 467,758 470,762 473,765 477,768 480,771 483,774 487,777 490,780 494,783 498,786 502,789 506,791 510,793 514,796 518,798 523,800 527,802 531,804 536,805 540,806 545,807 550,808 555,809 560,810 565,810 570,811 575,811 580,811 585,811 589,811 594,810 599,810 604,809 608,808 613,807 618,806 622,805 627,804 632,802 636,800 640,798 644,796 648,794 652,792 656,789 660,786 664,784 668,781 672,778 676,775 679,772 682,769 686,766 689,762 692,758 695,755 698,751 700,747 703,743 706,739 708,735 710,731 712,727 713,722 715,718 717,714 718,709 720,705 721,700 722,695 723,691 724,686 724,681 725,676 725,671 725,666 725,661 725,656 724,651 724,646 723,641 722,636 721,632 720,627 719,622 718,618 716,614 714,609 712,605 710,601 708,596 706,592 703,589 700,585 698,581 695,577 692,574 689,570 686,566 683,563 680,560 676,557 672,554 669,551 665,548 661,545 657,542 653,540 649,538 645,536 641,534 636,532 632,530 628,528 623,527 619,526 614,525 609,524 604,523 599,522 594,521 589,521 585,521 580,521 575,521 570,521 566,521 561,521 556,522 551,523 546,524 541,525 537,527 532,528 527,530 523,532 519,534 515,536 511,538 507,540 503,542 499,545 495,548 491,551 487,554 483,557 480,560 477,563 474,566 471,569 468,573 465,576 462,580 459,584 456,588 454,592 452,596 450,600 448,604 446,608 444,613 442,617 441,621 439,626 438,631 437,635 436,640 435,645 435,650 434,655 434,660 434,665 434,670 434,675 435,680 Z"/>
   <path fill="none" stroke="rgb(0,0,0)" id="Drawing_28_0" d="M 418,666 C 418,661 418,655 419,649 419,644 420,639 421,633 422,628 423,623 425,618 426,613 428,608 430,602 432,598 434,593 437,589 439,584 442,580 445,576 448,571 451,567 455,563 458,559 461,555 465,552 468,548 472,544 476,541 480,538 484,535 489,532 493,529 497,526 502,524 507,521 512,519 517,517 522,515 527,513 532,511 537,509 542,508 547,507 552,506 557,505 563,505 568,504 574,504 580,504 585,504 590,504 595,505 601,505 607,506 612,507 617,508 622,509 627,511 632,513 637,515 642,517 647,519 652,521 656,524 661,526 666,528 670,531 674,534 678,537 682,541 686,544 690,547 693,551 697,555 701,559 704,563 708,567 711,571 714,575 717,579 720,583 722,588 724,592 726,597 728,602 730,607 732,612 734,617 736,622 737,627 738,632 739,638 740,643 741,648 741,654 741,660 741,665 741,671 741,676 741,681 740,687 739,693 738,698 737,703 736,708 734,713 733,718 731,723 729,728 727,733 725,738 722,742 720,747 717,752 714,756 711,760 708,764 705,768 702,772 698,776 694,780 691,784 687,787 683,790 679,794 675,797 670,800 666,803 662,806 657,808 653,810 648,812 643,814 638,816 633,818 628,820 623,822 618,823 612,824 607,825 602,826 596,827 591,827 585,827 580,827 574,827 569,827 564,827 558,826 553,825 548,824 542,823 537,822 532,820 527,819 522,817 517,815 512,813 507,811 503,808 498,806 493,803 489,800 485,797 481,794 477,791 473,788 469,784 465,780 461,777 458,773 455,769 452,765 449,761 446,756 443,752 440,748 437,743 435,739 433,734 431,729 429,724 427,719 425,714 423,709 422,704 421,698 420,693 419,688 419,682 418,677 418,672 418,666 Z"/>
   <path fill="none" stroke="rgb(0,0,0)" id="Drawing_28_1" d="M 435,680 C 435,685 436,690 437,694 438,699 439,704 441,708 442,713 444,718 446,722 447,726 449,730 451,734 453,739 456,743 459,747 461,751 464,755 467,758 470,762 473,765 477,768 480,771 483,774 487,777 490,780 494,783 498,786 502,789 506,791 510,793 514,796 518,798 523,800 527,802 531,804 536,805 540,806 545,807 550,808 555,809 560,810 565,810 570,811 575,811 580,811 585,811 589,811 594,810 599,810 604,809 608,808 613,807 618,806 622,805 627,804 632,802 636,800 640,798 644,796 648,794 652,792 656,789 660,786 664,784 668,781 672,778 676,775 679,772 682,769 686,766 689,762 692,758 695,755 698,751 700,747 703,743 706,739 708,735 710,731 712,727 713,722 715,718 717,714 718,709 720,705 721,700 722,695 723,691 724,686 724,681 725,676 725,671 725,666 725,661 725,656 724,651 724,646 723,641 722,636 721,632 720,627 719,622 718,618 716,614 714,609 712,605 710,601 708,596 706,592 703,589 700,585 698,581 695,577 692,574 689,570 686,566 683,563 680,560 676,557 672,554 669,551 665,548 661,545 657,542 653,540 649,538 645,536 641,534 636,532 632,530 628,528 623,527 619,526 614,525 609,524 604,523 599,522 594,521 589,521 585,521 580,521 575,521 570,521 566,521 561,521 556,522 551,523 546,524 541,525 537,527 532,528 527,530 523,532 519,534 515,536 511,538 507,540 503,542 499,545 495,548 491,551 487,554 483,557 480,560 477,563 474,566 471,569 468,573 465,576 462,580 459,584 456,588 454,592 452,596 450,600 448,604 446,608 444,613 442,617 441,621 439,626 438,631 437,635 436,640 435,645 435,650 434,655 434,660 434,665 434,670 434,675 435,680 Z"/>
   </g>
   <g>
   <path fill="rgb(255,255,102)" stroke="none" d="M 493,308 C 493,385 493,462 493,540 547,540 601,540 655,540 655,462 655,385 655,308 601,308 547,308 493,308 Z"/>
    <rect fill="none" stroke="none" x="492" y="307" width="165" height="234"/>
   </g>
   <g>
   <path fill="rgb(255,255,102)" stroke="none" d="M 508,472 C 508,511 508,551 508,591 556,591 604,591 652,591 652,551 652,511 652,472 604,472 556,472 508,472 Z"/>
    <rect fill="none" stroke="none" x="507" y="471" width="147" height="121"/>
   </g>
   <g>
   <path fill="rgb(255,255,102)" stroke="none" d="M 501,472 L 501,472 C 501,468 504,465 508,465 556,465 604,465 652,465 L 652,465 C 655,465 658,468 658,472 658,511 658,551 658,591 L 658,591 C 658,593 655,596 652,596 604,596 556,596 508,596 L 508,596 C 504,596 501,593 501,591 501,551 501,511 501,472 Z M 514,591 L 514,591 C 512,588 510,586 508,584 556,584 604,584 652,584 650,586 648,588 645,591 645,551 645,511 645,472 648,474 650,476 652,478 604,478 556,478 508,478 510,476 512,474 514,472 514,511 514,551 514,591 Z"/>
   <path fill="none" stroke="rgb(255,255,102)" id="Drawing_31_0" d="M 501,472 L 501,472 C 501,468 504,465 508,465 556,465 604,465 652,465 L 652,465 C 655,465 658,468 658,472 658,511 658,551 658,591 L 658,591 C 658,593 655,596 652,596 604,596 556,596 508,596 L 508,596 C 504,596 501,593 501,591 501,551 501,511 501,472 Z"/>
   <path fill="none" stroke="rgb(255,255,102)" id="Drawing_31_1" d="M 514,591 L 514,591 C 512,588 510,586 508,584 556,584 604,584 652,584 650,586 648,588 645,591 645,551 645,511 645,472 648,474 650,476 652,478 604,478 556,478 508,478 510,476 512,474 514,472 514,511 514,551 514,591 Z"/>
   </g>
   <g>
   <path fill="rgb(0,0,0)" stroke="none" d="M 639,640 L 607,646 C 606,639 603,634 599,631 595,628 590,626 584,626 576,626 569,629 564,635 559,640 557,650 557,663 557,678 560,689 564,695 569,701 576,705 585,705 591,705 596,703 600,699 604,696 607,689 608,681 L 641,686 C 638,701 631,713 621,720 612,728 599,732 583,732 565,732 550,726 539,714 528,703 523,687 523,666 523,645 528,629 539,617 550,605 565,600 584,600 599,600 611,603 620,610 629,616 635,626 639,640 Z"/>
    <rect fill="none" stroke="none" x="523" y="599" width="119" height="134"/>
   </g>
   <g>
   <path fill="rgb(0,0,0)" stroke="none" d="M 493,299 C 493,381 493,463 493,545 550,545 608,545 665,545 665,463 665,381 665,299 608,299 550,299 493,299 Z"/>
    <rect fill="none" stroke="none" x="492" y="298" width="175" height="248"/>
   </g>
  </g>
 </g>
</svg>