<?xml version="1.0" encoding="UTF-8"?>

<svg version="1.2" width="150px" height="150px" viewBox="0 0 1160 1160" xmlns="http://www.w3.org/2000/svg" xmlns:xlink="http://www.w3.org/1999/xlink">
 <g visibility="visible" id="MasterSlide_1_Standard">
  <g id="Drawing_1">
  <path fill="rgb(18,20,255)" stroke="none" d="M 1128,540 L 985,633 985,565 894,565 892,565 891,565 888,565 886,566 884,566 882,567 880,567 879,568 876,569 874,569 873,569 870,570 869,572 867,573 866,574 864,575 862,575 860,576 858,578 857,580 855,581 854,583 852,585 851,586 850,587 848,589 846,592 845,593 844,595 843,597 840,599 840,602 834,610 830,620 825,628 819,638 815,646 809,655 804,664 799,673 797,675 795,678 793,680 791,682 790,684 787,686 785,688 782,690 780,692 778,693 776,695 773,697 771,698 768,699 766,700 763,702 761,703 758,704 755,705 753,706 750,707 746,707 744,708 741,709 738,710 734,710 731,710 729,710 725,711 721,711 718,711 715,711 712,711 709,711 706,711 703,710 701,710 697,710 695,710 691,709 690,709 686,708 684,707 680,707 679,706 676,705 673,704 670,703 667,702 666,700 663,699 661,698 657,698 655,696 653,694 650,692 648,691 646,689 643,686 641,686 639,684 637,681 634,680 631,678 630,675 628,674 626,671 624,669 622,667 620,664 618,662 617,660 615,658 614,656 612,653 611,651 609,648 608,645 608,643 606,641 605,639 604,635 603,633 602,631 602,627 601,625 600,622 599,620 599,616 598,614 598,611 597,609 597,605 597,603 597,600 597,597 597,595 596,594 596,592 596,591 596,588 596,586 596,586 596,583 595,582 595,581 594,579 594,577 593,575 593,575 592,573 592,571 590,570 590,569 590,567 589,565 588,564 587,563 585,561 584,559 584,558 583,557 581,556 581,554 578,553 578,551 577,550 576,548 574,547 572,546 571,545 570,544 569,543 566,541 566,540 565,539 563,539 561,538 560,536 558,536 557,535 555,534 554,534 553,533 551,532 549,531 548,531 546,530 545,529 543,529 542,529 540,529 538,529 537,528 535,528 533,528 531,527 531,527 528,527 527,527 525,527 523,527 521,527 519,528 519,528 516,528 515,528 513,529 512,529 510,529 508,529 507,530 506,530 504,531 503,532 501,533 500,533 498,534 496,534 495,535 495,536 492,536 491,538 489,539 489,539 487,540 485,542 484,543 483,544 481,545 480,546 479,547 477,549 477,550 476,551 474,553 473,554 472,556 471,557 470,557 469,559 468,561 468,563 467,563 466,565 466,566 465,568 464,569 463,571 462,573 462,575 461,575 461,576 460,578 460,580 460,581 460,583 459,586 459,586 459,588 459,590 459,592 459,593 459,594 458,598 458,601 458,604 458,606 457,610 457,612 457,615 456,617 456,621 455,622 454,626 454,628 454,631 452,633 451,636 450,639 449,642 448,644 447,646 445,648 444,651 442,653 442,656 440,658 438,660 436,663 434,665 432,668 430,669 429,672 427,674 424,677 422,678 420,680 418,683 416,685 413,686 411,689 409,690 406,692 405,693 402,695 400,697 397,698 395,698 393,700 389,701 387,703 384,704 382,704 379,706 377,707 374,707 371,708 368,708 366,709 363,710 360,710 358,710 355,710 352,711 348,711 346,711 343,711 340,711 337,711 334,711 331,710 329,710 325,710 323,710 319,709 317,709 314,708 312,707 308,707 306,706 304,705 301,704 298,703 295,702 293,700 291,699 288,698 286,697 283,695 281,693 278,692 276,690 273,689 271,686 269,686 266,683 264,681 262,680 260,677 258,675 256,673 254,671 252,669 250,667 248,664 246,662 245,659 242,657 241,655 241,652 239,650 237,647 236,645 235,642 234,639 233,637 231,634 230,633 230,629 229,627 229,624 228,622 227,619 227,616 226,612 225,610 225,607 225,604 225,602 225,598 224,595 224,594 224,592 224,590 224,587 224,586 224,585 223,582 223,581 223,579 223,576 222,575 222,574 221,572 221,570 221,569 219,567 218,565 218,564 217,563 217,561 216,559 215,558 214,557 212,556 211,554 211,553 209,551 208,550 206,549 206,547 204,547 204,545 200,544 198,541 194,539 192,538 191,536 189,536 187,535 186,534 185,534 183,534 182,533 180,532 179,531 177,531 176,530 174,529 172,529 170,529 169,529 168,529 164,528 161,528 159,527 158,527 156,527 155,527 151,527 146,528 143,528 139,529 135,529 132,529 129,530 126,532 122,533 119,534 117,535 115,536 111,539 109,540 108,542 105,545 103,546 101,548 99,551 98,554 96,557 94,559 93,563 93,565 92,569 91,572 90,575 90,579 89,583 89,586 88,591 88,594 39,594 39,592 39,589 39,586 39,583 39,581 40,577 40,575 41,572 41,569 42,566 43,564 43,561 44,558 45,557 45,553 47,551 48,548 49,546 51,544 52,541 53,539 55,536 57,534 57,532 59,529 61,527 63,525 65,522 67,520 69,518 70,516 73,514 75,511 77,510 79,508 81,506 83,504 86,502 88,500 91,499 93,498 96,496 98,495 100,493 103,492 105,491 108,489 110,489 113,487 116,487 117,486 120,485 123,484 126,483 128,482 132,482 134,482 137,482 140,481 143,481 146,480 148,480 152,480 155,480 157,480 160,480 164,480 166,481 169,481 171,482 175,482 177,482 180,483 182,483 186,484 188,485 192,486 194,487 196,488 199,489 202,491 204,491 206,492 209,493 212,495 215,497 217,498 219,500 222,501 224,503 227,505 229,507 231,509 234,510 236,513 239,515 241,517 242,519 245,522 247,524 249,527 251,529 253,531 254,534 257,536 258,539 258,540 260,543 262,545 264,547 264,550 266,553 266,556 268,557 269,561 270,563 270,565 270,569 271,571 272,575 273,576 273,580 274,583 274,586 274,588 275,592 275,594 275,597 275,598 275,600 275,602 275,604 276,605 276,607 276,609 276,610 276,612 276,613 277,615 277,616 278,618 278,619 280,621 280,622 281,623 281,625 282,627 283,628 283,629 284,631 285,633 286,633 287,634 288,636 289,638 290,639 292,639 293,642 294,643 295,644 296,645 298,646 299,648 300,648 302,651 303,651 305,651 306,652 307,654 308,655 310,656 312,657 313,657 314,658 316,659 317,659 319,659 320,660 322,661 324,661 325,662 327,662 329,663 329,663 331,663 332,663 335,663 336,664 338,664 340,664 341,664 343,664 344,664 346,664 347,664 349,664 351,663 353,663 354,663 355,663 358,663 359,662 360,662 362,661 364,661 365,660 367,659 368,659 370,659 371,658 372,657 374,657 376,656 377,655 378,654 379,652 382,651 383,651 383,651 385,648 387,648 388,646 389,645 391,644 391,643 394,642 394,639 395,639 396,638 397,636 398,634 400,633 400,633 401,631 402,629 403,628 403,627 405,625 406,623 406,622 406,621 406,619 408,618 408,616 408,615 408,613 409,612 409,610 410,609 410,607 410,605 411,604 411,602 411,600 411,598 411,597 411,594 411,592 411,588 412,586 412,583 412,580 412,576 413,575 413,571 414,569 415,565 416,563 417,561 418,557 418,556 420,553 420,550 421,547 423,545 424,543 425,540 427,539 429,536 430,534 432,531 433,529 435,527 437,524 439,522 441,519 443,517 445,515 447,513 449,510 452,509 454,507 456,505 458,503 460,501 463,500 466,498 468,497 470,495 472,493 475,492 477,491 480,491 483,489 484,488 488,487 490,486 492,485 495,484 498,483 501,483 504,482 507,482 509,482 512,481 515,481 519,480 520,480 524,480 527,480 530,480 532,480 536,480 538,481 542,481 543,482 547,482 549,482 553,483 554,483 558,484 560,485 564,486 566,487 569,488 572,489 574,491 577,491 578,492 581,493 584,495 587,497 590,498 592,500 594,501 596,503 599,505 602,507 604,509 606,510 608,513 611,515 613,517 615,519 617,522 619,524 621,527 623,529 625,531 626,534 629,536 630,539 631,540 632,543 634,545 636,547 637,550 638,553 639,556 640,557 641,561 643,563 643,565 643,569 643,571 644,575 645,576 645,580 646,583 646,586 647,588 647,592 647,594 647,597 647,598 647,600 647,602 647,604 648,605 648,607 648,609 649,610 649,612 649,613 649,615 650,616 650,618 651,619 652,621 652,622 653,623 653,625 655,627 655,628 655,629 656,631 657,633 658,633 660,634 661,636 661,638 662,639 664,639 665,642 667,643 667,644 668,645 670,646 671,648 673,648 674,651 675,651 677,651 679,652 679,654 680,655 682,656 684,657 685,657 686,658 688,659 690,659 691,659 692,660 694,661 696,661 697,662 699,662 700,663 702,663 703,663 706,663 707,663 708,664 710,664 712,664 714,664 715,664 717,664 719,664 720,664 722,664 724,663 726,663 727,663 729,663 730,663 732,663 733,662 735,662 737,661 738,660 740,660 742,659 742,659 744,659 745,658 746,657 748,657 750,656 750,655 752,654 753,653 754,652 755,651 756,651 757,650 758,648 759,647 761,646 762,645 763,643 764,642 766,639 766,637 768,634 768,633 770,630 771,627 773,623 774,621 775,616 777,613 778,610 779,605 780,602 782,598 784,594 785,590 787,586 789,582 790,579 792,575 795,572 797,569 798,565 801,563 803,559 805,557 808,554 810,551 813,548 815,546 817,544 821,541 823,539 827,538 830,535 832,534 835,532 838,529 842,528 844,527 849,526 852,524 855,522 859,522 862,521 866,520 869,519 874,519 879,518 884,518 891,518 898,518 905,517 913,517 921,517 930,516 940,516 951,516 962,516 973,516 985,516 985,449 Z"/>
  </g>
 </g>
</svg>