<?xml version="1.0" encoding="UTF-8"?>

<svg version="1.2" width="150px" height="150px" viewBox="0 0 1160 1160" xmlns="http://www.w3.org/2000/svg" xmlns:xlink="http://www.w3.org/1999/xlink">
 <g visibility="visible" id="MasterSlide_1_Standard">
  <g id="DrawingGroup_1">
   <g>
   <path fill="rgb(0,0,0)" stroke="none" d="M 69,547 C 317,547 564,547 812,547 812,718 812,889 812,1060 564,1060 317,1060 69,1060 69,889 69,718 69,547 Z M 89,1050 C 86,1047 82,1043 79,1040 320,1040 561,1040 802,1040 799,1043 796,1047 792,1050 792,886 792,721 792,557 796,560 799,563 802,567 561,567 320,567 79,567 82,563 86,560 89,557 89,721 89,886 89,1050 Z"/>
   <path fill="none" stroke="rgb(0,0,0)" id="Drawing_1_0" d="M 69,547 C 317,547 564,547 812,547 812,718 812,889 812,1060 564,1060 317,1060 69,1060 69,889 69,718 69,547 Z"/>
   <path fill="none" stroke="rgb(0,0,0)" id="Drawing_1_1" d="M 89,1050 C 86,1047 82,1043 79,1040 320,1040 561,1040 802,1040 799,1043 796,1047 792,1050 792,886 792,721 792,557 796,560 799,563 802,567 561,567 320,567 79,567 82,563 86,560 89,557 89,721 89,886 89,1050 Z"/>
   </g>
   <g>
   <path fill="rgb(0,0,0)" stroke="none" d="M 186,1009 L 167,1009 167,892 C 162,896 156,900 149,905 142,909 135,912 129,914 L 129,896 C 140,892 149,886 157,879 165,872 170,865 174,859 L 186,859 186,1009 Z"/>
    <rect fill="none" stroke="none" x="129" y="858" width="58" height="152"/>
   </g>
   <g>
   <path fill="rgb(0,0,0)" stroke="none" d="M 236,970 L 255,967 C 257,977 260,985 266,990 271,994 277,996 285,996 293,996 301,993 307,987 313,981 316,974 316,965 316,957 313,950 308,944 302,939 295,936 286,936 283,936 278,937 273,938 L 275,922 C 276,922 277,922 278,922 286,922 293,920 300,916 306,912 309,906 309,897 309,891 307,885 302,881 298,876 292,874 284,874 277,874 271,876 266,881 261,885 258,892 256,901 L 238,898 C 240,885 245,876 253,869 262,862 272,859 284,859 292,859 300,861 307,864 314,868 319,872 323,878 327,884 329,891 329,898 329,904 327,910 323,915 320,921 314,925 307,928 317,930 324,934 329,941 334,947 336,955 336,965 336,978 331,989 321,998 312,1007 299,1012 285,1012 271,1012 260,1008 251,1000 242,992 237,982 236,970 Z"/>
    <rect fill="none" stroke="none" x="235" y="858" width="103" height="155"/>
   </g>
   <g>
   <path fill="rgb(255,20,21)" stroke="none" d="M 423,670 C 500,639 577,607 654,576 598,506 541,436 485,366 556,408 628,451 699,494 663,376 626,259 589,142 644,223 699,304 754,386 768,291 781,196 794,101 814,207 834,312 854,418 902,321 950,224 998,127 970,248 943,369 915,491 974,441 1032,391 1091,341 1042,421 994,501 945,582 982,611 1018,641 1055,670 844,670 633,670 423,670 Z M 772,584 C 736,563 700,542 663,521 685,547 707,573 728,598 701,608 673,618 645,628 743,628 840,628 937,628 921,616 905,604 889,591 901,572 913,553 924,534 900,554 876,575 852,595 864,542 876,488 888,435 871,470 854,506 837,542 825,477 813,413 801,349 794,399 787,449 780,499 755,465 730,432 705,399 728,460 750,522 772,584 Z"/>
    <rect fill="none" stroke="none" x="422" y="100" width="671" height="572"/>
   </g>
  </g>
 </g>
</svg>