<?xml version="1.0" encoding="UTF-8"?>

<svg version="1.2" width="150px" height="150px" viewBox="0 0 1160 1160" xmlns="http://www.w3.org/2000/svg" xmlns:xlink="http://www.w3.org/1999/xlink">
 <g visibility="visible" id="MasterSlide_1_Standard">
  <g id="DrawingGroup_1">
   <g>
   <path fill="rgb(255,153,0)" stroke="none" d="M 33,1050 C 215,737 398,424 581,111 763,424 946,737 1128,1050 763,1050 398,1050 33,1050 Z M 1056,966 C 1044,987 1032,1009 1020,1030 862,758 703,487 545,215 569,215 593,215 617,215 459,487 300,758 142,1030 130,1009 118,987 106,966 423,966 739,966 1056,966 Z"/>
   <path fill="none" stroke="rgb(255,153,0)" id="Drawing_1_0" d="M 33,1050 C 215,737 398,424 581,111 763,424 946,737 1128,1050 763,1050 398,1050 33,1050 Z"/>
   <path fill="none" stroke="rgb(255,153,0)" id="Drawing_1_1" d="M 1056,966 C 1044,987 1032,1009 1020,1030 862,758 703,487 545,215 569,215 593,215 617,215 459,487 300,758 142,1030 130,1009 118,987 106,966 423,966 739,966 1056,966 Z"/>
   </g>
   <g>
   <path fill="rgb(255,153,0)" stroke="none" d="M 587,806 L 587,772 675,772 675,853 C 667,861 654,869 638,875 622,881 605,884 588,884 567,884 548,880 532,871 517,862 505,849 497,833 489,816 485,798 485,778 485,757 489,738 498,722 507,705 520,692 537,684 550,677 566,674 586,674 611,674 631,679 645,689 660,700 669,715 673,733 L 632,741 C 629,731 624,723 616,717 608,712 598,709 586,709 568,709 554,714 543,726 532,737 527,754 527,777 527,801 532,819 543,831 554,843 568,849 586,849 594,849 603,848 611,844 620,841 628,837 634,832 L 634,806 587,806 Z"/>
    <rect fill="none" stroke="none" x="484" y="673" width="193" height="213"/>
   </g>
  </g>
 </g>
</svg>