<?xml version="1.0" encoding="UTF-8"?>

<svg version="1.2" width="150px" height="150px" viewBox="0 0 1160 1160" xmlns="http://www.w3.org/2000/svg" xmlns:xlink="http://www.w3.org/1999/xlink">
 <g visibility="visible" id="MasterSlide_1_Standard">
  <g id="Drawing_1">
  <path fill="rgb(255,0,0)" stroke="rgb(255,0,0)" d="M 55,462 L 139,782 103,793 18,474 Z"/>
  <path fill="rgb(255,0,0)" stroke="rgb(255,0,0)" d="M 334,100 L 782,99 782,140 334,142 Z"/>
  <path fill="rgb(255,0,0)" stroke="rgb(255,0,0)" d="M 788,174 L 1138,44 1099,404 1060,399 1096,71 1121,94 801,213 Z"/>
  <path fill="rgb(255,0,0)" stroke="rgb(255,0,0)" d="M 1119,548 L 1069,1117 511,1027 517,985 1054,1072 1033,1091 1080,544 Z"/>
  <path fill="rgb(255,0,0)" stroke="rgb(255,0,0)" d="M 401,1133 L 107,1072 54,895 91,883 139,1048 125,1034 409,1092 Z"/>
  <path fill="rgb(255,0,0)" stroke="rgb(255,0,0)" d="M 54,406 L 38,83 346,32 351,73 61,122 78,99 93,404 Z"/>
  <path fill="rgb(255,0,0)" stroke="rgb(255,0,0)" d="M 178,416 L 577,211 592,245 193,450 Z"/>
  <path fill="rgb(255,0,0)" stroke="rgb(255,0,0)" d="M 251,950 L 255,387 289,388 285,951 Z"/>
  <path fill="rgb(255,0,0)" stroke="rgb(255,0,0)" d="M 261,913 L 687,913 687,950 261,950 Z"/>
  <path fill="rgb(255,0,0)" stroke="rgb(255,0,0)" d="M 348,615 L 534,615 534,653 348,653 Z"/>
  <path fill="rgb(255,0,0)" stroke="rgb(255,0,0)" d="M 383,625 L 375,944 341,944 349,624 Z"/>
  <path fill="rgb(255,0,0)" stroke="rgb(255,0,0)" d="M 534,639 L 530,919 496,918 499,638 Z"/>
  <path fill="rgb(255,0,0)" stroke="none" d="M 786,671 L 786,671 C 779,679 783,725 773,742 770,746 767,751 765,756 762,764 757,782 757,782 758,792 762,803 761,813 760,819 753,820 748,822 738,828 721,830 712,831 708,835 705,840 703,845 700,852 698,867 691,871 681,877 658,880 658,880 648,912 643,902 662,916 665,920 667,926 670,929 673,934 679,934 683,939 685,942 683,949 687,952 688,954 715,961 716,961 720,964 725,965 727,970 741,988 721,980 740,997 743,999 748,999 752,1001 767,999 782,998 797,997 802,996 806,993 810,992 822,990 835,989 847,988 878,976 840,992 871,974 881,969 896,968 905,965 909,964 913,963 917,961 918,956 919,952 921,948 923,943 929,939 930,934 930,924 927,913 926,903 923,894 917,876 917,876 916,846 918,816 913,786 912,782 905,785 901,782 892,777 876,764 876,764 873,754 869,733 860,724 L 822,697 822,697 C 818,694 815,690 810,688 794,682 792,662 786,671 Z"/>
  <path fill="rgb(255,0,0)" stroke="rgb(255,0,0)" d="M 579,213 L 735,329 716,360 559,243 Z"/>
  <path fill="rgb(255,0,0)" stroke="rgb(255,0,0)" d="M 703,355 L 703,355 704,364 705,373 707,382 707,391 707,391 C 707,391 707,393 707,394 L 707,396 707,396 C 707,396 707,398 707,400 L 706,401 706,401 C 706,401 706,402 705,403 L 705,403 704,405 702,408 700,411 698,415 696,417 694,420 690,425 688,428 687,430 686,431 685,432 685,432 687,428 686,430 686,426 687,430 687,433 688,436 688,439 688,442 688,444 689,446 689,449 690,450 690,452 691,455 692,457 693,459 693,460 693,460 693,460 692,458 693,459 691,457 692,458 690,457 691,458 689,457 690,457 690,457 691,457 694,457 697,458 699,458 702,460 705,461 708,463 711,465 713,469 716,472 717,476 720,480 721,483 722,485 722,488 723,490 724,495 726,499 727,501 727,504 728,506 730,508 731,509 732,510 732,512 734,514 736,514 737,515 737,516 737,516 738,516 737,516 738,516 740,517 741,517 742,517 745,518 747,519 750,520 753,522 757,524 761,527 765,529 767,532 767,532 C 772,536 775,543 772,549 L 772,549 764,576 762,583 762,586 761,588 757,606 757,602 757,607 757,613 758,625 758,630 759,635 759,639 761,643 760,641 761,643 759,639 760,641 758,639 760,640 758,639 760,640 760,641 761,641 763,642 767,643 771,643 775,643 779,644 788,644 793,645 797,645 797,645 C 803,646 808,650 810,656 L 810,656 811,659 812,662 813,666 814,670 816,678 816,685 817,692 818,698 819,711 820,723 820,736 821,749 821,755 821,761 822,768 822,776 823,776 823,778 824,781 825,786 826,791 829,802 830,808 831,815 831,821 831,826 831,830 831,835 803,835 803,830 803,826 803,822 803,819 802,815 802,809 799,798 798,795 797,790 796,784 795,781 795,778 794,771 793,764 793,757 792,751 792,737 792,726 791,713 790,702 789,696 788,689 787,683 787,677 787,676 786,672 784,669 783,666 795,676 791,675 786,675 777,674 772,674 767,673 761,672 755,671 751,669 747,667 744,666 742,665 742,665 C 742,664 742,664 741,663 L 740,662 740,662 C 739,662 738,661 738,660 L 737,658 737,658 C 736,658 736,657 735,656 L 734,653 734,653 C 734,653 733,653 733,651 L 733,651 732,644 731,638 730,632 730,626 729,614 729,609 729,603 729,603 C 729,602 729,600 729,598 L 729,598 733,580 735,576 736,573 737,566 746,539 752,557 748,554 746,553 743,551 741,549 739,549 738,548 737,548 736,547 735,547 733,546 730,545 728,545 726,544 723,543 721,541 719,539 717,538 714,535 712,533 710,530 708,528 705,524 703,519 701,515 700,511 698,508 697,504 697,500 696,499 695,496 695,495 694,494 693,491 693,490 692,489 692,488 692,488 692,488 693,488 693,488 693,488 693,488 691,488 687,488 684,487 683,487 683,487 C 683,487 682,487 682,486 L 680,486 680,486 C 679,486 679,485 678,485 L 677,485 677,485 C 677,484 676,484 675,483 L 674,482 674,482 C 673,481 673,481 673,480 L 673,480 670,478 668,475 667,471 665,468 664,464 663,460 663,457 662,455 662,452 661,450 660,446 660,444 659,440 659,437 658,433 658,430 658,430 C 658,429 658,427 658,426 L 658,425 658,425 C 658,424 658,422 659,421 L 659,421 661,417 663,415 664,411 666,409 668,406 672,401 674,398 676,396 678,393 678,391 679,391 681,388 680,391 680,389 679,393 679,391 679,395 678,386 678,376 677,367 675,359 703,355 Z"/>
  </g>
 </g>
</svg>