<?xml version="1.0" encoding="UTF-8"?>

<svg version="1.2" width="150px" height="150px" viewBox="0 0 1160 1160" xmlns="http://www.w3.org/2000/svg" xmlns:xlink="http://www.w3.org/1999/xlink">
 <g visibility="visible" id="MasterSlide_1_Standard">
  <g id="Drawing_1">
  <path fill="rgb(0,0,255)" stroke="rgb(0,0,255)" d="M 266,683 L 267,667 268,651 270,635 273,619 276,604 280,589 285,574 291,560 297,546 304,532 312,519 320,506 329,493 338,481 348,470 359,458 370,448 381,438 393,429 406,420 419,411 432,404 446,397 460,390 474,385 489,380 504,375 519,372 535,369 551,367 567,365 583,365 600,365 616,367 632,369 647,371 663,375 678,379 693,384 707,390 721,396 735,403 748,411 761,419 774,428 786,437 798,447 808,457 819,468 829,480 839,492 848,504 856,517 863,530 870,544 877,558 883,572 888,587 892,602 896,617 899,633 901,649 902,665 902,681 902,697 901,714 899,730 896,745 892,760 888,775 883,790 878,805 871,819 864,833 857,846 848,859 840,871 830,883 820,895 810,906 799,916 787,926 775,936 763,944 750,953 737,960 723,967 709,974 695,979 680,985 665,989 649,992 634,995 618,997 602,999 585,999 569,999 553,998 537,996 521,993 506,989 491,985 476,980 461,974 448,968 434,961 420,954 408,946 395,937 383,927 371,917 360,907 350,896 340,884 330,873 321,860 313,848 305,834 298,821 292,806 286,792 281,777 277,762 273,747 270,731 268,715 267,699 266,683 Z M 344,694 L 345,706 346,717 348,730 351,741 354,753 358,763 362,775 367,785 372,795 378,805 384,815 391,825 398,834 406,843 413,851 422,859 430,866 440,874 449,880 459,887 469,892 479,898 490,903 501,907 512,911 523,914 535,917 547,919 559,921 571,921 583,922 596,921 608,921 620,919 632,917 644,914 655,911 666,908 677,903 688,899 699,893 709,888 718,881 728,875 737,868 746,860 754,852 762,844 770,835 777,826 784,817 790,807 796,797 801,787 806,776 810,765 814,754 817,743 820,731 822,720 824,708 825,695 825,683 825,671 824,659 823,647 820,635 818,623 815,612 811,601 807,590 802,579 797,569 791,559 785,549 778,540 771,531 763,522 755,513 747,505 738,498 729,491 720,484 710,478 700,472 690,466 679,462 668,457 657,453 646,450 634,448 622,445 610,444 598,443 585,442 573,443 561,443 549,445 537,447 525,450 514,453 502,457 491,461 481,466 470,471 460,477 450,483 441,490 432,497 423,504 415,512 407,520 399,529 392,538 385,548 379,557 373,567 368,577 363,588 358,599 355,610 351,621 349,633 346,645 345,657 344,669 343,681 344,694 Z"/>
  <path fill="rgb(0,0,255)" stroke="rgb(0,0,255)" d="M 438,424 L 593,148 643,176 488,452 Z"/>
  <path fill="rgb(0,0,255)" stroke="rgb(0,0,255)" d="M 622,378 L 746,147 796,174 672,405 Z"/>
  </g>
 </g>
</svg>