<?xml version="1.0" encoding="UTF-8"?>

<svg version="1.2" width="150px" height="150px" viewBox="0 0 1160 1160" xmlns="http://www.w3.org/2000/svg" xmlns:xlink="http://www.w3.org/1999/xlink">
 <g visibility="visible" id="MasterSlide_1_Standard">
  <g id="DrawingGroup_1">
   <g>
   <path fill="rgb(0,0,255)" stroke="none" d="M 245,68 C 469,68 692,68 916,68 916,409 916,751 916,1092 692,1092 469,1092 245,1092 245,751 245,409 245,68 Z M 325,1052 C 311,1039 298,1025 285,1012 482,1012 679,1012 876,1012 862,1025 849,1039 835,1052 835,737 835,423 835,108 849,121 862,135 876,148 679,148 482,148 285,148 298,135 311,121 325,108 325,423 325,737 325,1052 Z"/>
   <path fill="none" stroke="rgb(0,0,255)" id="Drawing_1_0" d="M 245,68 C 469,68 692,68 916,68 916,409 916,751 916,1092 692,1092 469,1092 245,1092 245,751 245,409 245,68 Z"/>
   <path fill="none" stroke="rgb(0,0,255)" id="Drawing_1_1" d="M 325,1052 C 311,1039 298,1025 285,1012 482,1012 679,1012 876,1012 862,1025 849,1039 835,1052 835,737 835,423 835,108 849,121 862,135 876,148 679,148 482,148 285,148 298,135 311,121 325,108 325,423 325,737 325,1052 Z"/>
   </g>
   <g>
   <path fill="rgb(0,0,255)" stroke="none" d="M 548,429 C 548,400 548,370 548,341 574,341 600,341 625,341 625,370 625,400 625,429 L 548,429 Z M 548,839 C 548,719 548,598 548,478 574,478 600,478 625,478 625,598 625,719 625,839 L 548,839 Z"/>
    <rect fill="none" stroke="none" x="547" y="340" width="80" height="500"/>
   </g>
  </g>
 </g>
</svg>