<?xml version="1.0" encoding="UTF-8"?>

<svg version="1.2" width="150px" height="150px" viewBox="0 0 1160 1160" xmlns="http://www.w3.org/2000/svg" xmlns:xlink="http://www.w3.org/1999/xlink">
 <g visibility="visible" id="MasterSlide_1_Standard">
  <g id="Drawing_1">
  <path fill="rgb(255,255,255)" stroke="none" d="M 746,756 L 570,578 746,400 Z"/>
  <path fill="rgb(255,255,255)" stroke="rgb(255,255,255)" d="M 749,756 L 749,756 C 749,758 748,759 747,759 746,760 745,759 744,759 L 569,581 569,581 C 567,580 567,577 569,577 L 744,399 744,399 C 745,397 746,397 747,398 748,398 749,400 749,400 L 749,756 Z M 742,400 L 742,400 748,403 573,581 573,577 748,755 742,756 742,400 Z"/>
  <path fill="rgb(255,255,255)" stroke="none" d="M 385,753 L 564,577 385,400 Z"/>
  <path fill="rgb(255,255,255)" stroke="rgb(255,255,255)" d="M 388,753 L 388,753 383,751 562,575 562,579 383,403 388,400 388,753 Z M 382,400 L 382,400 C 382,400 382,398 384,398 385,397 386,397 387,399 L 566,575 566,575 C 567,575 567,576 567,577 567,578 567,579 566,579 L 387,755 387,755 C 386,756 385,757 384,756 382,756 382,755 382,753 L 382,400 Z"/>
  <path fill="rgb(0,0,255)" stroke="none" d="M 385,764 L 565,583 742,764 565,944 Z"/>
  <path fill="rgb(0,0,255)" stroke="rgb(0,0,255)" d="M 384,766 L 384,766 C 382,765 382,762 384,762 L 562,581 562,581 C 563,580 565,580 567,581 L 745,762 745,762 C 746,762 746,765 745,766 L 567,946 567,946 C 565,947 563,947 562,946 L 384,766 Z M 567,941 L 567,941 562,941 740,762 740,766 562,585 567,585 388,766 388,762 567,941 Z"/>
  <path fill="rgb(0,0,255)" stroke="none" d="M 742,403 L 567,575 391,403 Z"/>
  <path fill="rgb(0,0,255)" stroke="rgb(0,0,255)" d="M 742,400 L 742,400 C 744,400 746,401 746,403 746,403 746,405 745,406 L 569,577 569,577 C 569,579 566,579 565,577 L 389,406 389,406 C 389,405 388,403 389,403 389,401 390,400 391,400 L 742,400 Z M 391,407 L 391,407 393,402 569,573 565,573 741,402 742,407 391,407 Z"/>
  <path fill="rgb(0,0,255)" stroke="rgb(0,0,255)" d="M 382,399 L 382,399 C 382,398 382,397 383,397 L 747,397 747,397 C 749,397 749,398 749,399 L 749,767 749,767 C 749,769 749,769 747,769 L 383,769 383,769 C 382,769 382,769 382,767 L 382,399 Z M 385,767 L 385,767 383,766 747,766 746,767 746,399 747,400 383,400 385,399 385,767 Z"/>
  <path fill="rgb(0,0,255)" stroke="none" d="M 265,1075 L 265,354 570,46 875,354 872,1075 813,1074 815,366 825,387 550,109 592,109 317,387 325,366 325,1075 265,1075 Z"/>
  <path stroke-width="1" fill="none" stroke="rgb(0,0,255)" d="M 265,1075 L 265,354 570,46 875,354 872,1075 813,1074 815,366 825,387 550,109 592,109 317,387 325,366 325,1075 265,1075 Z"/>
  </g>
 </g>
</svg>