<?xml version="1.0" encoding="UTF-8"?>

<svg version="1.2" width="150px" height="150px" viewBox="0 0 1160 1160" xmlns="http://www.w3.org/2000/svg" xmlns:xlink="http://www.w3.org/1999/xlink">
 <g visibility="visible" id="MasterSlide_1_Standard">
  <g id="Drawing_1">
  <path fill="rgb(0,0,255)" stroke="rgb(0,0,255)" d="M 223,31 L 886,31 886,1089 223,1089 223,31 Z M 302,1050 L 262,1009 847,1009 807,1050 807,71 847,110 262,110 302,71 302,1050 Z"/>
  <path fill="rgb(0,0,255)" stroke="none" d="M 283,589 L 819,589 819,641 283,641 283,589 Z"/>
  <path stroke-width="1" fill="none" stroke="rgb(0,0,255)" d="M 283,589 L 819,589 819,641 283,641 283,589 Z"/>
  <path fill="rgb(0,0,255)" stroke="none" d="M 287,455 L 822,455 822,506 287,506 287,455 Z"/>
  <path stroke-width="1" fill="none" stroke="rgb(0,0,255)" d="M 287,455 L 822,455 822,506 287,506 287,455 Z"/>
  <path fill="rgb(255,255,255)" stroke="none" d="M 752,679 L 560,488 752,297 Z"/>
  <path fill="rgb(255,255,255)" stroke="rgb(255,255,255)" d="M 756,679 L 756,679 C 756,681 755,683 754,683 753,683 752,683 751,682 L 558,490 558,490 C 557,490 556,489 556,488 556,487 557,486 558,486 L 751,295 751,295 C 752,293 753,293 754,293 755,293 756,296 756,297 L 756,679 Z M 749,297 L 749,297 755,299 562,490 562,486 755,677 749,679 749,297 Z"/>
  <path fill="rgb(255,255,255)" stroke="none" d="M 357,679 L 553,486 357,293 Z"/>
  <path fill="rgb(255,255,255)" stroke="rgb(255,255,255)" d="M 360,679 L 360,679 355,677 551,484 551,488 355,296 360,293 360,679 Z M 354,293 L 354,293 C 354,292 355,290 356,290 357,289 359,289 359,291 L 555,484 555,484 C 556,484 556,485 556,486 556,488 556,488 555,488 L 359,682 359,682 C 359,683 357,683 356,683 355,683 354,681 354,679 L 354,293 Z"/>
  <path fill="rgb(0,0,255)" stroke="none" d="M 358,688 L 553,492 749,688 553,884 Z"/>
  <path fill="rgb(0,0,255)" stroke="rgb(0,0,255)" d="M 356,691 L 356,691 C 355,689 355,687 356,686 L 551,490 551,490 C 552,488 554,488 556,490 L 752,686 752,686 C 752,687 752,689 752,691 L 556,887 556,887 C 554,887 552,887 551,887 L 356,691 Z M 556,882 L 556,882 551,882 746,686 746,691 551,494 556,494 360,691 360,686 556,882 Z"/>
  <path fill="rgb(0,0,255)" stroke="none" d="M 749,297 L 556,483 364,297 Z"/>
  <path fill="rgb(0,0,255)" stroke="rgb(0,0,255)" d="M 749,293 L 749,293 C 751,293 752,293 752,296 753,297 752,298 752,299 L 559,485 559,485 C 558,487 555,487 554,485 L 362,299 362,299 C 361,298 360,297 361,296 361,293 363,293 364,293 L 749,293 Z M 364,300 L 364,300 366,295 559,481 554,481 747,295 749,300 364,300 Z"/>
  <path fill="rgb(0,0,255)" stroke="rgb(0,0,255)" d="M 354,291 L 354,291 C 354,290 355,289 355,289 L 754,289 754,289 C 756,289 756,290 756,291 L 756,691 756,691 C 756,692 756,692 754,692 L 355,692 355,692 C 355,692 354,692 354,691 L 354,291 Z M 357,691 L 357,691 355,689 754,689 752,691 752,291 754,293 355,293 357,291 357,691 Z"/>
  </g>
 </g>
</svg>