<?xml version="1.0" encoding="UTF-8"?>

<svg version="1.2" width="150px" height="150px" viewBox="0 0 1160 1160" xmlns="http://www.w3.org/2000/svg" xmlns:xlink="http://www.w3.org/1999/xlink">
 <g visibility="visible" id="MasterSlide_1_Standard">
  <g id="Drawing_1">
  <path fill="rgb(0,0,255)" stroke="rgb(0,0,255)" d="M 256,728 L 256,711 257,695 259,679 262,663 266,648 270,633 275,617 281,603 287,589 294,575 302,562 310,549 319,536 328,524 338,512 349,501 360,491 372,481 384,471 396,462 409,454 423,446 436,439 451,433 465,427 480,422 495,417 510,414 526,411 542,409 558,408 575,407 591,408 608,409 624,411 639,413 655,417 670,421 685,426 700,432 714,438 728,445 741,453 754,461 767,470 778,479 790,490 801,500 812,511 822,523 832,535 841,547 849,560 857,573 864,587 870,601 876,616 881,631 885,646 889,661 892,677 894,693 895,709 896,726 895,742 894,758 892,774 890,790 886,806 882,821 877,836 871,850 865,864 858,878 850,892 842,905 833,917 823,929 813,941 803,952 791,963 780,973 768,982 756,991 743,1000 729,1007 715,1014 701,1021 687,1026 672,1032 657,1036 641,1039 625,1042 609,1045 593,1046 577,1046 560,1046 544,1045 528,1043 512,1040 497,1037 482,1032 467,1027 452,1021 438,1015 424,1008 411,1001 398,992 385,983 373,974 361,964 350,953 340,942 330,931 320,919 311,906 303,893 295,880 288,866 281,852 276,838 271,823 266,808 263,792 260,776 258,760 256,744 256,728 Z M 334,738 L 335,750 336,762 338,774 341,786 344,798 348,809 352,820 357,830 362,841 368,851 374,861 381,870 388,880 396,888 404,897 412,905 421,912 430,920 440,926 449,933 459,939 470,944 481,949 492,953 503,957 514,960 526,963 538,965 550,967 562,968 575,968 587,968 600,967 612,966 624,964 636,961 647,958 658,954 669,950 680,945 691,940 701,934 711,928 720,921 729,914 738,906 747,898 755,890 762,881 770,872 776,862 783,853 789,843 794,832 799,821 803,811 807,799 810,788 813,776 815,764 817,752 818,740 818,728 818,715 817,703 815,691 813,679 811,667 807,656 804,645 799,634 795,623 789,612 784,602 777,592 771,583 764,574 756,565 748,557 739,548 731,541 722,534 712,527 702,521 692,515 682,509 671,504 660,500 649,496 637,493 626,490 614,488 602,486 589,485 577,485 564,485 552,486 540,488 528,490 516,493 505,496 493,499 482,504 472,509 461,514 451,520 441,526 432,533 422,540 413,547 405,555 397,564 389,573 382,581 375,591 369,601 363,611 358,621 353,632 349,643 345,654 342,665 339,677 336,689 335,701 334,713 334,726 334,738 Z"/>
  <path fill="rgb(0,0,255)" stroke="rgb(0,0,255)" d="M 535,438 L 536,99 594,100 592,438 Z"/>
  <path fill="rgb(0,0,255)" stroke="rgb(0,0,255)" d="M 716,290 L 413,290 413,232 716,232 Z"/>
  </g>
 </g>
</svg>