<?xml version="1.0" encoding="UTF-8"?>

<svg version="1.2" width="150px" height="150px" viewBox="0 0 1160 1160" xmlns="http://www.w3.org/2000/svg" xmlns:xlink="http://www.w3.org/1999/xlink">
 <g visibility="visible" id="MasterSlide_1_Standard">
  <g id="Drawing_1">
  <path fill="rgb(0,0,255)" stroke="rgb(0,0,255)" d="M 214,32 L 931,32 931,1120 214,1120 214,32 Z M 293,1081 L 254,1042 892,1042 853,1081 853,71 892,110 254,110 293,71 293,1081 Z"/>
  <path fill="rgb(0,0,255)" stroke="rgb(0,0,255)" d="M 243,557 L 251,541 260,524 271,509 282,494 294,480 307,466 321,453 335,442 350,431 364,421 381,412 397,404 414,397 431,390 449,385 467,381 485,377 504,375 523,373 542,372 561,372 581,373 600,376 620,378 640,382 659,386 679,393 698,400 718,407 738,416 757,425 776,436 795,447 814,460 832,474 849,488 866,503 883,519 897,534 912,552 869,589 857,573 843,559 829,545 814,532 798,519 783,507 766,495 749,486 732,476 715,467 697,460 680,452 663,447 646,442 628,438 611,433 594,431 578,429 561,428 545,428 528,429 511,430 496,433 480,436 465,439 450,444 436,449 421,455 408,462 395,469 383,477 370,486 359,495 348,505 337,516 327,528 318,540 309,552 301,567 293,582 Z"/>
  <path fill="rgb(0,0,255)" stroke="rgb(0,0,255)" d="M 278,542 L 290,557 302,571 315,586 329,598 343,610 357,621 372,632 388,641 403,650 419,657 435,665 452,672 469,676 486,681 503,686 521,688 538,691 556,692 573,692 592,692 609,691 626,689 645,686 662,682 679,678 697,672 713,666 730,658 746,651 763,641 778,631 794,620 814,605 833,587 850,568 867,548 910,585 892,607 871,629 849,648 826,667 808,679 790,691 772,701 752,710 733,719 713,726 693,733 673,738 654,742 633,745 613,748 592,748 572,749 551,748 531,747 511,744 491,740 471,736 451,730 432,724 412,716 394,708 375,699 358,689 340,678 322,666 306,653 290,639 274,624 259,609 245,592 233,576 Z"/>
  <path fill="rgb(0,0,255)" stroke="none" d="M 470,562 L 470,562 C 470,509 513,466 566,466 566,466 566,466 566,466 L 566,466 566,466 C 619,466 662,509 662,562 662,562 662,562 662,562 L 662,562 662,562 C 662,615 619,658 566,658 566,658 566,658 566,658 L 566,658 566,658 C 513,658 470,615 470,562 470,562 470,562 470,562 Z"/>
  <path fill="rgb(0,0,255)" stroke="rgb(0,0,255)" d="M 469,562 L 469,552 471,543 473,533 476,524 481,515 485,507 491,500 497,493 504,486 511,481 520,476 528,472 537,468 546,466 556,465 566,464 576,465 586,466 595,468 604,471 612,476 621,481 628,486 635,493 641,500 647,507 652,515 656,524 659,533 662,542 663,552 664,562 663,571 662,581 659,591 656,600 652,609 647,616 641,624 635,631 628,637 621,643 613,648 604,652 595,655 586,657 576,659 566,659 556,659 547,657 537,655 528,652 520,648 511,643 504,637 497,631 491,624 485,616 481,609 477,600 473,591 471,581 469,571 469,562 Z M 472,571 L 473,581 476,590 478,599 483,607 488,614 493,622 499,629 506,635 513,640 521,645 529,649 538,653 547,655 556,656 566,657 576,657 585,655 594,653 603,649 611,645 619,640 626,635 633,629 640,622 645,615 650,607 654,599 657,590 659,581 660,571 661,562 660,552 659,543 657,533 654,525 650,517 645,509 640,501 633,495 626,489 619,483 611,478 603,474 594,471 585,469 576,467 566,466 557,467 547,469 538,471 530,474 521,478 513,483 506,489 499,495 493,501 488,509 483,516 478,524 476,533 473,543 472,552 471,562 472,571 Z"/>
  </g>
 </g>
</svg>