<?xml version="1.0" encoding="UTF-8"?>

<svg version="1.2" width="150px" height="150px" viewBox="0 0 1160 1160" xmlns="http://www.w3.org/2000/svg" xmlns:xlink="http://www.w3.org/1999/xlink">
 <g visibility="visible" id="MasterSlide_1_Standard">
  <g id="DrawingGroup_1">
   <g>
   <path fill="rgb(255,0,0)" stroke="none" d="M 580,202 L 580,101 613,101 C 626,101 634,102 638,103 643,104 648,107 652,112 656,118 658,124 658,132 658,138 657,144 655,148 653,152 650,155 646,158 643,160 639,162 636,162 631,163 624,164 614,164 L 601,164 601,202 580,202 Z M 601,118 L 601,147 612,147 C 620,147 626,146 628,145 631,144 633,142 635,140 636,138 637,135 637,132 637,129 636,126 634,123 632,121 629,119 626,119 623,118 618,118 611,118 L 601,118 Z"/>
    <rect fill="none" stroke="none" x="580" y="101" width="80" height="102"/>
   </g>
   <g>
   <path fill="rgb(255,0,0)" stroke="none" d="M 690,151 L 673,148 C 675,141 678,136 683,132 688,129 695,127 705,127 713,127 720,128 724,130 728,132 731,135 733,138 735,141 736,147 736,155 L 735,178 C 735,184 736,189 736,192 737,195 738,199 740,202 L 721,202 C 720,201 719,199 719,196 718,195 718,194 718,194 715,197 711,200 707,201 704,203 700,204 695,204 688,204 682,202 677,198 673,193 671,188 671,182 671,178 672,174 674,171 676,168 678,165 682,164 686,162 691,160 698,159 707,157 713,156 716,154 L 716,152 C 716,149 716,146 714,144 712,143 708,142 703,142 700,142 697,143 695,144 693,145 692,148 690,151 Z M 716,167 C 714,168 710,169 705,170 699,171 696,172 694,173 691,175 690,177 690,180 690,183 691,185 693,187 695,189 698,190 701,190 705,190 708,189 711,187 713,185 715,183 716,180 716,179 716,175 716,171 L 716,167 Z"/>
    <rect fill="none" stroke="none" x="670" y="127" width="71" height="78"/>
   </g>
   <g>
   <path fill="rgb(255,0,0)" stroke="none" d="M 790,129 L 790,144 777,144 777,174 C 777,180 777,183 777,184 778,185 778,186 779,187 780,187 781,188 782,188 784,188 787,187 790,186 L 792,201 C 787,203 782,204 776,204 773,204 770,203 767,202 764,201 762,199 761,197 759,195 758,193 758,190 758,188 757,183 757,176 L 757,144 748,144 748,129 757,129 757,114 777,103 777,129 790,129 Z"/>
    <rect fill="none" stroke="none" x="748" y="103" width="45" height="102"/>
   </g>
   <g>
   <path fill="rgb(255,0,0)" stroke="none" d="M 644,374 L 619,374 C 619,371 619,369 619,368 619,360 621,353 623,348 626,343 631,337 639,331 647,324 652,320 653,318 655,315 657,312 657,308 657,302 655,298 650,294 646,290 641,289 633,289 627,289 621,290 616,294 612,298 609,304 607,312 L 582,309 C 583,298 588,288 597,280 606,272 618,268 632,268 648,268 660,272 669,280 678,288 683,298 683,309 683,315 681,320 678,326 674,331 667,338 656,347 651,352 647,356 646,359 644,362 644,367 644,374 Z M 619,411 L 619,384 646,384 646,411 619,411 Z"/>
    <rect fill="none" stroke="none" x="582" y="267" width="102" height="145"/>
   </g>
   <g>
   <path fill="rgb(255,0,0)" stroke="none" d="M 341,32 C 500,32 660,32 819,32 819,398 819,763 819,1129 660,1129 500,1129 341,1129 341,763 341,398 341,32 Z M 353,1122 C 351,1120 349,1118 347,1116 502,1116 658,1116 813,1116 811,1118 808,1120 806,1122 806,761 806,400 806,39 808,41 811,43 813,45 658,45 502,45 347,45 349,43 351,41 353,39 353,400 353,761 353,1122 Z"/>
   <path fill="none" stroke="rgb(255,0,0)" id="Drawing_5_0" d="M 341,32 C 500,32 660,32 819,32 819,398 819,763 819,1129 660,1129 500,1129 341,1129 341,763 341,398 341,32 Z"/>
   <path fill="none" stroke="rgb(255,0,0)" id="Drawing_5_1" d="M 353,1122 C 351,1120 349,1118 347,1116 502,1116 658,1116 813,1116 811,1118 808,1120 806,1122 806,761 806,400 806,39 808,41 811,43 813,45 658,45 502,45 347,45 349,43 351,41 353,39 353,400 353,761 353,1122 Z"/>
   </g>
   <g>
   <path fill="rgb(255,0,0)" stroke="none" d="M 442,202 L 430,202 430,128 C 427,131 423,133 419,136 414,139 410,141 406,142 L 406,131 C 413,128 419,124 424,120 429,115 432,111 434,107 L 442,107 442,202 Z"/>
    <rect fill="none" stroke="none" x="406" y="107" width="37" height="96"/>
   </g>
   <g>
   <path fill="rgb(255,0,0)" stroke="none" d="M 533,191 L 533,202 470,202 C 469,199 470,197 471,194 473,190 475,186 479,181 482,177 487,172 494,167 504,159 511,152 515,147 519,142 520,137 520,133 520,129 519,125 515,121 512,118 508,117 502,117 497,117 492,118 489,122 486,125 484,130 484,136 L 472,134 C 473,126 476,119 481,114 486,109 494,107 503,107 512,107 519,110 524,115 530,120 532,126 532,133 532,137 532,141 530,145 528,148 526,152 522,156 519,160 513,166 504,173 497,179 493,182 491,185 489,187 487,189 486,191 L 533,191 Z"/>
    <rect fill="none" stroke="none" x="469" y="107" width="65" height="96"/>
   </g>
   <g>
   <path fill="rgb(255,0,0)" stroke="none" d="M 525,339 L 514,340 C 513,335 511,332 510,330 507,326 503,325 498,325 495,325 492,326 489,328 485,330 482,334 480,339 478,345 477,352 477,361 480,357 483,354 487,352 491,350 495,349 500,349 507,349 514,352 519,357 524,363 527,370 527,379 527,385 526,391 523,396 521,401 517,405 513,408 508,410 503,412 498,412 488,412 481,408 475,401 469,394 466,382 466,366 466,348 469,334 476,326 481,319 489,315 499,315 506,315 512,317 517,321 521,326 524,331 525,339 Z M 479,379 C 479,383 480,387 481,391 483,395 485,397 488,399 491,401 494,402 498,402 503,402 507,400 510,396 514,392 515,387 515,380 515,373 514,368 510,365 507,361 502,359 497,359 492,359 488,361 484,365 481,368 479,373 479,379 Z"/>
    <rect fill="none" stroke="none" x="465" y="315" width="63" height="98"/>
   </g>
   <g>
   <path fill="rgb(255,0,0)" stroke="none" d="M 556,571 L 567,570 C 568,575 570,579 572,582 575,584 578,585 582,585 586,585 589,584 591,583 594,581 596,579 598,576 600,573 601,570 602,565 603,560 604,556 604,551 604,550 604,550 604,549 601,552 598,555 594,558 591,560 586,561 582,561 574,561 568,558 562,552 557,547 554,539 554,530 554,520 557,513 563,507 568,501 575,498 583,498 589,498 595,500 600,503 605,506 609,511 611,517 614,523 615,532 615,544 615,556 614,566 611,573 609,580 605,585 600,589 595,593 589,595 582,595 575,595 569,593 564,588 560,584 557,579 556,571 Z M 602,529 C 602,523 601,518 597,514 594,510 590,508 585,508 580,508 575,510 572,514 568,518 566,524 566,530 566,536 568,541 571,545 575,549 579,551 584,551 590,551 594,549 597,545 601,541 602,536 602,529 Z"/>
    <rect fill="none" stroke="none" x="554" y="498" width="63" height="98"/>
   </g>
   <g>
   <path fill="rgb(255,0,0)" stroke="none" d="M 569,770 C 564,768 561,765 558,762 556,759 555,755 555,750 555,744 557,738 562,733 567,728 573,726 581,726 590,726 596,729 601,733 606,738 608,744 608,751 608,755 607,759 605,762 603,765 599,768 595,770 600,772 605,775 608,779 611,783 612,788 612,794 612,802 609,809 604,814 598,820 591,823 582,823 573,823 565,820 560,814 554,809 551,802 551,794 551,788 553,782 556,778 559,774 563,771 569,770 Z M 567,750 C 567,755 568,758 571,761 574,764 577,765 582,765 586,765 590,764 592,761 595,758 597,755 597,751 597,746 595,743 592,740 589,737 586,736 582,736 577,736 574,737 571,740 568,743 567,746 567,750 Z M 563,794 C 563,797 564,800 565,803 567,806 569,809 572,811 575,812 578,813 582,813 587,813 592,811 595,808 599,804 600,800 600,794 600,789 599,784 595,780 591,777 587,775 581,775 576,775 572,777 568,780 565,784 563,788 563,794 Z"/>
    <rect fill="none" stroke="none" x="551" y="726" width="63" height="98"/>
   </g>
   <g>
   <path fill="rgb(255,0,0)" stroke="none" d="M 442,1063 L 430,1063 430,989 C 427,992 423,994 419,997 414,1000 410,1002 406,1003 L 406,992 C 413,989 419,985 424,981 429,976 432,972 434,968 L 442,968 442,1063 Z"/>
    <rect fill="none" stroke="none" x="406" y="968" width="37" height="96"/>
   </g>
   <g>
   <path fill="rgb(255,0,0)" stroke="none" d="M 471,1038 L 483,1037 C 484,1043 486,1048 490,1051 493,1054 497,1055 501,1055 507,1055 512,1053 515,1049 519,1046 521,1041 521,1035 521,1030 519,1026 516,1022 512,1019 508,1017 502,1017 500,1017 497,1017 494,1018 L 495,1008 C 496,1008 497,1008 497,1008 502,1008 507,1007 511,1004 515,1002 517,998 517,992 517,988 515,985 512,982 510,979 506,978 501,978 497,978 493,979 490,982 487,985 485,989 484,995 L 472,993 C 474,985 477,979 482,975 487,970 493,968 501,968 506,968 511,969 515,971 520,974 523,977 525,981 528,984 529,988 529,993 529,997 528,1000 525,1004 523,1007 520,1010 516,1012 521,1013 526,1016 529,1020 532,1024 533,1029 533,1035 533,1043 530,1050 524,1056 518,1062 511,1065 501,1065 493,1065 486,1062 481,1057 475,1052 472,1046 471,1038 Z"/>
    <rect fill="none" stroke="none" x="471" y="968" width="64" height="98"/>
   </g>
   <g>
   <path fill="rgb(255,0,0)" stroke="none" d="M 520,476 C 520,529 521,581 521,634 516,634 510,634 505,634 505,581 504,529 504,476 509,476 515,476 520,476 Z"/>
   <path fill="none" stroke="rgb(255,0,0)" id="Drawing_13_0" d="M 520,476 C 520,529 521,581 521,634 516,634 510,634 505,634 505,581 504,529 504,476 509,476 515,476 520,476 Z"/>
   </g>
   <g>
   <path fill="rgb(255,0,0)" stroke="none" d="M 664,475 C 664,528 664,581 664,634 659,634 653,634 648,634 648,581 647,528 647,475 653,475 658,475 664,475 Z"/>
   <path fill="none" stroke="rgb(255,0,0)" id="Drawing_14_0" d="M 664,475 C 664,528 664,581 664,634 659,634 653,634 648,634 648,581 647,528 647,475 653,475 658,475 664,475 Z"/>
   </g>
   <g>
   <path fill="rgb(255,0,0)" stroke="none" d="M 662,634 C 610,634 557,635 505,635 505,629 505,624 505,618 557,618 610,617 662,617 662,623 662,628 662,634 Z"/>
   <path fill="none" stroke="rgb(255,0,0)" id="Drawing_15_0" d="M 662,634 C 610,634 557,635 505,635 505,629 505,624 505,618 557,618 610,617 662,617 662,623 662,628 662,634 Z"/>
   </g>
   <g>
   <path fill="rgb(255,0,0)" stroke="none" d="M 498,694 C 552,694 606,694 660,694 660,748 660,802 660,856 606,856 552,856 498,856 498,802 498,748 498,694 Z M 515,848 C 512,845 510,842 507,839 555,839 604,839 652,839 649,842 647,845 644,848 644,799 644,751 644,702 647,705 649,707 652,710 604,710 555,710 507,710 510,707 512,705 515,702 515,751 515,799 515,848 Z"/>
   <path fill="none" stroke="rgb(255,0,0)" id="Drawing_16_0" d="M 498,694 C 552,694 606,694 660,694 660,748 660,802 660,856 606,856 552,856 498,856 498,802 498,748 498,694 Z"/>
   <path fill="none" stroke="rgb(255,0,0)" id="Drawing_16_1" d="M 515,848 C 512,845 510,842 507,839 555,839 604,839 652,839 649,842 647,845 644,848 644,799 644,751 644,702 647,705 649,707 652,710 604,710 555,710 507,710 510,707 512,705 515,702 515,751 515,799 515,848 Z"/>
   </g>
   <g>
   <path fill="rgb(255,0,0)" stroke="none" d="M 646,900 C 646,956 646,1011 646,1067 641,1067 636,1067 631,1067 631,1011 631,956 631,900 636,900 641,900 646,900 Z"/>
   <path fill="none" stroke="rgb(255,0,0)" id="Drawing_17_0" d="M 646,900 C 646,956 646,1011 646,1067 641,1067 636,1067 631,1067 631,1011 631,956 631,900 636,900 641,900 646,900 Z"/>
   </g>
   <g>
   <path fill="rgb(255,0,0)" stroke="none" d="M 695,967 C 657,967 620,967 582,967 582,962 582,957 582,952 620,952 657,951 695,951 695,956 695,962 695,967 Z"/>
   <path fill="none" stroke="rgb(255,0,0)" id="Drawing_18_0" d="M 695,967 C 657,967 620,967 582,967 582,962 582,957 582,952 620,952 657,951 695,951 695,956 695,962 695,967 Z"/>
   </g>
  </g>
 </g>
</svg>