<?xml version="1.0" encoding="UTF-8"?>

<svg version="1.2" width="150px" height="150px" viewBox="0 0 1160 1160" xmlns="http://www.w3.org/2000/svg" xmlns:xlink="http://www.w3.org/1999/xlink">
 <g visibility="visible" id="MasterSlide_1_Standard">
  <g id="DrawingGroup_1">
   <g>
   <path fill="rgb(255,0,0)" stroke="none" d="M 581,197 L 581,91 616,91 C 629,91 637,92 641,93 648,94 653,98 657,103 661,108 663,115 663,124 663,130 662,136 660,140 657,144 654,148 650,150 647,153 643,155 639,156 634,157 627,157 617,157 L 603,157 603,197 581,197 Z M 603,109 L 603,139 614,139 C 623,139 629,138 632,137 634,136 637,135 638,132 640,130 641,127 641,124 641,120 640,117 637,114 635,112 632,110 629,110 626,109 621,109 613,109 L 603,109 Z"/>
    <rect fill="none" stroke="none" x="580" y="91" width="85" height="107"/>
   </g>
   <g>
   <path fill="rgb(255,0,0)" stroke="none" d="M 695,144 L 677,140 C 679,133 683,127 688,124 693,120 700,119 710,119 720,119 727,120 731,122 735,124 739,127 740,130 742,133 743,139 743,148 L 743,172 C 743,179 743,183 744,187 745,190 746,193 748,197 L 727,197 C 727,196 726,194 725,191 725,190 725,189 725,189 721,192 717,195 713,196 709,198 705,199 701,199 693,199 686,197 682,192 677,188 675,183 675,176 675,172 676,168 678,164 680,161 683,158 687,157 690,155 696,153 703,152 713,150 719,148 723,147 L 723,145 C 723,141 722,138 720,137 718,135 714,134 709,134 705,134 703,135 700,136 698,138 697,140 695,144 Z M 723,160 C 720,161 716,162 710,163 705,164 701,166 699,167 697,169 695,171 695,174 695,177 696,179 698,181 701,183 703,184 707,184 710,184 714,183 717,181 720,179 721,177 722,174 723,172 723,169 723,164 L 723,160 Z"/>
    <rect fill="none" stroke="none" x="674" y="118" width="75" height="82"/>
   </g>
   <g>
   <path fill="rgb(255,0,0)" stroke="none" d="M 800,120 L 800,136 786,136 786,167 C 786,174 786,177 786,178 786,179 787,180 788,181 789,182 790,182 792,182 793,182 796,181 800,180 L 802,196 C 797,198 791,199 785,199 782,199 778,198 775,197 772,196 770,194 769,192 767,190 766,188 766,184 765,182 765,177 765,170 L 765,136 756,136 756,120 765,120 765,105 786,93 786,120 800,120 Z"/>
    <rect fill="none" stroke="none" x="755" y="93" width="48" height="107"/>
   </g>
   <g>
   <path fill="rgb(255,0,0)" stroke="none" d="M 644,371 L 619,371 C 619,367 619,365 619,364 619,356 620,349 623,344 625,339 631,333 639,326 647,319 651,315 653,313 655,310 656,306 656,302 656,297 654,292 650,288 646,284 640,282 633,282 626,282 620,284 616,288 611,292 608,299 606,307 L 581,304 C 582,292 587,282 596,273 605,265 617,261 632,261 648,261 660,265 669,273 678,282 683,292 683,303 683,309 681,315 678,321 674,326 667,334 656,343 650,348 647,352 645,355 644,358 643,363 644,371 Z M 619,409 L 619,381 646,381 646,409 619,409 Z"/>
    <rect fill="none" stroke="none" x="581" y="260" width="103" height="150"/>
   </g>
   <g>
   <path fill="rgb(255,0,0)" stroke="none" d="M 334,19 C 498,19 662,19 826,19 826,393 826,767 826,1141 662,1141 498,1141 334,1141 334,767 334,393 334,19 Z M 347,1135 C 345,1133 342,1130 340,1128 500,1128 660,1128 820,1128 818,1130 815,1133 813,1135 813,765 813,396 813,26 815,28 818,30 820,32 660,32 500,32 340,32 342,30 345,28 347,26 347,396 347,765 347,1135 Z"/>
   <path fill="none" stroke="rgb(255,0,0)" id="Drawing_5_0" d="M 334,19 C 498,19 662,19 826,19 826,393 826,767 826,1141 662,1141 498,1141 334,1141 334,767 334,393 334,19 Z"/>
   <path fill="none" stroke="rgb(255,0,0)" id="Drawing_5_1" d="M 347,1135 C 345,1133 342,1130 340,1128 500,1128 660,1128 820,1128 818,1130 815,1133 813,1135 813,765 813,396 813,26 815,28 818,30 820,32 660,32 500,32 340,32 342,30 345,28 347,26 347,396 347,765 347,1135 Z"/>
   </g>
   <g>
   <path fill="rgb(255,0,0)" stroke="none" d="M 518,474 C 518,528 519,581 519,635 513,635 508,635 502,635 502,581 501,528 501,474 507,474 512,474 518,474 Z"/>
   <path fill="none" stroke="rgb(255,0,0)" id="Drawing_6_0" d="M 518,474 C 518,528 519,581 519,635 513,635 508,635 502,635 502,581 501,528 501,474 507,474 512,474 518,474 Z"/>
   </g>
   <g>
   <path fill="rgb(255,0,0)" stroke="none" d="M 665,473 C 665,527 666,580 666,634 660,634 655,634 649,634 649,580 648,527 648,473 654,473 659,473 665,473 Z"/>
   <path fill="none" stroke="rgb(255,0,0)" id="Drawing_7_0" d="M 665,473 C 665,527 666,580 666,634 660,634 655,634 649,634 649,580 648,527 648,473 654,473 659,473 665,473 Z"/>
   </g>
   <g>
   <path fill="rgb(255,0,0)" stroke="none" d="M 664,635 C 610,635 556,636 502,636 502,630 502,625 502,619 556,619 610,618 664,618 664,624 664,629 664,635 Z"/>
   <path fill="none" stroke="rgb(255,0,0)" id="Drawing_8_0" d="M 664,635 C 610,635 556,636 502,636 502,630 502,625 502,619 556,619 610,618 664,618 664,624 664,629 664,635 Z"/>
   </g>
   <g>
   <path fill="rgb(255,0,0)" stroke="none" d="M 502,687 C 557,687 613,687 668,687 668,743 668,798 668,854 613,854 557,854 502,854 502,798 502,743 502,687 Z M 519,845 C 516,842 513,840 510,837 560,837 609,837 659,837 656,840 653,842 650,845 650,795 650,745 650,695 653,698 656,701 659,704 609,704 560,704 510,704 513,701 516,698 519,695 519,745 519,795 519,845 Z"/>
   <path fill="none" stroke="rgb(255,0,0)" id="Drawing_9_0" d="M 502,687 C 557,687 613,687 668,687 668,743 668,798 668,854 613,854 557,854 502,854 502,798 502,743 502,687 Z"/>
   <path fill="none" stroke="rgb(255,0,0)" id="Drawing_9_1" d="M 519,845 C 516,842 513,840 510,837 560,837 609,837 659,837 656,840 653,842 650,845 650,795 650,745 650,695 653,698 656,701 659,704 609,704 560,704 510,704 513,701 516,698 519,695 519,745 519,795 519,845 Z"/>
   </g>
   <g>
   <path fill="rgb(255,0,0)" stroke="none" d="M 648,908 C 648,965 648,1022 648,1079 643,1079 637,1079 632,1079 632,1022 632,965 632,908 637,908 643,908 648,908 Z"/>
   <path fill="none" stroke="rgb(255,0,0)" id="Drawing_10_0" d="M 648,908 C 648,965 648,1022 648,1079 643,1079 637,1079 632,1079 632,1022 632,965 632,908 637,908 643,908 648,908 Z"/>
   </g>
   <g>
   <path fill="rgb(255,0,0)" stroke="none" d="M 699,976 C 660,976 622,977 583,977 583,972 583,966 583,961 622,961 660,960 699,960 699,965 699,971 699,976 Z"/>
   <path fill="none" stroke="rgb(255,0,0)" id="Drawing_11_0" d="M 699,976 C 660,976 622,977 583,977 583,972 583,966 583,961 622,961 660,960 699,960 699,965 699,971 699,976 Z"/>
   </g>
  </g>
 </g>
</svg>