<?xml version="1.0" encoding="UTF-8"?>

<svg version="1.2" width="150px" height="150px" viewBox="0 0 1160 1160" xmlns="http://www.w3.org/2000/svg" xmlns:xlink="http://www.w3.org/1999/xlink">
 <g visibility="visible" id="MasterSlide_1_Standard">
  <g id="DrawingGroup_1">
   <g>
   <path fill="rgb(0,0,0)" stroke="none" d="M 575,166 L 575,166 C 572,166 569,166 566,166 562,166 558,167 555,167 551,167 547,168 543,168 538,168 534,168 530,168 525,169 520,169 516,170 511,170 506,171 502,171 491,172 481,173 471,174 460,175 450,177 440,178 430,179 420,181 410,182 405,183 400,183 396,184 391,185 387,185 383,186 379,187 375,188 371,189 367,190 363,191 359,192 352,194 346,195 340,197 334,199 328,202 322,204 315,206 309,208 303,210 296,212 290,215 284,217 280,218 276,219 273,220 269,221 266,222 263,223 259,224 256,225 253,226 252,227 251,227 250,228 249,229 248,229 247,230 221,247 196,265 170,282 171,281 173,280 174,279 148,318 122,357 96,397 94,400 91,403 89,407 87,410 84,413 82,417 80,420 77,423 75,426 75,427 74,428 74,430 73,431 73,432 72,434 63,460 55,486 46,513 46,511 47,509 47,508 48,512 48,516 49,521 49,525 50,529 50,534 50,537 51,541 51,545 51,548 52,552 52,556 52,559 53,562 53,565 53,568 54,571 54,574 55,579 55,585 56,590 57,596 58,602 59,607 60,613 61,618 62,623 63,626 63,629 64,632 65,636 65,639 66,642 67,646 68,649 69,652 70,656 71,660 72,663 74,670 75,677 77,683 79,690 81,697 83,704 84,708 84,711 85,714 86,717 88,720 89,723 90,726 91,729 92,732 94,735 95,737 97,739 99,743 101,746 103,749 105,753 107,757 109,761 113,769 116,776 120,783 122,786 123,789 125,792 127,795 129,798 131,801 133,804 136,807 138,809 138,809 137,809 137,808 140,811 143,813 146,815 184,841 222,867 260,893 263,896 266,899 270,901 273,904 276,906 279,909 282,911 285,913 289,915 290,916 291,916 293,917 294,918 295,918 297,919 335,932 373,945 411,958 424,962 437,967 450,971 456,973 462,976 469,978 472,979 475,980 479,981 481,982 484,983 487,984 508,988 529,993 551,997 550,997 549,997 548,997 560,996 572,995 584,994 595,993 607,993 618,992 630,991 642,989 653,988 659,987 665,987 670,986 676,985 682,984 687,983 691,982 694,982 697,981 700,980 703,980 706,979 712,977 718,974 724,972 731,970 737,967 743,965 750,963 756,960 762,958 766,957 769,955 772,954 775,953 778,951 781,950 785,949 788,948 791,947 795,946 799,945 802,944 812,942 822,941 831,939 841,937 851,935 860,933 870,931 880,928 889,926 899,923 908,921 917,918 924,916 931,915 937,913 944,911 951,910 957,908 960,907 963,906 966,905 969,904 972,903 975,902 978,901 980,900 983,898 986,897 988,895 991,893 1004,885 1016,876 1029,867 1028,868 1027,869 1026,870 1043,844 1060,818 1077,791 1080,788 1082,785 1085,781 1087,778 1090,775 1092,772 1094,769 1096,766 1098,762 1099,761 1099,760 1100,758 1101,757 1101,756 1102,754 1106,741 1111,728 1115,715 1115,717 1114,718 1114,719 1114,716 1114,713 1114,709 1114,706 1113,703 1113,699 1112,693 1112,687 1111,681 1111,676 1110,671 1110,666 1110,662 1109,657 1109,652 1109,648 1108,644 1108,639 1108,636 1108,632 1108,628 1108,625 1107,622 1107,618 1107,615 1106,612 1106,608 1105,603 1105,597 1104,591 1104,589 1103,586 1103,583 1102,579 1102,576 1101,573 1100,569 1100,566 1099,563 1098,559 1097,555 1096,552 1095,547 1094,543 1093,539 1092,534 1090,530 1089,526 1087,519 1086,512 1084,505 1083,502 1082,499 1081,496 1080,493 1078,490 1077,488 1075,484 1074,480 1072,477 1070,473 1068,469 1066,465 1064,461 1063,457 1061,453 1059,449 1058,445 1056,442 1054,438 1053,435 1051,432 1049,429 1047,426 1045,423 1045,423 1046,424 1046,425 1043,422 1041,419 1038,417 1039,417 1039,418 1040,419 1038,418 1037,417 1035,416 1034,415 1032,414 1031,414 1018,409 1006,405 993,401 L 993,401 C 990,400 988,398 987,395 L 987,395 C 986,392 985,389 984,386 983,383 982,380 981,378 980,376 980,374 979,372 979,370 978,368 978,367 978,365 978,363 977,362 977,361 977,360 976,359 976,358 976,357 975,356 975,355 975,354 974,354 974,353 974,353 974,353 L 974,353 C 974,352 973,352 973,351 L 973,351 973,351 C 979,353 986,355 992,357 L 992,357 C 993,354 993,351 994,349 994,349 995,349 995,350 995,351 994,352 994,354 994,355 994,356 994,357 L 994,357 C 994,359 993,359 993,360 993,361 992,362 992,363 L 992,363 C 991,365 989,366 987,367 986,367 986,367 985,368 L 985,368 C 983,369 980,370 978,369 977,368 976,368 974,368 L 974,368 C 973,368 973,367 972,367 972,366 971,366 970,366 L 970,366 C 969,366 969,365 968,365 L 968,365 C 968,364 967,363 966,363 965,362 964,361 962,360 961,358 960,357 958,356 957,354 955,353 953,352 952,350 951,348 949,346 947,344 945,342 943,340 941,337 939,334 937,332 L 937,332 C 937,331 937,331 936,331 936,329 935,328 934,327 L 934,327 C 933,326 933,325 933,324 933,322 932,320 931,319 L 931,319 C 931,318 931,318 931,318 L 931,318 C 931,314 930,310 929,307 929,305 929,303 928,302 928,300 928,298 927,297 927,296 926,295 925,294 926,295 927,296 927,297 926,295 925,293 924,292 925,292 925,293 925,294 922,291 919,288 916,285 913,282 910,279 907,277 905,275 902,272 899,270 896,268 893,266 890,264 888,262 885,261 882,259 879,257 876,256 873,254 868,251 862,248 856,245 850,243 844,240 838,238 832,236 826,234 819,232 812,230 805,227 798,225 791,223 783,220 775,218 773,217 771,216 769,215 767,215 765,214 763,214 760,213 757,211 753,210 751,209 749,208 746,207 744,206 742,206 739,205 738,205 736,204 734,204 733,203 732,203 730,202 728,201 725,201 722,200 721,200 719,199 717,199 715,198 713,198 711,197 709,197 707,196 705,196 702,195 699,195 696,194 695,194 693,193 691,193 689,192 687,192 685,191 683,190 681,190 679,189 677,189 674,188 671,188 669,187 667,186 664,185 661,184 658,184 655,183 652,182 649,182 645,181 642,180 639,179 635,178 632,177 629,177 626,176 624,175 621,174 618,173 616,173 614,172 612,172 611,171 609,171 607,170 606,169 605,169 603,168 603,168 602,167 601,167 601,166 600,166 599,165 599,165 598,164 597,164 598,164 599,165 599,165 598,165 597,164 596,164 597,164 598,165 599,165 599,165 598,165 597,165 597,165 596,165 595,165 595,165 594,165 593,165 592,165 590,165 589,165 587,165 585,165 583,165 580,165 577,166 575,166 Z M 582,144 L 582,144 C 584,144 586,143 588,143 589,143 591,143 592,143 594,143 595,143 596,143 598,143 599,143 600,143 601,143 601,144 601,144 L 601,144 C 602,144 603,144 604,144 605,144 606,145 606,145 L 606,145 C 607,146 607,146 608,146 L 608,146 C 609,146 609,147 609,147 610,147 611,147 611,147 612,147 612,148 612,148 613,149 614,149 615,150 617,150 618,151 619,151 621,152 623,152 624,153 627,154 629,154 631,155 634,156 637,156 640,157 644,158 648,159 651,160 654,161 657,162 660,163 663,164 666,164 669,165 672,166 675,166 677,167 680,167 682,168 684,168 686,169 688,169 690,170 692,171 694,171 696,172 698,172 700,173 701,173 704,174 707,174 710,175 713,176 715,176 717,177 719,177 721,178 722,178 724,178 726,179 727,179 731,180 734,181 737,182 739,182 740,183 741,183 743,184 745,184 746,185 749,186 751,186 753,187 756,188 758,189 760,190 764,191 767,192 770,193 772,194 774,194 776,195 778,196 780,196 782,197 790,199 798,202 805,204 812,206 819,209 826,211 833,213 840,216 846,218 853,221 859,223 865,226 872,229 878,232 884,235 888,237 891,238 894,240 897,242 900,245 903,247 906,249 909,251 912,253 915,256 918,258 921,261 925,264 928,266 931,269 934,272 937,275 940,278 L 940,278 C 941,279 941,279 941,280 942,281 943,282 944,284 L 944,284 C 945,285 945,286 946,287 L 946,287 C 947,288 948,290 948,292 949,294 949,296 949,298 950,300 950,302 950,304 951,307 952,310 952,314 952,313 952,313 952,313 953,314 953,316 953,318 953,317 953,316 952,316 953,317 954,318 955,320 955,319 955,319 954,319 956,321 958,323 960,326 962,328 964,330 965,332 967,333 968,335 969,337 971,338 972,339 973,341 974,342 975,343 976,344 977,344 978,345 978,346 979,346 980,347 981,348 980,347 980,347 979,347 980,347 981,347 982,348 981,347 981,347 980,347 981,347 982,347 983,348 981,348 978,348 976,349 977,348 978,348 978,348 977,349 975,350 973,352 974,351 974,350 974,350 974,351 974,352 973,354 973,353 973,353 973,353 973,352 973,351 973,351 973,350 973,350 973,350 L 973,350 C 973,347 974,344 976,342 977,342 977,342 977,342 L 977,342 C 979,339 983,338 987,339 991,340 994,344 994,348 L 994,348 C 994,348 995,348 995,349 995,348 994,347 994,347 994,347 995,347 995,348 995,348 995,349 995,350 995,351 996,352 996,353 996,354 997,355 997,356 997,357 998,358 998,360 999,361 999,363 1000,365 1001,367 1001,369 1002,372 1003,374 1003,376 1004,379 1005,382 1006,385 1007,388 1005,385 1002,383 1000,381 1013,385 1027,390 1040,395 1042,395 1044,396 1046,397 1048,398 1049,399 1051,401 L 1051,401 C 1051,401 1052,401 1052,401 1055,403 1058,406 1061,409 L 1061,409 C 1061,410 1062,410 1062,411 L 1062,411 C 1065,414 1067,417 1070,421 1072,424 1074,428 1076,432 1078,436 1080,440 1082,445 1083,448 1085,452 1086,456 1088,460 1089,464 1091,468 1093,471 1094,475 1096,479 1098,482 1099,485 1101,489 1102,492 1103,496 1104,500 1106,506 1108,513 1110,520 1111,524 1113,529 1114,534 1115,538 1116,542 1117,547 1118,551 1119,555 1120,559 1121,562 1121,566 1122,570 1123,573 1123,576 1124,579 1124,582 1125,585 1125,589 1126,595 1127,601 1128,607 1128,611 1129,614 1129,617 1129,621 1129,624 1129,627 1129,631 1130,635 1130,638 1130,642 1130,646 1130,650 1130,655 1131,660 1131,665 1132,670 1132,675 1133,680 1133,686 1134,692 1134,697 1134,701 1134,704 1134,707 1134,711 1135,714 1135,717 L 1135,717 C 1136,719 1135,720 1135,722 L 1135,722 C 1131,736 1126,749 1122,762 1121,764 1120,766 1119,768 1118,770 1117,772 1116,774 1114,778 1111,781 1109,784 1107,788 1104,791 1102,794 1100,797 1098,800 1096,803 1079,830 1061,856 1044,882 L 1044,882 C 1044,883 1042,884 1041,885 L 1041,885 C 1028,894 1015,903 1002,911 999,913 996,915 993,917 990,919 986,920 983,922 979,923 976,924 972,925 969,926 966,928 962,929 956,931 949,932 942,934 936,936 930,937 923,939 914,941 904,944 894,946 884,948 874,951 864,953 855,955 845,958 835,960 826,962 817,963 807,965 804,966 801,966 798,967 795,968 792,970 789,971 786,972 783,973 779,974 776,975 773,977 770,978 764,980 758,983 751,985 745,987 739,990 732,992 725,994 718,997 711,999 708,1000 705,1001 701,1002 698,1003 695,1004 691,1005 685,1006 679,1006 673,1007 667,1008 661,1009 655,1010 643,1011 631,1011 619,1012 608,1013 596,1014 585,1015 573,1016 561,1016 550,1017 L 550,1017 C 549,1018 548,1017 547,1017 L 547,1017 C 525,1013 503,1008 482,1004 478,1003 475,1003 472,1002 468,1001 465,999 462,998 455,996 449,993 443,991 430,987 417,982 404,978 365,965 327,951 289,938 286,937 284,936 282,935 280,934 278,933 276,932 272,930 269,927 266,925 263,923 260,920 257,918 254,916 251,913 248,911 209,885 171,858 132,831 129,829 126,827 123,824 L 123,824 C 123,824 122,824 122,823 L 122,823 C 119,820 116,817 113,813 111,810 108,807 106,803 104,800 103,796 101,792 97,785 94,778 90,770 88,767 87,764 85,760 83,757 80,754 78,750 76,747 75,744 73,740 71,737 70,734 68,730 67,727 65,723 64,719 63,716 63,713 62,709 60,703 59,696 57,689 55,683 54,676 52,669 51,665 50,661 49,657 48,654 46,651 45,647 44,644 44,641 43,637 42,634 42,631 41,628 40,622 39,616 38,610 37,605 36,599 35,593 34,588 34,582 33,577 33,573 32,570 32,567 32,564 31,561 31,558 31,554 30,550 30,547 29,543 29,539 28,536 28,532 27,528 27,524 27,519 26,514 26,510 L 26,510 C 25,509 26,508 26,506 L 26,506 C 35,479 43,453 52,427 53,424 53,422 54,420 55,418 57,416 58,414 60,410 63,407 65,404 67,401 70,398 72,395 74,392 77,389 79,386 104,346 130,306 155,267 L 155,267 C 156,266 157,265 158,264 L 158,264 C 184,246 210,229 236,211 237,210 239,209 241,208 243,207 245,206 247,205 250,204 254,203 258,202 261,201 264,201 267,200 270,199 273,198 276,197 282,195 288,192 295,190 301,188 308,185 315,183 321,181 327,179 334,177 340,175 347,173 354,171 358,170 362,169 366,168 370,167 374,166 379,165 383,164 388,164 393,163 398,162 403,161 408,160 418,159 428,157 438,156 448,155 458,153 469,152 479,151 489,151 500,150 504,149 509,149 514,148 518,148 523,147 528,147 532,147 536,146 541,146 545,146 549,146 554,146 557,146 561,145 565,145 568,145 571,144 574,144 576,144 579,144 582,144 Z"/>
   <path fill="none" stroke="rgb(0,0,0)" id="Drawing_1_0" d="M 575,166 L 575,166 C 572,166 569,166 566,166 562,166 558,167 555,167 551,167 547,168 543,168 538,168 534,168 530,168 525,169 520,169 516,170 511,170 506,171 502,171 491,172 481,173 471,174 460,175 450,177 440,178 430,179 420,181 410,182 405,183 400,183 396,184 391,185 387,185 383,186 379,187 375,188 371,189 367,190 363,191 359,192 352,194 346,195 340,197 334,199 328,202 322,204 315,206 309,208 303,210 296,212 290,215 284,217 280,218 276,219 273,220 269,221 266,222 263,223 259,224 256,225 253,226 252,227 251,227 250,228 249,229 248,229 247,230 221,247 196,265 170,282 171,281 173,280 174,279 148,318 122,357 96,397 94,400 91,403 89,407 87,410 84,413 82,417 80,420 77,423 75,426 75,427 74,428 74,430 73,431 73,432 72,434 63,460 55,486 46,513 46,511 47,509 47,508 48,512 48,516 49,521 49,525 50,529 50,534 50,537 51,541 51,545 51,548 52,552 52,556 52,559 53,562 53,565 53,568 54,571 54,574 55,579 55,585 56,590 57,596 58,602 59,607 60,613 61,618 62,623 63,626 63,629 64,632 65,636 65,639 66,642 67,646 68,649 69,652 70,656 71,660 72,663 74,670 75,677 77,683 79,690 81,697 83,704 84,708 84,711 85,714 86,717 88,720 89,723 90,726 91,729 92,732 94,735 95,737 97,739 99,743 101,746 103,749 105,753 107,757 109,761 113,769 116,776 120,783 122,786 123,789 125,792 127,795 129,798 131,801 133,804 136,807 138,809 138,809 137,809 137,808 140,811 143,813 146,815 184,841 222,867 260,893 263,896 266,899 270,901 273,904 276,906 279,909 282,911 285,913 289,915 290,916 291,916 293,917 294,918 295,918 297,919 335,932 373,945 411,958 424,962 437,967 450,971 456,973 462,976 469,978 472,979 475,980 479,981 481,982 484,983 487,984 508,988 529,993 551,997 550,997 549,997 548,997 560,996 572,995 584,994 595,993 607,993 618,992 630,991 642,989 653,988 659,987 665,987 670,986 676,985 682,984 687,983 691,982 694,982 697,981 700,980 703,980 706,979 712,977 718,974 724,972 731,970 737,967 743,965 750,963 756,960 762,958 766,957 769,955 772,954 775,953 778,951 781,950 785,949 788,948 791,947 795,946 799,945 802,944 812,942 822,941 831,939 841,937 851,935 860,933 870,931 880,928 889,926 899,923 908,921 917,918 924,916 931,915 937,913 944,911 951,910 957,908 960,907 963,906 966,905 969,904 972,903 975,902 978,901 980,900 983,898 986,897 988,895 991,893 1004,885 1016,876 1029,867 1028,868 1027,869 1026,870 1043,844 1060,818 1077,791 1080,788 1082,785 1085,781 1087,778 1090,775 1092,772 1094,769 1096,766 1098,762 1099,761 1099,760 1100,758 1101,757 1101,756 1102,754 1106,741 1111,728 1115,715 1115,717 1114,718 1114,719 1114,716 1114,713 1114,709 1114,706 1113,703 1113,699 1112,693 1112,687 1111,681 1111,676 1110,671 1110,666 1110,662 1109,657 1109,652 1109,648 1108,644 1108,639 1108,636 1108,632 1108,628 1108,625 1107,622 1107,618 1107,615 1106,612 1106,608 1105,603 1105,597 1104,591 1104,589 1103,586 1103,583 1102,579 1102,576 1101,573 1100,569 1100,566 1099,563 1098,559 1097,555 1096,552 1095,547 1094,543 1093,539 1092,534 1090,530 1089,526 1087,519 1086,512 1084,505 1083,502 1082,499 1081,496 1080,493 1078,490 1077,488 1075,484 1074,480 1072,477 1070,473 1068,469 1066,465 1064,461 1063,457 1061,453 1059,449 1058,445 1056,442 1054,438 1053,435 1051,432 1049,429 1047,426 1045,423 1045,423 1046,424 1046,425 1043,422 1041,419 1038,417 1039,417 1039,418 1040,419 1038,418 1037,417 1035,416 1034,415 1032,414 1031,414 1018,409 1006,405 993,401 L 993,401 C 990,400 988,398 987,395 L 987,395 C 986,392 985,389 984,386 983,383 982,380 981,378 980,376 980,374 979,372 979,370 978,368 978,367 978,365 978,363 977,362 977,361 977,360 976,359 976,358 976,357 975,356 975,355 975,354 974,354 974,353 974,353 974,353 L 974,353 C 974,352 973,352 973,351 L 973,351 973,351 C 979,353 986,355 992,357 L 992,357 C 993,354 993,351 994,349 994,349 995,349 995,350 995,351 994,352 994,354 994,355 994,356 994,357 L 994,357 C 994,359 993,359 993,360 993,361 992,362 992,363 L 992,363 C 991,365 989,366 987,367 986,367 986,367 985,368 L 985,368 C 983,369 980,370 978,369 977,368 976,368 974,368 L 974,368 C 973,368 973,367 972,367 972,366 971,366 970,366 L 970,366 C 969,366 969,365 968,365 L 968,365 C 968,364 967,363 966,363 965,362 964,361 962,360 961,358 960,357 958,356 957,354 955,353 953,352 952,350 951,348 949,346 947,344 945,342 943,340 941,337 939,334 937,332 L 937,332 C 937,331 937,331 936,331 936,329 935,328 934,327 L 934,327 C 933,326 933,325 933,324 933,322 932,320 931,319 L 931,319 C 931,318 931,318 931,318 L 931,318 C 931,314 930,310 929,307 929,305 929,303 928,302 928,300 928,298 927,297 927,296 926,295 925,294 926,295 927,296 927,297 926,295 925,293 924,292 925,292 925,293 925,294 922,291 919,288 916,285 913,282 910,279 907,277 905,275 902,272 899,270 896,268 893,266 890,264 888,262 885,261 882,259 879,257 876,256 873,254 868,251 862,248 856,245 850,243 844,240 838,238 832,236 826,234 819,232 812,230 805,227 798,225 791,223 783,220 775,218 773,217 771,216 769,215 767,215 765,214 763,214 760,213 757,211 753,210 751,209 749,208 746,207 744,206 742,206 739,205 738,205 736,204 734,204 733,203 732,203 730,202 728,201 725,201 722,200 721,200 719,199 717,199 715,198 713,198 711,197 709,197 707,196 705,196 702,195 699,195 696,194 695,194 693,193 691,193 689,192 687,192 685,191 683,190 681,190 679,189 677,189 674,188 671,188 669,187 667,186 664,185 661,184 658,184 655,183 652,182 649,182 645,181 642,180 639,179 635,178 632,177 629,177 626,176 624,175 621,174 618,173 616,173 614,172 612,172 611,171 609,171 607,170 606,169 605,169 603,168 603,168 602,167 601,167 601,166 600,166 599,165 599,165 598,164 597,164 598,164 599,165 599,165 598,165 597,164 596,164 597,164 598,165 599,165 599,165 598,165 597,165 597,165 596,165 595,165 595,165 594,165 593,165 592,165 590,165 589,165 587,165 585,165 583,165 580,165 577,166 575,166 Z"/>
   <path fill="none" stroke="rgb(0,0,0)" id="Drawing_1_1" d="M 582,144 L 582,144 C 584,144 586,143 588,143 589,143 591,143 592,143 594,143 595,143 596,143 598,143 599,143 600,143 601,143 601,144 601,144 L 601,144 C 602,144 603,144 604,144 605,144 606,145 606,145 L 606,145 C 607,146 607,146 608,146 L 608,146 C 609,146 609,147 609,147 610,147 611,147 611,147 612,147 612,148 612,148 613,149 614,149 615,150 617,150 618,151 619,151 621,152 623,152 624,153 627,154 629,154 631,155 634,156 637,156 640,157 644,158 648,159 651,160 654,161 657,162 660,163 663,164 666,164 669,165 672,166 675,166 677,167 680,167 682,168 684,168 686,169 688,169 690,170 692,171 694,171 696,172 698,172 700,173 701,173 704,174 707,174 710,175 713,176 715,176 717,177 719,177 721,178 722,178 724,178 726,179 727,179 731,180 734,181 737,182 739,182 740,183 741,183 743,184 745,184 746,185 749,186 751,186 753,187 756,188 758,189 760,190 764,191 767,192 770,193 772,194 774,194 776,195 778,196 780,196 782,197 790,199 798,202 805,204 812,206 819,209 826,211 833,213 840,216 846,218 853,221 859,223 865,226 872,229 878,232 884,235 888,237 891,238 894,240 897,242 900,245 903,247 906,249 909,251 912,253 915,256 918,258 921,261 925,264 928,266 931,269 934,272 937,275 940,278 L 940,278 C 941,279 941,279 941,280 942,281 943,282 944,284 L 944,284 C 945,285 945,286 946,287 L 946,287 C 947,288 948,290 948,292 949,294 949,296 949,298 950,300 950,302 950,304 951,307 952,310 952,314 952,313 952,313 952,313 953,314 953,316 953,318 953,317 953,316 952,316 953,317 954,318 955,320 955,319 955,319 954,319 956,321 958,323 960,326 962,328 964,330 965,332 967,333 968,335 969,337 971,338 972,339 973,341 974,342 975,343 976,344 977,344 978,345 978,346 979,346 980,347 981,348 980,347 980,347 979,347 980,347 981,347 982,348 981,347 981,347 980,347 981,347 982,347 983,348 981,348 978,348 976,349 977,348 978,348 978,348 977,349 975,350 973,352 974,351 974,350 974,350 974,351 974,352 973,354 973,353 973,353 973,353 973,352 973,351 973,351 973,350 973,350 973,350 L 973,350 C 973,347 974,344 976,342 977,342 977,342 977,342 L 977,342 C 979,339 983,338 987,339 991,340 994,344 994,348 L 994,348 C 994,348 995,348 995,349 995,348 994,347 994,347 994,347 995,347 995,348 995,348 995,349 995,350 995,351 996,352 996,353 996,354 997,355 997,356 997,357 998,358 998,360 999,361 999,363 1000,365 1001,367 1001,369 1002,372 1003,374 1003,376 1004,379 1005,382 1006,385 1007,388 1005,385 1002,383 1000,381 1013,385 1027,390 1040,395 1042,395 1044,396 1046,397 1048,398 1049,399 1051,401 L 1051,401 C 1051,401 1052,401 1052,401 1055,403 1058,406 1061,409 L 1061,409 C 1061,410 1062,410 1062,411 L 1062,411 C 1065,414 1067,417 1070,421 1072,424 1074,428 1076,432 1078,436 1080,440 1082,445 1083,448 1085,452 1086,456 1088,460 1089,464 1091,468 1093,471 1094,475 1096,479 1098,482 1099,485 1101,489 1102,492 1103,496 1104,500 1106,506 1108,513 1110,520 1111,524 1113,529 1114,534 1115,538 1116,542 1117,547 1118,551 1119,555 1120,559 1121,562 1121,566 1122,570 1123,573 1123,576 1124,579 1124,582 1125,585 1125,589 1126,595 1127,601 1128,607 1128,611 1129,614 1129,617 1129,621 1129,624 1129,627 1129,631 1130,635 1130,638 1130,642 1130,646 1130,650 1130,655 1131,660 1131,665 1132,670 1132,675 1133,680 1133,686 1134,692 1134,697 1134,701 1134,704 1134,707 1134,711 1135,714 1135,717 L 1135,717 C 1136,719 1135,720 1135,722 L 1135,722 C 1131,736 1126,749 1122,762 1121,764 1120,766 1119,768 1118,770 1117,772 1116,774 1114,778 1111,781 1109,784 1107,788 1104,791 1102,794 1100,797 1098,800 1096,803 1079,830 1061,856 1044,882 L 1044,882 C 1044,883 1042,884 1041,885 L 1041,885 C 1028,894 1015,903 1002,911 999,913 996,915 993,917 990,919 986,920 983,922 979,923 976,924 972,925 969,926 966,928 962,929 956,931 949,932 942,934 936,936 930,937 923,939 914,941 904,944 894,946 884,948 874,951 864,953 855,955 845,958 835,960 826,962 817,963 807,965 804,966 801,966 798,967 795,968 792,970 789,971 786,972 783,973 779,974 776,975 773,977 770,978 764,980 758,983 751,985 745,987 739,990 732,992 725,994 718,997 711,999 708,1000 705,1001 701,1002 698,1003 695,1004 691,1005 685,1006 679,1006 673,1007 667,1008 661,1009 655,1010 643,1011 631,1011 619,1012 608,1013 596,1014 585,1015 573,1016 561,1016 550,1017 L 550,1017 C 549,1018 548,1017 547,1017 L 547,1017 C 525,1013 503,1008 482,1004 478,1003 475,1003 472,1002 468,1001 465,999 462,998 455,996 449,993 443,991 430,987 417,982 404,978 365,965 327,951 289,938 286,937 284,936 282,935 280,934 278,933 276,932 272,930 269,927 266,925 263,923 260,920 257,918 254,916 251,913 248,911 209,885 171,858 132,831 129,829 126,827 123,824 L 123,824 C 123,824 122,824 122,823 L 122,823 C 119,820 116,817 113,813 111,810 108,807 106,803 104,800 103,796 101,792 97,785 94,778 90,770 88,767 87,764 85,760 83,757 80,754 78,750 76,747 75,744 73,740 71,737 70,734 68,730 67,727 65,723 64,719 63,716 63,713 62,709 60,703 59,696 57,689 55,683 54,676 52,669 51,665 50,661 49,657 48,654 46,651 45,647 44,644 44,641 43,637 42,634 42,631 41,628 40,622 39,616 38,610 37,605 36,599 35,593 34,588 34,582 33,577 33,573 32,570 32,567 32,564 31,561 31,558 31,554 30,550 30,547 29,543 29,539 28,536 28,532 27,528 27,524 27,519 26,514 26,510 L 26,510 C 25,509 26,508 26,506 L 26,506 C 35,479 43,453 52,427 53,424 53,422 54,420 55,418 57,416 58,414 60,410 63,407 65,404 67,401 70,398 72,395 74,392 77,389 79,386 104,346 130,306 155,267 L 155,267 C 156,266 157,265 158,264 L 158,264 C 184,246 210,229 236,211 237,210 239,209 241,208 243,207 245,206 247,205 250,204 254,203 258,202 261,201 264,201 267,200 270,199 273,198 276,197 282,195 288,192 295,190 301,188 308,185 315,183 321,181 327,179 334,177 340,175 347,173 354,171 358,170 362,169 366,168 370,167 374,166 379,165 383,164 388,164 393,163 398,162 403,161 408,160 418,159 428,157 438,156 448,155 458,153 469,152 479,151 489,151 500,150 504,149 509,149 514,148 518,148 523,147 528,147 532,147 536,146 541,146 545,146 549,146 554,146 557,146 561,145 565,145 568,145 571,144 574,144 576,144 579,144 582,144 Z"/>
   </g>
   <g>
   <path fill="rgb(0,0,0)" stroke="none" d="M 273,208 C 197,300 122,392 46,484 44,482 43,480 41,479 117,387 192,295 268,204 269,205 271,207 273,208 Z"/>
   <path fill="none" stroke="rgb(0,0,0)" id="Drawing_2_0" d="M 273,208 C 197,300 122,392 46,484 44,482 43,480 41,479 117,387 192,295 268,204 269,205 271,207 273,208 Z"/>
   </g>
   <g>
   <path fill="rgb(0,0,0)" stroke="none" d="M 354,182 C 249,306 145,430 41,554 39,552 38,551 36,550 140,426 244,302 349,178 350,179 352,181 354,182 Z"/>
   <path fill="none" stroke="rgb(0,0,0)" id="Drawing_3_0" d="M 354,182 C 249,306 145,430 41,554 39,552 38,551 36,550 140,426 244,302 349,178 350,179 352,181 354,182 Z"/>
   </g>
   <g>
   <path fill="rgb(0,0,0)" stroke="none" d="M 433,166 C 305,319 177,472 49,625 47,624 46,623 44,621 172,468 300,314 428,161 429,163 431,164 433,166 Z"/>
   <path fill="none" stroke="rgb(0,0,0)" id="Drawing_4_0" d="M 433,166 C 305,319 177,472 49,625 47,624 46,623 44,621 172,468 300,314 428,161 429,163 431,164 433,166 Z"/>
   </g>
   <g>
   <path fill="rgb(0,0,0)" stroke="none" d="M 493,159 C 350,330 207,501 64,672 62,671 61,670 59,668 202,497 345,326 488,155 489,156 491,158 493,159 Z"/>
   <path fill="none" stroke="rgb(0,0,0)" id="Drawing_5_0" d="M 493,159 C 350,330 207,501 64,672 62,671 61,670 59,668 202,497 345,326 488,155 489,156 491,158 493,159 Z"/>
   </g>
   <g>
   <path fill="rgb(0,0,0)" stroke="none" d="M 663,175 C 486,389 308,602 130,816 128,815 127,814 125,812 303,598 481,385 658,171 660,172 662,174 663,175 Z"/>
   <path fill="none" stroke="rgb(0,0,0)" id="Drawing_6_0" d="M 663,175 C 486,389 308,602 130,816 128,815 127,814 125,812 303,598 481,385 658,171 660,172 662,174 663,175 Z"/>
   </g>
   <g>
   <path fill="rgb(0,0,0)" stroke="none" d="M 711,187 C 530,405 348,622 167,840 165,839 163,838 161,836 343,618 525,401 706,183 708,184 710,186 711,187 Z"/>
   <path fill="none" stroke="rgb(0,0,0)" id="Drawing_7_0" d="M 711,187 C 530,405 348,622 167,840 165,839 163,838 161,836 343,618 525,401 706,183 708,184 710,186 711,187 Z"/>
   </g>
   <g>
   <path fill="rgb(0,0,0)" stroke="none" d="M 557,152 C 397,343 238,534 79,725 77,724 76,723 74,721 233,530 392,339 552,148 553,149 555,151 557,152 Z"/>
   <path fill="none" stroke="rgb(0,0,0)" id="Drawing_8_0" d="M 557,152 C 397,343 238,534 79,725 77,724 76,723 74,721 233,530 392,339 552,148 553,149 555,151 557,152 Z"/>
   </g>
   <g>
   <path fill="rgb(0,0,0)" stroke="none" d="M 614,161 C 444,364 274,567 104,770 102,769 101,768 99,766 269,563 439,359 609,156 611,158 613,159 614,161 Z"/>
   <path fill="none" stroke="rgb(0,0,0)" id="Drawing_9_0" d="M 614,161 C 444,364 274,567 104,770 102,769 101,768 99,766 269,563 439,359 609,156 611,158 613,159 614,161 Z"/>
   </g>
   <g>
   <path fill="rgb(0,0,0)" stroke="none" d="M 766,202 C 580,425 393,648 206,871 204,870 203,869 201,867 388,644 575,421 761,198 763,199 765,201 766,202 Z"/>
   <path fill="none" stroke="rgb(0,0,0)" id="Drawing_10_0" d="M 766,202 C 580,425 393,648 206,871 204,870 203,869 201,867 388,644 575,421 761,198 763,199 765,201 766,202 Z"/>
   </g>
   <g>
   <path fill="rgb(0,0,0)" stroke="none" d="M 813,218 C 624,445 435,671 246,898 244,897 242,895 241,893 430,667 619,440 808,214 810,215 812,217 813,218 Z"/>
   <path fill="none" stroke="rgb(0,0,0)" id="Drawing_11_0" d="M 813,218 C 624,445 435,671 246,898 244,897 242,895 241,893 430,667 619,440 808,214 810,215 812,217 813,218 Z"/>
   </g>
   <g>
   <path fill="rgb(0,0,0)" stroke="none" d="M 859,236 C 668,466 476,696 285,926 283,925 281,923 280,922 471,692 663,462 854,232 856,233 858,235 859,236 Z"/>
   <path fill="none" stroke="rgb(0,0,0)" id="Drawing_12_0" d="M 859,236 C 668,466 476,696 285,926 283,925 281,923 280,922 471,692 663,462 854,232 856,233 858,235 859,236 Z"/>
   </g>
   <g>
   <path fill="rgb(0,0,0)" stroke="none" d="M 898,259 C 708,486 518,714 328,941 326,940 324,938 323,937 513,710 703,482 893,255 895,256 897,258 898,259 Z"/>
   <path fill="none" stroke="rgb(0,0,0)" id="Drawing_13_0" d="M 898,259 C 708,486 518,714 328,941 326,940 324,938 323,937 513,710 703,482 893,255 895,256 897,258 898,259 Z"/>
   </g>
   <g>
   <path fill="rgb(0,0,0)" stroke="none" d="M 937,282 C 748,508 558,734 369,960 367,958 365,957 364,955 553,729 743,504 932,278 934,279 936,280 937,282 Z"/>
   <path fill="none" stroke="rgb(0,0,0)" id="Drawing_14_0" d="M 937,282 C 748,508 558,734 369,960 367,958 365,957 364,955 553,729 743,504 932,278 934,279 936,280 937,282 Z"/>
   </g>
   <g>
   <path fill="rgb(0,0,0)" stroke="none" d="M 953,338 C 775,550 597,763 420,975 418,974 416,972 415,971 592,759 770,546 948,334 950,335 952,336 953,338 Z"/>
   <path fill="none" stroke="rgb(0,0,0)" id="Drawing_15_0" d="M 953,338 C 775,550 597,763 420,975 418,974 416,972 415,971 592,759 770,546 948,334 950,335 952,336 953,338 Z"/>
   </g>
   <g>
   <path fill="rgb(0,0,0)" stroke="none" d="M 991,368 C 817,577 642,785 468,994 466,993 464,991 463,990 637,781 812,573 986,364 988,365 989,366 991,368 Z"/>
   <path fill="none" stroke="rgb(0,0,0)" id="Drawing_16_0" d="M 991,368 C 817,577 642,785 468,994 466,993 464,991 463,990 637,781 812,573 986,364 988,365 989,366 991,368 Z"/>
   </g>
   <g>
   <path fill="rgb(0,0,0)" stroke="none" d="M 1021,401 C 853,602 685,803 518,1004 516,1003 514,1001 513,1000 680,799 848,597 1016,396 1018,397 1019,399 1021,401 Z"/>
   <path fill="none" stroke="rgb(0,0,0)" id="Drawing_17_0" d="M 1021,401 C 853,602 685,803 518,1004 516,1003 514,1001 513,1000 680,799 848,597 1016,396 1018,397 1019,399 1021,401 Z"/>
   </g>
   <g>
   <path fill="rgb(0,0,0)" stroke="none" d="M 1063,425 C 900,618 737,812 575,1006 573,1005 571,1003 570,1002 732,808 895,614 1058,421 1060,422 1061,423 1063,425 Z"/>
   <path fill="none" stroke="rgb(0,0,0)" id="Drawing_18_0" d="M 1063,425 C 900,618 737,812 575,1006 573,1005 571,1003 570,1002 732,808 895,614 1058,421 1060,422 1061,423 1063,425 Z"/>
   </g>
   <g>
   <path fill="rgb(0,0,0)" stroke="none" d="M 1083,478 C 936,652 789,827 642,1002 641,1000 639,999 637,997 784,823 931,648 1078,474 1080,475 1081,476 1083,478 Z"/>
   <path fill="none" stroke="rgb(0,0,0)" id="Drawing_19_0" d="M 1083,478 C 936,652 789,827 642,1002 641,1000 639,999 637,997 784,823 931,648 1078,474 1080,475 1081,476 1083,478 Z"/>
   </g>
   <g>
   <path fill="rgb(0,0,0)" stroke="none" d="M 1102,524 C 973,680 843,836 713,992 712,991 710,989 708,988 838,832 968,676 1097,520 1099,521 1100,522 1102,524 Z"/>
   <path fill="none" stroke="rgb(0,0,0)" id="Drawing_20_0" d="M 1102,524 C 973,680 843,836 713,992 712,991 710,989 708,988 838,832 968,676 1097,520 1099,521 1100,522 1102,524 Z"/>
   </g>
   <g>
   <path fill="rgb(0,0,0)" stroke="none" d="M 1114,582 C 1009,707 904,832 799,957 798,956 796,954 794,953 899,828 1004,703 1109,578 1111,579 1112,580 1114,582 Z"/>
   <path fill="none" stroke="rgb(0,0,0)" id="Drawing_21_0" d="M 1114,582 C 1009,707 904,832 799,957 798,956 796,954 794,953 899,828 1004,703 1109,578 1111,579 1112,580 1114,582 Z"/>
   </g>
   <g>
   <path fill="rgb(0,0,0)" stroke="none" d="M 1120,643 C 1037,743 954,843 871,943 870,942 868,940 866,939 949,839 1032,739 1115,639 1117,641 1118,642 1120,643 Z"/>
   <path fill="none" stroke="rgb(0,0,0)" id="Drawing_22_0" d="M 1120,643 C 1037,743 954,843 871,943 870,942 868,940 866,939 949,839 1032,739 1115,639 1117,641 1118,642 1120,643 Z"/>
   </g>
   <g>
   <path fill="rgb(0,0,0)" stroke="none" d="M 1124,712 C 1064,784 1005,856 945,928 944,927 942,925 940,924 1000,852 1059,780 1119,708 1121,710 1122,711 1124,712 Z"/>
   <path fill="none" stroke="rgb(0,0,0)" id="Drawing_23_0" d="M 1124,712 C 1064,784 1005,856 945,928 944,927 942,925 940,924 1000,852 1059,780 1119,708 1121,710 1122,711 1124,712 Z"/>
   </g>
   <g>
   <path fill="rgb(255,255,102)" stroke="none" d="M 492,538 C 492,641 492,745 492,848 550,848 609,848 667,848 667,745 667,641 667,538 609,538 550,538 492,538 Z"/>
    <rect fill="none" stroke="none" x="491" y="537" width="178" height="313"/>
   </g>
   <g>
   <path fill="rgb(0,0,0)" stroke="none" d="M 484,538 L 484,538 C 484,534 487,530 492,530 550,530 609,530 667,530 L 667,530 C 672,530 675,534 675,538 675,641 675,745 675,848 L 675,848 C 675,853 672,857 667,857 609,857 550,857 492,857 L 492,857 C 487,857 484,853 484,848 484,745 484,641 484,538 Z M 500,848 L 500,848 C 497,846 494,843 492,840 550,840 609,840 667,840 665,843 662,846 659,848 659,745 659,641 659,538 662,540 665,543 667,546 609,546 550,546 492,546 494,543 497,540 500,538 500,641 500,745 500,848 Z"/>
   <path fill="none" stroke="rgb(0,0,0)" id="Drawing_25_0" d="M 484,538 L 484,538 C 484,534 487,530 492,530 550,530 609,530 667,530 L 667,530 C 672,530 675,534 675,538 675,641 675,745 675,848 L 675,848 C 675,853 672,857 667,857 609,857 550,857 492,857 L 492,857 C 487,857 484,853 484,848 484,745 484,641 484,538 Z"/>
   <path fill="none" stroke="rgb(0,0,0)" id="Drawing_25_1" d="M 500,848 L 500,848 C 497,846 494,843 492,840 550,840 609,840 667,840 665,843 662,846 659,848 659,745 659,641 659,538 662,540 665,543 667,546 609,546 550,546 492,546 494,543 497,540 500,538 500,641 500,745 500,848 Z"/>
   </g>
   <g>
   <path fill="rgb(0,0,0)" stroke="none" d="M 531,750 C 531,708 531,666 531,624 539,624 548,624 556,624 573,652 590,680 607,708 607,680 607,652 607,624 615,624 623,624 631,624 631,666 631,708 631,750 623,750 614,750 605,750 589,723 572,695 555,668 555,695 555,723 555,750 L 531,750 Z"/>
    <rect fill="none" stroke="none" x="531" y="624" width="102" height="127"/>
   </g>
   <g>
   <path fill="rgb(255,255,102)" stroke="none" d="M 398,535 C 391,436 466,349 565,342 664,335 750,410 757,509 758,518 758,527 757,536 637,535 518,535 398,535 Z"/>
    <rect fill="none" stroke="none" x="397" y="341" width="363" height="196"/>
   </g>
   <g>
   <path fill="rgb(0,0,0)" stroke="none" d="M 398,544 L 398,544 C 393,544 389,540 389,536 L 389,536 C 389,529 389,523 389,517 389,510 389,504 390,498 391,492 392,486 393,480 395,474 397,468 399,462 401,456 403,450 405,445 408,439 411,434 414,429 417,423 420,418 424,413 427,408 431,403 435,399 439,394 443,390 447,386 451,382 456,378 461,374 466,370 471,367 476,364 481,360 486,357 492,354 497,351 502,349 508,347 514,345 520,343 526,341 532,339 538,337 545,336 551,335 557,334 564,334 570,334 576,334 583,334 589,334 595,334 601,335 608,336 614,337 620,338 626,339 632,341 638,343 644,345 649,347 654,350 660,352 666,355 671,358 676,361 681,364 686,368 691,371 696,375 701,379 706,383 710,387 714,391 718,395 722,400 726,405 730,410 733,415 736,420 740,425 743,430 746,436 749,441 751,447 753,453 755,458 757,464 759,470 761,476 762,482 763,489 764,495 765,501 766,508 766,512 766,517 766,522 766,526 766,531 766,536 L 766,536 C 766,541 762,544 757,544 637,544 518,544 398,544 Z M 757,527 L 757,527 C 754,530 751,533 748,536 749,531 749,527 749,523 749,518 749,514 749,510 749,504 748,498 747,493 746,487 745,481 743,476 741,470 739,465 737,460 735,454 733,449 731,444 728,439 725,434 722,430 719,425 716,421 713,417 710,412 706,408 702,404 698,400 694,396 690,393 686,389 682,385 677,382 673,379 668,376 663,374 658,371 653,368 648,366 643,364 638,362 633,360 628,358 623,356 617,355 612,354 606,353 600,352 595,351 589,351 584,351 578,351 572,351 566,351 560,351 554,352 549,353 543,354 537,355 532,357 526,358 521,360 516,362 510,364 505,366 500,369 495,371 490,374 486,377 481,380 476,383 472,387 468,390 464,394 460,398 456,402 452,406 448,410 444,414 441,418 438,423 435,427 432,432 429,437 426,441 423,446 421,451 419,456 417,461 415,467 413,472 412,477 411,483 410,488 409,494 408,500 407,505 406,511 406,517 406,523 406,529 407,535 404,532 401,529 398,526 518,526 637,526 757,527 Z"/>
   <path fill="none" stroke="rgb(0,0,0)" id="Drawing_28_0" d="M 398,544 L 398,544 C 393,544 389,540 389,536 L 389,536 C 389,529 389,523 389,517 389,510 389,504 390,498 391,492 392,486 393,480 395,474 397,468 399,462 401,456 403,450 405,445 408,439 411,434 414,429 417,423 420,418 424,413 427,408 431,403 435,399 439,394 443,390 447,386 451,382 456,378 461,374 466,370 471,367 476,364 481,360 486,357 492,354 497,351 502,349 508,347 514,345 520,343 526,341 532,339 538,337 545,336 551,335 557,334 564,334 570,334 576,334 583,334 589,334 595,334 601,335 608,336 614,337 620,338 626,339 632,341 638,343 644,345 649,347 654,350 660,352 666,355 671,358 676,361 681,364 686,368 691,371 696,375 701,379 706,383 710,387 714,391 718,395 722,400 726,405 730,410 733,415 736,420 740,425 743,430 746,436 749,441 751,447 753,453 755,458 757,464 759,470 761,476 762,482 763,489 764,495 765,501 766,508 766,512 766,517 766,522 766,526 766,531 766,536 L 766,536 C 766,541 762,544 757,544 637,544 518,544 398,544 Z"/>
   <path fill="none" stroke="rgb(0,0,0)" id="Drawing_28_1" d="M 757,527 L 757,527 C 754,530 751,533 748,536 749,531 749,527 749,523 749,518 749,514 749,510 749,504 748,498 747,493 746,487 745,481 743,476 741,470 739,465 737,460 735,454 733,449 731,444 728,439 725,434 722,430 719,425 716,421 713,417 710,412 706,408 702,404 698,400 694,396 690,393 686,389 682,385 677,382 673,379 668,376 663,374 658,371 653,368 648,366 643,364 638,362 633,360 628,358 623,356 617,355 612,354 606,353 600,352 595,351 589,351 584,351 578,351 572,351 566,351 560,351 554,352 549,353 543,354 537,355 532,357 526,358 521,360 516,362 510,364 505,366 500,369 495,371 490,374 486,377 481,380 476,383 472,387 468,390 464,394 460,398 456,402 452,406 448,410 444,414 441,418 438,423 435,427 432,432 429,437 426,441 423,446 421,451 419,456 417,461 415,467 413,472 412,477 411,483 410,488 409,494 408,500 407,505 406,511 406,517 406,523 406,529 407,535 404,532 401,529 398,526 518,526 637,526 757,527 Z"/>
   </g>
  </g>
 </g>
</svg>