<svg xmlns="http://www.w3.org/2000/svg" height="52.044" width="75.25" version="1.0"><path d="m62.827 24.259 1.57 4.404h.16l.122-.04h.484l.12.04H66.09v-4.727h1.855v4.727h1.852v-4.727h1.855v4.727h1.771v1.776h-8.341l-.202.04-.16.04h-.162l-.202.04-.161.081-.158.04-.161.041-.121.08-.162.081-.12.081-.122.08-.12.082-.122.12-.12.122-.122.12-.08.125-.121.121-.08.121-.082.162-.08.161-.08.161-.081.162-.04.161-.041.202-.08.161-.041.202-.04.202-.04.202v.242l-.041.201-.04.444-.04.447-.081.404-.081.444-.121.403-.08.404-.122.403-.161.404-.121.406-.161.364-.162.403-.16.363-.203.404-.201.363-.202.363-.242.363-.238.326-.242.363-.242.364-.283.322-.282.323-.282.323-.323.323-.322.322-.323.323-.323.323-.363.286-.362.323-.404.282-.363.282-.4.283-.403.282-.443.283-.404.282-.443.242-.444.242-.444.242-.443.246-.444.202-.484.201-.443.202-.48.202-.485.202-.484.161-.484.161-.483.162-.484.161-.525.162-.524.12-.484.122-.561.12-.524.122-.525.08-.524.081-.564.08-.565.082-.524.08-.565.04-.561.041-.605.04-.564.04-.605.041h-2.097l-.323-.04H36.151l-.282-.04h-.323l-.282-.041-.323-.04-.282-.04h-.323l-.282-.041-.282-.04-.323-.04-.282-.041-.283-.04-.282-.04-.32-.041-.281-.08-.283-.041-.282-.04-.282-.081-.283-.04-.282-.081-.282-.081-.282-.04-.283-.081-.282-.08-.282-.081-.283-.081-.363-.08-.322-.122-.363-.12-.32-.122-.362-.121-.323-.121-.323-.121-.322-.121-.363-.162-.282-.12-.323-.122-.323-.161-.322-.161-.282-.125-.323-.161-.282-.162-.323-.161-.279-.161-.282-.162-.283-.202-.282-.16-.282-.162-.282-.202-.242-.202-.283-.161-.282-.202-.242-.202-.242-.201-.282-.202-.242-.202-.242-.205-.242-.242-.282-.242-.242-.242-.28-.283-.241-.282-.242-.242-.242-.283-.202-.282-.242-.283-.201-.242-.202-.282-.202-.286-.16-.282-.203-.283-.16-.323-.162-.282-.121-.282-.161-.323-.121-.283-.121-.282-.121-.323-.121-.286-.081-.322-.08-.323-.081-.323-.08-.282-.041-.323-.08-.323-.041-.323-.04-.323v-.322l-.04-.327v-13.61l-.041-.404v-.363l-.04-.363-.04-.363-.041-.367-.04-.363-.081-.323-.04-.363-.081-.323-.121-.363-.08-.323-.081-.363-.118-.322-.121-.327-.121-.322-.161-.283-.121-.323-.162-.322-.16-.283-.162-.323-.162-.282-.201-.282-.202-.323-.201-.286-.202-.283-.202-.242-.242-.282-.242-.282-.242-.243-.242-.282-.242-.242-.282-.283-.282-.242-.242-.201-.279-.242-.282-.206-.283-.242-.282-.201-.282-.202-.282-.162-.283-.201-.322-.162-.283-.161-.322-.161-.283-.121-.322-.162-.323-.12-.282-.122-.323-.121-.322-.121-.32-.08-.322-.081-.363-.121-.323-.04-.322-.082-.363-.08-.323-.04-.363-.04-.322-.041-.363-.04H.566V4.951h1.492L2.824.507 4.68.793 3.59 5.153h.081l.08.041.162.04.202.04.282.081.282.121.36.122.443.12 1.573-4.24 1.734.606-1.734 4.038.121.04.161.081.162.08.201.081.202.122.202.12.242.122.282.164 2.537-3.678 1.653 1.012-2.822 3.635.16.12.162.122.161.12.202.162.161.121.162.162.161.12.202.162 3.706-2.949 1.29 1.456-3.827 2.465.08.12.122.122.12.161.122.202.201.242.162.242.242.283.242.322 4.19-2.101.965 1.577-4.312 1.9.121.201.121.202.121.202.121.202.121.242.08.242.122.242.08.242 4.836-1.21.363 1.896-4.594.891.04.121.04.202.082.201.04.202.04.283.04.242.081.282.04.323 4.877-.282.201 1.94h-4.715v2.259h4.715v1.779h-4.715v1.98h4.715v1.856h-4.715v1.9h4.715v1.86h-4.715v2.178l4.433-.323.282 1.9-4.715.283v.242l-.04.12v.242l.04.122v.363l.04.121.041.121v.121l.04.121.04.121.041.121.04.121.04.121.081.125.04.12.081.122.04.12.081.122.081.121.08.121.081.121.08.121.082.121.12.08.081.122.121.12.08.122.122.121 4.15-2.545 1.086 1.698-3.909 2.505.162.201.16.202.203.202.16.161.162.202.161.161.162.162.161.161.161.162.202.161.161.121.162.121.16.121.162.121.162.121.16.08 2.74-3.634 1.572 1.174-2.58 3.554.16.161.162.121.161.121.162.08.161.122.161.121.202.08.161.081.202.081.202.08.16.081.203.081.201.04.202.04.242.082.201.04 1.771-4.079 1.775.727-1.654 4.038.283.04.282.08.363.125.363.081.403.121.403.08.444.122.484.12.803-4.323 1.936.282-.766 4.324.201.08.242.041.202.04.201.041.242.04.202.04.202.041h.201l.202.04h1.045l.202-.04h.201v-4.566h2.057v4.566h.202l.201.04h1.049l.201-.04h.202l.198-.04.242-.04.202-.041.202-.04.201-.04.202-.041.201-.08-.766-4.325 2.057-.282.766 4.324.282-.04.283-.081.363-.081.36-.08.402-.122.444-.12.484-.125.524-.121-1.734-4.038 1.855-.727 1.775 4.079.16-.04.162-.081.162-.04.201-.081.158-.04.202-.081.161-.081.202-.08.161-.122.202-.08.201-.121.162-.121.201-.122.202-.12.201-.162.202-.121-2.658-3.473 1.57-1.174 2.822 3.635.161-.08.162-.122.161-.161.158-.121.161-.121.162-.162.161-.12.161-.162.162-.162.16-.16.162-.203.161-.161.162-.161.161-.202.161-.202.162-.202-3.828-2.505.968-1.698 4.03 2.586.08-.08.08-.122.081-.08.08-.121.081-.121.081-.081.08-.121.081-.121.04-.081.081-.121.081-.121.04-.121.04-.121.081-.121.04-.121.041-.125.04-.12.04-.122.041-.12.04-.122.04-.12.041-.162v-.121l.04-.121v-.162l.037-.12v-.162l.04-.121V35.489l-4.993-.404.201-1.98h.562l.322.04h.726l.403.04.444.041.484.04.403.04h.363l.363.041h.282l.283.04h.642l.04-.12v-.364l.04-.202.04-.201.081-.242.04-.242.081-.243-4.513-2.424.968-1.657 4.23 2.545.202-.162.202-.201.202-.162.201-.12.162-.122.201-.12.121-.081.161-.081-1.855-4.243 2.057-.686zm-31.19 11.028 1.57-7.313 2.097 2.101L64.598.507l1.492 1.658-29.334 29.447 2.134 2.098-7.252 1.577z" style="fill:#ff1415;fill-rule:evenodd;fill-opacity:1;stroke:none"/></svg>