<?xml version="1.0" encoding="UTF-8"?>

<svg version="1.2" width="150px" height="150px" viewBox="0 0 1160 1160" xmlns="http://www.w3.org/2000/svg" xmlns:xlink="http://www.w3.org/1999/xlink">
 <g visibility="visible" id="MasterSlide_1_Standard">
  <g id="Drawing_1">
  <path fill="rgb(255,20,21)" stroke="none" d="M 977,568 L 1001,637 1004,637 1005,635 1007,635 1009,635 1011,635 1013,635 1015,637 1016,637 1027,637 1027,563 1056,563 1056,637 1084,637 1084,563 1113,563 1113,637 1140,637 1140,663 1018,663 1015,663 1011,663 1008,665 1006,665 1004,665 1000,666 998,667 996,667 993,668 991,669 989,670 987,672 985,673 983,674 981,676 979,678 977,680 976,682 974,684 973,686 972,688 970,690 969,693 968,695 968,698 967,701 966,704 965,707 964,710 963,713 963,716 963,720 962,726 962,733 961,740 959,747 958,753 956,759 954,765 952,771 950,778 948,783 945,789 943,795 940,801 936,807 933,813 930,818 926,823 922,829 919,834 914,839 910,844 905,849 901,854 895,859 891,864 885,869 880,874 874,878 868,883 862,887 856,892 850,896 843,900 837,905 830,908 823,912 817,916 810,920 803,923 795,926 789,929 781,932 774,935 766,938 758,940 751,942 744,945 736,948 728,949 720,951 711,953 704,955 695,956 687,958 679,959 670,960 662,961 653,962 644,962 635,963 626,964 617,965 608,965 599,965 594,965 589,965 585,965 580,964 575,964 570,964 566,964 561,963 556,963 552,962 547,962 542,961 538,961 533,960 529,960 524,959 520,959 515,958 511,958 506,957 501,956 497,955 493,955 489,953 484,952 480,951 475,950 471,949 467,948 462,947 458,946 454,944 448,943 443,941 437,939 433,938 427,936 422,934 417,932 412,930 407,928 402,926 397,924 392,921 387,919 383,917 378,914 373,912 369,910 364,907 360,905 355,902 351,899 347,896 342,893 339,891 334,888 330,885 326,882 323,878 318,875 314,873 311,869 307,866 303,861 299,858 295,853 291,849 287,846 284,841 280,837 277,832 274,829 270,824 267,820 265,815 261,811 259,806 257,802 255,797 252,793 250,788 249,784 247,779 245,775 243,769 242,765 241,760 240,755 239,750 238,746 238,740 237,735 237,730 236,725 236,720 236,521 236,515 236,509 236,504 235,498 234,493 233,487 233,481 232,476 231,471 230,466 228,460 227,455 226,450 224,444 222,440 220,435 218,430 216,425 213,421 211,416 208,411 206,407 203,402 200,397 196,393 193,389 190,385 186,380 183,376 179,372 175,368 172,364 167,360 163,356 159,353 155,349 151,346 146,342 142,340 137,336 133,334 129,331 124,328 119,326 115,323 110,322 105,319 100,317 96,315 91,313 86,312 81,310 76,309 70,307 66,306 60,305 55,304 50,303 44,303 39,302 34,302 28,302 23,302 17,302 17,271 40,271 52,203 80,207 63,274 65,274 66,275 69,276 71,276 76,277 80,279 86,281 92,283 117,217 144,227 117,289 119,289 121,291 124,292 127,294 130,295 133,297 137,299 141,302 180,245 206,260 162,316 165,318 167,320 170,322 173,324 175,326 178,329 180,331 183,333 240,288 260,310 201,348 203,350 204,352 207,354 208,358 211,361 214,365 218,369 221,375 286,342 301,366 234,395 236,398 238,402 240,405 242,408 243,412 245,415 247,419 248,423 323,404 328,433 257,447 258,449 259,452 260,455 260,458 261,462 261,467 263,471 264,476 339,471 342,501 269,501 269,503 269,506 269,507 269,510 269,513 269,516 269,520 269,523 269,536 342,536 342,563 333,563 324,563 314,563 306,563 296,563 288,563 278,563 269,563 269,594 342,594 342,623 269,623 269,652 342,652 342,680 269,680 269,714 338,709 342,739 269,743 269,744 269,747 268,748 268,750 268,752 269,754 269,756 269,758 269,760 270,761 270,763 270,765 271,767 272,769 273,771 273,772 274,775 275,776 275,778 277,780 277,782 278,784 279,786 281,787 282,789 284,792 285,793 286,794 288,796 289,798 291,800 293,802 357,762 373,789 313,828 316,831 318,833 321,837 324,839 326,842 329,845 331,847 334,850 336,852 340,855 342,857 344,859 347,860 349,862 352,864 354,866 397,810 420,828 381,882 383,885 386,886 388,888 391,889 393,892 396,893 399,895 401,896 405,897 408,898 410,900 413,901 416,902 419,902 423,903 426,904 454,841 481,852 455,914 460,915 464,916 470,919 475,920 482,921 488,923 494,924 502,927 514,860 545,864 532,931 536,932 539,932 542,933 546,934 549,934 552,935 556,936 559,936 561,937 566,937 568,937 572,937 575,937 578,937 581,936 584,936 584,866 616,866 616,936 619,936 622,937 625,937 628,937 632,937 635,937 638,937 641,936 644,936 648,935 651,934 654,934 658,933 661,932 663,932 667,931 655,864 687,860 698,927 703,926 707,924 713,923 718,922 725,920 732,919 739,916 747,914 720,852 749,841 776,904 779,903 781,902 783,902 786,900 789,900 792,898 795,897 798,896 800,894 803,893 807,891 809,889 812,887 815,885 818,883 821,881 781,828 804,810 848,866 850,864 853,862 856,860 858,858 860,856 863,853 866,852 868,849 870,847 873,844 876,841 878,839 880,836 883,833 885,830 888,827 829,788 844,762 906,802 907,801 908,799 910,797 911,796 912,794 913,793 915,791 916,789 916,787 917,786 919,784 920,782 920,780 922,778 922,776 923,775 923,772 924,771 924,769 925,767 926,765 926,762 926,761 927,759 927,757 927,755 927,752 929,750 929,748 929,746 929,743 929,741 851,735 855,705 859,705 863,705 868,705 873,705 879,705 885,706 892,707 900,707 906,708 912,708 917,708 922,708 926,709 930,709 933,709 936,709 936,707 936,704 936,702 937,698 938,695 939,692 940,688 941,684 871,647 886,621 951,661 954,658 958,655 961,652 963,651 966,649 969,647 971,646 973,644 945,579 977,568 Z M 496,739 L 520,626 552,658 1004,203 1027,228 575,682 608,714 496,739 Z"/>
  </g>
 </g>
</svg>