<svg width="24.91mm" height="13.69mm" version="1.0" xmlns="http://www.w3.org/2000/svg">
  <path d="m46.127 45.201c-0.14006 0.02001-0.26012 0-0.40019-0.02001l-0.72034-0.20009-0.62029-0.060028h-0.74035l-0.84039 0.08004-0.90042 0.16008-1.0005 0.20009-2.201 0.60028-2.4411 0.74035-2.6012 0.84039-2.7813 0.82038-2.8813 0.78036-3.0014 0.66031-1.5407 0.24011-1.5407 0.20009-1.5607 0.10005-1.5607 0.02001-1.5607-0.06003-1.5607-0.16008-1.5607-0.30014-1.5607-0.40019-1.5207-0.54025-1.5207-0.68032-1.4807-0.84039-1.4607-1.0205-1.4207-1.1605-1.3606-1.3406-0.48022-0.46022c-0.040019-0.040019-0.080038-0.080038-0.12006-0.14007l-0.40019-0.52024c-0.020009-0.040019-0.060028-0.10005-0.080037-0.16008l-0.32015-0.58027-0.30014-0.76036c-0.020009-0.060028-0.040019-0.12006-0.060028-0.18008l-0.14007-0.68032-0.12006-0.84039-0.020009-0.88041 0.040019-0.90042 0.26012-1.8209 0.48022-1.9609 0.66031-1.9809 0.80037-2.0209 0.90042-2.0209 0.96045-2.0009 1.0205-1.9609 1.0205-1.8809 1.0005-1.7808 0.96045-1.6408 0.8604-1.4807 0.74035-1.3006 0.68032-1.1605 0.72034-1.1205 0.72034-1.0805 0.78036-1.0205 1.5407-1.8209 1.7008-1.6208 1.8409-1.4007 2.041-1.2006 2.221-0.96045 2.4211-0.76036 1.3606-0.28013 1.4207-0.18008 1.4407-0.060028 1.5207 0.020009 1.5407 0.12006 1.5407 0.14007 3.2015 0.4202 3.2815 0.50023 3.3216 0.48022 3.3015 0.32015 1.6007 0.10005h1.6007l1.6007-0.060028 1.6608-0.16007 1.7208-0.24011 1.7408-0.32015 3.6217-0.70033 3.6617-0.74035 1.8609-0.32015 1.8209-0.28013 1.8209-0.20009 1.8209-0.10005h1.7808l1.7408 0.14007 1.7008 0.28013 1.6608 0.48022c0.16008 0.060028 0.28013 0.12006 0.40019 0.2201l1.4207 1.1005 1.4207 1.3806 1.2606 1.5407 1.1205 1.6408 1.0005 1.7408 0.92043 1.8008 0.80037 1.8809 0.72034 1.8809 0.6403 1.8809 0.58027 1.8809 0.54025 1.8209 0.46022 1.7608 0.44021 1.6808 0.40019 1.5607 0.38018 1.4207 0.38018 1.2606 0.34016 1.5807 0.26012 1.4407 0.20009 1.3206 0.12006 1.2206 0.04002 1.1205-0.02001 1.0605-0.10005 0.96045-0.18008 0.90042-0.28013 0.82038-0.36017 0.76036-0.44021 0.68032c-0.02001 0.06003-0.06003 0.10005-0.10005 0.14007l-0.44021 0.48022-0.60028 0.52024-0.70033 0.46022-0.74035 0.36017-0.82038 0.30014-0.82038 0.26012-0.90042 0.20009-0.92043 0.16008-1.0205 0.12006-1.0005 0.12006-1.1005 0.10005-1.1405 0.08004-1.1806 0.08004-2.5412 0.18008-2.7613 0.24011-2.9814 0.32015-3.1815 0.44021-1.0805 0.14007-1.2406 0.06003h-1.2806l-1.3006-0.04002-2.7413-0.20009-2.9214-0.30014-3.0014-0.30014-3.0814-0.2201-3.1415-0.08004-1.5207 0.04002zm1.4807-2.5012 1.6408-0.04002 3.2415 0.08004 3.1615 0.24011 3.0214 0.28013 2.8413 0.30014 2.6612 0.20009 1.2006 0.04002 1.1605 0.02001 1.0605-0.06003 1.0405-0.12006 3.2815-0.48022 3.0214-0.32015 2.7813-0.2201 2.5412-0.18008 1.1806-0.08004 1.1205-0.10005 1.0205-0.08004 0.98046-0.12006 0.90042-0.10005 0.82038-0.16008 0.74035-0.16008 0.70033-0.18008 0.56026-0.20009 0.52024-0.26012 0.4202-0.24011 0.40019-0.32015 0.4202-0.48022-0.10005 0.16008 0.26012-0.40019 0.26012-0.48022 0.18008-0.56026 0.16008-0.66031 0.08004-0.78036 0.04002-0.8604-0.06003-1.0005-0.10005-1.1205-0.18008-1.2206-0.24011-1.3606-0.32015-1.4407-0.38018-1.3006-0.38018-1.4407-0.40019-1.5607-0.4202-1.6408-0.48022-1.7408-0.50023-1.7808-0.56026-1.8008-0.62029-1.8209-0.68032-1.7808-0.76036-1.7408-0.84039-1.6808-0.90042-1.6007-1.0205-1.4807-1.0805-1.3406-1.1806-1.1806-1.4207-1.1205 0.40019 0.2201-1.4007-0.4202-1.4807-0.28013-1.5807-0.12006-1.6208-0.020009-1.6808 0.10005-1.7408 0.20009-1.7808 0.26012-1.8008 0.32015-3.6617 0.72034-3.6617 0.74035-1.8409 0.30014-1.8008 0.26012-1.8008 0.18008-1.7208 0.060028-1.7008-0.020009-1.7408-0.080037-3.3816-0.36017-3.3416-0.46022-3.2415-0.50023-3.1015-0.40019-1.5007-0.16007-1.4207-0.10005-1.3406-0.020009-1.3006 0.060028-1.2006 0.12006-1.1405 0.2201-2.181 0.68032-1.9609 0.84039-1.7808 1.0205-1.6408 1.2406-1.5407 1.4407-1.4607 1.7208-0.68032 0.90042-0.70033 1.0205-0.66031 1.0605-0.68032 1.1605-0.76036 1.2806-0.8604 1.4807-0.94044 1.6208-0.98046 1.7608-1.0005 1.8409-0.98046 1.8809-0.94044 1.9409-0.8604 1.9209-0.74035 1.9009-0.60028 1.8209-0.44021 1.7008-0.24011 1.6007-0.040019 0.72034 0.020009 0.66031 0.060028 0.62029 0.16007 0.68032-0.060028-0.18008 0.18008 0.50023 0.30014 0.58027-0.10005-0.16008 0.40019 0.52024-0.14007-0.14006 0.50023 0.46022 1.2206 1.2206 1.2406 1.0405 1.2806 0.88041 1.3006 0.74035 1.3206 0.62029 1.3406 0.48022 1.3806 0.36017 1.3806 0.26012 1.4007 0.18008 1.4407 0.04002h1.4207l1.4407-0.12006 1.4407-0.16007 1.4207-0.24011 2.8613-0.60028 2.8413-0.76036 2.7413-0.84039 2.6212-0.84039 2.5012-0.76036 2.3411-0.62029 1.1205-0.24011 1.0805-0.16007 1.0405-0.10005 1.0005 0.02001 0.96045 0.12006 0.74035 0.18008-0.40019-0.02001z" fill="#f00" stroke="#f00" stroke-linejoin="round" stroke-width=".020009px"/>
</svg>
