<?xml version="1.0" encoding="UTF-8"?>

<svg version="1.2" width="150px" height="150px" viewBox="0 0 1160 1160" xmlns="http://www.w3.org/2000/svg" xmlns:xlink="http://www.w3.org/1999/xlink">
 <g visibility="visible" id="MasterSlide_1_Standard">
  <g id="Drawing_1">
  <path fill="rgb(255,0,0)" stroke="rgb(255,0,0)" d="M 551,803 L 551,803 C 550,804 549,803 547,803 L 547,803 538,800 530,800 521,800 511,801 500,803 487,805 460,812 430,822 398,832 364,842 328,852 291,860 272,863 253,865 234,866 215,867 196,866 177,864 157,860 138,855 119,849 101,840 82,830 64,818 47,803 30,787 24,781 24,781 C 23,781 23,780 22,779 L 18,773 18,773 C 17,772 17,772 16,771 L 16,771 13,764 9,754 9,754 C 9,754 8,753 8,752 L 8,752 7,744 5,733 5,723 5,711 8,689 15,665 22,641 32,616 43,591 55,566 68,542 81,519 93,497 105,477 115,459 124,443 133,429 142,415 150,401 160,389 179,366 200,346 223,329 248,314 275,302 305,293 322,289 340,288 357,287 376,287 395,289 414,290 453,296 494,302 535,308 575,311 595,313 615,313 634,312 655,310 676,307 698,303 742,295 788,285 810,281 833,278 855,275 877,274 899,274 921,276 942,279 963,285 963,285 C 964,286 966,287 967,288 L 967,288 985,302 1002,318 1018,337 1032,358 1044,379 1055,401 1065,424 1074,448 1082,471 1089,494 1096,517 1101,538 1107,559 1112,578 1116,595 1121,611 1125,631 1128,648 1131,664 1133,679 1133,693 1133,706 1132,718 1129,729 1126,739 1121,749 1116,757 1116,757 C 1116,758 1115,758 1115,758 L 1115,758 1109,765 1102,771 1093,777 1084,781 1074,785 1064,788 1053,791 1041,792 1029,794 1017,795 1003,797 989,798 974,798 943,801 909,804 872,808 833,813 820,815 805,816 789,816 773,815 739,812 703,809 666,805 628,803 589,802 571,802 551,803 Z M 570,772 L 570,772 590,772 630,773 669,776 706,779 741,783 774,785 789,786 803,786 816,785 829,784 869,778 907,774 941,772 972,769 987,768 1001,767 1013,766 1025,765 1036,763 1046,761 1056,759 1064,757 1071,755 1078,751 1083,749 1087,745 1093,739 1092,741 1095,736 1098,730 1100,723 1102,715 1103,705 1104,695 1103,682 1102,669 1100,653 1097,637 1093,619 1088,603 1083,585 1078,566 1073,546 1067,524 1061,503 1054,480 1046,458 1038,436 1029,415 1019,394 1007,374 995,356 981,339 967,325 949,311 954,314 937,309 919,305 899,304 879,303 859,305 837,307 815,310 793,314 748,323 703,332 680,336 658,339 636,342 614,342 593,342 572,341 530,336 489,331 449,325 411,320 393,318 375,316 359,316 342,317 328,318 313,321 287,329 263,340 241,352 220,368 202,385 184,407 175,418 166,430 158,443 150,458 141,473 130,492 118,511 106,533 94,556 82,579 70,603 60,627 51,650 43,672 38,693 35,713 35,722 35,730 35,738 37,746 36,744 39,750 42,757 41,755 46,762 44,760 51,765 66,781 81,793 97,804 113,813 129,821 145,827 163,832 179,834 197,837 215,837 232,837 250,836 267,834 285,831 320,824 355,814 389,804 422,793 452,784 481,777 495,773 508,772 521,770 533,771 545,772 554,774 550,774 570,772 Z"/>
  </g>
 </g>
</svg>