<?xml version="1.0" encoding="UTF-8"?>

<svg version="1.2" width="150px" height="150px" viewBox="0 0 1160 1160" xmlns="http://www.w3.org/2000/svg" xmlns:xlink="http://www.w3.org/1999/xlink">
 <g visibility="visible" id="MasterSlide_1_Standard">
  <g id="Drawing_1">
  <path fill="rgb(0,0,255)" stroke="rgb(0,0,255)" d="M 156,746 L 156,746 C 156,744 156,742 156,741 L 159,719 159,719 C 159,717 159,716 159,715 L 165,693 165,693 C 165,692 166,691 166,689 L 176,669 176,669 C 177,668 177,666 178,665 L 178,665 191,646 210,624 231,605 256,586 282,570 312,555 343,542 377,530 412,520 450,513 488,507 528,504 570,502 611,503 651,507 689,513 726,520 762,530 795,541 827,554 856,568 883,585 907,603 929,623 947,643 962,665 962,665 C 963,666 963,668 964,669 L 974,689 974,689 C 974,691 975,692 975,693 L 981,715 981,715 C 981,716 981,717 981,719 L 984,741 984,741 C 984,742 984,744 984,746 L 981,768 981,768 C 981,769 981,770 981,771 L 975,793 975,793 C 975,794 974,796 974,797 L 964,818 964,818 C 963,819 963,820 962,821 L 962,821 949,841 931,862 909,882 885,901 858,917 829,932 797,945 764,956 728,966 691,973 652,979 612,983 571,984 530,983 490,979 451,974 414,966 379,957 345,945 313,933 284,918 257,902 233,884 211,864 193,844 178,821 178,821 C 177,820 177,819 176,818 L 166,797 166,797 C 166,796 165,794 165,793 L 159,771 159,771 C 159,770 159,769 159,768 L 156,746 Z M 208,763 L 208,763 207,759 213,780 212,776 222,797 220,794 231,811 245,828 263,845 283,860 306,874 333,887 361,900 391,909 424,918 458,925 494,931 531,933 570,935 608,934 645,931 680,925 715,919 747,910 778,900 806,888 831,875 855,861 875,846 893,830 907,814 920,794 918,797 928,776 927,780 933,759 932,763 934,741 934,746 932,723 933,728 927,706 928,710 918,689 920,693 909,675 895,658 877,642 857,626 834,612 808,599 779,588 749,577 716,568 682,561 646,556 609,553 571,551 533,553 495,556 460,561 425,568 393,577 362,587 334,599 309,612 285,626 265,641 247,657 233,673 220,693 222,689 212,710 213,706 207,728 208,723 206,746 206,741 208,763 Z"/>
  <path fill="rgb(0,0,255)" stroke="none" d="M 587,413 L 587,532 550,532 550,413 587,413 Z"/>
  <path stroke-width="1" fill="none" stroke="rgb(0,0,255)" d="M 587,413 L 587,532 550,532 550,413 587,413 Z"/>
  <path fill="rgb(0,0,255)" stroke="none" d="M 593,952 L 593,1083 544,1083 544,952 593,952 Z"/>
  <path stroke-width="1" fill="none" stroke="rgb(0,0,255)" d="M 593,952 L 593,1083 544,1083 544,952 593,952 Z"/>
  <path fill="rgb(0,0,255)" stroke="none" d="M 948,726 L 1070,726 1070,763 948,763 948,726 Z"/>
  <path stroke-width="1" fill="none" stroke="rgb(0,0,255)" d="M 948,726 L 1070,726 1070,763 948,763 948,726 Z"/>
  <path fill="rgb(0,0,255)" stroke="none" d="M 71,726 L 193,726 193,763 71,763 71,726 Z"/>
  <path stroke-width="1" fill="none" stroke="rgb(0,0,255)" d="M 71,726 L 193,726 193,763 71,763 71,726 Z"/>
  <path fill="rgb(0,0,255)" stroke="none" d="M 841,897 L 916,1003 876,1031 801,925 841,897 Z"/>
  <path stroke-width="1" fill="none" stroke="rgb(0,0,255)" d="M 841,897 L 916,1003 876,1031 801,925 841,897 Z"/>
  <path fill="rgb(0,0,255)" stroke="none" d="M 262,463 L 332,560 301,582 231,485 262,463 Z"/>
  <path stroke-width="1" fill="none" stroke="rgb(0,0,255)" d="M 262,463 L 332,560 301,582 231,485 262,463 Z"/>
  <path fill="rgb(0,0,255)" stroke="none" d="M 328,913 L 253,1019 213,992 288,885 328,913 Z"/>
  <path stroke-width="1" fill="none" stroke="rgb(0,0,255)" d="M 328,913 L 253,1019 213,992 288,885 328,913 Z"/>
  <path fill="rgb(0,0,255)" stroke="none" d="M 903,489 L 835,585 805,565 873,468 903,489 Z"/>
  <path stroke-width="1" fill="none" stroke="rgb(0,0,255)" d="M 903,489 L 835,585 805,565 873,468 903,489 Z"/>
  <path fill="rgb(0,0,255)" stroke="none" d="M 454,947 L 422,1072 375,1060 406,935 454,947 Z"/>
  <path stroke-width="1" fill="none" stroke="rgb(0,0,255)" d="M 454,947 L 422,1072 375,1060 406,935 454,947 Z"/>
  <path fill="rgb(0,0,255)" stroke="none" d="M 750,431 L 721,545 686,537 715,422 750,431 Z"/>
  <path stroke-width="1" fill="none" stroke="rgb(0,0,255)" d="M 750,431 L 721,545 686,537 715,422 750,431 Z"/>
  <path fill="rgb(0,0,255)" stroke="none" d="M 728,936 L 759,1062 712,1074 680,948 728,936 Z"/>
  <path stroke-width="1" fill="none" stroke="rgb(0,0,255)" d="M 728,936 L 759,1062 712,1074 680,948 728,936 Z"/>
  <path fill="rgb(0,0,255)" stroke="none" d="M 423,424 L 452,538 416,547 387,432 423,424 Z"/>
  <path stroke-width="1" fill="none" stroke="rgb(0,0,255)" d="M 423,424 L 452,538 416,547 387,432 423,424 Z"/>
  <path fill="rgb(0,0,255)" stroke="none" d="M 928,827 L 1039,898 1012,939 902,868 928,827 Z"/>
  <path stroke-width="1" fill="none" stroke="rgb(0,0,255)" d="M 928,827 L 1039,898 1012,939 902,868 928,827 Z"/>
  <path fill="rgb(0,0,255)" stroke="none" d="M 126,567 L 227,632 206,662 106,598 126,567 Z"/>
  <path stroke-width="1" fill="none" stroke="rgb(0,0,255)" d="M 126,567 L 227,632 206,662 106,598 126,567 Z"/>
  <path fill="rgb(0,0,255)" stroke="none" d="M 1032,589 L 932,654 912,623 1013,559 1032,589 Z"/>
  <path stroke-width="1" fill="none" stroke="rgb(0,0,255)" d="M 1032,589 L 932,654 912,623 1013,559 1032,589 Z"/>
  <path fill="rgb(0,0,255)" stroke="none" d="M 230,858 L 120,930 94,889 204,818 230,858 Z"/>
  <path stroke-width="1" fill="none" stroke="rgb(0,0,255)" d="M 230,858 L 120,930 94,889 204,818 230,858 Z"/>
  </g>
 </g>
</svg>