<?xml version="1.0" encoding="UTF-8"?>

<svg version="1.2" width="150px" height="150px" viewBox="0 0 1160 1160" xmlns="http://www.w3.org/2000/svg" xmlns:xlink="http://www.w3.org/1999/xlink">
 <g visibility="visible" id="MasterSlide_1_Standard">
  <g id="DrawingGroup_1">
   <g>
   <path fill="rgb(255,0,0)" stroke="none" d="M 140,126 C 433,126 727,126 1020,126 1020,429 1020,731 1020,1034 727,1034 433,1034 140,1034 140,731 140,429 140,126 Z M 177,1015 C 171,1009 164,1003 158,997 439,997 721,997 1002,997 996,1003 990,1009 984,1015 984,725 984,435 984,145 990,151 996,157 1002,163 721,163 439,163 158,163 164,157 171,151 177,145 177,435 177,725 177,1015 Z"/>
   <path fill="none" stroke="rgb(255,0,0)" id="Drawing_1_0" d="M 140,126 C 433,126 727,126 1020,126 1020,429 1020,731 1020,1034 727,1034 433,1034 140,1034 140,731 140,429 140,126 Z"/>
   <path fill="none" stroke="rgb(255,0,0)" id="Drawing_1_1" d="M 177,1015 C 171,1009 164,1003 158,997 439,997 721,997 1002,997 996,1003 990,1009 984,1015 984,725 984,435 984,145 990,151 996,157 1002,163 721,163 439,163 158,163 164,157 171,151 177,145 177,435 177,725 177,1015 Z"/>
   </g>
   <g>
   <path fill="rgb(255,0,0)" stroke="none" d="M 221,379 L 261,375 C 264,389 269,399 276,405 283,411 293,414 306,414 319,414 329,411 336,406 343,400 346,394 346,386 346,382 345,378 342,374 339,371 334,368 327,365 322,364 311,361 294,357 272,351 256,345 247,337 235,326 229,312 229,296 229,286 232,276 238,267 243,258 252,251 263,247 274,242 287,240 303,240 329,240 348,245 361,256 374,267 381,282 381,301 L 340,303 C 338,292 335,285 329,280 323,276 314,273 303,273 291,273 281,276 275,281 270,284 268,288 268,293 268,298 270,302 274,306 279,310 292,314 312,319 332,324 347,329 356,334 366,339 374,345 379,354 384,363 387,373 387,386 387,398 384,409 377,419 371,429 362,436 350,441 338,446 323,449 305,449 280,449 260,443 246,431 232,419 224,402 221,379 Z"/>
    <rect fill="none" stroke="none" x="221" y="239" width="168" height="211"/>
   </g>
   <g>
   <path fill="rgb(255,0,0)" stroke="none" d="M 468,445 C 468,389 468,333 468,277 447,277 427,277 407,277 407,266 407,255 407,243 461,243 515,243 569,243 569,255 569,266 569,277 549,277 529,277 509,277 509,333 509,389 509,445 L 468,445 Z"/>
    <rect fill="none" stroke="none" x="407" y="243" width="164" height="203"/>
   </g>
   <g>
   <path fill="rgb(255,0,0)" stroke="none" d="M 780,445 C 765,445 750,445 735,445 729,430 723,414 717,399 690,399 663,399 635,399 630,414 624,430 619,445 604,445 589,445 575,445 601,378 628,310 654,243 669,243 683,243 698,243 L 780,445 Z M 704,365 C 694,340 685,315 676,290 666,315 657,340 648,365 L 704,365 Z"/>
    <rect fill="none" stroke="none" x="574" y="243" width="207" height="203"/>
   </g>
   <g>
   <path fill="rgb(255,0,0)" stroke="none" d="M 801,243 L 843,243 843,352 C 843,370 843,381 844,386 846,394 850,401 857,406 863,411 872,414 884,414 896,414 904,411 910,407 916,402 920,396 921,389 922,382 923,371 923,355 L 923,243 964,243 964,349 C 964,373 963,391 961,401 959,411 954,419 948,426 942,433 934,438 924,442 914,446 901,448 885,448 866,448 851,446 841,442 831,437 823,432 817,424 811,417 807,410 805,402 803,390 801,373 801,351 L 801,243 Z"/>
    <rect fill="none" stroke="none" x="801" y="243" width="165" height="207"/>
   </g>
   <g>
   <path fill="rgb(255,0,0)" stroke="none" d="M 522,530 C 561,530 600,530 639,530 639,561 639,591 639,622 631,684 624,746 616,808 592,808 568,808 544,808 537,746 530,684 522,622 L 522,530 Z M 526,836 C 563,836 599,836 635,836 635,869 635,902 635,935 599,935 563,935 526,935 L 526,836 Z"/>
    <rect fill="none" stroke="none" x="522" y="529" width="118" height="407"/>
   </g>
  </g>
 </g>
</svg>