<?xml version="1.0" encoding="UTF-8"?>

<svg version="1.2" width="150px" height="150px" viewBox="0 0 1160 1160" xmlns="http://www.w3.org/2000/svg" xmlns:xlink="http://www.w3.org/1999/xlink">
 <g visibility="visible" id="MasterSlide_1_Standard">
  <g id="Drawing_1">
  <path fill="rgb(255,0,0)" stroke="none" d="M 40,424 L 291,679 269,701 17,446 40,424 Z"/>
  <path fill="none" stroke="rgb(255,0,0)" d="M 40,424 L 291,679 269,701 17,446 40,424 Z"/>
  <path fill="rgb(255,0,0)" stroke="none" d="M 290,449 L 36,701 14,679 268,427 290,449 Z"/>
  <path fill="none" stroke="rgb(255,0,0)" d="M 290,449 L 36,701 14,679 268,427 290,449 Z"/>
  <path fill="rgb(255,0,0)" stroke="rgb(255,0,0)" d="M 257,558 L 288,557 288,588 257,588 257,558 Z M 319,557 L 350,557 350,588 319,588 319,557 Z M 380,557 L 411,556 411,587 381,588 380,557 Z M 442,556 L 473,556 473,587 443,587 442,556 Z M 504,556 L 535,556 535,586 504,587 504,556 Z M 566,555 L 597,555 597,586 566,586 566,555 Z M 628,555 L 658,555 659,586 628,586 628,555 Z M 689,555 L 720,554 721,585 690,586 689,555 Z M 751,554 L 782,554 782,585 751,585 751,554 Z M 813,554 L 844,554 844,584 813,585 813,554 Z M 875,553 L 906,553 906,584 875,584 875,553 Z"/>
  <path fill="rgb(255,0,0)" stroke="none" d="M 874,428 L 1125,683 1103,705 852,450 874,428 Z"/>
  <path fill="none" stroke="rgb(255,0,0)" d="M 874,428 L 1125,683 1103,705 852,450 874,428 Z"/>
  <path fill="rgb(255,0,0)" stroke="none" d="M 1124,452 L 870,705 848,683 1102,430 1124,452 Z"/>
  <path fill="none" stroke="rgb(255,0,0)" d="M 1124,452 L 870,705 848,683 1102,430 1124,452 Z"/>
  </g>
 </g>
</svg>