<?xml version="1.0" encoding="UTF-8"?>

<svg version="1.2" width="150px" height="150px" viewBox="0 0 1160 1160" xmlns="http://www.w3.org/2000/svg" xmlns:xlink="http://www.w3.org/1999/xlink">
 <g visibility="visible" id="MasterSlide_1_Standard">
  <g id="Drawing_1">
  <path fill="rgb(0,0,255)" stroke="rgb(0,0,255)" d="M 152,567 L 152,567 C 151,566 151,564 152,563 L 153,540 153,540 C 154,539 154,537 154,536 L 160,513 160,513 C 161,512 161,511 162,509 L 171,487 171,487 C 172,487 173,485 173,485 L 173,485 186,463 205,441 226,420 251,401 278,384 308,368 340,354 374,342 410,333 447,324 487,318 527,315 570,313 610,315 651,318 690,324 728,332 763,342 798,353 830,368 860,383 886,400 911,419 933,439 951,461 966,485 966,485 C 967,485 967,487 968,487 L 978,509 978,509 C 978,511 978,512 979,513 L 985,536 985,536 C 985,537 985,539 986,540 L 987,563 987,563 C 989,564 989,566 987,567 L 986,591 986,591 C 985,592 985,593 985,595 L 979,617 979,617 C 978,619 978,620 978,621 L 968,643 968,643 C 967,644 967,645 966,646 L 966,646 953,667 935,690 913,710 888,729 861,747 831,762 799,777 765,788 729,798 691,807 653,812 613,816 570,817 529,816 488,812 449,807 411,799 376,788 342,777 310,763 280,749 253,731 228,712 207,692 188,670 173,646 173,646 C 173,645 172,644 171,643 L 162,621 162,621 C 161,620 161,619 160,617 L 154,595 154,595 C 154,593 154,592 153,591 L 152,567 Z M 204,586 L 204,586 203,582 209,604 208,601 217,622 216,619 227,637 242,655 260,672 280,688 304,703 330,717 358,729 389,740 422,749 456,757 493,762 530,766 570,766 607,766 645,762 682,757 716,750 748,741 779,729 808,718 834,704 858,690 878,674 896,658 910,640 924,619 922,622 932,601 930,604 936,582 935,586 937,563 937,567 935,544 936,549 930,526 932,530 922,508 924,511 912,493 897,476 879,459 860,443 836,428 810,413 781,402 750,391 718,382 682,374 647,369 609,365 570,364 532,365 494,368 458,374 424,381 391,390 360,401 331,413 305,426 282,441 261,457 243,474 229,491 216,511 217,508 208,530 209,526 203,549 204,544 202,567 202,563 204,586 Z"/>
  <path fill="rgb(0,0,255)" stroke="none" d="M 589,221 L 589,344 550,344 550,221 589,221 Z"/>
  <path stroke-width="1" fill="none" stroke="rgb(0,0,255)" d="M 589,221 L 589,344 550,344 550,221 589,221 Z"/>
  <path fill="rgb(0,0,255)" stroke="none" d="M 589,787 L 589,911 550,911 550,787 589,787 Z"/>
  <path stroke-width="1" fill="none" stroke="rgb(0,0,255)" d="M 589,787 L 589,911 550,911 550,787 589,787 Z"/>
  <path fill="rgb(0,0,255)" stroke="none" d="M 952,545 L 1075,545 1075,584 952,584 952,545 Z"/>
  <path stroke-width="1" fill="none" stroke="rgb(0,0,255)" d="M 952,545 L 1075,545 1075,584 952,584 952,545 Z"/>
  <path fill="rgb(0,0,255)" stroke="none" d="M 62,545 L 185,545 185,584 62,584 62,545 Z"/>
  <path stroke-width="1" fill="none" stroke="rgb(0,0,255)" d="M 62,545 L 185,545 185,584 62,584 62,545 Z"/>
  <path fill="rgb(0,0,255)" stroke="none" d="M 843,734 L 912,834 882,855 812,756 843,734 Z"/>
  <path stroke-width="1" fill="none" stroke="rgb(0,0,255)" d="M 843,734 L 912,834 882,855 812,756 843,734 Z"/>
  <path fill="rgb(0,0,255)" stroke="none" d="M 262,276 L 333,377 301,400 230,298 262,276 Z"/>
  <path stroke-width="1" fill="none" stroke="rgb(0,0,255)" d="M 262,276 L 333,377 301,400 230,298 262,276 Z"/>
  <path fill="rgb(0,0,255)" stroke="none" d="M 316,743 L 246,843 215,822 285,722 316,743 Z"/>
  <path stroke-width="1" fill="none" stroke="rgb(0,0,255)" d="M 316,743 L 246,843 215,822 285,722 316,743 Z"/>
  <path fill="rgb(0,0,255)" stroke="none" d="M 908,301 L 838,400 808,379 877,279 908,301 Z"/>
  <path stroke-width="1" fill="none" stroke="rgb(0,0,255)" d="M 908,301 L 838,400 808,379 877,279 908,301 Z"/>
  <path fill="rgb(0,0,255)" stroke="none" d="M 443,781 L 415,899 378,890 408,772 443,781 Z"/>
  <path stroke-width="1" fill="none" stroke="rgb(0,0,255)" d="M 443,781 L 415,899 378,890 408,772 443,781 Z"/>
  <path fill="rgb(0,0,255)" stroke="none" d="M 752,240 L 723,359 687,350 716,231 752,240 Z"/>
  <path stroke-width="1" fill="none" stroke="rgb(0,0,255)" d="M 752,240 L 723,359 687,350 716,231 752,240 Z"/>
  <path fill="rgb(0,0,255)" stroke="none" d="M 725,774 L 754,892 718,901 688,783 725,774 Z"/>
  <path stroke-width="1" fill="none" stroke="rgb(0,0,255)" d="M 725,774 L 754,892 718,901 688,783 725,774 Z"/>
  <path fill="rgb(0,0,255)" stroke="none" d="M 421,228 L 450,346 415,355 385,237 421,228 Z"/>
  <path stroke-width="1" fill="none" stroke="rgb(0,0,255)" d="M 421,228 L 450,346 415,355 385,237 421,228 Z"/>
  <path fill="rgb(0,0,255)" stroke="none" d="M 934,661 L 1036,727 1016,759 914,692 934,661 Z"/>
  <path stroke-width="1" fill="none" stroke="rgb(0,0,255)" d="M 934,661 L 1036,727 1016,759 914,692 934,661 Z"/>
  <path fill="rgb(0,0,255)" stroke="none" d="M 119,383 L 220,449 200,480 98,413 119,383 Z"/>
  <path stroke-width="1" fill="none" stroke="rgb(0,0,255)" d="M 119,383 L 220,449 200,480 98,413 119,383 Z"/>
  <path fill="rgb(0,0,255)" stroke="none" d="M 1038,405 L 936,471 916,440 1018,374 1038,405 Z"/>
  <path stroke-width="1" fill="none" stroke="rgb(0,0,255)" d="M 1038,405 L 936,471 916,440 1018,374 1038,405 Z"/>
  <path fill="rgb(0,0,255)" stroke="none" d="M 216,683 L 114,749 94,718 196,652 216,683 Z"/>
  <path stroke-width="1" fill="none" stroke="rgb(0,0,255)" d="M 216,683 L 114,749 94,718 196,652 216,683 Z"/>
  </g>
 </g>
</svg>