<?xml version="1.0" encoding="UTF-8"?>

<svg version="1.2" width="150px" height="150px" viewBox="0 0 1160 1160" xmlns="http://www.w3.org/2000/svg" xmlns:xlink="http://www.w3.org/1999/xlink">
 <g visibility="visible" id="MasterSlide_1_Standard">
  <g id="Drawing_1">
  <path fill="rgb(255,0,0)" stroke="rgb(255,0,0)" d="M 27,30 L 1126,30 1126,1130 27,1130 27,30 Z M 73,1107 L 51,1084 1104,1084 1080,1107 1080,53 1104,76 51,76 73,53 73,1107 Z"/>
  <path fill="rgb(255,0,0)" stroke="none" d="M 163,566 L 163,566 C 163,527 194,496 232,496 232,496 232,496 232,496 L 232,496 232,496 C 270,496 302,527 302,566 302,566 302,566 302,566 L 302,566 302,566 C 302,605 270,636 232,636 232,636 232,636 232,636 L 232,636 232,636 C 194,636 163,605 163,566 163,566 163,566 163,566 Z"/>
  <path fill="rgb(255,0,0)" stroke="rgb(255,0,0)" d="M 161,566 L 162,558 163,552 164,545 167,538 169,532 173,525 177,520 182,515 187,510 192,507 198,503 204,500 211,498 217,496 225,495 232,494 239,494 246,496 253,498 259,500 265,503 271,507 277,510 282,515 286,520 291,525 294,531 297,538 299,545 302,552 302,558 302,566 302,573 302,580 299,587 297,594 294,600 291,605 286,611 282,616 277,621 271,625 265,628 259,632 253,634 246,636 239,637 232,637 225,637 217,636 211,634 205,632 198,628 192,625 187,621 182,616 177,611 174,605 169,600 167,594 164,587 163,580 162,573 161,566 Z M 163,573 L 165,579 167,586 169,593 172,599 175,605 179,610 184,615 189,619 194,623 199,626 206,629 211,632 218,633 225,634 232,635 238,634 245,633 252,632 259,629 264,626 270,623 275,619 280,615 285,610 288,605 291,599 295,593 297,586 299,579 300,573 300,566 300,559 299,552 297,546 295,539 292,533 289,527 285,522 280,517 275,513 270,509 264,505 259,502 252,500 246,499 239,497 232,497 225,497 218,499 211,500 206,502 200,505 194,509 189,513 184,517 179,522 175,527 172,533 169,539 167,545 165,552 163,558 163,566 163,573 Z"/>
  <path fill="rgb(255,0,0)" stroke="none" d="M 857,562 L 857,562 C 857,525 888,493 927,493 927,493 927,493 927,493 L 927,493 927,493 C 966,493 996,525 996,562 996,562 996,562 996,562 L 996,562 996,562 C 996,601 966,632 927,632 927,632 927,632 927,632 L 927,632 927,632 C 888,632 857,601 857,562 857,562 857,562 857,562 Z"/>
  <path fill="rgb(255,0,0)" stroke="rgb(255,0,0)" d="M 856,562 L 856,556 858,548 860,541 861,536 865,529 868,523 872,518 876,513 882,508 887,504 893,500 899,498 906,495 913,493 919,493 927,492 934,493 941,493 948,495 955,498 961,500 967,504 972,508 977,513 982,518 986,523 989,529 992,535 994,541 996,548 997,556 998,562 997,570 996,577 994,584 992,590 989,596 986,602 982,608 977,613 972,617 967,621 961,625 955,628 948,630 941,632 935,633 927,633 919,633 913,632 906,630 899,628 893,625 887,621 882,617 877,613 872,608 868,602 865,596 861,590 860,584 858,577 856,570 856,562 Z M 859,569 L 860,576 861,583 864,589 867,595 871,600 874,606 879,611 883,616 889,619 894,622 900,626 907,628 914,630 920,631 927,631 934,631 940,630 947,628 953,626 959,623 965,619 970,616 975,611 980,606 983,601 987,595 990,589 992,583 993,577 995,570 995,562 995,556 993,549 992,542 990,536 987,530 983,525 980,520 975,514 971,510 965,506 960,503 954,500 947,498 940,496 934,494 927,494 920,494 914,496 907,498 900,499 894,503 889,506 883,510 879,514 874,520 871,525 867,530 864,536 861,542 860,549 859,556 859,562 859,569 Z"/>
  <path fill="rgb(255,0,0)" stroke="rgb(255,0,0)" d="M 393,595 L 418,552 605,842 558,841 762,551 785,595 393,595 Z M 839,539 L 581,908 341,539 839,539 Z"/>
  <path fill="rgb(255,0,0)" stroke="rgb(255,0,0)" d="M 321,512 L 206,342 252,310 368,480 Z"/>
  <path fill="rgb(255,0,0)" stroke="rgb(255,0,0)" d="M 799,485 L 906,310 954,339 847,514 Z"/>
  <path fill="rgb(255,0,0)" stroke="rgb(255,0,0)" d="M 324,456 L 844,455 845,511 325,513 Z"/>
  </g>
 </g>
</svg>