<?xml version="1.0" encoding="UTF-8"?>

<svg version="1.2" width="150px" height="150px" viewBox="0 0 1160 1160" xmlns="http://www.w3.org/2000/svg" xmlns:xlink="http://www.w3.org/1999/xlink">
 <g visibility="visible" id="MasterSlide_1_Standard">
  <g id="Drawing_1">
  <path fill="rgb(255,0,0)" stroke="none" d="M 761,86 L 108,738 51,680 703,28 761,86 Z"/>
  <path stroke-width="1" fill="none" stroke="rgb(255,0,0)" d="M 761,86 L 108,738 51,680 703,28 761,86 Z"/>
  <path fill="rgb(255,0,0)" stroke="none" d="M 929,254 L 276,907 219,849 871,197 929,254 Z"/>
  <path stroke-width="1" fill="none" stroke="rgb(255,0,0)" d="M 929,254 L 276,907 219,849 871,197 929,254 Z"/>
  <path fill="rgb(255,0,0)" stroke="none" d="M 1102,427 L 449,1079 391,1022 1045,369 1102,427 Z"/>
  <path stroke-width="1" fill="none" stroke="rgb(255,0,0)" d="M 1102,427 L 449,1079 391,1022 1045,369 1102,427 Z"/>
  <path fill="rgb(255,0,0)" stroke="none" d="M 1042,732 L 388,79 446,21 1100,674 1042,732 Z"/>
  <path stroke-width="1" fill="none" stroke="rgb(255,0,0)" d="M 1042,732 L 388,79 446,21 1100,674 1042,732 Z"/>
  <path fill="rgb(255,0,0)" stroke="none" d="M 873,901 L 220,247 278,190 931,842 873,901 Z"/>
  <path stroke-width="1" fill="none" stroke="rgb(255,0,0)" d="M 873,901 L 220,247 278,190 931,842 873,901 Z"/>
  <path fill="rgb(255,0,0)" stroke="none" d="M 701,1072 L 48,419 105,362 758,1015 701,1072 Z"/>
  <path stroke-width="1" fill="none" stroke="rgb(255,0,0)" d="M 701,1072 L 48,419 105,362 758,1015 701,1072 Z"/>
  </g>
 </g>
</svg>