<?xml version="1.0" encoding="UTF-8"?>

<svg version="1.2" width="150px" height="150px" viewBox="0 0 1160 1160" xmlns="http://www.w3.org/2000/svg" xmlns:xlink="http://www.w3.org/1999/xlink">
 <g visibility="visible" id="MasterSlide_1_Standard">
  <g id="Drawing_1">
  <path fill="rgb(0,0,255)" stroke="rgb(0,0,255)" d="M 204,20 L 909,20 909,1086 204,1086 204,20 Z M 288,1045 L 246,1003 868,1003 826,1045 826,62 868,103 246,103 288,62 288,1045 Z"/>
  <path fill="rgb(0,0,255)" stroke="rgb(0,0,255)" d="M 495,419 L 610,419 610,419 C 625,419 637,431 637,446 637,462 625,473 610,473 L 495,473 495,473 C 480,473 468,462 468,446 468,431 480,419 495,419 Z"/>
  <path fill="rgb(0,0,255)" stroke="rgb(0,0,255)" d="M 580,446 L 580,562 580,562 C 580,576 569,589 553,589 538,589 526,576 526,562 L 526,446 526,446 C 526,431 538,419 553,419 569,419 580,431 580,446 Z"/>
  <path fill="rgb(0,0,255)" stroke="rgb(0,0,255)" d="M 343,539 L 625,539 625,539 C 640,539 652,551 652,566 652,581 640,593 625,593 L 343,593 343,593 C 329,593 316,581 316,566 316,551 329,539 343,539 Z"/>
  <path fill="rgb(0,0,255)" stroke="rgb(0,0,255)" d="M 628,539 L 655,541 655,541 C 656,541 658,542 660,542 L 684,549 684,549 C 686,549 687,550 688,550 L 712,561 712,561 C 713,562 714,563 716,563 L 736,577 736,577 C 737,579 738,580 740,581 L 756,598 756,598 C 757,599 759,600 759,602 L 772,622 772,622 C 773,623 773,625 774,626 L 782,648 782,648 C 782,649 783,651 783,653 L 783,653 785,663 786,679 786,679 C 787,694 776,706 761,708 746,708 733,697 732,682 L 732,682 732,674 730,663 731,667 723,645 726,650 714,631 717,636 700,618 705,622 684,608 689,610 666,600 670,601 645,595 651,595 623,593 623,593 C 608,592 597,579 599,563 600,549 613,538 628,539 Z"/>
  </g>
 </g>
</svg>