<?xml version="1.0" encoding="UTF-8"?>

<svg version="1.2" width="150px" height="150px" viewBox="0 0 1160 1160" xmlns="http://www.w3.org/2000/svg" xmlns:xlink="http://www.w3.org/1999/xlink">
 <g visibility="visible" id="MasterSlide_1_Standard">
  <g id="DrawingGroup_1">
   <g>
   <path fill="rgb(255,0,0)" stroke="none" d="M 317,347 C 322,343 327,339 333,335 339,331 345,327 351,323 356,320 362,316 368,313 374,310 380,306 387,303 393,300 399,297 405,294 411,291 418,288 425,285 431,283 438,280 445,278 451,276 458,273 465,271 471,269 478,267 485,265 492,263 499,262 506,260 513,258 520,257 527,255 534,254 541,252 547,251 555,250 562,249 569,248 576,247 583,247 590,246 598,245 605,245 612,244 620,244 627,243 634,243 641,243 648,243 655,243 663,243 670,244 677,244 685,245 692,245 699,246 706,247 713,247 720,248 728,249 735,250 742,251 749,252 756,254 763,255 770,256 777,258 784,259 791,261 798,262 805,264 812,266 819,269 826,271 833,273 840,275 846,277 853,280 860,282 866,285 873,288 879,290 885,293 892,296 899,299 905,302 911,305 917,309 923,312 929,316 935,319 941,323 947,327 952,331 958,335 964,339 969,343 975,347 980,351 986,355 991,360 996,364 1000,368 1005,373 1010,377 1014,381 1019,386 1023,390 1028,395 1032,400 1036,404 1039,409 1043,414 1047,419 1050,424 1054,429 1057,434 1061,439 1064,444 1067,449 1069,454 1072,459 1075,464 1077,469 1080,475 1082,480 1084,485 1086,491 1088,496 1089,501 1091,507 1093,512 1094,517 1096,523 1097,528 1098,533 1099,539 1100,544 1100,550 1101,556 1101,561 1102,566 1102,572 1102,577 1102,583 1102,588 1102,594 1102,599 1102,604 1101,610 1101,615 1100,620 1099,626 1097,632 1096,637 1095,643 1093,648 1092,653 1090,659 1089,664 1087,669 1085,675 1082,680 1080,685 1078,690 1075,695 1073,700 1070,706 1067,711 1064,716 1061,721 1058,726 1055,731 1051,736 1048,741 1044,746 1040,751 1036,756 1032,760 1028,765 1024,770 1020,774 1015,779 1011,784 1006,788 1001,793 996,797 991,801 986,806 981,810 976,814 970,818 964,822 958,826 952,830 947,834 941,838 935,841 929,845 923,848 917,851 911,855 905,858 899,861 893,865 886,868 880,871 874,873 867,876 861,878 854,881 847,883 841,885 834,888 827,890 821,892 814,894 807,896 800,898 793,900 786,902 779,903 772,905 765,906 758,907 751,909 743,910 736,911 729,912 722,913 715,914 708,915 701,916 694,916 687,917 679,917 672,917 665,918 657,918 650,918 643,918 635,918 628,918 621,917 614,917 607,917 600,916 592,916 585,915 578,914 570,913 563,912 556,911 549,910 542,909 535,908 528,907 521,905 514,904 508,902 501,900 494,899 487,897 480,895 473,893 466,891 459,889 452,886 446,884 439,881 432,879 426,876 419,873 412,871 406,868 399,865 393,862 387,859 381,856 375,852 369,849 363,845 357,842 351,838 345,834 339,830 333,826 327,822 321,818 316,814 322,806 328,798 334,789 339,793 344,797 350,801 355,805 360,809 366,812 371,816 377,819 383,822 389,825 395,829 401,832 406,835 412,837 418,840 424,843 430,845 437,848 443,850 449,853 455,855 461,857 468,860 475,862 481,864 487,866 494,868 500,869 507,871 514,872 520,874 527,875 534,877 540,878 547,879 553,880 560,881 567,882 573,883 580,884 587,884 594,885 601,886 608,886 615,887 622,887 629,887 635,887 642,887 649,887 656,887 663,887 670,887 677,887 684,886 691,886 697,885 704,884 711,884 718,883 725,882 732,881 738,880 745,879 752,878 758,877 765,875 772,874 778,872 785,870 792,869 798,867 805,865 811,863 817,861 824,859 830,857 836,855 843,853 849,850 855,848 861,845 867,843 873,840 879,837 885,835 891,832 897,829 903,826 908,823 914,820 919,816 924,812 930,809 935,806 941,802 946,798 951,794 956,790 961,787 966,783 971,779 975,775 980,771 984,766 988,762 993,758 997,754 1001,750 1005,746 1009,741 1012,737 1016,733 1019,728 1022,724 1026,720 1029,715 1032,711 1035,706 1038,701 1040,697 1043,692 1045,687 1047,683 1050,679 1052,674 1054,670 1056,665 1058,660 1060,655 1061,650 1063,645 1064,641 1066,636 1067,631 1068,626 1068,621 1069,616 1070,612 1070,607 1071,602 1071,598 1072,593 1072,588 1072,584 1073,579 1073,574 1072,569 1072,564 1071,559 1070,554 1070,549 1069,545 1068,540 1068,535 1067,531 1066,526 1064,521 1063,516 1061,511 1060,506 1058,502 1056,497 1054,492 1052,488 1050,483 1048,478 1046,474 1043,469 1041,464 1038,460 1035,455 1032,451 1029,447 1026,442 1023,437 1020,433 1016,428 1013,424 1009,420 1005,416 1002,412 998,408 994,403 989,399 985,395 981,391 976,387 972,383 967,379 962,375 957,371 952,367 947,363 942,360 936,356 931,352 925,349 920,346 915,342 909,339 903,336 897,333 891,330 885,327 879,324 873,321 867,318 861,316 855,313 849,311 843,308 836,306 830,304 824,301 817,299 811,297 805,295 798,293 792,292 785,290 778,289 772,288 765,286 758,285 752,284 745,282 738,281 731,280 724,279 717,278 711,277 704,277 697,276 690,275 683,275 676,274 669,274 662,274 655,274 649,274 642,274 635,274 628,274 621,274 614,274 607,275 600,275 593,276 587,277 580,277 573,278 567,279 560,280 553,281 547,282 540,284 534,285 527,286 520,288 513,289 506,291 500,292 494,294 487,296 481,298 475,300 468,302 461,304 455,306 449,308 443,311 437,313 431,316 425,318 419,321 413,324 407,326 401,329 395,332 389,336 384,339 378,342 372,346 367,349 361,352 356,355 351,359 345,363 340,367 335,371 329,363 323,355 317,347 Z"/>
   <path fill="none" stroke="rgb(255,0,0)" id="Drawing_1_0" d="M 317,347 C 322,343 327,339 333,335 339,331 345,327 351,323 356,320 362,316 368,313 374,310 380,306 387,303 393,300 399,297 405,294 411,291 418,288 425,285 431,283 438,280 445,278 451,276 458,273 465,271 471,269 478,267 485,265 492,263 499,262 506,260 513,258 520,257 527,255 534,254 541,252 547,251 555,250 562,249 569,248 576,247 583,247 590,246 598,245 605,245 612,244 620,244 627,243 634,243 641,243 648,243 655,243 663,243 670,244 677,244 685,245 692,245 699,246 706,247 713,247 720,248 728,249 735,250 742,251 749,252 756,254 763,255 770,256 777,258 784,259 791,261 798,262 805,264 812,266 819,269 826,271 833,273 840,275 846,277 853,280 860,282 866,285 873,288 879,290 885,293 892,296 899,299 905,302 911,305 917,309 923,312 929,316 935,319 941,323 947,327 952,331 958,335 964,339 969,343 975,347 980,351 986,355 991,360 996,364 1000,368 1005,373 1010,377 1014,381 1019,386 1023,390 1028,395 1032,400 1036,404 1039,409 1043,414 1047,419 1050,424 1054,429 1057,434 1061,439 1064,444 1067,449 1069,454 1072,459 1075,464 1077,469 1080,475 1082,480 1084,485 1086,491 1088,496 1089,501 1091,507 1093,512 1094,517 1096,523 1097,528 1098,533 1099,539 1100,544 1100,550 1101,556 1101,561 1102,566 1102,572 1102,577 1102,583 1102,588 1102,594 1102,599 1102,604 1101,610 1101,615 1100,620 1099,626 1097,632 1096,637 1095,643 1093,648 1092,653 1090,659 1089,664 1087,669 1085,675 1082,680 1080,685 1078,690 1075,695 1073,700 1070,706 1067,711 1064,716 1061,721 1058,726 1055,731 1051,736 1048,741 1044,746 1040,751 1036,756 1032,760 1028,765 1024,770 1020,774 1015,779 1011,784 1006,788 1001,793 996,797 991,801 986,806 981,810 976,814 970,818 964,822 958,826 952,830 947,834 941,838 935,841 929,845 923,848 917,851 911,855 905,858 899,861 893,865 886,868 880,871 874,873 867,876 861,878 854,881 847,883 841,885 834,888 827,890 821,892 814,894 807,896 800,898 793,900 786,902 779,903 772,905 765,906 758,907 751,909 743,910 736,911 729,912 722,913 715,914 708,915 701,916 694,916 687,917 679,917 672,917 665,918 657,918 650,918 643,918 635,918 628,918 621,917 614,917 607,917 600,916 592,916 585,915 578,914 570,913 563,912 556,911 549,910 542,909 535,908 528,907 521,905 514,904 508,902 501,900 494,899 487,897 480,895 473,893 466,891 459,889 452,886 446,884 439,881 432,879 426,876 419,873 412,871 406,868 399,865 393,862 387,859 381,856 375,852 369,849 363,845 357,842 351,838 345,834 339,830 333,826 327,822 321,818 316,814 322,806 328,798 334,789 339,793 344,797 350,801 355,805 360,809 366,812 371,816 377,819 383,822 389,825 395,829 401,832 406,835 412,837 418,840 424,843 430,845 437,848 443,850 449,853 455,855 461,857 468,860 475,862 481,864 487,866 494,868 500,869 507,871 514,872 520,874 527,875 534,877 540,878 547,879 553,880 560,881 567,882 573,883 580,884 587,884 594,885 601,886 608,886 615,887 622,887 629,887 635,887 642,887 649,887 656,887 663,887 670,887 677,887 684,886 691,886 697,885 704,884 711,884 718,883 725,882 732,881 738,880 745,879 752,878 758,877 765,875 772,874 778,872 785,870 792,869 798,867 805,865 811,863 817,861 824,859 830,857 836,855 843,853 849,850 855,848 861,845 867,843 873,840 879,837 885,835 891,832 897,829 903,826 908,823 914,820 919,816 924,812 930,809 935,806 941,802 946,798 951,794 956,790 961,787 966,783 971,779 975,775 980,771 984,766 988,762 993,758 997,754 1001,750 1005,746 1009,741 1012,737 1016,733 1019,728 1022,724 1026,720 1029,715 1032,711 1035,706 1038,701 1040,697 1043,692 1045,687 1047,683 1050,679 1052,674 1054,670 1056,665 1058,660 1060,655 1061,650 1063,645 1064,641 1066,636 1067,631 1068,626 1068,621 1069,616 1070,612 1070,607 1071,602 1071,598 1072,593 1072,588 1072,584 1073,579 1073,574 1072,569 1072,564 1071,559 1070,554 1070,549 1069,545 1068,540 1068,535 1067,531 1066,526 1064,521 1063,516 1061,511 1060,506 1058,502 1056,497 1054,492 1052,488 1050,483 1048,478 1046,474 1043,469 1041,464 1038,460 1035,455 1032,451 1029,447 1026,442 1023,437 1020,433 1016,428 1013,424 1009,420 1005,416 1002,412 998,408 994,403 989,399 985,395 981,391 976,387 972,383 967,379 962,375 957,371 952,367 947,363 942,360 936,356 931,352 925,349 920,346 915,342 909,339 903,336 897,333 891,330 885,327 879,324 873,321 867,318 861,316 855,313 849,311 843,308 836,306 830,304 824,301 817,299 811,297 805,295 798,293 792,292 785,290 778,289 772,288 765,286 758,285 752,284 745,282 738,281 731,280 724,279 717,278 711,277 704,277 697,276 690,275 683,275 676,274 669,274 662,274 655,274 649,274 642,274 635,274 628,274 621,274 614,274 607,275 600,275 593,276 587,277 580,277 573,278 567,279 560,280 553,281 547,282 540,284 534,285 527,286 520,288 513,289 506,291 500,292 494,294 487,296 481,298 475,300 468,302 461,304 455,306 449,308 443,311 437,313 431,316 425,318 419,321 413,324 407,326 401,329 395,332 389,336 384,339 378,342 372,346 367,349 361,352 356,355 351,359 345,363 340,367 335,371 329,363 323,355 317,347 Z"/>
   </g>
   <g>
   <path fill="rgb(0,0,0)" stroke="none" d="M 58,350 C 280,350 502,350 724,350 724,504 724,657 724,811 502,811 280,811 58,811 58,657 58,504 58,350 Z M 79,801 C 75,798 72,794 68,790 283,790 498,790 713,790 710,794 707,798 703,801 703,654 703,508 703,361 707,364 710,367 713,371 498,371 283,371 68,371 72,367 75,364 79,361 79,508 79,654 79,801 Z"/>
   <path fill="none" stroke="rgb(0,0,0)" id="Drawing_2_0" d="M 58,350 C 280,350 502,350 724,350 724,504 724,657 724,811 502,811 280,811 58,811 58,657 58,504 58,350 Z"/>
   <path fill="none" stroke="rgb(0,0,0)" id="Drawing_2_1" d="M 79,801 C 75,798 72,794 68,790 283,790 498,790 713,790 710,794 707,798 703,801 703,654 703,508 703,361 707,364 710,367 713,371 498,371 283,371 68,371 72,367 75,364 79,361 79,508 79,654 79,801 Z"/>
   </g>
   <g>
   <path fill="rgb(0,0,0)" stroke="none" d="M 164,768 L 147,768 147,662 C 143,665 137,669 131,673 124,677 118,680 113,682 L 113,666 C 122,661 131,656 138,650 145,643 150,637 153,631 L 164,631 164,768 Z"/>
    <rect fill="none" stroke="none" x="112" y="631" width="53" height="139"/>
   </g>
   <g>
   <path fill="rgb(0,0,0)" stroke="none" d="M 206,732 L 223,730 C 225,739 228,746 233,750 238,755 243,757 250,757 258,757 265,754 270,748 276,743 278,736 278,728 278,721 276,714 271,709 266,704 259,702 251,702 248,702 244,702 239,704 L 241,689 C 242,689 243,689 244,689 251,689 258,687 263,684 269,680 272,674 272,666 272,660 270,655 266,651 262,647 256,645 250,645 243,645 238,647 233,651 229,655 226,661 225,670 L 208,667 C 210,655 215,647 222,641 229,635 238,631 249,631 257,631 264,633 270,636 276,639 281,644 284,649 288,655 289,661 289,667 289,673 288,678 285,683 281,688 277,691 270,694 279,696 285,700 289,706 294,712 296,719 296,728 296,740 292,750 283,758 274,766 263,770 250,770 238,770 228,767 220,760 212,753 207,743 206,732 Z"/>
    <rect fill="none" stroke="none" x="206" y="631" width="92" height="141"/>
   </g>
  </g>
 </g>
</svg>