<?xml version="1.0" encoding="UTF-8"?>

<svg version="1.2" width="150px" height="150px" viewBox="0 0 1160 1160" xmlns="http://www.w3.org/2000/svg" xmlns:xlink="http://www.w3.org/1999/xlink">
 <g visibility="visible" id="MasterSlide_1_Standard">
  <g id="Drawing_1">
  <path fill="rgb(255,0,0)" stroke="rgb(255,0,0)" d="M 208,643 L 191,626 176,609 161,592 147,574 134,556 121,538 109,520 98,502 88,483 78,465 69,446 62,428 54,410 48,391 42,374 38,356 34,338 31,320 29,302 27,285 27,269 27,252 29,236 32,220 35,205 40,190 44,175 51,161 58,148 67,135 76,123 87,111 98,101 110,92 122,84 136,76 150,70 164,64 180,60 195,57 211,54 228,53 244,53 261,53 278,54 295,57 313,60 331,64 349,69 367,74 385,81 404,88 422,96 440,105 459,115 477,125 495,136 514,148 531,161 549,175 567,189 584,204 601,220 618,236 634,252 650,270 665,287 679,305 693,323 705,341 717,359 728,377 738,396 747,414 757,433 765,450 772,469 778,488 784,505 788,523 792,541 795,559 797,577 798,593 799,610 798,626 797,643 795,659 791,674 787,689 782,703 775,718 768,731 760,744 750,756 740,767 728,777 716,787 703,795 690,802 676,809 661,815 646,819 631,822 615,825 598,826 582,826 565,826 548,825 531,822 513,819 495,815 477,810 459,805 440,798 422,791 404,782 385,774 367,764 349,754 330,743 313,730 295,718 277,704 259,690 242,675 225,659 208,643 Z M 248,635 L 263,650 280,664 297,678 314,691 331,703 348,714 365,725 383,735 400,744 417,752 434,760 452,767 469,773 486,777 502,782 519,786 535,789 551,791 566,792 581,792 596,792 610,791 624,789 637,786 650,783 663,778 674,773 685,768 695,760 705,753 715,745 724,735 732,725 739,715 745,704 750,692 755,680 758,667 762,654 764,640 765,626 765,611 765,596 764,580 762,564 760,548 756,532 752,515 746,498 740,481 734,464 726,447 718,429 709,412 699,395 689,377 678,360 665,343 653,326 639,309 625,292 611,276 595,260 579,244 562,229 546,215 529,201 512,188 495,176 478,165 460,154 443,144 426,135 409,127 391,119 374,112 357,106 340,101 324,96 308,93 291,90 275,88 260,86 245,86 230,86 216,88 202,90 189,92 176,96 164,101 152,106 141,111 130,118 120,126 111,134 102,143 94,153 87,164 82,175 76,187 72,199 67,212 64,225 62,239 61,253 61,268 61,283 62,299 64,314 67,331 70,347 74,364 79,381 86,398 92,415 99,432 108,450 117,467 126,484 137,502 149,519 161,536 174,553 186,570 201,587 216,603 231,619 248,635 Z"/>
  <path fill="rgb(255,0,0)" stroke="rgb(255,0,0)" d="M 757,730 L 939,884 909,918 728,763 757,730 Z M 951,835 L 1009,973 864,938 951,835 Z"/>
  <path fill="rgb(255,0,0)" stroke="rgb(255,0,0)" d="M 798,468 L 802,477 806,485 810,494 813,503 815,512 818,522 820,531 822,540 824,550 824,559 825,568 826,577 827,587 827,596 827,605 826,615 824,633 822,651 818,668 813,685 808,701 802,717 799,725 795,732 792,739 788,745 781,755 775,762 768,770 761,777 754,783 747,790 739,796 731,802 723,807 715,813 706,818 698,822 689,827 680,831 671,834 662,838 653,841 643,844 633,846 624,848 614,849 605,851 595,852 585,852 576,852 566,852 556,852 546,851 536,849 526,848 517,846 508,844 515,814 524,816 532,818 541,820 549,820 558,821 566,822 575,822 583,822 592,821 601,820 609,820 618,818 626,816 635,814 643,812 651,809 659,806 668,802 675,799 683,795 691,791 698,787 705,782 713,777 720,773 727,767 733,761 739,755 745,749 751,743 757,736 761,730 765,724 767,718 771,712 774,706 779,692 784,678 788,662 791,646 794,630 795,613 796,605 796,597 796,588 796,579 795,571 795,562 793,554 792,546 790,537 788,530 786,521 784,513 781,505 778,498 775,490 771,482 Z"/>
  </g>
 </g>
</svg>