<?xml version="1.0" encoding="UTF-8"?>

<svg version="1.2" width="150px" height="150px" viewBox="0 0 1160 1160" xmlns="http://www.w3.org/2000/svg" xmlns:xlink="http://www.w3.org/1999/xlink">
 <g visibility="visible" id="MasterSlide_1_Standard">
  <g id="DrawingGroup_1">
   <g>
   <path fill="rgb(255,153,0)" stroke="none" d="M 1132,1051 C 764,1051 397,1051 29,1051 213,737 397,424 582,110 765,424 949,737 1132,1051 Z M 994,983 C 857,745 719,508 582,270 444,508 306,745 168,983 443,983 719,983 994,983 Z"/>
    <rect fill="none" stroke="none" x="28" y="109" width="1106" height="944"/>
   </g>
   <g>
   <path fill="rgb(255,153,0)" stroke="none" d="M 499,674 L 540,674 540,783 C 540,801 541,812 542,817 543,825 547,832 554,837 561,842 570,845 581,845 592,845 601,842 607,838 613,833 616,827 618,820 619,813 619,802 619,786 L 619,674 660,674 660,780 C 660,804 659,822 657,832 655,842 651,850 645,857 639,864 631,869 621,873 611,877 598,879 582,879 563,879 548,877 538,873 528,868 520,863 515,855 509,848 505,841 503,833 501,821 499,804 499,782 L 499,674 Z"/>
    <rect fill="none" stroke="none" x="499" y="674" width="163" height="207"/>
   </g>
  </g>
 </g>
</svg>