<?xml version="1.0" encoding="UTF-8"?>

<svg version="1.2" width="150px" height="150px" viewBox="0 0 1160 1160" xmlns="http://www.w3.org/2000/svg" xmlns:xlink="http://www.w3.org/1999/xlink">
 <g visibility="visible" id="MasterSlide_1_Standard">
  <g id="Drawing_1">
  <path fill="rgb(0,0,255)" stroke="rgb(0,0,255)" d="M 288,254 L 836,254 836,1065 288,1065 288,254 Z M 353,1033 L 320,1000 803,1000 771,1033 771,287 803,319 320,319 353,287 353,1033 Z"/>
  <path fill="rgb(0,0,255)" stroke="none" d="M 468,143 L 468,143 C 468,93 510,53 559,53 559,53 559,53 559,53 L 559,53 559,53 C 609,53 649,93 649,143 649,143 649,143 649,143 L 649,143 649,143 C 649,194 609,234 559,234 559,234 559,234 559,234 L 559,234 559,234 C 510,234 468,194 468,143 468,143 468,143 468,143 Z"/>
  <path fill="rgb(0,0,255)" stroke="none" d="M 468,498 L 468,498 C 468,448 510,407 559,407 559,407 559,407 559,407 L 559,407 559,407 C 609,407 649,448 649,498 649,498 649,498 649,498 L 649,498 649,498 C 649,548 609,588 559,588 559,588 559,588 559,588 L 559,588 559,588 C 510,588 468,548 468,498 468,498 468,498 468,498 Z"/>
  <path fill="rgb(0,0,255)" stroke="none" d="M 468,821 L 468,821 C 468,772 510,731 559,731 559,731 559,731 559,731 L 559,731 559,731 C 609,731 649,772 649,821 649,821 649,821 649,821 L 649,821 649,821 C 649,872 609,912 559,912 559,912 559,912 559,912 L 559,912 559,912 C 510,912 468,872 468,821 468,821 468,821 468,821 Z"/>
  </g>
 </g>
</svg>