<?xml version="1.0" encoding="UTF-8"?>

<svg version="1.2" width="150px" height="150px" viewBox="0 0 1160 1160" xmlns="http://www.w3.org/2000/svg" xmlns:xlink="http://www.w3.org/1999/xlink">
 <g visibility="visible" id="MasterSlide_1_Standard">
  <g id="DrawingGroup_1">
   <g>
   <path fill="rgb(255,0,0)" stroke="none" d="M 49,835 L 49,317 216,317 C 280,317 321,320 341,325 370,333 395,350 415,376 435,402 445,435 445,477 445,508 439,535 428,557 416,578 402,595 384,608 366,620 348,628 330,632 305,637 269,640 221,640 L 153,640 153,835 49,835 Z M 153,405 L 153,552 210,552 C 251,552 279,549 293,544 307,538 318,530 326,518 333,507 337,493 337,478 337,459 332,444 321,431 310,419 296,412 279,409 266,406 241,405 204,405 L 153,405 Z"/>
    <rect fill="none" stroke="none" x="48" y="317" width="399" height="519"/>
   </g>
   <g>
   <path fill="rgb(255,0,0)" stroke="none" d="M 604,574 L 514,558 C 524,522 542,495 566,478 591,460 628,452 676,452 721,452 754,457 775,467 797,478 812,491 821,507 830,523 834,553 834,596 L 833,712 C 833,745 835,769 838,785 841,800 847,817 856,835 L 758,835 C 755,828 752,819 748,806 746,800 745,796 745,794 728,811 709,823 690,831 671,839 650,843 628,843 590,843 559,833 537,812 515,791 504,765 504,733 504,711 509,693 519,676 529,659 543,647 561,638 580,629 606,621 640,615 687,606 719,598 737,590 L 737,580 C 737,561 732,548 723,540 713,532 695,528 669,528 652,528 638,531 628,538 618,545 610,557 604,574 Z M 737,655 C 724,659 704,664 676,670 649,676 631,682 622,687 609,697 603,708 603,722 603,736 608,748 619,758 629,769 642,774 658,774 676,774 693,768 709,756 721,747 729,736 733,723 735,715 737,698 737,675 L 737,655 Z"/>
    <rect fill="none" stroke="none" x="503" y="451" width="354" height="394"/>
   </g>
   <g>
   <path fill="rgb(255,0,0)" stroke="none" d="M 1104,460 L 1104,539 1036,539 1036,690 C 1036,721 1037,739 1038,744 1039,749 1042,753 1047,756 1051,760 1057,761 1064,761 1073,761 1086,758 1103,752 L 1112,829 C 1089,839 1063,843 1034,843 1016,843 1000,840 985,834 971,828 960,821 954,811 947,802 942,789 940,773 938,761 936,738 936,703 L 936,539 891,539 891,460 936,460 936,386 1036,328 1036,460 1104,460 Z"/>
    <rect fill="none" stroke="none" x="890" y="327" width="223" height="518"/>
   </g>
  </g>
 </g>
</svg>