<?xml version="1.0" encoding="UTF-8"?>

<svg version="1.2" width="150px" height="150px" viewBox="0 0 1160 1160" xmlns="http://www.w3.org/2000/svg" xmlns:xlink="http://www.w3.org/1999/xlink">
 <g visibility="visible" id="MasterSlide_1_Standard">
  <g id="DrawingGroup_1">
   <g>
   <path fill="rgb(255,0,0)" stroke="none" d="M 656,812 L 494,812 C 493,788 493,774 493,769 493,716 502,673 519,639 537,605 571,566 624,524 676,481 707,454 718,440 733,419 741,397 741,371 741,337 727,307 699,282 671,257 634,244 587,244 541,244 503,257 472,283 442,309 421,349 409,402 L 245,382 C 249,305 282,241 342,188 402,134 481,108 579,108 682,108 764,135 825,189 886,242 916,305 916,377 916,416 905,454 883,489 860,524 812,572 739,633 701,665 678,690 669,709 660,728 655,762 656,812 Z M 494,1053 L 494,874 673,874 673,1053 494,1053 Z"/>
    <rect fill="none" stroke="none" x="244" y="107" width="674" height="947"/>
   </g>
  </g>
 </g>
</svg>