<?xml version="1.0" encoding="UTF-8"?>

<svg version="1.2" width="150px" height="150px" viewBox="0 0 1160 1160" xmlns="http://www.w3.org/2000/svg" xmlns:xlink="http://www.w3.org/1999/xlink">
 <g visibility="visible" id="MasterSlide_1_Standard">
  <g id="Drawing_1">
  <path fill="rgb(255,0,0)" stroke="rgb(255,0,0)" d="M 127,483 L 376,736 357,754 108,501 Z"/>
  <path fill="rgb(255,0,0)" stroke="rgb(255,0,0)" d="M 19,577 L 374,216 649,483 293,845 19,577 Z M 302,817 L 284,818 621,475 621,493 365,243 384,243 47,586 46,568 302,817 Z"/>
  <path fill="rgb(255,0,0)" stroke="rgb(255,0,0)" d="M 184,579 L 539,217 813,484 458,846 184,579 Z M 466,819 L 449,819 785,475 786,494 530,244 548,244 211,587 211,569 466,819 Z"/>
  <path fill="rgb(255,0,0)" stroke="rgb(255,0,0)" d="M 1039,425 L 626,846 352,579 707,217 725,235 734,244 744,254 755,265 767,277 779,289 792,302 805,315 818,329 832,343 860,371 889,401 917,429 930,443 944,457 956,470 969,483 981,495 992,507 1003,517 1013,527 1022,537 1022,537 1030,545 1036,552 1043,558 1047,563 1047,562 1050,566 1053,569 1063,579 1043,596 1034,586 1034,586 1032,584 1032,584 1029,581 1024,576 1018,570 1011,562 1011,563 1003,555 994,545 984,536 984,536 974,524 963,513 950,501 938,488 925,475 912,461 898,447 870,418 842,389 813,361 800,347 786,333 773,320 760,307 748,295 737,283 726,272 716,262 716,262 706,253 698,245 716,245 379,588 379,570 635,819 617,819 1020,407 Z"/>
  <path fill="rgb(255,0,0)" stroke="rgb(255,0,0)" d="M 437,670 L 792,307 1067,575 711,937 437,670 Z M 720,909 L 702,909 1039,566 1039,585 783,335 801,335 465,678 464,660 720,909 Z"/>
  <path fill="rgb(255,0,0)" stroke="rgb(255,0,0)" d="M 266,659 L 621,297 896,565 541,927 266,659 Z M 550,899 L 531,899 868,556 868,575 612,325 631,325 294,668 294,650 550,899 Z"/>
  <path fill="rgb(255,0,0)" stroke="rgb(255,0,0)" d="M 218,404 L 468,658 449,676 200,422 Z"/>
  <path fill="rgb(255,0,0)" stroke="rgb(255,0,0)" d="M 293,314 L 801,826 783,844 275,332 Z"/>
  <path fill="rgb(255,0,0)" stroke="rgb(255,0,0)" d="M 620,457 L 893,733 874,752 602,475 Z"/>
  <path fill="rgb(255,0,0)" stroke="rgb(255,0,0)" d="M 725,398 L 974,652 956,670 707,416 Z"/>
  <path fill="rgb(255,0,0)" stroke="rgb(255,0,0)" d="M 265,534 L 126,675 107,656 246,516 Z"/>
  <path fill="rgb(255,0,0)" stroke="rgb(255,0,0)" d="M 1126,518 L 987,658 968,639 1107,499 Z"/>
  <path fill="rgb(255,0,0)" stroke="rgb(255,0,0)" d="M 956,345 L 810,491 792,473 937,326 Z"/>
  <path fill="rgb(255,0,0)" stroke="rgb(255,0,0)" d="M 875,262 L 737,402 718,384 857,244 Z"/>
  <path fill="rgb(255,0,0)" stroke="rgb(255,0,0)" d="M 347,614 L 209,754 190,736 329,596 Z"/>
  </g>
 </g>
</svg>