<?xml version="1.0" encoding="UTF-8"?>

<svg version="1.2" width="150px" height="150px" viewBox="0 0 1160 1160" xmlns="http://www.w3.org/2000/svg" xmlns:xlink="http://www.w3.org/1999/xlink">
 <g visibility="visible" id="MasterSlide_1_Standard">
  <g id="DrawingGroup_1">
   <g>
   <path fill="rgb(0,0,255)" stroke="none" d="M 268,57 C 489,57 710,57 931,57 931,396 931,736 931,1075 710,1075 489,1075 268,1075 268,736 268,396 268,57 Z M 346,1035 C 333,1022 320,1008 307,995 502,995 696,995 891,995 878,1008 864,1022 851,1035 851,722 851,410 851,97 864,110 878,124 891,137 696,137 502,137 307,137 320,124 333,110 346,97 346,410 346,722 346,1035 Z"/>
   <path fill="none" stroke="rgb(0,0,255)" id="Drawing_1_0" d="M 268,57 C 489,57 710,57 931,57 931,396 931,736 931,1075 710,1075 489,1075 268,1075 268,736 268,396 268,57 Z"/>
   <path fill="none" stroke="rgb(0,0,255)" id="Drawing_1_1" d="M 346,1035 C 333,1022 320,1008 307,995 502,995 696,995 891,995 878,1008 864,1022 851,1035 851,722 851,410 851,97 864,110 878,124 891,137 696,137 502,137 307,137 320,124 333,110 346,97 346,410 346,722 346,1035 Z"/>
   </g>
   <g>
   <path fill="rgb(0,0,255)" stroke="none" d="M 324,577 C 507,577 691,577 874,577 874,594 874,611 874,628 691,628 507,628 324,628 324,611 324,594 324,577 Z"/>
   <path fill="none" stroke="rgb(0,0,255)" id="Drawing_2_0" d="M 324,577 C 507,577 691,577 874,577 874,594 874,611 874,628 691,628 507,628 324,628 324,611 324,594 324,577 Z"/>
   </g>
   <g>
   <path fill="rgb(0,0,255)" stroke="none" d="M 331,453 C 514,453 698,453 881,453 881,470 881,487 881,504 698,504 514,504 331,504 331,487 331,470 331,453 Z"/>
   <path fill="none" stroke="rgb(0,0,255)" id="Drawing_3_0" d="M 331,453 C 514,453 698,453 881,453 881,470 881,487 881,504 698,504 514,504 331,504 331,487 331,470 331,453 Z"/>
   </g>
   <g>
   <path fill="rgb(0,0,255)" stroke="none" d="M 615,884 L 578,884 578,872 C 578,857 580,844 584,834 588,825 596,814 607,803 620,790 628,781 631,776 633,771 635,765 635,759 635,749 631,740 624,733 618,726 609,723 599,723 577,723 563,738 558,768 L 521,762 C 522,739 529,721 544,706 558,692 576,684 598,684 620,684 638,692 653,706 667,721 675,739 675,761 675,772 672,782 667,792 662,802 651,816 634,833 625,842 620,849 618,855 616,860 615,870 615,884 Z M 578,952 L 578,901 619,901 619,952 578,952 Z"/>
    <rect fill="none" stroke="none" x="520" y="684" width="156" height="269"/>
   </g>
   <g>
   <path fill="rgb(0,0,255)" stroke="none" d="M 596,437 C 557,437 524,423 497,395 469,368 456,334 456,295 456,256 469,222 497,195 524,167 557,153 596,153 635,153 668,167 695,195 723,222 736,256 736,295 736,334 723,368 695,395 668,423 635,437 596,437 Z M 596,419 C 630,419 659,407 683,382 706,358 718,329 718,295 718,261 706,231 683,207 659,183 630,171 596,171 562,171 533,183 509,207 485,231 473,261 473,295 473,329 485,358 509,382 533,407 562,419 596,419 Z M 525,368 L 514,368 C 516,343 525,323 539,309 554,294 573,287 596,287 619,287 638,294 652,309 667,323 676,343 678,368 L 667,368 C 659,329 635,309 596,309 557,309 533,329 525,368 Z M 551,272 C 545,272 540,270 536,266 531,261 529,256 529,250 529,244 531,238 536,234 540,229 545,227 551,227 558,227 563,229 567,234 572,238 574,244 574,250 574,256 571,261 567,266 563,270 557,272 551,272 Z M 641,272 C 634,272 629,270 625,266 620,261 618,256 618,250 618,244 620,238 625,234 629,229 634,227 641,227 647,227 652,229 656,234 661,238 663,244 663,250 663,256 661,261 656,266 652,270 647,272 641,272 Z"/>
    <rect fill="none" stroke="none" x="455" y="152" width="283" height="286"/>
   </g>
  </g>
 </g>
</svg>