<?xml version="1.0" encoding="UTF-8"?>

<svg version="1.2" width="150px" height="150px" viewBox="0 0 1160 1160" xmlns="http://www.w3.org/2000/svg" xmlns:xlink="http://www.w3.org/1999/xlink">
 <g visibility="visible" id="MasterSlide_1_Standard">
  <g id="Drawing_1">
  <path fill="rgb(18,20,255)" stroke="none" d="M 115,535 L 100,489 102,488 105,487 108,484 111,484 114,483 116,483 120,482 123,481 126,480 128,480 132,480 134,479 137,479 140,479 143,479 146,479 149,479 152,479 155,479 158,480 160,480 164,481 166,482 170,482 173,483 176,484 178,484 181,485 185,487 188,489 191,490 193,491 173,537 172,536 169,536 168,535 166,534 165,534 163,533 160,533 159,531 157,531 156,531 154,531 152,529 150,529 148,529 146,529 145,529 143,529 141,529 140,529 138,529 136,529 134,529 133,529 130,531 128,531 127,531 125,531 123,533 121,533 120,534 118,535 115,535 Z M 251,684 L 281,642 281,645 284,646 286,648 288,650 289,651 290,652 292,654 294,655 296,657 298,658 300,659 301,660 303,661 306,662 307,663 309,664 311,664 314,665 315,665 318,666 320,668 322,668 324,668 326,669 329,669 331,669 333,669 335,669 338,669 340,669 343,669 345,668 352,711 345,713 339,713 335,715 333,715 332,715 331,715 331,715 330,715 330,716 330,716 331,716 331,716 331,716 332,716 333,716 333,716 331,716 328,716 324,716 321,715 319,715 315,715 314,715 310,715 307,713 305,713 301,713 299,711 297,710 294,709 291,709 288,708 287,707 284,706 281,705 279,704 276,702 274,701 272,699 268,698 267,696 264,695 262,694 260,692 257,690 256,689 253,686 251,684 Z M 382,650 L 407,693 409,692 410,690 412,689 415,686 417,684 418,683 420,681 421,679 423,677 425,675 426,673 428,671 429,670 430,666 431,664 432,663 434,661 436,658 436,657 437,654 438,652 439,650 440,648 441,645 442,643 442,641 442,638 443,637 444,634 444,631 445,629 445,626 447,620 448,614 449,610 449,604 450,600 451,594 452,590 453,586 454,582 455,579 455,575 455,573 457,570 457,568 459,568 459,566 460,566 460,564 428,529 426,533 423,536 422,539 420,543 418,546 417,549 416,554 414,557 412,561 410,566 409,570 408,574 407,579 406,583 404,587 404,593 403,598 402,603 400,607 399,613 397,616 397,619 396,624 394,627 392,631 391,634 391,638 388,640 386,643 385,645 384,646 384,648 383,649 382,650 Z M 471,491 L 487,537 489,536 492,535 494,534 495,533 498,531 500,531 502,529 505,529 507,529 508,528 510,528 513,528 515,527 517,527 520,527 522,527 524,527 526,528 528,528 530,528 533,529 534,529 537,529 539,531 541,531 544,533 546,534 547,535 550,536 552,536 554,538 557,539 574,491 571,490 568,488 565,487 562,485 558,484 556,483 552,482 549,482 546,481 542,480 539,479 536,479 533,479 530,478 526,478 524,478 520,478 517,478 513,479 510,479 507,479 504,480 500,481 497,482 494,482 491,483 488,484 484,485 481,487 477,488 475,490 471,491 Z M 584,568 L 617,533 621,536 623,538 624,542 626,545 628,548 629,550 631,554 633,555 634,560 635,562 636,566 636,568 637,570 637,573 638,575 638,579 639,587 640,594 640,602 641,607 641,610 641,613 642,615 642,617 642,619 643,619 643,620 643,622 606,650 606,646 605,642 604,638 604,632 603,629 601,624 599,619 599,614 597,608 595,603 594,598 592,592 591,586 587,580 585,574 584,568 Z M 668,657 L 648,701 650,701 653,703 655,704 658,706 661,707 664,708 667,709 669,710 672,711 674,711 678,713 681,713 683,713 687,715 690,715 693,715 696,715 698,715 701,715 705,715 708,715 711,715 714,715 718,715 721,715 724,713 727,713 731,713 734,711 737,711 741,710 745,709 732,665 731,666 728,666 726,668 724,669 721,669 720,669 718,670 714,670 713,670 711,670 709,670 706,670 704,670 702,670 700,670 698,670 696,669 694,669 692,668 690,668 688,666 687,666 684,665 682,664 681,664 679,663 676,662 676,661 674,660 672,659 670,658 668,657 Z M 765,629 L 803,665 806,663 807,659 809,655 810,651 812,648 815,645 816,639 818,636 822,631 824,626 827,622 830,616 836,606 843,594 797,564 797,566 795,566 795,568 793,570 791,573 790,575 789,580 787,583 782,592 778,603 771,615 765,629 Z M 982,516 L 982,447 1127,542 982,636 982,568 970,568 958,568 946,568 935,568 926,568 917,568 908,568 900,569 893,570 887,570 884,571 881,571 878,572 876,572 874,573 872,573 869,574 868,574 867,574 866,574 864,575 863,575 840,529 842,529 845,529 847,528 850,527 853,526 855,525 858,525 861,524 865,523 868,523 872,523 875,522 879,522 884,521 887,521 892,519 901,519 911,519 921,517 932,517 944,516 956,516 969,516 982,516 Z M 200,555 L 236,523 238,524 238,525 240,526 241,528 242,531 243,534 245,538 247,542 249,548 250,552 252,558 255,564 256,571 258,579 260,587 262,594 265,604 267,613 225,642 225,638 224,634 223,630 223,625 221,620 220,615 219,610 217,605 215,600 213,593 211,587 210,581 208,575 205,569 203,562 200,555 Z M 26,596 L 77,596 77,594 77,593 77,592 77,590 77,587 77,586 78,584 78,582 78,581 79,580 79,578 79,575 80,574 80,573 81,571 82,570 82,568 82,566 83,566 83,563 84,562 85,561 87,560 88,558 88,557 89,555 90,554 91,554 92,552 93,550 94,549 94,548 62,512 61,514 58,516 56,519 55,521 53,523 50,525 49,528 47,529 45,533 43,535 43,537 40,540 39,542 37,545 36,548 36,550 35,554 33,555 31,558 31,561 31,563 30,566 29,569 28,573 28,575 27,579 27,581 27,584 26,587 26,591 26,593 26,596 Z"/>
  </g>
 </g>
</svg>