<?xml version="1.0" encoding="UTF-8"?>

<svg version="1.2" width="150px" height="150px" viewBox="0 0 1160 1160" xmlns="http://www.w3.org/2000/svg" xmlns:xlink="http://www.w3.org/1999/xlink">
 <g visibility="visible" id="MasterSlide_1_Standard">
  <g id="DrawingGroup_1">
   <g>
   <path fill="rgb(0,0,255)" stroke="none" d="M 93,320 C 107,306 120,293 134,279 134,480 134,680 134,881 120,868 107,854 93,840 418,840 742,840 1067,840 1053,854 1039,868 1025,881 1025,680 1025,480 1025,279 1039,293 1053,306 1067,320 742,320 418,320 93,320 Z M 1109,238 C 1109,466 1109,694 1109,922 756,922 404,922 51,922 51,694 51,466 51,238 404,238 756,238 1109,238 Z"/>
   <path fill="none" stroke="rgb(0,0,255)" id="Drawing_1_0" d="M 93,320 C 107,306 120,293 134,279 134,480 134,680 134,881 120,868 107,854 93,840 418,840 742,840 1067,840 1053,854 1039,868 1025,881 1025,680 1025,480 1025,279 1039,293 1053,306 1067,320 742,320 418,320 93,320 Z"/>
   <path fill="none" stroke="rgb(0,0,255)" id="Drawing_1_1" d="M 1109,238 C 1109,466 1109,694 1109,922 756,922 404,922 51,922 51,694 51,466 51,238 404,238 756,238 1109,238 Z"/>
   </g>
   <g>
   <path fill="rgb(0,0,255)" stroke="none" d="M 1069,600 C 744,602 418,604 93,606 93,591 93,575 93,560 418,558 744,556 1069,554 1069,569 1069,584 1069,600 Z"/>
    <rect fill="none" stroke="none" x="92" y="553" width="979" height="55"/>
   </g>
   <g>
   <path fill="rgb(0,0,255)" stroke="none" d="M 1069,600 C 744,602 418,604 93,606 93,591 93,575 93,560 418,558 744,556 1069,554 1069,569 1069,584 1069,600 Z"/>
   <path fill="none" stroke="rgb(0,0,255)" id="Drawing_3_0" stroke-width="1" stroke-linejoin="round" d="M 1069,600 C 744,602 418,604 93,606 93,591 93,575 93,560 418,558 744,556 1069,554 1069,569 1069,584 1069,600 Z"/>
   </g>
   <g>
   <path fill="rgb(0,0,255)" stroke="none" d="M 559,873 C 559,673 559,472 559,272 574,272 589,272 604,272 604,472 604,673 604,873 589,873 574,873 559,873 Z"/>
    <rect fill="none" stroke="none" x="558" y="271" width="48" height="604"/>
   </g>
   <g>
   <path fill="rgb(0,0,255)" stroke="none" d="M 559,873 C 559,673 559,472 559,272 574,272 589,272 604,272 604,472 604,673 604,873 589,873 574,873 559,873 Z"/>
   <path fill="none" stroke="rgb(0,0,255)" id="Drawing_5_0" stroke-width="1" stroke-linejoin="round" d="M 559,873 C 559,673 559,472 559,272 574,272 589,272 604,272 604,472 604,673 604,873 589,873 574,873 559,873 Z"/>
   </g>
   <g>
   <path fill="rgb(0,0,255)" stroke="none" d="M 431,795 L 431,367 591,367 C 624,367 650,371 670,380 690,389 705,402 717,420 728,438 733,457 733,476 733,495 728,512 718,528 708,544 693,557 673,567 699,575 719,588 733,606 747,624 754,646 754,671 754,691 750,710 741,727 733,744 722,757 710,767 697,776 682,783 663,788 644,793 621,795 594,795 L 431,795 Z M 487,547 L 580,547 C 605,547 623,545 634,542 648,538 659,530 667,521 674,511 678,498 678,483 678,469 674,456 667,446 660,435 651,427 638,423 625,419 604,417 573,417 L 487,417 487,547 Z M 487,744 L 594,744 C 612,744 625,744 633,742 646,740 657,736 665,731 674,725 681,717 687,707 693,697 695,685 695,671 695,655 691,641 683,629 675,618 664,609 649,604 635,600 614,597 586,597 L 487,597 487,744 Z"/>
    <rect fill="none" stroke="none" x="430" y="366" width="326" height="430"/>
   </g>
  </g>
 </g>
</svg>