<?xml version="1.0" encoding="UTF-8"?>

<svg version="1.2" width="150px" height="150px" viewBox="0 0 1160 1160" xmlns="http://www.w3.org/2000/svg" xmlns:xlink="http://www.w3.org/1999/xlink">
 <g visibility="visible" id="MasterSlide_1_Standard">
  <g id="Drawing_1">
  <path fill="rgb(255,0,0)" stroke="none" d="M 385,877 L 385,877 C 385,788 456,716 545,716 545,716 545,716 545,716 L 545,716 545,716 C 633,716 705,788 705,877 705,877 705,877 705,877 L 705,877 705,877 C 705,965 633,1037 545,1037 545,1037 545,1037 545,1037 L 545,1037 545,1037 C 456,1037 385,965 385,877 385,877 385,877 385,877 Z"/>
  <path fill="rgb(255,0,0)" stroke="rgb(255,0,0)" d="M 382,877 L 382,868 383,860 384,851 385,844 387,836 389,828 392,820 395,813 398,806 401,799 405,792 410,786 414,779 419,773 424,767 430,761 436,756 441,751 447,746 454,742 461,738 467,733 474,730 481,727 489,723 496,721 504,719 512,717 520,716 528,715 537,714 545,714 553,714 562,715 570,716 577,716 586,719 593,721 601,723 608,727 615,730 623,733 629,738 636,742 643,746 648,751 654,756 660,761 665,767 671,773 675,779 680,786 684,792 688,799 692,806 695,813 698,820 700,828 703,835 704,844 706,851 707,860 708,868 708,877 708,885 707,893 706,901 704,909 703,917 700,925 698,932 695,940 692,947 688,954 684,961 680,968 675,973 671,980 665,986 660,991 654,997 648,1002 643,1007 636,1011 629,1016 623,1020 616,1023 608,1027 601,1029 593,1032 586,1034 577,1036 570,1038 562,1038 553,1039 545,1039 537,1039 528,1038 520,1038 512,1036 504,1034 496,1032 489,1029 481,1027 474,1023 467,1020 461,1016 454,1011 447,1007 441,1002 436,997 430,991 424,986 419,980 414,973 410,968 405,961 401,954 398,947 395,940 392,932 389,925 387,917 385,909 384,901 383,893 382,885 382,877 Z M 387,884 L 388,893 389,900 390,908 392,915 395,923 397,930 400,937 403,945 406,952 410,958 414,964 419,970 423,977 428,982 433,988 439,993 445,998 451,1002 456,1007 463,1011 470,1015 476,1018 483,1022 491,1024 498,1027 506,1029 513,1031 521,1032 529,1033 537,1033 545,1033 553,1033 561,1033 569,1032 577,1031 584,1029 592,1027 599,1024 606,1022 613,1018 620,1015 627,1011 633,1007 639,1002 645,998 651,993 656,988 662,982 667,977 671,971 675,964 679,958 683,952 687,945 690,938 693,930 695,923 698,916 699,908 700,900 702,893 702,885 703,877 702,868 702,861 700,852 699,845 698,837 695,829 693,823 690,815 687,808 683,802 679,795 675,788 671,782 667,776 662,770 656,765 651,760 645,755 639,750 633,746 627,742 620,738 613,735 606,732 599,728 592,727 584,724 577,722 569,721 561,720 553,719 545,719 537,719 529,720 521,721 513,722 506,724 498,726 491,728 483,732 476,735 470,738 463,742 456,746 451,750 445,755 439,760 434,765 428,770 423,776 419,782 414,788 411,795 406,802 403,808 400,815 397,823 395,829 392,837 390,845 389,852 388,861 387,868 387,877 387,884 Z"/>
  <path fill="rgb(255,0,0)" stroke="none" d="M 490,682 L 490,682 C 490,671 498,663 508,663 508,663 508,663 508,663 L 508,663 508,663 582,663 582,663 582,663 C 592,663 600,671 600,682 600,682 600,682 600,682 L 600,682 600,682 600,804 600,804 600,804 C 600,815 592,823 582,823 582,823 582,823 582,823 L 582,823 582,823 508,823 508,823 508,823 C 498,823 490,815 490,804 490,804 490,804 490,804 L 490,682 Z"/>
  <path fill="rgb(255,0,0)" stroke="rgb(255,0,0)" d="M 486,682 L 487,679 487,678 488,675 488,673 489,672 491,670 491,668 493,667 495,665 496,664 498,663 500,662 502,661 504,661 506,660 508,660 582,660 583,660 586,661 587,661 590,662 592,663 593,664 595,665 597,667 598,668 599,669 600,671 601,673 602,675 603,677 603,679 603,681 603,804 603,807 603,808 602,811 601,813 600,814 599,816 598,818 597,819 595,821 593,822 592,823 590,824 588,825 586,825 584,826 582,826 508,826 506,826 504,825 502,825 500,824 498,823 496,823 495,821 493,819 491,818 491,817 490,815 489,813 488,811 487,809 487,807 486,805 486,682 Z M 492,804 L 492,806 492,807 493,809 493,811 494,812 495,813 496,814 496,816 498,817 499,818 501,818 502,819 503,819 505,820 507,820 508,820 582,820 583,820 585,820 586,819 587,819 589,818 590,818 592,817 592,816 593,815 595,813 595,813 596,811 597,809 597,807 598,807 598,804 598,682 598,680 597,679 597,677 596,675 596,674 595,673 594,672 592,670 592,669 591,668 589,668 587,667 587,667 585,666 583,666 582,666 508,666 507,666 505,666 503,667 502,667 501,668 499,668 498,669 497,670 496,671 495,673 494,673 494,675 493,677 492,679 492,679 492,682 492,804 Z"/>
  <path fill="rgb(255,0,0)" stroke="none" d="M 522,644 L 522,644 C 522,605 539,570 567,549 600,524 643,524 676,549 705,570 748,614 748,652 L 717,646 717,646 C 717,625 664,604 651,593 633,577 610,577 592,593 579,604 572,624 572,644 L 522,644 Z"/>
  <path fill="rgb(255,0,0)" stroke="none" d="M 687,558 L 782,646 748,683 653,595 Z"/>
  <path fill="rgb(255,0,0)" stroke="none" d="M 862,668 L 862,668 C 863,700 869,685 886,679 879,720 881,704 840,711 805,716 768,703 741,676 L 776,641 776,641 C 790,655 810,663 827,662 850,660 849,703 850,679 851,662 865,682 850,668 L 862,668 Z"/>
  <path fill="rgb(255,0,0)" stroke="none" d="M 818,662 L 818,712 886,712 886,662 818,662 Z"/>
  <path fill="rgb(255,0,0)" stroke="rgb(255,0,0)" d="M 818,670 L 885,670 885,672 818,672 Z"/>
  <path fill="rgb(255,0,0)" stroke="rgb(255,0,0)" d="M 915,676 L 1048,676 1048,688 915,688 Z"/>
  <path fill="rgb(255,0,0)" stroke="rgb(255,0,0)" d="M 918,708 L 1032,777 1027,788 911,718 Z"/>
  <path fill="rgb(255,0,0)" stroke="rgb(255,0,0)" d="M 911,647 L 1025,577 1031,588 916,657 Z"/>
  <path fill="rgb(255,0,0)" stroke="rgb(255,0,0)" d="M 897,731 L 960,850 949,855 886,737 Z"/>
  <path fill="rgb(255,0,0)" stroke="rgb(255,0,0)" d="M 886,632 L 949,513 960,518 897,637 Z"/>
  <path fill="rgb(255,0,0)" stroke="rgb(255,0,0)" d="M 855,641 L 811,514 823,510 866,637 Z"/>
  <path fill="rgb(255,0,0)" stroke="rgb(255,0,0)" d="M 866,732 L 823,859 811,855 855,727 Z"/>
  <path fill="rgb(255,0,0)" stroke="rgb(255,0,0)" d="M 40,21 L 1130,21 1130,1118 40,1118 40,21 Z M 82,1097 L 62,1075 1108,1075 1088,1097 1088,42 1108,64 62,64 82,42 82,1097 Z"/>
  <path fill="rgb(255,0,0)" stroke="none" d="M 561,497 L 561,497 512,367 512,367 512,367 C 613,330 642,254 576,197 509,141 373,125 271,162 169,198 141,274 207,330 256,373 345,394 434,384 L 561,497 Z"/>
  <path fill="rgb(255,0,0)" stroke="rgb(255,0,0)" d="M 562,497 L 562,497 561,497 511,367 511,367 C 511,367 511,367 511,367 512,366 512,366 512,366 L 512,366 521,363 530,359 538,355 546,351 553,347 561,341 567,337 573,332 579,327 584,322 589,317 593,311 598,306 599,304 601,300 603,298 603,295 605,292 606,289 608,286 608,283 609,281 609,277 610,275 610,272 611,269 611,266 611,263 611,260 611,257 610,254 610,251 609,249 608,245 608,243 607,239 605,237 604,234 603,231 601,228 599,225 598,223 596,219 593,217 592,214 589,211 587,208 584,206 581,203 578,200 575,197 569,192 562,187 555,183 547,178 539,174 532,170 522,166 514,163 505,159 496,157 486,154 476,152 466,149 456,148 446,146 436,145 426,143 416,143 405,143 395,142 384,143 373,143 363,143 352,144 341,145 331,147 321,148 310,151 300,153 290,156 280,159 271,162 262,165 253,170 244,174 236,178 229,182 222,186 215,191 208,196 203,201 198,206 193,212 188,217 185,223 183,225 182,228 180,230 178,234 178,236 176,239 175,242 174,245 173,248 173,250 173,254 172,256 172,260 172,262 172,266 172,268 172,271 172,274 173,277 173,280 174,282 175,286 176,288 177,292 178,294 180,298 181,300 183,303 185,306 187,309 188,311 191,314 193,317 196,320 198,323 201,325 204,328 207,330 212,335 217,338 222,341 227,346 233,349 239,352 244,355 251,357 257,361 264,363 270,366 277,368 284,370 291,373 299,374 305,376 313,378 320,379 329,381 336,382 344,384 352,384 360,384 368,385 376,385 384,386 392,386 400,386 409,385 417,385 426,384 434,384 434,384 C 434,384 434,384 434,384 L 562,497 Z M 433,384 L 433,384 434,384 426,385 417,386 409,386 400,387 392,387 384,387 376,386 368,386 360,385 352,384 344,384 336,383 329,382 320,380 313,379 305,377 298,375 291,373 284,371 277,369 270,367 264,364 257,361 250,358 244,356 239,352 233,349 227,346 222,342 216,339 211,335 207,331 203,329 201,325 198,323 195,320 193,318 190,314 188,312 186,309 184,306 183,304 181,300 179,298 178,294 177,292 175,289 174,286 173,283 173,280 172,277 172,274 171,272 171,268 171,265 171,262 171,259 171,256 172,253 173,250 173,247 173,245 174,242 176,239 177,236 178,233 179,230 181,228 183,224 184,222 188,217 193,211 198,206 203,201 208,196 214,191 221,186 229,181 236,177 244,173 253,169 261,165 271,161 280,158 290,155 300,153 310,150 320,148 331,146 341,144 352,143 363,143 373,142 384,142 395,142 405,142 416,143 426,143 436,144 446,145 457,147 467,149 476,151 486,154 496,156 505,159 514,163 523,166 532,170 540,174 547,178 555,182 562,187 569,191 576,197 578,200 582,202 584,205 587,208 589,211 592,213 594,216 596,219 598,222 600,225 602,228 603,230 604,234 606,236 607,239 608,242 609,245 610,248 610,251 611,254 611,257 612,260 612,263 612,266 612,269 611,272 611,275 610,277 609,281 608,283 608,287 607,289 606,293 604,295 603,298 602,301 600,304 598,306 594,312 590,317 585,323 580,328 574,333 567,337 561,342 554,347 547,352 538,356 530,359 521,363 512,367 512,367 562,497 562,497 C 562,497 562,497 562,497 561,497 561,497 561,497 L 433,384 Z"/>
  </g>
 </g>
</svg>