<?xml version="1.0" encoding="UTF-8"?>

<svg version="1.2" width="150px" height="150px" viewBox="0 0 1160 1160" xmlns="http://www.w3.org/2000/svg" xmlns:xlink="http://www.w3.org/1999/xlink">
 <g visibility="visible" id="MasterSlide_1_Standard">
  <g id="Drawing_1">
  <path fill="rgb(255,0,0)" stroke="none" d="M 154,697 L 154,697 C 154,583 248,489 364,489 364,489 364,489 364,489 L 364,489 364,489 C 479,489 573,583 573,697 573,697 573,697 573,697 L 573,697 573,697 C 573,812 479,905 364,905 364,905 364,905 364,905 L 364,905 364,905 C 248,905 154,812 154,697 154,697 154,697 154,697 Z"/>
  <path fill="rgb(255,0,0)" stroke="rgb(255,0,0)" d="M 155,695 L 155,695 152,697 152,692 152,686 152,681 153,675 153,670 154,665 155,660 156,655 157,649 158,644 159,639 161,635 164,625 168,616 173,606 177,597 182,588 188,579 194,571 200,563 206,556 213,548 221,541 228,535 237,529 245,523 254,517 263,512 271,507 281,503 291,499 301,496 311,493 316,492 321,491 326,490 331,489 337,488 342,488 347,487 353,487 358,487 364,487 364,487 C 365,487 365,487 366,488 L 366,488 366,488 364,487 369,487 375,487 380,488 385,488 391,488 396,489 401,490 406,491 412,492 417,493 427,496 436,499 446,503 456,507 465,512 473,517 483,522 490,528 499,535 506,541 514,548 520,556 527,563 534,571 540,579 545,588 550,597 555,605 559,615 562,625 566,634 568,639 569,644 570,649 572,654 573,660 573,665 574,670 574,675 575,681 575,686 576,691 576,697 576,697 576,702 575,708 575,713 574,718 574,724 573,729 573,734 572,739 570,744 569,749 568,754 566,759 562,770 559,779 555,788 550,797 545,807 540,815 534,823 527,831 520,839 514,846 506,853 499,860 491,866 483,871 473,877 465,882 456,887 446,891 436,895 427,898 417,901 412,903 407,903 401,904 396,905 391,906 386,907 380,907 375,908 369,908 364,908 366,905 366,905 366,905 C 366,906 366,907 366,907 365,908 365,908 364,908 L 364,908 358,908 353,908 347,907 342,907 337,906 331,905 326,904 321,903 316,903 311,901 301,898 291,895 281,891 272,887 263,882 254,877 245,871 237,866 228,860 221,853 214,846 206,839 200,831 194,823 188,815 182,807 177,797 173,788 169,779 164,770 161,759 159,754 158,749 157,744 156,739 155,734 154,729 153,724 153,719 152,713 152,708 152,702 152,697 152,697 C 152,696 152,695 153,695 153,695 154,694 155,695 Z M 153,700 L 153,700 157,697 157,702 157,707 158,713 158,718 158,723 159,728 160,733 161,738 162,743 164,749 164,754 166,758 169,768 173,777 177,786 182,795 187,803 192,812 198,820 204,828 211,835 217,842 225,849 233,855 240,861 248,867 256,872 265,877 274,882 283,886 292,890 302,893 312,896 317,897 322,898 327,899 332,900 337,901 343,901 348,902 353,902 358,902 364,903 360,905 360,905 360,905 C 360,903 362,902 364,902 L 364,902 369,902 374,902 380,902 385,901 390,901 395,900 400,899 405,898 410,897 415,896 425,893 435,890 444,886 453,882 462,877 471,872 479,867 488,861 495,855 503,849 509,842 516,835 523,828 529,820 535,812 541,803 546,795 550,786 554,777 557,768 561,758 562,754 564,749 565,743 566,738 567,733 568,728 568,723 569,718 570,713 570,707 570,702 570,697 570,697 570,692 570,686 570,681 569,676 568,671 568,666 567,661 566,656 565,651 564,646 562,641 561,636 557,626 554,617 550,608 546,600 541,591 535,583 530,574 523,567 517,559 509,552 503,546 495,539 488,533 479,527 471,522 462,517 453,512 444,508 435,504 425,501 415,499 410,498 405,496 400,495 395,494 390,493 385,493 380,493 374,493 369,492 364,492 364,492 C 363,492 362,492 361,491 L 361,491 361,491 364,492 358,492 353,493 348,493 343,493 337,493 332,494 327,495 322,496 317,497 312,499 302,501 292,504 283,508 274,512 265,517 256,522 248,527 240,533 233,539 225,546 217,552 211,559 204,567 198,574 192,583 187,591 182,600 177,608 174,617 169,626 166,636 165,641 164,646 162,651 161,656 160,661 159,666 158,671 158,676 158,681 158,686 157,692 157,697 157,697 C 157,698 157,699 156,700 155,700 154,700 153,700 Z"/>
  <path fill="rgb(255,0,0)" stroke="none" d="M 291,444 L 291,444 C 291,431 302,420 316,420 316,420 316,420 316,420 L 316,420 316,420 412,420 412,420 412,420 C 425,420 435,431 435,444 435,444 435,444 435,444 L 435,444 435,444 435,604 435,604 435,604 C 435,617 425,628 412,628 412,628 412,628 412,628 L 412,628 412,628 316,628 316,628 316,628 C 302,628 291,617 291,604 291,604 291,604 291,604 L 291,444 Z"/>
  <path fill="rgb(255,0,0)" stroke="rgb(255,0,0)" d="M 289,444 L 289,441 289,439 290,436 291,434 291,431 293,429 295,427 297,425 298,424 301,422 302,420 305,419 307,419 310,418 312,418 315,417 412,417 414,418 417,418 419,419 422,419 424,420 427,422 429,424 430,425 432,427 434,429 435,431 436,434 437,436 438,439 439,441 439,444 439,604 439,606 438,609 437,611 436,614 435,616 434,619 433,621 431,622 429,625 427,626 424,627 422,628 419,629 417,630 414,631 412,631 316,631 313,631 310,630 307,629 305,628 303,627 301,626 298,625 297,623 295,621 293,619 292,616 291,615 290,612 289,610 289,606 289,604 289,444 Z M 294,604 L 294,605 295,608 295,610 296,612 297,614 297,616 299,617 301,619 302,620 303,621 305,622 307,623 309,624 311,625 313,625 316,625 412,625 413,625 416,625 418,624 420,623 422,622 424,621 425,621 427,619 428,617 429,616 430,614 431,612 432,610 433,608 433,606 433,604 433,444 433,442 433,440 432,438 431,436 430,434 429,432 429,430 427,429 425,428 424,426 422,425 420,424 419,424 416,424 414,423 412,423 316,423 313,423 312,423 309,424 307,424 306,425 304,426 302,428 301,429 299,430 298,432 297,434 296,435 295,438 295,440 294,442 294,444 294,604 Z"/>
  <path fill="rgb(255,0,0)" stroke="none" d="M 333,396 L 333,396 C 333,345 355,299 392,272 436,240 492,240 535,272 573,299 628,355 628,406 L 588,397 588,397 C 588,371 520,344 502,329 479,308 448,308 425,329 408,344 398,370 398,396 L 333,396 Z"/>
  <path fill="rgb(255,0,0)" stroke="none" d="M 549,285 L 673,397 629,445 505,333 Z"/>
  <path fill="rgb(255,0,0)" stroke="none" d="M 777,426 L 777,426 C 779,467 786,449 808,441 800,494 802,474 749,483 704,489 655,472 620,437 L 666,391 666,391 C 685,409 709,419 732,419 763,417 761,472 762,441 764,419 780,445 762,426 L 777,426 Z"/>
  <path fill="rgb(255,0,0)" stroke="none" d="M 721,419 L 721,484 808,484 808,419 721,419 Z"/>
  <path fill="rgb(255,0,0)" stroke="rgb(255,0,0)" d="M 720,429 L 807,429 807,431 720,431 Z"/>
  <path fill="rgb(255,0,0)" stroke="rgb(255,0,0)" d="M 846,442 L 1021,442 1021,448 846,448 Z"/>
  <path fill="rgb(255,0,0)" stroke="rgb(255,0,0)" d="M 848,483 L 998,573 994,578 845,488 Z"/>
  <path fill="rgb(255,0,0)" stroke="rgb(255,0,0)" d="M 843,404 L 993,314 996,319 846,409 Z"/>
  <path fill="rgb(255,0,0)" stroke="rgb(255,0,0)" d="M 819,510 L 901,664 896,668 813,514 Z"/>
  <path fill="rgb(255,0,0)" stroke="rgb(255,0,0)" d="M 813,382 L 896,228 901,231 819,385 Z"/>
  <path fill="rgb(255,0,0)" stroke="rgb(255,0,0)" d="M 773,390 L 717,225 722,223 779,388 Z"/>
  <path fill="rgb(255,0,0)" stroke="rgb(255,0,0)" d="M 779,508 L 722,673 717,670 773,505 Z"/>
  <path fill="rgb(255,0,0)" stroke="rgb(255,0,0)" d="M 25,20 L 1133,20 1133,1129 25,1129 25,20 Z M 68,1108 L 47,1086 1112,1086 1090,1108 1090,42 1112,63 47,63 68,42 68,1108 Z"/>
  </g>
 </g>
</svg>