<?xml version="1.0" encoding="UTF-8"?>

<svg version="1.2" width="150px" height="150px" viewBox="0 0 1160 1160" xmlns="http://www.w3.org/2000/svg" xmlns:xlink="http://www.w3.org/1999/xlink">
 <g visibility="visible" id="MasterSlide_1_Standard">
  <g id="Drawing_1">
  <path fill="rgb(255,0,0)" stroke="none" d="M 659,46 L 585,128 560,157 552,170 543,181 537,192 532,205 528,216 524,228 518,256 512,289 510,313 510,337 511,359 515,380 522,399 529,419 550,457 576,491 606,525 672,588 738,652 767,685 792,720 813,757 821,777 826,797 830,817 832,839 832,864 829,888 824,908 817,928 808,947 796,965 782,982 767,998 748,1014 727,1027 703,1041 679,1053 651,1063 621,1072 589,1080 554,1086 478,1094 554,1013 577,983 587,970 595,959 602,948 607,936 611,925 614,912 620,885 625,851 629,827 629,804 626,782 622,761 617,740 608,721 588,684 562,649 533,615 467,552 401,488 372,456 346,421 326,384 317,364 311,344 307,322 305,300 305,276 309,253 313,232 320,213 330,194 342,175 355,158 372,143 391,126 411,113 434,100 460,88 488,78 518,68 550,60 584,54 Z"/>
  <path stroke-width="2" fill="none" stroke="rgb(255,0,0)" d="M 659,46 L 585,128 560,157 552,170 543,181 537,192 532,205 528,216 524,228 518,256 512,289 510,313 510,337 511,359 515,380 522,399 529,419 550,457 576,491 606,525 672,588 738,652 767,685 792,720 813,757 821,777 826,797 830,817 832,839 832,864 829,888 824,908 817,928 808,947 796,965 782,982 767,998 748,1014 727,1027 703,1041 679,1053 651,1063 621,1072 589,1080 554,1086 478,1094 554,1013 577,983 587,970 595,959 602,948 607,936 611,925 614,912 620,885 625,851 629,827 629,804 626,782 622,761 617,740 608,721 588,684 562,649 533,615 467,552 401,488 372,456 346,421 326,384 317,364 311,344 307,322 305,300 305,276 309,253 313,232 320,213 330,194 342,175 355,158 372,143 391,126 411,113 434,100 460,88 488,78 518,68 550,60 584,54 659,46 Z"/>
  </g>
 </g>
</svg>