<?xml version="1.0" encoding="UTF-8"?>

<svg version="1.2" width="150px" height="150px" viewBox="0 0 1160 1160" xmlns="http://www.w3.org/2000/svg" xmlns:xlink="http://www.w3.org/1999/xlink">
 <g visibility="visible" id="MasterSlide_1_Standard">
  <g id="DrawingGroup_1">
   <g>
   <path fill="rgb(255,153,0)" stroke="none" d="M 1130,1053 C 764,1053 397,1053 31,1053 214,738 397,422 581,107 764,422 947,738 1130,1053 Z M 992,984 C 855,746 718,507 581,269 444,507 307,746 170,984 444,984 718,984 992,984 Z"/>
    <rect fill="none" stroke="none" x="30" y="106" width="1102" height="949"/>
   </g>
   <g>
   <path fill="rgb(255,153,0)" stroke="none" d="M 633,805 L 673,817 C 667,840 657,856 643,867 628,878 610,883 589,883 562,883 540,874 522,856 505,837 496,812 496,779 496,745 505,719 523,700 540,681 563,672 591,672 616,672 636,679 652,694 661,703 668,715 672,732 L 632,741 C 629,731 624,722 617,716 609,710 600,707 589,707 574,707 562,713 553,723 543,734 539,752 539,776 539,802 543,821 552,832 562,843 574,848 588,848 599,848 609,845 616,838 624,831 630,820 633,805 Z"/>
    <rect fill="none" stroke="none" x="496" y="671" width="178" height="214"/>
   </g>
  </g>
 </g>
</svg>