<?xml version="1.0" encoding="UTF-8"?>

<svg version="1.2" width="150px" height="150px" viewBox="0 0 1160 1160" xmlns="http://www.w3.org/2000/svg" xmlns:xlink="http://www.w3.org/1999/xlink">
 <g visibility="visible" id="MasterSlide_1_Standard">
  <g id="DrawingGroup_1">
   <g>
   <path fill="rgb(0,0,255)" stroke="none" d="M 237,53 C 466,53 695,53 924,53 924,404 924,756 924,1107 695,1107 466,1107 237,1107 237,756 237,404 237,53 Z M 319,1065 C 305,1051 292,1038 278,1024 480,1024 681,1024 883,1024 869,1038 856,1051 842,1065 842,741 842,418 842,94 856,108 869,121 883,135 681,135 480,135 278,135 292,121 305,108 319,94 319,418 319,741 319,1065 Z"/>
   <path fill="none" stroke="rgb(0,0,255)" id="Drawing_1_0" d="M 237,53 C 466,53 695,53 924,53 924,404 924,756 924,1107 695,1107 466,1107 237,1107 237,756 237,404 237,53 Z"/>
   <path fill="none" stroke="rgb(0,0,255)" id="Drawing_1_1" d="M 319,1065 C 305,1051 292,1038 278,1024 480,1024 681,1024 883,1024 869,1038 856,1051 842,1065 842,741 842,418 842,94 856,108 869,121 883,135 681,135 480,135 278,135 292,121 305,108 319,94 319,418 319,741 319,1065 Z"/>
   </g>
   <g>
   <path fill="rgb(0,0,255)" stroke="none" d="M 310,625 C 495,625 679,625 864,625 864,643 864,660 864,678 679,678 495,678 310,678 310,660 310,643 310,625 Z"/>
    <rect fill="none" stroke="none" x="310" y="625" width="555" height="54"/>
   </g>
   <g>
   <path fill="rgb(0,0,255)" stroke="none" d="M 310,625 C 495,625 679,625 864,625 864,643 864,660 864,678 679,678 495,678 310,678 310,660 310,643 310,625 Z"/>
   <path fill="none" stroke="rgb(0,0,255)" id="Drawing_3_0" stroke-width="1" stroke-linejoin="round" d="M 310,625 C 495,625 679,625 864,625 864,643 864,660 864,678 679,678 495,678 310,678 310,660 310,643 310,625 Z"/>
   </g>
   <g>
   <path fill="rgb(0,0,255)" stroke="none" d="M 314,514 C 499,514 683,514 868,514 868,532 868,549 868,567 683,567 499,567 314,567 314,549 314,532 314,514 Z"/>
    <rect fill="none" stroke="none" x="314" y="514" width="555" height="54"/>
   </g>
   <g>
   <path fill="rgb(0,0,255)" stroke="none" d="M 314,514 C 499,514 683,514 868,514 868,532 868,549 868,567 683,567 499,567 314,567 314,549 314,532 314,514 Z"/>
   <path fill="none" stroke="rgb(0,0,255)" id="Drawing_5_0" stroke-width="1" stroke-linejoin="round" d="M 314,514 C 499,514 683,514 868,514 868,532 868,549 868,567 683,567 499,567 314,567 314,549 314,532 314,514 Z"/>
   </g>
   <g>
   <path fill="rgb(0,0,255)" stroke="none" d="M 579,772 C 574,768 570,764 565,760 L 565,760 C 563,758 560,757 558,755 558,755 559,756 559,756 557,755 554,753 552,752 552,752 553,752 553,752 551,751 549,751 547,750 548,750 548,751 549,751 545,749 542,748 538,746 539,746 539,747 540,747 536,746 532,745 528,744 529,744 529,744 530,744 522,744 514,743 506,743 507,743 508,743 509,743 501,744 493,746 485,747 486,747 488,747 489,747 481,750 474,753 466,756 468,755 470,753 472,752 467,757 463,763 458,768 459,768 459,767 460,767 457,772 453,777 450,782 451,781 451,779 452,778 452,781 451,785 451,788 451,787 451,786 451,785 451,788 451,792 451,795 451,794 451,794 451,793 452,796 452,799 453,802 453,802 453,801 453,801 454,804 455,807 456,810 455,808 454,807 453,805 499,857 544,910 590,962 582,962 575,962 567,962 612,910 658,857 703,805 702,806 701,808 700,809 701,806 703,802 704,799 704,800 703,801 703,802 704,799 704,796 705,793 705,793 705,794 705,794 705,791 706,788 706,785 706,786 705,786 705,787 705,784 705,780 705,777 705,779 706,780 706,782 705,779 704,776 703,773 703,774 704,775 704,776 702,773 699,771 697,768 698,768 698,769 699,769 694,764 689,758 684,753 686,754 687,755 689,756 681,753 674,750 666,747 667,747 669,747 670,747 662,746 655,744 647,743 648,743 650,743 651,743 643,743 634,744 626,744 627,744 627,744 628,744 624,745 620,746 616,747 617,747 617,746 618,746 615,748 611,749 608,751 608,751 609,750 609,750 607,751 606,751 604,752 604,752 605,752 605,752 603,753 600,755 598,756 598,756 599,755 599,755 596,757 594,759 591,761 591,761 592,760 592,760 588,764 583,768 579,772 Z M 574,738 C 577,736 579,735 582,733 585,731 587,730 590,728 592,726 595,725 597,723 601,722 605,720 609,719 614,718 619,718 624,717 633,716 642,715 651,714 660,716 669,718 678,720 687,724 695,727 704,731 710,738 715,744 721,751 723,754 726,757 728,760 730,764 731,768 733,772 734,777 734,781 735,786 734,790 734,793 733,797 732,801 731,806 730,810 728,814 727,818 725,822 676,879 628,937 579,994 529,936 480,879 430,821 428,817 427,814 425,810 424,806 424,801 423,797 423,793 423,789 423,785 423,781 424,776 424,772 428,765 431,758 435,751 441,744 446,738 452,731 461,727 469,724 478,720 487,718 497,716 506,714 515,715 523,716 532,717 537,718 542,718 547,719 551,720 556,722 560,723 562,725 565,726 567,728 569,730 572,731 574,733 577,735 579,736 582,738 584,740 586,741 588,743 582,743 575,743 569,743 571,741 572,740 574,738 Z"/>
   <path fill="none" stroke="rgb(0,0,255)" id="Drawing_6_0" d="M 579,772 C 574,768 570,764 565,760 L 565,760 C 563,758 560,757 558,755 558,755 559,756 559,756 557,755 554,753 552,752 552,752 553,752 553,752 551,751 549,751 547,750 548,750 548,751 549,751 545,749 542,748 538,746 539,746 539,747 540,747 536,746 532,745 528,744 529,744 529,744 530,744 522,744 514,743 506,743 507,743 508,743 509,743 501,744 493,746 485,747 486,747 488,747 489,747 481,750 474,753 466,756 468,755 470,753 472,752 467,757 463,763 458,768 459,768 459,767 460,767 457,772 453,777 450,782 451,781 451,779 452,778 452,781 451,785 451,788 451,787 451,786 451,785 451,788 451,792 451,795 451,794 451,794 451,793 452,796 452,799 453,802 453,802 453,801 453,801 454,804 455,807 456,810 455,808 454,807 453,805 499,857 544,910 590,962 582,962 575,962 567,962 612,910 658,857 703,805 702,806 701,808 700,809 701,806 703,802 704,799 704,800 703,801 703,802 704,799 704,796 705,793 705,793 705,794 705,794 705,791 706,788 706,785 706,786 705,786 705,787 705,784 705,780 705,777 705,779 706,780 706,782 705,779 704,776 703,773 703,774 704,775 704,776 702,773 699,771 697,768 698,768 698,769 699,769 694,764 689,758 684,753 686,754 687,755 689,756 681,753 674,750 666,747 667,747 669,747 670,747 662,746 655,744 647,743 648,743 650,743 651,743 643,743 634,744 626,744 627,744 627,744 628,744 624,745 620,746 616,747 617,747 617,746 618,746 615,748 611,749 608,751 608,751 609,750 609,750 607,751 606,751 604,752 604,752 605,752 605,752 603,753 600,755 598,756 598,756 599,755 599,755 596,757 594,759 591,761 591,761 592,760 592,760 588,764 583,768 579,772 Z"/>
   <path fill="none" stroke="rgb(0,0,255)" id="Drawing_6_1" d="M 574,738 C 577,736 579,735 582,733 585,731 587,730 590,728 592,726 595,725 597,723 601,722 605,720 609,719 614,718 619,718 624,717 633,716 642,715 651,714 660,716 669,718 678,720 687,724 695,727 704,731 710,738 715,744 721,751 723,754 726,757 728,760 730,764 731,768 733,772 734,777 734,781 735,786 734,790 734,793 733,797 732,801 731,806 730,810 728,814 727,818 725,822 676,879 628,937 579,994 529,936 480,879 430,821 428,817 427,814 425,810 424,806 424,801 423,797 423,793 423,789 423,785 423,781 424,776 424,772 428,765 431,758 435,751 441,744 446,738 452,731 461,727 469,724 478,720 487,718 497,716 506,714 515,715 523,716 532,717 537,718 542,718 547,719 551,720 556,722 560,723 562,725 565,726 567,728 569,730 572,731 574,733 577,735 579,736 582,738 584,740 586,741 588,743 582,743 575,743 569,743 571,741 572,740 574,738 Z"/>
   </g>
   <g>
   <path fill="rgb(0,0,255)" stroke="none" d="M 689,441 L 652,441 C 636,461 617,475 598,484 592,485 587,485 584,485 576,485 566,483 556,480 L 547,485 536,485 C 512,485 500,476 500,459 500,458 501,456 501,454 483,453 474,444 474,429 474,427 475,425 475,422 468,420 464,417 460,413 457,409 455,404 455,397 455,392 457,387 461,381 452,372 447,361 447,349 447,336 455,325 469,316 484,308 503,304 527,304 L 533,304 C 531,289 526,275 519,261 L 516,254 C 507,238 503,225 503,216 503,192 516,176 541,170 L 548,168 561,223 606,272 C 609,276 614,283 622,293 L 629,302 C 636,312 641,319 644,321 647,323 652,324 659,324 L 688,324 C 696,343 701,363 701,383 701,402 697,422 689,441 Z M 681,428 C 686,413 688,399 688,385 688,369 686,353 680,338 659,338 647,336 641,334 636,331 628,323 618,308 614,302 607,294 599,283 L 550,230 540,185 C 524,190 516,201 516,216 516,224 518,233 524,242 L 527,248 C 540,269 546,290 546,309 L 546,316 538,316 C 512,316 492,319 479,324 466,329 460,337 460,348 460,357 463,365 470,372 476,379 485,382 495,382 L 509,382 554,362 C 547,352 538,346 527,346 524,346 520,347 516,348 511,350 506,352 499,354 L 488,355 476,342 496,342 C 502,340 507,338 512,337 517,336 521,335 525,335 546,335 561,346 571,367 L 562,371 C 573,376 580,385 586,398 L 576,402 C 584,407 591,415 597,427 L 582,434 C 590,440 597,449 602,460 L 572,473 C 577,474 581,475 585,475 L 594,475 C 616,462 633,447 647,428 L 681,428 Z M 569,392 C 563,385 557,380 549,378 L 512,394 499,394 C 487,394 478,392 471,389 469,392 468,395 468,397 468,403 471,406 476,409 481,412 488,413 498,413 L 524,413 569,392 Z M 579,421 C 579,420 578,420 577,419 574,414 569,411 564,408 L 526,425 486,425 486,428 C 486,438 495,443 514,443 L 533,443 579,421 Z M 585,455 C 583,453 583,452 582,451 579,447 575,443 570,439 L 535,455 513,455 513,457 C 513,468 521,473 536,473 L 544,473 585,455 Z"/>
    <rect fill="none" stroke="none" x="447" y="168" width="255" height="318"/>
   </g>
  </g>
 </g>
</svg>