<?xml version="1.0" encoding="UTF-8"?>

<svg version="1.2" width="150px" height="150px" viewBox="0 0 1160 1160" xmlns="http://www.w3.org/2000/svg" xmlns:xlink="http://www.w3.org/1999/xlink">
 <g visibility="visible" id="MasterSlide_1_Standard">
  <g id="DrawingGroup_1">
   <g>
   <path fill="rgb(0,0,255)" stroke="none" d="M 390,318 C 390,534 390,750 390,966 371,966 352,966 334,966 334,750 334,534 334,318 352,318 371,318 390,318 Z"/>
   <path fill="none" stroke="rgb(0,0,255)" id="Drawing_1_0" d="M 390,318 C 390,534 390,750 390,966 371,966 352,966 334,966 334,750 334,534 334,318 352,318 371,318 390,318 Z"/>
   </g>
   <g>
   <path fill="rgb(0,0,255)" stroke="none" d="M 334,318 C 334,313 334,308 335,303 335,298 335,293 336,288 336,283 337,278 338,274 338,269 339,264 340,260 341,255 342,250 344,246 345,241 346,237 348,233 349,228 350,224 352,220 353,215 355,210 357,206 359,202 361,198 363,194 365,190 367,186 370,182 372,178 374,173 377,169 379,165 382,162 385,158 387,155 389,151 392,148 395,144 398,141 402,137 405,133 408,130 411,126 414,123 417,119 420,116 423,113 426,110 430,107 433,104 437,101 441,98 444,95 448,92 452,89 456,87 460,84 464,82 468,79 472,77 476,74 480,72 484,70 488,68 492,66 496,63 500,61 504,59 509,58 514,56 518,54 522,53 527,51 531,49 536,48 541,46 545,45 549,43 554,42 558,41 563,40 568,39 573,38 578,37 582,36 587,36 592,35 596,35 601,34 606,34 611,33 616,33 621,33 626,33 631,33 636,33 641,33 646,34 651,34 656,35 661,35 666,36 671,36 676,37 681,38 685,39 690,40 695,40 699,41 704,43 709,44 713,46 718,47 723,49 727,50 732,52 736,53 740,55 745,57 749,59 753,61 758,63 762,65 766,67 770,69 774,71 778,73 782,76 786,78 789,81 793,84 797,86 801,89 805,92 809,94 812,97 816,100 820,103 823,106 827,109 830,113 833,116 836,119 840,122 843,125 846,129 850,132 853,136 856,139 858,143 861,146 864,150 866,154 869,158 872,162 874,165 877,169 879,173 882,176 884,180 886,184 888,189 890,193 892,197 894,202 896,206 898,210 900,214 902,218 903,222 905,227 906,232 908,236 909,240 911,245 912,249 913,254 914,259 915,263 915,268 916,273 917,277 917,282 918,287 919,292 919,297 920,302 920,306 920,311 920,316 920,320 920,325 920,330 920,335 919,340 919,345 918,350 917,355 916,360 915,364 915,368 914,373 913,377 912,382 911,387 910,391 908,396 907,401 905,405 904,409 902,414 900,418 899,422 897,427 895,431 893,435 891,440 889,443 886,447 884,451 882,455 880,459 878,464 875,467 873,471 870,475 867,478 865,482 862,486 859,489 856,493 853,497 850,500 847,503 844,507 841,510 837,513 834,517 831,520 828,523 824,526 821,529 818,532 814,536 810,538 806,541 802,544 799,546 795,549 791,552 787,554 783,556 779,559 775,561 771,563 767,566 763,568 759,570 754,573 750,574 746,576 741,578 737,579 733,581 728,583 724,584 720,586 715,588 710,589 705,590 700,591 696,592 692,593 687,594 682,595 677,596 672,596 667,597 662,598 657,598 652,599 647,599 642,599 638,599 633,599 628,599 623,599 618,599 613,599 608,599 603,599 598,598 593,598 588,597 583,596 579,596 574,595 570,594 565,593 560,592 556,591 551,590 546,589 541,588 536,586 532,585 528,584 523,582 518,580 514,579 510,577 506,575 502,573 497,571 493,569 489,567 485,564 481,562 477,560 473,557 469,554 465,552 461,549 457,547 453,545 449,542 445,539 442,536 438,533 434,530 431,527 427,524 424,521 421,518 418,515 415,512 412,509 409,505 406,501 403,498 399,494 396,491 393,488 390,484 388,480 386,476 383,472 380,468 378,465 375,461 373,457 371,453 368,448 366,444 364,440 362,436 360,432 358,428 356,423 354,419 353,415 351,410 349,406 348,402 346,397 345,392 344,388 342,383 341,379 340,375 339,370 338,365 338,361 337,356 336,351 336,346 335,341 335,336 335,332 334,327 334,322 334,318 Z M 391,328 C 391,331 391,335 392,339 392,342 392,346 393,350 393,353 394,357 395,361 396,364 397,368 398,372 399,375 400,379 401,383 402,386 403,390 405,394 406,397 407,400 409,404 410,407 411,410 413,414 415,417 417,420 419,424 420,427 422,430 424,434 426,437 428,440 430,443 432,446 434,449 437,452 439,455 441,458 444,461 446,463 448,466 451,469 453,471 456,474 459,477 461,479 464,481 467,484 470,486 473,489 476,492 479,494 482,496 485,499 488,500 491,502 494,504 497,506 500,508 504,510 507,512 510,514 514,516 517,517 520,519 524,521 527,522 531,523 535,525 538,526 542,528 546,530 549,531 553,532 557,534 560,535 563,536 567,537 571,538 575,539 579,540 582,540 586,540 590,541 594,541 598,542 602,543 606,543 610,543 614,544 618,544 622,544 626,544 631,544 635,544 639,544 643,543 647,543 651,543 655,542 659,541 662,541 666,540 670,540 674,540 678,539 682,538 686,537 690,536 694,535 697,534 701,533 705,532 708,531 712,529 716,527 719,526 723,524 727,523 730,522 734,520 737,518 740,517 744,515 747,513 750,511 753,509 756,507 759,505 762,503 765,501 768,499 772,497 775,495 778,493 781,490 784,487 786,485 789,482 792,480 794,478 797,475 800,472 802,470 805,467 808,464 810,462 812,459 814,456 816,453 819,450 821,447 823,444 826,441 828,438 830,435 832,431 833,428 835,425 837,422 839,419 841,416 842,412 844,409 845,406 846,402 848,398 849,395 850,391 852,388 853,385 854,381 855,377 856,374 857,370 858,366 859,363 860,359 860,355 861,352 862,348 862,344 863,340 863,336 863,332 863,329 863,325 864,321 864,318 864,314 863,310 863,306 863,302 863,298 863,294 862,290 862,286 861,283 860,279 860,275 859,272 858,268 858,264 857,260 856,256 854,253 853,250 852,246 851,242 850,239 849,235 847,232 846,229 844,225 843,222 841,219 839,215 838,212 836,209 834,206 832,203 830,200 828,197 826,193 824,190 822,187 820,184 818,181 816,178 813,176 810,173 808,170 806,167 803,164 801,162 798,159 795,157 793,154 790,152 787,149 784,147 781,144 778,142 775,140 772,137 769,135 766,133 763,130 760,128 757,126 754,124 751,122 748,120 745,119 741,117 738,115 735,114 731,112 728,110 724,109 720,107 717,106 713,104 709,103 706,102 703,101 699,100 695,99 691,97 687,96 684,95 680,95 676,94 672,93 668,93 664,92 660,91 656,91 652,90 648,90 644,89 640,89 636,89 632,89 628,89 624,89 620,89 615,89 611,89 607,90 603,90 599,91 595,91 591,92 588,93 584,93 580,94 577,95 573,95 569,96 565,97 561,99 557,100 553,101 549,102 546,103 542,104 538,106 535,107 531,108 528,110 525,111 521,113 518,114 515,116 511,118 508,120 505,122 501,124 498,126 495,128 492,130 489,132 486,134 483,136 480,139 477,141 474,143 471,146 468,148 465,151 463,153 461,156 458,159 455,161 452,164 449,167 447,169 445,172 442,175 440,177 438,180 435,183 433,187 431,190 429,193 427,196 425,199 423,202 421,205 419,208 417,211 415,214 414,217 412,220 410,224 409,228 407,231 406,234 405,238 404,241 403,245 402,249 400,252 399,255 398,259 397,262 396,266 396,270 395,273 394,277 393,281 392,285 392,289 392,293 391,296 391,300 391,304 391,308 391,312 391,316 391,320 391,324 391,328 Z"/>
   <path fill="none" stroke="rgb(0,0,255)" id="Drawing_2_0" d="M 334,318 C 334,313 334,308 335,303 335,298 335,293 336,288 336,283 337,278 338,274 338,269 339,264 340,260 341,255 342,250 344,246 345,241 346,237 348,233 349,228 350,224 352,220 353,215 355,210 357,206 359,202 361,198 363,194 365,190 367,186 370,182 372,178 374,173 377,169 379,165 382,162 385,158 387,155 389,151 392,148 395,144 398,141 402,137 405,133 408,130 411,126 414,123 417,119 420,116 423,113 426,110 430,107 433,104 437,101 441,98 444,95 448,92 452,89 456,87 460,84 464,82 468,79 472,77 476,74 480,72 484,70 488,68 492,66 496,63 500,61 504,59 509,58 514,56 518,54 522,53 527,51 531,49 536,48 541,46 545,45 549,43 554,42 558,41 563,40 568,39 573,38 578,37 582,36 587,36 592,35 596,35 601,34 606,34 611,33 616,33 621,33 626,33 631,33 636,33 641,33 646,34 651,34 656,35 661,35 666,36 671,36 676,37 681,38 685,39 690,40 695,40 699,41 704,43 709,44 713,46 718,47 723,49 727,50 732,52 736,53 740,55 745,57 749,59 753,61 758,63 762,65 766,67 770,69 774,71 778,73 782,76 786,78 789,81 793,84 797,86 801,89 805,92 809,94 812,97 816,100 820,103 823,106 827,109 830,113 833,116 836,119 840,122 843,125 846,129 850,132 853,136 856,139 858,143 861,146 864,150 866,154 869,158 872,162 874,165 877,169 879,173 882,176 884,180 886,184 888,189 890,193 892,197 894,202 896,206 898,210 900,214 902,218 903,222 905,227 906,232 908,236 909,240 911,245 912,249 913,254 914,259 915,263 915,268 916,273 917,277 917,282 918,287 919,292 919,297 920,302 920,306 920,311 920,316 920,320 920,325 920,330 920,335 919,340 919,345 918,350 917,355 916,360 915,364 915,368 914,373 913,377 912,382 911,387 910,391 908,396 907,401 905,405 904,409 902,414 900,418 899,422 897,427 895,431 893,435 891,440 889,443 886,447 884,451 882,455 880,459 878,464 875,467 873,471 870,475 867,478 865,482 862,486 859,489 856,493 853,497 850,500 847,503 844,507 841,510 837,513 834,517 831,520 828,523 824,526 821,529 818,532 814,536 810,538 806,541 802,544 799,546 795,549 791,552 787,554 783,556 779,559 775,561 771,563 767,566 763,568 759,570 754,573 750,574 746,576 741,578 737,579 733,581 728,583 724,584 720,586 715,588 710,589 705,590 700,591 696,592 692,593 687,594 682,595 677,596 672,596 667,597 662,598 657,598 652,599 647,599 642,599 638,599 633,599 628,599 623,599 618,599 613,599 608,599 603,599 598,598 593,598 588,597 583,596 579,596 574,595 570,594 565,593 560,592 556,591 551,590 546,589 541,588 536,586 532,585 528,584 523,582 518,580 514,579 510,577 506,575 502,573 497,571 493,569 489,567 485,564 481,562 477,560 473,557 469,554 465,552 461,549 457,547 453,545 449,542 445,539 442,536 438,533 434,530 431,527 427,524 424,521 421,518 418,515 415,512 412,509 409,505 406,501 403,498 399,494 396,491 393,488 390,484 388,480 386,476 383,472 380,468 378,465 375,461 373,457 371,453 368,448 366,444 364,440 362,436 360,432 358,428 356,423 354,419 353,415 351,410 349,406 348,402 346,397 345,392 344,388 342,383 341,379 340,375 339,370 338,365 338,361 337,356 336,351 336,346 335,341 335,336 335,332 334,327 334,322 334,318 Z"/>
   <path fill="none" stroke="rgb(0,0,255)" id="Drawing_2_1" d="M 391,328 C 391,331 391,335 392,339 392,342 392,346 393,350 393,353 394,357 395,361 396,364 397,368 398,372 399,375 400,379 401,383 402,386 403,390 405,394 406,397 407,400 409,404 410,407 411,410 413,414 415,417 417,420 419,424 420,427 422,430 424,434 426,437 428,440 430,443 432,446 434,449 437,452 439,455 441,458 444,461 446,463 448,466 451,469 453,471 456,474 459,477 461,479 464,481 467,484 470,486 473,489 476,492 479,494 482,496 485,499 488,500 491,502 494,504 497,506 500,508 504,510 507,512 510,514 514,516 517,517 520,519 524,521 527,522 531,523 535,525 538,526 542,528 546,530 549,531 553,532 557,534 560,535 563,536 567,537 571,538 575,539 579,540 582,540 586,540 590,541 594,541 598,542 602,543 606,543 610,543 614,544 618,544 622,544 626,544 631,544 635,544 639,544 643,543 647,543 651,543 655,542 659,541 662,541 666,540 670,540 674,540 678,539 682,538 686,537 690,536 694,535 697,534 701,533 705,532 708,531 712,529 716,527 719,526 723,524 727,523 730,522 734,520 737,518 740,517 744,515 747,513 750,511 753,509 756,507 759,505 762,503 765,501 768,499 772,497 775,495 778,493 781,490 784,487 786,485 789,482 792,480 794,478 797,475 800,472 802,470 805,467 808,464 810,462 812,459 814,456 816,453 819,450 821,447 823,444 826,441 828,438 830,435 832,431 833,428 835,425 837,422 839,419 841,416 842,412 844,409 845,406 846,402 848,398 849,395 850,391 852,388 853,385 854,381 855,377 856,374 857,370 858,366 859,363 860,359 860,355 861,352 862,348 862,344 863,340 863,336 863,332 863,329 863,325 864,321 864,318 864,314 863,310 863,306 863,302 863,298 863,294 862,290 862,286 861,283 860,279 860,275 859,272 858,268 858,264 857,260 856,256 854,253 853,250 852,246 851,242 850,239 849,235 847,232 846,229 844,225 843,222 841,219 839,215 838,212 836,209 834,206 832,203 830,200 828,197 826,193 824,190 822,187 820,184 818,181 816,178 813,176 810,173 808,170 806,167 803,164 801,162 798,159 795,157 793,154 790,152 787,149 784,147 781,144 778,142 775,140 772,137 769,135 766,133 763,130 760,128 757,126 754,124 751,122 748,120 745,119 741,117 738,115 735,114 731,112 728,110 724,109 720,107 717,106 713,104 709,103 706,102 703,101 699,100 695,99 691,97 687,96 684,95 680,95 676,94 672,93 668,93 664,92 660,91 656,91 652,90 648,90 644,89 640,89 636,89 632,89 628,89 624,89 620,89 615,89 611,89 607,90 603,90 599,91 595,91 591,92 588,93 584,93 580,94 577,95 573,95 569,96 565,97 561,99 557,100 553,101 549,102 546,103 542,104 538,106 535,107 531,108 528,110 525,111 521,113 518,114 515,116 511,118 508,120 505,122 501,124 498,126 495,128 492,130 489,132 486,134 483,136 480,139 477,141 474,143 471,146 468,148 465,151 463,153 461,156 458,159 455,161 452,164 449,167 447,169 445,172 442,175 440,177 438,180 435,183 433,187 431,190 429,193 427,196 425,199 423,202 421,205 419,208 417,211 415,214 414,217 412,220 410,224 409,228 407,231 406,234 405,238 404,241 403,245 402,249 400,252 399,255 398,259 397,262 396,266 396,270 395,273 394,277 393,281 392,285 392,289 392,293 391,296 391,300 391,304 391,308 391,312 391,316 391,320 391,324 391,328 Z"/>
   </g>
   <g>
   <path fill="rgb(0,0,255)" stroke="none" d="M 516,390 C 516,343 516,297 516,250 551,250 586,250 621,250 621,258 621,266 621,274 596,274 570,274 545,274 545,284 545,295 545,305 568,305 592,305 616,305 616,313 616,321 616,328 592,328 568,328 545,328 545,341 545,354 545,366 571,366 597,366 624,366 624,374 624,382 624,390 L 516,390 Z"/>
    <rect fill="none" stroke="none" x="516" y="250" width="109" height="141"/>
   </g>
   <g>
   <path fill="rgb(0,0,255)" stroke="none" d="M 649,390 C 649,344 649,298 649,252 659,252 668,252 678,252 678,290 678,328 678,366 702,366 725,366 749,366 749,374 749,382 749,390 L 649,390 Z"/>
    <rect fill="none" stroke="none" x="649" y="251" width="101" height="140"/>
   </g>
   <g>
   <path fill="rgb(0,0,255)" stroke="none" d="M 280,885 C 347,953 414,1020 482,1088 468,1101 454,1114 441,1127 374,1059 307,992 240,924 253,911 267,898 280,885 Z"/>
   <path fill="none" stroke="rgb(0,0,255)" id="Drawing_5_0" d="M 280,885 C 347,953 414,1020 482,1088 468,1101 454,1114 441,1127 374,1059 307,992 240,924 253,911 267,898 280,885 Z"/>
   </g>
   <g>
   <path fill="rgb(0,0,255)" stroke="none" d="M 482,924 C 414,992 347,1060 280,1128 267,1115 253,1102 240,1089 307,1021 374,953 441,885 454,898 468,911 482,924 Z"/>
   <path fill="none" stroke="rgb(0,0,255)" id="Drawing_6_0" d="M 482,924 C 414,992 347,1060 280,1128 267,1115 253,1102 240,1089 307,1021 374,953 441,885 454,898 468,911 482,924 Z"/>
   </g>
  </g>
 </g>
</svg>