<?xml version="1.0" encoding="UTF-8"?>

<svg version="1.2" width="150px" height="150px" viewBox="0 0 1160 1160" xmlns="http://www.w3.org/2000/svg" xmlns:xlink="http://www.w3.org/1999/xlink">
 <g visibility="visible" id="MasterSlide_1_Standard">
  <g id="Drawing_1">
  <path fill="rgb(0,0,255)" stroke="rgb(0,0,255)" d="M 304,849 L 305,835 306,821 308,807 310,794 313,781 316,768 320,755 325,743 331,731 337,718 344,707 350,696 358,685 366,675 375,665 384,656 393,647 403,638 414,630 424,622 435,615 446,609 458,602 470,597 483,592 495,588 508,584 521,581 535,578 548,577 562,575 576,575 590,575 604,576 618,578 631,580 644,584 657,587 670,591 683,596 694,601 706,608 718,614 729,621 739,629 750,637 760,646 769,654 779,663 787,674 795,684 803,695 810,706 816,717 822,729 828,741 832,754 837,766 841,779 844,792 847,806 848,819 849,834 849,847 849,861 848,876 847,889 844,903 841,916 837,929 833,941 828,954 823,966 817,977 811,989 804,1000 796,1011 788,1021 779,1031 770,1041 761,1050 751,1058 741,1067 730,1074 719,1081 707,1088 696,1094 684,1100 672,1105 658,1109 646,1112 633,1116 619,1118 605,1120 592,1121 578,1121 564,1121 550,1120 536,1118 523,1116 509,1113 497,1110 484,1105 472,1100 460,1094 448,1089 436,1082 425,1075 414,1068 404,1060 394,1051 385,1042 376,1032 367,1023 359,1012 351,1002 345,991 338,979 332,967 326,956 321,943 317,930 313,917 310,904 308,891 306,877 305,863 304,849 Z M 371,858 L 372,869 372,879 375,889 377,899 380,908 382,919 387,928 391,937 395,946 400,955 405,963 411,971 417,979 424,987 430,993 438,1000 445,1007 453,1013 461,1019 469,1025 477,1030 487,1034 496,1038 505,1042 514,1045 525,1048 535,1051 545,1052 555,1053 566,1054 576,1055 587,1054 597,1054 608,1052 618,1051 628,1048 637,1046 647,1042 657,1039 666,1035 675,1031 684,1025 692,1020 700,1015 708,1008 715,1002 722,994 729,988 736,980 742,972 747,964 753,956 758,947 763,939 767,930 771,920 774,910 777,901 779,891 781,881 782,871 783,860 784,849 783,839 783,828 781,818 779,807 777,797 774,787 771,778 768,769 763,759 759,750 754,742 748,733 743,725 737,717 731,710 724,703 716,695 709,690 701,683 693,677 685,672 676,667 668,663 658,658 649,654 639,651 630,648 620,646 610,644 599,642 588,642 578,642 567,642 557,642 546,644 536,646 526,648 516,651 507,654 498,658 488,662 479,666 471,671 462,676 454,682 446,688 439,695 431,701 424,709 418,717 412,724 406,733 401,740 396,749 391,758 387,767 383,776 380,786 377,796 375,806 373,816 372,826 371,837 371,847 371,858 Z"/>
  <path fill="rgb(0,0,255)" stroke="rgb(0,0,255)" d="M 533,601 L 535,18 601,18 599,601 Z"/>
  <path fill="rgb(0,0,255)" stroke="rgb(0,0,255)" d="M 540,17 L 745,17 745,83 540,83 Z"/>
  <path fill="rgb(0,0,255)" stroke="rgb(0,0,255)" d="M 540,154 L 745,154 745,221 540,221 Z"/>
  <path fill="rgb(0,0,255)" stroke="rgb(0,0,255)" d="M 542,288 L 747,288 747,355 542,355 Z"/>
  </g>
 </g>
</svg>