<?xml version="1.0" encoding="UTF-8"?>

<svg version="1.2" width="150px" height="150px" viewBox="0 0 1160 1160" xmlns="http://www.w3.org/2000/svg" xmlns:xlink="http://www.w3.org/1999/xlink">
 <g visibility="visible" id="MasterSlide_1_Standard">
  <g id="DrawingGroup_1">
   <g>
   <path fill="rgb(0,0,255)" stroke="none" d="M 383,323 C 383,543 383,762 383,982 363,982 344,982 325,982 325,762 325,543 325,323 344,323 363,323 383,323 Z"/>
   <path fill="none" stroke="rgb(0,0,255)" id="Drawing_1_0" d="M 383,323 C 383,543 383,762 383,982 363,982 344,982 325,982 325,762 325,543 325,323 344,323 363,323 383,323 Z"/>
   </g>
   <g>
   <path fill="rgb(0,0,255)" stroke="none" d="M 246,1019 L 246,1019 C 246,961 294,915 353,915 L 353,915 353,915 353,915 C 413,915 461,961 461,1019 L 461,1019 461,1019 461,1019 C 461,1077 413,1123 353,1123 L 353,1123 353,1123 353,1123 C 294,1123 246,1077 246,1019 Z"/>
    <rect fill="none" stroke="none" x="245" y="915" width="217" height="210"/>
   </g>
   <g>
   <path fill="rgb(0,0,255)" stroke="none" d="M 243,1019 C 243,1016 244,1012 244,1009 244,1005 245,1002 245,998 246,994 247,991 248,987 249,984 250,980 251,977 253,974 254,971 256,968 258,965 259,962 261,959 263,956 266,953 268,950 270,948 273,946 275,943 278,941 280,939 283,936 286,934 289,932 292,930 295,928 298,926 301,924 304,923 307,922 310,920 313,919 317,918 320,917 324,916 327,915 331,914 335,914 338,914 342,913 345,913 349,913 353,912 357,913 361,913 365,913 368,914 372,914 376,914 379,915 382,916 386,917 389,918 392,919 396,920 399,922 402,923 406,924 409,926 412,928 415,930 418,932 421,934 424,936 426,939 428,941 431,943 433,946 436,948 439,950 441,953 443,956 445,959 447,962 449,965 451,967 452,971 454,974 456,977 457,980 458,984 459,987 460,991 461,994 462,998 462,1001 462,1005 463,1008 463,1012 463,1015 464,1019 463,1023 463,1026 463,1030 462,1034 462,1037 462,1041 461,1044 460,1048 459,1051 458,1054 457,1058 456,1061 454,1064 452,1067 451,1070 449,1073 447,1076 446,1079 443,1082 441,1084 439,1087 436,1089 434,1092 432,1094 429,1097 426,1099 424,1102 421,1104 418,1106 415,1108 412,1110 409,1111 406,1113 403,1115 400,1116 397,1118 393,1119 390,1120 387,1121 383,1122 379,1123 376,1124 372,1125 368,1125 365,1126 361,1126 357,1126 354,1126 350,1126 346,1126 342,1126 338,1125 335,1125 331,1124 328,1123 324,1122 321,1121 318,1120 314,1119 311,1118 308,1117 304,1115 301,1114 298,1112 295,1110 292,1108 289,1106 286,1104 283,1102 281,1100 278,1097 276,1095 273,1093 271,1090 268,1088 266,1085 263,1082 261,1079 259,1076 258,1073 256,1070 254,1067 253,1064 251,1061 250,1058 249,1054 248,1051 247,1048 246,1044 245,1041 245,1037 244,1034 244,1030 244,1026 243,1023 243,1019 Z M 250,1029 C 251,1032 251,1036 252,1039 253,1042 253,1046 254,1049 255,1052 257,1055 258,1058 259,1061 261,1064 262,1067 264,1070 265,1072 267,1075 269,1078 271,1080 273,1083 275,1085 278,1088 280,1090 282,1092 285,1094 287,1096 290,1098 292,1100 295,1102 298,1104 300,1105 303,1107 306,1108 310,1110 313,1111 316,1112 320,1114 323,1115 326,1116 329,1116 332,1117 336,1118 339,1118 343,1119 346,1119 349,1120 353,1120 356,1120 360,1119 364,1119 367,1118 370,1118 374,1117 377,1116 380,1116 384,1115 387,1114 390,1112 393,1111 396,1110 399,1108 403,1107 405,1105 408,1104 411,1102 414,1100 417,1099 420,1097 422,1095 424,1092 427,1090 429,1088 431,1085 434,1083 436,1080 438,1078 440,1075 441,1072 443,1070 445,1067 446,1064 447,1061 449,1058 450,1055 451,1052 452,1049 453,1046 454,1043 455,1040 455,1037 456,1033 457,1030 457,1026 457,1023 457,1019 457,1016 457,1012 457,1009 456,1006 456,1002 456,999 455,996 454,992 453,989 451,986 450,983 449,980 447,977 446,974 445,971 443,969 441,966 440,963 438,961 436,958 434,955 431,953 429,951 427,948 424,946 422,944 420,942 417,940 414,938 412,936 409,935 406,933 404,931 400,930 397,929 394,927 390,926 387,925 384,924 381,923 378,922 375,921 371,921 367,920 364,919 360,919 357,919 354,918 350,919 346,919 343,919 340,920 336,921 333,921 330,922 326,923 323,923 320,924 317,925 314,926 311,928 307,930 304,931 301,933 299,934 296,935 293,937 290,939 287,941 285,944 282,946 280,948 278,951 275,953 273,955 271,958 269,961 267,963 265,966 264,969 262,971 261,974 259,977 258,980 257,983 256,986 255,989 254,992 253,995 252,998 251,1002 251,1005 250,1009 250,1012 250,1016 250,1019 250,1022 250,1026 250,1029 Z"/>
   <path fill="none" stroke="rgb(0,0,255)" id="Drawing_3_0" d="M 243,1019 C 243,1016 244,1012 244,1009 244,1005 245,1002 245,998 246,994 247,991 248,987 249,984 250,980 251,977 253,974 254,971 256,968 258,965 259,962 261,959 263,956 266,953 268,950 270,948 273,946 275,943 278,941 280,939 283,936 286,934 289,932 292,930 295,928 298,926 301,924 304,923 307,922 310,920 313,919 317,918 320,917 324,916 327,915 331,914 335,914 338,914 342,913 345,913 349,913 353,912 357,913 361,913 365,913 368,914 372,914 376,914 379,915 382,916 386,917 389,918 392,919 396,920 399,922 402,923 406,924 409,926 412,928 415,930 418,932 421,934 424,936 426,939 428,941 431,943 433,946 436,948 439,950 441,953 443,956 445,959 447,962 449,965 451,967 452,971 454,974 456,977 457,980 458,984 459,987 460,991 461,994 462,998 462,1001 462,1005 463,1008 463,1012 463,1015 464,1019 463,1023 463,1026 463,1030 462,1034 462,1037 462,1041 461,1044 460,1048 459,1051 458,1054 457,1058 456,1061 454,1064 452,1067 451,1070 449,1073 447,1076 446,1079 443,1082 441,1084 439,1087 436,1089 434,1092 432,1094 429,1097 426,1099 424,1102 421,1104 418,1106 415,1108 412,1110 409,1111 406,1113 403,1115 400,1116 397,1118 393,1119 390,1120 387,1121 383,1122 379,1123 376,1124 372,1125 368,1125 365,1126 361,1126 357,1126 354,1126 350,1126 346,1126 342,1126 338,1125 335,1125 331,1124 328,1123 324,1122 321,1121 318,1120 314,1119 311,1118 308,1117 304,1115 301,1114 298,1112 295,1110 292,1108 289,1106 286,1104 283,1102 281,1100 278,1097 276,1095 273,1093 271,1090 268,1088 266,1085 263,1082 261,1079 259,1076 258,1073 256,1070 254,1067 253,1064 251,1061 250,1058 249,1054 248,1051 247,1048 246,1044 245,1041 245,1037 244,1034 244,1030 244,1026 243,1023 243,1019 Z"/>
   <path fill="none" stroke="rgb(0,0,255)" id="Drawing_3_1" d="M 250,1029 C 251,1032 251,1036 252,1039 253,1042 253,1046 254,1049 255,1052 257,1055 258,1058 259,1061 261,1064 262,1067 264,1070 265,1072 267,1075 269,1078 271,1080 273,1083 275,1085 278,1088 280,1090 282,1092 285,1094 287,1096 290,1098 292,1100 295,1102 298,1104 300,1105 303,1107 306,1108 310,1110 313,1111 316,1112 320,1114 323,1115 326,1116 329,1116 332,1117 336,1118 339,1118 343,1119 346,1119 349,1120 353,1120 356,1120 360,1119 364,1119 367,1118 370,1118 374,1117 377,1116 380,1116 384,1115 387,1114 390,1112 393,1111 396,1110 399,1108 403,1107 405,1105 408,1104 411,1102 414,1100 417,1099 420,1097 422,1095 424,1092 427,1090 429,1088 431,1085 434,1083 436,1080 438,1078 440,1075 441,1072 443,1070 445,1067 446,1064 447,1061 449,1058 450,1055 451,1052 452,1049 453,1046 454,1043 455,1040 455,1037 456,1033 457,1030 457,1026 457,1023 457,1019 457,1016 457,1012 457,1009 456,1006 456,1002 456,999 455,996 454,992 453,989 451,986 450,983 449,980 447,977 446,974 445,971 443,969 441,966 440,963 438,961 436,958 434,955 431,953 429,951 427,948 424,946 422,944 420,942 417,940 414,938 412,936 409,935 406,933 404,931 400,930 397,929 394,927 390,926 387,925 384,924 381,923 378,922 375,921 371,921 367,920 364,919 360,919 357,919 354,918 350,919 346,919 343,919 340,920 336,921 333,921 330,922 326,923 323,923 320,924 317,925 314,926 311,928 307,930 304,931 301,933 299,934 296,935 293,937 290,939 287,941 285,944 282,946 280,948 278,951 275,953 273,955 271,958 269,961 267,963 265,966 264,969 262,971 261,974 259,977 258,980 257,983 256,986 255,989 254,992 253,995 252,998 251,1002 251,1005 250,1009 250,1012 250,1016 250,1019 250,1022 250,1026 250,1029 Z"/>
   </g>
   <g>
   <path fill="rgb(0,0,255)" stroke="none" d="M 324,323 C 324,318 325,313 325,308 325,303 326,298 326,293 327,288 327,283 328,279 329,274 329,269 330,265 331,260 333,255 334,251 335,246 337,241 338,237 339,232 341,227 342,223 344,219 346,215 348,211 350,206 352,202 354,198 356,194 358,189 361,185 363,181 365,177 367,173 369,169 372,166 375,162 377,158 380,154 383,150 386,146 389,143 393,139 396,136 399,132 402,129 405,126 408,122 411,119 414,116 418,112 422,109 425,106 428,103 432,100 436,97 440,94 444,91 448,89 452,86 456,84 459,81 463,79 467,76 471,74 475,71 480,69 484,67 488,65 493,63 497,61 501,59 505,57 509,55 514,54 519,52 523,50 528,49 533,47 537,46 542,44 547,43 551,42 556,41 561,40 566,39 571,38 576,37 580,37 585,36 589,36 594,36 599,35 604,35 610,35 615,35 620,35 625,35 630,35 635,35 640,35 645,36 650,36 655,36 660,37 665,37 670,38 675,39 679,40 684,41 689,42 694,43 699,44 704,46 708,47 713,49 717,50 721,52 726,54 731,55 735,57 740,59 744,61 748,63 753,65 757,66 761,68 766,70 770,73 774,75 778,78 782,80 785,83 789,86 793,88 797,91 801,94 805,97 808,100 812,103 816,105 819,108 823,111 826,114 829,117 832,121 836,124 839,128 842,131 845,135 848,138 851,142 855,145 858,149 861,153 863,156 866,160 869,164 871,168 874,172 876,176 879,180 881,184 883,188 885,192 887,196 889,200 892,205 894,209 896,213 897,217 899,222 901,226 902,231 904,236 905,240 907,244 908,249 909,254 910,259 911,264 912,268 913,273 914,278 915,282 915,287 916,292 916,297 917,302 917,307 917,312 917,317 917,322 917,326 917,331 917,336 917,341 916,346 916,351 915,356 915,361 914,366 913,370 912,375 911,380 910,384 909,389 908,394 907,398 905,403 904,408 903,412 901,416 900,421 898,425 896,429 894,434 892,438 890,442 888,447 886,451 883,455 881,460 879,464 876,468 874,472 872,475 869,479 867,483 864,486 861,490 858,494 855,497 853,501 850,505 847,508 843,512 840,516 837,519 834,522 831,526 828,529 824,532 820,536 817,539 814,542 810,545 806,547 802,550 798,553 795,555 791,558 787,561 783,563 779,565 774,568 771,570 767,572 763,575 759,577 754,579 749,582 745,584 741,586 736,588 732,589 728,591 723,592 719,594 714,595 709,596 705,598 700,599 695,600 691,602 686,603 681,604 676,605 671,606 666,606 662,607 657,608 652,608 647,609 642,609 636,609 631,610 626,610 621,610 616,610 611,610 606,609 601,609 596,609 591,608 586,608 582,607 577,606 572,606 567,605 563,604 558,603 553,602 548,600 543,599 538,598 534,597 529,596 524,594 520,592 515,591 511,590 507,589 502,587 498,585 494,583 489,580 485,578 481,576 476,573 472,571 468,569 464,566 460,564 457,562 453,559 449,556 445,554 441,551 437,548 434,546 430,542 426,539 423,536 419,533 415,530 412,527 409,523 406,520 403,517 399,513 396,509 393,506 390,502 387,499 384,496 381,492 378,488 376,484 373,480 370,476 368,472 365,468 363,464 361,461 359,456 357,452 355,448 352,443 350,439 348,435 346,431 344,427 343,423 341,418 340,413 338,409 337,404 336,399 335,395 333,390 332,386 330,382 329,377 329,372 328,367 327,362 327,357 326,353 326,348 325,343 325,338 325,333 324,328 324,323 Z M 382,334 C 382,337 382,341 383,345 383,348 383,352 384,356 384,360 385,364 386,368 386,371 387,375 388,379 389,382 390,386 392,390 393,393 394,397 396,401 397,404 398,407 399,411 400,414 402,417 404,421 405,424 407,427 409,431 411,434 413,437 415,441 417,444 419,447 421,451 423,454 426,457 429,460 431,462 433,465 436,468 438,471 440,474 443,477 445,479 448,482 451,485 453,487 456,490 459,493 461,495 464,497 467,500 470,502 473,504 477,507 480,509 483,511 486,514 489,516 492,518 496,520 499,521 502,523 506,525 509,527 512,529 516,531 519,532 523,533 527,535 530,536 534,537 538,539 541,540 545,541 549,542 553,543 557,544 561,546 564,546 568,547 572,548 576,549 580,550 584,551 587,551 591,551 595,552 599,552 603,552 607,553 612,553 616,553 620,553 624,553 628,553 632,553 637,552 641,552 645,552 649,551 653,551 657,551 661,550 665,549 668,549 672,548 676,547 680,547 684,545 688,544 691,543 695,542 699,541 703,540 707,538 711,537 714,536 718,534 722,532 725,531 729,529 732,527 735,525 739,523 742,521 745,520 749,518 752,516 755,514 758,512 761,510 764,508 767,505 770,503 773,501 776,498 779,496 782,494 785,491 788,488 790,486 793,483 796,480 798,478 801,475 803,472 805,469 808,466 811,463 813,461 816,457 818,454 820,451 822,448 824,445 826,442 828,439 830,436 832,433 834,429 835,426 837,423 839,419 840,416 842,413 843,409 845,405 846,402 847,398 849,395 850,392 851,388 852,384 853,381 854,377 854,373 855,370 856,366 857,362 858,358 858,354 859,350 859,346 859,342 860,338 860,335 860,331 861,327 861,323 861,319 860,315 860,312 860,308 859,304 859,300 859,296 858,292 858,288 857,284 857,280 856,276 855,272 854,268 853,265 852,261 851,257 850,254 849,250 848,246 847,243 845,239 844,236 842,233 840,229 839,226 837,223 835,219 834,216 832,213 830,209 829,206 827,203 825,200 823,197 821,194 819,191 817,188 814,185 812,182 809,179 806,176 804,173 802,171 799,168 797,165 794,163 791,160 789,157 786,155 783,152 780,150 777,147 774,145 771,143 768,140 765,138 762,136 759,134 756,132 753,130 750,128 746,126 743,124 740,122 736,120 733,118 730,117 726,115 723,113 719,112 715,110 712,108 708,107 704,105 701,104 697,103 693,102 690,101 686,100 682,99 678,98 674,97 670,96 666,95 662,95 657,94 654,94 650,93 646,93 642,93 638,92 634,92 630,92 626,91 621,91 617,91 613,91 609,91 605,92 601,92 596,93 592,93 588,94 585,94 581,95 577,95 573,96 569,97 565,98 562,99 558,100 554,100 551,101 547,102 543,104 539,105 535,107 531,108 528,110 524,111 521,113 518,114 514,116 510,117 507,119 503,121 500,123 497,125 494,127 491,129 488,131 484,133 481,135 478,137 475,139 472,142 469,144 466,146 463,149 460,151 457,153 454,156 451,158 448,161 446,164 444,167 441,170 438,172 436,175 433,178 431,181 429,184 426,187 424,190 422,193 420,196 418,199 416,202 414,205 412,208 410,212 408,215 406,218 405,222 403,225 401,228 400,232 398,235 397,239 396,243 395,246 394,250 393,254 391,257 390,260 389,264 388,267 387,271 387,275 386,278 385,282 384,286 383,290 383,294 383,298 382,302 382,306 382,310 382,314 382,318 382,322 382,326 382,330 382,334 Z"/>
   <path fill="none" stroke="rgb(0,0,255)" id="Drawing_4_0" d="M 324,323 C 324,318 325,313 325,308 325,303 326,298 326,293 327,288 327,283 328,279 329,274 329,269 330,265 331,260 333,255 334,251 335,246 337,241 338,237 339,232 341,227 342,223 344,219 346,215 348,211 350,206 352,202 354,198 356,194 358,189 361,185 363,181 365,177 367,173 369,169 372,166 375,162 377,158 380,154 383,150 386,146 389,143 393,139 396,136 399,132 402,129 405,126 408,122 411,119 414,116 418,112 422,109 425,106 428,103 432,100 436,97 440,94 444,91 448,89 452,86 456,84 459,81 463,79 467,76 471,74 475,71 480,69 484,67 488,65 493,63 497,61 501,59 505,57 509,55 514,54 519,52 523,50 528,49 533,47 537,46 542,44 547,43 551,42 556,41 561,40 566,39 571,38 576,37 580,37 585,36 589,36 594,36 599,35 604,35 610,35 615,35 620,35 625,35 630,35 635,35 640,35 645,36 650,36 655,36 660,37 665,37 670,38 675,39 679,40 684,41 689,42 694,43 699,44 704,46 708,47 713,49 717,50 721,52 726,54 731,55 735,57 740,59 744,61 748,63 753,65 757,66 761,68 766,70 770,73 774,75 778,78 782,80 785,83 789,86 793,88 797,91 801,94 805,97 808,100 812,103 816,105 819,108 823,111 826,114 829,117 832,121 836,124 839,128 842,131 845,135 848,138 851,142 855,145 858,149 861,153 863,156 866,160 869,164 871,168 874,172 876,176 879,180 881,184 883,188 885,192 887,196 889,200 892,205 894,209 896,213 897,217 899,222 901,226 902,231 904,236 905,240 907,244 908,249 909,254 910,259 911,264 912,268 913,273 914,278 915,282 915,287 916,292 916,297 917,302 917,307 917,312 917,317 917,322 917,326 917,331 917,336 917,341 916,346 916,351 915,356 915,361 914,366 913,370 912,375 911,380 910,384 909,389 908,394 907,398 905,403 904,408 903,412 901,416 900,421 898,425 896,429 894,434 892,438 890,442 888,447 886,451 883,455 881,460 879,464 876,468 874,472 872,475 869,479 867,483 864,486 861,490 858,494 855,497 853,501 850,505 847,508 843,512 840,516 837,519 834,522 831,526 828,529 824,532 820,536 817,539 814,542 810,545 806,547 802,550 798,553 795,555 791,558 787,561 783,563 779,565 774,568 771,570 767,572 763,575 759,577 754,579 749,582 745,584 741,586 736,588 732,589 728,591 723,592 719,594 714,595 709,596 705,598 700,599 695,600 691,602 686,603 681,604 676,605 671,606 666,606 662,607 657,608 652,608 647,609 642,609 636,609 631,610 626,610 621,610 616,610 611,610 606,609 601,609 596,609 591,608 586,608 582,607 577,606 572,606 567,605 563,604 558,603 553,602 548,600 543,599 538,598 534,597 529,596 524,594 520,592 515,591 511,590 507,589 502,587 498,585 494,583 489,580 485,578 481,576 476,573 472,571 468,569 464,566 460,564 457,562 453,559 449,556 445,554 441,551 437,548 434,546 430,542 426,539 423,536 419,533 415,530 412,527 409,523 406,520 403,517 399,513 396,509 393,506 390,502 387,499 384,496 381,492 378,488 376,484 373,480 370,476 368,472 365,468 363,464 361,461 359,456 357,452 355,448 352,443 350,439 348,435 346,431 344,427 343,423 341,418 340,413 338,409 337,404 336,399 335,395 333,390 332,386 330,382 329,377 329,372 328,367 327,362 327,357 326,353 326,348 325,343 325,338 325,333 324,328 324,323 Z"/>
   <path fill="none" stroke="rgb(0,0,255)" id="Drawing_4_1" d="M 382,334 C 382,337 382,341 383,345 383,348 383,352 384,356 384,360 385,364 386,368 386,371 387,375 388,379 389,382 390,386 392,390 393,393 394,397 396,401 397,404 398,407 399,411 400,414 402,417 404,421 405,424 407,427 409,431 411,434 413,437 415,441 417,444 419,447 421,451 423,454 426,457 429,460 431,462 433,465 436,468 438,471 440,474 443,477 445,479 448,482 451,485 453,487 456,490 459,493 461,495 464,497 467,500 470,502 473,504 477,507 480,509 483,511 486,514 489,516 492,518 496,520 499,521 502,523 506,525 509,527 512,529 516,531 519,532 523,533 527,535 530,536 534,537 538,539 541,540 545,541 549,542 553,543 557,544 561,546 564,546 568,547 572,548 576,549 580,550 584,551 587,551 591,551 595,552 599,552 603,552 607,553 612,553 616,553 620,553 624,553 628,553 632,553 637,552 641,552 645,552 649,551 653,551 657,551 661,550 665,549 668,549 672,548 676,547 680,547 684,545 688,544 691,543 695,542 699,541 703,540 707,538 711,537 714,536 718,534 722,532 725,531 729,529 732,527 735,525 739,523 742,521 745,520 749,518 752,516 755,514 758,512 761,510 764,508 767,505 770,503 773,501 776,498 779,496 782,494 785,491 788,488 790,486 793,483 796,480 798,478 801,475 803,472 805,469 808,466 811,463 813,461 816,457 818,454 820,451 822,448 824,445 826,442 828,439 830,436 832,433 834,429 835,426 837,423 839,419 840,416 842,413 843,409 845,405 846,402 847,398 849,395 850,392 851,388 852,384 853,381 854,377 854,373 855,370 856,366 857,362 858,358 858,354 859,350 859,346 859,342 860,338 860,335 860,331 861,327 861,323 861,319 860,315 860,312 860,308 859,304 859,300 859,296 858,292 858,288 857,284 857,280 856,276 855,272 854,268 853,265 852,261 851,257 850,254 849,250 848,246 847,243 845,239 844,236 842,233 840,229 839,226 837,223 835,219 834,216 832,213 830,209 829,206 827,203 825,200 823,197 821,194 819,191 817,188 814,185 812,182 809,179 806,176 804,173 802,171 799,168 797,165 794,163 791,160 789,157 786,155 783,152 780,150 777,147 774,145 771,143 768,140 765,138 762,136 759,134 756,132 753,130 750,128 746,126 743,124 740,122 736,120 733,118 730,117 726,115 723,113 719,112 715,110 712,108 708,107 704,105 701,104 697,103 693,102 690,101 686,100 682,99 678,98 674,97 670,96 666,95 662,95 657,94 654,94 650,93 646,93 642,93 638,92 634,92 630,92 626,91 621,91 617,91 613,91 609,91 605,92 601,92 596,93 592,93 588,94 585,94 581,95 577,95 573,96 569,97 565,98 562,99 558,100 554,100 551,101 547,102 543,104 539,105 535,107 531,108 528,110 524,111 521,113 518,114 514,116 510,117 507,119 503,121 500,123 497,125 494,127 491,129 488,131 484,133 481,135 478,137 475,139 472,142 469,144 466,146 463,149 460,151 457,153 454,156 451,158 448,161 446,164 444,167 441,170 438,172 436,175 433,178 431,181 429,184 426,187 424,190 422,193 420,196 418,199 416,202 414,205 412,208 410,212 408,215 406,218 405,222 403,225 401,228 400,232 398,235 397,239 396,243 395,246 394,250 393,254 391,257 390,260 389,264 388,267 387,271 387,275 386,278 385,282 384,286 383,290 383,294 383,298 382,302 382,306 382,310 382,314 382,318 382,322 382,326 382,330 382,334 Z"/>
   </g>
   <g>
   <path fill="rgb(0,0,255)" stroke="none" d="M 508,398 C 508,351 508,304 508,256 543,256 578,256 613,256 613,264 613,272 613,280 588,280 563,280 537,280 537,291 537,301 537,312 561,312 584,312 608,312 608,320 608,328 608,336 584,336 561,336 537,336 537,348 537,361 537,374 563,374 590,374 616,374 616,382 616,390 616,398 L 508,398 Z"/>
    <rect fill="none" stroke="none" x="508" y="256" width="110" height="143"/>
   </g>
   <g>
   <path fill="rgb(0,0,255)" stroke="none" d="M 628,398 C 628,389 628,381 628,372 653,342 678,311 703,280 681,280 659,280 637,280 637,272 637,264 637,256 671,256 706,256 740,256 740,264 740,271 740,279 714,310 689,342 663,374 690,374 716,374 743,374 743,382 743,390 743,398 L 628,398 Z"/>
    <rect fill="none" stroke="none" x="628" y="256" width="117" height="143"/>
   </g>
  </g>
 </g>
</svg>