<?xml version="1.0" encoding="UTF-8"?>

<svg version="1.2" width="150px" height="150px" viewBox="0 0 1160 1160" xmlns="http://www.w3.org/2000/svg" xmlns:xlink="http://www.w3.org/1999/xlink">
 <g visibility="visible" id="MasterSlide_1_Standard">
  <g id="DrawingGroup_1">
   <g>
   <path fill="rgb(255,153,0)" stroke="none" d="M 1126,1050 C 757,1050 388,1050 19,1050 203,733 387,417 572,100 756,417 941,733 1126,1050 Z M 986,981 C 848,741 710,502 572,262 434,502 296,741 158,981 434,981 710,981 986,981 Z"/>
    <rect fill="none" stroke="none" x="18" y="99" width="1110" height="953"/>
   </g>
   <g>
   <path fill="rgb(255,153,0)" stroke="none" d="M 410,875 C 410,807 410,738 410,670 460,670 510,670 560,670 560,681 560,693 560,704 524,704 487,704 451,704 451,719 451,735 451,750 485,750 519,750 553,750 553,761 553,773 553,784 519,784 485,784 451,784 451,803 451,822 451,840 489,840 526,840 564,840 564,852 564,863 564,875 L 410,875 Z"/>
    <rect fill="none" stroke="none" x="409" y="669" width="157" height="208"/>
   </g>
   <g>
   <path fill="rgb(255,153,0)" stroke="none" d="M 576,875 C 593,849 611,824 629,798 612,774 595,750 578,726 594,726 610,726 625,726 634,740 643,753 652,767 661,753 670,740 679,726 694,726 710,726 725,726 708,750 692,773 675,797 693,823 711,849 729,875 713,875 697,875 682,875 672,860 662,844 652,829 641,844 631,860 621,875 L 576,875 Z"/>
    <rect fill="none" stroke="none" x="575" y="726" width="156" height="151"/>
   </g>
  </g>
 </g>
</svg>