<?xml version="1.0" encoding="UTF-8"?>

<svg version="1.2" width="150px" height="150px" viewBox="0 0 1160 1160" xmlns="http://www.w3.org/2000/svg" xmlns:xlink="http://www.w3.org/1999/xlink">
 <g visibility="visible" id="MasterSlide_1_Standard">
  <g id="DrawingGroup_1">
   <g>
   <path fill="rgb(0,0,0)" stroke="none" d="M 452,685 L 482,685 C 485,685 488,686 490,687 492,688 493,690 494,693 L 521,798 C 522,803 524,810 525,817 526,813 526,810 527,807 528,804 529,801 530,798 L 561,693 C 562,691 563,689 565,687 568,686 570,685 573,685 L 583,685 C 587,685 589,685 591,687 593,688 594,690 595,693 L 627,798 C 628,801 628,804 629,807 630,810 631,813 631,817 632,813 633,810 633,807 634,804 635,801 635,798 L 662,693 C 663,691 664,689 666,687 668,686 671,685 674,685 L 702,685 648,867 616,867 580,746 C 580,744 579,743 579,741 578,739 578,737 577,735 577,737 576,739 576,741 575,743 575,744 574,746 L 538,867 506,867 452,685 Z"/>
    <rect fill="none" stroke="none" x="452" y="684" width="251" height="185"/>
   </g>
   <g>
   <path fill="rgb(255,153,0)" stroke="none" d="M 1126,1050 C 762,1050 398,1050 34,1050 216,737 398,424 581,111 762,424 944,737 1126,1050 Z M 989,982 C 853,745 717,508 581,271 444,508 307,745 171,982 444,982 716,982 989,982 Z"/>
    <rect fill="none" stroke="none" x="33" y="110" width="1095" height="942"/>
   </g>
   <g>
   <path fill="rgb(255,153,0)" stroke="none" d="M 441,594 C 541,695 642,796 742,896 734,905 726,913 717,921 616,821 516,720 415,619 423,611 432,603 441,594 Z"/>
   <path fill="none" stroke="rgb(255,153,0)" id="Drawing_2_0" d="M 441,594 C 541,695 642,796 742,896 734,905 726,913 717,921 616,821 516,720 415,619 423,611 432,603 441,594 Z"/>
   </g>
   <g>
   <path fill="rgb(255,153,0)" stroke="none" d="M 415,896 C 516,796 616,695 717,594 726,603 734,611 742,619 642,720 541,821 441,921 432,913 423,905 415,896 Z"/>
   <path fill="none" stroke="rgb(255,153,0)" id="Drawing_3_0" d="M 415,896 C 516,796 616,695 717,594 726,603 734,611 742,619 642,720 541,821 441,921 432,913 423,905 415,896 Z"/>
   </g>
  </g>
 </g>
</svg>