<?xml version="1.0" encoding="UTF-8"?>

<svg version="1.2" width="150px" height="150px" viewBox="0 0 1160 1160" xmlns="http://www.w3.org/2000/svg" xmlns:xlink="http://www.w3.org/1999/xlink">
 <g visibility="visible" id="MasterSlide_1_Standard">
  <g id="DrawingGroup_1">
   <g>
   <path fill="rgb(255,153,0)" stroke="none" d="M 50,251 C 404,251 757,251 1111,251 1111,470 1111,690 1111,909 757,909 404,909 50,909 50,690 50,470 50,251 Z M 103,883 C 94,874 86,864 77,855 413,855 748,855 1084,855 1075,864 1066,874 1057,883 1057,681 1057,480 1057,278 1066,287 1075,296 1084,305 748,305 413,305 77,305 86,296 94,287 103,278 103,480 103,681 103,883 Z"/>
   <path fill="none" stroke="rgb(255,153,0)" id="Drawing_1_0" d="M 50,251 C 404,251 757,251 1111,251 1111,470 1111,690 1111,909 757,909 404,909 50,909 50,690 50,470 50,251 Z"/>
   <path fill="none" stroke="rgb(255,153,0)" id="Drawing_1_1" d="M 103,883 C 94,874 86,864 77,855 413,855 748,855 1084,855 1075,864 1066,874 1057,883 1057,681 1057,480 1057,278 1066,287 1075,296 1084,305 748,305 413,305 77,305 86,296 94,287 103,278 103,480 103,681 103,883 Z"/>
   </g>
   <g>
   <path fill="rgb(255,153,0)" stroke="none" d="M 474,417 C 465,413 459,408 454,401 450,395 448,387 448,379 448,365 453,354 463,345 472,336 486,332 504,332 521,332 535,336 544,345 554,354 559,365 559,379 559,388 557,395 552,402 548,409 542,414 534,417 544,421 552,427 557,435 562,443 565,452 565,463 565,480 559,494 549,504 538,515 523,520 505,520 488,520 474,516 463,507 450,497 443,482 443,464 443,454 446,445 451,437 456,428 464,422 474,417 Z M 482,382 C 482,389 484,394 488,398 492,402 497,404 504,404 510,404 516,402 520,398 524,394 526,389 526,382 526,375 524,370 520,366 516,362 510,360 504,360 497,360 492,362 488,366 484,370 482,375 482,382 Z M 478,461 C 478,471 481,478 486,484 491,489 497,492 505,492 512,492 518,489 523,484 527,479 530,471 530,461 530,453 527,446 523,440 518,435 512,432 504,432 495,432 489,435 485,441 480,447 478,454 478,461 Z"/>
    <rect fill="none" stroke="none" x="443" y="331" width="123" height="191"/>
   </g>
   <g>
   <path fill="rgb(255,153,0)" stroke="none" d="M 647,332 C 665,332 679,338 689,351 701,366 707,391 707,426 707,461 701,486 689,501 679,514 665,520 647,520 629,520 614,513 603,499 592,486 587,461 587,426 587,391 593,366 605,350 615,338 629,332 647,332 Z M 647,361 C 643,361 639,362 635,365 632,368 629,373 628,380 625,389 624,404 624,426 624,448 625,462 627,471 629,479 632,484 635,487 639,489 643,491 647,491 651,491 655,489 658,487 662,484 664,479 666,472 669,463 670,448 670,426 670,404 669,389 666,381 664,373 662,368 658,365 655,362 651,361 647,361 Z"/>
    <rect fill="none" stroke="none" x="586" y="331" width="122" height="191"/>
   </g>
   <g>
   <path fill="rgb(255,153,0)" stroke="none" d="M 391,829 L 355,829 355,696 C 342,708 326,717 309,722 L 309,690 C 318,687 328,682 339,673 350,665 358,655 362,644 L 391,644 391,829 Z"/>
    <rect fill="none" stroke="none" x="308" y="643" width="84" height="188"/>
   </g>
   <g>
   <path fill="rgb(255,153,0)" stroke="none" d="M 445,680 L 445,647 567,647 567,673 C 557,682 547,696 536,715 526,733 518,753 512,774 507,794 504,813 504,829 L 470,829 C 470,803 476,777 486,751 496,724 509,701 526,680 L 445,680 Z"/>
    <rect fill="none" stroke="none" x="444" y="646" width="125" height="184"/>
   </g>
   <g>
   <path fill="rgb(255,153,0)" stroke="none" d="M 622,729 C 613,725 606,720 602,713 598,707 596,699 596,691 596,677 601,666 610,657 620,648 634,644 652,644 669,644 683,648 693,657 703,666 708,677 708,691 708,700 706,707 701,714 697,721 690,726 682,729 692,733 700,739 706,747 711,755 714,764 714,775 714,792 708,806 697,816 686,827 672,832 653,832 636,832 622,828 611,819 598,809 591,794 591,776 591,766 593,757 598,749 603,740 611,734 622,729 Z M 630,694 C 630,701 632,706 636,710 640,714 645,716 652,716 659,716 664,714 668,710 672,706 674,701 674,694 674,687 672,682 668,678 664,674 659,672 652,672 645,672 640,674 636,678 632,682 630,687 630,694 Z M 626,773 C 626,783 629,790 634,796 639,801 645,804 653,804 660,804 666,801 671,796 676,791 678,783 678,773 678,765 676,758 671,752 666,747 660,744 652,744 643,744 637,747 633,753 628,759 626,766 626,773 Z"/>
    <rect fill="none" stroke="none" x="590" y="643" width="125" height="191"/>
   </g>
   <g>
   <path fill="rgb(255,153,0)" stroke="none" d="M 738,786 L 773,783 C 773,789 776,795 779,798 783,801 787,803 793,803 801,803 807,800 812,793 817,786 821,772 822,751 813,761 802,767 788,767 774,767 761,761 750,750 740,739 734,724 734,706 734,687 740,672 751,661 762,649 777,644 794,644 813,644 829,651 841,665 853,680 859,704 859,737 859,771 853,795 840,810 827,825 811,832 791,832 776,832 764,828 755,821 746,813 740,802 738,786 Z M 819,709 C 819,698 816,689 811,682 806,676 800,673 793,673 786,673 780,675 776,681 772,686 769,694 769,706 769,718 772,727 777,732 781,738 787,741 794,741 801,741 807,738 812,733 817,727 819,719 819,709 Z"/>
    <rect fill="none" stroke="none" x="734" y="643" width="127" height="191"/>
   </g>
   <g>
   <path fill="rgb(255,153,0)" stroke="none" d="M 77,552 C 413,552 749,552 1085,552 1085,570 1085,588 1085,606 749,606 413,606 77,606 77,588 77,570 77,552 Z"/>
    <rect fill="none" stroke="none" x="76" y="552" width="1010" height="55"/>
   </g>
   <g>
   <path fill="rgb(255,153,0)" stroke="none" d="M 77,552 C 413,552 749,552 1085,552 1085,570 1085,588 1085,606 749,606 413,606 77,606 77,588 77,570 77,552 Z"/>
   <path fill="none" stroke="rgb(255,153,0)" id="Drawing_9_0" stroke-width="1" stroke-linejoin="round" d="M 77,552 C 413,552 749,552 1085,552 1085,570 1085,588 1085,606 749,606 413,606 77,606 77,588 77,570 77,552 Z"/>
   </g>
  </g>
 </g>
</svg>