<?xml version="1.0" encoding="UTF-8"?>

<svg version="1.2" width="150px" height="150px" viewBox="0 0 1160 1160" xmlns="http://www.w3.org/2000/svg" xmlns:xlink="http://www.w3.org/1999/xlink">
 <g visibility="visible" id="MasterSlide_1_Standard">
  <g id="Drawing_1">
  <path fill="rgb(255,148,21)" stroke="none" d="M 654,644 L 575,780 495,644 554,644 554,416 594,416 594,644 654,644 Z M 1127,1058 L 20,1058 575,103 1127,1058 Z M 990,979 L 575,263 159,979 990,979 Z M 828,816 L 824,816 822,816 818,816 816,816 813,817 810,817 807,819 806,819 803,820 801,821 798,822 796,824 795,825 793,826 790,827 789,830 788,831 786,833 784,834 783,837 783,839 781,842 780,844 779,846 778,849 778,851 778,854 777,857 777,860 777,863 775,866 775,869 775,872 775,873 775,875 775,877 775,879 775,880 775,882 774,883 773,885 773,886 772,887 772,889 771,890 769,891 769,892 768,893 767,894 766,895 764,896 763,896 763,897 761,897 760,898 758,899 757,899 755,900 753,900 752,900 750,901 749,901 746,901 745,901 743,901 740,901 739,901 737,900 735,900 735,900 733,899 732,899 729,898 729,897 727,897 726,896 724,896 723,895 723,894 722,893 720,892 719,891 718,890 718,889 717,887 717,886 716,885 716,883 715,882 715,880 714,879 714,877 714,875 714,873 713,872 713,869 713,866 713,863 713,860 712,857 712,854 712,851 711,849 710,846 709,844 708,842 707,839 706,837 705,834 703,833 701,831 700,830 698,827 696,826 694,825 692,824 689,822 687,821 685,820 683,819 679,819 677,817 674,817 671,816 668,816 665,816 661,816 657,816 654,816 651,816 648,816 646,816 643,817 640,817 637,819 634,819 633,820 630,821 628,822 626,824 624,825 622,826 620,827 618,830 617,831 616,833 614,834 613,837 611,839 611,842 610,844 609,846 608,849 607,851 607,854 606,857 606,860 605,863 605,866 605,869 605,872 605,873 605,875 605,877 605,879 605,880 604,882 604,883 603,885 603,886 602,887 601,889 600,890 600,891 599,892 598,893 597,894 596,895 594,896 594,896 592,897 591,897 589,898 588,899 587,899 585,900 583,900 582,900 580,901 578,901 577,901 575,901 572,901 571,901 569,901 567,900 565,900 564,900 562,899 561,899 559,898 558,897 557,897 555,896 554,896 554,895 551,894 551,893 550,892 549,891 548,890 548,889 548,887 547,886 545,885 545,883 545,882 545,880 544,879 544,877 544,875 543,873 543,872 543,869 543,866 543,863 543,860 542,857 542,854 542,851 540,849 539,846 539,844 538,842 536,839 536,837 534,834 533,833 531,831 529,830 528,827 525,826 523,825 522,824 519,822 516,821 514,820 511,819 509,819 506,817 504,817 500,816 497,816 494,816 491,816 488,816 484,816 481,816 478,816 475,816 472,817 470,817 467,819 465,819 462,820 460,821 458,822 456,824 453,825 452,826 450,827 448,830 447,831 446,833 444,834 442,837 442,839 441,842 439,844 439,846 438,849 437,851 436,854 436,857 436,860 436,863 436,866 436,869 436,872 436,873 436,875 435,877 435,879 435,880 433,882 433,883 433,885 432,886 432,887 431,889 430,890 430,891 428,892 427,893 427,894 425,895 425,896 424,896 422,897 421,897 419,898 417,899 416,899 415,900 413,900 411,900 410,901 408,901 406,901 404,901 402,901 400,901 399,901 397,900 396,900 393,900 392,899 391,899 389,898 387,897 387,897 385,896 384,896 383,895 381,894 381,893 380,892 379,891 378,890 377,889 376,887 376,886 376,885 375,883 375,882 374,880 374,879 374,877 373,875 373,873 373,872 373,869 373,866 373,863 372,860 372,857 371,854 371,851 370,849 370,846 369,844 368,842 366,839 365,837 364,834 362,833 361,831 359,830 357,827 355,826 353,825 351,824 349,822 347,821 344,820 341,819 338,819 336,817 333,817 330,816 327,816 324,816 320,816 316,816 314,816 310,816 308,816 304,816 302,817 299,817 297,819 295,819 292,820 290,821 287,822 285,824 284,825 281,826 280,827 278,828 276,830 275,832 274,833 272,836 271,838 270,840 269,842 268,845 268,848 267,850 266,853 266,856 265,859 265,862 265,865 265,868 287,868 287,866 288,865 288,862 288,861 288,859 290,857 290,856 290,855 290,853 291,853 291,850 292,850 292,849 293,848 295,846 295,845 296,845 297,844 298,843 299,843 301,842 301,842 303,842 304,840 305,839 307,839 309,839 310,839 312,839 313,839 315,839 316,839 318,839 320,839 321,839 323,839 324,839 326,840 327,840 329,842 330,842 331,843 332,844 334,845 335,845 336,846 337,848 338,849 340,850 341,851 341,853 342,855 343,856 344,859 345,860 347,862 347,865 347,866 349,868 349,870 350,873 351,875 352,878 353,879 353,882 353,885 354,887 355,890 356,892 358,894 358,896 359,898 360,900 362,902 363,903 364,905 366,907 367,908 369,909 370,911 372,913 374,913 376,914 377,915 379,916 381,917 383,918 386,919 387,919 390,920 392,920 394,920 397,921 399,921 402,921 404,921 407,921 410,921 413,921 416,920 419,920 422,919 425,919 427,918 430,917 431,916 433,915 436,913 438,913 439,911 442,911 443,908 445,907 447,905 447,902 449,901 450,899 450,896 452,894 453,891 453,889 454,886 455,884 455,881 456,879 456,875 456,872 456,868 456,867 456,865 456,863 457,862 457,860 458,859 458,857 458,856 459,854 459,853 460,851 460,850 461,849 462,848 463,848 464,846 465,845 466,845 467,844 468,843 470,842 470,842 472,842 474,840 475,839 476,839 478,839 480,839 482,839 483,839 485,839 488,839 489,839 491,839 493,839 495,839 497,839 499,839 500,840 502,840 503,842 505,842 506,842 508,843 509,844 510,845 511,845 512,846 514,848 514,849 515,850 516,851 516,853 517,854 517,855 518,856 519,859 519,860 520,862 520,863 520,865 520,867 521,869 521,871 521,874 521,877 521,880 521,883 522,885 522,888 522,891 523,893 525,896 526,897 527,900 528,902 529,903 531,905 532,907 534,908 536,911 537,912 539,913 542,914 544,915 545,916 548,918 551,919 554,919 556,919 559,920 562,920 565,921 568,921 571,921 575,921 577,921 581,921 584,921 587,920 589,920 592,919 594,919 597,918 600,917 602,916 604,915 606,913 608,913 610,911 611,911 613,908 615,907 617,905 617,902 620,901 620,899 622,896 623,894 623,891 624,889 624,886 626,884 626,881 626,879 626,875 626,872 626,868 626,867 627,865 627,863 627,862 627,860 628,859 628,857 628,856 628,854 629,853 630,851 631,850 631,849 632,848 633,848 634,846 635,845 637,845 637,844 639,843 640,842 641,842 643,842 644,840 646,839 646,839 648,839 650,839 651,839 654,839 656,839 657,839 660,839 662,839 663,839 666,839 667,839 669,839 671,840 672,840 674,842 674,842 677,842 678,843 679,844 680,845 682,845 683,846 683,848 684,849 685,850 686,851 687,853 688,854 689,855 689,856 689,859 689,860 690,862 690,863 690,865 691,867 691,869 691,871 691,874 691,877 691,880 692,883 692,885 693,888 694,891 694,893 695,896 696,897 697,900 699,902 700,903 701,905 703,907 705,908 706,911 708,912 710,913 712,914 714,915 717,916 718,918 721,919 723,919 726,919 729,920 732,920 735,921 738,921 741,921 745,921 749,921 751,921 755,921 757,920 760,920 763,919 766,919 767,918 769,917 772,916 774,915 777,913 778,913 780,911 782,911 784,908 785,907 786,905 789,902 789,901 790,899 792,896 793,894 794,891 795,889 795,886 795,884 796,881 796,879 796,875 797,872 797,868 797,867 797,865 797,863 797,862 798,860 798,859 798,857 799,856 800,854 800,853 801,851 801,850 802,849 803,848 804,848 805,846 806,845 806,845 807,844 809,843 810,842 812,842 813,842 814,840 816,839 818,839 819,839 821,839 823,839 824,839 826,839 828,839 830,839 832,839 834,839 835,839 837,839 839,839 841,839 842,840 844,842 846,842 847,842 848,843 849,843 851,844 852,845 852,845 853,846 855,848 856,849 857,850 857,850 858,853 858,853 859,855 859,856 861,857 861,859 861,861 861,862 861,865 861,866 861,868 884,868 884,865 884,862 884,859 884,856 883,853 881,850 881,848 881,845 879,842 878,840 878,838 876,836 875,833 873,832 872,830 870,828 868,827 867,826 864,825 862,824 859,822 858,821 855,820 852,819 850,819 847,817 844,817 841,816 838,816 835,816 831,816 828,816 Z"/>
  </g>
 </g>
</svg>