<?xml version="1.0" encoding="UTF-8"?>

<svg version="1.2" width="150px" height="150px" viewBox="0 0 1160 1160" xmlns="http://www.w3.org/2000/svg" xmlns:xlink="http://www.w3.org/1999/xlink">
 <g visibility="visible" id="MasterSlide_1_Standard">
  <g id="DrawingGroup_1">
   <g>
   <path fill="rgb(0,0,255)" stroke="none" d="M 355,313 C 355,535 355,758 355,980 335,980 316,980 297,980 297,758 297,535 297,313 316,313 335,313 355,313 Z"/>
   <path fill="none" stroke="rgb(0,0,255)" id="Drawing_1_0" d="M 355,313 C 355,535 355,758 355,980 335,980 316,980 297,980 297,758 297,535 297,313 316,313 335,313 355,313 Z"/>
   </g>
   <g>
   <path fill="rgb(0,0,255)" stroke="none" d="M 218,1019 L 218,1019 C 218,961 267,914 326,914 L 326,914 326,914 326,914 C 387,914 436,961 436,1019 L 436,1019 436,1019 436,1019 C 436,1077 387,1124 326,1124 L 326,1124 326,1124 326,1124 C 267,1124 218,1077 218,1019 Z"/>
    <rect fill="none" stroke="none" x="217" y="914" width="220" height="212"/>
   </g>
   <g>
   <path fill="rgb(0,0,255)" stroke="none" d="M 215,1019 C 215,1015 215,1012 215,1008 215,1005 216,1001 216,998 217,994 218,990 219,986 220,983 222,980 223,977 225,974 226,971 228,968 230,965 231,962 233,958 235,956 238,953 240,950 242,948 245,945 247,942 250,940 252,938 255,935 258,933 261,931 264,929 267,927 270,925 273,923 276,922 280,921 283,919 286,918 290,917 293,915 297,914 300,913 304,912 308,912 311,912 315,911 319,911 322,911 326,910 330,910 334,910 338,910 341,911 345,912 349,912 352,913 356,914 360,915 363,917 366,918 370,919 373,921 376,922 380,923 383,925 386,927 390,928 392,931 395,933 398,935 400,938 403,940 406,942 408,945 411,948 414,950 416,953 418,956 420,958 421,961 423,964 425,967 427,970 429,973 431,976 432,979 433,983 434,986 435,990 436,993 437,997 437,1001 437,1004 438,1008 438,1012 438,1015 439,1019 438,1023 438,1026 438,1030 437,1034 437,1037 437,1041 436,1044 435,1048 434,1051 433,1055 432,1058 431,1062 429,1065 427,1068 425,1071 423,1074 421,1077 420,1080 418,1083 416,1085 414,1088 411,1091 409,1093 407,1096 404,1098 401,1101 398,1103 395,1105 392,1108 390,1110 386,1112 383,1113 380,1115 377,1116 374,1118 371,1119 367,1120 364,1122 361,1123 357,1124 353,1125 349,1126 345,1127 341,1127 338,1128 334,1128 330,1128 327,1128 323,1128 319,1128 315,1128 311,1127 308,1127 304,1126 300,1125 297,1124 293,1123 290,1122 286,1120 283,1119 280,1118 276,1116 273,1115 270,1113 267,1112 264,1110 261,1108 259,1105 256,1103 253,1101 250,1098 247,1096 245,1093 242,1091 240,1088 238,1085 235,1083 233,1080 231,1077 230,1074 228,1071 226,1068 225,1065 223,1062 222,1058 221,1055 220,1051 219,1048 217,1044 216,1041 216,1037 215,1034 215,1030 215,1026 215,1023 215,1019 Z M 221,1029 C 222,1032 222,1036 223,1039 224,1042 225,1046 226,1049 227,1052 228,1055 229,1058 230,1061 232,1065 233,1068 235,1070 237,1073 239,1075 241,1078 243,1081 245,1084 247,1086 250,1089 252,1091 254,1093 257,1096 259,1098 262,1100 264,1102 267,1104 270,1106 273,1107 276,1109 279,1110 282,1112 285,1113 288,1114 292,1115 295,1116 298,1117 302,1118 305,1119 308,1119 312,1120 315,1120 319,1120 322,1121 326,1121 330,1121 334,1121 338,1121 341,1120 344,1120 348,1119 351,1118 354,1117 358,1116 361,1115 364,1114 367,1113 370,1112 373,1110 377,1109 379,1107 382,1106 385,1104 388,1102 391,1100 394,1098 396,1096 399,1093 402,1091 404,1089 406,1086 408,1084 410,1081 412,1079 414,1076 416,1073 418,1071 420,1068 421,1065 422,1062 424,1059 425,1056 426,1053 427,1050 428,1046 429,1043 430,1039 430,1036 430,1032 431,1029 431,1026 431,1022 432,1019 431,1016 431,1012 431,1009 431,1005 431,1002 431,998 430,995 429,992 428,989 426,986 425,983 424,980 422,977 421,973 420,970 418,968 416,966 414,963 412,960 410,957 408,954 406,952 404,950 402,947 399,945 396,943 394,940 391,938 388,936 386,934 383,933 380,931 378,929 374,928 371,927 368,925 364,924 361,923 358,922 354,921 351,920 348,919 344,919 341,918 338,917 334,917 330,917 327,917 323,917 320,917 316,917 313,918 309,919 306,919 303,920 299,921 296,922 292,923 289,924 285,925 282,927 279,928 276,929 273,931 270,933 267,934 265,936 262,938 260,940 257,943 255,945 252,947 250,950 247,952 245,954 243,957 241,960 239,962 237,965 236,967 234,970 232,973 231,976 229,979 228,982 227,985 226,988 225,991 224,995 223,998 222,1002 222,1005 221,1009 221,1012 221,1016 221,1019 221,1022 221,1026 221,1029 Z"/>
   <path fill="none" stroke="rgb(0,0,255)" id="Drawing_3_0" d="M 215,1019 C 215,1015 215,1012 215,1008 215,1005 216,1001 216,998 217,994 218,990 219,986 220,983 222,980 223,977 225,974 226,971 228,968 230,965 231,962 233,958 235,956 238,953 240,950 242,948 245,945 247,942 250,940 252,938 255,935 258,933 261,931 264,929 267,927 270,925 273,923 276,922 280,921 283,919 286,918 290,917 293,915 297,914 300,913 304,912 308,912 311,912 315,911 319,911 322,911 326,910 330,910 334,910 338,910 341,911 345,912 349,912 352,913 356,914 360,915 363,917 366,918 370,919 373,921 376,922 380,923 383,925 386,927 390,928 392,931 395,933 398,935 400,938 403,940 406,942 408,945 411,948 414,950 416,953 418,956 420,958 421,961 423,964 425,967 427,970 429,973 431,976 432,979 433,983 434,986 435,990 436,993 437,997 437,1001 437,1004 438,1008 438,1012 438,1015 439,1019 438,1023 438,1026 438,1030 437,1034 437,1037 437,1041 436,1044 435,1048 434,1051 433,1055 432,1058 431,1062 429,1065 427,1068 425,1071 423,1074 421,1077 420,1080 418,1083 416,1085 414,1088 411,1091 409,1093 407,1096 404,1098 401,1101 398,1103 395,1105 392,1108 390,1110 386,1112 383,1113 380,1115 377,1116 374,1118 371,1119 367,1120 364,1122 361,1123 357,1124 353,1125 349,1126 345,1127 341,1127 338,1128 334,1128 330,1128 327,1128 323,1128 319,1128 315,1128 311,1127 308,1127 304,1126 300,1125 297,1124 293,1123 290,1122 286,1120 283,1119 280,1118 276,1116 273,1115 270,1113 267,1112 264,1110 261,1108 259,1105 256,1103 253,1101 250,1098 247,1096 245,1093 242,1091 240,1088 238,1085 235,1083 233,1080 231,1077 230,1074 228,1071 226,1068 225,1065 223,1062 222,1058 221,1055 220,1051 219,1048 217,1044 216,1041 216,1037 215,1034 215,1030 215,1026 215,1023 215,1019 Z"/>
   <path fill="none" stroke="rgb(0,0,255)" id="Drawing_3_1" d="M 221,1029 C 222,1032 222,1036 223,1039 224,1042 225,1046 226,1049 227,1052 228,1055 229,1058 230,1061 232,1065 233,1068 235,1070 237,1073 239,1075 241,1078 243,1081 245,1084 247,1086 250,1089 252,1091 254,1093 257,1096 259,1098 262,1100 264,1102 267,1104 270,1106 273,1107 276,1109 279,1110 282,1112 285,1113 288,1114 292,1115 295,1116 298,1117 302,1118 305,1119 308,1119 312,1120 315,1120 319,1120 322,1121 326,1121 330,1121 334,1121 338,1121 341,1120 344,1120 348,1119 351,1118 354,1117 358,1116 361,1115 364,1114 367,1113 370,1112 373,1110 377,1109 379,1107 382,1106 385,1104 388,1102 391,1100 394,1098 396,1096 399,1093 402,1091 404,1089 406,1086 408,1084 410,1081 412,1079 414,1076 416,1073 418,1071 420,1068 421,1065 422,1062 424,1059 425,1056 426,1053 427,1050 428,1046 429,1043 430,1039 430,1036 430,1032 431,1029 431,1026 431,1022 432,1019 431,1016 431,1012 431,1009 431,1005 431,1002 431,998 430,995 429,992 428,989 426,986 425,983 424,980 422,977 421,973 420,970 418,968 416,966 414,963 412,960 410,957 408,954 406,952 404,950 402,947 399,945 396,943 394,940 391,938 388,936 386,934 383,933 380,931 378,929 374,928 371,927 368,925 364,924 361,923 358,922 354,921 351,920 348,919 344,919 341,918 338,917 334,917 330,917 327,917 323,917 320,917 316,917 313,918 309,919 306,919 303,920 299,921 296,922 292,923 289,924 285,925 282,927 279,928 276,929 273,931 270,933 267,934 265,936 262,938 260,940 257,943 255,945 252,947 250,950 247,952 245,954 243,957 241,960 239,962 237,965 236,967 234,970 232,973 231,976 229,979 228,982 227,985 226,988 225,991 224,995 223,998 222,1002 222,1005 221,1009 221,1012 221,1016 221,1019 221,1022 221,1026 221,1029 Z"/>
   </g>
   <g>
   <path fill="rgb(0,0,255)" stroke="none" d="M 297,313 C 297,308 297,303 297,298 298,293 298,288 299,283 300,278 300,273 301,269 302,264 302,259 303,254 304,249 306,244 307,239 308,234 310,230 311,226 312,221 314,216 315,212 317,207 319,202 321,198 323,194 324,190 326,186 328,182 330,177 333,173 335,169 338,165 341,161 343,157 346,153 349,149 351,145 354,142 357,138 360,134 363,131 366,127 369,123 372,120 375,116 378,112 381,109 385,105 388,102 392,99 396,96 399,93 403,89 407,86 410,83 414,81 418,78 422,75 426,73 430,70 434,68 438,65 442,63 446,61 450,58 455,56 459,54 463,51 467,49 471,47 476,45 481,43 485,41 490,40 495,38 499,36 503,35 508,33 513,32 518,30 523,29 527,28 532,27 537,26 542,25 547,24 552,23 557,23 562,22 567,22 572,22 577,21 582,21 587,21 592,20 597,20 602,20 607,21 612,21 618,21 623,22 628,22 633,22 638,23 642,23 648,24 653,25 658,26 663,27 668,28 672,29 677,30 682,32 686,33 691,35 696,36 700,38 705,40 710,41 714,43 719,45 723,46 727,48 732,50 736,53 740,55 744,57 748,60 752,62 757,64 761,67 765,69 769,72 773,74 776,77 780,80 784,83 788,86 792,89 796,92 799,95 803,98 807,101 810,104 814,108 817,111 820,115 823,118 826,122 829,125 832,129 835,132 838,136 841,140 843,144 846,148 849,152 851,156 854,160 857,164 859,168 862,172 864,176 867,181 869,185 871,189 873,194 875,198 877,202 878,206 880,210 882,214 883,219 885,224 886,228 888,233 889,238 890,242 892,247 893,252 894,257 894,262 895,267 896,271 896,276 897,281 898,286 898,291 899,297 899,301 899,306 899,311 899,316 899,321 899,327 898,331 898,336 897,341 896,346 896,351 895,356 894,361 894,366 893,371 892,375 890,380 889,385 888,389 886,393 885,398 884,402 882,407 881,412 879,416 877,421 875,426 873,430 871,434 869,439 867,443 865,447 863,451 860,455 858,459 855,463 852,467 850,471 847,475 844,479 842,483 839,487 836,490 833,494 830,498 827,501 824,505 821,509 818,512 815,515 811,519 808,522 804,525 800,528 797,531 793,534 789,538 786,540 782,543 778,546 774,548 770,551 766,554 762,556 758,559 754,562 750,564 746,566 741,569 737,571 733,573 729,575 725,577 720,579 715,581 711,582 706,584 701,586 697,588 693,589 688,590 683,592 678,593 673,594 669,596 664,597 659,598 654,599 649,600 644,600 639,601 634,602 629,602 624,603 619,603 613,603 609,604 604,604 599,604 594,604 588,604 582,604 578,604 573,603 569,602 564,602 559,601 554,600 549,600 544,599 539,598 534,597 529,596 525,594 520,593 515,592 510,591 505,590 500,588 496,586 491,585 487,583 483,581 478,580 473,578 469,576 464,573 460,571 456,569 451,567 447,565 443,563 439,560 435,557 431,555 427,552 423,549 420,547 416,544 412,541 408,539 404,535 400,532 397,529 393,526 389,523 386,520 383,516 380,513 377,510 373,506 370,502 367,499 364,495 361,491 358,488 355,484 352,480 349,476 346,472 344,468 342,465 339,460 336,456 334,452 331,448 329,444 327,440 325,435 323,431 321,427 319,422 318,418 316,414 314,409 313,404 311,400 310,395 308,391 307,387 306,382 304,377 303,372 302,367 302,362 301,357 300,352 300,347 299,343 298,338 298,333 297,328 297,323 297,318 297,313 Z M 355,323 C 355,327 355,331 356,335 356,339 357,343 358,347 358,350 359,354 360,358 360,361 361,365 362,369 363,373 364,377 366,381 367,384 368,388 369,392 370,395 371,399 373,403 375,406 377,409 379,413 380,416 382,419 384,423 386,426 388,429 390,433 392,436 394,439 396,442 398,445 400,448 402,451 404,454 407,457 410,460 412,463 415,466 418,469 420,471 422,474 425,477 428,479 431,482 434,485 437,487 440,490 443,493 446,495 449,497 452,499 455,501 458,503 461,506 464,508 468,510 472,512 475,513 478,515 482,517 485,519 488,521 492,523 495,524 498,526 502,528 505,529 509,530 513,532 517,533 521,534 525,536 529,537 533,538 537,539 540,539 544,540 548,541 552,542 556,543 560,544 564,544 568,545 572,546 576,546 580,546 584,546 589,546 593,546 597,546 602,546 606,546 610,546 614,546 618,546 622,546 626,545 630,544 634,544 638,543 642,542 646,542 650,541 654,540 658,540 662,538 666,537 670,536 674,535 678,534 681,533 685,531 689,529 692,528 696,526 700,524 703,523 707,521 710,519 713,518 717,516 720,514 723,513 727,510 731,508 734,506 737,504 740,502 743,500 746,497 749,495 752,493 755,490 758,488 761,486 764,483 767,480 770,478 773,475 775,472 777,470 780,467 783,464 785,462 788,458 791,455 793,452 795,449 797,446 799,443 801,440 803,437 805,434 807,430 809,427 811,424 813,420 815,417 817,414 819,410 821,407 822,404 824,400 825,396 826,393 828,389 829,385 830,382 831,378 832,374 833,371 834,367 835,363 836,360 837,356 837,352 838,348 839,344 839,340 840,337 840,333 840,329 840,325 840,321 841,317 841,313 841,309 840,305 840,301 840,297 840,293 840,289 840,285 839,281 839,277 838,273 837,269 836,266 835,262 835,258 834,255 833,251 832,247 830,244 829,240 828,236 827,233 826,229 824,225 822,222 821,218 819,214 817,211 816,208 814,205 812,202 810,198 808,195 806,192 804,189 802,185 800,182 798,179 796,176 793,173 791,170 789,167 787,164 784,161 781,159 778,156 776,153 773,150 770,147 768,144 765,142 762,139 759,137 756,134 753,132 750,130 747,127 744,125 741,123 738,120 735,118 732,116 728,114 724,112 721,110 718,109 715,107 712,105 708,103 704,101 701,100 698,98 694,97 690,95 686,94 682,92 678,91 674,89 670,88 667,87 663,87 659,86 655,85 651,84 647,83 643,82 639,81 635,80 631,80 627,79 623,79 619,79 615,78 611,78 607,78 603,78 599,78 595,78 591,78 586,78 582,78 578,79 574,79 570,79 566,80 562,80 558,81 554,81 550,82 546,83 542,84 538,85 534,86 530,87 526,88 522,89 518,91 515,92 511,93 507,95 504,96 500,98 496,99 493,101 489,103 486,104 483,106 479,108 475,109 472,111 468,113 465,116 462,118 459,120 456,122 453,124 449,126 446,129 443,131 440,134 437,136 435,139 432,141 429,144 426,146 423,149 421,152 419,155 416,158 413,160 411,163 408,166 405,169 403,172 400,175 398,178 396,181 394,184 392,188 390,191 388,194 386,197 384,200 382,203 380,206 379,210 377,213 375,217 374,221 372,224 371,227 370,231 368,234 367,238 366,242 365,245 364,249 363,253 362,256 361,260 360,264 359,268 358,272 358,276 357,279 356,283 356,287 355,291 355,295 355,299 355,303 355,307 355,311 355,315 355,319 355,323 Z"/>
   <path fill="none" stroke="rgb(0,0,255)" id="Drawing_4_0" d="M 297,313 C 297,308 297,303 297,298 298,293 298,288 299,283 300,278 300,273 301,269 302,264 302,259 303,254 304,249 306,244 307,239 308,234 310,230 311,226 312,221 314,216 315,212 317,207 319,202 321,198 323,194 324,190 326,186 328,182 330,177 333,173 335,169 338,165 341,161 343,157 346,153 349,149 351,145 354,142 357,138 360,134 363,131 366,127 369,123 372,120 375,116 378,112 381,109 385,105 388,102 392,99 396,96 399,93 403,89 407,86 410,83 414,81 418,78 422,75 426,73 430,70 434,68 438,65 442,63 446,61 450,58 455,56 459,54 463,51 467,49 471,47 476,45 481,43 485,41 490,40 495,38 499,36 503,35 508,33 513,32 518,30 523,29 527,28 532,27 537,26 542,25 547,24 552,23 557,23 562,22 567,22 572,22 577,21 582,21 587,21 592,20 597,20 602,20 607,21 612,21 618,21 623,22 628,22 633,22 638,23 642,23 648,24 653,25 658,26 663,27 668,28 672,29 677,30 682,32 686,33 691,35 696,36 700,38 705,40 710,41 714,43 719,45 723,46 727,48 732,50 736,53 740,55 744,57 748,60 752,62 757,64 761,67 765,69 769,72 773,74 776,77 780,80 784,83 788,86 792,89 796,92 799,95 803,98 807,101 810,104 814,108 817,111 820,115 823,118 826,122 829,125 832,129 835,132 838,136 841,140 843,144 846,148 849,152 851,156 854,160 857,164 859,168 862,172 864,176 867,181 869,185 871,189 873,194 875,198 877,202 878,206 880,210 882,214 883,219 885,224 886,228 888,233 889,238 890,242 892,247 893,252 894,257 894,262 895,267 896,271 896,276 897,281 898,286 898,291 899,297 899,301 899,306 899,311 899,316 899,321 899,327 898,331 898,336 897,341 896,346 896,351 895,356 894,361 894,366 893,371 892,375 890,380 889,385 888,389 886,393 885,398 884,402 882,407 881,412 879,416 877,421 875,426 873,430 871,434 869,439 867,443 865,447 863,451 860,455 858,459 855,463 852,467 850,471 847,475 844,479 842,483 839,487 836,490 833,494 830,498 827,501 824,505 821,509 818,512 815,515 811,519 808,522 804,525 800,528 797,531 793,534 789,538 786,540 782,543 778,546 774,548 770,551 766,554 762,556 758,559 754,562 750,564 746,566 741,569 737,571 733,573 729,575 725,577 720,579 715,581 711,582 706,584 701,586 697,588 693,589 688,590 683,592 678,593 673,594 669,596 664,597 659,598 654,599 649,600 644,600 639,601 634,602 629,602 624,603 619,603 613,603 609,604 604,604 599,604 594,604 588,604 582,604 578,604 573,603 569,602 564,602 559,601 554,600 549,600 544,599 539,598 534,597 529,596 525,594 520,593 515,592 510,591 505,590 500,588 496,586 491,585 487,583 483,581 478,580 473,578 469,576 464,573 460,571 456,569 451,567 447,565 443,563 439,560 435,557 431,555 427,552 423,549 420,547 416,544 412,541 408,539 404,535 400,532 397,529 393,526 389,523 386,520 383,516 380,513 377,510 373,506 370,502 367,499 364,495 361,491 358,488 355,484 352,480 349,476 346,472 344,468 342,465 339,460 336,456 334,452 331,448 329,444 327,440 325,435 323,431 321,427 319,422 318,418 316,414 314,409 313,404 311,400 310,395 308,391 307,387 306,382 304,377 303,372 302,367 302,362 301,357 300,352 300,347 299,343 298,338 298,333 297,328 297,323 297,318 297,313 Z"/>
   <path fill="none" stroke="rgb(0,0,255)" id="Drawing_4_1" d="M 355,323 C 355,327 355,331 356,335 356,339 357,343 358,347 358,350 359,354 360,358 360,361 361,365 362,369 363,373 364,377 366,381 367,384 368,388 369,392 370,395 371,399 373,403 375,406 377,409 379,413 380,416 382,419 384,423 386,426 388,429 390,433 392,436 394,439 396,442 398,445 400,448 402,451 404,454 407,457 410,460 412,463 415,466 418,469 420,471 422,474 425,477 428,479 431,482 434,485 437,487 440,490 443,493 446,495 449,497 452,499 455,501 458,503 461,506 464,508 468,510 472,512 475,513 478,515 482,517 485,519 488,521 492,523 495,524 498,526 502,528 505,529 509,530 513,532 517,533 521,534 525,536 529,537 533,538 537,539 540,539 544,540 548,541 552,542 556,543 560,544 564,544 568,545 572,546 576,546 580,546 584,546 589,546 593,546 597,546 602,546 606,546 610,546 614,546 618,546 622,546 626,545 630,544 634,544 638,543 642,542 646,542 650,541 654,540 658,540 662,538 666,537 670,536 674,535 678,534 681,533 685,531 689,529 692,528 696,526 700,524 703,523 707,521 710,519 713,518 717,516 720,514 723,513 727,510 731,508 734,506 737,504 740,502 743,500 746,497 749,495 752,493 755,490 758,488 761,486 764,483 767,480 770,478 773,475 775,472 777,470 780,467 783,464 785,462 788,458 791,455 793,452 795,449 797,446 799,443 801,440 803,437 805,434 807,430 809,427 811,424 813,420 815,417 817,414 819,410 821,407 822,404 824,400 825,396 826,393 828,389 829,385 830,382 831,378 832,374 833,371 834,367 835,363 836,360 837,356 837,352 838,348 839,344 839,340 840,337 840,333 840,329 840,325 840,321 841,317 841,313 841,309 840,305 840,301 840,297 840,293 840,289 840,285 839,281 839,277 838,273 837,269 836,266 835,262 835,258 834,255 833,251 832,247 830,244 829,240 828,236 827,233 826,229 824,225 822,222 821,218 819,214 817,211 816,208 814,205 812,202 810,198 808,195 806,192 804,189 802,185 800,182 798,179 796,176 793,173 791,170 789,167 787,164 784,161 781,159 778,156 776,153 773,150 770,147 768,144 765,142 762,139 759,137 756,134 753,132 750,130 747,127 744,125 741,123 738,120 735,118 732,116 728,114 724,112 721,110 718,109 715,107 712,105 708,103 704,101 701,100 698,98 694,97 690,95 686,94 682,92 678,91 674,89 670,88 667,87 663,87 659,86 655,85 651,84 647,83 643,82 639,81 635,80 631,80 627,79 623,79 619,79 615,78 611,78 607,78 603,78 599,78 595,78 591,78 586,78 582,78 578,79 574,79 570,79 566,80 562,80 558,81 554,81 550,82 546,83 542,84 538,85 534,86 530,87 526,88 522,89 518,91 515,92 511,93 507,95 504,96 500,98 496,99 493,101 489,103 486,104 483,106 479,108 475,109 472,111 468,113 465,116 462,118 459,120 456,122 453,124 449,126 446,129 443,131 440,134 437,136 435,139 432,141 429,144 426,146 423,149 421,152 419,155 416,158 413,160 411,163 408,166 405,169 403,172 400,175 398,178 396,181 394,184 392,188 390,191 388,194 386,197 384,200 382,203 380,206 379,210 377,213 375,217 374,221 372,224 371,227 370,231 368,234 367,238 366,242 365,245 364,249 363,253 362,256 361,260 360,264 359,268 358,272 358,276 357,279 356,283 356,287 355,291 355,295 355,299 355,303 355,307 355,311 355,315 355,319 355,323 Z"/>
   </g>
   <g>
   <path fill="rgb(0,0,255)" stroke="none" d="M 461,332 L 461,307 523,307 523,365 C 517,371 508,376 497,381 486,385 474,387 462,387 448,387 435,384 424,378 413,372 404,362 399,351 393,339 390,326 390,312 390,297 394,283 400,272 406,260 415,251 427,244 436,240 447,237 461,237 478,237 492,241 502,249 512,256 518,267 521,280 L 493,285 C 491,278 487,273 481,268 476,264 469,262 461,262 448,262 438,266 431,274 424,283 420,295 420,311 420,328 424,341 431,349 439,358 448,362 461,362 467,362 473,361 479,359 485,356 490,353 494,350 L 494,332 461,332 Z"/>
    <rect fill="none" stroke="none" x="390" y="237" width="135" height="152"/>
   </g>
   <g>
   <path fill="rgb(0,0,255)" stroke="none" d="M 552,385 C 552,337 552,288 552,240 584,240 616,240 649,240 649,248 649,256 649,264 626,264 603,264 580,264 580,276 580,287 580,299 600,299 620,299 639,299 639,307 639,315 639,323 620,323 600,323 580,323 580,344 580,364 580,385 L 552,385 Z"/>
    <rect fill="none" stroke="none" x="551" y="239" width="99" height="147"/>
   </g>
   <g>
   <path fill="rgb(0,0,255)" stroke="none" d="M 667,313 C 667,298 669,286 673,276 676,269 681,262 686,256 692,250 698,246 705,243 713,239 724,237 735,237 756,237 773,244 785,257 798,270 804,289 804,313 804,336 798,354 785,368 773,381 756,387 735,387 714,387 698,381 685,368 673,355 667,336 667,313 Z M 696,312 C 696,329 700,341 707,350 715,358 724,362 735,362 747,362 756,358 763,350 771,341 774,329 774,312 774,295 771,283 764,275 757,266 747,262 735,262 724,262 714,266 707,275 700,283 696,296 696,312 Z"/>
    <rect fill="none" stroke="none" x="666" y="237" width="140" height="152"/>
   </g>
  </g>
 </g>
</svg>