<?xml version="1.0" encoding="UTF-8"?>

<svg version="1.2" width="150px" height="150px" viewBox="0 0 1160 1160" xmlns="http://www.w3.org/2000/svg" xmlns:xlink="http://www.w3.org/1999/xlink">
 <g visibility="visible" id="MasterSlide_1_Standard">
  <g id="Drawing_1">
  <path fill="rgb(0,0,255)" stroke="rgb(0,0,255)" d="M 304,849 L 304,834 305,821 307,807 310,793 313,781 316,767 320,754 325,742 331,730 336,718 343,706 351,695 358,685 366,674 374,665 384,655 393,646 403,637 413,630 424,622 435,615 447,608 458,602 470,596 483,592 495,588 508,584 522,580 535,578 549,576 562,575 576,575 590,575 604,576 618,578 631,580 644,584 657,587 670,591 682,596 695,601 706,607 718,614 729,621 740,628 750,637 760,645 769,654 778,663 787,674 795,684 803,695 810,706 816,717 823,728 828,741 833,753 837,765 841,779 844,791 846,805 848,818 850,833 850,847 850,860 849,875 846,888 845,902 841,915 838,928 834,940 829,953 824,965 817,977 811,988 804,999 796,1010 788,1020 779,1031 771,1040 761,1049 751,1057 741,1066 730,1073 719,1080 708,1087 696,1093 684,1099 671,1104 659,1108 646,1111 633,1115 619,1117 606,1119 592,1120 578,1121 564,1120 550,1119 537,1117 522,1115 510,1112 496,1108 484,1104 472,1100 459,1094 448,1088 437,1081 426,1074 415,1067 404,1058 395,1050 384,1041 376,1031 367,1021 359,1011 352,1001 344,990 337,978 331,967 326,955 321,942 317,930 313,917 310,903 308,890 306,876 304,862 304,849 Z M 371,857 L 372,868 373,878 374,888 377,898 379,908 383,918 386,927 390,936 395,945 400,954 405,962 411,970 417,978 423,986 431,993 437,999 445,1006 453,1012 461,1018 469,1024 478,1029 487,1033 495,1037 506,1041 515,1044 524,1047 535,1050 544,1052 555,1052 565,1053 576,1054 587,1053 597,1053 607,1052 618,1050 628,1047 638,1045 648,1041 656,1038 666,1034 675,1030 684,1025 692,1019 700,1014 708,1007 715,1001 723,994 729,987 736,979 742,972 748,963 753,955 758,946 763,938 767,929 771,919 774,910 777,900 779,890 781,880 782,870 783,859 783,849 783,838 782,828 782,817 780,807 777,797 775,787 772,777 767,768 764,759 759,750 754,741 749,733 743,725 737,717 730,710 724,702 717,695 709,689 702,683 693,677 685,672 676,667 667,662 658,658 649,654 639,651 629,648 619,646 609,644 599,642 589,642 578,641 567,642 557,642 546,643 536,645 527,648 517,650 506,653 497,657 488,661 480,666 470,671 462,676 454,682 446,688 439,695 432,701 425,708 418,716 412,723 406,732 400,740 396,749 391,757 387,766 384,776 380,786 377,795 375,805 373,815 372,826 371,836 370,847 371,857 Z"/>
  <path fill="rgb(0,0,255)" stroke="rgb(0,0,255)" d="M 533,601 L 534,20 601,20 600,601 Z"/>
  <path fill="rgb(0,0,255)" stroke="rgb(0,0,255)" d="M 540,20 L 745,20 745,86 540,86 Z"/>
  </g>
 </g>
</svg>