<?xml version="1.0" encoding="UTF-8"?>

<svg version="1.2" width="150px" height="150px" viewBox="0 0 1160 1160" xmlns="http://www.w3.org/2000/svg" xmlns:xlink="http://www.w3.org/1999/xlink">
 <g visibility="visible" id="MasterSlide_1_Standard">
  <g id="DrawingGroup_1">
   <g>
   <path fill="rgb(0,0,255)" stroke="none" d="M 580,101 C 739,261 899,421 1058,581 899,741 740,901 582,1060 422,900 262,740 103,580 262,421 421,261 580,101 Z M 181,606 C 181,589 181,572 181,554 323,697 465,839 607,981 590,981 573,981 556,981 697,839 839,697 980,555 980,573 980,590 980,607 838,465 696,322 554,180 571,180 588,180 605,180 464,322 322,464 181,606 Z"/>
   <path fill="none" stroke="rgb(0,0,255)" id="Drawing_1_0" d="M 580,101 C 739,261 899,421 1058,581 899,741 740,901 582,1060 422,900 262,740 103,580 262,421 421,261 580,101 Z"/>
   <path fill="none" stroke="rgb(0,0,255)" id="Drawing_1_1" d="M 181,606 C 181,589 181,572 181,554 323,697 465,839 607,981 590,981 573,981 556,981 697,839 839,697 980,555 980,573 980,590 980,607 838,465 696,322 554,180 571,180 588,180 605,180 464,322 322,464 181,606 Z"/>
   </g>
   <g>
   <path fill="rgb(0,0,255)" stroke="none" d="M 548,428 C 548,401 548,374 548,346 571,346 595,346 618,346 618,374 618,401 618,428 L 548,428 Z M 548,806 C 548,695 548,584 548,473 571,473 595,473 618,473 618,584 618,695 618,806 L 548,806 Z"/>
    <rect fill="none" stroke="none" x="547" y="346" width="72" height="461"/>
   </g>
  </g>
 </g>
</svg>