<?xml version="1.0" encoding="UTF-8"?>

<svg version="1.2" width="150px" height="150px" viewBox="0 0 1160 1160" xmlns="http://www.w3.org/2000/svg" xmlns:xlink="http://www.w3.org/1999/xlink">
 <g visibility="visible" id="MasterSlide_1_Standard">
  <g id="Drawing_1">
  <path fill="rgb(255,0,0)" stroke="none" d="M 1065,933 L 1065,933 C 957,967 816,829 749,624 683,418 716,223 823,188 823,188 823,188 823,188 L 823,188 823,188 C 778,413 875,737 1041,910 1050,918 1057,925 1065,933 Z"/>
  <path fill="rgb(255,0,0)" stroke="none" d="M 94,931 L 94,931 C 190,964 323,824 393,620 462,415 441,222 345,190 345,190 345,190 345,190 L 345,190 345,190 C 389,376 309,674 168,854 144,885 119,910 94,931 Z"/>
  <path fill="rgb(255,0,0)" stroke="none" d="M 367,192 L 493,191 493,578 367,578 367,192 Z"/>
  <path fill="rgb(255,0,0)" stroke="none" d="M 666,190 L 666,576 787,576 787,190 666,190 Z"/>
  <path fill="rgb(255,0,0)" stroke="none" d="M 721,190 L 824,188 819,211 722,211 721,190 Z"/>
  <path fill="rgb(255,0,0)" stroke="none" d="M 345,190 L 445,192 445,208 355,208 345,190 Z"/>
  <path fill="rgb(255,0,0)" stroke="none" d="M 493,191 L 493,191 C 456,197 445,329 469,487 494,644 545,767 583,761 583,761 583,761 583,761 L 583,761 583,761 C 530,590 495,370 493,191 Z"/>
  <path fill="rgb(255,0,0)" stroke="none" d="M 573,759 L 573,759 C 611,765 663,643 689,486 714,328 704,196 666,190 666,190 666,190 666,190 L 666,190 666,190 C 670,363 631,597 573,759 Z"/>
  <path fill="rgb(255,0,0)" stroke="none" d="M 625,578 L 625,578 C 625,663 604,732 581,732 557,732 537,663 537,578 537,578 537,578 537,578 L 537,578 537,578 C 555,663 589,680 614,616 618,605 621,592 625,578 Z"/>
  <path fill="rgb(255,0,0)" stroke="none" d="M 147,988 L 147,988 C 147,812 340,669 579,669 818,669 1012,812 1012,988 1012,988 1012,988 1012,988 L 1012,988 1012,988 C 895,812 607,739 368,825 271,860 194,917 147,988 Z"/>
  <path fill="rgb(255,0,0)" stroke="none" d="M 148,898 L 185,938 150,970 113,930 Z"/>
  <path fill="rgb(255,0,0)" stroke="none" d="M 144,991 L 144,991 C 126,972 110,951 91,933 L 91,933 116,912 185,940 144,991 Z"/>
  <path fill="rgb(255,0,0)" stroke="none" d="M 1012,987 L 1012,987 C 1030,970 1046,950 1065,933 L 1065,933 1038,907 968,928 1012,987 Z"/>
  <path fill="rgb(255,0,0)" stroke="none" d="M 792,750 L 792,750 C 791,689 778,627 777,565 L 777,565 653,565 622,737 792,750 Z"/>
  <path fill="rgb(255,0,0)" stroke="none" d="M 530,750 L 530,750 C 529,689 514,627 513,565 L 513,565 378,565 345,737 530,750 Z"/>
  <path fill="rgb(255,0,0)" stroke="rgb(255,0,0)" d="M 23,30 L 1132,30 1132,1140 23,1140 23,30 Z M 67,1118 L 45,1096 1110,1096 1088,1118 1088,52 1110,74 45,74 67,52 67,1118 Z"/>
  </g>
 </g>
</svg>