<?xml version="1.0" encoding="UTF-8"?>

<svg version="1.2" width="150px" height="150px" viewBox="0 0 1160 1160" xmlns="http://www.w3.org/2000/svg" xmlns:xlink="http://www.w3.org/1999/xlink">
 <g visibility="visible" id="MasterSlide_1_Standard">
  <g id="Drawing_1">
  <path fill="rgb(0,0,255)" stroke="rgb(0,0,255)" d="M 208,31 L 909,31 909,1088 208,1088 208,31 Z M 290,1047 L 250,1005 868,1005 827,1047 827,73 868,113 250,113 290,73 290,1047 Z"/>
  <path fill="rgb(0,0,255)" stroke="none" d="M 271,585 L 836,585 836,639 271,639 271,585 Z"/>
  <path stroke-width="1" fill="none" stroke="rgb(0,0,255)" d="M 271,585 L 836,585 836,639 271,639 271,585 Z"/>
  <path fill="rgb(0,0,255)" stroke="none" d="M 275,459 L 839,459 839,513 275,513 275,459 Z"/>
  <path stroke-width="1" fill="none" stroke="rgb(0,0,255)" d="M 275,459 L 839,459 839,513 275,513 275,459 Z"/>
  <path fill="rgb(0,0,255)" stroke="none" d="M 341,784 L 341,784 C 341,765 356,750 375,750 375,750 375,750 375,750 L 375,750 375,750 C 394,750 408,765 408,784 408,784 408,784 408,784 L 408,784 408,784 C 408,803 394,818 375,818 375,818 375,818 375,818 L 375,818 375,818 C 356,818 341,803 341,784 341,784 341,784 341,784 Z"/>
  <path fill="rgb(0,0,255)" stroke="rgb(0,0,255)" d="M 338,785 L 338,785 C 338,785 338,784 338,784 L 338,777 338,777 C 338,777 338,777 338,777 L 340,770 340,770 C 340,770 340,769 341,769 L 348,758 348,758 C 348,758 349,758 349,757 L 360,750 360,750 C 360,750 360,750 361,750 L 367,747 367,747 C 368,747 368,747 368,747 L 375,747 375,747 C 375,746 375,746 375,747 L 382,747 382,747 C 382,747 383,747 383,747 L 389,750 389,750 C 390,750 390,750 390,750 L 401,757 401,757 C 402,758 402,758 402,759 L 409,769 409,769 C 409,769 409,770 409,770 L 412,777 412,777 C 412,777 412,777 412,777 L 412,784 412,784 C 412,784 412,785 412,785 L 412,792 412,792 C 412,792 412,792 412,792 L 409,799 409,799 C 409,799 409,799 409,799 L 402,811 402,811 C 402,812 402,812 401,812 L 390,819 390,819 C 390,819 390,819 389,819 L 383,821 383,821 C 383,821 382,821 382,821 L 375,822 375,822 C 375,822 375,822 375,822 L 368,821 368,821 C 368,821 368,821 367,821 L 361,819 361,819 C 360,819 360,819 360,819 L 349,812 349,812 C 349,812 348,812 348,811 L 341,799 341,799 C 340,799 340,799 340,799 L 338,792 338,792 C 338,792 338,792 338,792 L 338,785 Z M 345,791 L 345,791 345,790 347,797 347,795 354,807 353,806 364,813 363,812 369,814 369,814 375,815 375,815 382,814 381,814 387,812 386,813 397,806 396,807 404,796 403,797 404,790 404,791 405,784 406,785 404,778 404,779 403,772 404,773 396,762 397,763 386,756 387,756 381,755 382,755 375,754 375,754 369,755 369,755 363,756 364,756 353,763 354,762 347,773 347,772 345,779 345,778 344,785 344,784 345,791 Z"/>
  <path fill="rgb(0,0,255)" stroke="none" d="M 720,784 L 720,784 C 720,765 735,750 754,750 754,750 754,750 754,750 L 754,750 754,750 C 772,750 788,765 788,784 788,784 788,784 788,784 L 788,784 788,784 C 788,803 772,818 754,818 754,818 754,818 754,818 L 754,818 754,818 C 735,818 720,803 720,784 720,784 720,784 720,784 Z"/>
  <path fill="rgb(0,0,255)" stroke="rgb(0,0,255)" d="M 716,785 L 716,785 C 716,785 716,784 717,784 L 717,777 717,777 C 717,777 717,777 717,777 L 719,770 719,770 C 719,770 719,769 720,769 L 727,758 727,758 C 728,758 728,758 728,757 L 739,750 739,750 C 739,750 740,750 740,750 L 746,747 746,747 C 746,747 746,747 747,747 L 754,747 754,747 C 754,746 754,746 754,747 L 762,747 762,747 C 762,747 762,747 762,747 L 768,750 768,750 C 768,750 769,750 769,750 L 780,757 780,757 C 780,758 781,758 781,759 L 789,769 789,769 C 789,769 789,770 789,770 L 791,777 791,777 C 791,777 791,777 791,777 L 791,784 791,784 C 791,784 791,785 791,785 L 791,792 791,792 C 791,792 791,792 791,792 L 789,799 789,799 C 789,799 789,799 789,799 L 781,811 781,811 C 781,812 780,812 780,812 L 769,819 769,819 C 769,819 768,819 768,819 L 762,821 762,821 C 762,821 762,821 762,821 L 754,822 754,822 C 754,822 754,822 754,822 L 747,821 747,821 C 746,821 746,821 746,821 L 740,819 740,819 C 740,819 739,819 739,819 L 728,812 728,812 C 728,812 728,812 727,811 L 720,799 720,799 C 719,799 719,799 719,799 L 717,792 717,792 C 717,792 717,792 717,792 L 716,785 Z M 724,791 L 724,791 724,790 726,797 726,795 733,807 732,806 743,813 741,812 749,814 748,814 754,815 754,815 761,814 760,814 767,812 766,813 776,806 776,807 782,796 782,797 784,790 784,791 785,784 785,785 784,778 784,779 782,772 782,773 776,762 776,763 765,756 767,756 760,755 761,755 754,754 754,754 748,755 749,755 741,756 743,756 732,763 733,762 726,773 726,772 724,779 724,778 723,785 723,784 724,791 Z"/>
  <path fill="rgb(0,0,255)" stroke="rgb(0,0,255)" d="M 448,807 L 448,807 461,785 574,958 551,958 666,785 677,807 448,807 Z M 677,779 L 677,779 C 682,779 687,782 690,786 693,791 693,797 689,801 L 574,974 574,974 C 572,978 567,980 562,980 558,980 553,978 551,974 L 436,801 436,801 C 434,797 434,791 435,786 439,782 443,779 448,779 L 677,779 Z"/>
  <path fill="rgb(0,0,255)" stroke="none" d="M 426,755 L 358,662 381,645 449,738 426,755 Z"/>
  <path stroke-width="1" fill="none" stroke="rgb(0,0,255)" d="M 426,755 L 358,662 381,645 449,738 426,755 Z"/>
  <path fill="rgb(0,0,255)" stroke="none" d="M 673,735 L 741,645 763,662 696,753 673,735 Z"/>
  <path stroke-width="1" fill="none" stroke="rgb(0,0,255)" d="M 673,735 L 741,645 763,662 696,753 673,735 Z"/>
  <path fill="rgb(0,0,255)" stroke="none" d="M 426,729 L 697,725 697,754 427,758 426,729 Z"/>
  <path stroke-width="1" fill="none" stroke="rgb(0,0,255)" d="M 426,729 L 697,725 697,754 427,758 426,729 Z"/>
  </g>
 </g>
</svg>