<?xml version="1.0" encoding="UTF-8"?>

<svg version="1.2" width="150px" height="150px" viewBox="0 0 1160 1160" xmlns="http://www.w3.org/2000/svg" xmlns:xlink="http://www.w3.org/1999/xlink">
 <g visibility="visible" id="MasterSlide_1_Standard">
  <g id="Drawing_1">
  <path fill="rgb(255,0,0)" stroke="none" d="M 555,571 L 489,618 431,605 371,568 361,519 370,489 370,493 370,467 392,435 478,386 492,410 409,457 413,454 394,479 397,472 397,495 388,523 389,517 397,557 390,548 444,581 440,579 488,590 477,593 539,549 Z"/>
  <path fill="none" stroke="rgb(255,0,0)" d="M 555,571 L 489,618 431,605 371,568 361,519 370,489 370,493 370,467 392,435 478,386 492,410 409,457 413,454 394,479 397,472 397,495 388,523 389,517 397,557 390,548 444,581 440,579 488,590 477,593 539,549 Z"/>
  <path fill="rgb(255,0,0)" stroke="none" d="M 25,23 L 1127,23 1127,1125 25,1125 25,23 Z M 67,1104 L 46,1083 1105,1083 1084,1104 1084,44 1105,66 46,66 67,44 67,1104 Z"/>
  <path fill="none" stroke="rgb(255,0,0)" d="M 25,23 L 1127,23 1127,1125 25,1125 25,23 Z M 67,1104 L 46,1083 1105,1083 1084,1104 1084,44 1105,66 46,66 67,44 67,1104 Z"/>
  <path fill="rgb(255,0,0)" stroke="none" d="M 264,862 L 270,865 274,868 278,871 282,875 286,878 289,882 293,885 296,890 299,893 302,897 304,901 307,906 309,910 311,915 312,919 314,923 316,928 317,933 318,938 318,942 318,947 318,951 318,956 318,960 318,965 316,970 315,975 313,979 311,984 309,988 307,992 304,996 305,993 303,997 301,1002 298,1007 296,1011 292,1015 289,1019 285,1023 281,1026 277,1029 273,1032 269,1034 264,1037 259,1039 255,1041 250,1044 245,1044 240,1046 235,1047 230,1048 225,1049 220,1049 215,1049 209,1049 204,1049 199,1048 194,1046 189,1045 183,1044 178,1042 173,1039 169,1037 163,1034 158,1032 154,1028 150,1025 147,1022 142,1018 139,1015 136,1012 132,1007 129,1003 126,999 124,995 121,991 119,986 117,981 115,977 114,972 112,967 111,963 110,958 110,953 110,948 110,943 110,938 110,933 111,928 112,922 113,917 115,912 116,907 119,903 121,898 124,894 123,895 125,891 127,885 130,881 133,877 137,873 140,869 144,866 147,863 152,860 156,858 161,855 165,853 170,851 174,850 179,848 185,848 190,847 195,846 200,846 205,846 210,846 215,846 220,847 225,848 230,848 236,849 241,851 246,853 250,855 255,857 260,859 264,862 Z M 246,885 L 247,885 243,884 243,884 238,882 239,882 235,880 236,880 231,880 232,880 227,878 228,878 223,877 224,877 220,876 221,876 216,876 217,876 212,875 212,875 208,875 209,875 204,875 205,875 201,875 201,875 197,875 197,875 193,876 194,875 190,876 190,876 186,877 187,877 183,878 184,878 179,880 180,879 176,880 177,880 174,882 174,881 170,884 171,883 168,885 169,885 165,887 166,886 163,889 163,888 160,891 161,891 158,893 158,892 156,896 157,895 154,898 155,897 153,901 153,900 151,904 152,903 150,907 147,912 147,912 145,916 146,915 144,919 144,918 142,922 142,922 142,926 142,925 141,929 141,928 140,933 140,933 139,937 140,936 139,940 139,939 139,944 139,943 139,947 139,946 139,950 139,949 140,954 140,953 140,957 140,957 141,960 141,960 142,964 142,964 143,967 143,967 144,970 144,970 146,974 146,973 147,977 147,976 149,981 149,980 151,983 151,983 153,986 153,986 155,989 155,989 158,992 158,991 160,995 160,995 163,997 163,997 166,1000 165,1000 169,1002 169,1002 172,1005 172,1005 175,1007 175,1007 179,1009 179,1009 182,1012 182,1011 185,1013 185,1013 190,1014 189,1014 193,1016 192,1016 196,1017 195,1017 201,1018 200,1018 204,1018 203,1018 207,1019 207,1019 211,1019 211,1019 215,1019 215,1019 219,1019 218,1019 222,1019 222,1019 227,1018 226,1018 230,1018 229,1018 234,1018 233,1018 238,1017 237,1017 241,1015 240,1015 244,1014 243,1014 248,1013 247,1013 251,1011 250,1012 254,1009 254,1010 257,1007 256,1007 259,1005 259,1006 263,1003 262,1004 265,1001 264,1002 268,998 267,999 270,996 270,997 272,993 271,994 274,991 273,991 275,987 275,988 277,985 276,986 279,981 282,975 281,976 284,973 283,974 285,970 285,971 286,968 286,969 287,965 286,966 288,962 287,963 288,960 288,960 289,956 289,957 289,954 289,954 289,950 289,951 289,948 289,949 289,944 289,945 288,942 289,942 288,938 288,939 287,935 287,936 286,932 286,933 286,929 286,929 284,926 284,927 282,922 283,923 280,919 281,920 279,917 280,917 277,913 277,914 275,911 275,911 273,907 273,908 270,905 270,905 268,901 269,902 265,899 265,900 262,896 263,897 259,894 259,895 256,891 257,892 253,890 254,890 249,887 250,888 246,885 Z"/>
  <path fill="none" stroke="rgb(255,0,0)" d="M 264,862 L 270,865 274,868 278,871 282,875 286,878 289,882 293,885 296,890 299,893 302,897 304,901 307,906 309,910 311,915 312,919 314,923 316,928 317,933 318,938 318,942 318,947 318,951 318,956 318,960 318,965 316,970 315,975 313,979 311,984 309,988 307,992 304,996 305,993 303,997 301,1002 298,1007 296,1011 292,1015 289,1019 285,1023 281,1026 277,1029 273,1032 269,1034 264,1037 259,1039 255,1041 250,1044 245,1044 240,1046 235,1047 230,1048 225,1049 220,1049 215,1049 209,1049 204,1049 199,1048 194,1046 189,1045 183,1044 178,1042 173,1039 169,1037 163,1034 158,1032 154,1028 150,1025 147,1022 142,1018 139,1015 136,1012 132,1007 129,1003 126,999 124,995 121,991 119,986 117,981 115,977 114,972 112,967 111,963 110,958 110,953 110,948 110,943 110,938 110,933 111,928 112,922 113,917 115,912 116,907 119,903 121,898 124,894 123,895 125,891 127,885 130,881 133,877 137,873 140,869 144,866 147,863 152,860 156,858 161,855 165,853 170,851 174,850 179,848 185,848 190,847 195,846 200,846 205,846 210,846 215,846 220,847 225,848 230,848 236,849 241,851 246,853 250,855 255,857 260,859 264,862 Z M 246,885 L 247,885 243,884 243,884 238,882 239,882 235,880 236,880 231,880 232,880 227,878 228,878 223,877 224,877 220,876 221,876 216,876 217,876 212,875 212,875 208,875 209,875 204,875 205,875 201,875 201,875 197,875 197,875 193,876 194,875 190,876 190,876 186,877 187,877 183,878 184,878 179,880 180,879 176,880 177,880 174,882 174,881 170,884 171,883 168,885 169,885 165,887 166,886 163,889 163,888 160,891 161,891 158,893 158,892 156,896 157,895 154,898 155,897 153,901 153,900 151,904 152,903 150,907 147,912 147,912 145,916 146,915 144,919 144,918 142,922 142,922 142,926 142,925 141,929 141,928 140,933 140,933 139,937 140,936 139,940 139,939 139,944 139,943 139,947 139,946 139,950 139,949 140,954 140,953 140,957 140,957 141,960 141,960 142,964 142,964 143,967 143,967 144,970 144,970 146,974 146,973 147,977 147,976 149,981 149,980 151,983 151,983 153,986 153,986 155,989 155,989 158,992 158,991 160,995 160,995 163,997 163,997 166,1000 165,1000 169,1002 169,1002 172,1005 172,1005 175,1007 175,1007 179,1009 179,1009 182,1012 182,1011 185,1013 185,1013 190,1014 189,1014 193,1016 192,1016 196,1017 195,1017 201,1018 200,1018 204,1018 203,1018 207,1019 207,1019 211,1019 211,1019 215,1019 215,1019 219,1019 218,1019 222,1019 222,1019 227,1018 226,1018 230,1018 229,1018 234,1018 233,1018 238,1017 237,1017 241,1015 240,1015 244,1014 243,1014 248,1013 247,1013 251,1011 250,1012 254,1009 254,1010 257,1007 256,1007 259,1005 259,1006 263,1003 262,1004 265,1001 264,1002 268,998 267,999 270,996 270,997 272,993 271,994 274,991 273,991 275,987 275,988 277,985 276,986 279,981 282,975 281,976 284,973 283,974 285,970 285,971 286,968 286,969 287,965 286,966 288,962 287,963 288,960 288,960 289,956 289,957 289,954 289,954 289,950 289,951 289,948 289,949 289,944 289,945 288,942 289,942 288,938 288,939 287,935 287,936 286,932 286,933 286,929 286,929 284,926 284,927 282,922 283,923 280,919 281,920 279,917 280,917 277,913 277,914 275,911 275,911 273,907 273,908 270,905 270,905 268,901 269,902 265,899 265,900 262,896 263,897 259,894 259,895 256,891 257,892 253,890 254,890 249,887 250,888 246,885 Z"/>
  <path fill="rgb(255,0,0)" stroke="none" d="M 902,117 L 906,115 910,112 914,111 919,109 924,107 929,106 933,106 938,105 943,105 947,104 952,105 956,105 961,106 966,106 971,108 975,109 979,111 984,113 988,115 993,117 996,120 1000,123 1004,126 1008,129 1012,133 1015,137 1019,141 1021,144 1025,149 1027,154 1031,159 1033,163 1032,163 1035,167 1037,171 1039,175 1041,180 1042,185 1043,190 1044,194 1045,199 1046,203 1046,208 1046,213 1046,217 1045,223 1044,227 1043,231 1041,236 1041,240 1039,244 1037,249 1035,253 1032,257 1031,260 1027,265 1025,269 1021,272 1019,276 1015,279 1011,282 1008,286 1004,288 1000,292 996,293 980,269 983,266 983,267 987,265 986,265 989,262 989,263 992,260 992,260 995,258 994,258 997,255 997,255 999,253 999,253 1002,249 1001,250 1004,247 1004,248 1005,244 1005,245 1007,242 1007,242 1009,239 1009,239 1010,236 1010,237 1011,233 1011,233 1013,230 1012,231 1014,227 1014,228 1015,224 1015,224 1015,221 1015,222 1015,217 1015,218 1016,214 1016,215 1016,212 1016,212 1016,208 1016,209 1016,205 1016,206 1015,202 1015,203 1015,199 1015,200 1015,196 1015,196 1014,192 1014,193 1013,190 1013,191 1011,186 1012,187 1010,183 1010,184 1009,180 1009,180 1007,177 1004,172 1004,173 1002,169 1003,170 1000,165 1000,165 998,162 998,163 995,159 996,159 993,156 993,156 990,154 991,154 988,151 988,151 985,148 985,148 983,146 983,147 979,144 980,144 977,143 977,143 973,141 974,141 971,139 972,139 968,138 968,138 965,137 966,138 961,136 963,136 959,135 960,135 956,134 956,135 953,134 954,134 950,134 951,134 946,134 948,134 944,134 945,134 940,134 941,134 938,134 938,134 935,135 935,135 931,136 932,136 929,137 930,137 925,138 926,138 922,139 923,139 919,141 920,141 916,143 Z"/>
  <path fill="none" stroke="rgb(255,0,0)" d="M 902,117 L 906,115 910,112 914,111 919,109 924,107 929,106 933,106 938,105 943,105 947,104 952,105 956,105 961,106 966,106 971,108 975,109 979,111 984,113 988,115 993,117 996,120 1000,123 1004,126 1008,129 1012,133 1015,137 1019,141 1021,144 1025,149 1027,154 1031,159 1033,163 1032,163 1035,167 1037,171 1039,175 1041,180 1042,185 1043,190 1044,194 1045,199 1046,203 1046,208 1046,213 1046,217 1045,223 1044,227 1043,231 1041,236 1041,240 1039,244 1037,249 1035,253 1032,257 1031,260 1027,265 1025,269 1021,272 1019,276 1015,279 1011,282 1008,286 1004,288 1000,292 996,293 980,269 983,266 983,267 987,265 986,265 989,262 989,263 992,260 992,260 995,258 994,258 997,255 997,255 999,253 999,253 1002,249 1001,250 1004,247 1004,248 1005,244 1005,245 1007,242 1007,242 1009,239 1009,239 1010,236 1010,237 1011,233 1011,233 1013,230 1012,231 1014,227 1014,228 1015,224 1015,224 1015,221 1015,222 1015,217 1015,218 1016,214 1016,215 1016,212 1016,212 1016,208 1016,209 1016,205 1016,206 1015,202 1015,203 1015,199 1015,200 1015,196 1015,196 1014,192 1014,193 1013,190 1013,191 1011,186 1012,187 1010,183 1010,184 1009,180 1009,180 1007,177 1004,172 1004,173 1002,169 1003,170 1000,165 1000,165 998,162 998,163 995,159 996,159 993,156 993,156 990,154 991,154 988,151 988,151 985,148 985,148 983,146 983,147 979,144 980,144 977,143 977,143 973,141 974,141 971,139 972,139 968,138 968,138 965,137 966,138 961,136 963,136 959,135 960,135 956,134 956,135 953,134 954,134 950,134 951,134 946,134 948,134 944,134 945,134 940,134 941,134 938,134 938,134 935,135 935,135 931,136 932,136 929,137 930,137 925,138 926,138 922,139 923,139 919,141 920,141 916,143 Z"/>
  <path fill="rgb(255,0,0)" stroke="none" d="M 116,903 L 251,636 333,618 364,660 352,654 400,654 442,717 307,993 280,981 412,712 413,726 380,677 392,684 344,684 315,643 330,648 264,664 274,657 143,917 Z"/>
  <path fill="none" stroke="rgb(255,0,0)" d="M 116,903 L 251,636 333,618 364,660 352,654 400,654 442,717 307,993 280,981 412,712 413,726 380,677 392,684 344,684 315,643 330,648 264,664 274,657 143,917 Z"/>
  <path fill="rgb(255,0,0)" stroke="none" d="M 924,138 L 493,410 499,392 501,397 490,388 517,392 514,392 702,376 573,460 578,442 594,478 594,483 594,485 594,488 594,489 594,491 595,493 595,493 595,495 595,498 595,502 594,504 594,509 592,513 590,517 590,517 589,520 589,520 588,524 589,523 588,526 588,525 588,526 588,525 587,529 586,532 585,534 584,536 582,540 579,542 578,545 575,548 573,551 570,553 568,557 568,557 566,559 566,559 563,562 564,562 562,564 562,563 560,566 561,565 559,567 560,567 558,568 559,567 559,567 559,567 559,567 537,550 984,266 1000,291 516,599 532,557 533,554 535,551 536,549 539,546 541,543 543,541 546,537 547,535 550,532 550,532 552,529 552,529 554,526 554,527 557,525 556,525 557,522 557,523 559,520 558,521 559,520 559,520 559,520 558,521 559,520 558,524 558,522 558,520 560,514 562,511 562,507 564,503 564,504 565,500 565,501 566,498 566,498 566,497 566,498 566,497 566,499 566,497 565,494 565,493 565,490 565,488 565,487 565,487 565,485 565,482 566,488 546,442 637,383 646,411 514,422 477,416 467,392 908,113 Z"/>
  <path fill="none" stroke="rgb(255,0,0)" d="M 924,138 L 493,410 499,392 501,397 490,388 517,392 514,392 702,376 573,460 578,442 594,478 594,483 594,485 594,488 594,489 594,491 595,493 595,493 595,495 595,498 595,502 594,504 594,509 592,513 590,517 590,517 589,520 589,520 588,524 589,523 588,526 588,525 588,526 588,525 587,529 586,532 585,534 584,536 582,540 579,542 578,545 575,548 573,551 570,553 568,557 568,557 566,559 566,559 563,562 564,562 562,564 562,563 560,566 561,565 559,567 560,567 558,568 559,567 559,567 559,567 559,567 537,550 984,266 1000,291 516,599 532,557 533,554 535,551 536,549 539,546 541,543 543,541 546,537 547,535 550,532 550,532 552,529 552,529 554,526 554,527 557,525 556,525 557,522 557,523 559,520 558,521 559,520 559,520 559,520 558,521 559,520 558,524 558,522 558,520 560,514 562,511 562,507 564,503 564,504 565,500 565,501 566,498 566,498 566,497 566,498 566,497 566,499 566,497 565,494 565,493 565,490 565,488 565,487 565,487 565,485 565,482 566,488 546,442 637,383 646,411 514,422 477,416 467,392 908,113 Z"/>
  <path fill="rgb(255,0,0)" stroke="none" d="M 498,627 L 528,680 535,737 535,781 528,818 511,863 498,912 504,948 518,984 549,1021 603,1037 671,1057 743,1057 834,1037 896,1029 926,1008 964,984 981,948 981,899 971,854 957,818 919,781 889,765 834,753 766,753 702,737 651,716 589,672 542,636 481,583 Z"/>
  <path fill="rgb(255,0,0)" stroke="none" d="M 498,627 L 498,627 529,680 536,737 536,781 529,818 511,863 511,863 498,912 498,912 504,948 504,948 518,984 518,984 549,1021 549,1021 603,1037 671,1057 671,1057 743,1057 743,1057 834,1037 896,1028 896,1028 926,1008 964,984 963,984 981,948 981,948 981,899 981,899 971,854 971,854 956,818 956,818 919,781 919,781 889,765 889,765 834,753 834,753 766,753 701,737 651,716 589,672 541,636 481,583 481,583 498,627 Z M 480,582 L 542,635 542,635 589,672 589,672 651,716 651,716 702,737 702,737 766,753 766,753 834,753 889,765 919,781 957,818 971,854 981,899 981,948 964,985 926,1009 926,1009 896,1029 834,1037 834,1037 743,1057 671,1057 603,1037 548,1021 518,985 504,948 498,912 511,863 528,818 528,818 535,781 535,781 535,737 535,737 528,680 528,680 498,627 480,582 Z"/>
  <path fill="none" stroke="rgb(255,0,0)" d="M 498,627 L 498,627 529,680 536,737 536,781 529,818 511,863 511,863 498,912 498,912 504,948 504,948 518,984 518,984 549,1021 549,1021 603,1037 671,1057 671,1057 743,1057 743,1057 834,1037 896,1028 896,1028 926,1008 964,984 963,984 981,948 981,948 981,899 981,899 971,854 971,854 956,818 956,818 919,781 919,781 889,765 889,765 834,753 834,753 766,753 701,737 651,716 589,672 541,636 481,583 481,583 498,627 Z M 480,582 L 542,635 542,635 589,672 589,672 651,716 651,716 702,737 702,737 766,753 766,753 834,753 889,765 919,781 957,818 971,854 981,899 981,948 964,985 926,1009 926,1009 896,1029 834,1037 834,1037 743,1057 671,1057 603,1037 548,1021 518,985 504,948 498,912 511,863 528,818 528,818 535,781 535,781 535,737 535,737 528,680 528,680 498,627 480,582 Z"/>
  <path fill="rgb(226,0,26)" stroke="none" d="M 406,565 L 410,568 409,569 406,565 Z"/>
  <path fill="none" stroke="rgb(226,0,26)" d="M 406,565 L 410,568 409,569 406,565 Z"/>
  </g>
 </g>
</svg>