<?xml version="1.0" encoding="UTF-8"?>

<svg version="1.2" width="150px" height="150px" viewBox="0 0 1160 1160" xmlns="http://www.w3.org/2000/svg" xmlns:xlink="http://www.w3.org/1999/xlink">
 <g visibility="visible" id="MasterSlide_1_Standard">
  <g id="DrawingGroup_1">
   <g>
   <path fill="rgb(0,0,255)" stroke="none" d="M 382,322 C 382,542 382,762 382,982 363,982 345,982 326,982 326,762 326,542 326,322 345,322 363,322 382,322 Z"/>
   <path fill="none" stroke="rgb(0,0,255)" id="Drawing_1_0" d="M 382,322 C 382,542 382,762 382,982 363,982 345,982 326,982 326,762 326,542 326,322 345,322 363,322 382,322 Z"/>
   </g>
   <g>
   <path fill="rgb(0,0,255)" stroke="none" d="M 246,1019 L 246,1019 C 246,962 294,916 354,916 L 354,916 354,916 354,916 C 412,916 460,962 460,1019 L 460,1019 460,1019 460,1019 C 460,1077 412,1124 354,1124 L 354,1124 354,1124 354,1124 C 294,1124 246,1077 246,1019 Z"/>
    <rect fill="none" stroke="none" x="246" y="916" width="215" height="209"/>
   </g>
   <g>
   <path fill="rgb(0,0,255)" stroke="none" d="M 242,1020 C 242,1016 243,1013 243,1009 244,1005 244,1002 245,998 246,995 247,991 248,988 249,985 251,981 252,978 253,975 255,972 256,969 258,966 260,962 262,959 264,956 266,954 268,951 270,949 273,946 275,944 278,942 280,939 283,937 286,935 288,933 291,931 294,929 298,927 301,925 304,924 307,922 310,921 313,920 317,918 320,917 324,916 327,916 331,915 335,914 338,914 342,913 346,913 350,912 354,912 358,912 361,913 365,913 368,914 372,914 375,915 379,916 382,916 386,917 389,918 393,920 396,921 399,922 403,924 406,925 409,927 412,929 415,931 418,933 420,935 423,937 426,939 429,942 432,944 434,946 437,949 439,951 441,954 443,956 445,959 447,962 448,965 450,968 452,971 453,974 455,977 456,980 458,984 459,987 460,990 460,994 461,997 462,1001 462,1004 463,1008 463,1012 464,1015 464,1019 464,1023 463,1026 463,1030 463,1034 462,1037 462,1041 461,1044 460,1048 459,1051 458,1054 456,1058 455,1061 453,1064 452,1068 450,1071 448,1074 447,1076 445,1079 443,1082 441,1084 439,1087 437,1090 434,1092 432,1095 429,1098 426,1100 423,1103 420,1105 418,1106 415,1108 412,1110 410,1112 407,1114 403,1116 400,1117 396,1119 393,1120 389,1121 386,1122 382,1123 379,1123 375,1124 372,1125 368,1125 365,1126 361,1126 358,1127 354,1127 350,1127 347,1126 343,1126 339,1125 335,1125 331,1124 328,1123 324,1123 321,1122 318,1121 314,1120 311,1119 308,1117 304,1116 301,1114 298,1112 295,1110 292,1108 289,1106 286,1105 283,1103 280,1101 278,1098 275,1096 273,1093 271,1091 269,1088 267,1085 264,1083 262,1080 260,1077 258,1074 256,1071 255,1068 253,1064 252,1061 251,1058 249,1055 248,1052 247,1048 246,1045 245,1041 244,1038 244,1034 243,1031 243,1027 242,1024 242,1020 Z M 250,1029 C 251,1032 251,1036 252,1039 253,1042 253,1046 254,1049 255,1052 257,1055 258,1058 259,1061 261,1064 262,1067 264,1070 265,1073 267,1076 269,1078 271,1081 273,1083 275,1085 277,1088 279,1090 282,1092 284,1095 287,1097 290,1099 292,1101 295,1103 298,1105 301,1106 304,1108 307,1109 309,1111 312,1112 315,1113 319,1114 322,1115 326,1116 329,1117 333,1118 336,1118 340,1119 343,1119 347,1119 350,1120 354,1120 357,1120 361,1119 364,1119 367,1119 371,1118 374,1118 377,1117 381,1116 384,1115 387,1114 391,1113 394,1112 397,1111 399,1109 402,1108 405,1106 409,1105 412,1103 414,1101 417,1099 419,1097 422,1095 424,1093 427,1091 429,1088 432,1086 434,1083 436,1081 437,1078 439,1076 441,1073 442,1070 444,1067 446,1064 447,1062 449,1059 450,1056 451,1053 452,1050 453,1047 454,1043 455,1040 455,1037 456,1033 456,1030 456,1027 457,1023 457,1020 457,1016 457,1013 457,1009 456,1006 456,1003 455,1000 454,997 454,993 453,990 452,987 450,984 449,981 447,978 446,975 444,972 442,969 441,967 439,964 437,961 436,959 434,956 432,954 429,951 427,949 424,947 422,944 419,942 417,940 414,939 412,937 409,935 406,934 403,932 400,930 397,929 394,927 391,926 388,924 385,923 382,923 378,922 375,922 372,921 368,921 365,920 361,920 358,919 354,919 350,919 347,920 343,920 340,921 336,921 333,922 329,922 326,923 322,923 319,924 316,926 313,927 310,928 307,930 304,931 301,933 298,934 295,936 292,938 290,940 287,942 285,944 282,947 280,949 278,951 276,953 274,955 272,958 270,960 268,963 266,966 264,968 262,971 261,974 259,978 258,981 257,984 255,987 254,990 253,993 253,996 252,999 251,1002 251,1006 250,1009 250,1012 249,1016 249,1019 249,1022 250,1026 250,1029 Z"/>
   <path fill="none" stroke="rgb(0,0,255)" id="Drawing_3_0" d="M 242,1020 C 242,1016 243,1013 243,1009 244,1005 244,1002 245,998 246,995 247,991 248,988 249,985 251,981 252,978 253,975 255,972 256,969 258,966 260,962 262,959 264,956 266,954 268,951 270,949 273,946 275,944 278,942 280,939 283,937 286,935 288,933 291,931 294,929 298,927 301,925 304,924 307,922 310,921 313,920 317,918 320,917 324,916 327,916 331,915 335,914 338,914 342,913 346,913 350,912 354,912 358,912 361,913 365,913 368,914 372,914 375,915 379,916 382,916 386,917 389,918 393,920 396,921 399,922 403,924 406,925 409,927 412,929 415,931 418,933 420,935 423,937 426,939 429,942 432,944 434,946 437,949 439,951 441,954 443,956 445,959 447,962 448,965 450,968 452,971 453,974 455,977 456,980 458,984 459,987 460,990 460,994 461,997 462,1001 462,1004 463,1008 463,1012 464,1015 464,1019 464,1023 463,1026 463,1030 463,1034 462,1037 462,1041 461,1044 460,1048 459,1051 458,1054 456,1058 455,1061 453,1064 452,1068 450,1071 448,1074 447,1076 445,1079 443,1082 441,1084 439,1087 437,1090 434,1092 432,1095 429,1098 426,1100 423,1103 420,1105 418,1106 415,1108 412,1110 410,1112 407,1114 403,1116 400,1117 396,1119 393,1120 389,1121 386,1122 382,1123 379,1123 375,1124 372,1125 368,1125 365,1126 361,1126 358,1127 354,1127 350,1127 347,1126 343,1126 339,1125 335,1125 331,1124 328,1123 324,1123 321,1122 318,1121 314,1120 311,1119 308,1117 304,1116 301,1114 298,1112 295,1110 292,1108 289,1106 286,1105 283,1103 280,1101 278,1098 275,1096 273,1093 271,1091 269,1088 267,1085 264,1083 262,1080 260,1077 258,1074 256,1071 255,1068 253,1064 252,1061 251,1058 249,1055 248,1052 247,1048 246,1045 245,1041 244,1038 244,1034 243,1031 243,1027 242,1024 242,1020 Z"/>
   <path fill="none" stroke="rgb(0,0,255)" id="Drawing_3_1" d="M 250,1029 C 251,1032 251,1036 252,1039 253,1042 253,1046 254,1049 255,1052 257,1055 258,1058 259,1061 261,1064 262,1067 264,1070 265,1073 267,1076 269,1078 271,1081 273,1083 275,1085 277,1088 279,1090 282,1092 284,1095 287,1097 290,1099 292,1101 295,1103 298,1105 301,1106 304,1108 307,1109 309,1111 312,1112 315,1113 319,1114 322,1115 326,1116 329,1117 333,1118 336,1118 340,1119 343,1119 347,1119 350,1120 354,1120 357,1120 361,1119 364,1119 367,1119 371,1118 374,1118 377,1117 381,1116 384,1115 387,1114 391,1113 394,1112 397,1111 399,1109 402,1108 405,1106 409,1105 412,1103 414,1101 417,1099 419,1097 422,1095 424,1093 427,1091 429,1088 432,1086 434,1083 436,1081 437,1078 439,1076 441,1073 442,1070 444,1067 446,1064 447,1062 449,1059 450,1056 451,1053 452,1050 453,1047 454,1043 455,1040 455,1037 456,1033 456,1030 456,1027 457,1023 457,1020 457,1016 457,1013 457,1009 456,1006 456,1003 455,1000 454,997 454,993 453,990 452,987 450,984 449,981 447,978 446,975 444,972 442,969 441,967 439,964 437,961 436,959 434,956 432,954 429,951 427,949 424,947 422,944 419,942 417,940 414,939 412,937 409,935 406,934 403,932 400,930 397,929 394,927 391,926 388,924 385,923 382,923 378,922 375,922 372,921 368,921 365,920 361,920 358,919 354,919 350,919 347,920 343,920 340,921 336,921 333,922 329,922 326,923 322,923 319,924 316,926 313,927 310,928 307,930 304,931 301,933 298,934 295,936 292,938 290,940 287,942 285,944 282,947 280,949 278,951 276,953 274,955 272,958 270,960 268,963 266,966 264,968 262,971 261,974 259,978 258,981 257,984 255,987 254,990 253,993 253,996 252,999 251,1002 251,1006 250,1009 250,1012 249,1016 249,1019 249,1022 250,1026 250,1029 Z"/>
   </g>
   <g>
   <path fill="rgb(0,0,255)" stroke="none" d="M 324,322 C 324,317 325,313 325,308 325,303 326,298 326,293 326,288 327,283 327,278 328,273 329,269 330,264 331,260 332,255 333,251 335,246 336,241 338,236 340,232 341,227 343,223 345,219 346,214 348,210 350,206 352,201 354,197 356,193 358,189 360,185 362,181 365,176 367,172 370,168 372,165 375,161 378,157 380,154 383,150 386,146 389,143 392,139 395,136 399,132 402,129 405,126 409,122 412,119 415,115 419,112 422,108 425,105 429,103 432,100 436,97 440,94 444,91 448,88 451,86 455,83 459,81 463,78 467,76 471,74 476,71 480,69 484,67 488,64 492,62 496,60 501,58 505,56 510,54 514,53 519,51 524,50 528,48 533,47 537,46 542,44 546,43 551,42 556,40 561,39 566,38 571,38 576,37 581,36 585,36 590,35 595,35 600,34 605,34 610,34 615,34 620,34 625,34 631,34 636,34 641,34 646,35 651,35 656,36 661,36 666,37 671,38 675,38 680,39 685,40 689,42 694,43 699,44 704,45 709,46 713,48 718,49 722,51 727,53 731,54 736,56 740,58 745,60 749,62 753,64 758,66 762,68 766,70 770,73 774,75 778,77 782,80 786,82 790,85 794,87 798,90 802,93 805,95 809,98 813,101 816,105 820,108 823,111 827,114 830,117 833,121 837,124 840,128 843,131 846,135 849,138 852,142 856,145 859,149 862,153 864,156 867,160 870,164 872,168 875,172 877,176 879,179 881,183 883,187 886,192 888,196 890,200 892,205 894,209 896,213 898,218 900,222 901,227 903,231 904,236 905,240 907,245 908,249 909,254 911,258 912,263 913,268 913,272 914,277 915,282 916,287 917,292 917,297 918,301 918,306 918,311 918,316 918,321 918,326 918,331 918,336 918,341 917,346 917,351 916,356 916,360 915,365 914,370 913,374 912,379 911,384 910,388 909,393 908,398 906,402 905,407 903,412 902,416 900,421 898,425 897,429 895,433 893,438 891,442 889,447 887,451 884,455 882,459 880,463 877,467 875,471 873,475 870,479 868,483 865,487 862,490 859,494 856,498 853,501 850,505 847,509 844,512 841,516 838,519 834,522 831,525 828,528 824,532 821,535 817,538 814,541 810,544 806,547 803,550 799,553 795,555 791,558 787,560 783,563 779,565 775,568 771,570 767,573 763,575 759,577 754,580 750,582 746,584 741,585 737,587 733,589 728,590 724,592 719,594 715,595 710,597 705,598 701,600 696,601 691,602 687,603 682,604 677,605 672,606 667,607 662,607 657,608 652,608 647,608 642,609 637,609 632,609 627,610 622,610 617,610 612,609 607,609 602,609 597,608 592,608 587,608 582,607 577,607 572,606 567,605 562,604 557,603 553,602 548,601 543,600 539,599 534,598 529,596 525,594 520,592 516,590 511,589 507,587 502,585 498,584 493,582 489,580 485,578 481,576 477,574 472,571 468,569 464,566 460,564 456,561 452,559 448,556 444,554 441,551 437,548 434,545 430,542 427,539 423,536 419,533 416,529 412,526 409,523 405,520 402,517 399,513 396,510 393,506 390,502 387,499 384,495 381,491 378,488 375,484 373,480 370,476 368,472 366,468 363,464 361,460 359,456 356,452 354,448 352,444 351,439 349,435 347,431 345,426 343,422 341,418 340,413 338,409 337,404 335,400 334,395 333,390 332,386 331,381 330,376 329,372 328,367 327,362 327,358 326,353 326,348 325,342 325,337 325,332 324,327 324,322 Z M 381,333 C 381,337 382,341 382,345 383,349 383,352 384,356 385,360 385,364 386,368 387,372 387,375 388,379 389,383 390,386 391,390 393,394 394,397 396,401 397,404 399,408 400,411 401,414 403,418 404,421 406,424 408,428 410,431 412,434 413,438 415,441 417,444 420,447 422,450 424,453 426,456 428,459 430,462 433,465 435,468 438,471 440,473 443,476 445,479 448,482 450,485 453,487 456,490 459,492 462,494 464,497 467,499 470,502 473,504 476,507 479,509 483,511 486,513 489,515 493,517 496,519 499,521 503,522 506,524 509,526 513,527 516,529 520,531 523,532 527,534 531,536 534,537 538,539 542,540 545,541 549,542 553,543 557,544 561,545 565,546 568,547 572,548 576,549 580,549 584,550 588,550 592,551 596,551 600,552 604,552 608,553 612,553 616,553 620,553 624,553 629,553 633,553 637,553 642,552 646,552 650,551 653,551 657,550 661,549 665,549 669,548 673,547 677,546 681,545 685,544 688,544 692,543 696,542 700,540 704,539 708,538 711,536 715,535 718,533 722,532 725,530 729,528 732,527 736,525 739,523 743,521 746,519 749,517 752,515 755,513 758,511 761,509 764,507 767,505 771,502 774,500 777,498 780,495 783,493 785,491 788,488 790,486 793,483 796,480 799,477 801,474 804,472 806,469 808,466 811,463 813,460 815,457 818,454 820,451 822,448 825,445 827,442 829,439 830,436 832,433 834,429 836,426 838,422 840,419 841,415 843,412 844,408 846,405 847,401 848,398 849,394 850,391 851,387 853,384 854,380 855,376 855,373 856,369 857,365 858,362 859,358 859,354 860,350 860,346 860,342 861,339 861,335 861,331 861,326 861,322 861,318 861,314 861,310 861,307 860,303 860,300 860,296 859,292 859,288 858,284 858,280 857,276 856,272 855,269 854,265 853,261 852,258 851,254 850,250 848,247 847,243 846,240 844,236 843,233 841,230 840,226 838,223 836,220 834,216 832,213 830,210 829,206 827,203 825,200 823,196 821,193 819,190 816,187 814,184 812,181 809,179 807,176 805,173 802,170 800,167 797,164 795,162 792,159 789,156 787,154 784,151 781,149 777,147 774,145 771,142 769,140 766,137 763,135 760,133 757,131 754,129 750,126 747,124 744,122 740,121 737,119 733,117 730,116 726,114 722,112 719,111 715,109 712,108 708,106 705,105 701,104 698,103 694,102 690,101 686,99 682,98 678,97 675,97 671,96 667,95 662,94 658,93 654,93 650,92 646,92 642,92 639,91 635,91 631,91 626,91 622,91 618,91 613,91 609,91 605,91 601,92 597,92 593,92 589,93 585,93 581,94 577,95 573,96 569,97 565,97 561,98 558,99 554,100 551,101 547,102 543,104 539,105 535,106 532,108 528,109 525,110 521,112 518,113 514,115 511,117 507,119 504,121 500,122 497,124 494,126 490,128 487,130 484,132 480,135 477,137 474,139 472,142 469,144 466,146 463,149 460,151 457,153 454,156 451,158 449,161 446,164 444,167 441,170 439,172 436,175 434,178 431,180 429,183 427,186 425,190 423,193 421,196 418,199 416,202 414,205 412,208 410,211 408,214 407,218 405,221 403,224 402,228 400,231 399,235 397,238 396,242 395,245 393,249 392,252 391,256 390,259 389,263 388,267 387,271 386,275 385,279 385,282 384,286 383,290 383,294 382,298 382,302 381,306 381,310 381,314 381,317 381,321 381,325 381,329 381,333 Z"/>
   <path fill="none" stroke="rgb(0,0,255)" id="Drawing_4_0" d="M 324,322 C 324,317 325,313 325,308 325,303 326,298 326,293 326,288 327,283 327,278 328,273 329,269 330,264 331,260 332,255 333,251 335,246 336,241 338,236 340,232 341,227 343,223 345,219 346,214 348,210 350,206 352,201 354,197 356,193 358,189 360,185 362,181 365,176 367,172 370,168 372,165 375,161 378,157 380,154 383,150 386,146 389,143 392,139 395,136 399,132 402,129 405,126 409,122 412,119 415,115 419,112 422,108 425,105 429,103 432,100 436,97 440,94 444,91 448,88 451,86 455,83 459,81 463,78 467,76 471,74 476,71 480,69 484,67 488,64 492,62 496,60 501,58 505,56 510,54 514,53 519,51 524,50 528,48 533,47 537,46 542,44 546,43 551,42 556,40 561,39 566,38 571,38 576,37 581,36 585,36 590,35 595,35 600,34 605,34 610,34 615,34 620,34 625,34 631,34 636,34 641,34 646,35 651,35 656,36 661,36 666,37 671,38 675,38 680,39 685,40 689,42 694,43 699,44 704,45 709,46 713,48 718,49 722,51 727,53 731,54 736,56 740,58 745,60 749,62 753,64 758,66 762,68 766,70 770,73 774,75 778,77 782,80 786,82 790,85 794,87 798,90 802,93 805,95 809,98 813,101 816,105 820,108 823,111 827,114 830,117 833,121 837,124 840,128 843,131 846,135 849,138 852,142 856,145 859,149 862,153 864,156 867,160 870,164 872,168 875,172 877,176 879,179 881,183 883,187 886,192 888,196 890,200 892,205 894,209 896,213 898,218 900,222 901,227 903,231 904,236 905,240 907,245 908,249 909,254 911,258 912,263 913,268 913,272 914,277 915,282 916,287 917,292 917,297 918,301 918,306 918,311 918,316 918,321 918,326 918,331 918,336 918,341 917,346 917,351 916,356 916,360 915,365 914,370 913,374 912,379 911,384 910,388 909,393 908,398 906,402 905,407 903,412 902,416 900,421 898,425 897,429 895,433 893,438 891,442 889,447 887,451 884,455 882,459 880,463 877,467 875,471 873,475 870,479 868,483 865,487 862,490 859,494 856,498 853,501 850,505 847,509 844,512 841,516 838,519 834,522 831,525 828,528 824,532 821,535 817,538 814,541 810,544 806,547 803,550 799,553 795,555 791,558 787,560 783,563 779,565 775,568 771,570 767,573 763,575 759,577 754,580 750,582 746,584 741,585 737,587 733,589 728,590 724,592 719,594 715,595 710,597 705,598 701,600 696,601 691,602 687,603 682,604 677,605 672,606 667,607 662,607 657,608 652,608 647,608 642,609 637,609 632,609 627,610 622,610 617,610 612,609 607,609 602,609 597,608 592,608 587,608 582,607 577,607 572,606 567,605 562,604 557,603 553,602 548,601 543,600 539,599 534,598 529,596 525,594 520,592 516,590 511,589 507,587 502,585 498,584 493,582 489,580 485,578 481,576 477,574 472,571 468,569 464,566 460,564 456,561 452,559 448,556 444,554 441,551 437,548 434,545 430,542 427,539 423,536 419,533 416,529 412,526 409,523 405,520 402,517 399,513 396,510 393,506 390,502 387,499 384,495 381,491 378,488 375,484 373,480 370,476 368,472 366,468 363,464 361,460 359,456 356,452 354,448 352,444 351,439 349,435 347,431 345,426 343,422 341,418 340,413 338,409 337,404 335,400 334,395 333,390 332,386 331,381 330,376 329,372 328,367 327,362 327,358 326,353 326,348 325,342 325,337 325,332 324,327 324,322 Z"/>
   <path fill="none" stroke="rgb(0,0,255)" id="Drawing_4_1" d="M 381,333 C 381,337 382,341 382,345 383,349 383,352 384,356 385,360 385,364 386,368 387,372 387,375 388,379 389,383 390,386 391,390 393,394 394,397 396,401 397,404 399,408 400,411 401,414 403,418 404,421 406,424 408,428 410,431 412,434 413,438 415,441 417,444 420,447 422,450 424,453 426,456 428,459 430,462 433,465 435,468 438,471 440,473 443,476 445,479 448,482 450,485 453,487 456,490 459,492 462,494 464,497 467,499 470,502 473,504 476,507 479,509 483,511 486,513 489,515 493,517 496,519 499,521 503,522 506,524 509,526 513,527 516,529 520,531 523,532 527,534 531,536 534,537 538,539 542,540 545,541 549,542 553,543 557,544 561,545 565,546 568,547 572,548 576,549 580,549 584,550 588,550 592,551 596,551 600,552 604,552 608,553 612,553 616,553 620,553 624,553 629,553 633,553 637,553 642,552 646,552 650,551 653,551 657,550 661,549 665,549 669,548 673,547 677,546 681,545 685,544 688,544 692,543 696,542 700,540 704,539 708,538 711,536 715,535 718,533 722,532 725,530 729,528 732,527 736,525 739,523 743,521 746,519 749,517 752,515 755,513 758,511 761,509 764,507 767,505 771,502 774,500 777,498 780,495 783,493 785,491 788,488 790,486 793,483 796,480 799,477 801,474 804,472 806,469 808,466 811,463 813,460 815,457 818,454 820,451 822,448 825,445 827,442 829,439 830,436 832,433 834,429 836,426 838,422 840,419 841,415 843,412 844,408 846,405 847,401 848,398 849,394 850,391 851,387 853,384 854,380 855,376 855,373 856,369 857,365 858,362 859,358 859,354 860,350 860,346 860,342 861,339 861,335 861,331 861,326 861,322 861,318 861,314 861,310 861,307 860,303 860,300 860,296 859,292 859,288 858,284 858,280 857,276 856,272 855,269 854,265 853,261 852,258 851,254 850,250 848,247 847,243 846,240 844,236 843,233 841,230 840,226 838,223 836,220 834,216 832,213 830,210 829,206 827,203 825,200 823,196 821,193 819,190 816,187 814,184 812,181 809,179 807,176 805,173 802,170 800,167 797,164 795,162 792,159 789,156 787,154 784,151 781,149 777,147 774,145 771,142 769,140 766,137 763,135 760,133 757,131 754,129 750,126 747,124 744,122 740,121 737,119 733,117 730,116 726,114 722,112 719,111 715,109 712,108 708,106 705,105 701,104 698,103 694,102 690,101 686,99 682,98 678,97 675,97 671,96 667,95 662,94 658,93 654,93 650,92 646,92 642,92 639,91 635,91 631,91 626,91 622,91 618,91 613,91 609,91 605,91 601,92 597,92 593,92 589,93 585,93 581,94 577,95 573,96 569,97 565,97 561,98 558,99 554,100 551,101 547,102 543,104 539,105 535,106 532,108 528,109 525,110 521,112 518,113 514,115 511,117 507,119 504,121 500,122 497,124 494,126 490,128 487,130 484,132 480,135 477,137 474,139 472,142 469,144 466,146 463,149 460,151 457,153 454,156 451,158 449,161 446,164 444,167 441,170 439,172 436,175 434,178 431,180 429,183 427,186 425,190 423,193 421,196 418,199 416,202 414,205 412,208 410,211 408,214 407,218 405,221 403,224 402,228 400,231 399,235 397,238 396,242 395,245 393,249 392,252 391,256 390,259 389,263 388,267 387,271 386,275 385,279 385,282 384,286 383,290 383,294 382,298 382,302 381,306 381,310 381,314 381,317 381,321 381,325 381,329 381,333 Z"/>
   </g>
   <g>
   <path fill="rgb(0,0,255)" stroke="none" d="M 427,397 C 427,349 427,301 427,252 437,252 447,252 456,252 456,274 456,295 456,317 476,295 496,274 515,252 528,252 541,252 555,252 536,271 518,290 500,309 519,338 538,368 557,397 545,397 532,397 520,397 506,374 493,352 480,329 472,337 464,345 456,353 456,368 456,382 456,397 L 427,397 Z"/>
    <rect fill="none" stroke="none" x="427" y="252" width="132" height="146"/>
   </g>
   <g>
   <path fill="rgb(0,0,255)" stroke="none" d="M 569,397 C 569,349 569,301 569,252 602,252 635,252 668,252 668,261 668,269 668,277 645,277 621,277 598,277 598,288 598,300 598,311 618,311 638,311 658,311 658,319 658,327 658,336 638,336 618,336 598,336 598,356 598,377 598,397 L 569,397 Z"/>
    <rect fill="none" stroke="none" x="568" y="252" width="102" height="146"/>
   </g>
   <g>
   <path fill="rgb(0,0,255)" stroke="none" d="M 682,326 C 682,311 684,298 688,289 692,281 696,275 702,269 708,263 714,258 721,256 730,252 740,250 752,250 773,250 790,257 803,270 816,283 822,301 822,325 822,348 816,367 803,380 790,393 773,399 752,399 731,399 714,393 701,380 688,367 682,349 682,326 Z M 712,325 C 712,341 716,353 723,362 731,370 740,375 752,375 764,375 773,370 781,362 788,354 792,341 792,324 792,308 788,295 781,287 774,279 764,275 752,275 740,275 730,279 723,287 716,296 712,308 712,325 Z"/>
    <rect fill="none" stroke="none" x="681" y="249" width="143" height="152"/>
   </g>
  </g>
 </g>
</svg>