<?xml version="1.0" encoding="UTF-8"?>

<svg version="1.2" width="150px" height="150px" viewBox="0 0 1160 1160" xmlns="http://www.w3.org/2000/svg" xmlns:xlink="http://www.w3.org/1999/xlink">
 <g visibility="visible" id="MasterSlide_1_Standard">
  <g id="Drawing_1">
  <path fill="rgb(0,0,255)" stroke="rgb(0,0,255)" d="M 252,1085 L 252,375 569,57 885,375 885,1085 252,1085 Z M 854,1023 L 823,1054 823,387 832,409 547,122 590,122 305,409 314,387 314,1054 283,1023 854,1023 Z"/>
  <path fill="rgb(255,255,255)" stroke="none" d="M 757,794 L 572,612 757,430 Z"/>
  <path fill="rgb(255,255,255)" stroke="rgb(255,255,255)" d="M 761,794 L 761,794 C 761,795 760,797 759,797 759,798 756,797 756,796 L 570,614 570,614 C 569,614 569,613 569,612 569,611 569,610 570,610 L 756,428 756,428 C 756,427 759,427 759,428 760,428 761,429 761,430 L 761,794 Z M 754,430 L 754,430 760,432 574,614 574,610 760,792 754,794 754,430 Z"/>
  <path fill="rgb(255,255,255)" stroke="none" d="M 382,794 L 565,610 382,427 Z"/>
  <path fill="rgb(255,255,255)" stroke="rgb(255,255,255)" d="M 386,794 L 386,794 381,792 563,608 563,612 381,429 386,427 386,794 Z M 379,427 L 379,427 C 379,426 380,424 382,424 382,424 384,424 385,425 L 568,608 568,608 C 569,609 569,612 568,612 L 385,796 385,796 C 384,797 382,798 382,797 380,797 379,795 379,794 L 379,427 Z"/>
  <path fill="rgb(0,0,255)" stroke="none" d="M 382,803 L 568,615 752,803 568,989 Z"/>
  <path fill="rgb(0,0,255)" stroke="rgb(0,0,255)" d="M 380,805 L 380,805 C 379,803 379,801 380,800 L 565,614 565,614 C 566,612 569,612 570,614 L 755,800 755,800 C 756,801 756,803 755,805 L 570,991 570,991 C 569,992 566,992 565,991 L 380,805 Z M 570,986 L 570,986 565,986 750,800 750,805 565,619 570,619 384,805 384,800 570,986 Z"/>
  <path fill="rgb(0,0,255)" stroke="none" d="M 751,430 L 569,607 386,430 Z"/>
  <path fill="rgb(0,0,255)" stroke="rgb(0,0,255)" d="M 751,427 L 751,427 C 752,427 754,428 754,429 755,430 754,432 753,432 L 571,609 571,609 C 570,611 568,611 567,609 L 384,432 384,432 C 383,432 382,430 383,429 383,428 385,427 386,427 L 751,427 Z M 386,433 L 386,433 388,428 571,605 567,605 749,428 751,433 386,433 Z"/>
  <path fill="rgb(0,0,255)" stroke="rgb(0,0,255)" d="M 379,425 L 379,425 C 379,424 380,424 381,424 L 756,424 756,424 C 757,424 757,424 757,425 L 757,805 757,805 C 757,807 757,807 756,807 L 381,807 381,807 C 380,807 379,807 379,805 L 379,425 Z M 382,805 L 382,805 381,803 756,803 754,805 754,425 756,427 381,427 382,425 382,805 Z"/>
  </g>
 </g>
</svg>