<?xml version="1.0" encoding="UTF-8"?>

<svg version="1.2" width="150px" height="150px" viewBox="0 0 1160 1160" xmlns="http://www.w3.org/2000/svg" xmlns:xlink="http://www.w3.org/1999/xlink">
 <g visibility="visible" id="MasterSlide_1_Standard">
  <g id="DrawingGroup_1">
   <g>
   <path fill="rgb(0,0,255)" stroke="none" d="M 386,314 C 386,533 386,752 386,971 367,971 348,971 329,971 329,752 329,533 329,314 348,314 367,314 386,314 Z"/>
   <path fill="none" stroke="rgb(0,0,255)" id="Drawing_1_0" d="M 386,314 C 386,533 386,752 386,971 367,971 348,971 329,971 329,752 329,533 329,314 348,314 367,314 386,314 Z"/>
   </g>
   <g>
   <path fill="rgb(0,0,255)" stroke="none" d="M 330,313 C 330,308 330,303 331,298 331,293 331,288 332,283 332,278 332,273 333,269 334,264 335,259 336,255 337,250 338,245 339,241 340,236 342,231 344,227 345,222 346,218 348,214 349,209 351,205 353,201 355,196 357,192 359,187 361,183 363,179 366,175 368,171 371,167 374,163 376,159 378,155 381,151 384,147 387,144 390,140 392,136 395,133 398,129 401,126 404,122 408,119 411,115 414,112 418,108 421,105 424,102 428,99 431,96 435,93 439,90 442,87 446,84 450,81 454,78 458,76 462,73 466,71 470,68 474,66 478,64 482,61 486,59 490,57 494,54 499,52 503,50 507,49 512,47 516,45 521,44 526,42 530,40 534,39 539,37 544,36 549,34 554,33 559,32 564,31 569,30 573,29 578,28 583,27 587,26 592,26 597,25 602,25 607,25 612,25 617,25 622,24 627,24 633,24 638,25 643,25 648,25 653,25 657,25 663,26 668,26 673,27 678,28 683,29 687,30 692,31 697,32 702,33 707,34 712,36 716,37 721,38 726,40 730,41 735,43 740,44 744,46 748,48 752,50 756,52 761,54 765,56 769,58 774,60 778,63 782,65 786,67 790,70 794,72 798,75 802,78 806,81 810,84 814,86 817,89 821,92 825,95 828,98 832,101 835,105 838,108 842,111 845,115 849,118 852,121 855,125 858,128 861,132 864,135 867,139 870,143 872,146 875,150 878,154 880,158 883,162 885,166 888,169 890,173 892,177 895,182 897,186 899,190 901,195 903,199 905,203 907,207 909,212 910,216 912,221 913,226 914,230 916,234 917,239 918,243 920,248 921,253 922,257 922,262 923,267 924,272 925,277 926,282 926,287 927,292 927,297 927,301 927,306 927,311 927,316 927,321 927,327 927,331 926,336 926,341 925,346 925,351 924,356 923,360 922,365 921,370 920,374 919,379 918,384 917,388 915,393 914,398 912,402 911,406 909,411 907,415 905,419 903,424 901,428 899,432 897,437 895,441 893,445 891,450 889,454 886,458 884,462 881,466 879,470 876,474 873,477 871,481 868,485 865,488 862,491 859,495 856,498 853,502 850,506 846,509 843,512 839,516 836,519 833,522 829,526 826,528 822,531 818,534 815,537 811,540 807,543 804,546 800,549 796,552 792,554 788,556 783,559 779,561 775,563 771,566 767,568 763,570 758,572 754,574 749,576 744,578 740,579 736,581 731,583 727,584 722,585 717,587 713,588 708,590 703,591 699,592 694,593 689,594 684,595 679,596 674,597 669,598 664,598 659,598 654,599 649,599 644,599 639,599 634,599 629,599 624,599 619,599 614,599 609,599 604,599 598,598 593,598 588,598 583,597 579,596 574,595 569,594 564,593 559,592 555,591 550,590 545,589 541,588 536,586 532,584 528,583 523,581 518,580 514,579 509,577 504,575 500,573 495,570 491,568 487,566 483,563 479,561 475,559 471,556 467,554 463,552 459,549 455,546 451,544 447,541 443,538 439,535 435,532 432,529 429,527 425,523 422,519 419,516 415,513 412,510 409,507 405,503 402,500 399,497 396,493 393,489 391,486 388,482 385,478 382,475 379,471 376,467 374,463 371,459 369,455 367,451 364,447 362,443 360,439 358,434 356,430 354,426 352,421 350,416 349,412 347,407 345,403 344,399 342,394 340,390 339,386 338,381 337,376 336,371 335,366 334,361 333,357 332,352 332,347 332,343 331,338 331,333 331,328 330,323 330,318 330,313 Z M 387,324 C 387,327 387,331 388,335 388,338 389,342 390,346 390,350 391,354 392,358 393,361 394,365 395,369 396,372 397,376 398,380 399,383 400,387 402,391 403,394 404,397 406,401 407,404 408,407 410,411 412,414 414,417 416,421 418,424 420,427 422,431 424,434 426,437 428,440 430,443 432,446 434,450 436,452 439,455 442,458 444,461 446,464 449,467 451,469 454,472 457,475 459,477 462,479 465,482 468,484 471,487 475,490 477,492 480,494 483,497 486,499 489,501 493,504 496,506 499,508 503,510 506,511 509,513 513,515 516,516 519,518 523,520 526,521 530,523 534,525 537,526 541,527 545,529 548,530 552,531 556,533 560,534 564,535 568,536 572,537 576,538 580,539 583,539 587,539 591,540 595,540 599,541 603,542 607,542 611,542 615,543 619,543 623,543 627,543 632,543 636,543 640,543 644,542 648,542 652,542 656,541 660,540 664,540 668,539 672,539 676,539 680,538 684,537 688,536 692,535 696,534 700,533 704,531 708,530 711,529 715,527 719,526 722,525 726,523 730,522 733,521 737,519 740,517 743,516 747,514 750,512 753,510 757,508 760,506 763,504 767,502 770,500 773,498 776,495 779,493 781,491 785,488 788,485 791,483 794,480 797,478 799,476 802,473 805,470 807,468 810,465 813,462 815,459 817,456 819,453 821,451 824,448 826,445 828,442 831,439 833,436 835,433 837,429 838,425 840,422 842,419 844,416 846,413 847,409 849,406 850,403 852,399 853,395 855,392 856,388 858,384 859,381 860,377 861,374 862,371 863,367 864,363 865,360 866,356 866,352 867,348 867,344 868,340 868,337 868,333 869,329 869,325 869,321 869,317 869,313 869,309 869,305 869,301 869,297 868,293 868,290 868,286 867,282 867,278 866,274 866,270 865,267 864,263 863,259 862,256 861,252 860,248 859,244 858,240 857,236 856,233 854,229 853,226 851,223 849,219 848,216 846,213 844,209 843,206 841,203 839,200 837,196 835,193 833,190 831,187 829,184 827,181 825,178 822,175 820,172 818,170 815,167 813,164 811,161 808,158 806,155 803,152 800,149 797,147 794,144 791,142 789,140 786,137 783,135 780,133 777,130 774,128 771,126 768,123 764,121 761,119 758,117 754,115 751,113 748,111 744,109 741,107 738,106 734,104 731,103 727,101 723,100 720,99 716,97 712,96 709,95 705,93 701,92 697,91 693,90 689,89 686,88 682,87 678,86 674,85 670,85 666,84 662,84 658,83 654,83 650,83 646,82 641,82 637,82 633,81 629,81 625,81 621,81 616,81 612,81 608,82 604,82 600,83 596,83 591,84 588,85 584,85 581,86 577,87 573,88 569,89 565,90 561,90 557,91 553,92 549,94 546,95 542,96 538,98 535,99 531,101 528,102 525,104 521,106 517,107 514,109 510,111 507,112 504,114 500,116 497,118 494,120 491,122 488,125 485,127 481,129 478,132 475,134 472,136 469,139 467,141 464,144 461,146 458,149 455,152 452,154 450,157 447,160 445,162 443,165 440,168 437,171 435,174 432,177 430,180 428,183 426,186 424,189 422,192 420,195 418,199 416,202 414,205 412,208 411,212 409,215 407,218 406,222 404,225 403,228 402,232 400,235 399,239 398,243 397,246 396,250 395,254 394,257 393,261 392,265 391,268 391,272 391,276 390,280 389,284 389,288 388,291 388,295 388,299 387,303 387,307 387,311 387,315 387,319 387,324 Z"/>
   <path fill="none" stroke="rgb(0,0,255)" id="Drawing_2_0" d="M 330,313 C 330,308 330,303 331,298 331,293 331,288 332,283 332,278 332,273 333,269 334,264 335,259 336,255 337,250 338,245 339,241 340,236 342,231 344,227 345,222 346,218 348,214 349,209 351,205 353,201 355,196 357,192 359,187 361,183 363,179 366,175 368,171 371,167 374,163 376,159 378,155 381,151 384,147 387,144 390,140 392,136 395,133 398,129 401,126 404,122 408,119 411,115 414,112 418,108 421,105 424,102 428,99 431,96 435,93 439,90 442,87 446,84 450,81 454,78 458,76 462,73 466,71 470,68 474,66 478,64 482,61 486,59 490,57 494,54 499,52 503,50 507,49 512,47 516,45 521,44 526,42 530,40 534,39 539,37 544,36 549,34 554,33 559,32 564,31 569,30 573,29 578,28 583,27 587,26 592,26 597,25 602,25 607,25 612,25 617,25 622,24 627,24 633,24 638,25 643,25 648,25 653,25 657,25 663,26 668,26 673,27 678,28 683,29 687,30 692,31 697,32 702,33 707,34 712,36 716,37 721,38 726,40 730,41 735,43 740,44 744,46 748,48 752,50 756,52 761,54 765,56 769,58 774,60 778,63 782,65 786,67 790,70 794,72 798,75 802,78 806,81 810,84 814,86 817,89 821,92 825,95 828,98 832,101 835,105 838,108 842,111 845,115 849,118 852,121 855,125 858,128 861,132 864,135 867,139 870,143 872,146 875,150 878,154 880,158 883,162 885,166 888,169 890,173 892,177 895,182 897,186 899,190 901,195 903,199 905,203 907,207 909,212 910,216 912,221 913,226 914,230 916,234 917,239 918,243 920,248 921,253 922,257 922,262 923,267 924,272 925,277 926,282 926,287 927,292 927,297 927,301 927,306 927,311 927,316 927,321 927,327 927,331 926,336 926,341 925,346 925,351 924,356 923,360 922,365 921,370 920,374 919,379 918,384 917,388 915,393 914,398 912,402 911,406 909,411 907,415 905,419 903,424 901,428 899,432 897,437 895,441 893,445 891,450 889,454 886,458 884,462 881,466 879,470 876,474 873,477 871,481 868,485 865,488 862,491 859,495 856,498 853,502 850,506 846,509 843,512 839,516 836,519 833,522 829,526 826,528 822,531 818,534 815,537 811,540 807,543 804,546 800,549 796,552 792,554 788,556 783,559 779,561 775,563 771,566 767,568 763,570 758,572 754,574 749,576 744,578 740,579 736,581 731,583 727,584 722,585 717,587 713,588 708,590 703,591 699,592 694,593 689,594 684,595 679,596 674,597 669,598 664,598 659,598 654,599 649,599 644,599 639,599 634,599 629,599 624,599 619,599 614,599 609,599 604,599 598,598 593,598 588,598 583,597 579,596 574,595 569,594 564,593 559,592 555,591 550,590 545,589 541,588 536,586 532,584 528,583 523,581 518,580 514,579 509,577 504,575 500,573 495,570 491,568 487,566 483,563 479,561 475,559 471,556 467,554 463,552 459,549 455,546 451,544 447,541 443,538 439,535 435,532 432,529 429,527 425,523 422,519 419,516 415,513 412,510 409,507 405,503 402,500 399,497 396,493 393,489 391,486 388,482 385,478 382,475 379,471 376,467 374,463 371,459 369,455 367,451 364,447 362,443 360,439 358,434 356,430 354,426 352,421 350,416 349,412 347,407 345,403 344,399 342,394 340,390 339,386 338,381 337,376 336,371 335,366 334,361 333,357 332,352 332,347 332,343 331,338 331,333 331,328 330,323 330,318 330,313 Z"/>
   <path fill="none" stroke="rgb(0,0,255)" id="Drawing_2_1" d="M 387,324 C 387,327 387,331 388,335 388,338 389,342 390,346 390,350 391,354 392,358 393,361 394,365 395,369 396,372 397,376 398,380 399,383 400,387 402,391 403,394 404,397 406,401 407,404 408,407 410,411 412,414 414,417 416,421 418,424 420,427 422,431 424,434 426,437 428,440 430,443 432,446 434,450 436,452 439,455 442,458 444,461 446,464 449,467 451,469 454,472 457,475 459,477 462,479 465,482 468,484 471,487 475,490 477,492 480,494 483,497 486,499 489,501 493,504 496,506 499,508 503,510 506,511 509,513 513,515 516,516 519,518 523,520 526,521 530,523 534,525 537,526 541,527 545,529 548,530 552,531 556,533 560,534 564,535 568,536 572,537 576,538 580,539 583,539 587,539 591,540 595,540 599,541 603,542 607,542 611,542 615,543 619,543 623,543 627,543 632,543 636,543 640,543 644,542 648,542 652,542 656,541 660,540 664,540 668,539 672,539 676,539 680,538 684,537 688,536 692,535 696,534 700,533 704,531 708,530 711,529 715,527 719,526 722,525 726,523 730,522 733,521 737,519 740,517 743,516 747,514 750,512 753,510 757,508 760,506 763,504 767,502 770,500 773,498 776,495 779,493 781,491 785,488 788,485 791,483 794,480 797,478 799,476 802,473 805,470 807,468 810,465 813,462 815,459 817,456 819,453 821,451 824,448 826,445 828,442 831,439 833,436 835,433 837,429 838,425 840,422 842,419 844,416 846,413 847,409 849,406 850,403 852,399 853,395 855,392 856,388 858,384 859,381 860,377 861,374 862,371 863,367 864,363 865,360 866,356 866,352 867,348 867,344 868,340 868,337 868,333 869,329 869,325 869,321 869,317 869,313 869,309 869,305 869,301 869,297 868,293 868,290 868,286 867,282 867,278 866,274 866,270 865,267 864,263 863,259 862,256 861,252 860,248 859,244 858,240 857,236 856,233 854,229 853,226 851,223 849,219 848,216 846,213 844,209 843,206 841,203 839,200 837,196 835,193 833,190 831,187 829,184 827,181 825,178 822,175 820,172 818,170 815,167 813,164 811,161 808,158 806,155 803,152 800,149 797,147 794,144 791,142 789,140 786,137 783,135 780,133 777,130 774,128 771,126 768,123 764,121 761,119 758,117 754,115 751,113 748,111 744,109 741,107 738,106 734,104 731,103 727,101 723,100 720,99 716,97 712,96 709,95 705,93 701,92 697,91 693,90 689,89 686,88 682,87 678,86 674,85 670,85 666,84 662,84 658,83 654,83 650,83 646,82 641,82 637,82 633,81 629,81 625,81 621,81 616,81 612,81 608,82 604,82 600,83 596,83 591,84 588,85 584,85 581,86 577,87 573,88 569,89 565,90 561,90 557,91 553,92 549,94 546,95 542,96 538,98 535,99 531,101 528,102 525,104 521,106 517,107 514,109 510,111 507,112 504,114 500,116 497,118 494,120 491,122 488,125 485,127 481,129 478,132 475,134 472,136 469,139 467,141 464,144 461,146 458,149 455,152 452,154 450,157 447,160 445,162 443,165 440,168 437,171 435,174 432,177 430,180 428,183 426,186 424,189 422,192 420,195 418,199 416,202 414,205 412,208 411,212 409,215 407,218 406,222 404,225 403,228 402,232 400,235 399,239 398,243 397,246 396,250 395,254 394,257 393,261 392,265 391,268 391,272 391,276 390,280 389,284 389,288 388,291 388,295 388,299 387,303 387,307 387,311 387,315 387,319 387,324 Z"/>
   </g>
   <g>
   <path fill="rgb(0,0,255)" stroke="none" d="M 582,384 C 582,337 582,290 582,242 614,242 646,242 678,242 678,250 678,258 678,266 655,266 633,266 610,266 610,277 610,289 610,300 630,300 649,300 668,300 668,308 668,316 668,324 649,324 630,324 610,324 610,344 610,364 610,384 L 582,384 Z"/>
    <rect fill="none" stroke="none" x="582" y="242" width="97" height="143"/>
   </g>
   <g>
   <path fill="rgb(0,0,255)" stroke="none" d="M 275,889 C 343,958 411,1026 480,1095 466,1109 452,1122 439,1136 370,1067 302,998 234,929 248,916 261,903 275,889 Z"/>
   <path fill="none" stroke="rgb(0,0,255)" id="Drawing_4_0" d="M 275,889 C 343,958 411,1026 480,1095 466,1109 452,1122 439,1136 370,1067 302,998 234,929 248,916 261,903 275,889 Z"/>
   </g>
   <g>
   <path fill="rgb(0,0,255)" stroke="none" d="M 480,930 C 411,999 343,1067 275,1136 261,1123 248,1109 234,1096 302,1027 370,959 439,890 452,904 466,917 480,930 Z"/>
   <path fill="none" stroke="rgb(0,0,255)" id="Drawing_5_0" d="M 480,930 C 411,999 343,1067 275,1136 261,1123 248,1109 234,1096 302,1027 370,959 439,890 452,904 466,917 480,930 Z"/>
   </g>
  </g>
 </g>
</svg>