<?xml version="1.0" encoding="UTF-8"?>

<svg version="1.2" width="150px" height="150px" viewBox="0 0 1160 1160" xmlns="http://www.w3.org/2000/svg" xmlns:xlink="http://www.w3.org/1999/xlink">
 <g visibility="visible" id="MasterSlide_1_Standard">
  <g id="DrawingGroup_1">
   <g>
   <path fill="rgb(0,0,255)" stroke="none" d="M 383,323 C 383,542 383,762 383,981 364,981 345,981 326,981 326,762 326,542 326,323 345,323 364,323 383,323 Z"/>
   <path fill="none" stroke="rgb(0,0,255)" id="Drawing_1_0" d="M 383,323 C 383,542 383,762 383,981 364,981 345,981 326,981 326,762 326,542 326,323 345,323 364,323 383,323 Z"/>
   </g>
   <g>
   <path fill="rgb(0,0,255)" stroke="none" d="M 245,1019 L 245,1019 C 245,962 294,914 352,914 L 352,914 352,914 352,914 C 412,914 460,962 460,1019 L 460,1019 460,1019 460,1019 C 460,1076 412,1122 352,1122 L 352,1122 352,1122 352,1122 C 294,1122 245,1076 245,1019 Z"/>
    <rect fill="none" stroke="none" x="244" y="914" width="217" height="210"/>
   </g>
   <g>
   <path fill="rgb(0,0,255)" stroke="none" d="M 241,1019 C 241,1015 242,1012 242,1008 243,1004 243,1001 244,997 245,994 246,990 247,987 248,984 250,980 251,977 252,974 254,971 255,967 257,965 259,962 261,959 263,957 265,954 267,951 269,949 272,946 274,943 277,941 279,939 282,936 285,934 288,932 291,930 294,929 296,927 299,925 303,924 306,922 310,920 313,919 317,918 320,916 323,916 327,915 330,914 334,914 338,913 342,912 345,912 348,912 352,911 356,912 360,912 364,912 367,913 371,914 375,914 378,915 381,916 385,916 388,918 392,919 396,920 399,922 402,924 405,925 408,927 411,929 415,930 417,932 420,934 423,936 425,939 428,941 431,943 433,946 435,949 438,951 440,954 442,956 444,958 446,961 448,964 450,967 451,971 452,974 454,977 455,980 456,984 458,987 459,990 460,994 461,997 461,1000 462,1004 463,1007 463,1011 463,1015 464,1019 463,1023 463,1026 463,1030 462,1033 462,1037 462,1040 460,1044 459,1047 458,1051 457,1054 456,1057 455,1060 453,1063 451,1066 450,1069 448,1072 446,1076 445,1079 442,1082 440,1084 438,1087 436,1090 434,1092 432,1095 429,1097 426,1099 423,1101 420,1103 417,1105 415,1107 411,1109 408,1111 405,1113 402,1114 399,1116 396,1117 392,1119 389,1120 386,1122 382,1123 378,1123 375,1124 371,1124 367,1125 364,1125 360,1125 356,1126 353,1126 349,1126 345,1125 342,1125 338,1125 335,1124 331,1124 327,1123 324,1123 320,1122 317,1120 313,1119 310,1117 307,1116 303,1114 300,1113 297,1111 294,1110 291,1108 288,1106 286,1103 283,1101 280,1099 277,1097 274,1095 272,1092 269,1090 267,1087 265,1084 263,1082 261,1079 259,1076 258,1073 256,1070 254,1067 253,1064 251,1061 250,1058 248,1054 247,1051 246,1048 245,1044 244,1041 243,1037 243,1034 242,1030 242,1026 241,1023 241,1019 Z M 249,1029 C 250,1032 250,1036 251,1039 252,1042 252,1045 253,1048 254,1051 256,1055 257,1058 258,1061 260,1064 261,1067 263,1069 264,1072 266,1074 268,1077 271,1080 273,1083 275,1085 277,1088 279,1090 281,1092 284,1094 286,1096 289,1098 291,1100 294,1102 297,1104 300,1105 303,1107 306,1108 309,1110 312,1111 315,1112 318,1114 321,1115 324,1116 328,1116 331,1117 335,1117 338,1118 342,1118 345,1118 348,1119 352,1119 355,1119 359,1119 363,1119 366,1118 369,1118 373,1117 376,1116 380,1116 384,1115 387,1114 390,1112 393,1111 396,1110 399,1108 402,1107 405,1105 408,1104 411,1102 413,1100 416,1098 419,1096 421,1094 424,1092 427,1090 429,1088 431,1085 433,1083 435,1080 437,1078 439,1075 440,1072 442,1070 444,1067 445,1064 446,1061 448,1058 449,1055 450,1052 452,1049 452,1046 453,1042 454,1039 454,1036 455,1032 456,1029 456,1026 456,1022 457,1019 456,1016 456,1012 456,1009 455,1006 454,1002 454,999 453,996 452,992 452,989 450,986 449,983 448,980 446,977 445,974 444,971 442,968 440,965 439,962 437,960 435,958 433,955 431,953 429,951 427,948 424,946 421,944 419,941 416,940 413,938 411,936 408,934 405,932 403,930 400,929 397,928 394,926 390,925 387,924 384,923 380,922 376,921 373,920 369,920 366,920 363,919 359,919 356,919 353,918 349,919 345,919 342,919 339,920 335,920 332,920 329,921 325,922 322,923 319,924 315,925 312,926 309,928 306,929 303,930 300,932 297,934 294,936 292,938 289,940 287,941 284,943 282,945 279,947 277,950 275,953 273,955 271,958 269,960 267,962 265,965 264,968 262,971 260,974 259,976 257,979 256,982 254,986 253,989 252,992 252,996 251,999 250,1002 250,1005 249,1008 249,1012 249,1015 249,1019 249,1022 249,1026 249,1029 Z"/>
   <path fill="none" stroke="rgb(0,0,255)" id="Drawing_3_0" d="M 241,1019 C 241,1015 242,1012 242,1008 243,1004 243,1001 244,997 245,994 246,990 247,987 248,984 250,980 251,977 252,974 254,971 255,967 257,965 259,962 261,959 263,957 265,954 267,951 269,949 272,946 274,943 277,941 279,939 282,936 285,934 288,932 291,930 294,929 296,927 299,925 303,924 306,922 310,920 313,919 317,918 320,916 323,916 327,915 330,914 334,914 338,913 342,912 345,912 348,912 352,911 356,912 360,912 364,912 367,913 371,914 375,914 378,915 381,916 385,916 388,918 392,919 396,920 399,922 402,924 405,925 408,927 411,929 415,930 417,932 420,934 423,936 425,939 428,941 431,943 433,946 435,949 438,951 440,954 442,956 444,958 446,961 448,964 450,967 451,971 452,974 454,977 455,980 456,984 458,987 459,990 460,994 461,997 461,1000 462,1004 463,1007 463,1011 463,1015 464,1019 463,1023 463,1026 463,1030 462,1033 462,1037 462,1040 460,1044 459,1047 458,1051 457,1054 456,1057 455,1060 453,1063 451,1066 450,1069 448,1072 446,1076 445,1079 442,1082 440,1084 438,1087 436,1090 434,1092 432,1095 429,1097 426,1099 423,1101 420,1103 417,1105 415,1107 411,1109 408,1111 405,1113 402,1114 399,1116 396,1117 392,1119 389,1120 386,1122 382,1123 378,1123 375,1124 371,1124 367,1125 364,1125 360,1125 356,1126 353,1126 349,1126 345,1125 342,1125 338,1125 335,1124 331,1124 327,1123 324,1123 320,1122 317,1120 313,1119 310,1117 307,1116 303,1114 300,1113 297,1111 294,1110 291,1108 288,1106 286,1103 283,1101 280,1099 277,1097 274,1095 272,1092 269,1090 267,1087 265,1084 263,1082 261,1079 259,1076 258,1073 256,1070 254,1067 253,1064 251,1061 250,1058 248,1054 247,1051 246,1048 245,1044 244,1041 243,1037 243,1034 242,1030 242,1026 241,1023 241,1019 Z"/>
   <path fill="none" stroke="rgb(0,0,255)" id="Drawing_3_1" d="M 249,1029 C 250,1032 250,1036 251,1039 252,1042 252,1045 253,1048 254,1051 256,1055 257,1058 258,1061 260,1064 261,1067 263,1069 264,1072 266,1074 268,1077 271,1080 273,1083 275,1085 277,1088 279,1090 281,1092 284,1094 286,1096 289,1098 291,1100 294,1102 297,1104 300,1105 303,1107 306,1108 309,1110 312,1111 315,1112 318,1114 321,1115 324,1116 328,1116 331,1117 335,1117 338,1118 342,1118 345,1118 348,1119 352,1119 355,1119 359,1119 363,1119 366,1118 369,1118 373,1117 376,1116 380,1116 384,1115 387,1114 390,1112 393,1111 396,1110 399,1108 402,1107 405,1105 408,1104 411,1102 413,1100 416,1098 419,1096 421,1094 424,1092 427,1090 429,1088 431,1085 433,1083 435,1080 437,1078 439,1075 440,1072 442,1070 444,1067 445,1064 446,1061 448,1058 449,1055 450,1052 452,1049 452,1046 453,1042 454,1039 454,1036 455,1032 456,1029 456,1026 456,1022 457,1019 456,1016 456,1012 456,1009 455,1006 454,1002 454,999 453,996 452,992 452,989 450,986 449,983 448,980 446,977 445,974 444,971 442,968 440,965 439,962 437,960 435,958 433,955 431,953 429,951 427,948 424,946 421,944 419,941 416,940 413,938 411,936 408,934 405,932 403,930 400,929 397,928 394,926 390,925 387,924 384,923 380,922 376,921 373,920 369,920 366,920 363,919 359,919 356,919 353,918 349,919 345,919 342,919 339,920 335,920 332,920 329,921 325,922 322,923 319,924 315,925 312,926 309,928 306,929 303,930 300,932 297,934 294,936 292,938 289,940 287,941 284,943 282,945 279,947 277,950 275,953 273,955 271,958 269,960 267,962 265,965 264,968 262,971 260,974 259,976 257,979 256,982 254,986 253,989 252,992 252,996 251,999 250,1002 250,1005 249,1008 249,1012 249,1015 249,1019 249,1022 249,1026 249,1029 Z"/>
   </g>
   <g>
   <path fill="rgb(0,0,255)" stroke="none" d="M 325,323 C 325,318 326,313 326,308 326,303 326,298 326,293 327,288 327,283 328,279 329,274 330,269 331,265 332,260 333,255 334,250 335,245 337,241 338,237 339,232 341,228 343,224 344,219 346,214 348,210 350,205 352,201 354,197 356,193 358,189 361,185 363,181 365,177 368,173 370,169 373,165 376,161 378,157 381,153 384,149 387,145 390,142 393,138 396,135 399,131 402,128 405,125 408,121 412,118 415,115 418,112 422,109 425,106 428,103 432,100 436,97 440,94 444,91 448,88 452,86 456,83 460,80 464,78 468,75 472,73 476,71 480,69 484,67 488,65 493,63 497,61 501,59 506,57 510,55 515,54 520,52 524,50 528,49 533,47 538,46 543,44 548,43 552,42 557,41 562,40 566,39 571,38 576,37 581,37 585,36 590,36 595,35 600,35 605,34 611,34 616,34 621,34 626,34 631,34 636,34 641,34 646,35 651,35 656,36 661,36 665,37 670,38 675,38 680,39 685,40 690,42 695,43 700,44 704,46 708,47 713,48 718,50 723,51 728,53 732,54 736,56 741,58 745,60 749,62 754,64 758,66 762,68 767,70 771,73 775,75 779,78 783,80 786,83 790,85 794,88 798,90 802,93 806,96 809,99 813,102 817,105 820,108 824,111 827,114 830,117 833,121 837,124 840,128 843,131 847,135 850,138 853,142 856,145 859,149 862,153 864,156 867,160 870,164 872,168 875,172 877,176 880,180 882,184 884,188 886,192 888,196 890,200 893,204 895,209 897,213 898,217 900,222 901,226 903,230 904,235 906,239 907,244 909,249 910,253 912,258 913,263 914,267 914,272 915,277 916,282 916,287 917,292 917,297 918,302 918,307 918,311 919,316 919,321 919,326 918,331 918,336 918,341 917,346 917,351 916,355 916,360 915,365 914,369 914,374 913,379 912,384 910,389 909,394 908,398 906,402 905,407 903,411 902,415 900,420 898,424 897,429 895,434 893,438 891,442 889,447 887,451 884,455 882,459 880,463 878,467 876,471 873,475 871,479 868,483 865,487 863,491 860,495 857,498 853,501 850,505 847,508 844,512 841,516 838,519 834,522 831,526 828,529 825,532 821,535 818,538 814,541 810,544 807,547 803,550 799,553 795,555 791,558 787,561 784,563 780,566 776,569 772,571 768,573 763,575 759,577 755,579 750,581 746,583 742,585 738,587 733,588 728,590 723,591 719,593 715,595 710,596 706,598 701,599 696,600 691,601 686,602 681,603 677,604 672,605 667,606 662,607 657,607 652,607 647,608 642,609 637,609 632,609 627,609 622,609 617,609 612,609 606,609 601,609 596,608 591,607 587,607 582,607 578,606 573,606 568,605 563,604 558,603 553,602 549,600 544,599 539,598 535,596 530,595 525,594 521,592 516,591 511,589 507,588 502,586 498,584 494,582 490,579 486,577 482,575 477,573 473,571 469,569 465,566 461,563 457,561 453,558 449,555 445,553 441,550 437,547 434,545 430,542 426,539 423,536 419,533 416,530 413,527 409,523 406,519 403,516 400,512 397,509 394,506 390,502 387,498 384,495 381,491 379,487 377,484 374,480 371,476 368,473 366,468 364,464 362,460 359,456 357,452 355,448 352,443 350,439 348,435 346,430 344,426 343,422 341,417 340,413 339,409 338,404 336,399 335,395 334,390 332,385 331,381 330,376 329,371 328,367 327,362 327,357 326,352 326,347 326,342 326,337 326,332 325,327 325,323 Z M 382,333 C 382,337 382,341 383,345 383,349 383,353 384,357 384,360 385,363 386,367 387,371 388,375 389,379 390,382 391,385 392,389 393,392 394,396 396,400 397,403 398,407 400,411 401,414 403,417 405,421 407,424 409,427 411,431 412,434 414,437 416,441 418,444 420,447 422,450 424,453 426,456 429,459 431,462 433,465 436,468 438,470 440,473 443,476 446,478 449,481 452,484 454,486 456,489 459,492 462,494 465,497 469,500 471,502 474,504 477,506 480,508 483,510 487,513 490,515 493,517 496,519 499,521 502,523 506,525 509,526 513,528 517,530 520,531 523,532 527,534 530,535 534,536 538,538 541,539 545,541 549,543 553,543 557,544 561,545 565,546 569,547 573,548 577,548 581,549 584,550 588,550 592,551 595,552 600,552 604,552 608,553 613,553 617,553 621,553 625,553 629,553 633,553 637,552 641,552 645,552 650,551 654,550 658,550 662,549 666,548 669,548 673,547 677,546 681,546 685,545 689,544 692,543 696,541 700,540 703,539 707,537 711,536 715,535 719,533 722,532 725,531 729,529 733,527 736,525 739,523 742,521 745,520 749,518 752,516 755,514 759,511 762,509 765,507 768,504 771,502 774,500 777,497 780,495 783,493 786,490 789,487 791,485 794,482 797,480 799,478 802,475 805,472 807,469 809,466 811,463 813,460 816,457 819,454 821,452 823,448 825,445 827,442 829,438 831,435 833,432 835,428 836,425 838,422 840,418 841,415 843,412 844,408 846,405 847,402 848,398 849,394 850,391 851,387 853,383 854,380 855,376 855,372 856,369 857,365 858,361 859,358 859,354 860,350 860,346 860,342 861,338 861,335 861,331 861,327 861,323 861,319 861,315 861,311 861,307 860,303 860,299 860,295 859,291 859,287 858,283 858,280 857,277 856,273 856,269 855,265 854,261 852,258 851,255 850,251 848,247 847,244 846,240 845,236 844,233 842,229 841,226 839,223 837,219 835,216 833,213 831,209 830,206 828,203 826,200 824,197 822,194 820,191 817,188 814,185 812,182 810,179 807,176 805,173 803,171 800,168 798,165 795,163 792,160 790,157 787,155 784,152 781,149 778,147 775,144 772,142 769,140 766,138 763,136 760,133 757,131 754,129 751,127 747,125 744,123 741,121 737,119 734,117 731,116 727,114 724,113 720,111 716,110 713,109 709,107 705,106 702,104 698,103 694,101 690,100 686,100 682,99 678,98 674,97 670,96 667,95 663,95 659,94 655,93 651,93 647,92 643,92 639,91 634,91 630,91 626,90 622,90 618,90 614,91 610,91 606,91 602,92 597,92 593,93 589,93 585,94 582,95 578,95 575,96 570,97 566,97 562,98 558,99 554,100 551,101 547,102 543,104 540,105 536,106 532,108 529,109 525,110 521,112 518,113 514,115 511,117 508,119 504,121 501,122 498,124 494,126 491,128 488,130 485,132 482,135 479,137 475,139 472,142 469,144 466,146 463,149 461,151 458,154 455,156 453,159 450,162 447,164 444,167 441,170 439,172 437,175 434,178 432,181 430,184 427,187 425,189 423,192 420,195 418,199 416,202 414,205 412,208 411,212 409,215 407,218 405,222 403,225 401,228 400,232 398,235 397,238 396,242 395,245 394,249 393,253 391,256 390,260 389,264 388,267 387,271 387,275 386,278 385,282 384,286 383,290 383,294 383,298 382,301 382,305 382,309 382,313 382,317 382,321 382,325 382,329 382,333 Z"/>
   <path fill="none" stroke="rgb(0,0,255)" id="Drawing_4_0" d="M 325,323 C 325,318 326,313 326,308 326,303 326,298 326,293 327,288 327,283 328,279 329,274 330,269 331,265 332,260 333,255 334,250 335,245 337,241 338,237 339,232 341,228 343,224 344,219 346,214 348,210 350,205 352,201 354,197 356,193 358,189 361,185 363,181 365,177 368,173 370,169 373,165 376,161 378,157 381,153 384,149 387,145 390,142 393,138 396,135 399,131 402,128 405,125 408,121 412,118 415,115 418,112 422,109 425,106 428,103 432,100 436,97 440,94 444,91 448,88 452,86 456,83 460,80 464,78 468,75 472,73 476,71 480,69 484,67 488,65 493,63 497,61 501,59 506,57 510,55 515,54 520,52 524,50 528,49 533,47 538,46 543,44 548,43 552,42 557,41 562,40 566,39 571,38 576,37 581,37 585,36 590,36 595,35 600,35 605,34 611,34 616,34 621,34 626,34 631,34 636,34 641,34 646,35 651,35 656,36 661,36 665,37 670,38 675,38 680,39 685,40 690,42 695,43 700,44 704,46 708,47 713,48 718,50 723,51 728,53 732,54 736,56 741,58 745,60 749,62 754,64 758,66 762,68 767,70 771,73 775,75 779,78 783,80 786,83 790,85 794,88 798,90 802,93 806,96 809,99 813,102 817,105 820,108 824,111 827,114 830,117 833,121 837,124 840,128 843,131 847,135 850,138 853,142 856,145 859,149 862,153 864,156 867,160 870,164 872,168 875,172 877,176 880,180 882,184 884,188 886,192 888,196 890,200 893,204 895,209 897,213 898,217 900,222 901,226 903,230 904,235 906,239 907,244 909,249 910,253 912,258 913,263 914,267 914,272 915,277 916,282 916,287 917,292 917,297 918,302 918,307 918,311 919,316 919,321 919,326 918,331 918,336 918,341 917,346 917,351 916,355 916,360 915,365 914,369 914,374 913,379 912,384 910,389 909,394 908,398 906,402 905,407 903,411 902,415 900,420 898,424 897,429 895,434 893,438 891,442 889,447 887,451 884,455 882,459 880,463 878,467 876,471 873,475 871,479 868,483 865,487 863,491 860,495 857,498 853,501 850,505 847,508 844,512 841,516 838,519 834,522 831,526 828,529 825,532 821,535 818,538 814,541 810,544 807,547 803,550 799,553 795,555 791,558 787,561 784,563 780,566 776,569 772,571 768,573 763,575 759,577 755,579 750,581 746,583 742,585 738,587 733,588 728,590 723,591 719,593 715,595 710,596 706,598 701,599 696,600 691,601 686,602 681,603 677,604 672,605 667,606 662,607 657,607 652,607 647,608 642,609 637,609 632,609 627,609 622,609 617,609 612,609 606,609 601,609 596,608 591,607 587,607 582,607 578,606 573,606 568,605 563,604 558,603 553,602 549,600 544,599 539,598 535,596 530,595 525,594 521,592 516,591 511,589 507,588 502,586 498,584 494,582 490,579 486,577 482,575 477,573 473,571 469,569 465,566 461,563 457,561 453,558 449,555 445,553 441,550 437,547 434,545 430,542 426,539 423,536 419,533 416,530 413,527 409,523 406,519 403,516 400,512 397,509 394,506 390,502 387,498 384,495 381,491 379,487 377,484 374,480 371,476 368,473 366,468 364,464 362,460 359,456 357,452 355,448 352,443 350,439 348,435 346,430 344,426 343,422 341,417 340,413 339,409 338,404 336,399 335,395 334,390 332,385 331,381 330,376 329,371 328,367 327,362 327,357 326,352 326,347 326,342 326,337 326,332 325,327 325,323 Z"/>
   <path fill="none" stroke="rgb(0,0,255)" id="Drawing_4_1" d="M 382,333 C 382,337 382,341 383,345 383,349 383,353 384,357 384,360 385,363 386,367 387,371 388,375 389,379 390,382 391,385 392,389 393,392 394,396 396,400 397,403 398,407 400,411 401,414 403,417 405,421 407,424 409,427 411,431 412,434 414,437 416,441 418,444 420,447 422,450 424,453 426,456 429,459 431,462 433,465 436,468 438,470 440,473 443,476 446,478 449,481 452,484 454,486 456,489 459,492 462,494 465,497 469,500 471,502 474,504 477,506 480,508 483,510 487,513 490,515 493,517 496,519 499,521 502,523 506,525 509,526 513,528 517,530 520,531 523,532 527,534 530,535 534,536 538,538 541,539 545,541 549,543 553,543 557,544 561,545 565,546 569,547 573,548 577,548 581,549 584,550 588,550 592,551 595,552 600,552 604,552 608,553 613,553 617,553 621,553 625,553 629,553 633,553 637,552 641,552 645,552 650,551 654,550 658,550 662,549 666,548 669,548 673,547 677,546 681,546 685,545 689,544 692,543 696,541 700,540 703,539 707,537 711,536 715,535 719,533 722,532 725,531 729,529 733,527 736,525 739,523 742,521 745,520 749,518 752,516 755,514 759,511 762,509 765,507 768,504 771,502 774,500 777,497 780,495 783,493 786,490 789,487 791,485 794,482 797,480 799,478 802,475 805,472 807,469 809,466 811,463 813,460 816,457 819,454 821,452 823,448 825,445 827,442 829,438 831,435 833,432 835,428 836,425 838,422 840,418 841,415 843,412 844,408 846,405 847,402 848,398 849,394 850,391 851,387 853,383 854,380 855,376 855,372 856,369 857,365 858,361 859,358 859,354 860,350 860,346 860,342 861,338 861,335 861,331 861,327 861,323 861,319 861,315 861,311 861,307 860,303 860,299 860,295 859,291 859,287 858,283 858,280 857,277 856,273 856,269 855,265 854,261 852,258 851,255 850,251 848,247 847,244 846,240 845,236 844,233 842,229 841,226 839,223 837,219 835,216 833,213 831,209 830,206 828,203 826,200 824,197 822,194 820,191 817,188 814,185 812,182 810,179 807,176 805,173 803,171 800,168 798,165 795,163 792,160 790,157 787,155 784,152 781,149 778,147 775,144 772,142 769,140 766,138 763,136 760,133 757,131 754,129 751,127 747,125 744,123 741,121 737,119 734,117 731,116 727,114 724,113 720,111 716,110 713,109 709,107 705,106 702,104 698,103 694,101 690,100 686,100 682,99 678,98 674,97 670,96 667,95 663,95 659,94 655,93 651,93 647,92 643,92 639,91 634,91 630,91 626,90 622,90 618,90 614,91 610,91 606,91 602,92 597,92 593,93 589,93 585,94 582,95 578,95 575,96 570,97 566,97 562,98 558,99 554,100 551,101 547,102 543,104 540,105 536,106 532,108 529,109 525,110 521,112 518,113 514,115 511,117 508,119 504,121 501,122 498,124 494,126 491,128 488,130 485,132 482,135 479,137 475,139 472,142 469,144 466,146 463,149 461,151 458,154 455,156 453,159 450,162 447,164 444,167 441,170 439,172 437,175 434,178 432,181 430,184 427,187 425,189 423,192 420,195 418,199 416,202 414,205 412,208 411,212 409,215 407,218 405,222 403,225 401,228 400,232 398,235 397,238 396,242 395,245 394,249 393,253 391,256 390,260 389,264 388,267 387,271 387,275 386,278 385,282 384,286 383,290 383,294 383,298 382,301 382,305 382,309 382,313 382,317 382,321 382,325 382,329 382,333 Z"/>
   </g>
   <g>
   <path fill="rgb(0,0,255)" stroke="none" d="M 564,393 L 564,251 624,251 C 639,251 650,253 657,255 663,258 669,262 673,269 677,275 679,283 679,291 679,302 676,310 670,317 664,324 654,329 642,330 648,334 653,338 657,342 661,347 667,354 673,365 L 690,393 657,393 636,362 C 629,351 624,344 621,341 619,338 616,336 613,335 610,334 605,334 598,334 L 593,334 593,393 564,393 Z M 593,311 L 614,311 C 627,311 636,311 639,309 642,308 645,306 647,303 649,301 650,297 650,293 650,288 649,284 646,281 644,278 640,277 635,276 633,275 626,275 615,275 L 593,275 593,311 Z"/>
    <rect fill="none" stroke="none" x="564" y="251" width="128" height="143"/>
   </g>
  </g>
 </g>
</svg>