<?xml version="1.0" encoding="UTF-8"?>

<svg version="1.2" width="150px" height="150px" viewBox="0 0 1160 1160" xmlns="http://www.w3.org/2000/svg" xmlns:xlink="http://www.w3.org/1999/xlink">
 <g visibility="visible" id="MasterSlide_1_Standard">
  <g id="Drawing_1">
  <path fill="rgb(0,0,255)" stroke="rgb(0,0,255)" d="M 254,574 L 265,558 278,542 291,526 306,512 320,499 336,486 352,474 368,463 385,452 402,443 420,435 438,427 456,421 475,415 494,410 513,406 532,403 552,401 572,400 591,400 611,401 631,403 651,405 670,408 689,413 709,419 728,425 748,433 766,441 785,451 803,461 821,473 848,493 874,517 898,541 920,568 897,587 877,562 854,539 831,517 805,498 788,487 771,477 754,468 737,460 719,453 701,447 683,441 665,437 647,434 628,431 610,429 592,429 573,429 555,430 537,432 519,435 501,439 483,443 466,448 449,454 432,461 416,469 400,477 384,487 369,497 355,508 340,520 327,532 313,546 301,560 289,575 277,591 Z"/>
  <path fill="rgb(0,0,255)" stroke="rgb(0,0,255)" d="M 577,24 L 1123,569 578,1115 31,569 577,24 Z M 135,603 L 135,535 612,1012 543,1012 1019,536 1019,604 542,126 611,126 135,603 Z"/>
  <path fill="rgb(0,0,255)" stroke="rgb(0,0,255)" d="M 275,555 L 291,572 308,587 325,601 343,615 361,626 379,638 398,648 417,658 436,667 456,674 475,682 494,688 514,692 534,696 553,700 573,701 593,703 612,703 631,702 651,701 669,698 689,695 706,690 725,685 743,678 760,670 777,662 793,653 809,642 825,631 839,619 854,605 865,593 877,580 887,567 897,552 921,569 910,584 899,600 886,613 874,626 858,641 842,654 825,667 807,678 790,688 771,697 753,706 733,712 714,718 694,723 674,727 653,730 632,732 612,732 591,732 570,731 549,728 528,725 507,721 486,716 465,709 445,702 424,694 403,685 383,674 364,663 344,651 325,637 307,623 289,609 271,592 254,576 Z"/>
  <path fill="rgb(0,0,255)" stroke="none" d="M 495,564 L 495,564 C 495,513 537,472 588,472 588,472 588,472 588,472 L 588,472 588,472 C 640,472 681,513 681,564 681,564 681,564 681,564 L 681,564 681,564 C 681,616 640,658 588,658 588,658 588,658 588,658 L 588,658 588,658 C 537,658 495,616 495,564 495,564 495,564 495,564 Z"/>
  <path fill="rgb(0,0,255)" stroke="rgb(0,0,255)" d="M 493,565 L 494,555 496,546 498,536 501,528 505,520 509,512 515,504 521,498 528,492 535,486 543,482 551,477 560,474 569,472 578,471 588,470 598,470 607,472 616,474 626,477 633,482 642,486 648,492 655,498 662,504 667,511 672,520 675,528 679,536 681,546 683,555 683,564 683,574 681,584 679,593 675,601 672,610 667,617 662,625 655,632 648,637 642,643 634,648 626,652 616,655 608,658 598,658 588,659 578,658 569,658 560,655 551,652 543,648 535,643 528,637 521,632 515,625 510,618 505,610 501,601 498,593 496,584 494,574 493,565 Z M 498,574 L 498,583 501,592 503,600 508,608 512,616 518,623 524,629 530,636 537,641 545,645 552,649 561,652 570,654 579,656 588,656 598,656 607,654 615,652 624,649 632,645 640,641 647,636 653,630 659,623 664,616 668,608 673,600 676,592 678,584 679,574 680,565 679,555 678,546 676,537 673,529 669,521 664,514 659,506 653,500 647,493 640,488 632,484 624,480 615,477 607,475 598,473 588,473 579,473 570,475 562,477 552,480 545,484 537,488 530,493 524,499 518,506 513,514 508,520 504,529 501,537 498,546 498,555 497,564 498,574 Z"/>
  </g>
 </g>
</svg>