<?xml version="1.0" encoding="UTF-8"?>

<svg version="1.2" width="150px" height="150px" viewBox="0 0 1160 1160" xmlns="http://www.w3.org/2000/svg" xmlns:xlink="http://www.w3.org/1999/xlink">
 <g visibility="visible" id="MasterSlide_1_Standard">
  <g id="Drawing_1">
  <path fill="rgb(255,0,0)" stroke="none" d="M 443,177 L 443,177 C 443,160 457,146 474,146 474,146 474,146 474,146 L 474,146 474,146 C 491,146 504,160 504,177 504,177 504,177 504,177 L 504,177 504,177 C 504,194 491,208 474,208 474,208 474,208 474,208 L 474,208 474,208 C 457,208 443,194 443,177 443,177 443,177 443,177 Z"/>
  <path fill="rgb(255,0,0)" stroke="rgb(255,0,0)" d="M 439,177 L 439,177 C 439,177 439,177 439,177 L 440,171 440,171 C 440,170 440,170 440,170 L 442,164 442,164 C 443,164 443,163 443,163 L 450,154 450,154 C 450,153 450,153 451,153 L 460,146 460,146 C 461,146 461,146 461,145 L 467,144 467,144 C 467,144 467,144 468,144 L 474,143 474,143 C 474,143 475,143 475,143 L 480,144 480,144 C 480,144 480,144 481,144 L 486,145 486,145 C 487,146 487,146 487,146 L 498,153 498,153 C 498,153 498,153 498,154 L 505,163 505,163 C 505,163 505,164 505,164 L 507,170 507,170 C 507,170 507,170 507,171 L 508,177 508,177 C 508,177 508,177 508,177 L 507,184 507,184 C 507,184 507,184 507,185 L 505,190 505,190 C 505,191 505,191 505,191 L 498,201 498,201 C 498,201 498,202 498,202 L 487,209 487,209 C 487,209 487,209 486,209 L 481,210 481,210 C 480,210 480,210 480,210 L 475,211 475,211 C 475,211 474,211 474,211 L 468,210 468,210 C 467,210 467,210 467,210 L 461,209 461,209 C 461,209 461,209 460,209 L 451,202 451,202 C 450,202 450,201 450,201 L 443,191 443,191 C 443,191 443,191 442,190 L 440,185 440,185 C 440,184 440,184 440,184 L 439,177 Z M 446,183 L 446,183 446,183 448,188 448,187 455,198 454,197 463,204 463,203 469,204 468,204 475,205 474,205 480,204 480,204 486,203 485,204 494,197 493,198 500,188 499,188 502,183 502,183 502,177 502,177 502,171 502,172 499,166 500,167 493,157 494,158 484,151 486,151 480,150 480,150 474,149 475,149 468,150 469,150 463,151 463,151 454,158 455,157 448,167 448,166 446,172 446,171 445,177 445,177 446,183 Z"/>
  <path fill="rgb(255,0,0)" stroke="rgb(255,0,0)" d="M 449,226 L 519,296 519,296 C 527,304 527,316 519,322 511,331 499,331 492,322 L 422,253 422,253 C 414,245 414,234 422,226 429,218 441,218 449,226 Z"/>
  <path fill="rgb(255,0,0)" stroke="rgb(255,0,0)" d="M 596,247 L 526,317 526,317 C 518,325 506,325 499,317 491,310 491,298 499,290 L 569,220 569,220 C 576,212 588,212 596,220 604,228 604,239 596,247 Z"/>
  <path fill="rgb(255,0,0)" stroke="rgb(255,0,0)" d="M 354,164 L 298,220 298,220 C 291,228 279,228 271,220 263,213 263,200 271,193 L 327,137 327,137 C 334,129 346,129 354,137 362,145 362,157 354,164 Z"/>
  <path fill="rgb(255,0,0)" stroke="rgb(255,0,0)" d="M 362,145 L 439,210 439,210 C 446,216 447,228 440,236 433,245 422,245 414,239 L 337,175 337,175 C 329,168 328,156 335,147 342,139 354,138 362,145 Z"/>
  <path fill="rgb(255,0,0)" stroke="rgb(255,0,0)" d="M 442,245 L 337,350 337,350 C 326,360 308,360 298,350 286,339 286,321 298,310 L 402,204 402,204 C 413,194 431,194 442,204 452,216 452,234 442,245 Z"/>
  <path fill="rgb(255,0,0)" stroke="rgb(255,0,0)" d="M 351,314 L 427,378 427,378 C 434,385 436,397 428,404 422,413 410,414 402,407 L 326,343 326,343 C 317,336 316,324 323,316 330,308 342,306 351,314 Z"/>
  <path fill="rgb(255,0,0)" stroke="rgb(255,0,0)" d="M 433,397 L 428,521 428,521 C 428,531 419,540 408,539 398,539 389,529 390,519 L 394,395 394,395 C 395,385 404,376 415,377 425,377 433,387 433,397 Z"/>
  <path fill="rgb(255,0,0)" stroke="rgb(255,0,0)" d="M 327,375 L 265,432 265,432 C 257,440 245,440 238,432 231,423 231,411 239,404 L 300,347 300,347 C 308,340 320,340 328,347 334,355 334,368 327,375 Z"/>
  <path fill="rgb(255,0,0)" stroke="rgb(255,0,0)" d="M 240,432 L 160,363 160,363 C 151,357 151,345 157,336 164,328 176,328 185,334 L 265,402 265,402 C 274,409 275,421 268,429 261,437 249,439 240,432 Z"/>
  <path fill="rgb(255,0,0)" stroke="rgb(255,0,0)" d="M 232,499 L 108,498 108,498 C 104,498 99,494 99,489 100,484 104,481 109,481 L 232,481 232,481 C 237,482 241,486 240,491 240,496 237,500 232,499 Z"/>
  <path fill="rgb(255,0,0)" stroke="rgb(255,0,0)" d="M 232,470 L 108,469 108,469 C 104,469 99,464 99,459 100,455 104,451 109,451 L 232,452 232,452 C 237,452 241,457 240,462 240,466 237,470 232,470 Z"/>
  <path fill="rgb(255,0,0)" stroke="none" d="M 895,177 L 895,177 C 895,160 909,146 926,146 926,146 926,146 926,146 L 926,146 926,146 C 943,146 957,160 957,177 957,177 957,177 957,177 L 957,177 957,177 C 957,194 943,208 926,208 926,208 926,208 926,208 L 926,208 926,208 C 909,208 895,194 895,177 895,177 895,177 895,177 Z"/>
  <path fill="rgb(255,0,0)" stroke="rgb(255,0,0)" d="M 892,177 L 892,177 C 892,177 892,177 892,177 L 892,171 892,171 C 892,170 892,170 892,170 L 894,164 894,164 C 895,164 895,163 895,163 L 902,154 902,154 C 902,153 902,153 903,153 L 912,146 912,146 C 912,146 913,146 913,145 L 919,144 919,144 C 919,144 919,144 920,144 L 926,143 926,143 C 926,143 926,143 926,143 L 933,144 933,144 C 933,144 933,144 933,144 L 939,145 939,145 C 939,146 939,146 939,146 L 950,153 950,153 C 950,153 950,153 951,154 L 957,163 957,163 C 957,163 957,164 957,164 L 959,170 959,170 C 959,170 959,170 959,171 L 960,177 960,177 C 960,177 960,177 960,177 L 959,184 959,184 C 959,184 959,184 959,185 L 957,190 957,190 C 957,191 957,191 957,191 L 951,201 951,201 C 950,201 950,202 950,202 L 939,209 939,209 C 939,209 939,209 939,209 L 933,210 933,210 C 933,210 933,210 933,210 L 926,211 926,211 C 926,211 926,211 926,211 L 920,210 920,210 C 919,210 919,210 919,210 L 913,209 913,209 C 913,209 912,209 912,209 L 903,202 903,202 C 902,202 902,201 902,201 L 895,191 895,191 C 895,191 895,191 894,190 L 892,185 892,185 C 892,184 892,184 892,184 L 892,177 Z M 898,183 L 898,183 898,183 900,188 900,187 906,198 905,197 916,204 915,203 921,204 920,204 926,205 926,205 932,204 931,204 937,203 936,204 946,197 945,198 952,188 951,188 953,183 953,183 954,177 954,177 953,171 953,172 951,166 952,167 945,157 946,158 936,151 937,151 931,150 932,150 926,149 926,149 920,150 921,150 915,151 916,151 905,158 906,157 900,167 900,166 898,172 898,171 898,177 898,177 898,183 Z"/>
  <path fill="rgb(255,0,0)" stroke="rgb(255,0,0)" d="M 901,226 L 971,296 971,296 C 979,304 979,316 971,322 963,331 951,331 944,322 L 874,253 874,253 C 866,245 866,234 874,226 881,218 893,218 901,226 Z"/>
  <path fill="rgb(255,0,0)" stroke="rgb(255,0,0)" d="M 1048,247 L 978,317 978,317 C 970,325 958,325 951,317 943,310 943,298 951,290 L 1021,220 1021,220 C 1028,212 1040,212 1048,220 1056,228 1056,239 1048,247 Z"/>
  <path fill="rgb(255,0,0)" stroke="rgb(255,0,0)" d="M 806,164 L 750,220 750,220 C 743,228 730,228 723,220 716,213 716,200 723,193 L 779,137 779,137 C 786,129 798,129 806,137 814,145 814,157 806,164 Z"/>
  <path fill="rgb(255,0,0)" stroke="rgb(255,0,0)" d="M 814,145 L 890,210 890,210 C 898,216 899,228 892,236 886,245 874,245 865,239 L 789,175 789,175 C 781,168 780,156 787,147 793,139 806,138 814,145 Z"/>
  <path fill="rgb(255,0,0)" stroke="rgb(255,0,0)" d="M 894,245 L 789,350 789,350 C 778,360 760,360 749,350 738,339 738,321 749,310 L 854,204 854,204 C 865,194 883,194 894,204 904,216 904,234 894,245 Z"/>
  <path fill="rgb(255,0,0)" stroke="rgb(255,0,0)" d="M 802,314 L 878,378 878,378 C 886,385 887,397 881,404 874,413 862,414 853,407 L 777,343 777,343 C 769,336 768,324 775,316 782,308 794,306 802,314 Z"/>
  <path fill="rgb(255,0,0)" stroke="rgb(255,0,0)" d="M 885,397 L 880,521 880,521 C 880,531 870,540 860,539 850,539 841,529 842,519 L 846,395 846,395 C 847,385 857,376 867,377 877,377 886,387 885,397 Z"/>
  <path fill="rgb(255,0,0)" stroke="rgb(255,0,0)" d="M 779,375 L 717,432 717,432 C 710,440 697,440 690,432 683,423 683,411 691,404 L 752,347 752,347 C 760,340 772,340 779,347 786,355 786,368 779,375 Z"/>
  <path fill="rgb(255,0,0)" stroke="rgb(255,0,0)" d="M 692,432 L 611,363 611,363 C 604,357 603,345 610,336 616,328 628,328 636,334 L 717,402 717,402 C 725,409 727,421 719,429 713,437 700,439 692,432 Z"/>
  <path fill="rgb(255,0,0)" stroke="rgb(255,0,0)" d="M 684,499 L 560,498 560,498 C 556,498 551,494 551,489 551,484 556,481 561,481 L 684,481 684,481 C 689,482 693,486 692,491 692,496 688,500 684,499 Z"/>
  <path fill="rgb(255,0,0)" stroke="rgb(255,0,0)" d="M 684,470 L 560,469 560,469 C 556,469 551,464 551,459 551,455 556,451 561,451 L 684,452 684,452 C 689,452 693,457 692,462 692,466 688,470 684,470 Z"/>
  <path fill="rgb(255,0,0)" stroke="none" d="M 895,657 L 895,657 C 895,640 909,626 926,626 926,626 926,626 926,626 L 926,626 926,626 C 943,626 957,640 957,657 957,657 957,657 957,657 L 957,657 957,657 C 957,675 943,688 926,688 926,688 926,688 926,688 L 926,688 926,688 C 909,688 895,675 895,657 895,657 895,657 895,657 Z"/>
  <path fill="rgb(255,0,0)" stroke="rgb(255,0,0)" d="M 892,658 L 892,658 C 892,658 892,657 892,657 L 892,651 892,651 C 892,650 892,650 892,650 L 894,644 894,644 C 895,644 895,644 895,643 L 902,634 902,634 C 902,634 902,633 903,633 L 912,626 912,626 C 912,626 913,626 913,625 L 919,623 919,623 C 919,623 919,623 920,623 L 926,622 926,622 C 926,622 926,622 926,622 L 933,623 933,623 C 933,623 933,623 933,623 L 939,625 939,625 C 939,626 939,626 939,626 L 950,633 950,633 C 950,633 950,634 951,634 L 957,643 957,643 C 957,644 957,644 957,644 L 959,650 959,650 C 959,650 959,650 959,651 L 960,657 960,657 C 960,657 960,658 960,658 L 959,663 959,663 C 959,663 959,663 959,664 L 957,669 957,669 C 957,670 957,670 957,670 L 951,681 951,681 C 950,681 950,681 950,681 L 939,688 939,688 C 939,688 939,688 939,688 L 933,691 933,691 C 933,691 933,691 933,691 L 926,691 926,691 C 926,691 926,691 926,691 L 920,691 920,691 C 919,691 919,691 919,691 L 913,688 913,688 C 913,688 912,688 912,688 L 903,681 903,681 C 902,681 902,681 902,681 L 895,670 895,670 C 895,670 895,670 894,669 L 892,664 892,664 C 892,663 892,663 892,663 L 892,658 Z M 898,663 L 898,663 898,663 900,669 900,667 906,677 905,676 916,683 915,682 921,685 920,685 926,685 926,685 932,685 931,685 937,682 936,683 946,676 945,677 952,668 951,669 953,663 953,663 954,657 954,658 953,651 953,652 951,646 952,646 945,637 946,638 936,631 937,631 931,629 932,629 926,628 926,628 920,629 921,629 915,631 916,631 905,638 906,637 900,647 900,646 898,652 898,651 898,658 898,657 898,663 Z"/>
  <path fill="rgb(255,0,0)" stroke="rgb(255,0,0)" d="M 901,705 L 971,775 971,775 C 979,783 979,795 971,803 963,811 951,811 944,803 L 874,733 874,733 C 866,725 866,713 874,705 881,698 893,698 901,705 Z"/>
  <path fill="rgb(255,0,0)" stroke="rgb(255,0,0)" d="M 1048,727 L 978,797 978,797 C 970,805 958,805 951,797 943,789 943,777 951,769 L 1021,699 1021,699 C 1028,692 1040,692 1048,699 1056,707 1056,719 1048,727 Z"/>
  <path fill="rgb(255,0,0)" stroke="rgb(255,0,0)" d="M 806,644 L 750,699 750,699 C 743,707 730,707 723,699 716,693 716,680 723,673 L 779,616 779,616 C 786,609 798,609 806,616 814,624 814,636 806,644 Z"/>
  <path fill="rgb(255,0,0)" stroke="rgb(255,0,0)" d="M 814,625 L 890,689 890,689 C 898,696 899,708 892,716 886,724 874,725 865,718 L 789,654 789,654 C 781,647 780,635 787,627 793,619 806,617 814,625 Z"/>
  <path fill="rgb(255,0,0)" stroke="rgb(255,0,0)" d="M 894,724 L 789,829 789,829 C 778,840 760,840 749,829 738,818 738,800 749,789 L 854,685 854,685 C 865,674 883,674 894,685 904,695 904,713 894,724 Z"/>
  <path fill="rgb(255,0,0)" stroke="rgb(255,0,0)" d="M 802,793 L 878,858 878,858 C 886,864 887,876 881,885 874,893 862,893 853,887 L 777,822 777,822 C 769,816 768,804 775,795 782,787 794,787 802,793 Z"/>
  <path fill="rgb(255,0,0)" stroke="rgb(255,0,0)" d="M 885,876 L 880,1000 880,1000 C 880,1011 870,1019 860,1018 850,1018 841,1009 842,999 L 846,875 846,875 C 847,864 857,856 867,857 877,858 886,866 885,876 Z"/>
  <path fill="rgb(255,0,0)" stroke="rgb(255,0,0)" d="M 779,854 L 717,912 717,912 C 710,919 697,919 690,911 683,904 683,891 691,884 L 752,827 752,827 C 760,819 772,819 779,828 786,835 786,847 779,854 Z"/>
  <path fill="rgb(255,0,0)" stroke="rgb(255,0,0)" d="M 692,911 L 611,843 611,843 C 604,836 603,824 610,817 616,808 628,807 636,814 L 717,882 717,882 C 725,888 727,901 719,909 713,917 700,918 692,911 Z"/>
  <path fill="rgb(255,0,0)" stroke="rgb(255,0,0)" d="M 684,979 L 560,978 560,978 C 556,978 551,974 551,969 551,964 556,960 561,960 L 684,961 684,961 C 689,962 693,965 692,970 692,976 688,980 684,979 Z"/>
  <path fill="rgb(255,0,0)" stroke="rgb(255,0,0)" d="M 684,950 L 560,948 560,948 C 556,948 551,944 551,940 551,934 556,930 561,930 L 684,932 684,932 C 689,932 693,936 692,941 692,946 688,950 684,950 Z"/>
  <path fill="rgb(255,0,0)" stroke="none" d="M 443,657 L 443,657 C 443,640 457,626 474,626 474,626 474,626 474,626 L 474,626 474,626 C 491,626 504,640 504,657 504,657 504,657 504,657 L 504,657 504,657 C 504,675 491,688 474,688 474,688 474,688 474,688 L 474,688 474,688 C 457,688 443,675 443,657 443,657 443,657 443,657 Z"/>
  <path fill="rgb(255,0,0)" stroke="rgb(255,0,0)" d="M 439,658 L 439,658 C 439,658 439,657 439,657 L 440,651 440,651 C 440,650 440,650 440,650 L 442,645 442,645 C 443,644 443,644 443,643 L 450,634 450,634 C 450,634 450,633 451,633 L 460,626 460,626 C 461,626 461,626 461,625 L 467,623 467,623 C 467,623 467,623 468,623 L 474,622 474,622 C 474,622 475,622 475,622 L 480,623 480,623 C 480,623 480,623 481,623 L 486,625 486,625 C 487,626 487,626 487,626 L 498,633 498,633 C 498,633 498,634 498,634 L 505,643 505,643 C 505,644 505,644 505,645 L 507,650 507,650 C 507,650 507,650 507,651 L 508,657 508,657 C 508,657 508,658 508,658 L 507,663 507,663 C 507,663 507,663 507,664 L 505,669 505,669 C 505,670 505,670 505,670 L 498,681 498,681 C 498,681 498,681 498,681 L 487,688 487,688 C 487,688 487,688 486,688 L 481,691 481,691 C 480,691 480,691 480,691 L 475,691 475,691 C 475,691 474,691 474,691 L 468,691 468,691 C 467,691 467,691 467,691 L 461,688 461,688 C 461,688 461,688 460,688 L 451,681 451,681 C 450,681 450,681 450,681 L 443,670 443,670 C 443,670 443,670 442,669 L 440,664 440,664 C 440,663 440,663 440,663 L 439,658 Z M 446,663 L 446,663 446,663 448,669 448,667 455,677 454,676 463,683 463,683 469,685 468,685 475,685 474,685 480,685 480,685 486,683 485,683 494,676 493,677 500,668 499,669 502,663 502,663 502,657 502,658 502,651 502,652 499,646 500,646 493,637 494,638 484,631 486,631 480,629 480,629 474,628 475,628 468,629 469,629 463,631 463,631 454,638 455,637 448,647 448,646 446,652 446,651 445,658 445,657 446,663 Z"/>
  <path fill="rgb(255,0,0)" stroke="rgb(255,0,0)" d="M 449,705 L 519,775 519,775 C 527,783 527,795 519,803 511,811 499,811 492,803 L 422,733 422,733 C 414,725 414,713 422,705 429,698 441,698 449,705 Z"/>
  <path fill="rgb(255,0,0)" stroke="rgb(255,0,0)" d="M 596,727 L 526,797 526,797 C 518,805 506,805 499,797 491,789 491,777 499,769 L 569,699 569,699 C 576,692 588,692 596,699 604,707 604,719 596,727 Z"/>
  <path fill="rgb(255,0,0)" stroke="rgb(255,0,0)" d="M 354,644 L 298,699 298,699 C 291,708 279,708 271,699 263,693 263,681 271,673 L 327,617 327,617 C 334,609 346,609 354,617 362,624 362,636 354,644 Z"/>
  <path fill="rgb(255,0,0)" stroke="rgb(255,0,0)" d="M 362,625 L 439,689 439,689 C 446,696 447,708 440,716 433,724 422,725 414,718 L 337,654 337,654 C 329,647 328,635 335,627 342,619 354,617 362,625 Z"/>
  <path fill="rgb(255,0,0)" stroke="rgb(255,0,0)" d="M 442,724 L 337,829 337,829 C 326,840 308,840 298,829 286,818 286,800 298,789 L 402,685 402,685 C 413,674 431,674 442,685 452,695 452,713 442,724 Z"/>
  <path fill="rgb(255,0,0)" stroke="rgb(255,0,0)" d="M 351,793 L 427,858 427,858 C 434,864 436,876 428,885 422,893 410,894 402,887 L 326,822 326,822 C 317,816 316,804 323,796 330,787 342,787 351,793 Z"/>
  <path fill="rgb(255,0,0)" stroke="rgb(255,0,0)" d="M 433,877 L 428,1000 428,1000 C 428,1011 419,1019 408,1018 398,1018 389,1010 390,999 L 394,875 394,875 C 395,864 404,856 415,857 425,858 433,866 433,877 Z"/>
  <path fill="rgb(255,0,0)" stroke="rgb(255,0,0)" d="M 327,854 L 265,912 265,912 C 257,919 245,919 238,911 231,904 231,892 239,884 L 300,827 300,827 C 308,819 320,820 328,828 334,835 334,847 327,854 Z"/>
  <path fill="rgb(255,0,0)" stroke="rgb(255,0,0)" d="M 240,911 L 160,843 160,843 C 151,837 151,824 157,817 164,808 176,807 185,814 L 265,882 265,882 C 274,889 275,901 268,909 261,917 249,918 240,911 Z"/>
  <path fill="rgb(255,0,0)" stroke="rgb(255,0,0)" d="M 232,980 L 108,978 108,978 C 104,978 99,974 99,969 100,964 104,960 109,960 L 232,962 232,962 C 237,962 241,966 240,971 240,976 237,980 232,980 Z"/>
  <path fill="rgb(255,0,0)" stroke="rgb(255,0,0)" d="M 232,950 L 108,948 108,948 C 104,948 99,944 99,940 100,934 104,930 109,930 L 232,932 232,932 C 237,933 241,936 240,941 240,946 237,950 232,950 Z"/>
  <path fill="rgb(255,0,0)" stroke="rgb(255,0,0)" d="M 16,17 L 1135,17 1135,1136 16,1136 16,17 Z M 60,1115 L 39,1093 1114,1093 1092,1115 1092,39 1114,61 39,61 60,39 60,1115 Z"/>
  </g>
 </g>
</svg>