<?xml version="1.0" encoding="UTF-8"?>

<svg version="1.2" width="150px" height="150px" viewBox="0 0 1160 1160" xmlns="http://www.w3.org/2000/svg" xmlns:xlink="http://www.w3.org/1999/xlink">
 <g visibility="visible" id="MasterSlide_1_Standard">
  <g id="DrawingGroup_1">
   <g>
   <path fill="rgb(0,0,255)" stroke="none" d="M 65,582 C 66,564 66,546 67,529 70,512 72,495 75,479 79,462 83,445 87,428 93,412 99,396 105,381 112,366 119,351 126,336 134,321 143,307 151,293 161,279 171,265 181,252 192,240 204,228 215,216 227,205 239,194 251,183 264,173 277,162 291,152 305,144 319,135 333,127 348,120 363,112 378,105 393,99 409,93 425,87 441,83 458,78 475,74 492,71 509,69 526,66 543,65 560,64 578,63 595,64 613,65 630,66 647,68 664,71 681,73 698,77 715,82 731,86 747,92 763,97 778,103 793,110 808,117 823,124 838,133 852,141 866,150 880,160 894,170 907,180 919,191 931,203 943,214 954,226 965,238 976,250 986,263 996,276 1006,290 1014,304 1023,318 1031,332 1039,347 1046,362 1054,377 1060,393 1065,409 1071,425 1075,441 1080,458 1084,475 1087,492 1089,509 1092,526 1093,543 1094,561 1095,579 1094,596 1093,614 1092,631 1090,648 1087,665 1085,682 1081,699 1077,716 1073,732 1067,748 1061,764 1055,780 1048,795 1040,810 1033,825 1025,840 1016,854 1008,868 998,882 988,895 978,908 967,921 956,933 945,945 933,956 921,967 909,978 896,988 883,998 869,1008 855,1017 841,1025 827,1034 812,1041 797,1049 782,1056 766,1062 750,1068 734,1074 718,1078 702,1082 685,1086 668,1089 651,1091 634,1094 617,1095 599,1096 582,1097 564,1096 546,1096 529,1095 512,1092 495,1090 478,1087 461,1083 445,1079 429,1075 413,1069 397,1063 381,1057 366,1050 351,1043 336,1036 322,1027 308,1019 294,1010 280,1000 266,990 253,980 241,969 229,958 217,947 206,935 195,923 184,911 174,898 164,885 154,871 145,857 137,843 128,828 121,813 113,798 106,782 100,767 94,752 88,736 84,720 79,703 75,686 72,669 70,652 67,634 66,617 66,599 65,582 Z M 137,624 C 139,639 141,654 143,668 147,683 150,697 154,711 159,725 164,739 169,752 175,765 182,778 188,791 195,804 203,816 210,828 218,840 226,852 235,863 244,874 254,885 264,895 274,905 285,915 296,924 307,933 318,941 329,949 341,957 353,965 366,972 379,979 392,985 405,991 418,996 432,1001 446,1006 460,1010 474,1013 488,1017 503,1020 518,1022 533,1025 548,1026 563,1026 578,1027 593,1026 608,1026 623,1025 638,1023 653,1020 668,1018 682,1015 696,1011 710,1008 724,1003 738,998 751,993 764,987 777,981 790,974 803,967 815,960 827,952 839,944 850,935 861,926 872,917 883,907 893,897 903,887 913,876 922,865 931,854 940,843 948,831 956,819 964,807 971,794 977,782 984,769 990,756 995,742 999,728 1004,714 1008,700 1011,686 1015,672 1017,657 1020,642 1022,627 1023,612 1024,597 1025,582 1024,567 1024,552 1023,537 1021,522 1018,507 1016,492 1012,477 1009,463 1005,449 1000,435 996,421 991,408 985,395 978,382 972,369 965,356 958,344 950,332 942,320 933,309 924,298 915,287 905,276 895,266 885,256 875,246 864,237 853,228 842,219 830,211 818,203 806,196 793,188 780,182 767,175 754,169 741,164 728,159 714,154 700,150 686,147 671,143 656,141 641,138 626,136 611,135 596,134 582,133 566,134 551,134 536,135 521,137 506,140 492,142 478,146 464,150 450,154 436,159 422,163 408,168 395,174 382,181 370,187 357,194 344,202 332,209 320,217 309,225 298,234 287,244 276,254 266,264 256,274 247,284 238,295 229,306 220,317 211,329 204,341 196,353 189,366 183,379 176,392 170,405 165,418 160,432 155,446 151,460 148,474 144,488 142,503 139,518 137,533 136,548 136,563 135,579 136,594 136,609 137,624 Z"/>
   <path fill="none" stroke="rgb(0,0,255)" id="Drawing_1_0" d="M 65,582 C 66,564 66,546 67,529 70,512 72,495 75,479 79,462 83,445 87,428 93,412 99,396 105,381 112,366 119,351 126,336 134,321 143,307 151,293 161,279 171,265 181,252 192,240 204,228 215,216 227,205 239,194 251,183 264,173 277,162 291,152 305,144 319,135 333,127 348,120 363,112 378,105 393,99 409,93 425,87 441,83 458,78 475,74 492,71 509,69 526,66 543,65 560,64 578,63 595,64 613,65 630,66 647,68 664,71 681,73 698,77 715,82 731,86 747,92 763,97 778,103 793,110 808,117 823,124 838,133 852,141 866,150 880,160 894,170 907,180 919,191 931,203 943,214 954,226 965,238 976,250 986,263 996,276 1006,290 1014,304 1023,318 1031,332 1039,347 1046,362 1054,377 1060,393 1065,409 1071,425 1075,441 1080,458 1084,475 1087,492 1089,509 1092,526 1093,543 1094,561 1095,579 1094,596 1093,614 1092,631 1090,648 1087,665 1085,682 1081,699 1077,716 1073,732 1067,748 1061,764 1055,780 1048,795 1040,810 1033,825 1025,840 1016,854 1008,868 998,882 988,895 978,908 967,921 956,933 945,945 933,956 921,967 909,978 896,988 883,998 869,1008 855,1017 841,1025 827,1034 812,1041 797,1049 782,1056 766,1062 750,1068 734,1074 718,1078 702,1082 685,1086 668,1089 651,1091 634,1094 617,1095 599,1096 582,1097 564,1096 546,1096 529,1095 512,1092 495,1090 478,1087 461,1083 445,1079 429,1075 413,1069 397,1063 381,1057 366,1050 351,1043 336,1036 322,1027 308,1019 294,1010 280,1000 266,990 253,980 241,969 229,958 217,947 206,935 195,923 184,911 174,898 164,885 154,871 145,857 137,843 128,828 121,813 113,798 106,782 100,767 94,752 88,736 84,720 79,703 75,686 72,669 70,652 67,634 66,617 66,599 65,582 Z"/>
   <path fill="none" stroke="rgb(0,0,255)" id="Drawing_1_1" d="M 137,624 C 139,639 141,654 143,668 147,683 150,697 154,711 159,725 164,739 169,752 175,765 182,778 188,791 195,804 203,816 210,828 218,840 226,852 235,863 244,874 254,885 264,895 274,905 285,915 296,924 307,933 318,941 329,949 341,957 353,965 366,972 379,979 392,985 405,991 418,996 432,1001 446,1006 460,1010 474,1013 488,1017 503,1020 518,1022 533,1025 548,1026 563,1026 578,1027 593,1026 608,1026 623,1025 638,1023 653,1020 668,1018 682,1015 696,1011 710,1008 724,1003 738,998 751,993 764,987 777,981 790,974 803,967 815,960 827,952 839,944 850,935 861,926 872,917 883,907 893,897 903,887 913,876 922,865 931,854 940,843 948,831 956,819 964,807 971,794 977,782 984,769 990,756 995,742 999,728 1004,714 1008,700 1011,686 1015,672 1017,657 1020,642 1022,627 1023,612 1024,597 1025,582 1024,567 1024,552 1023,537 1021,522 1018,507 1016,492 1012,477 1009,463 1005,449 1000,435 996,421 991,408 985,395 978,382 972,369 965,356 958,344 950,332 942,320 933,309 924,298 915,287 905,276 895,266 885,256 875,246 864,237 853,228 842,219 830,211 818,203 806,196 793,188 780,182 767,175 754,169 741,164 728,159 714,154 700,150 686,147 671,143 656,141 641,138 626,136 611,135 596,134 582,133 566,134 551,134 536,135 521,137 506,140 492,142 478,146 464,150 450,154 436,159 422,163 408,168 395,174 382,181 370,187 357,194 344,202 332,209 320,217 309,225 298,234 287,244 276,254 266,264 256,274 247,284 238,295 229,306 220,317 211,329 204,341 196,353 189,366 183,379 176,392 170,405 165,418 160,432 155,446 151,460 148,474 144,488 142,503 139,518 137,533 136,548 136,563 135,579 136,594 136,609 137,624 Z"/>
   </g>
   <g>
   <path fill="rgb(0,0,255)" stroke="none" d="M 457,699 C 457,619 457,538 457,458 481,458 505,458 530,458 544,513 559,567 574,622 588,567 602,513 617,458 641,458 666,458 690,458 690,538 690,619 690,699 675,699 660,699 645,699 645,636 645,572 645,509 629,572 613,636 597,699 581,699 565,699 550,699 534,636 518,572 502,509 502,572 502,636 502,699 L 457,699 Z"/>
    <rect fill="none" stroke="none" x="456" y="457" width="235" height="243"/>
   </g>
  </g>
 </g>
</svg>