<?xml version="1.0" encoding="UTF-8"?>

<svg version="1.2" width="150px" height="150px" viewBox="0 0 1160 1160" xmlns="http://www.w3.org/2000/svg" xmlns:xlink="http://www.w3.org/1999/xlink">
 <g visibility="visible" id="MasterSlide_1_Standard">
  <g id="DrawingGroup_1">
   <g>
   <path fill="rgb(0,0,255)" stroke="none" d="M 390,318 C 390,534 390,749 390,965 371,965 353,965 335,965 335,749 335,534 335,318 353,318 371,318 390,318 Z"/>
   <path fill="none" stroke="rgb(0,0,255)" id="Drawing_1_0" d="M 390,318 C 390,534 390,749 390,965 371,965 353,965 335,965 335,749 335,534 335,318 353,318 371,318 390,318 Z"/>
   </g>
   <g>
   <path fill="rgb(0,0,255)" stroke="none" d="M 336,317 C 336,312 336,307 336,303 336,298 337,293 337,288 338,283 338,278 339,274 340,269 340,264 341,260 342,255 344,250 345,246 346,241 348,237 349,233 350,228 351,223 353,219 354,215 356,211 358,207 360,202 362,198 364,194 366,190 368,186 371,182 373,178 375,173 378,169 380,165 382,162 385,158 388,154 391,151 394,147 396,143 399,140 402,136 405,133 408,129 411,126 414,123 417,119 421,116 424,113 428,110 432,107 435,104 438,100 442,97 445,94 449,92 453,89 456,86 460,84 464,81 468,79 472,76 476,74 480,72 484,69 489,67 493,65 497,62 501,60 505,58 509,57 514,55 518,53 522,51 527,49 531,48 536,46 541,45 545,44 550,43 555,42 559,41 564,39 569,38 574,37 579,37 584,36 588,35 593,35 598,34 602,34 607,33 611,33 617,33 622,33 627,33 632,33 637,33 642,33 647,33 652,33 657,33 662,34 667,35 671,36 676,37 681,37 685,38 690,39 695,40 700,41 705,42 710,44 714,45 719,46 724,48 728,49 733,51 737,52 741,54 746,56 750,58 754,60 758,62 762,64 766,66 771,68 775,71 779,73 783,76 787,78 791,81 795,83 799,86 802,88 806,91 810,94 813,97 817,100 820,103 823,106 827,109 831,112 834,115 838,118 841,121 844,124 847,128 850,131 853,135 856,138 858,142 861,145 864,149 867,153 870,157 872,161 875,164 877,168 879,172 882,176 884,180 886,184 889,189 891,193 893,197 895,201 897,205 899,209 901,213 903,218 904,222 906,226 907,231 908,235 910,240 911,245 912,249 913,254 914,259 915,263 916,267 917,272 918,277 918,282 919,287 919,291 920,296 920,301 920,306 920,311 920,316 920,321 920,326 920,331 920,335 919,340 919,345 918,349 918,354 917,359 916,363 915,368 914,373 913,377 912,382 911,387 910,391 909,395 908,400 906,404 905,409 903,414 901,418 899,422 897,427 895,431 894,435 892,440 890,444 887,448 885,452 883,456 880,460 878,464 876,467 873,471 871,475 868,478 865,482 862,486 859,489 857,493 854,497 851,500 848,504 844,508 841,511 838,514 834,517 831,520 828,523 824,527 821,530 818,533 814,536 810,538 806,541 802,544 799,546 795,549 791,552 788,554 784,557 780,560 776,562 772,564 767,566 763,568 759,570 754,573 750,574 746,576 742,578 738,580 733,582 728,584 724,585 720,586 715,588 711,589 706,590 701,591 697,592 692,593 687,594 683,595 678,596 673,596 668,597 663,598 658,598 653,599 648,600 643,600 638,600 633,600 628,600 623,600 618,600 613,600 609,600 604,599 600,598 595,598 590,597 585,596 580,596 575,596 570,595 565,594 560,593 556,591 551,590 547,589 543,588 538,586 533,585 529,584 524,582 520,580 516,579 511,577 506,575 502,573 498,571 494,569 490,567 486,564 482,562 478,560 474,557 470,555 466,553 462,550 458,547 454,545 450,542 446,539 443,537 439,534 435,531 432,528 428,524 425,521 422,518 418,515 415,512 412,509 409,505 406,502 404,499 400,495 397,491 394,488 391,484 388,480 386,477 383,473 381,469 379,465 376,461 374,457 372,453 369,449 367,445 365,441 363,436 361,432 359,428 357,424 355,420 354,416 352,411 350,406 349,402 348,397 346,393 345,389 344,384 342,379 341,375 340,370 340,365 339,361 338,356 338,351 337,347 337,342 336,337 336,332 336,327 336,322 336,317 Z M 392,328 C 392,331 392,335 393,339 393,343 393,347 394,351 394,354 395,358 396,362 397,365 398,369 399,373 400,376 401,380 402,384 403,387 404,390 405,394 406,397 408,401 410,405 411,408 413,411 415,415 416,418 418,421 420,425 422,428 424,431 426,434 428,437 430,440 432,443 434,446 436,449 438,453 440,455 442,458 445,461 447,463 450,466 453,469 455,471 457,474 460,477 463,479 466,482 469,485 471,487 474,489 477,492 480,494 483,496 486,499 489,501 492,503 495,506 498,508 501,510 505,512 508,513 511,515 515,517 518,518 521,520 525,522 528,523 532,525 536,527 539,528 542,529 546,531 549,532 553,533 557,534 561,535 565,536 569,538 572,538 576,539 580,540 583,540 587,541 591,542 595,542 599,543 603,544 607,544 611,544 615,544 619,544 623,544 627,544 631,544 635,544 639,544 643,544 647,544 651,544 655,543 659,542 663,542 667,541 671,540 675,540 679,539 683,538 686,538 690,536 694,535 697,534 701,533 705,532 708,531 712,529 716,528 719,527 723,525 727,523 730,522 734,520 737,518 740,517 744,515 747,513 750,512 754,510 757,508 760,506 763,504 766,502 769,500 772,497 775,495 778,493 781,490 784,487 786,485 789,482 792,480 795,478 798,475 800,472 802,470 805,467 808,464 810,462 813,459 815,456 817,453 819,450 821,447 823,444 826,441 828,438 830,435 832,432 834,429 835,426 837,422 839,419 841,416 843,412 844,408 845,405 847,401 849,398 850,395 852,391 853,387 854,384 855,380 856,377 856,374 858,370 859,366 860,363 860,359 861,355 861,352 862,348 862,344 863,341 863,337 864,333 864,329 864,325 864,321 864,317 864,313 864,309 864,306 864,302 863,298 863,294 862,290 862,286 861,283 861,279 860,275 860,272 859,268 858,264 857,261 856,257 855,253 854,250 853,246 852,243 850,240 849,236 848,232 846,229 845,225 843,222 841,219 840,215 838,212 836,209 834,205 832,202 830,199 828,196 826,193 824,190 822,187 820,185 818,182 816,179 814,175 811,172 809,169 806,167 803,164 801,161 799,159 796,156 793,154 790,151 787,149 785,146 782,144 779,141 776,139 773,136 770,134 767,132 764,130 760,128 757,126 754,124 751,122 748,120 745,119 741,117 738,115 735,114 731,112 728,110 725,109 721,107 718,105 714,104 710,102 707,101 703,100 699,99 696,98 692,97 688,96 684,95 680,94 676,93 672,92 668,92 664,91 661,91 657,90 653,90 649,90 645,89 640,89 636,89 632,88 628,88 624,88 620,89 616,89 612,89 608,90 604,90 601,90 597,91 593,91 589,92 585,92 581,93 577,94 573,95 570,96 566,97 562,98 559,99 555,100 551,101 548,102 544,104 540,105 537,107 533,108 529,110 526,111 522,113 519,114 516,116 512,118 509,119 506,121 502,123 499,126 496,128 493,130 490,132 487,134 484,136 481,138 478,140 475,143 472,145 469,148 466,150 463,153 461,155 458,158 455,160 453,163 450,166 448,168 446,171 443,174 441,177 439,180 436,183 434,186 432,189 430,192 428,195 426,198 424,201 422,204 421,208 419,211 417,214 416,218 414,221 412,224 410,228 408,231 407,234 406,238 405,241 404,244 403,248 402,251 401,255 400,259 399,262 398,266 397,270 396,274 395,278 394,282 393,285 393,289 393,293 392,296 392,300 392,304 392,308 392,312 392,316 392,320 392,324 392,328 Z"/>
   <path fill="none" stroke="rgb(0,0,255)" id="Drawing_2_0" d="M 336,317 C 336,312 336,307 336,303 336,298 337,293 337,288 338,283 338,278 339,274 340,269 340,264 341,260 342,255 344,250 345,246 346,241 348,237 349,233 350,228 351,223 353,219 354,215 356,211 358,207 360,202 362,198 364,194 366,190 368,186 371,182 373,178 375,173 378,169 380,165 382,162 385,158 388,154 391,151 394,147 396,143 399,140 402,136 405,133 408,129 411,126 414,123 417,119 421,116 424,113 428,110 432,107 435,104 438,100 442,97 445,94 449,92 453,89 456,86 460,84 464,81 468,79 472,76 476,74 480,72 484,69 489,67 493,65 497,62 501,60 505,58 509,57 514,55 518,53 522,51 527,49 531,48 536,46 541,45 545,44 550,43 555,42 559,41 564,39 569,38 574,37 579,37 584,36 588,35 593,35 598,34 602,34 607,33 611,33 617,33 622,33 627,33 632,33 637,33 642,33 647,33 652,33 657,33 662,34 667,35 671,36 676,37 681,37 685,38 690,39 695,40 700,41 705,42 710,44 714,45 719,46 724,48 728,49 733,51 737,52 741,54 746,56 750,58 754,60 758,62 762,64 766,66 771,68 775,71 779,73 783,76 787,78 791,81 795,83 799,86 802,88 806,91 810,94 813,97 817,100 820,103 823,106 827,109 831,112 834,115 838,118 841,121 844,124 847,128 850,131 853,135 856,138 858,142 861,145 864,149 867,153 870,157 872,161 875,164 877,168 879,172 882,176 884,180 886,184 889,189 891,193 893,197 895,201 897,205 899,209 901,213 903,218 904,222 906,226 907,231 908,235 910,240 911,245 912,249 913,254 914,259 915,263 916,267 917,272 918,277 918,282 919,287 919,291 920,296 920,301 920,306 920,311 920,316 920,321 920,326 920,331 920,335 919,340 919,345 918,349 918,354 917,359 916,363 915,368 914,373 913,377 912,382 911,387 910,391 909,395 908,400 906,404 905,409 903,414 901,418 899,422 897,427 895,431 894,435 892,440 890,444 887,448 885,452 883,456 880,460 878,464 876,467 873,471 871,475 868,478 865,482 862,486 859,489 857,493 854,497 851,500 848,504 844,508 841,511 838,514 834,517 831,520 828,523 824,527 821,530 818,533 814,536 810,538 806,541 802,544 799,546 795,549 791,552 788,554 784,557 780,560 776,562 772,564 767,566 763,568 759,570 754,573 750,574 746,576 742,578 738,580 733,582 728,584 724,585 720,586 715,588 711,589 706,590 701,591 697,592 692,593 687,594 683,595 678,596 673,596 668,597 663,598 658,598 653,599 648,600 643,600 638,600 633,600 628,600 623,600 618,600 613,600 609,600 604,599 600,598 595,598 590,597 585,596 580,596 575,596 570,595 565,594 560,593 556,591 551,590 547,589 543,588 538,586 533,585 529,584 524,582 520,580 516,579 511,577 506,575 502,573 498,571 494,569 490,567 486,564 482,562 478,560 474,557 470,555 466,553 462,550 458,547 454,545 450,542 446,539 443,537 439,534 435,531 432,528 428,524 425,521 422,518 418,515 415,512 412,509 409,505 406,502 404,499 400,495 397,491 394,488 391,484 388,480 386,477 383,473 381,469 379,465 376,461 374,457 372,453 369,449 367,445 365,441 363,436 361,432 359,428 357,424 355,420 354,416 352,411 350,406 349,402 348,397 346,393 345,389 344,384 342,379 341,375 340,370 340,365 339,361 338,356 338,351 337,347 337,342 336,337 336,332 336,327 336,322 336,317 Z"/>
   <path fill="none" stroke="rgb(0,0,255)" id="Drawing_2_1" d="M 392,328 C 392,331 392,335 393,339 393,343 393,347 394,351 394,354 395,358 396,362 397,365 398,369 399,373 400,376 401,380 402,384 403,387 404,390 405,394 406,397 408,401 410,405 411,408 413,411 415,415 416,418 418,421 420,425 422,428 424,431 426,434 428,437 430,440 432,443 434,446 436,449 438,453 440,455 442,458 445,461 447,463 450,466 453,469 455,471 457,474 460,477 463,479 466,482 469,485 471,487 474,489 477,492 480,494 483,496 486,499 489,501 492,503 495,506 498,508 501,510 505,512 508,513 511,515 515,517 518,518 521,520 525,522 528,523 532,525 536,527 539,528 542,529 546,531 549,532 553,533 557,534 561,535 565,536 569,538 572,538 576,539 580,540 583,540 587,541 591,542 595,542 599,543 603,544 607,544 611,544 615,544 619,544 623,544 627,544 631,544 635,544 639,544 643,544 647,544 651,544 655,543 659,542 663,542 667,541 671,540 675,540 679,539 683,538 686,538 690,536 694,535 697,534 701,533 705,532 708,531 712,529 716,528 719,527 723,525 727,523 730,522 734,520 737,518 740,517 744,515 747,513 750,512 754,510 757,508 760,506 763,504 766,502 769,500 772,497 775,495 778,493 781,490 784,487 786,485 789,482 792,480 795,478 798,475 800,472 802,470 805,467 808,464 810,462 813,459 815,456 817,453 819,450 821,447 823,444 826,441 828,438 830,435 832,432 834,429 835,426 837,422 839,419 841,416 843,412 844,408 845,405 847,401 849,398 850,395 852,391 853,387 854,384 855,380 856,377 856,374 858,370 859,366 860,363 860,359 861,355 861,352 862,348 862,344 863,341 863,337 864,333 864,329 864,325 864,321 864,317 864,313 864,309 864,306 864,302 863,298 863,294 862,290 862,286 861,283 861,279 860,275 860,272 859,268 858,264 857,261 856,257 855,253 854,250 853,246 852,243 850,240 849,236 848,232 846,229 845,225 843,222 841,219 840,215 838,212 836,209 834,205 832,202 830,199 828,196 826,193 824,190 822,187 820,185 818,182 816,179 814,175 811,172 809,169 806,167 803,164 801,161 799,159 796,156 793,154 790,151 787,149 785,146 782,144 779,141 776,139 773,136 770,134 767,132 764,130 760,128 757,126 754,124 751,122 748,120 745,119 741,117 738,115 735,114 731,112 728,110 725,109 721,107 718,105 714,104 710,102 707,101 703,100 699,99 696,98 692,97 688,96 684,95 680,94 676,93 672,92 668,92 664,91 661,91 657,90 653,90 649,90 645,89 640,89 636,89 632,88 628,88 624,88 620,89 616,89 612,89 608,90 604,90 601,90 597,91 593,91 589,92 585,92 581,93 577,94 573,95 570,96 566,97 562,98 559,99 555,100 551,101 548,102 544,104 540,105 537,107 533,108 529,110 526,111 522,113 519,114 516,116 512,118 509,119 506,121 502,123 499,126 496,128 493,130 490,132 487,134 484,136 481,138 478,140 475,143 472,145 469,148 466,150 463,153 461,155 458,158 455,160 453,163 450,166 448,168 446,171 443,174 441,177 439,180 436,183 434,186 432,189 430,192 428,195 426,198 424,201 422,204 421,208 419,211 417,214 416,218 414,221 412,224 410,228 408,231 407,234 406,238 405,241 404,244 403,248 402,251 401,255 400,259 399,262 398,266 397,270 396,274 395,278 394,282 393,285 393,289 393,293 392,296 392,300 392,304 392,308 392,312 392,316 392,320 392,324 392,328 Z"/>
   </g>
   <g>
   <path fill="rgb(0,0,255)" stroke="none" d="M 435,389 C 435,342 435,296 435,249 449,249 463,249 477,249 485,281 494,313 502,345 511,313 519,281 527,249 541,249 556,249 570,249 570,296 570,342 570,389 561,389 552,389 543,389 543,352 543,316 543,279 534,316 525,352 516,389 507,389 498,389 489,389 479,352 470,316 461,279 461,316 461,352 461,389 L 435,389 Z"/>
    <rect fill="none" stroke="none" x="434" y="249" width="137" height="141"/>
   </g>
   <g>
   <path fill="rgb(0,0,255)" stroke="none" d="M 601,389 C 601,342 601,296 601,249 636,249 670,249 705,249 705,257 705,265 705,273 680,273 654,273 629,273 629,283 629,294 629,304 653,304 676,304 699,304 699,312 699,320 699,327 676,327 653,327 629,327 629,340 629,353 629,365 655,365 681,365 707,365 707,373 707,381 707,389 L 601,389 Z"/>
    <rect fill="none" stroke="none" x="601" y="249" width="108" height="141"/>
   </g>
   <g>
   <path fill="rgb(0,0,255)" stroke="none" d="M 722,389 C 722,381 722,372 722,364 747,333 771,303 795,273 774,273 752,273 730,273 730,265 730,257 730,249 764,249 798,249 833,249 833,257 833,264 833,271 807,303 782,334 756,365 783,365 809,365 835,365 835,373 835,381 835,389 L 722,389 Z"/>
    <rect fill="none" stroke="none" x="722" y="249" width="115" height="141"/>
   </g>
   <g>
   <path fill="rgb(0,0,255)" stroke="none" d="M 281,884 C 348,952 415,1019 482,1087 468,1100 455,1114 442,1127 375,1059 308,992 241,924 254,911 268,898 281,884 Z"/>
   <path fill="none" stroke="rgb(0,0,255)" id="Drawing_6_0" d="M 281,884 C 348,952 415,1019 482,1087 468,1100 455,1114 442,1127 375,1059 308,992 241,924 254,911 268,898 281,884 Z"/>
   </g>
   <g>
   <path fill="rgb(0,0,255)" stroke="none" d="M 482,925 C 415,993 348,1060 281,1128 268,1115 254,1101 241,1088 308,1020 375,953 442,885 455,899 468,912 482,925 Z"/>
   <path fill="none" stroke="rgb(0,0,255)" id="Drawing_7_0" d="M 482,925 C 415,993 348,1060 281,1128 268,1115 254,1101 241,1088 308,1020 375,953 442,885 455,899 468,912 482,925 Z"/>
   </g>
  </g>
 </g>
</svg>