<?xml version="1.0" encoding="UTF-8"?>

<svg version="1.2" width="150px" height="150px" viewBox="0 0 1160 1160" xmlns="http://www.w3.org/2000/svg" xmlns:xlink="http://www.w3.org/1999/xlink">
 <g visibility="visible" id="MasterSlide_1_Standard">
  <g id="Drawing_1">
  <path fill="rgb(255,0,0)" stroke="none" d="M 142,35 L 148,1076 37,1077 32,36 142,35 Z"/>
  <path stroke-width="1" fill="none" stroke="rgb(255,0,0)" d="M 142,35 L 148,1076 37,1077 32,36 142,35 Z"/>
  <path fill="rgb(255,0,0)" stroke="none" d="M 1088,31 L 1093,1072 984,1073 978,32 1088,31 Z"/>
  <path stroke-width="1" fill="none" stroke="rgb(255,0,0)" d="M 1088,31 L 1093,1072 984,1073 978,32 1088,31 Z"/>
  <path fill="rgb(255,0,0)" stroke="none" d="M 1078,1075 L 39,1081 38,970 1078,965 1078,1075 Z"/>
  <path stroke-width="1" fill="none" stroke="rgb(255,0,0)" d="M 1078,1075 L 39,1081 38,970 1078,965 1078,1075 Z"/>
  </g>
 </g>
</svg>