<?xml version="1.0" encoding="UTF-8"?>

<svg version="1.2" width="150px" height="150px" viewBox="0 0 1160 1160" xmlns="http://www.w3.org/2000/svg" xmlns:xlink="http://www.w3.org/1999/xlink">
 <g visibility="visible" id="MasterSlide_1_Standard">
  <g id="Drawing_1">
  <path fill="rgb(0,0,255)" stroke="rgb(0,0,255)" d="M 303,861 L 303,847 303,833 306,819 308,806 311,793 314,779 319,767 324,755 329,742 335,731 341,720 348,709 356,698 364,688 372,677 382,668 391,659 400,650 410,642 421,634 432,628 444,621 455,615 468,609 479,604 492,600 505,597 518,593 532,591 545,589 559,588 573,587 586,588 601,589 614,591 628,593 640,596 653,600 666,604 678,608 690,614 702,620 714,627 725,634 735,641 746,649 755,658 765,667 773,676 782,686 790,696 798,707 805,718 811,730 817,741 823,753 828,766 832,779 836,791 839,805 842,818 843,832 844,845 844,859 844,873 843,887 842,901 839,914 837,928 832,940 828,953 824,966 818,977 812,989 805,1001 799,1012 791,1023 783,1033 775,1043 766,1052 757,1062 746,1070 736,1078 725,1086 714,1093 703,1100 692,1105 680,1110 667,1116 655,1120 642,1124 629,1126 616,1129 602,1131 588,1132 575,1132 560,1132 547,1132 533,1130 520,1127 506,1124 494,1121 481,1116 468,1111 457,1106 445,1100 434,1094 423,1087 412,1079 402,1071 392,1062 383,1053 373,1044 365,1034 357,1024 349,1013 342,1003 335,991 329,979 324,967 319,955 315,942 311,929 308,916 306,902 304,889 303,875 303,861 Z M 368,870 L 369,880 371,891 372,901 375,911 377,921 381,930 384,939 388,949 393,958 398,966 403,975 409,982 415,991 421,998 428,1005 435,1012 442,1019 450,1025 458,1030 467,1035 475,1041 484,1046 493,1050 502,1053 511,1057 522,1059 532,1062 542,1063 552,1065 562,1066 573,1066 583,1066 594,1065 604,1064 614,1062 624,1060 634,1057 644,1054 653,1051 662,1046 671,1041 679,1036 687,1031 696,1025 703,1019 711,1013 718,1006 725,999 731,992 737,984 743,976 749,967 754,959 758,950 762,941 766,932 769,922 772,912 774,902 776,892 778,882 778,871 778,861 778,850 778,840 777,829 774,819 773,810 770,800 767,790 763,780 759,772 754,763 750,754 744,746 739,737 732,730 726,722 719,715 712,708 704,702 697,695 689,689 681,684 672,679 663,675 654,671 645,667 635,664 626,661 616,658 606,656 596,656 585,654 575,654 564,654 554,655 543,656 533,658 523,661 513,663 504,667 495,670 485,674 476,678 468,683 459,688 452,694 444,700 436,707 429,714 422,721 415,729 410,736 404,744 399,752 394,761 388,770 385,779 381,789 377,798 375,808 372,817 371,828 369,838 368,848 368,859 368,870 Z"/>
  <path fill="rgb(0,0,255)" stroke="rgb(0,0,255)" d="M 531,613 L 532,32 597,32 597,613 Z"/>
  <path fill="rgb(0,0,255)" stroke="rgb(0,0,255)" d="M 537,30 L 741,30 741,97 537,97 Z"/>
  <path fill="rgb(0,0,255)" stroke="rgb(0,0,255)" d="M 537,166 L 741,166 741,233 537,233 Z"/>
  </g>
 </g>
</svg>