<?xml version="1.0" encoding="UTF-8"?>

<svg version="1.2" width="150px" height="150px" viewBox="0 0 1160 1160" xmlns="http://www.w3.org/2000/svg" xmlns:xlink="http://www.w3.org/1999/xlink">
 <g visibility="visible" id="MasterSlide_1_Standard">
  <g id="Drawing_1">
  <path fill="rgb(255,148,21)" stroke="none" d="M 1140,1066 L 28,1066 585,100 1140,1066 Z M 1002,986 L 585,262 168,986 1002,986 Z M 484,922 L 478,917 473,914 467,911 461,906 456,902 450,897 446,893 441,888 436,885 431,880 428,875 424,870 419,865 416,860 413,855 409,849 407,844 403,838 401,832 399,827 397,821 395,815 392,808 391,802 390,796 388,789 387,782 386,776 385,769 385,762 385,755 385,747 385,744 385,740 385,738 385,734 385,731 385,728 386,725 386,722 387,718 387,715 388,712 388,708 388,706 390,703 391,699 391,697 392,693 393,691 394,687 395,685 397,681 397,678 398,675 400,672 401,669 402,666 404,663 405,661 407,657 408,655 410,652 412,649 415,643 419,636 423,630 428,625 431,620 436,615 440,610 444,604 450,601 453,596 459,592 463,588 468,584 473,580 478,576 484,573 489,571 495,568 501,565 506,562 512,560 518,559 525,557 532,555 537,554 544,551 550,551 557,550 564,549 571,549 577,548 585,548 588,548 591,548 594,549 598,549 602,549 604,549 608,550 611,550 614,551 617,551 620,551 624,552 626,552 630,554 632,554 636,555 639,556 642,557 645,557 647,559 651,560 653,561 657,562 659,563 663,565 665,566 669,568 672,570 674,571 678,572 680,573 684,576 689,579 695,583 701,587 706,591 712,596 717,599 722,604 727,608 732,613 735,618 740,623 744,627 749,633 751,638 755,643 759,649 761,654 764,660 767,665 768,671 771,677 773,683 776,689 777,695 778,702 780,708 781,714 782,722 782,728 782,735 783,742 783,750 783,752 783,756 783,759 782,762 782,765 782,769 782,772 782,776 781,778 781,782 780,785 779,787 779,791 778,794 777,797 777,801 776,803 775,807 774,809 773,812 771,815 771,818 768,821 768,824 767,827 765,830 764,833 763,837 761,839 760,842 757,845 756,848 752,854 749,860 745,866 742,872 737,877 733,882 729,887 724,891 720,897 715,901 711,905 706,909 701,913 695,917 690,919 685,923 680,927 674,929 669,932 663,934 657,937 651,939 645,940 639,942 632,944 626,945 619,946 613,946 605,947 599,948 592,948 585,948 582,948 578,948 575,948 571,948 568,948 565,947 561,947 559,946 555,946 552,945 549,945 545,945 543,944 539,943 536,942 533,941 529,940 526,939 523,939 520,938 517,937 515,935 511,934 509,933 505,932 502,930 499,929 496,928 494,925 490,924 488,923 484,922 Z M 426,750 L 743,750 743,744 743,738 743,733 743,727 742,722 740,717 740,711 739,706 737,702 737,697 734,692 733,687 730,682 729,678 726,673 724,669 722,665 718,661 716,656 713,653 710,649 706,645 703,641 700,638 695,634 692,630 688,627 684,624 679,620 675,618 670,614 664,612 506,888 507,888 510,891 512,891 515,892 517,894 520,895 521,896 523,897 526,897 529,898 531,900 533,900 536,901 538,902 540,902 543,903 545,904 548,904 550,905 553,906 555,906 558,907 560,907 563,907 566,908 568,908 571,908 573,908 576,908 578,908 581,908 583,908 586,908 588,908 592,908 594,908 597,908 599,908 602,908 605,907 608,907 611,906 613,906 616,905 619,904 621,904 624,903 626,902 629,902 631,901 634,900 636,899 639,898 642,897 643,897 646,895 648,894 651,893 653,891 656,891 658,888 661,888 663,886 665,885 506,611 501,614 495,617 491,620 486,624 482,627 478,630 474,634 470,638 467,641 463,644 460,649 456,652 453,656 450,661 447,665 445,668 442,673 440,678 439,682 436,687 435,692 433,697 431,701 430,706 430,711 428,717 428,722 428,727 426,733 426,738 426,744 426,750 Z"/>
  </g>
 </g>
</svg>