<?xml version="1.0" encoding="UTF-8"?>

<svg version="1.2" width="150px" height="150px" viewBox="0 0 1160 1160" xmlns="http://www.w3.org/2000/svg" xmlns:xlink="http://www.w3.org/1999/xlink">
 <g visibility="visible" id="MasterSlide_1_Standard">
  <g id="DrawingGroup_1">
   <g>
   <path fill="rgb(0,0,255)" stroke="none" d="M 377,319 C 377,542 377,765 377,988 358,988 339,988 320,988 320,765 320,542 320,319 339,319 358,319 377,319 Z"/>
   <path fill="none" stroke="rgb(0,0,255)" id="Drawing_1_0" d="M 377,319 C 377,542 377,765 377,988 358,988 339,988 320,988 320,765 320,542 320,319 339,319 358,319 377,319 Z"/>
   </g>
   <g>
   <path fill="rgb(0,0,255)" stroke="none" d="M 241,1026 L 241,1026 C 241,968 290,921 351,921 L 351,921 351,921 351,921 C 411,921 459,968 459,1026 L 459,1026 459,1026 459,1026 C 459,1084 411,1132 351,1132 L 351,1132 351,1132 351,1132 C 290,1132 241,1084 241,1026 Z"/>
    <rect fill="none" stroke="none" x="240" y="921" width="220" height="213"/>
   </g>
   <g>
   <path fill="rgb(0,0,255)" stroke="none" d="M 238,1026 C 238,1022 239,1019 239,1015 240,1011 240,1008 241,1004 242,1001 242,997 243,994 244,991 246,987 247,984 249,981 250,978 252,975 254,972 256,969 258,965 260,963 262,960 264,957 266,955 269,952 271,949 274,947 276,945 279,942 282,940 285,938 288,936 291,934 294,932 297,930 300,929 303,928 306,926 310,925 314,924 318,922 321,922 325,921 328,920 332,920 335,919 339,918 343,918 347,918 351,917 354,918 358,918 362,918 365,919 369,919 373,919 376,920 380,921 384,922 387,924 390,925 394,926 397,928 400,929 404,930 407,932 410,934 413,936 416,938 419,940 422,942 424,945 427,947 430,949 432,952 434,955 437,957 439,960 441,963 444,965 445,968 447,971 449,974 450,977 452,980 454,983 455,986 456,990 458,993 459,997 460,1000 461,1004 461,1008 462,1011 463,1015 463,1019 463,1022 463,1026 463,1030 463,1033 463,1037 462,1041 461,1044 461,1048 460,1051 459,1055 458,1058 456,1062 455,1065 454,1069 452,1072 450,1075 449,1078 447,1081 445,1084 444,1087 441,1090 439,1092 437,1095 434,1098 432,1100 430,1103 427,1105 425,1108 423,1110 419,1112 416,1114 413,1116 410,1118 407,1120 405,1122 401,1124 397,1125 394,1127 390,1128 387,1129 384,1130 380,1131 376,1132 373,1133 369,1133 365,1134 362,1134 358,1134 354,1135 351,1135 347,1135 343,1134 339,1134 335,1134 332,1133 328,1133 325,1132 321,1131 318,1130 314,1129 311,1128 307,1127 304,1125 300,1124 297,1122 294,1120 291,1118 288,1116 285,1114 282,1112 279,1110 276,1108 274,1106 271,1104 269,1101 266,1099 264,1096 262,1093 260,1090 258,1087 256,1084 254,1081 252,1078 250,1075 249,1072 247,1069 246,1065 244,1062 243,1058 242,1055 242,1051 241,1048 240,1045 240,1041 239,1038 239,1034 238,1030 238,1026 Z M 246,1036 C 246,1039 247,1043 247,1046 248,1049 249,1053 250,1056 251,1059 252,1062 253,1065 255,1068 256,1072 258,1075 260,1078 261,1080 263,1083 265,1086 267,1088 269,1091 271,1093 274,1096 276,1098 278,1100 281,1102 283,1104 286,1106 289,1108 292,1110 295,1112 297,1114 300,1116 303,1117 306,1119 309,1120 312,1121 316,1122 319,1123 323,1124 326,1125 330,1126 333,1127 337,1127 340,1128 343,1128 347,1128 351,1128 354,1128 357,1128 361,1128 364,1127 368,1127 372,1126 375,1125 378,1124 382,1123 385,1122 388,1121 392,1120 395,1119 398,1117 401,1116 404,1114 407,1112 410,1110 412,1108 415,1106 418,1104 420,1102 422,1100 425,1098 427,1096 429,1093 432,1091 434,1088 436,1086 438,1083 439,1080 441,1078 443,1075 444,1072 445,1069 447,1066 448,1063 450,1060 452,1057 452,1054 453,1050 454,1047 454,1044 455,1040 456,1037 456,1033 456,1030 456,1026 456,1023 456,1019 456,1016 455,1013 454,1009 454,1006 453,1003 452,999 452,996 450,993 449,989 448,986 446,983 444,981 443,978 441,975 439,972 438,969 436,967 434,965 432,962 429,960 427,957 425,954 422,952 420,950 418,947 415,946 412,944 410,942 407,941 404,939 401,937 398,936 395,934 392,932 389,931 386,930 383,928 379,928 375,928 372,927 368,927 365,926 362,925 358,925 354,925 351,924 347,925 343,925 340,925 337,926 333,926 330,926 326,927 323,928 319,928 316,930 313,931 310,932 307,934 303,935 300,936 297,938 295,940 292,941 289,943 286,945 283,947 281,950 279,952 277,954 275,957 272,959 270,961 268,964 265,967 263,969 261,972 260,974 258,977 256,980 255,983 253,986 252,989 251,993 250,996 249,999 248,1002 247,1005 247,1009 246,1012 246,1016 246,1019 245,1023 245,1026 245,1029 246,1033 246,1036 Z"/>
   <path fill="none" stroke="rgb(0,0,255)" id="Drawing_3_0" d="M 238,1026 C 238,1022 239,1019 239,1015 240,1011 240,1008 241,1004 242,1001 242,997 243,994 244,991 246,987 247,984 249,981 250,978 252,975 254,972 256,969 258,965 260,963 262,960 264,957 266,955 269,952 271,949 274,947 276,945 279,942 282,940 285,938 288,936 291,934 294,932 297,930 300,929 303,928 306,926 310,925 314,924 318,922 321,922 325,921 328,920 332,920 335,919 339,918 343,918 347,918 351,917 354,918 358,918 362,918 365,919 369,919 373,919 376,920 380,921 384,922 387,924 390,925 394,926 397,928 400,929 404,930 407,932 410,934 413,936 416,938 419,940 422,942 424,945 427,947 430,949 432,952 434,955 437,957 439,960 441,963 444,965 445,968 447,971 449,974 450,977 452,980 454,983 455,986 456,990 458,993 459,997 460,1000 461,1004 461,1008 462,1011 463,1015 463,1019 463,1022 463,1026 463,1030 463,1033 463,1037 462,1041 461,1044 461,1048 460,1051 459,1055 458,1058 456,1062 455,1065 454,1069 452,1072 450,1075 449,1078 447,1081 445,1084 444,1087 441,1090 439,1092 437,1095 434,1098 432,1100 430,1103 427,1105 425,1108 423,1110 419,1112 416,1114 413,1116 410,1118 407,1120 405,1122 401,1124 397,1125 394,1127 390,1128 387,1129 384,1130 380,1131 376,1132 373,1133 369,1133 365,1134 362,1134 358,1134 354,1135 351,1135 347,1135 343,1134 339,1134 335,1134 332,1133 328,1133 325,1132 321,1131 318,1130 314,1129 311,1128 307,1127 304,1125 300,1124 297,1122 294,1120 291,1118 288,1116 285,1114 282,1112 279,1110 276,1108 274,1106 271,1104 269,1101 266,1099 264,1096 262,1093 260,1090 258,1087 256,1084 254,1081 252,1078 250,1075 249,1072 247,1069 246,1065 244,1062 243,1058 242,1055 242,1051 241,1048 240,1045 240,1041 239,1038 239,1034 238,1030 238,1026 Z"/>
   <path fill="none" stroke="rgb(0,0,255)" id="Drawing_3_1" d="M 246,1036 C 246,1039 247,1043 247,1046 248,1049 249,1053 250,1056 251,1059 252,1062 253,1065 255,1068 256,1072 258,1075 260,1078 261,1080 263,1083 265,1086 267,1088 269,1091 271,1093 274,1096 276,1098 278,1100 281,1102 283,1104 286,1106 289,1108 292,1110 295,1112 297,1114 300,1116 303,1117 306,1119 309,1120 312,1121 316,1122 319,1123 323,1124 326,1125 330,1126 333,1127 337,1127 340,1128 343,1128 347,1128 351,1128 354,1128 357,1128 361,1128 364,1127 368,1127 372,1126 375,1125 378,1124 382,1123 385,1122 388,1121 392,1120 395,1119 398,1117 401,1116 404,1114 407,1112 410,1110 412,1108 415,1106 418,1104 420,1102 422,1100 425,1098 427,1096 429,1093 432,1091 434,1088 436,1086 438,1083 439,1080 441,1078 443,1075 444,1072 445,1069 447,1066 448,1063 450,1060 452,1057 452,1054 453,1050 454,1047 454,1044 455,1040 456,1037 456,1033 456,1030 456,1026 456,1023 456,1019 456,1016 455,1013 454,1009 454,1006 453,1003 452,999 452,996 450,993 449,989 448,986 446,983 444,981 443,978 441,975 439,972 438,969 436,967 434,965 432,962 429,960 427,957 425,954 422,952 420,950 418,947 415,946 412,944 410,942 407,941 404,939 401,937 398,936 395,934 392,932 389,931 386,930 383,928 379,928 375,928 372,927 368,927 365,926 362,925 358,925 354,925 351,924 347,925 343,925 340,925 337,926 333,926 330,926 326,927 323,928 319,928 316,930 313,931 310,932 307,934 303,935 300,936 297,938 295,940 292,941 289,943 286,945 283,947 281,950 279,952 277,954 275,957 272,959 270,961 268,964 265,967 263,969 261,972 260,974 258,977 256,980 255,983 253,986 252,989 251,993 250,996 249,999 248,1002 247,1005 247,1009 246,1012 246,1016 246,1019 245,1023 245,1026 245,1029 246,1033 246,1036 Z"/>
   </g>
   <g>
   <path fill="rgb(0,0,255)" stroke="none" d="M 321,319 C 321,314 322,309 322,304 322,299 323,294 323,289 323,284 324,279 324,275 325,270 326,265 327,260 328,255 329,250 330,246 332,241 333,236 335,232 337,227 338,222 340,218 342,213 343,209 345,205 347,200 349,196 351,192 353,188 355,184 358,180 360,176 362,171 365,167 367,163 369,159 372,155 375,151 378,148 381,144 384,140 387,137 390,133 393,129 396,126 400,122 403,119 406,115 409,112 412,109 416,105 420,102 423,99 426,96 430,93 434,90 438,87 442,84 445,81 449,79 453,76 457,74 461,71 466,69 470,67 474,64 478,62 482,60 487,57 492,55 496,53 500,51 505,49 509,47 513,46 518,44 522,42 527,41 532,39 537,38 542,36 547,35 551,34 556,33 561,32 566,31 571,30 576,29 581,29 586,28 591,28 596,28 600,27 605,27 611,27 616,26 621,26 626,26 631,27 636,27 641,27 646,28 651,28 656,28 661,29 666,29 671,30 676,31 681,32 686,33 691,34 695,35 700,36 705,38 710,39 715,41 719,42 723,44 728,46 733,47 737,49 742,51 747,53 751,55 756,57 760,59 764,61 768,63 772,66 776,68 780,70 784,73 788,75 792,78 796,80 800,83 804,86 808,89 811,92 815,95 819,98 823,101 827,104 830,107 833,110 837,114 840,117 843,121 846,125 849,128 852,132 855,136 859,139 862,143 865,147 867,150 870,154 873,158 875,162 878,166 880,170 883,174 885,178 887,182 890,187 892,191 894,195 896,200 898,204 900,208 902,212 904,217 905,221 907,226 908,231 909,235 911,240 912,245 913,249 915,254 916,259 917,263 917,268 918,273 919,278 920,283 921,288 921,293 922,298 922,303 922,308 922,313 922,318 922,323 922,328 922,333 922,338 921,343 921,348 920,353 920,358 919,363 918,367 917,372 916,377 915,381 914,386 913,391 912,395 910,400 909,405 907,409 906,414 904,419 902,423 901,427 899,432 897,436 895,440 893,445 891,449 888,453 886,457 884,461 881,465 879,470 876,474 873,478 870,482 868,485 865,489 863,493 860,497 856,501 853,505 850,508 847,512 844,516 841,519 838,522 834,525 831,528 827,531 823,535 820,538 816,541 812,544 809,547 805,550 801,553 797,555 793,558 789,561 785,563 781,566 777,569 773,571 769,573 765,575 761,577 757,579 752,582 748,584 744,586 739,587 735,589 730,591 725,592 721,594 716,596 711,597 707,599 702,600 697,601 692,602 687,603 682,604 678,605 673,606 668,607 663,608 658,609 652,609 647,610 642,610 637,610 632,610 627,610 622,610 617,610 612,610 606,610 601,610 597,610 592,609 587,609 582,608 577,607 572,606 567,605 563,604 557,603 552,602 547,601 542,600 538,599 534,598 529,596 524,594 520,592 515,591 510,589 506,587 501,586 497,584 493,582 488,580 484,578 480,576 475,573 471,571 467,569 463,566 459,564 455,562 451,559 447,556 443,553 439,550 435,547 432,545 428,542 424,539 421,536 417,532 413,529 410,526 406,522 403,519 400,516 397,512 394,508 391,505 388,501 385,497 382,494 379,490 376,486 373,483 370,479 367,475 365,471 363,467 361,463 359,459 356,454 354,450 352,446 350,442 348,438 346,434 344,429 342,424 340,420 339,415 337,410 336,406 334,401 333,397 331,393 330,388 329,383 328,379 327,374 326,369 325,364 324,359 324,354 323,349 323,344 322,339 322,334 322,329 321,324 321,319 Z M 379,330 C 379,334 379,338 380,342 380,345 381,349 382,353 382,357 382,361 383,365 384,368 385,372 386,376 387,379 388,383 389,387 390,391 392,395 394,399 395,402 396,405 398,409 399,412 400,415 402,419 403,422 405,425 407,429 409,432 411,436 413,440 415,443 417,446 420,449 422,452 424,455 426,458 428,461 431,464 434,467 436,469 439,472 442,475 444,478 446,481 449,484 452,486 455,489 458,492 460,494 463,496 466,499 469,501 472,503 476,506 479,508 482,510 485,512 488,514 491,516 495,519 498,520 502,522 506,524 509,525 512,527 516,529 519,530 522,532 526,534 529,535 533,537 537,539 541,540 545,541 549,542 552,543 556,544 560,546 564,546 568,547 572,548 576,549 580,550 584,551 588,551 592,551 596,552 600,552 604,552 608,553 613,553 617,553 621,553 625,553 629,553 633,553 638,552 642,552 646,552 650,551 654,551 658,551 662,550 666,549 670,548 674,547 678,546 682,546 686,545 690,544 694,543 698,541 702,540 705,539 709,537 713,536 716,535 720,533 724,531 727,530 731,528 734,526 737,525 741,523 744,521 747,519 751,517 754,515 757,513 761,511 764,509 767,507 770,504 773,501 776,499 779,497 782,495 785,493 788,490 791,487 794,485 797,482 799,479 801,476 804,473 807,470 809,468 812,465 814,462 816,459 819,456 821,453 823,450 825,446 827,443 829,440 831,436 833,433 835,430 837,427 839,424 841,421 843,417 845,413 846,410 848,406 849,402 850,399 851,395 852,392 853,389 854,385 856,381 857,378 858,374 858,370 859,366 860,362 861,358 862,355 863,351 863,347 864,343 864,339 864,335 864,331 864,327 864,323 864,319 864,315 864,311 864,307 864,303 864,299 864,295 863,291 863,287 862,284 861,280 860,276 859,272 858,268 858,264 857,261 856,257 855,253 854,250 853,246 852,242 850,239 849,235 848,231 846,228 845,224 843,221 841,218 839,214 837,211 835,208 834,204 832,201 830,198 828,195 826,191 823,188 821,185 819,182 817,179 815,176 813,173 810,170 808,167 805,165 802,162 800,159 797,156 794,153 792,150 789,148 786,145 783,143 780,141 777,139 774,136 771,134 768,131 765,129 762,127 758,125 755,123 752,120 748,118 745,116 742,115 738,113 735,111 732,110 728,108 725,106 721,105 717,103 714,101 710,100 706,98 702,97 698,96 694,95 691,94 687,93 683,92 679,91 675,90 671,89 667,88 663,87 659,86 655,86 651,86 647,86 643,85 639,85 635,84 631,84 627,84 622,84 618,84 614,84 609,84 605,84 601,85 597,85 594,85 590,86 586,86 582,87 578,87 574,88 570,89 566,91 562,92 558,93 554,93 550,94 546,95 542,97 539,98 535,99 531,101 528,102 524,104 520,105 517,107 513,109 509,110 506,112 502,114 499,116 496,118 492,120 489,122 486,124 483,126 480,128 477,130 474,132 471,135 468,137 465,140 462,142 459,145 456,147 453,150 450,152 447,155 444,158 442,161 439,164 437,166 435,169 432,172 430,175 428,178 425,181 423,184 421,187 418,190 416,194 414,197 412,200 410,203 408,206 406,209 404,212 403,216 401,219 399,223 398,227 396,230 395,234 394,238 392,241 391,244 390,248 389,251 388,255 387,259 386,263 385,267 384,271 383,274 382,278 382,282 381,286 380,290 380,294 379,298 379,302 379,306 379,310 379,314 379,318 379,322 379,326 379,330 Z"/>
   <path fill="none" stroke="rgb(0,0,255)" id="Drawing_4_0" d="M 321,319 C 321,314 322,309 322,304 322,299 323,294 323,289 323,284 324,279 324,275 325,270 326,265 327,260 328,255 329,250 330,246 332,241 333,236 335,232 337,227 338,222 340,218 342,213 343,209 345,205 347,200 349,196 351,192 353,188 355,184 358,180 360,176 362,171 365,167 367,163 369,159 372,155 375,151 378,148 381,144 384,140 387,137 390,133 393,129 396,126 400,122 403,119 406,115 409,112 412,109 416,105 420,102 423,99 426,96 430,93 434,90 438,87 442,84 445,81 449,79 453,76 457,74 461,71 466,69 470,67 474,64 478,62 482,60 487,57 492,55 496,53 500,51 505,49 509,47 513,46 518,44 522,42 527,41 532,39 537,38 542,36 547,35 551,34 556,33 561,32 566,31 571,30 576,29 581,29 586,28 591,28 596,28 600,27 605,27 611,27 616,26 621,26 626,26 631,27 636,27 641,27 646,28 651,28 656,28 661,29 666,29 671,30 676,31 681,32 686,33 691,34 695,35 700,36 705,38 710,39 715,41 719,42 723,44 728,46 733,47 737,49 742,51 747,53 751,55 756,57 760,59 764,61 768,63 772,66 776,68 780,70 784,73 788,75 792,78 796,80 800,83 804,86 808,89 811,92 815,95 819,98 823,101 827,104 830,107 833,110 837,114 840,117 843,121 846,125 849,128 852,132 855,136 859,139 862,143 865,147 867,150 870,154 873,158 875,162 878,166 880,170 883,174 885,178 887,182 890,187 892,191 894,195 896,200 898,204 900,208 902,212 904,217 905,221 907,226 908,231 909,235 911,240 912,245 913,249 915,254 916,259 917,263 917,268 918,273 919,278 920,283 921,288 921,293 922,298 922,303 922,308 922,313 922,318 922,323 922,328 922,333 922,338 921,343 921,348 920,353 920,358 919,363 918,367 917,372 916,377 915,381 914,386 913,391 912,395 910,400 909,405 907,409 906,414 904,419 902,423 901,427 899,432 897,436 895,440 893,445 891,449 888,453 886,457 884,461 881,465 879,470 876,474 873,478 870,482 868,485 865,489 863,493 860,497 856,501 853,505 850,508 847,512 844,516 841,519 838,522 834,525 831,528 827,531 823,535 820,538 816,541 812,544 809,547 805,550 801,553 797,555 793,558 789,561 785,563 781,566 777,569 773,571 769,573 765,575 761,577 757,579 752,582 748,584 744,586 739,587 735,589 730,591 725,592 721,594 716,596 711,597 707,599 702,600 697,601 692,602 687,603 682,604 678,605 673,606 668,607 663,608 658,609 652,609 647,610 642,610 637,610 632,610 627,610 622,610 617,610 612,610 606,610 601,610 597,610 592,609 587,609 582,608 577,607 572,606 567,605 563,604 557,603 552,602 547,601 542,600 538,599 534,598 529,596 524,594 520,592 515,591 510,589 506,587 501,586 497,584 493,582 488,580 484,578 480,576 475,573 471,571 467,569 463,566 459,564 455,562 451,559 447,556 443,553 439,550 435,547 432,545 428,542 424,539 421,536 417,532 413,529 410,526 406,522 403,519 400,516 397,512 394,508 391,505 388,501 385,497 382,494 379,490 376,486 373,483 370,479 367,475 365,471 363,467 361,463 359,459 356,454 354,450 352,446 350,442 348,438 346,434 344,429 342,424 340,420 339,415 337,410 336,406 334,401 333,397 331,393 330,388 329,383 328,379 327,374 326,369 325,364 324,359 324,354 323,349 323,344 322,339 322,334 322,329 321,324 321,319 Z"/>
   <path fill="none" stroke="rgb(0,0,255)" id="Drawing_4_1" d="M 379,330 C 379,334 379,338 380,342 380,345 381,349 382,353 382,357 382,361 383,365 384,368 385,372 386,376 387,379 388,383 389,387 390,391 392,395 394,399 395,402 396,405 398,409 399,412 400,415 402,419 403,422 405,425 407,429 409,432 411,436 413,440 415,443 417,446 420,449 422,452 424,455 426,458 428,461 431,464 434,467 436,469 439,472 442,475 444,478 446,481 449,484 452,486 455,489 458,492 460,494 463,496 466,499 469,501 472,503 476,506 479,508 482,510 485,512 488,514 491,516 495,519 498,520 502,522 506,524 509,525 512,527 516,529 519,530 522,532 526,534 529,535 533,537 537,539 541,540 545,541 549,542 552,543 556,544 560,546 564,546 568,547 572,548 576,549 580,550 584,551 588,551 592,551 596,552 600,552 604,552 608,553 613,553 617,553 621,553 625,553 629,553 633,553 638,552 642,552 646,552 650,551 654,551 658,551 662,550 666,549 670,548 674,547 678,546 682,546 686,545 690,544 694,543 698,541 702,540 705,539 709,537 713,536 716,535 720,533 724,531 727,530 731,528 734,526 737,525 741,523 744,521 747,519 751,517 754,515 757,513 761,511 764,509 767,507 770,504 773,501 776,499 779,497 782,495 785,493 788,490 791,487 794,485 797,482 799,479 801,476 804,473 807,470 809,468 812,465 814,462 816,459 819,456 821,453 823,450 825,446 827,443 829,440 831,436 833,433 835,430 837,427 839,424 841,421 843,417 845,413 846,410 848,406 849,402 850,399 851,395 852,392 853,389 854,385 856,381 857,378 858,374 858,370 859,366 860,362 861,358 862,355 863,351 863,347 864,343 864,339 864,335 864,331 864,327 864,323 864,319 864,315 864,311 864,307 864,303 864,299 864,295 863,291 863,287 862,284 861,280 860,276 859,272 858,268 858,264 857,261 856,257 855,253 854,250 853,246 852,242 850,239 849,235 848,231 846,228 845,224 843,221 841,218 839,214 837,211 835,208 834,204 832,201 830,198 828,195 826,191 823,188 821,185 819,182 817,179 815,176 813,173 810,170 808,167 805,165 802,162 800,159 797,156 794,153 792,150 789,148 786,145 783,143 780,141 777,139 774,136 771,134 768,131 765,129 762,127 758,125 755,123 752,120 748,118 745,116 742,115 738,113 735,111 732,110 728,108 725,106 721,105 717,103 714,101 710,100 706,98 702,97 698,96 694,95 691,94 687,93 683,92 679,91 675,90 671,89 667,88 663,87 659,86 655,86 651,86 647,86 643,85 639,85 635,84 631,84 627,84 622,84 618,84 614,84 609,84 605,84 601,85 597,85 594,85 590,86 586,86 582,87 578,87 574,88 570,89 566,91 562,92 558,93 554,93 550,94 546,95 542,97 539,98 535,99 531,101 528,102 524,104 520,105 517,107 513,109 509,110 506,112 502,114 499,116 496,118 492,120 489,122 486,124 483,126 480,128 477,130 474,132 471,135 468,137 465,140 462,142 459,145 456,147 453,150 450,152 447,155 444,158 442,161 439,164 437,166 435,169 432,172 430,175 428,178 425,181 423,184 421,187 418,190 416,194 414,197 412,200 410,203 408,206 406,209 404,212 403,216 401,219 399,223 398,227 396,230 395,234 394,238 392,241 391,244 390,248 389,251 388,255 387,259 386,263 385,267 384,271 383,274 382,278 382,282 381,286 380,290 380,294 379,298 379,302 379,306 379,310 379,314 379,318 379,322 379,326 379,330 Z"/>
   </g>
   <g>
   <path fill="rgb(0,0,255)" stroke="none" d="M 425,392 L 425,247 485,247 C 501,247 512,248 519,251 526,253 531,258 535,265 540,271 542,279 542,287 542,298 539,307 532,314 526,322 517,326 504,328 510,332 515,336 519,340 523,344 529,352 536,364 L 553,392 519,392 498,360 C 490,349 485,342 483,339 480,336 477,334 474,333 471,332 466,331 459,331 L 454,331 454,392 425,392 Z M 454,308 L 475,308 C 489,308 497,308 501,306 504,305 507,303 509,300 511,297 512,294 512,289 512,284 511,280 508,277 506,274 502,273 497,272 495,271 488,271 476,271 L 454,271 454,308 Z"/>
    <rect fill="none" stroke="none" x="424" y="246" width="131" height="147"/>
   </g>
   <g>
   <path fill="rgb(0,0,255)" stroke="none" d="M 567,392 C 567,344 567,295 567,247 599,247 632,247 665,247 665,255 665,263 665,271 642,271 619,271 596,271 596,283 596,294 596,306 615,306 635,306 655,306 655,314 655,322 655,330 635,330 615,330 596,330 596,351 596,371 596,392 L 567,392 Z"/>
    <rect fill="none" stroke="none" x="566" y="246" width="100" height="147"/>
   </g>
   <g>
   <path fill="rgb(0,0,255)" stroke="none" d="M 682,320 C 682,305 684,293 688,283 692,276 696,269 702,263 707,257 713,253 720,250 729,246 739,244 751,244 772,244 789,251 802,264 814,277 821,296 821,320 821,343 814,361 802,375 789,388 772,394 751,394 730,394 713,388 701,375 688,362 682,343 682,320 Z M 712,319 C 712,336 715,348 723,357 730,365 740,369 751,369 763,369 772,365 780,357 787,348 791,336 791,319 791,302 787,290 780,282 773,273 763,269 751,269 739,269 730,273 722,282 715,290 712,303 712,319 Z"/>
    <rect fill="none" stroke="none" x="681" y="244" width="141" height="152"/>
   </g>
  </g>
 </g>
</svg>