<?xml version="1.0" encoding="UTF-8"?>

<svg version="1.2" width="150px" height="150px" viewBox="0 0 1160 1160" xmlns="http://www.w3.org/2000/svg" xmlns:xlink="http://www.w3.org/1999/xlink">
 <g visibility="visible" id="MasterSlide_1_Standard">
  <g id="Drawing_1">
  <path fill="rgb(0,0,255)" stroke="rgb(0,0,255)" d="M 207,38 L 914,38 914,1087 207,1087 207,38 Z M 291,1045 L 249,1004 872,1004 831,1045 831,80 872,122 249,122 291,80 291,1045 Z"/>
  <path fill="rgb(0,0,255)" stroke="rgb(0,0,255)" d="M 378,735 L 736,735 736,960 378,960 378,735 Z M 414,942 L 396,924 718,924 700,942 700,753 718,772 396,772 414,753 414,942 Z"/>
  <path fill="rgb(0,0,255)" stroke="rgb(0,0,255)" d="M 428,741 L 436,719 436,719 C 436,719 437,717 438,716 L 450,697 450,697 C 451,696 452,695 453,694 L 467,678 467,678 C 468,677 469,676 471,675 L 488,662 488,662 C 489,662 490,661 492,661 L 511,652 511,652 C 511,650 514,649 515,649 L 536,645 536,645 C 537,645 539,644 541,644 L 563,642 563,642 C 563,642 565,642 567,642 L 589,646 589,646 C 590,646 591,647 593,647 L 593,647 607,653 624,660 639,670 639,670 C 640,671 641,671 642,672 L 642,672 653,682 664,696 675,711 675,711 C 676,712 676,713 677,714 L 677,714 683,728 687,746 644,759 641,746 635,733 637,735 630,725 622,716 612,705 614,708 604,701 593,695 579,689 582,690 559,688 564,688 542,689 547,688 526,693 530,693 511,702 515,698 498,711 501,709 485,725 488,721 476,741 478,736 471,757 428,741 Z"/>
  <path fill="rgb(0,0,255)" stroke="none" d="M 897,495 L 289,495 289,448 897,448 897,495 Z"/>
  <path stroke-width="1" fill="none" stroke="rgb(0,0,255)" d="M 897,495 L 289,495 289,448 897,448 897,495 Z"/>
  <path fill="rgb(0,0,255)" stroke="none" d="M 887,601 L 278,601 278,553 887,553 887,601 Z"/>
  <path stroke-width="1" fill="none" stroke="rgb(0,0,255)" d="M 887,601 L 278,601 278,553 887,553 887,601 Z"/>
  </g>
 </g>
</svg>