<?xml version="1.0" encoding="UTF-8"?>

<svg version="1.2" width="150px" height="150px" viewBox="0 0 1160 1160" xmlns="http://www.w3.org/2000/svg" xmlns:xlink="http://www.w3.org/1999/xlink">
 <g visibility="visible" id="MasterSlide_1_Standard">
  <g id="Drawing_1">
  <path fill="rgb(255,0,0)" stroke="none" d="M 95,441 L 291,647 270,666 74,460 95,441 Z"/>
  <path fill="none" stroke="rgb(255,0,0)" d="M 95,441 L 291,647 270,666 74,460 95,441 Z"/>
  <path fill="rgb(255,0,0)" stroke="none" d="M 44,489 L 240,696 220,715 24,509 44,489 Z"/>
  <path fill="none" stroke="rgb(255,0,0)" d="M 44,489 L 240,696 220,715 24,509 44,489 Z"/>
  <path fill="rgb(255,0,0)" stroke="none" d="M 295,514 L 90,711 70,691 275,493 295,514 Z"/>
  <path fill="none" stroke="rgb(255,0,0)" d="M 295,514 L 90,711 70,691 275,493 295,514 Z"/>
  <path fill="rgb(255,0,0)" stroke="none" d="M 244,461 L 39,658 19,638 224,441 244,461 Z"/>
  <path fill="none" stroke="rgb(255,0,0)" d="M 244,461 L 39,658 19,638 224,441 244,461 Z"/>
  <path fill="rgb(255,0,0)" stroke="none" d="M 227,564 L 528,649 520,676 219,591 227,564 Z"/>
  <path fill="none" stroke="rgb(255,0,0)" d="M 227,564 L 528,649 520,676 219,591 227,564 Z"/>
  <path fill="rgb(255,0,0)" stroke="none" d="M 503,660 L 641,519 661,539 523,679 503,660 Z"/>
  <path fill="none" stroke="rgb(255,0,0)" d="M 503,660 L 641,519 661,539 523,679 503,660 Z"/>
  <path fill="rgb(255,0,0)" stroke="none" d="M 643,517 L 915,552 911,579 639,545 643,517 Z"/>
  <path fill="none" stroke="rgb(255,0,0)" d="M 643,517 L 915,552 911,579 639,545 643,517 Z"/>
  <path fill="rgb(255,0,0)" stroke="none" d="M 916,433 L 1112,640 1092,659 896,453 916,433 Z"/>
  <path fill="none" stroke="rgb(255,0,0)" d="M 916,433 L 1112,640 1092,659 896,453 916,433 Z"/>
  <path fill="rgb(255,0,0)" stroke="none" d="M 864,484 L 1059,691 1039,710 843,503 864,484 Z"/>
  <path fill="none" stroke="rgb(255,0,0)" d="M 864,484 L 1059,691 1039,710 843,503 864,484 Z"/>
  <path fill="rgb(255,0,0)" stroke="none" d="M 1117,508 L 912,706 892,686 1097,488 1117,508 Z"/>
  <path fill="none" stroke="rgb(255,0,0)" d="M 1117,508 L 912,706 892,686 1097,488 1117,508 Z"/>
  <path fill="rgb(255,0,0)" stroke="none" d="M 1063,455 L 858,653 839,633 1044,435 1063,455 Z"/>
  <path fill="none" stroke="rgb(255,0,0)" d="M 1063,455 L 858,653 839,633 1044,435 1063,455 Z"/>
  </g>
 </g>
</svg>