<?xml version="1.0" encoding="UTF-8"?>

<svg version="1.2" width="150px" height="150px" viewBox="0 0 1160 1160" xmlns="http://www.w3.org/2000/svg" xmlns:xlink="http://www.w3.org/1999/xlink">
 <g visibility="visible" id="MasterSlide_1_Standard">
  <g id="Drawing_1">
  <path fill="rgb(255,0,0)" stroke="none" d="M 135,415 L 316,611 298,627 118,430 135,415 Z"/>
  <path fill="none" stroke="rgb(255,0,0)" d="M 135,415 L 316,611 298,627 118,430 135,415 Z"/>
  <path fill="rgb(255,0,0)" stroke="none" d="M 81,468 L 261,665 244,680 64,484 81,468 Z"/>
  <path fill="none" stroke="rgb(255,0,0)" d="M 81,468 L 261,665 244,680 64,484 81,468 Z"/>
  <path fill="rgb(255,0,0)" stroke="none" d="M 273,491 L 78,673 62,656 257,474 273,491 Z"/>
  <path fill="none" stroke="rgb(255,0,0)" d="M 273,491 L 78,673 62,656 257,474 273,491 Z"/>
  <path fill="rgb(255,0,0)" stroke="none" d="M 224,441 L 28,623 12,606 208,425 224,441 Z"/>
  <path fill="none" stroke="rgb(255,0,0)" d="M 224,441 L 28,623 12,606 208,425 224,441 Z"/>
  <path fill="rgb(255,0,0)" stroke="none" d="M 320,540 L 124,721 108,704 304,523 320,540 Z"/>
  <path fill="none" stroke="rgb(255,0,0)" d="M 320,540 L 124,721 108,704 304,523 320,540 Z"/>
  <path fill="rgb(255,0,0)" stroke="none" d="M 30,518 L 211,715 194,730 13,534 30,518 Z"/>
  <path fill="none" stroke="rgb(255,0,0)" d="M 30,518 L 211,715 194,730 13,534 30,518 Z"/>
  <path fill="rgb(255,0,0)" stroke="none" d="M 320,570 L 320,570 C 321,548 338,530 358,531 379,532 395,551 394,573 394,573 394,573 394,573 L 394,573 394,573 375,572 375,572 375,572 C 376,560 368,549 358,549 348,549 339,559 339,571 339,571 339,571 339,571 L 320,570 Z"/>
  <path fill="rgb(255,0,0)" stroke="rgb(255,0,0)" d="M 320,573 L 320,573 C 320,573 319,573 319,572 318,572 318,571 318,570 L 318,570 318,566 319,561 321,554 321,554 C 321,554 321,553 321,553 L 325,547 325,547 C 325,547 325,546 325,546 L 330,540 330,540 C 330,540 330,540 330,540 L 336,535 336,535 C 336,535 336,535 336,535 L 343,531 343,531 C 343,531 343,531 343,531 L 343,531 346,530 350,529 354,528 358,528 362,528 366,529 370,531 374,532 374,532 C 374,532 374,532 374,532 L 380,536 380,536 C 380,536 381,536 381,536 L 386,542 386,542 C 386,542 386,542 386,542 L 391,548 391,548 C 391,548 391,549 391,549 L 394,556 394,556 C 394,556 394,556 394,556 L 394,556 396,564 396,569 396,573 396,573 C 396,574 396,574 396,575 395,576 394,576 394,576 L 375,575 375,575 C 374,575 373,574 373,572 L 373,572 373,568 373,568 371,564 372,565 370,561 370,561 368,558 369,558 366,555 366,556 363,553 364,554 360,552 361,553 357,552 358,552 354,552 355,552 352,553 352,553 349,555 349,555 346,557 347,557 345,560 345,560 343,564 343,563 342,567 342,567 341,571 341,571 C 341,573 340,574 338,574 L 320,573 Z M 339,568 L 339,568 336,571 337,566 337,566 C 337,566 337,566 337,566 L 338,561 338,561 C 338,561 338,561 338,561 L 340,557 340,557 C 340,557 340,557 340,557 L 342,554 342,554 C 342,554 342,553 343,553 L 345,551 345,551 C 346,551 346,551 346,550 L 349,548 349,548 C 349,548 349,548 350,548 L 353,547 353,547 C 353,547 354,547 354,547 L 358,547 358,547 C 358,547 358,547 358,547 L 362,547 362,547 C 362,547 362,547 363,547 L 366,549 366,549 C 366,549 366,549 367,549 L 370,551 370,551 C 370,551 370,551 370,551 L 373,554 373,554 C 373,554 373,555 373,555 L 375,558 375,558 C 375,558 375,558 375,559 L 377,563 377,563 C 377,563 377,563 377,563 L 378,567 378,567 C 378,567 378,568 378,568 L 378,568 378,572 375,569 394,570 391,573 391,569 391,565 389,558 389,558 386,551 386,551 382,545 382,546 377,540 377,541 371,537 371,537 369,536 365,535 362,534 359,534 355,534 352,534 349,535 345,536 345,536 339,540 340,539 334,544 334,544 330,549 330,549 327,556 327,555 324,563 323,566 323,570 320,568 339,568 Z"/>
  <path fill="rgb(255,0,0)" stroke="none" d="M 449,572 L 449,572 C 448,594 431,612 411,611 391,611 375,592 376,569 376,569 376,569 376,569 L 376,569 376,569 394,570 394,570 394,570 C 394,582 401,593 412,593 422,594 430,584 430,571 430,571 430,571 430,571 L 449,572 Z"/>
  <path fill="rgb(255,0,0)" stroke="rgb(255,0,0)" d="M 449,569 L 449,569 C 449,569 450,569 451,570 451,570 451,571 451,572 L 451,572 451,576 450,580 448,588 448,588 C 448,589 447,589 447,589 L 444,596 444,596 C 444,596 444,596 444,596 L 439,602 439,602 C 439,602 439,602 439,602 L 433,607 433,607 C 433,607 433,608 433,608 L 426,611 426,611 C 426,611 426,611 426,611 L 426,611 423,612 419,614 415,614 411,614 407,614 403,613 400,612 396,610 396,610 C 396,610 396,610 395,610 L 389,606 389,606 C 389,606 389,606 389,606 L 384,601 384,601 C 384,601 384,600 383,600 L 379,594 379,594 C 379,594 379,593 379,593 L 376,586 376,586 C 376,586 376,586 376,586 L 374,578 374,578 C 374,578 374,578 374,578 L 374,578 374,573 374,569 374,569 C 374,568 374,568 374,567 375,566 375,566 376,566 L 394,567 394,567 C 396,567 397,568 397,569 L 397,569 397,574 397,574 398,578 398,578 400,582 399,581 401,585 401,584 404,587 403,587 406,589 406,589 409,590 408,590 412,591 411,591 415,590 414,590 418,589 417,590 420,587 420,588 422,585 422,586 425,582 424,583 426,579 426,579 427,575 427,575 428,571 428,571 C 428,569 429,568 430,568 L 449,569 Z M 430,574 L 430,574 433,571 433,576 433,576 C 433,576 433,576 433,576 L 432,581 432,581 C 432,581 431,581 431,581 L 429,585 429,585 C 429,585 429,585 429,585 L 427,589 427,589 C 427,589 427,589 426,589 L 424,592 424,592 C 424,592 424,592 423,592 L 420,594 420,594 C 420,594 420,594 420,594 L 416,596 416,596 C 416,596 416,596 415,596 L 412,596 412,596 C 412,596 411,596 411,596 L 407,596 407,596 C 407,595 407,595 407,595 L 404,594 404,594 C 403,594 403,594 403,593 L 400,591 400,591 C 400,591 400,591 400,591 L 397,588 397,588 C 397,588 397,588 396,587 L 395,584 395,584 C 394,584 394,584 394,584 L 393,580 393,580 C 393,580 393,579 393,579 L 392,575 392,575 C 392,575 392,575 392,574 L 392,574 392,570 394,572 376,572 379,569 379,573 379,577 379,577 381,585 381,584 384,591 384,591 388,597 388,597 393,602 393,601 399,605 398,605 401,607 404,608 407,608 411,608 414,608 418,608 421,607 424,606 424,606 430,603 429,603 435,598 435,599 439,593 439,593 443,586 442,586 445,579 446,576 446,572 449,574 430,574 Z"/>
  <path fill="rgb(255,0,0)" stroke="none" d="M 558,576 L 558,576 C 557,598 540,616 520,615 500,615 484,595 485,573 485,573 485,573 485,573 L 485,573 485,573 503,573 503,573 503,573 C 502,586 510,597 521,597 531,597 539,587 539,575 539,575 539,575 539,575 L 558,576 Z"/>
  <path fill="rgb(255,0,0)" stroke="rgb(255,0,0)" d="M 558,573 L 558,573 C 559,573 560,573 560,573 561,574 561,575 561,576 L 561,576 560,580 560,584 557,592 557,592 C 557,592 557,593 557,593 L 554,599 554,599 C 554,600 553,600 553,600 L 548,606 548,606 C 548,606 548,606 548,606 L 543,611 543,611 C 542,611 542,611 542,611 L 536,615 536,615 C 535,615 535,615 535,615 L 535,615 532,616 528,618 524,618 520,618 516,618 512,617 508,616 505,614 505,614 C 505,614 504,614 504,614 L 498,610 498,610 C 498,610 498,610 498,610 L 492,604 492,604 C 492,604 492,604 492,604 L 488,598 488,598 C 488,597 488,597 488,597 L 484,590 484,590 C 484,590 484,590 484,590 L 484,590 483,582 482,577 482,573 482,573 C 482,572 482,572 483,571 483,570 484,570 485,570 L 503,571 503,571 C 505,571 506,572 506,573 L 506,573 506,578 506,578 507,582 507,581 508,585 508,585 510,588 510,588 513,591 512,590 515,593 514,593 518,594 517,594 521,594 521,594 524,594 523,594 527,593 526,593 529,591 529,591 532,589 531,589 534,586 534,586 535,582 535,583 536,579 536,579 537,574 537,574 C 537,573 538,572 540,572 L 558,573 Z M 539,577 L 539,577 543,575 542,580 542,580 C 542,580 542,580 542,580 L 540,584 540,584 C 540,585 540,585 540,585 L 539,589 539,589 C 539,589 539,589 538,589 L 536,592 536,592 C 536,593 536,593 535,593 L 533,595 533,595 C 533,596 533,596 532,596 L 529,598 529,598 C 529,598 529,598 529,598 L 525,599 525,599 C 525,599 525,599 524,599 L 521,600 521,600 C 521,600 521,600 520,600 L 517,599 517,599 C 516,599 516,599 516,599 L 513,597 513,597 C 512,597 512,597 512,597 L 509,595 509,595 C 509,595 509,595 508,594 L 506,592 506,592 C 506,591 506,591 506,591 L 503,588 503,588 C 503,588 503,587 503,587 L 502,584 502,584 C 502,583 501,583 501,583 L 500,579 500,579 C 500,579 500,578 500,578 L 500,578 500,574 503,576 484,576 488,573 488,577 488,581 490,588 489,588 493,595 492,594 497,601 496,601 502,606 501,605 507,609 507,609 510,610 513,611 517,612 520,612 523,612 527,612 530,611 533,610 533,610 539,607 539,607 544,602 544,602 549,597 548,597 552,590 552,590 554,583 555,579 555,575 558,578 539,577 Z"/>
  <path fill="rgb(255,0,0)" stroke="none" d="M 431,573 L 431,573 C 432,550 449,532 468,533 488,534 504,553 503,576 503,576 503,576 503,576 L 503,576 503,576 485,575 485,575 485,575 C 485,562 478,551 468,551 458,551 449,561 449,573 449,573 449,573 449,573 L 431,573 Z"/>
  <path fill="rgb(255,0,0)" stroke="rgb(255,0,0)" d="M 431,576 L 431,576 C 430,576 429,575 429,575 428,574 428,573 428,573 L 428,573 429,569 429,564 432,556 432,556 C 432,556 432,556 432,556 L 435,549 435,549 C 435,549 435,548 436,548 L 440,543 440,543 C 440,542 440,542 441,542 L 446,537 446,537 C 446,537 446,537 447,537 L 453,533 453,533 C 453,533 453,533 453,533 L 453,533 457,532 460,531 464,530 468,530 472,530 476,531 480,533 484,534 484,534 C 484,534 484,534 484,534 L 490,538 490,538 C 490,539 490,539 491,539 L 496,544 496,544 C 496,544 496,544 496,544 L 500,551 500,551 C 500,551 500,551 500,551 L 504,558 504,558 C 504,558 504,558 504,559 L 506,566 506,566 C 506,566 506,566 506,567 L 506,567 506,571 506,576 506,576 C 506,576 506,577 505,577 505,578 504,578 503,578 L 485,577 485,577 C 484,577 482,576 482,575 L 482,575 482,570 482,571 481,566 481,567 480,563 480,563 478,560 478,560 476,557 476,557 473,555 474,556 470,554 471,554 467,554 468,554 464,554 465,554 462,555 462,555 459,557 459,557 457,559 457,559 455,562 455,562 453,566 453,565 452,569 452,569 452,574 452,574 C 451,575 450,576 449,576 L 431,576 Z M 449,571 L 449,571 446,573 447,569 447,569 C 447,568 447,568 447,568 L 448,564 448,564 C 448,564 448,564 448,563 L 450,560 450,560 C 450,559 450,559 450,559 L 453,556 453,556 C 453,556 453,555 453,555 L 456,553 456,553 C 456,552 456,552 456,552 L 459,550 459,550 C 459,550 459,550 460,550 L 463,549 463,549 C 463,549 464,548 464,548 L 468,548 468,548 C 468,548 468,548 468,548 L 472,549 472,549 C 472,549 472,549 473,549 L 476,551 476,551 C 476,551 476,551 477,551 L 480,553 480,553 C 480,553 480,553 480,553 L 483,556 483,556 C 483,556 483,557 483,557 L 485,560 485,560 C 485,560 485,561 485,561 L 487,565 487,565 C 487,565 487,565 487,565 L 488,569 488,569 C 488,570 488,570 488,570 L 488,570 488,575 485,572 503,573 500,576 500,572 500,567 500,568 498,560 498,560 495,553 495,554 491,547 492,548 487,543 487,543 481,539 481,539 478,538 475,537 472,536 468,536 465,536 462,536 459,537 455,538 455,538 449,542 450,541 444,546 445,546 440,552 440,551 437,558 437,558 435,565 434,569 434,573 431,570 449,571 Z"/>
  <path fill="rgb(255,0,0)" stroke="none" d="M 539,577 L 539,577 C 540,555 557,537 577,538 597,538 613,557 613,580 613,580 613,580 613,580 L 613,580 613,580 594,579 594,579 594,579 C 595,567 587,556 577,556 567,556 558,565 558,578 558,578 558,578 558,578 L 539,577 Z"/>
  <path fill="rgb(255,0,0)" stroke="rgb(255,0,0)" d="M 539,580 L 539,580 C 539,580 538,580 537,579 537,579 537,578 537,577 L 537,577 537,573 538,569 540,561 540,561 C 540,561 540,561 540,560 L 544,553 544,553 C 544,553 544,553 544,553 L 549,547 549,547 C 549,547 549,547 549,547 L 555,542 555,542 C 555,542 555,542 555,542 L 555,542 562,538 565,536 569,536 573,535 577,535 581,535 585,536 589,537 593,539 593,539 C 593,539 593,539 593,539 L 599,543 599,543 C 599,543 599,543 599,544 L 605,549 605,549 C 605,549 605,549 605,549 L 609,555 609,555 C 610,555 610,556 610,556 L 613,563 613,563 C 613,563 613,563 613,563 L 615,571 615,571 C 615,571 615,572 615,572 L 615,572 615,576 615,580 615,580 C 615,581 615,582 615,582 614,583 613,583 613,583 L 594,582 594,582 C 593,582 592,581 592,580 L 592,580 591,575 591,576 590,571 590,572 589,568 589,568 587,565 587,565 585,562 585,562 582,560 583,561 579,559 580,559 576,559 577,559 573,559 574,559 571,560 571,560 568,562 568,561 565,564 566,564 564,567 564,567 562,570 562,570 561,574 561,574 560,578 560,578 C 560,580 559,581 558,581 L 539,580 Z M 558,576 L 558,576 555,578 555,573 555,573 C 555,573 555,573 556,573 L 557,569 557,569 C 557,569 557,568 557,568 L 559,564 559,564 C 559,564 559,564 559,564 L 561,561 561,561 C 561,560 561,560 561,560 L 565,557 565,557 C 565,557 565,557 565,557 L 568,555 568,555 C 568,555 568,555 568,555 L 572,554 572,554 C 572,554 572,553 573,553 L 576,553 576,553 C 577,553 577,553 577,553 L 581,554 581,554 C 581,554 581,554 582,554 L 585,555 585,555 C 585,556 585,556 585,556 L 589,558 589,558 C 589,558 589,558 589,558 L 592,561 592,561 C 592,561 592,561 592,561 L 594,565 594,565 C 594,565 594,565 594,565 L 596,569 596,569 C 596,569 596,570 596,570 L 597,574 597,574 C 597,574 597,574 597,575 L 597,575 597,579 594,577 613,577 610,580 610,576 609,572 609,572 608,565 608,565 605,558 605,558 601,552 601,553 596,547 596,548 590,544 590,544 587,543 584,542 581,541 577,540 574,540 571,541 568,542 564,543 558,547 559,546 553,551 554,551 549,556 549,556 545,563 546,563 543,570 543,573 542,578 539,575 558,576 Z"/>
  <path fill="rgb(255,0,0)" stroke="none" d="M 666,579 L 666,579 C 666,602 649,620 628,619 608,618 592,599 593,577 593,577 593,577 593,577 L 593,577 593,577 612,577 612,577 612,577 C 611,590 619,601 629,601 639,601 648,591 648,578 648,578 648,578 648,578 L 666,579 Z"/>
  <path fill="rgb(255,0,0)" stroke="rgb(255,0,0)" d="M 667,576 L 667,576 C 667,576 668,577 669,577 669,578 669,579 669,579 L 669,579 669,584 668,588 666,596 666,596 C 666,596 666,596 665,597 L 662,603 662,603 C 662,603 662,604 662,604 L 657,610 657,610 C 657,610 657,610 656,610 L 651,615 651,615 C 651,615 651,615 651,615 L 644,619 644,619 C 644,619 644,619 644,619 L 644,619 640,620 637,621 632,622 628,622 624,622 621,621 617,619 613,618 613,618 C 613,618 613,618 613,618 L 607,614 607,614 C 606,614 606,613 606,613 L 601,608 601,608 C 601,608 601,608 601,608 L 596,601 596,601 C 596,601 596,601 596,601 L 593,594 593,594 C 593,594 593,593 593,593 L 591,586 591,586 C 591,586 591,585 591,585 L 591,585 590,581 590,577 590,577 C 590,576 591,575 591,575 592,574 593,574 593,574 L 612,574 612,574 C 613,574 614,576 614,577 L 614,577 615,582 614,581 615,586 615,585 617,589 617,589 619,592 618,592 621,595 621,594 623,597 623,596 627,598 626,597 630,598 629,598 632,598 632,598 635,597 635,597 638,595 638,595 640,593 640,593 642,590 642,590 644,586 644,586 645,582 645,583 645,578 645,578 C 645,577 647,576 648,576 L 667,576 Z M 648,581 L 648,581 651,579 650,584 650,584 C 650,584 650,584 650,584 L 649,588 649,588 C 649,588 649,589 649,589 L 647,593 647,593 C 647,593 647,593 647,593 L 645,596 645,596 C 644,596 644,597 644,597 L 641,599 641,599 C 641,599 641,599 641,600 L 638,602 638,602 C 638,602 638,602 637,602 L 634,603 634,603 C 634,603 633,603 633,603 L 629,604 629,604 C 629,604 629,604 628,604 L 625,603 625,603 C 625,603 624,603 624,603 L 621,601 621,601 C 621,601 621,601 620,601 L 617,599 617,599 C 617,599 617,598 617,598 L 614,595 614,595 C 614,595 614,595 614,595 L 612,591 612,591 C 612,591 612,591 612,591 L 610,587 610,587 C 610,587 610,587 610,587 L 609,583 609,583 C 609,582 609,582 609,582 L 609,582 609,577 611,580 593,579 596,577 596,581 597,585 596,584 598,592 598,591 601,599 601,598 605,605 605,604 610,609 610,609 616,613 615,613 618,614 622,615 625,616 628,616 632,616 635,616 638,615 642,614 641,614 648,610 647,611 653,606 652,606 657,600 657,601 661,594 660,594 663,587 663,583 664,579 666,582 648,581 Z"/>
  <path fill="rgb(255,0,0)" stroke="none" d="M 648,581 L 648,581 C 649,559 666,541 686,542 706,542 722,561 721,584 721,584 721,584 721,584 L 721,584 721,584 703,583 703,583 703,583 C 703,570 695,560 685,560 675,559 667,569 666,582 666,582 666,582 666,582 L 648,581 Z"/>
  <path fill="rgb(255,0,0)" stroke="rgb(255,0,0)" d="M 648,584 L 648,584 C 647,584 646,584 646,583 645,583 645,582 645,581 L 645,581 645,577 646,572 649,565 649,565 C 649,564 649,564 649,564 L 652,557 652,557 C 652,557 652,557 653,557 L 657,551 657,551 C 657,551 658,551 658,551 L 663,546 663,546 C 663,545 664,545 664,545 L 670,542 670,542 C 670,542 670,542 671,542 L 671,542 674,540 678,539 682,539 686,539 690,539 694,540 698,541 701,543 701,543 C 701,543 702,543 702,543 L 708,547 708,547 C 708,547 708,547 708,547 L 713,552 713,552 C 714,553 714,553 714,553 L 718,559 718,559 C 718,559 718,559 718,560 L 721,566 721,566 C 721,567 721,567 721,567 L 723,575 723,575 C 723,575 723,575 723,575 L 723,575 724,579 724,584 724,584 C 724,585 724,585 723,586 722,586 722,587 721,586 L 703,586 703,586 C 701,586 700,585 700,583 L 700,583 700,579 700,579 699,575 699,575 698,572 698,572 696,568 696,569 693,566 694,566 691,564 691,564 688,563 689,563 685,563 685,563 682,563 682,563 679,564 680,564 676,565 677,565 674,568 674,568 672,571 672,570 670,574 671,574 669,578 669,578 669,582 669,582 C 669,584 667,585 666,585 L 648,584 Z M 666,579 L 666,579 663,582 664,577 664,577 C 664,577 664,577 664,577 L 665,572 665,572 C 665,572 665,572 665,572 L 667,568 667,568 C 667,568 667,568 667,568 L 670,564 670,564 C 670,564 670,564 670,564 L 673,561 673,561 C 673,561 673,561 673,561 L 677,559 677,559 C 677,559 677,559 677,559 L 681,557 681,557 C 681,557 681,557 681,557 L 685,557 685,557 C 685,557 685,557 686,557 L 689,558 689,558 C 690,558 690,558 690,558 L 693,559 693,559 C 694,559 694,559 694,560 L 697,562 697,562 C 697,562 697,562 697,562 L 700,565 700,565 C 700,565 700,565 700,565 L 703,569 703,569 C 703,569 703,569 703,569 L 704,573 704,573 C 704,573 704,573 704,574 L 705,578 705,578 C 705,578 705,578 705,578 L 705,578 706,583 703,580 721,581 718,584 718,580 718,576 718,576 716,569 716,569 713,562 713,562 709,556 710,556 704,551 704,551 699,547 699,548 696,546 693,545 689,544 686,544 682,544 679,545 676,545 673,547 673,547 667,550 667,550 661,555 662,554 657,560 657,560 654,567 654,566 652,573 651,577 651,582 648,579 666,579 Z"/>
  <path fill="rgb(255,0,0)" stroke="none" d="M 776,582 L 776,582 C 775,604 758,622 738,621 718,620 702,601 703,579 703,579 703,579 703,579 L 703,579 703,579 721,580 721,580 721,580 C 721,592 728,602 739,603 749,603 757,593 758,581 758,581 758,581 758,581 L 776,582 Z"/>
  <path fill="rgb(255,0,0)" stroke="rgb(255,0,0)" d="M 776,579 L 776,579 C 777,579 778,579 778,580 779,580 779,581 779,582 L 779,582 778,586 778,590 775,598 775,598 C 775,598 775,598 775,599 L 771,605 771,605 C 771,606 771,606 771,606 L 766,612 766,612 C 766,612 766,612 766,612 L 761,617 761,617 C 760,617 760,617 760,617 L 754,621 754,621 C 754,621 753,621 753,621 L 753,621 750,622 746,623 742,624 738,624 734,623 730,623 726,622 723,620 723,620 C 722,620 722,620 722,620 L 716,616 716,616 C 716,615 716,615 716,615 L 711,610 711,610 C 710,610 710,610 710,610 L 706,604 706,604 C 706,603 706,603 706,603 L 703,596 703,596 C 702,596 702,596 702,596 L 702,596 701,588 700,584 700,579 700,579 C 700,578 700,578 701,577 701,577 702,576 703,576 L 721,577 721,577 C 723,577 724,578 724,580 L 724,580 724,584 724,584 725,588 725,587 726,591 726,591 728,594 728,594 731,597 730,596 733,598 733,598 736,600 735,599 739,600 738,600 742,600 741,600 745,599 744,599 747,597 747,597 750,595 749,595 752,592 752,592 753,589 753,589 754,585 754,585 755,581 755,581 C 755,579 756,578 758,578 L 776,579 Z M 758,584 L 758,584 760,581 760,586 760,586 C 760,586 760,586 760,586 L 758,590 758,590 C 758,590 758,591 758,591 L 757,595 757,595 C 757,595 756,595 756,595 L 754,598 754,598 C 754,598 754,598 754,599 L 751,601 751,601 C 751,601 751,602 750,602 L 747,604 747,604 C 747,604 747,604 747,604 L 743,605 743,605 C 743,605 743,605 742,605 L 739,606 739,606 C 739,606 738,606 738,606 L 735,605 735,605 C 734,605 734,605 734,605 L 730,603 730,603 C 730,603 730,603 730,603 L 727,601 727,601 C 727,601 727,601 726,601 L 724,598 724,598 C 724,597 724,597 723,597 L 721,594 721,594 C 721,594 721,593 721,593 L 720,590 720,590 C 719,589 719,589 719,589 L 718,585 718,585 C 718,585 718,585 718,584 L 718,584 718,580 721,582 703,582 706,579 706,583 706,586 708,594 707,594 711,601 711,601 715,607 715,606 720,611 719,611 725,615 725,615 728,616 731,617 735,618 738,618 741,618 745,618 748,617 751,616 751,616 757,612 757,612 762,608 762,608 767,602 766,603 770,596 770,597 772,589 773,586 773,581 776,584 758,584 Z"/>
  <path fill="rgb(255,0,0)" stroke="none" d="M 757,584 L 757,584 C 758,561 775,544 795,544 816,545 832,564 831,586 831,586 831,586 831,586 L 831,586 831,586 812,586 812,586 812,586 C 813,573 805,563 795,563 785,562 776,572 776,584 776,584 776,584 776,584 L 757,584 Z"/>
  <path fill="rgb(255,0,0)" stroke="rgb(255,0,0)" d="M 757,586 L 757,586 C 756,586 756,586 755,586 755,585 755,584 755,584 L 755,584 755,579 756,575 758,567 758,567 C 758,567 758,567 758,567 L 762,560 762,560 C 762,560 762,560 762,559 L 767,554 767,554 C 767,553 767,553 767,553 L 773,548 773,548 C 773,548 773,548 773,548 L 780,544 780,544 C 780,544 780,544 780,544 L 780,544 783,543 787,542 791,542 795,542 799,542 803,543 807,544 811,545 811,545 C 811,545 811,545 811,546 L 817,550 817,550 C 817,550 817,550 817,550 L 823,555 823,555 C 823,555 823,555 823,556 L 828,562 828,562 C 828,562 828,562 828,562 L 831,569 831,569 C 831,569 831,569 831,570 L 831,570 833,577 833,582 833,586 833,586 C 833,587 833,588 833,588 832,589 831,589 830,589 L 812,588 812,588 C 811,588 810,587 809,586 L 809,586 809,581 809,582 808,577 809,578 807,574 807,574 805,571 805,572 803,569 803,569 800,567 801,567 797,566 798,566 794,565 795,565 791,566 792,565 788,567 789,566 786,569 786,568 784,571 784,570 782,574 782,573 780,577 780,576 779,581 779,580 778,585 778,585 C 778,586 777,587 776,587 L 757,586 Z M 776,582 L 776,582 773,584 773,580 773,580 C 773,579 773,579 773,579 L 775,575 775,575 C 775,575 775,575 775,574 L 777,571 777,571 C 777,570 777,570 777,570 L 779,567 779,567 C 779,567 780,567 780,567 L 782,564 782,564 C 783,564 783,564 783,564 L 786,562 786,562 C 786,561 787,561 787,561 L 790,560 790,560 C 790,560 791,560 791,560 L 795,560 795,560 C 795,560 795,560 795,560 L 799,560 799,560 C 799,561 799,561 799,561 L 803,562 803,562 C 803,562 803,562 803,562 L 806,565 806,565 C 807,565 807,565 807,565 L 810,568 810,568 C 810,568 810,568 810,568 L 812,572 812,572 C 812,572 812,572 812,572 L 814,576 814,576 C 814,576 814,576 814,576 L 815,581 815,581 C 815,581 815,581 815,581 L 815,581 815,586 812,583 831,584 828,586 828,582 828,579 825,571 826,572 823,565 823,565 819,559 819,559 813,554 814,554 808,551 808,551 805,549 802,548 799,547 795,547 792,547 789,547 785,548 782,550 782,549 776,553 777,553 771,557 771,557 766,563 767,563 763,569 764,569 761,576 760,580 760,584 757,581 776,582 Z"/>
  <path fill="rgb(255,0,0)" stroke="none" d="M 955,418 L 1135,615 1118,630 938,434 955,418 Z"/>
  <path fill="none" stroke="rgb(255,0,0)" d="M 955,418 L 1135,615 1118,630 938,434 955,418 Z"/>
  <path fill="rgb(255,0,0)" stroke="none" d="M 902,472 L 1082,668 1065,684 885,488 902,472 Z"/>
  <path fill="none" stroke="rgb(255,0,0)" d="M 902,472 L 1082,668 1065,684 885,488 902,472 Z"/>
  <path fill="rgb(255,0,0)" stroke="none" d="M 1093,495 L 897,676 882,659 1077,478 1093,495 Z"/>
  <path fill="none" stroke="rgb(255,0,0)" d="M 1093,495 L 897,676 882,659 1077,478 1093,495 Z"/>
  <path fill="rgb(255,0,0)" stroke="none" d="M 1044,445 L 849,626 833,609 1029,428 1044,445 Z"/>
  <path fill="none" stroke="rgb(255,0,0)" d="M 1044,445 L 849,626 833,609 1029,428 1044,445 Z"/>
  <path fill="rgb(255,0,0)" stroke="none" d="M 1140,544 L 944,725 928,708 1124,527 1140,544 Z"/>
  <path fill="none" stroke="rgb(255,0,0)" d="M 1140,544 L 944,725 928,708 1124,527 1140,544 Z"/>
  <path fill="rgb(255,0,0)" stroke="none" d="M 850,522 L 1030,718 1013,734 833,538 850,522 Z"/>
  <path fill="none" stroke="rgb(255,0,0)" d="M 850,522 L 1030,718 1013,734 833,538 850,522 Z"/>
  </g>
 </g>
</svg>