<?xml version="1.0" encoding="UTF-8"?>

<svg version="1.2" width="150px" height="150px" viewBox="0 0 1160 1160" xmlns="http://www.w3.org/2000/svg" xmlns:xlink="http://www.w3.org/1999/xlink">
 <g visibility="visible" id="MasterSlide_1_Standard">
  <g id="DrawingGroup_1">
   <g>
   <path fill="rgb(0,0,255)" stroke="none" d="M 1144,286 C 1144,482 1144,678 1144,874 768,874 393,874 17,874 17,678 17,482 17,286 393,286 768,286 1144,286 Z M 42,335 C 50,327 57,319 65,311 65,491 65,670 65,850 57,842 50,834 42,826 401,826 761,826 1120,826 1112,834 1104,842 1096,850 1096,670 1096,491 1096,311 1104,319 1112,327 1120,335 761,335 401,335 42,335 Z"/>
   <path fill="none" stroke="rgb(0,0,255)" id="Drawing_1_0" d="M 1144,286 C 1144,482 1144,678 1144,874 768,874 393,874 17,874 17,678 17,482 17,286 393,286 768,286 1144,286 Z"/>
   <path fill="none" stroke="rgb(0,0,255)" id="Drawing_1_1" d="M 42,335 C 50,327 57,319 65,311 65,491 65,670 65,850 57,842 50,834 42,826 401,826 761,826 1120,826 1112,834 1104,842 1096,850 1096,670 1096,491 1096,311 1104,319 1112,327 1120,335 761,335 401,335 42,335 Z"/>
   </g>
   <g>
   <path fill="rgb(0,0,255)" stroke="none" d="M 747,314 C 866,404 984,495 1103,586 984,675 866,765 747,855 747,675 747,494 747,314 Z M 795,807 C 782,800 769,794 756,787 853,713 950,639 1047,566 1047,579 1047,591 1047,604 950,531 853,457 756,383 769,376 782,370 795,363 795,511 795,659 795,807 Z"/>
   <path fill="none" stroke="rgb(0,0,255)" id="Drawing_2_0" d="M 747,314 C 866,404 984,495 1103,586 984,675 866,765 747,855 747,675 747,494 747,314 Z"/>
   <path fill="none" stroke="rgb(0,0,255)" id="Drawing_2_1" d="M 795,807 C 782,800 769,794 756,787 853,713 950,639 1047,566 1047,579 1047,591 1047,604 950,531 853,457 756,383 769,376 782,370 795,363 795,511 795,659 795,807 Z"/>
   </g>
   <g>
   <path fill="rgb(0,0,255)" stroke="none" d="M 271,653 C 271,612 271,571 271,530 256,530 241,530 226,530 226,522 226,514 226,506 266,506 306,506 345,506 345,514 345,522 345,530 331,530 316,530 301,530 301,571 301,612 301,653 L 271,653 Z"/>
    <rect fill="none" stroke="none" x="226" y="505" width="121" height="149"/>
   </g>
   <g>
   <path fill="rgb(0,0,255)" stroke="none" d="M 365,653 C 365,604 365,555 365,507 375,507 385,507 395,507 395,547 395,588 395,628 420,628 445,628 470,628 470,636 470,645 470,653 L 365,653 Z"/>
    <rect fill="none" stroke="none" x="364" y="506" width="108" height="148"/>
   </g>
   <g>
   <path fill="rgb(0,0,255)" stroke="none" d="M 492,653 C 492,604 492,555 492,506 526,506 560,506 595,506 595,514 595,522 595,530 571,530 546,530 522,530 522,542 522,554 522,565 543,565 564,565 585,565 585,574 585,582 585,590 564,590 543,590 522,590 522,611 522,632 522,653 L 492,653 Z"/>
    <rect fill="none" stroke="none" x="492" y="505" width="104" height="149"/>
   </g>
  </g>
 </g>
</svg>