<?xml version="1.0" encoding="UTF-8"?>

<svg version="1.2" width="150px" height="150px" viewBox="0 0 1160 1160" xmlns="http://www.w3.org/2000/svg" xmlns:xlink="http://www.w3.org/1999/xlink">
 <g visibility="visible" id="MasterSlide_1_Standard">
  <g id="Drawing_1">
  <path fill="rgb(255,0,0)" stroke="none" d="M 305,26 L 1072,809 1004,875 237,93 305,26 Z"/>
  <path stroke-width="1" fill="none" stroke="rgb(255,0,0)" d="M 305,26 L 1072,809 1004,875 237,93 305,26 Z"/>
  <path fill="rgb(255,0,0)" stroke="none" d="M 885,102 L 111,875 44,808 819,34 885,102 Z"/>
  <path stroke-width="1" fill="none" stroke="rgb(255,0,0)" d="M 885,102 L 111,875 44,808 819,34 885,102 Z"/>
  <path fill="rgb(255,0,0)" stroke="none" d="M 1072,299 L 297,1073 229,1005 1005,232 1072,299 Z"/>
  <path stroke-width="1" fill="none" stroke="rgb(255,0,0)" d="M 1072,299 L 297,1073 229,1005 1005,232 1072,299 Z"/>
  <path fill="rgb(255,0,0)" stroke="none" d="M 126,228 L 893,1010 826,1077 59,295 126,228 Z"/>
  <path stroke-width="1" fill="none" stroke="rgb(255,0,0)" d="M 126,228 L 893,1010 826,1077 59,295 126,228 Z"/>
  </g>
 </g>
</svg>