<?xml version="1.0" encoding="UTF-8"?>

<svg version="1.2" width="150px" height="150px" viewBox="0 0 1160 1160" xmlns="http://www.w3.org/2000/svg" xmlns:xlink="http://www.w3.org/1999/xlink">
 <g visibility="visible" id="MasterSlide_1_Standard">
  <g id="Drawing_1">
  <path fill="rgb(255,0,0)" stroke="none" d="M 22,236 L 67,204 117,175 170,151 226,130 283,114 342,103 402,96 462,93 522,94 582,99 641,108 700,121 756,139 812,161 864,188 912,219 936,236 958,253 979,271 997,291 1015,310 1032,330 1046,351 1060,371 1071,393 1082,415 1090,436 1098,458 1104,481 1109,503 1112,527 1113,550 1113,573 1112,596 1110,618 1105,641 1099,664 1091,686 1082,708 1072,730 1060,752 1047,773 1032,793 1015,814 998,833 980,853 958,870 936,888 890,921 840,950 787,974 730,995 674,1010 615,1022 555,1029 495,1032 435,1031 374,1026 315,1017 257,1003 200,985 146,963 94,937 44,906 20,888 47,852 68,868 114,896 162,921 214,942 267,960 322,972 378,982 435,986 492,987 550,984 605,977 661,966 715,951 767,933 817,910 864,884 908,853 928,837 947,820 964,803 981,785 995,767 1009,749 1020,730 1031,710 1040,691 1048,672 1055,653 1060,632 1064,613 1067,593 1067,573 1067,553 1067,533 1064,513 1060,493 1055,473 1049,454 1040,434 1032,415 1021,396 1009,377 996,358 982,341 966,323 948,306 930,289 910,272 889,257 842,229 794,204 742,183 690,166 635,153 578,144 521,139 464,138 407,141 351,148 295,159 241,174 190,191 140,215 93,241 47,272 22,236 Z"/>
  <path stroke-width="1" fill="none" stroke="rgb(255,0,0)" d="M 22,236 L 67,204 117,175 170,151 226,130 283,114 342,103 402,96 462,93 522,94 582,99 641,108 700,121 756,139 812,161 864,188 912,219 936,236 958,253 979,271 997,291 1015,310 1032,330 1046,351 1060,371 1071,393 1082,415 1090,436 1098,458 1104,481 1109,503 1112,527 1113,550 1113,573 1112,596 1110,618 1105,641 1099,664 1091,686 1082,708 1072,730 1060,752 1047,773 1032,793 1015,814 998,833 980,853 958,870 936,888 890,921 840,950 787,974 730,995 674,1010 615,1022 555,1029 495,1032 435,1031 374,1026 315,1017 257,1003 200,985 146,963 94,937 44,906 20,888 47,852 68,868 114,896 162,921 214,942 267,960 322,972 378,982 435,986 492,987 550,984 605,977 661,966 715,951 767,933 817,910 864,884 908,853 928,837 947,820 964,803 981,785 995,767 1009,749 1020,730 1031,710 1040,691 1048,672 1055,653 1060,632 1064,613 1067,593 1067,573 1067,553 1067,533 1064,513 1060,493 1055,473 1049,454 1040,434 1032,415 1021,396 1009,377 996,358 982,341 966,323 948,306 930,289 910,272 889,257 842,229 794,204 742,183 690,166 635,153 578,144 521,139 464,138 407,141 351,148 295,159 241,174 190,191 140,215 93,241 47,272 22,236 Z"/>
  </g>
 </g>
</svg>