<?xml version="1.0" encoding="UTF-8"?>

<svg version="1.2" width="150px" height="150px" viewBox="0 0 1160 1160" xmlns="http://www.w3.org/2000/svg" xmlns:xlink="http://www.w3.org/1999/xlink">
 <g visibility="visible" id="MasterSlide_1_Standard">
  <g id="Drawing_1">
  <path fill="rgb(0,0,255)" stroke="rgb(0,0,255)" d="M 247,679 L 247,663 249,646 251,630 253,614 257,599 261,583 266,568 272,553 279,539 286,525 293,512 302,499 311,486 320,474 330,462 341,451 352,440 364,430 376,420 389,411 402,403 416,395 430,388 444,381 459,376 474,370 489,366 505,362 521,359 537,357 553,356 570,356 586,356 603,357 619,359 635,362 651,365 666,370 681,375 696,381 710,387 724,394 738,402 751,410 764,419 776,429 788,439 799,449 810,461 820,472 829,484 839,497 847,510 855,524 862,537 869,552 874,566 880,581 884,597 888,612 891,628 893,644 894,661 894,677 894,694 893,710 891,726 888,742 884,758 880,773 875,788 869,803 863,817 856,831 848,845 840,858 831,871 821,883 811,894 800,906 789,916 777,927 765,936 752,945 739,954 726,961 712,969 698,975 683,981 668,986 652,990 637,994 621,997 605,999 588,1000 572,1001 555,1000 539,999 522,997 506,994 491,991 475,987 460,981 446,976 431,969 417,962 404,955 391,946 378,937 365,928 354,918 343,907 332,896 321,884 312,872 303,859 294,846 287,833 279,819 273,805 267,790 262,775 257,760 254,744 251,728 249,712 247,696 247,679 Z M 326,690 L 327,702 328,714 331,726 333,738 336,750 340,761 345,772 349,783 355,794 361,804 367,814 374,824 381,833 389,842 397,850 405,858 414,866 423,873 433,880 443,886 453,892 464,898 474,903 486,907 497,911 508,914 520,917 532,919 545,921 557,922 570,922 582,922 595,921 607,920 619,917 631,915 643,912 654,908 665,903 676,899 687,893 697,887 707,881 717,874 726,867 735,859 743,851 751,843 759,834 767,825 773,815 780,805 786,795 791,785 796,774 800,763 804,752 808,740 811,728 813,716 814,704 815,692 816,679 815,667 814,654 813,642 811,630 808,618 805,607 801,595 797,584 792,573 787,563 781,553 774,543 768,533 760,524 753,515 745,506 736,498 727,491 718,483 708,476 699,470 688,464 678,459 667,454 656,449 644,445 633,442 621,439 609,437 597,436 584,434 572,434 559,434 547,435 534,437 522,439 511,442 499,445 487,449 476,453 465,458 455,463 445,469 434,475 425,482 416,489 407,497 398,505 390,513 382,522 375,532 368,541 362,551 356,561 350,572 345,582 341,593 337,605 334,616 331,628 329,640 327,652 326,665 326,677 326,690 Z"/>
  <path fill="rgb(0,0,255)" stroke="rgb(0,0,255)" d="M 533,372 L 662,145 713,174 584,400 Z"/>
  </g>
 </g>
</svg>