<?xml version="1.0" encoding="UTF-8"?>

<svg version="1.2" width="150px" height="150px" viewBox="0 0 1160 1160" xmlns="http://www.w3.org/2000/svg" xmlns:xlink="http://www.w3.org/1999/xlink">
 <g visibility="visible" id="MasterSlide_1_Standard">
  <g id="Drawing_1">
  <path fill="rgb(0,0,255)" stroke="rgb(0,0,255)" d="M 198,573 L 198,573 180,570 162,569 122,565 103,564 85,562 71,561 59,560 54,560 52,559 49,558 49,558 C 46,558 44,556 42,555 L 42,555 42,555 C 39,551 37,546 39,541 40,536 44,532 49,531 L 51,531 51,531 C 52,531 52,531 53,531 L 53,531 56,531 61,531 67,531 76,531 86,531 100,531 114,532 132,532 152,534 174,534 200,534 328,537 456,541 713,546 713,546 C 715,546 717,546 718,547 L 718,547 729,551 739,555 747,558 754,560 763,565 770,568 776,569 783,571 789,573 794,575 802,578 812,580 812,580 C 815,581 816,581 818,583 L 818,583 831,598 843,609 852,617 860,624 871,632 881,643 892,656 898,665 905,675 905,675 C 906,676 907,678 907,680 L 907,680 911,703 914,713 916,723 916,721 920,730 920,730 C 921,731 921,733 921,734 L 921,734 926,764 900,768 895,739 895,742 891,734 891,734 C 891,733 890,731 890,731 L 890,731 887,719 884,708 880,685 882,690 877,681 872,674 861,661 853,653 843,645 834,637 823,628 811,617 799,602 804,606 794,603 786,601 781,599 775,597 766,594 760,593 753,590 744,586 737,583 729,580 719,576 708,573 713,573 456,568 327,565 199,561 174,560 152,560 131,560 114,560 99,559 86,559 75,559 67,558 61,558 56,558 53,558 54,558 54,558 62,535 62,536 54,531 56,532 57,532 62,534 72,534 88,535 106,536 124,539 164,542 184,544 201,546 198,573 Z M 993,726 L 993,726 931,905 825,749 993,726 Z"/>
  <path fill="rgb(0,0,255)" stroke="rgb(0,0,255)" d="M 213,562 L 213,562 197,564 178,566 138,569 119,570 102,573 87,573 76,574 72,575 70,575 68,575 76,571 76,571 68,549 70,549 67,549 70,549 76,549 81,549 90,549 100,549 112,547 128,547 145,547 164,547 187,546 212,545 337,542 464,540 716,535 712,536 724,531 733,528 742,526 747,523 756,520 763,517 770,515 778,513 782,511 789,510 797,507 807,505 800,508 814,495 825,484 835,476 845,469 854,461 863,453 872,442 877,435 883,427 881,433 885,411 887,400 895,365 921,370 914,406 912,416 908,438 908,438 C 907,439 906,440 905,443 L 905,443 900,452 892,459 882,472 872,482 862,490 853,497 843,505 833,513 820,527 820,527 C 819,529 816,530 814,531 L 814,531 804,534 796,536 790,537 785,539 778,541 772,542 766,545 757,549 750,551 742,554 733,557 721,561 721,561 C 720,562 719,562 717,562 L 717,562 464,568 338,569 212,573 187,573 165,574 145,574 128,575 114,575 101,575 90,575 82,575 74,575 70,575 67,575 67,575 C 67,575 66,575 66,575 L 64,575 64,575 C 59,575 54,570 53,566 52,561 53,556 57,552 L 57,552 57,552 C 59,550 62,549 65,549 L 65,549 66,547 70,547 74,547 85,546 100,545 116,544 135,542 174,539 193,537 210,535 213,562 Z M 820,381 L 820,381 931,227 987,409 820,381 Z"/>
  </g>
 </g>
</svg>