<?xml version="1.0" encoding="UTF-8"?>

<svg version="1.2" width="150px" height="150px" viewBox="0 0 1160 1160" xmlns="http://www.w3.org/2000/svg" xmlns:xlink="http://www.w3.org/1999/xlink">
 <g visibility="visible" id="MasterSlide_1_Standard">
  <g id="DrawingGroup_1">
   <g>
   <path fill="rgb(0,0,255)" stroke="none" d="M 1143,287 C 1143,482 1143,678 1143,873 768,873 393,873 18,873 18,678 18,482 18,287 393,287 768,287 1143,287 Z M 42,336 C 50,328 58,320 66,312 66,491 66,670 66,849 58,841 50,833 42,825 401,825 760,825 1119,825 1111,833 1102,841 1094,849 1094,670 1094,491 1094,312 1102,320 1111,328 1119,336 760,336 401,336 42,336 Z"/>
   <path fill="none" stroke="rgb(0,0,255)" id="Drawing_1_0" d="M 1143,287 C 1143,482 1143,678 1143,873 768,873 393,873 18,873 18,678 18,482 18,287 393,287 768,287 1143,287 Z"/>
   <path fill="none" stroke="rgb(0,0,255)" id="Drawing_1_1" d="M 42,336 C 50,328 58,320 66,312 66,491 66,670 66,849 58,841 50,833 42,825 401,825 760,825 1119,825 1111,833 1102,841 1094,849 1094,670 1094,491 1094,312 1102,320 1111,328 1119,336 760,336 401,336 42,336 Z"/>
   </g>
   <g>
   <path fill="rgb(0,0,255)" stroke="none" d="M 746,315 C 865,405 983,495 1101,585 983,675 865,765 746,855 746,675 746,495 746,315 Z M 795,806 C 782,800 769,793 756,787 853,713 950,639 1046,566 1046,579 1046,591 1046,604 950,531 853,457 756,383 769,377 782,370 795,364 795,511 795,659 795,806 Z"/>
   <path fill="none" stroke="rgb(0,0,255)" id="Drawing_2_0" d="M 746,315 C 865,405 983,495 1101,585 983,675 865,765 746,855 746,675 746,495 746,315 Z"/>
   <path fill="none" stroke="rgb(0,0,255)" id="Drawing_2_1" d="M 795,806 C 782,800 769,793 756,787 853,713 950,639 1046,566 1046,579 1046,591 1046,604 950,531 853,457 756,383 769,377 782,370 795,364 795,511 795,659 795,806 Z"/>
   </g>
   <g>
   <path fill="rgb(0,0,255)" stroke="none" d="M 201,644 C 189,595 177,546 166,497 176,497 186,497 196,497 203,530 211,564 218,598 227,564 236,530 245,497 256,497 268,497 280,497 288,531 297,565 305,600 313,565 320,531 328,497 338,497 347,497 357,497 346,546 334,595 322,644 311,644 301,644 291,644 281,607 271,571 262,534 252,571 242,607 233,644 L 201,644 Z"/>
    <rect fill="none" stroke="none" x="165" y="496" width="194" height="149"/>
   </g>
   <g>
   <path fill="rgb(0,0,255)" stroke="none" d="M 500,545 C 581,545 661,545 742,545 742,568 742,592 742,615 661,615 581,615 500,615 500,592 500,568 500,545 Z M 707,474 C 755,509 802,545 849,581 802,616 755,651 707,686 707,615 707,545 707,474 Z"/>
   <path fill="none" stroke="rgb(0,0,255)" id="Drawing_4_0" d="M 500,545 C 581,545 661,545 742,545 742,568 742,592 742,615 661,615 581,615 500,615 500,592 500,568 500,545 Z"/>
   <path fill="none" stroke="rgb(0,0,255)" id="Drawing_4_1" d="M 707,474 C 755,509 802,545 849,581 802,616 755,651 707,686 707,615 707,545 707,474 Z"/>
   </g>
   <g>
   <path fill="rgb(0,0,255)" stroke="none" d="M 394,581 L 394,581 C 394,555 415,534 441,534 L 441,534 441,534 441,534 C 467,534 488,555 488,581 L 488,581 488,581 488,581 C 488,606 467,627 441,627 L 441,627 441,627 441,627 C 415,627 394,606 394,581 Z"/>
    <rect fill="none" stroke="none" x="393" y="533" width="96" height="96"/>
   </g>
  </g>
 </g>
</svg>