<?xml version="1.0" encoding="UTF-8"?>

<svg version="1.2" width="150px" height="150px" viewBox="0 0 1160 1160" xmlns="http://www.w3.org/2000/svg" xmlns:xlink="http://www.w3.org/1999/xlink">
 <g visibility="visible" id="MasterSlide_1_Standard">
  <g id="DrawingGroup_1">
   <g>
   <path fill="rgb(0,0,255)" stroke="none" d="M 378,318 C 378,541 378,765 378,988 358,988 339,988 320,988 320,765 320,541 320,318 339,318 358,318 378,318 Z"/>
   <path fill="none" stroke="rgb(0,0,255)" id="Drawing_1_0" d="M 378,318 C 378,541 378,765 378,988 358,988 339,988 320,988 320,765 320,541 320,318 339,318 358,318 378,318 Z"/>
   </g>
   <g>
   <path fill="rgb(0,0,255)" stroke="none" d="M 240,1025 L 240,1025 C 240,967 289,920 348,920 L 348,920 348,920 348,920 C 409,920 458,967 458,1025 L 458,1025 458,1025 458,1025 C 458,1084 409,1131 348,1131 L 348,1131 348,1131 348,1131 C 289,1131 240,1084 240,1025 Z"/>
    <rect fill="none" stroke="none" x="239" y="920" width="220" height="213"/>
   </g>
   <g>
   <path fill="rgb(0,0,255)" stroke="none" d="M 236,1026 C 236,1022 236,1019 236,1015 237,1011 237,1008 238,1004 239,1001 241,997 242,994 243,990 244,987 245,983 247,980 248,977 250,974 252,971 253,968 255,965 257,963 260,960 262,957 264,954 267,951 269,948 272,946 275,944 278,941 281,939 283,937 286,935 289,934 292,932 295,930 298,929 302,927 305,925 308,924 312,923 315,922 319,921 322,920 326,919 330,919 333,919 337,918 340,918 344,918 348,917 352,918 356,918 360,918 364,919 368,919 372,919 375,920 378,921 382,922 385,923 389,924 393,925 396,927 399,928 402,929 405,931 408,933 412,935 414,937 417,939 420,941 422,944 425,946 428,948 430,951 433,954 436,956 438,959 440,962 442,965 444,968 446,971 448,974 449,977 451,980 453,983 454,986 455,990 456,993 457,997 458,1000 459,1004 459,1007 459,1011 460,1014 460,1018 460,1021 461,1025 460,1029 460,1032 460,1036 460,1040 460,1043 460,1047 458,1051 457,1054 456,1058 455,1061 454,1065 453,1068 451,1071 449,1074 448,1077 446,1080 444,1084 442,1087 440,1090 438,1092 436,1095 433,1098 431,1100 429,1103 426,1105 423,1108 420,1110 417,1112 414,1114 412,1116 408,1118 405,1119 402,1121 399,1123 396,1124 393,1126 389,1127 386,1129 383,1130 379,1131 375,1131 372,1132 368,1133 364,1133 360,1134 356,1134 352,1135 349,1135 345,1135 341,1134 337,1134 333,1133 330,1133 326,1132 323,1131 319,1131 316,1130 312,1129 309,1127 305,1126 302,1125 298,1123 295,1122 292,1120 289,1118 286,1116 283,1114 281,1112 278,1110 275,1108 272,1105 269,1103 267,1100 264,1098 262,1095 260,1092 257,1090 255,1087 253,1084 252,1080 250,1077 248,1074 247,1071 245,1068 244,1065 243,1062 242,1059 241,1055 240,1051 239,1047 238,1044 237,1040 236,1037 236,1033 236,1030 236,1026 Z M 243,1035 C 244,1039 244,1042 245,1046 246,1049 247,1053 248,1056 249,1059 250,1062 251,1065 253,1068 254,1071 256,1074 258,1077 259,1080 261,1083 263,1085 265,1088 267,1090 269,1093 272,1095 274,1098 276,1100 279,1102 281,1104 284,1106 286,1108 289,1110 292,1112 295,1113 298,1115 301,1116 304,1118 307,1119 310,1120 314,1122 317,1123 320,1124 324,1124 327,1125 331,1126 334,1126 338,1127 341,1127 344,1128 348,1128 352,1128 356,1127 360,1127 363,1126 366,1126 370,1125 373,1124 376,1124 380,1123 383,1122 386,1121 389,1120 392,1118 395,1117 399,1115 401,1113 404,1112 407,1110 410,1108 413,1107 416,1105 418,1103 421,1100 424,1098 426,1095 428,1093 431,1090 432,1088 434,1085 436,1083 438,1080 440,1077 442,1074 443,1071 444,1068 446,1065 447,1062 448,1059 449,1056 450,1053 451,1050 452,1047 452,1043 453,1040 454,1036 454,1033 454,1029 454,1026 454,1022 454,1019 454,1015 453,1012 453,1009 453,1006 452,1002 451,999 450,995 448,992 447,989 446,986 444,983 443,980 442,977 440,974 438,972 436,969 434,967 432,964 431,961 428,959 426,956 424,953 421,951 418,949 416,947 413,945 410,943 408,941 405,940 402,938 400,936 396,935 393,934 390,932 387,931 384,930 381,928 377,928 374,927 371,926 367,926 363,925 360,924 356,924 352,924 349,924 345,924 341,924 338,924 334,925 331,926 328,926 325,927 321,928 318,928 314,929 311,930 307,931 304,933 302,934 299,935 296,937 292,939 289,941 287,943 284,945 282,947 279,949 277,951 274,953 272,956 269,958 267,960 265,963 263,966 261,969 259,972 258,974 256,977 255,980 253,983 252,986 251,989 249,992 248,995 247,998 246,1002 245,1005 244,1008 244,1012 243,1015 243,1018 243,1022 243,1025 243,1028 243,1032 243,1035 Z"/>
   <path fill="none" stroke="rgb(0,0,255)" id="Drawing_3_0" d="M 236,1026 C 236,1022 236,1019 236,1015 237,1011 237,1008 238,1004 239,1001 241,997 242,994 243,990 244,987 245,983 247,980 248,977 250,974 252,971 253,968 255,965 257,963 260,960 262,957 264,954 267,951 269,948 272,946 275,944 278,941 281,939 283,937 286,935 289,934 292,932 295,930 298,929 302,927 305,925 308,924 312,923 315,922 319,921 322,920 326,919 330,919 333,919 337,918 340,918 344,918 348,917 352,918 356,918 360,918 364,919 368,919 372,919 375,920 378,921 382,922 385,923 389,924 393,925 396,927 399,928 402,929 405,931 408,933 412,935 414,937 417,939 420,941 422,944 425,946 428,948 430,951 433,954 436,956 438,959 440,962 442,965 444,968 446,971 448,974 449,977 451,980 453,983 454,986 455,990 456,993 457,997 458,1000 459,1004 459,1007 459,1011 460,1014 460,1018 460,1021 461,1025 460,1029 460,1032 460,1036 460,1040 460,1043 460,1047 458,1051 457,1054 456,1058 455,1061 454,1065 453,1068 451,1071 449,1074 448,1077 446,1080 444,1084 442,1087 440,1090 438,1092 436,1095 433,1098 431,1100 429,1103 426,1105 423,1108 420,1110 417,1112 414,1114 412,1116 408,1118 405,1119 402,1121 399,1123 396,1124 393,1126 389,1127 386,1129 383,1130 379,1131 375,1131 372,1132 368,1133 364,1133 360,1134 356,1134 352,1135 349,1135 345,1135 341,1134 337,1134 333,1133 330,1133 326,1132 323,1131 319,1131 316,1130 312,1129 309,1127 305,1126 302,1125 298,1123 295,1122 292,1120 289,1118 286,1116 283,1114 281,1112 278,1110 275,1108 272,1105 269,1103 267,1100 264,1098 262,1095 260,1092 257,1090 255,1087 253,1084 252,1080 250,1077 248,1074 247,1071 245,1068 244,1065 243,1062 242,1059 241,1055 240,1051 239,1047 238,1044 237,1040 236,1037 236,1033 236,1030 236,1026 Z"/>
   <path fill="none" stroke="rgb(0,0,255)" id="Drawing_3_1" d="M 243,1035 C 244,1039 244,1042 245,1046 246,1049 247,1053 248,1056 249,1059 250,1062 251,1065 253,1068 254,1071 256,1074 258,1077 259,1080 261,1083 263,1085 265,1088 267,1090 269,1093 272,1095 274,1098 276,1100 279,1102 281,1104 284,1106 286,1108 289,1110 292,1112 295,1113 298,1115 301,1116 304,1118 307,1119 310,1120 314,1122 317,1123 320,1124 324,1124 327,1125 331,1126 334,1126 338,1127 341,1127 344,1128 348,1128 352,1128 356,1127 360,1127 363,1126 366,1126 370,1125 373,1124 376,1124 380,1123 383,1122 386,1121 389,1120 392,1118 395,1117 399,1115 401,1113 404,1112 407,1110 410,1108 413,1107 416,1105 418,1103 421,1100 424,1098 426,1095 428,1093 431,1090 432,1088 434,1085 436,1083 438,1080 440,1077 442,1074 443,1071 444,1068 446,1065 447,1062 448,1059 449,1056 450,1053 451,1050 452,1047 452,1043 453,1040 454,1036 454,1033 454,1029 454,1026 454,1022 454,1019 454,1015 453,1012 453,1009 453,1006 452,1002 451,999 450,995 448,992 447,989 446,986 444,983 443,980 442,977 440,974 438,972 436,969 434,967 432,964 431,961 428,959 426,956 424,953 421,951 418,949 416,947 413,945 410,943 408,941 405,940 402,938 400,936 396,935 393,934 390,932 387,931 384,930 381,928 377,928 374,927 371,926 367,926 363,925 360,924 356,924 352,924 349,924 345,924 341,924 338,924 334,925 331,926 328,926 325,927 321,928 318,928 314,929 311,930 307,931 304,933 302,934 299,935 296,937 292,939 289,941 287,943 284,945 282,947 279,949 277,951 274,953 272,956 269,958 267,960 265,963 263,966 261,969 259,972 258,974 256,977 255,980 253,983 252,986 251,989 249,992 248,995 247,998 246,1002 245,1005 244,1008 244,1012 243,1015 243,1018 243,1022 243,1025 243,1028 243,1032 243,1035 Z"/>
   </g>
   <g>
   <path fill="rgb(0,0,255)" stroke="none" d="M 322,318 C 322,313 322,308 322,304 322,299 323,294 323,289 324,284 324,279 325,274 326,269 327,264 328,259 329,254 330,249 331,245 332,240 333,235 335,231 336,226 338,222 340,218 341,213 343,209 345,205 347,200 349,196 351,191 353,187 355,182 358,178 360,174 363,170 366,166 368,162 370,158 373,154 376,150 379,147 382,143 384,139 387,136 390,132 393,128 396,125 400,121 403,118 406,115 410,112 413,108 416,105 420,101 423,98 427,95 431,92 434,89 438,86 442,83 446,81 450,78 454,76 458,73 462,71 466,68 470,66 474,63 479,61 483,59 487,56 492,54 496,52 501,50 506,48 510,46 514,45 519,43 523,42 528,40 533,39 538,38 543,36 548,35 552,34 557,32 562,31 567,30 572,30 577,29 582,28 586,28 591,27 596,27 601,26 606,26 611,26 616,25 621,25 626,25 631,26 636,26 642,26 647,27 652,27 657,28 662,28 667,29 672,30 677,30 682,31 687,32 692,34 696,35 701,36 706,37 711,38 716,39 720,41 724,42 729,44 734,46 738,48 743,50 748,51 752,53 757,55 761,58 765,60 769,62 773,65 777,67 781,70 785,72 789,75 793,77 797,80 801,82 805,85 809,88 812,91 816,94 820,97 824,100 828,103 831,107 834,110 838,113 841,117 844,120 847,124 850,127 853,131 856,134 860,138 863,141 866,145 868,149 871,153 874,157 876,161 879,165 882,169 884,173 887,177 889,181 891,186 893,190 895,194 898,198 900,203 902,207 903,212 905,217 907,221 908,225 910,230 911,234 912,239 913,244 914,248 916,253 917,258 918,262 919,267 920,272 921,277 921,282 922,287 922,292 923,297 923,302 923,307 924,312 924,318 924,322 923,327 923,332 923,337 922,342 922,347 921,352 921,357 920,362 919,367 919,372 918,377 917,381 915,385 914,390 913,395 911,400 910,405 909,409 907,413 906,418 904,422 902,426 900,431 898,435 896,439 894,444 892,448 889,452 887,457 885,461 882,465 880,470 877,474 875,478 872,482 869,485 867,489 864,493 861,496 857,500 854,504 851,507 848,510 845,514 842,517 839,520 836,524 833,527 829,531 825,535 822,537 818,540 814,543 810,546 806,549 802,553 798,555 794,557 790,560 786,562 782,565 778,568 774,570 770,572 766,575 762,577 758,579 753,582 749,583 745,585 740,587 736,589 731,591 726,592 722,594 717,595 712,596 708,598 703,599 698,600 693,602 688,603 683,604 678,605 673,606 668,606 663,607 658,608 653,608 648,609 643,609 638,609 633,610 628,610 623,610 618,610 613,610 607,609 602,609 597,609 592,608 587,608 583,607 578,606 573,606 568,605 563,604 558,603 553,602 548,600 543,599 538,598 534,597 529,596 524,594 520,592 515,591 511,589 507,587 502,585 497,583 493,582 488,580 484,578 480,576 475,573 471,571 467,569 463,566 459,563 455,561 451,558 447,555 443,553 439,550 435,547 432,544 428,541 424,538 421,536 417,532 414,528 411,525 407,522 404,519 401,516 397,512 394,508 391,505 388,501 385,497 383,494 380,490 377,486 374,483 371,479 368,475 366,471 363,467 361,463 359,459 356,454 354,450 352,446 350,441 348,437 346,433 344,428 342,423 341,419 339,414 337,410 336,406 334,401 332,396 331,392 330,387 329,382 328,378 327,373 326,368 325,363 325,358 324,353 324,348 323,343 323,338 322,334 322,328 322,323 322,318 Z M 379,330 C 379,333 380,337 381,341 381,345 381,349 382,353 382,357 383,361 384,365 385,368 386,372 387,376 388,379 389,383 390,387 391,390 392,394 394,398 395,401 396,404 398,408 399,411 401,414 403,418 404,421 406,425 408,429 410,432 412,435 414,439 416,442 418,445 420,448 422,451 424,454 427,458 429,460 431,463 434,466 436,469 439,472 442,475 444,477 447,480 450,483 452,485 455,488 458,491 461,493 464,495 467,498 470,500 473,503 477,506 480,508 483,510 486,512 489,514 492,516 495,518 498,520 502,522 506,524 509,525 513,527 517,529 520,530 523,532 527,534 530,535 534,536 538,538 541,539 545,540 549,542 553,543 557,544 561,545 565,546 569,547 573,548 577,548 581,549 585,550 588,550 592,550 596,551 601,551 605,552 609,553 613,553 617,553 621,553 626,553 630,553 634,553 639,552 643,552 647,552 651,551 655,550 659,550 663,549 667,548 671,548 675,547 679,546 683,545 687,544 691,543 694,542 698,540 702,539 706,538 710,537 714,536 717,535 721,533 725,531 728,530 732,528 735,526 738,524 742,522 745,520 748,518 752,516 755,514 758,512 762,510 765,508 768,506 771,503 774,501 777,499 780,496 783,494 786,492 789,489 792,486 794,484 797,481 800,478 802,476 805,473 808,470 810,467 813,464 815,461 817,459 820,455 822,452 824,449 826,446 828,443 830,440 832,436 834,433 836,430 838,426 840,423 841,420 843,416 845,413 847,410 848,406 850,402 851,399 852,395 853,392 854,389 855,385 857,381 858,377 859,373 859,369 860,365 861,361 862,357 863,354 864,350 864,346 865,342 865,338 865,334 865,330 865,326 865,322 865,318 865,314 865,310 865,306 865,302 865,298 865,294 864,290 864,286 863,283 862,279 862,275 861,271 860,267 860,263 859,260 858,256 856,252 855,249 854,245 852,241 851,238 850,234 848,231 847,228 845,224 844,221 842,218 841,214 839,210 837,207 835,203 833,200 831,197 829,194 827,191 824,188 822,185 820,181 818,178 816,175 814,173 811,170 809,167 806,164 803,161 801,158 798,156 795,153 793,150 790,148 787,145 784,142 781,140 778,137 775,135 772,132 769,130 766,128 763,126 759,124 756,122 753,120 749,118 746,116 743,114 739,112 736,110 733,108 729,106 726,105 722,103 718,102 714,101 710,99 706,98 703,97 699,95 695,94 692,93 688,92 684,91 680,90 676,89 672,88 668,87 664,87 660,86 656,85 652,85 647,84 644,84 640,83 636,83 632,83 628,83 623,83 619,83 615,83 610,83 606,83 602,84 598,84 594,85 590,85 586,86 582,87 578,87 574,88 570,89 566,89 562,90 558,91 554,93 551,94 547,95 543,96 540,97 536,98 532,100 529,101 525,103 521,104 518,106 514,108 510,110 507,112 503,114 500,115 497,117 493,119 490,122 487,124 484,126 481,128 478,130 474,132 471,134 468,136 465,139 462,141 460,144 457,147 454,149 451,152 448,155 445,157 442,160 439,163 437,166 435,169 432,172 430,174 428,177 425,180 423,184 421,187 419,190 417,193 415,196 413,199 411,202 409,206 407,209 405,212 403,216 401,219 400,222 399,226 397,229 396,233 395,237 393,240 391,243 390,247 389,251 388,255 387,259 386,262 385,266 384,270 383,274 383,278 383,282 382,286 381,290 381,294 380,297 380,301 380,305 379,309 379,313 379,318 379,322 379,326 379,330 Z"/>
   <path fill="none" stroke="rgb(0,0,255)" id="Drawing_4_0" d="M 322,318 C 322,313 322,308 322,304 322,299 323,294 323,289 324,284 324,279 325,274 326,269 327,264 328,259 329,254 330,249 331,245 332,240 333,235 335,231 336,226 338,222 340,218 341,213 343,209 345,205 347,200 349,196 351,191 353,187 355,182 358,178 360,174 363,170 366,166 368,162 370,158 373,154 376,150 379,147 382,143 384,139 387,136 390,132 393,128 396,125 400,121 403,118 406,115 410,112 413,108 416,105 420,101 423,98 427,95 431,92 434,89 438,86 442,83 446,81 450,78 454,76 458,73 462,71 466,68 470,66 474,63 479,61 483,59 487,56 492,54 496,52 501,50 506,48 510,46 514,45 519,43 523,42 528,40 533,39 538,38 543,36 548,35 552,34 557,32 562,31 567,30 572,30 577,29 582,28 586,28 591,27 596,27 601,26 606,26 611,26 616,25 621,25 626,25 631,26 636,26 642,26 647,27 652,27 657,28 662,28 667,29 672,30 677,30 682,31 687,32 692,34 696,35 701,36 706,37 711,38 716,39 720,41 724,42 729,44 734,46 738,48 743,50 748,51 752,53 757,55 761,58 765,60 769,62 773,65 777,67 781,70 785,72 789,75 793,77 797,80 801,82 805,85 809,88 812,91 816,94 820,97 824,100 828,103 831,107 834,110 838,113 841,117 844,120 847,124 850,127 853,131 856,134 860,138 863,141 866,145 868,149 871,153 874,157 876,161 879,165 882,169 884,173 887,177 889,181 891,186 893,190 895,194 898,198 900,203 902,207 903,212 905,217 907,221 908,225 910,230 911,234 912,239 913,244 914,248 916,253 917,258 918,262 919,267 920,272 921,277 921,282 922,287 922,292 923,297 923,302 923,307 924,312 924,318 924,322 923,327 923,332 923,337 922,342 922,347 921,352 921,357 920,362 919,367 919,372 918,377 917,381 915,385 914,390 913,395 911,400 910,405 909,409 907,413 906,418 904,422 902,426 900,431 898,435 896,439 894,444 892,448 889,452 887,457 885,461 882,465 880,470 877,474 875,478 872,482 869,485 867,489 864,493 861,496 857,500 854,504 851,507 848,510 845,514 842,517 839,520 836,524 833,527 829,531 825,535 822,537 818,540 814,543 810,546 806,549 802,553 798,555 794,557 790,560 786,562 782,565 778,568 774,570 770,572 766,575 762,577 758,579 753,582 749,583 745,585 740,587 736,589 731,591 726,592 722,594 717,595 712,596 708,598 703,599 698,600 693,602 688,603 683,604 678,605 673,606 668,606 663,607 658,608 653,608 648,609 643,609 638,609 633,610 628,610 623,610 618,610 613,610 607,609 602,609 597,609 592,608 587,608 583,607 578,606 573,606 568,605 563,604 558,603 553,602 548,600 543,599 538,598 534,597 529,596 524,594 520,592 515,591 511,589 507,587 502,585 497,583 493,582 488,580 484,578 480,576 475,573 471,571 467,569 463,566 459,563 455,561 451,558 447,555 443,553 439,550 435,547 432,544 428,541 424,538 421,536 417,532 414,528 411,525 407,522 404,519 401,516 397,512 394,508 391,505 388,501 385,497 383,494 380,490 377,486 374,483 371,479 368,475 366,471 363,467 361,463 359,459 356,454 354,450 352,446 350,441 348,437 346,433 344,428 342,423 341,419 339,414 337,410 336,406 334,401 332,396 331,392 330,387 329,382 328,378 327,373 326,368 325,363 325,358 324,353 324,348 323,343 323,338 322,334 322,328 322,323 322,318 Z"/>
   <path fill="none" stroke="rgb(0,0,255)" id="Drawing_4_1" d="M 379,330 C 379,333 380,337 381,341 381,345 381,349 382,353 382,357 383,361 384,365 385,368 386,372 387,376 388,379 389,383 390,387 391,390 392,394 394,398 395,401 396,404 398,408 399,411 401,414 403,418 404,421 406,425 408,429 410,432 412,435 414,439 416,442 418,445 420,448 422,451 424,454 427,458 429,460 431,463 434,466 436,469 439,472 442,475 444,477 447,480 450,483 452,485 455,488 458,491 461,493 464,495 467,498 470,500 473,503 477,506 480,508 483,510 486,512 489,514 492,516 495,518 498,520 502,522 506,524 509,525 513,527 517,529 520,530 523,532 527,534 530,535 534,536 538,538 541,539 545,540 549,542 553,543 557,544 561,545 565,546 569,547 573,548 577,548 581,549 585,550 588,550 592,550 596,551 601,551 605,552 609,553 613,553 617,553 621,553 626,553 630,553 634,553 639,552 643,552 647,552 651,551 655,550 659,550 663,549 667,548 671,548 675,547 679,546 683,545 687,544 691,543 694,542 698,540 702,539 706,538 710,537 714,536 717,535 721,533 725,531 728,530 732,528 735,526 738,524 742,522 745,520 748,518 752,516 755,514 758,512 762,510 765,508 768,506 771,503 774,501 777,499 780,496 783,494 786,492 789,489 792,486 794,484 797,481 800,478 802,476 805,473 808,470 810,467 813,464 815,461 817,459 820,455 822,452 824,449 826,446 828,443 830,440 832,436 834,433 836,430 838,426 840,423 841,420 843,416 845,413 847,410 848,406 850,402 851,399 852,395 853,392 854,389 855,385 857,381 858,377 859,373 859,369 860,365 861,361 862,357 863,354 864,350 864,346 865,342 865,338 865,334 865,330 865,326 865,322 865,318 865,314 865,310 865,306 865,302 865,298 865,294 864,290 864,286 863,283 862,279 862,275 861,271 860,267 860,263 859,260 858,256 856,252 855,249 854,245 852,241 851,238 850,234 848,231 847,228 845,224 844,221 842,218 841,214 839,210 837,207 835,203 833,200 831,197 829,194 827,191 824,188 822,185 820,181 818,178 816,175 814,173 811,170 809,167 806,164 803,161 801,158 798,156 795,153 793,150 790,148 787,145 784,142 781,140 778,137 775,135 772,132 769,130 766,128 763,126 759,124 756,122 753,120 749,118 746,116 743,114 739,112 736,110 733,108 729,106 726,105 722,103 718,102 714,101 710,99 706,98 703,97 699,95 695,94 692,93 688,92 684,91 680,90 676,89 672,88 668,87 664,87 660,86 656,85 652,85 647,84 644,84 640,83 636,83 632,83 628,83 623,83 619,83 615,83 610,83 606,83 602,84 598,84 594,85 590,85 586,86 582,87 578,87 574,88 570,89 566,89 562,90 558,91 554,93 551,94 547,95 543,96 540,97 536,98 532,100 529,101 525,103 521,104 518,106 514,108 510,110 507,112 503,114 500,115 497,117 493,119 490,122 487,124 484,126 481,128 478,130 474,132 471,134 468,136 465,139 462,141 460,144 457,147 454,149 451,152 448,155 445,157 442,160 439,163 437,166 435,169 432,172 430,174 428,177 425,180 423,184 421,187 419,190 417,193 415,196 413,199 411,202 409,206 407,209 405,212 403,216 401,219 400,222 399,226 397,229 396,233 395,237 393,240 391,243 390,247 389,251 388,255 387,259 386,262 385,266 384,270 383,274 383,278 383,282 382,286 381,290 381,294 380,297 380,301 380,305 379,309 379,313 379,318 379,322 379,326 379,330 Z"/>
   </g>
   <g>
   <path fill="rgb(0,0,255)" stroke="none" d="M 424,392 C 424,383 424,374 424,366 449,334 474,303 499,271 477,271 455,271 433,271 433,263 433,255 433,247 467,247 502,247 536,247 536,254 536,262 536,269 510,302 485,335 459,368 486,368 512,368 539,368 539,376 539,384 539,392 L 424,392 Z"/>
    <rect fill="none" stroke="none" x="424" y="246" width="117" height="147"/>
   </g>
   <g>
   <path fill="rgb(0,0,255)" stroke="none" d="M 558,392 C 558,344 558,295 558,247 590,247 622,247 655,247 655,255 655,263 655,271 632,271 609,271 586,271 586,283 586,294 586,306 606,306 626,306 645,306 645,314 645,322 645,330 626,330 606,330 586,330 586,351 586,371 586,392 L 558,392 Z"/>
    <rect fill="none" stroke="none" x="557" y="246" width="99" height="147"/>
   </g>
   <g>
   <path fill="rgb(0,0,255)" stroke="none" d="M 677,320 C 677,305 679,293 683,283 686,276 691,269 696,263 702,257 708,253 715,250 723,246 734,244 745,244 766,244 783,251 795,264 808,277 814,296 814,320 814,343 808,361 795,375 783,388 766,394 746,394 724,394 708,388 695,375 683,362 677,343 677,320 Z M 706,319 C 706,336 710,348 717,357 725,365 734,369 745,369 757,369 766,365 774,357 781,348 784,336 784,319 784,302 781,290 774,282 767,273 757,269 745,269 734,269 724,273 717,282 710,290 706,303 706,319 Z"/>
    <rect fill="none" stroke="none" x="676" y="244" width="140" height="152"/>
   </g>
  </g>
 </g>
</svg>