<?xml version="1.0" encoding="UTF-8"?>

<svg version="1.2" width="150px" height="150px" viewBox="0 0 1160 1160" xmlns="http://www.w3.org/2000/svg" xmlns:xlink="http://www.w3.org/1999/xlink">
 <g visibility="visible" id="MasterSlide_1_Standard">
  <g id="Drawing_1">
  <path fill="rgb(0,0,255)" stroke="rgb(0,0,255)" d="M 257,682 L 257,666 258,650 260,634 263,618 267,603 271,588 276,573 281,559 288,544 295,531 302,517 311,504 319,492 329,480 339,468 350,457 361,447 372,437 384,427 397,418 409,410 423,402 437,395 450,389 465,383 480,378 495,374 511,370 526,367 542,365 558,364 575,364 591,364 607,365 623,367 639,370 654,373 670,378 684,383 699,388 713,395 727,401 740,409 753,417 766,426 778,436 789,445 801,456 811,467 821,478 831,490 840,503 848,516 856,529 863,543 869,557 875,571 880,586 884,601 888,616 891,632 893,648 894,664 895,680 894,697 893,713 891,729 888,744 885,760 881,775 876,790 870,804 864,818 857,832 849,845 841,858 832,871 823,883 812,894 802,905 791,916 779,926 767,935 755,944 742,953 728,960 715,967 701,974 686,979 671,984 656,989 641,992 625,995 609,997 593,998 577,999 560,999 544,998 528,996 512,993 497,989 482,985 467,980 453,975 438,968 424,961 411,953 398,945 385,937 373,927 362,917 351,907 340,896 330,884 321,872 312,860 303,847 296,834 288,820 282,806 276,791 271,777 267,762 263,746 260,731 258,715 257,698 257,682 Z M 334,693 L 335,705 337,717 339,729 342,740 345,752 348,763 353,774 358,785 363,795 369,805 375,815 382,824 389,833 396,842 404,851 413,859 422,866 430,873 440,880 450,886 460,892 470,898 481,902 492,907 503,911 514,914 526,917 538,919 550,920 562,921 575,922 587,921 600,920 612,919 623,917 635,914 647,911 658,907 669,903 680,898 690,893 700,887 710,881 719,874 728,867 737,860 746,852 754,844 761,835 769,826 776,816 782,807 788,797 793,786 798,776 802,765 806,754 809,742 812,731 814,719 816,707 817,695 817,682 817,670 816,658 815,646 812,634 810,622 807,611 803,599 799,589 794,578 789,568 783,558 776,548 770,538 762,529 755,520 747,512 739,504 730,496 721,489 711,482 702,476 692,470 681,465 671,460 660,456 648,452 637,449 625,446 613,444 601,442 589,441 576,441 564,441 552,442 540,444 528,446 516,448 505,452 493,455 483,459 472,464 461,470 451,475 441,482 432,488 423,495 414,503 406,511 398,519 390,528 383,537 376,546 370,556 364,566 358,576 353,587 349,598 345,609 342,620 339,632 337,644 335,656 335,668 334,680 334,693 Z"/>
  <path fill="rgb(0,0,255)" stroke="rgb(0,0,255)" d="M 373,456 L 547,145 597,173 424,484 Z"/>
  <path fill="rgb(0,0,255)" stroke="rgb(0,0,255)" d="M 649,379 L 774,147 825,175 699,406 Z"/>
  <path fill="rgb(0,0,255)" stroke="rgb(0,0,255)" d="M 532,379 L 657,147 708,175 583,406 Z"/>
  </g>
 </g>
</svg>