<svg xmlns="http://www.w3.org/2000/svg" viewBox="0 0 800 800"><defs><filter id="b" x="-100%" y="-100%" width="400%" height="400%" filterUnits="objectBoundingBox" primitiveUnits="userSpaceOnUse" color-interpolation-filters="sRGB"><feGaussianBlur stdDeviation="17 4" x="0%" y="0%" width="100%" height="100%" in="SourceGraphic" result="blur"/></filter><filter id="c" x="-100%" y="-100%" width="400%" height="400%" filterUnits="objectBoundingBox" primitiveUnits="userSpaceOnUse" color-interpolation-filters="sRGB"><feGaussianBlur stdDeviation="23 17" x="0%" y="0%" width="100%" height="100%" in="SourceGraphic" result="blur"/></filter><linearGradient x1="50%" y1="0%" x2="50%" y2="100%" id="a"><stop stop-color="hsl(30, 100%, 50%)" offset="0%"/><stop stop-color="hsl(0, 81%, 60%)" offset="100%"/></linearGradient></defs><g stroke-width="31.5" stroke="url(#a)" fill="none"><path d="M380.743 143.449c7.89-15.941 30.624-15.941 38.514 0l244.487 494.045c7.066 14.279-3.324 31.013-19.254 31.013H155.51c-15.93 0-26.32-16.734-19.254-31.013L380.743 143.45Z" filter="url(#b)"/><path d="M499.743 143.449c7.89-15.941 30.624-15.941 38.514 0l244.487 494.045c7.066 14.279-3.324 31.013-19.254 31.013H274.51c-15.93 0-26.32-16.734-19.254-31.013L499.743 143.45Z" filter="url(#c)" opacity=".87"/><path d="M261.743 143.449c7.89-15.941 30.624-15.941 38.514 0l244.487 494.045c7.066 14.279-3.324 31.013-19.254 31.013H36.51c-15.93 0-26.32-16.734-19.254-31.013L261.743 143.45Z" filter="url(#c)" opacity=".87"/><path d="M380.743 143.449c7.89-15.941 30.624-15.941 38.514 0l244.487 494.045c7.066 14.279-3.324 31.013-19.254 31.013H155.51c-15.93 0-26.32-16.734-19.254-31.013L380.743 143.45Z"/></g></svg>